<svg xmlns="http://www.w3.org/2000/svg" xmlns:xlink="http://www.w3.org/1999/xlink" width="256" height="256" xml:space="preserve" version="1.1" viewBox="0 0 256 256">
  <path d="M67.36807708104735 194.42879791895265 C64.38757972374479 191.26855006570426 64.0 190.2265472970847 64.0 185.3737689059118 L64.0 179.88994197391827 L58.25 177.35781195799385 C49.42753569563887 173.4726594919948 36.56048056488506 164.49151504764365 29.03448275862079 156.9655172413794 C17.111176058445242 145.04221054120387 8.644402385102458 130.5940399114296 3.270246340544581 113.0 C0.9128982148970399 105.28245762424848 0.6338576639951669 102.55287502839988 0.23897076834475683 83.34797624088944 C-0.18142842662550174 62.90231425847135 -0.12589156269846846 62.1258915626985 1.902023759110591 60.09797624088944 L4.000000000000028 58.0 L128.00000000000006 58.0 L252.00000000000009 58.0 L254.09797624088958 60.09797624088948 C256.12589156269865 62.1258915626986 256.1814284266257 62.90231425847129 255.7610292316554 83.34797624088948 C255.36614233600494 102.55287502840102 255.08710178510321 105.28245762424802 252.7297536594552 113.0 C247.3555976148953 130.59403991143398 238.8888239415553 145.04221054120327 226.96551724137822 156.9655172413802 C219.43951943511405 164.4915150476443 206.57246430436086 173.4726594919949 197.75 177.35781195799376 L192.0 179.88994197391816 L192.0 185.3737689059118 C192.0 190.2265472970849 191.61242027625525 191.26855006570435 188.63192291895263 194.42879791895274 L185.26384583790522 198.0 L127.99999999999994 198.0 L70.73615416209468 198.0 L67.36807708104735 194.42879791895265 Z M182.42857142857116 188.4285714285717 C183.29285714285703 187.56428571428614 184.0 185.76428571428613 184.0 184.4285714285717 L184.0 182.0 L128.0 182.0 L72.0 182.0 L72.0 184.42857142857144 C72.0 190.1584621229104 70.40725250818245 190.0 127.99999999999973 190.0 C174.7186147186101 190.0 181.03963963963926 189.81750321750312 182.42857142857116 188.4285714285717 Z M194.3649986359286 169.09602819598032 C220.20652302879563 156.59222060452296 237.54350825201374 135.8504222688887 245.0390235707627 108.47012395020562 C246.7370259155857 102.26750694923929 247.33521493047354 96.67452688755347 247.73640509809388 83.25 L248.2519190115017 65.99999999999999 L128.00000000000014 66.0 L7.74808098849855 66.00000000000001 L8.263594901906036 83.25 C8.836825652797353 102.43130664508205 10.526309771120058 110.77710246527349 16.41705123439317 123.52684015600023 C25.900123154822058 144.0517062092092 39.88356685168998 158.24217261802863 60.97210439702697 168.74152396018616 L71.5 173.9830479203723 L127.8649986359286 173.99152396018616 L184.2299972718572 174.0 L194.3649986359286 169.09602819598032 Z M66.5 163.34218206208482 C51.84811483353849 157.05240699299424 32.0 140.09461473009466 32.0 133.86614174406665 C32.0 128.10174648883572 37.69962618835116 128.86686066244556 43.0 135.34277470763 C48.715573667518704 142.32597346022075 56.34715538662951 148.18489437609264 66.72790079536388 153.5591680290251 C74.45081278398814 157.55743990547984 76.57233938774876 159.11842413048979 76.84496978507374 161.00314024614477 C77.05434809771023 162.45058955468338 76.48790750594927 163.90128281280732 75.40384014996886 164.69397221711966 C73.16503064120151 166.33102969891115 73.62519442137119 166.40089223656454 66.5 163.34218206208482 Z M205.66666666666669 149.33333333333331 C203.84416423204712 147.5108308987138 205.34282372252352 143.68016768091587 209.60467083958187 139.26755933157813 C218.4764283678983 130.08196673111675 223.963737409857 120.83875013763286 228.46373508395067 107.5 C231.16107762333658 99.50462294111664 231.78861654217508 98.4664502754181 234.08559582233772 98.19944194097185 C238.92898610217594 97.63643051859579 239.64759855181626 100.152713279291 237.1184639461278 108.8192882561515 C232.9456672888799 123.11819311154876 227.1377471010907 133.4167396004973 217.18242387155536 144.16967684192815 C213.14512155864676 148.53044518610335 211.09757030802774 150.0 209.05895317081377 150.0 C207.55986226019954 150.0 206.03333333333333 149.7 205.66666666666669 149.33333333333331 Z M25.21156960877556 124.75 C23.302299841373838 122.44036927562115 20.838581031784617 115.16855044144467 21.170820255367452 112.82347772889767 C21.431761521239256 110.98165352892971 22.121895604514652 110.5 24.5 110.5 C27.146668597435077 110.5 27.833560241667836 111.16688696663999 30.332130735449244 116.16227877113856 C32.64821522243322 120.79282631566512 32.96067413443299 122.20496396014128 32.04694697696125 123.91227877113856 C30.80347048368209 126.23573585210872 26.84118930176993 126.72133992076705 25.21156960877556 124.75 Z M233.24297620117684 88.84297620117684 C232.5442453550072 88.1442453550072 232.0 85.11404484776804 232.0 81.92244471544217 C232.0 75.67555654756596 233.37058057991194 73.63109056608803 237.19495794406143 74.17323613368588 C239.3677423811126 74.4812510965751 239.5 74.9303314723043 239.5 82.0 C239.5 89.26102852717632 239.42011904405217 89.50933506057301 236.99297620117684 89.79297620117683 C235.6141131118241 89.9541131118241 233.9266131118241 89.52661311182409 233.24297620117684 88.84297620117684 Z" fill="currentColor"/></svg>
