<svg xmlns="http://www.w3.org/2000/svg" xmlns:xlink="http://www.w3.org/1999/xlink" width="256" height="256" xml:space="preserve" version="1.1" viewBox="0 0 256 256">
  <path d="M43.5 254.60023612532385 C32.8110601166679 251.21726039744448 16.660365720476833 240.63874168599162 12.336223429154977 234.18832159786132 C3.958854537853032 221.69161243762377 9.430486406986713 197.69352574136508 26.733253521251502 171.04423870226253 C36.61811831946442 155.81981837627188 44.12540055870754 146.7248418284531 59.42521912777275 131.4383399205237 C92.76908131432089 98.12349957575054 125.28914125920723 80.58097093183609 147.17109091061135 84.10495641064064 L153.34218182122254 85.0987816914689 L159.17109091061127 79.3306943369972 C163.5607396611198 74.98684936359138 165.00000000000003 72.85962143068113 165.0 70.71556203717346 C164.99999999999997 69.14968731722983 165.4979508598744 66.8856007461616 166.10655746638767 65.68425854591071 C166.71516407290093 64.48291634565982 175.5982225156586 55.06249999999999 185.8466873391825 44.749999999999986 C204.28191568405236 26.199583368809282 206.8892522943855 24.289252294385587 209.79999999999995 27.200000000000045 C212.6807124955373 30.080712495537398 210.7540104881182 32.72781460244557 192.25 51.312001647036766 L173.5 70.14324405850394 L178.94044702430347 75.07162202925196 C185.00006718940355 80.56089495101216 186.53346279203564 80.94141861104971 190.3851208138532 77.91170396952887 C194.25042070635627 74.87125863096291 195.9970617982202 70.80833860804258 196.02196200049104 64.79965992688417 C196.03459174006773 61.75197195562332 196.84019316969534 57.800289462575144 197.91781758740325 55.5 C199.0753915293464 53.02905084828441 207.2856445850049 44.0495533209614 219.39585558691218 32.00961696297294 C230.17813501411047 21.28990629260806 238.99999999999997 11.775551254490322 238.99999999999994 10.866605767155747 C238.99999999999994 9.957660279821171 238.26141931172222 8.930557605506952 237.35870958160498 8.584155379790815 C236.22267142361383 8.14821663525608 233.78660860106888 9.808392717764601 229.44526340314422 13.977166575608024 C222.85792637781262 20.302652601721302 221.14622590494966 21.003368762086605 218.57142857143035 18.428571428573193 C215.88081651585674 15.737959373005738 216.77666530146874 13.794683652757435 223.93768606983716 6.788082461307965 C230.63073165398964 0.23936508130893763 231.05117669699305 5.483897509409655e-14 235.86096078789274 0.0 C244.42611756150004 -9.765602989822097e-14 249.2509358606605 6.151445335155251 246.95761691347332 14.14778118616475 C246.27995070220211 16.51066517439159 240.34148559750798 23.153643022170456 226.5380593019558 36.989823108332715 C205.89529629763393 57.68156878714275 204.00000000000006 60.35747780485539 204.0 68.81059762424195 C203.99999999999997 75.12825721555815 200.59539940303978 81.62021145616292 195.34116125657354 85.32142857142856 C192.09010511734425 87.6115540453372 190.2713884942364 88.14285714285711 185.68306013177013 88.14285714285714 L180.0302516352717 88.14285714285717 L174.17569694276472 94.62963573355101 L168.3211422502577 101.11641432424486 L173.33635517314684 110.99187514742316 C177.9511865810117 120.0789443256722 178.3875416753661 121.55272210828443 178.8021762114679 129.4525410459863 C179.2930778370093 138.805437682287 177.88699468118344 148.0955195675505 174.97332611523152 154.75 C173.51699040334458 158.07610153779203 172.58338536214293 159.0 170.6786751471754 159.0 C166.0524328860084 159.0 165.4801189615188 156.76981950466066 167.96142998873046 148.41149796621949 C171.35494601569178 136.98040456916553 171.62024858378558 130.7052580188996 169.03304557649182 123.06479700109878 C167.8345515220254 119.52543535170311 166.21182324503303 115.71280754217068 165.426982738731 114.59229075769338 C164.04549331050464 112.61993831222742 164.0 112.64413218516721 164.0 115.35117681555921 C164.0 119.33446583024015 159.6609772230004 131.7332927766139 155.10300057028445 140.77449490823568 C137.82119051073272 175.0546919898942 97.15113926575326 216.95222988242858 65.37855664692071 233.20696484838032 C55.95966404924418 238.02563523110356 49.14494223346897 240.53659485203346 41.924814432174436 241.84875555575752 L37.5 242.65290581167534 L41.0 244.16874290290974 C47.41467985746467 246.94691709043516 55.06223509036295 248.2784079598318 61.02480400076327 247.65519613881125 C77.2612740220664 245.95814907722138 101.3056991969819 232.3598298640548 122.30093311858005 213.00049519130937 C130.59267343924228 205.35482777523612 146.22966199708537 187.29655740803398 152.14734119858122 178.53257289253833 C154.54130353936154 174.98715446567002 157.12590720932255 171.83171864663768 157.89090490960567 171.5204932946887 C159.60735602836561 170.8221864849537 163.99999999999997 173.5721281797131 163.99999999999994 175.34499066228997 C163.99999999999994 177.13901107487385 155.11562074097262 189.8693503039671 147.4473295265788 199.06314858085645 C138.16089670691798 210.19699674452403 119.77441680569888 227.48793248366854 108.9333735254427 235.28228034798326 C98.00385140925755 243.14024153880467 80.21326818070638 252.2147448543545 71.35565547885194 254.44967484111788 C64.03308532876603 256.29728685120034 49.11678628367934 256.3779102327443 43.5 254.60023612532385 Z M32.86405176469006 209.3097456752833 C48.75220279278051 173.11004026550836 88.0568022806435 131.25124440107936 125.0 111.18637336746075 C132.69518331763558 107.00690677062332 149.14634830813898 100.99999999999996 152.89750454302066 100.99999999999999 C156.97266435446056 101.00000000000001 154.13448908873676 96.12180480418064 148.31574145408933 93.12496319070436 C140.2300061385908 88.96055022927008 119.44546191930016 95.83517456988656 99.0558819948695 109.41798483605739 C68.75548065808944 129.603030524673 39.320797356404896 162.50484492218436 25.005448289837013 192.19086881265395 C15.220470576472813 212.48217158256145 14.429543020827605 225.47311760351627 22.588393731290868 231.89087050770286 L25.419147141650644 234.11754146481135 L27.60048896040591 225.2249235008179 C28.80022696072131 220.33398362062152 31.168830222649177 213.17215359913095 32.86405176469006 209.3097456752833 Z M44.64466488583642 231.8845011075114 C73.18019784092539 223.07867508183094 112.50891596468281 189.9990785769446 136.3889593161676 154.7178812387706 C146.84516185805077 139.2695279900669 156.0 119.12003283040136 156.0 111.55463103074996 C156.0 109.24551430918403 155.69917848171477 109.02838281371486 153.25 109.56969452772344 C116.75014937997558 117.63680635631874 64.27986318938325 164.7090079695694 42.9746939137887 208.5 C38.56086008540217 217.57226596054002 35.0 228.24156795407336 35.0 232.39434452114807 C35.0 234.49739061184488 36.42093128526352 234.4222762905494 44.64466488583642 231.8845011075114 Z M172.4970011193488 81.06842969077735 C171.1655811816172 79.73700975304577 170.3909331008765 80.16982147366073 165.55177178660796 84.94887131621182 C160.90584011289928 89.53709179323397 160.2590255744033 90.61547662117007 161.15207425745024 92.28415334927183 C162.1199108698066 94.09257260155017 162.64483450938084 93.79928703190367 168.09730359019107 88.40371172383736 C173.33769323752017 83.2180029070212 173.82842105708036 82.39984962850893 172.4970011193488 81.06842969077735 Z" fill="currentColor"/></svg>
