<svg xmlns="http://www.w3.org/2000/svg" xmlns:xlink="http://www.w3.org/1999/xlink" width="256" height="256" xml:space="preserve" version="1.1" viewBox="0 0 256 256">
  <path d="M49.678934218317096 228.4572822252348 C44.16474256870133 226.43434922506358 38.38530933427806 221.5114462980232 35.23676749045379 216.15549034122517 L32.5 211.5 L32.0 179.5 C31.539366505997876 150.01945638386417 31.345993304000523 147.24538990750352 29.543937452719582 144.266158361753 C26.916588247626787 139.92251849734419 22.469464794061913 137.99999999999997 15.04921095058282 138.0 C4.835828356798544 138.0 1.5503270744183107e-14 134.14398784945368 -3.552713678800501e-15 126.00000000000001 C-2.5574930836291925e-14 116.58832831893348 4.411016195255382 114.00000000000003 20.450340073115772 114.00000000000001 L32.0 114.0 L32.0 109.56738767055708 C32.00000000000001 106.03255954128507 31.600202047848768 105.0078844003874 30.02608540932858 104.50827918730236 C23.885586338702687 102.55936049121861 21.805768716777422 91.76114628147643 26.497051636513824 86.18587330394762 C27.870430036596424 84.55370581098121 30.13717016152057 82.93140451750712 31.534251914123033 82.58075931844964 C32.9313336667255 82.23011411939216 36.254867309607995 80.37671321285212 38.91988223163969 78.46209063724956 C51.98460836411207 69.07601951603172 76.68933348887754 61.63603799146427 103.75 58.93809771702023 L116.0 57.71677641850914 L116.0 53.85838820925457 C116.0 51.721357153266 115.50975662819343 49.99999999999999 114.9011291225329 49.999999999999986 C112.23657169112977 49.99999999999995 106.78719862463164 46.48916766315051 105.45594910730273 43.914814966752914 C102.63055916487568 38.451113292512545 104.3512476473363 30.968666302306087 109.21679497935995 27.560704293701917 C112.48234208900514 25.27342606423511 143.51765791099473 25.27342606423506 146.78320502064008 27.56070429370186 C151.6487523526634 30.968666302305625 153.3694408351242 38.45111329251263 150.5440508926974 43.91481496675253 C149.21280137536823 46.48916766315065 143.76342830887077 50.0 141.09887087746756 50.0 C140.4902433718065 50.0 140.0 51.72135715326502 140.0 53.85838820925456 L140.0 57.71677641850911 L152.25 58.9380977170202 C179.3106665111224 61.636037991464235 204.01539163589075 69.07601951603253 217.0801177683606 78.46209063724955 C219.74513269039247 80.37671321285244 223.06866633327468 82.2301141193924 224.4657480858766 82.58075931844945 C225.86282983847855 82.93140451750651 228.12956996340253 84.55370581098032 229.5029483634855 86.1858733039468 C234.19423128322367 91.76114628147656 232.11441366129853 102.55936049121817 225.97391459067057 104.50827918730262 C224.39979795215135 105.00788440038735 224.0 106.03255954128572 224.0 109.56738767055708 L224.0 114.0 L235.54965992688426 114.00000000000001 C251.5889838047442 114.00000000000003 256.0000000000001 116.58832831893378 256.0 126.00000000000001 C255.99999999999994 134.14398784945413 251.1641716432021 138.0 240.95078904941744 138.0 C233.53053520593954 138.0 229.08341175237487 139.92251849734404 226.45606254728148 144.2661583617524 C224.65400669599916 147.24538990750415 224.46063349400222 150.01945638385757 224.0 179.5 L223.5 211.5 L220.76323250954613 216.15549034122526 C217.51702298892383 221.67758789666806 211.79526263473292 226.45531225275283 205.96459895110183 228.5124902175249 C199.8687055454815 230.6632466785513 55.55307816948633 230.61226710817843 49.678934218317096 228.4572822252348 Z M202.78211863089666 220.44695208635895 C208.50722380354384 218.0554388127927 214.99999999999997 210.95330945845836 214.99999999999997 207.08241104971495 C214.99999999999997 206.4702161955331 210.52267428710712 205.95297167920822 203.75 205.78275112283075 C192.8613363500602 205.50908162299547 192.48950474108574 205.42596484593528 192.17323613368598 203.1949579440613 C191.54168931158947 198.739930521207 193.3860766499066 198.0 205.12244471544219 198.0 L216.0 198.0 L216.0 152.0 L216.0 106.0 L128.0 106.0 L40.0 106.0 L40.0 152.0 L40.0 198.0 L98.87755528455783 198.0 C162.47618736983924 198.0 160.58604192457884 197.83889493687002 159.82676386631408 203.1949579440614 L159.5 205.5 L100.25 205.75793013424607 C59.99943410136119 205.9331509589839 41.0 206.349907130039 41.0 207.05759006113027 C41.0 208.96777458639664 43.788352418989184 213.4685888260093 46.6607235918476 216.19483726675253 C52.90342799995127 222.11996397719673 50.06459250866217 221.91818262431508 127.78211863089665 221.96085818936479 C190.02344068234703 221.99503559722268 199.53578061390135 221.80302507087274 202.78211863089666 220.44695208635895 Z M168.70631200116122 205.3729786678279 C167.58623980775994 204.2529064744266 167.88519707984278 200.51480292015725 169.2 199.2 C170.56234995718603 197.837650042814 180.808799137012 197.59244279882796 182.83007584339555 198.87381936178826 C183.5855420003485 199.35274271976888 184.01755472300326 200.96617511631362 183.83007584339555 202.60850658727122 C183.50455182322364 205.4601256283051 183.4028658920224 205.50399427703223 176.45631200116122 205.7896453344946 C172.58228360179993 205.9489502684666 169.09478360179992 205.7614502684666 168.70631200116122 205.3729786678279 Z M200.62764842410763 172.47205063827937 C200.28244179084842 171.57245657216635 200.0 163.9533295461835 200.0 155.54065724720638 C200.0 139.0806433230398 200.47170687367083 137.50366579879466 205.1949579440614 138.17323613368586 L207.5 138.5 L207.5 156.0 L207.5 173.5 L204.37764842410763 173.80383810651514 C202.21124393807725 174.0146523665311 201.06313441234008 173.60690893225404 200.62764842410763 172.47205063827937 Z M32.0 127.5 L32.0 122.0 L21.571428571428584 122.0 C13.424242424242475 122.0 10.799086757990882 122.34377038486627 9.571428571428585 123.57142857142856 C7.59784808967993 125.5450090531772 7.597848089679927 126.45499094682279 9.571428571428575 128.42857142857144 C10.675075417708118 129.53221827485098 13.13092947474053 130.01342650315618 17.821428571428577 130.04510392249134 C21.494642857142857 130.06991107986158 25.85 130.7083625836599 27.5 131.46388504204316 C31.947385828000986 133.50030920819484 32.0 133.45396331277564 32.0 127.5 Z M228.34575741443103 131.5 C230.32026034250788 130.675 234.84307326496764 130.0 238.39645279767498 130.0 C242.9364740638579 130.0 245.32430561998058 129.53283723716228 246.42857142857144 128.42857142857144 C248.40215191032007 126.45499094682278 248.40215191032007 125.5450090531772 246.42857142857142 123.57142857142857 C245.2009132420091 122.34377038486627 242.57575757575754 122.0 234.42857142857142 122.0 L224.0 122.0 L224.0 127.5 C224.0 130.525 224.17004422039736 133.0 224.37787604532747 133.0 C224.5857078702576 133.0 226.3712544863542 132.325 228.34575741443103 131.5 Z M201.24297620117684 128.84297620117684 C200.5442453550072 128.1442453550072 200.0 125.11404484776804 200.0 121.92244471544217 C200.0 115.67555654756596 201.37058057991194 113.63109056608803 205.19495794406143 114.17323613368588 C207.3677423811126 114.4812510965751 207.5 114.9303314723043 207.5 122.0 C207.5 129.26102852717634 207.42011904405217 129.509335060573 204.99297620117684 129.79297620117683 C203.6141131118241 129.9541131118241 201.9266131118241 129.5266131118241 201.24297620117684 128.84297620117684 Z M222.42857142857116 96.42857142857167 C224.40215191032019 94.45499094682332 224.40215191032019 93.54500905317668 222.42857142857116 91.5714285714283 C221.02256410256376 90.16542124542133 211.08225108224377 90.0 127.99999999999976 90.0 C44.91774891774892 90.0 34.977435897435896 90.16542124542124 33.57142857142857 91.57142857142857 C32.707142857142856 92.43571428571428 32.0 93.52857142857142 32.0 94.0 C32.0 94.47142857142858 32.707142857142856 95.56428571428572 33.57142857142857 96.42857142857143 C34.977435897435896 97.83457875457876 44.91774891774892 98.0 127.99999999999974 98.0 C211.0822510822441 98.0 221.02256410256373 97.83457875457867 222.42857142857116 96.42857142857167 Z M204.4500000000004 81.08769739381032 C200.90859136862818 77.68681705277636 177.77627328001 71.05185044824212 160.0 68.33825030244155 C144.1648123428148 65.92096255835412 111.83518765718516 65.9209625583541 96.0 68.33825030244154 C78.22372671999064 71.051850448242 55.091408631369596 77.68681705277709 51.55 81.08769739381022 C50.97720931954486 81.63775889968437 81.3326329818658 82.0 128.00000000000037 82.0 C174.66736701812957 82.0 205.02279068045567 81.63775889968434 204.4500000000004 81.08769739381032 Z M132.0 54.0 L132.0 50.0 L128.0 50.0 L124.0 50.0 L124.0 54.0 L124.0 58.0 L128.0 58.0 L132.0 58.0 L132.0 54.0 Z M141.77749375659457 40.443296031350954 C144.41204864429378 38.597981957892586 144.53501267683842 37.67786981969561 142.42857142857144 35.5714285714286 C140.12652931456532 33.26938645742238 115.87347068543478 33.26938645742235 113.57142857142857 35.57142857142857 C111.4649873231616 37.67786981969555 111.58795135570622 38.597981957892586 114.22250624340543 40.44329603135095 C117.41249274626811 42.67764955169667 138.58750725373187 42.677649551696675 141.77749375659457 40.443296031350954 Z" fill="currentColor"/></svg>
