<svg xmlns="http://www.w3.org/2000/svg" xmlns:xlink="http://www.w3.org/1999/xlink" width="256" height="256" xml:space="preserve" version="1.1" viewBox="0 0 256 256">
  <path d="M30.885071039180445 254.62038044989606 C25.2764269049893 252.616070900451 21.259181637261698 249.29708033329825 18.25385783594173 244.1846528108518 C15.515452366802727 239.52628638727532 15.498194412655424 239.38042010285972 15.178215582064775 218.18895807581367 C14.830255195721078 195.14434196634332 15.126680750087218 193.6429014143653 19.914404177662288 194.19944194097184 L22.5 194.5 L23.020396440184868 215.0 C23.584039404399757 237.20361223512697 24.129662612948465 239.59703198422204 29.610567805027905 243.90831263664643 C34.627235914782894 247.854424346894 38.13197602254729 248.08232584185632 89.23982018465188 247.78580293348617 C138.013933353886 247.50282011299694 138.53491151698452 247.47828602398573 142.03809013235858 245.29940802044158 C143.9840397051558 244.08908243168443 146.5715397051558 241.32781290066725 147.78809013235858 239.16325350707007 C149.9505002123641 235.31576396054342 150.0 234.46426560419656 150.0 201.11384548662846 L150.0 167.0 L86.54044234283072 167.0 L23.080884685661438 167.0 L22.79044234283072 175.14460031904744 C22.560013740161033 181.60629200122415 22.13839967596246 183.5165511236354 20.75 184.3894854643181 C19.47699817252892 185.18986523261574 18.52300182747108 185.18986523261574 17.25 184.3894854643181 C15.862508492967663 183.5171221204888 15.439929049267137 181.6078531165352 15.210009100967776 175.17254069823554 L14.920018201935552 167.0558807583762 L11.415958208270542 165.3930954190568 C5.547281214811083 162.60822584388757 3.2752568876794848 155.23596554840344 6.41468646160321 149.16497819135486 C9.445876795883565 143.3033024432907 6.645109089491186 143.5 87.07805738091807 143.5 C160.35195649144083 143.5 160.87252670040897 143.51420781279322 163.67666956205207 145.59058974820658 C165.22950130292344 146.7404141097202 167.13533006733036 149.4780446339038 167.91184459406747 151.67421313528126 C169.19300028534732 155.2976273505595 169.14671725131626 156.02977035825836 167.41184459406747 159.58362338707468 C166.23909347932323 161.9859813260089 164.251960256143 164.079879882719 162.27164241841342 165.0 L159.04328483682684 166.5 L159.02164241841342 174.3180942106382 L159.0 182.1361884212764 L161.75 180.15947000983783 C165.78381006732798 177.25994032680748 169.2790438550523 173.22567115749484 173.32076276087076 166.80426280293926 C176.20904431772425 162.215414406583 177.6436556083125 160.9039153374747 180.70286734619725 160.05565894401826 C182.79129030578875 159.4765822799951 199.07943495297542 157.38927526149035 216.8987443399454 155.41719890289656 C249.14165732145813 151.8488514971585 249.3100001895618 151.84094605454186 251.8987443399454 153.773586110154 C253.56423153260033 155.01696400833563 254.7490713691259 157.11574187623916 255.1923703151664 159.60778334833645 C256.12124655859964 164.82953752067777 256.1461345703558 174.23527720973138 255.23468722548296 175.6002959998886 C253.94716651650162 177.5285368032245 250.66226317848674 178.7296172091889 244.69712526601634 179.45321278123885 C238.18827865297192 180.24276243750165 236.00000000000006 179.22614117947174 236.0 175.4127390430458 C236.0 172.4761556242608 238.67467633980942 171.00000000000003 243.99553144547247 171.0 L248.12254579912369 171.0 L247.43314186187666 166.25 C247.0539696963908 163.6375 246.60219553255146 161.33829864096148 246.429199275567 161.14066364658106 C246.13060663865275 160.7995443926316 194.70818027952586 166.3625583355651 186.72141134776945 167.60000989415659 C183.5304193393207 168.09441483663682 182.42407340738185 168.98744715881153 179.6069626386004 173.3427278527321 C175.48061803150105 179.72209681575544 170.1362051953791 185.0624079757317 163.82578627139765 189.1117926416117 C159.1368950711554 192.1206458342395 159.0 192.34737104586924 159.0 197.10424557967585 C159.0 199.79691051085413 159.2399596785848 202.0 159.53324373018845 202.0 C159.8265277817921 202.00000000000003 162.21566456607442 200.91092954135792 164.8424365841492 199.57984342523974 C171.8494669350074 196.02911243257375 179.3631702296972 189.75766131174362 184.05429514538952 183.54431112091348 C186.3246391124665 180.53726219883077 189.05059788168796 177.801328526753 190.11198129921496 177.4644585162962 C194.931397645677 175.93483518864798 223.5153186840266 173.2054226731604 225.2110168377534 174.11293278433308 C227.26676278142077 175.21313462496147 227.59808714379957 179.285211143601 225.75 180.73719869453808 C225.0625 181.2773471635204 217.75 182.4967379806822 209.5 183.4469560660088 L194.5 185.17462531205715 L187.74787172282376 192.49901523375559 C180.74021854864023 200.1005864979219 171.83893458300963 206.41233486129494 163.8774930808777 209.42509285448273 L159.25498616175543 211.17433571024225 L158.77948690515763 224.33716785512112 C158.11488945125933 242.7346408441835 155.29712317842794 248.51236273050688 144.5 253.61670917580557 L139.5 255.98046216859203 L87.0 255.94633826023818 C46.69708534344382 255.92014220374043 33.660160056274236 255.6120884785109 30.885071039180445 254.62038044989606 Z M159.5 155.0 L159.5 152.5 L87.5 152.2402989273881 C21.086367498094916 152.00074765521035 15.40432923852745 152.1107645756616 14.266945635357398 153.65825402525638 C11.054553603716093 158.02893667187791 11.039241705502093 158.02807835231394 87.37787249666692 157.75654007627918 L159.5 157.5 L159.5 155.0 Z M46.9752491529363 136.43490033882549 C46.43886211882133 135.0240955251795 46.0 133.52753683719877 46.0 133.10921436553497 C46.0 131.16131094002026 40.384367740226295 127.64394946571707 27.602257792893386 121.58575508972294 C11.181831991963563 113.80314864614597 6.1010023170092715 109.94971087832634 2.467328602354055 102.52274931494905 C0.06933172287291267 97.62142023271058 -0.165928360612021 96.17377877318239 0.14923656187872325 88.25867997056622 C0.7890488474030289 72.19033894127139 7.552621029485206 62.61796813821351 32.0 43.18082617048808 C51.938262266237516 27.328704160762435 55.174112770981196 21.26756445335254 49.44810225899055 10.498418480181954 C46.35625710160748 4.683456779260576 46.49595804689144 0.6423334683608183 49.80504205593862 0.1732361336859185 C52.81562642225023 -0.25354574860825296 54.64726637285961 1.3655310714504179 57.45700802982721 6.937185965681493 C60.83864437066169 13.642895233363593 61.44762758243165 18.948392444877165 59.57506169070925 25.389792826526623 C57.540572963363964 32.38818819552984 51.50027989928901 39.080325453975114 36.4926744462154 50.96313869801468 C30.29348124108183 55.871573647924336 22.987326151496333 62.15717145839774 20.256774247136512 64.93113383240002 C10.751804426722657 74.58721420419464 6.0621355284711385 87.59818321559935 8.941736149931458 96.32345880026452 C10.85462189597012 102.11955954138081 18.511168653584903 108.13821648579518 30.72840799801971 113.44952201979129 C48.73913267070873 121.27947925713627 55.0 126.63236500642067 55.0 134.2011291225332 C55.0 139.3042126870081 48.72975461613712 141.04959941919398 46.9752491529363 136.43490033882549 Z M71.2 137.8 C70.54 137.14 70.0 135.5470728697166 70.0 134.26016193270357 C70.0 127.4034580389666 63.72248413797823 121.19975130943101 48.5 113.01295242871063 C31.64858577881525 103.95009922853163 26.0 97.79810320244628 25.999999999999986 88.50771943639994 C25.99999999999997 78.67541953589958 30.110838200117907 73.84490254179862 48.892276793828024 61.60772320617204 C70.80963920748792 47.3273104954173 75.32986690899072 40.526283383646586 71.5486760259337 27.51944367515994 C69.41360415292685 20.175054439817576 70.1261479637874 17.78445588017611 74.32851876600952 18.193016374599708 C78.96763519028056 18.644037902492148 80.48618402201313 22.414241717983863 80.4938093548605 33.5 C80.50407107497631 48.41855516850384 76.43672903535719 53.98939600563071 55.5 67.73280670107084 C41.12249588362655 77.17057243386553 37.54045989593194 80.12293009981 35.329347544370066 84.35770399664703 C31.928571095665937 90.87095029269236 36.63750845414556 96.49691121319367 52.87441354648733 105.31951515724354 C64.7044578883757 111.74757489371738 73.06129866451398 118.28407163571146 75.51445112339334 123.02794539114521 C77.9039519285922 127.648730421175 79.16527422539316 134.822665193194 77.97818620928703 137.0407594407846 C76.80977549827969 139.22395482456892 73.0455900757881 139.64559007578808 71.2 137.8 Z M106.50125551084405 118.96766791380743 C76.80194604180826 108.07917417385971 51.71444604180827 98.67825184292634 50.751255510844054 98.07672940062218 C49.636926662870295 97.38081951715174 49.00000000000001 95.73795975725672 49.0 93.55962032703641 C48.999999999999986 89.45639267367572 51.475223631573975 87.40841195803442 61.667855445799894 83.07833559357084 C73.8953822232512 77.88378666254893 78.68328688383203 78.20510473639827 77.82676386631427 84.16276598583303 C77.56543484918751 85.98047517384867 76.03027648271366 86.97728058062434 70.16059989616186 89.14054147894329 C62.92499203173929 91.80721439317784 61.26425855805359 92.67082102824936 62.08333333333288 93.34084279605918 C63.03169615464307 94.11662512172371 159.0 128.68720603578632 159.0 128.25305164701666 C159.0 127.992848478121 157.54265043945318 125.0169651066304 155.76144542100707 121.63997748814865 C151.08366234837794 112.77136587150679 136.50834389407441 98.40674803611451 127.5 93.78707916408509 C117.67419577727898 88.7481993828394 107.9461188112348 85.96917200017315 97.74957542591191 85.28825202425855 C88.24186398395688 84.65333189481764 86.37841050501162 83.6127458235028 87.40738472346573 79.51298598545264 C88.08986407594016 76.7937716558879 88.82840592547664 76.65910122320128 101.25 76.98883520107218 L107.0 77.14147023014999 L107.0 70.74504914178448 C107.0 65.35191384434034 107.3630242587378 64.00758447016167 109.31445122136759 62.174314026709496 C112.54337269512824 59.140899804485045 116.2984067779462 59.41996697361226 127.67746986172915 63.5390195168792 C139.43651089120618 67.79561845672313 142.0 69.88213716029428 142.0 75.19665711457702 C142.0 78.28717376683151 141.22339175904605 79.88720663510945 138.0549674893759 83.3245410984888 L134.10993497875182 87.60439602124254 L137.75241296182577 89.55219801062127 C142.88631551862028 92.2975339220169 155.89437613078755 105.3871792588595 160.47247219205667 112.41475425344848 C164.84717281930696 119.1301084804968 169.9325557343878 130.46740952862697 169.97294524564234 133.59501243788793 C170.01060069049427 136.51090013274944 166.89863048303434 139.0223748740312 163.42125932841594 138.88246462958347 C161.81456669778717 138.81782017585437 136.20056497987983 129.85616165375515 106.50125551084405 118.96766791380743 Z M129.38767883332324 79.11502731272367 C131.4741447336853 76.9782923347217 132.77672547516852 74.98004274358205 132.28230270328592 74.67447266574668 C131.78787993140332 74.36890258791131 127.66728566891558 72.76269428969908 123.12542656442426 71.10512089194172 L114.8675009198946 68.09135107783744 L115.5589495568853 73.79567553891872 C115.93924630723018 76.93305399251342 116.3065586002539 79.53278436615851 116.37519909693799 79.57285414701892 C116.83045887125887 79.83861794933449 124.60633027381411 82.82453011597116 125.04705223451428 82.90282071285827 C125.34793096349713 82.95626932078622 127.30121293296116 81.25176229072565 129.38767883332324 79.11502731272367 Z" fill="currentColor"/></svg>
