<svg xmlns="http://www.w3.org/2000/svg" xmlns:xlink="http://www.w3.org/1999/xlink" width="256" height="256" xml:space="preserve" version="1.1" viewBox="0 0 256 256">
  <path d="M5.2 218.8 C3.6169779194888125 217.2169779194888 3.6845925640820854 214.69063898760967 5.421222269151709 210.53429906319127 C7.18783880065305 206.30619056108418 11.471109926960224 204.0 17.557328877300122 204.0 C21.39970483228327 204.0 22.107460128454097 203.72241989684915 21.604827330662822 202.41257982205744 C20.148585306670515 198.61767393847242 19.86627122216954 192.93523193845533 20.96810778171828 189.59663437055838 C21.62311312647982 187.6119486818969 24.260745607541104 183.4401995813146 26.82951329518781 180.3260808137088 C29.398280982834514 177.21196204610303 32.625 172.37713618536162 34.0 169.5820233453946 C38.33728779633911 160.7651442107184 42.10131856030079 162.3826569250716 48.81425641399863 175.94813712234742 C52.341405313290096 183.075786683385 52.5 183.83955541102858 52.5 193.69813712234742 C52.5 202.78646632050183 52.70323003494403 204.0 54.2252491529363 204.0 C55.663990489940936 204.0 55.78854111590881 203.57402030870767 54.975249152936314 201.43490033882549 C53.59455929403275 197.80341080756315 53.766540758108256 191.49262546762915 55.349065227813135 187.7178813691035 C56.091051103110345 185.94804661609658 59.019863325026826 181.8 61.85753683207197 178.5 C64.69521033911712 175.2 67.47925708925602 170.81702601857327 68.04430738793621 168.76005781905172 C68.78952227032413 166.04723151232722 69.75198162884202 164.84936868182356 71.54882176912992 164.39839051430255 C74.5807657766484 163.63742100906995 75.98196353454479 164.73843301119314 80.05051727537092 171.07872434870802 C85.90430867598873 180.20106739078852 88.69895924085844 194.40119923364654 86.02475084706371 201.43490033882549 C85.1384043400645 203.76616832090127 85.27835001211997 204.0 87.5599346055517 204.0 C89.73204854560812 204.0 89.93086077980942 203.73932927718002 89.03518375848797 202.06574145408933 C87.45188694563147 199.10732429784073 87.80304675233761 190.28346211825257 89.64667465318786 186.7003400731158 C90.55234571244117 184.9401530329021 93.0892806160893 181.475 95.28430777240591 179.0 C97.47933492872252 176.525 100.34556687304169 172.10830814234524 101.65371209311519 169.18512920521164 C103.77368276409454 164.44784658730802 104.32848882272876 163.90447667373357 106.7589456069154 164.18512920521164 C109.95792339801724 164.55452528789715 114.77909821592361 171.24902382411315 118.14833592671282 180.0 C120.35641703236159 185.73508514643572 121.13735822206293 196.2209147803155 119.73094797178506 201.25 C118.97281928525581 203.96093997735707 119.02678830444839 204.0 123.53060789866929 204.0 C129.46715967135376 204.0 133.3342458191032 206.07725474151664 135.36515503986897 210.35707822983628 C137.39594802681074 214.63665677355422 137.44305635919966 217.3874064498798 135.51298598545262 218.98922258930693 C133.63419640367493 220.54847945144738 129.0 219.4752941530473 129.0 217.48094797178516 C128.99999999999997 216.6664265873033 128.1 215.09999999999997 127.0 214.0 C125.04892966360859 212.04892966360856 123.66666666666657 212.0 70.50000000000001 212.0 C17.333333333333343 212.0 15.95107033639144 212.04892966360856 14.000000000000002 214.0 C12.9 215.1 12.0 216.62685503811704 12.0 217.3930111958157 C12.0 219.87325195655822 7.2550335300141295 220.8550335300141 5.2 218.8 Z M40.98565580534031 203.00767678001046 C45.47880026971283 200.60301883813804 45.910101321728064 189.66443176386522 41.827320265105236 181.66151975710994 L39.845126916892376 177.7760998126849 L38.23491204329852 180.13804990634245 C37.349293862821895 181.4371224578541 34.90914030652111 184.47585549434658 32.81234858485233 186.89078998743685 C28.797626061437178 191.5146597794567 27.8644199158803 196.0096321118691 30.065371756790533 200.1221482448855 C31.856797238425713 203.46945737604509 37.39060853151125 204.93168769196032 40.98565580534031 203.00767678001046 Z M76.0 202.0 C77.94174722431246 200.05825277568752 78.40301252584412 197.3165350068719 78.01887432810813 190.0 C77.79135764345946 185.66657573318548 74.24108029971927 177.3096493037112 73.16406068277854 178.57235180953901 C63.38503521990492 190.03732399973828 61.88199121101837 192.91514637922486 63.17126288232609 197.70518955334518 C64.76832512365098 203.63876992895686 71.9552036196288 206.0447963803712 76.0 202.0 Z M107.628101582886 203.40159110490504 C112.43109124991632 202.1126558603009 113.5592524331367 190.9260109735806 109.72259874452715 182.6329311722523 L107.47093132807424 177.76586234450463 L101.73546566403712 184.96466626495805 C95.75121417753078 192.47573085595732 95.31856134142492 193.7467772542201 97.0527607298329 198.72150487560674 C98.5287582262968 202.95555406501234 102.59109221729865 204.7533281163905 107.628101582886 203.40159110490504 Z M18.5 156.77107188245986 C13.607457911971343 155.00084916873448 8.332379126668664 151.30232768507656 5.610636304961628 147.73393888842736 C1.148289941590103 141.88350120459205 2.6107196832274185e-16 137.7605402516197 -3.552713678800501e-15 127.58882259954554 C-7.949561611506917e-15 115.86202411931876 0.7890077263599533 115.0 11.522506243405324 115.0 C19.120897212917807 115.0 20.999999999999993 115.93677640028076 21.0 119.7247508470636 C21.0 122.50216853934823 17.776080274324165 124.0 11.797990001937233 124.0 L7.726179326223511 124.0 L8.241958031934537 130.42551581123072 C8.911522334173117 138.76687609429777 11.919114027070796 143.40036028410773 19.5 147.7696119498229 C22.10835235035064 149.27293859162143 26.53304072115791 149.56402687103267 53.39287571189564 149.99933256480818 C81.40293766443764 150.45327948797996 84.38858704152717 150.66330380266044 85.38776085716628 152.25 C86.19060152339303 153.52491754911205 86.19021000430021 154.475082450888 85.38631866873949 155.75 C84.377666607319 157.34965427809476 81.58597119852263 157.51531523780068 52.89143352346884 157.67826690252002 C32.380816784018805 157.79474339640757 20.460147827347473 157.4802938255312 18.5 156.77107188245986 Z M93.04568084912805 156.55504205593857 C92.38611612916209 155.7603151867048 91.9935160072131 154.0728151867048 92.17323613368588 152.80504205593857 C92.49017460586613 150.5693098259309 92.89102049174335 150.48204260161717 105.50419768909617 149.9027894612089 C119.00626556468202 149.28271451129223 122.1220694952344 148.4128834586838 126.86379944807912 143.93988380494085 C130.33506341432445 140.66534841944286 132.95301775977487 134.1614441344634 132.9780379995091 128.75 L133.0 124.0 L82.75 123.98634531670754 C55.1125 123.97883524089669 31.482577667279735 123.70006390819204 30.23906148284385 123.36685346625275 C27.560515740364778 122.64911499064864 26.25133505691745 118.60701235752362 28.010777410693024 116.48701401454743 C29.854562209736557 114.26538924213641 135.62269531825567 114.24738549572872 138.55887036489509 116.46819662812953 C140.15647588131705 117.67656467829589 145.48496350261829 117.94202153841775 168.66821253176437 117.96819662812952 C184.16072942423475 117.98568848265826 197.54822942423476 118.27314496188295 198.41821253176437 118.60698880418437 C200.71185418717704 119.4871416904627 200.46300619428538 124.68183908776314 198.0657414540893 125.96481624151201 C196.86659530156484 126.60657978639648 185.65515945151242 127.00000000000001 168.5657414540893 127.0 L141.0 127.0 L141.0 129.5 L141.0 132.0 L158.5496599268842 132.0 C177.29607838126748 132.0 181.19535332156426 132.81502441668317 182.27927624430293 136.95995204066008 C182.80158646182423 138.957269380734 183.4535713476674 139.0 213.40638038489007 139.0 C242.66666666666683 139.0 244.08716414403443 138.91283585596557 246.0 136.99999999999997 C247.1 135.89999999999995 248.0 134.20012780953238 248.0 133.22250624340538 C248.00000000000006 130.11537841124934 245.07651063292442 126.99785572247485 242.19329603135094 127.03040868590058 C239.88097046984984 127.05651602088385 239.74753993414635 127.20499614750533 241.25 128.08009879947213 C243.59952120560783 129.4485692730694 243.48656184703506 133.66923248499094 241.06574145408928 134.96481624151204 C238.7208122080985 136.21978428876977 233.01636075511098 136.29644992183134 231.125 135.09841598251427 C229.34540638458486 133.97117806997005 229.34540638458486 129.02882193002995 231.125 127.90158401748576 C231.95565233387964 127.37542861055368 228.21816464153116 127.02456338680126 221.68425854591064 127.01531277451707 C215.73560074616148 127.00689074853268 209.9981007461615 126.53416730868041 208.93425854591064 125.96481624151201 C206.5369938057145 124.68183908776308 206.28814581282288 119.48714169046275 208.58178746823563 118.6069888041844 C209.45177057576524 118.27314496188296 217.79122395966874 117.99999999999999 227.1139060991323 117.99999999999999 C245.9601582882091 117.99999999999999 248.84951446520432 118.65558133271391 253.29669146293838 123.94075090486675 C258.38867935884747 129.99223468951064 256.37298808146085 141.08627002845927 249.34400957869275 145.69566595529847 C246.85705368918383 147.32653797216645 243.46365891328043 147.52525741455068 214.04626863939097 147.76272500975642 C179.37875991629036 148.04257342090375 177.5447028808534 147.82693828361494 175.5128715302689 143.23224737722705 C174.5443125988108 141.04199230837446 174.19629664284963 141.00102140866247 157.0128715302689 141.05429653420217 L139.5 141.10859306840433 L136.5 145.7762109026693 C133.01796768895957 151.19380960750237 127.26721232117428 155.41696213451587 121.30717994682219 156.9332837212178 C114.75645134767277 158.59988728301403 94.51795390694318 158.32902256531915 93.04568084912805 156.55504205593857 Z M44.44695282360621 101.27869572523312 C42.47502516277725 98.26915371562497 41.400063743275965 90.5264724504589 42.40066222130778 86.53977056748005 C42.75524687079319 85.12699279416239 45.285155227606595 81.49782582581027 48.02268079200425 78.4749550822531 C53.37401697671507 72.56582393035448 54.135966228673595 69.66333701241086 51.42287261566628 65.52263278347746 C50.55545255428274 64.19878243816952 49.99295255428274 62.07711492062475 50.17287261566628 60.80781607782242 C50.44340179551916 58.89928863351751 51.10555528265056 58.5 54.0 58.5 C57.179331526748165 58.5 57.716384870820775 58.93627308028099 59.86177582470959 63.261789537645875 C63.37984726055627 70.35489108464195 62.336234489517096 75.50330995561188 55.9511508115679 82.55394096934776 C49.91032727959454 89.224427981151 49.227543724694385 91.56601281032142 51.8801707118288 96.51523979236617 C54.38829794524544 101.1948615553328 53.3387848144745 104.0 49.07982617499596 104.0 C47.08171504226697 104.0 45.69713116018533 103.18670903534374 44.44695282360621 101.27869572523312 Z M66.72459079361676 102.2481700335114 C60.83206376143056 95.73700095353641 62.0337736132946 86.2581613876711 69.82310413777098 77.80773556726069 C75.79194532326069 71.3323074783773 75.7477790104359 68.78283515536593 69.5520110253461 62.15905803721394 C62.50572365073347 54.62600689775849 61.322525868238245 49.09664785182296 65.09104532583277 41.3119254536878 C67.34638793282124 36.653009318145635 70.89698756022594 34.83969155017654 73.51298598545253 37.010777410692974 C75.40215050614201 38.578644707364994 75.40932881444186 41.076559612089504 73.53180337187047 43.55887036489507 C70.66881468510996 47.34408011021447 71.62088318643319 51.68037543675406 76.4479889746539 56.840941962786125 C81.43019569399846 62.16732392946324 83.0 65.47920019102884 83.0 70.66397053864132 C83.0 75.41815924072888 80.74315864442056 79.8684294620173 75.96713502718345 84.53209178761243 C71.55780137982265 88.83769093455955 70.78863212521524 92.82551760819089 73.59476840475162 96.83183835170925 C75.9957979899076 100.25978827094876 74.71282531231189 104.0 71.13593553389717 104.0 C69.58165730857702 104.0 67.59655217545084 103.21167651508013 66.72459079361676 102.2481700335114 Z M88.76742678268045 102.29550326863756 C86.44050305437747 99.72428149087926 85.0 95.45533043125803 85.0 91.13068101637268 C85.0 87.08113366029065 88.77320651798107 80.28546978012756 93.35909580380348 76.07568597329052 C96.47742259676602 73.21310451542057 96.80619779382258 69.17336819858772 94.27023386644782 64.88032344513732 C92.0961718229083 61.19992974988669 93.46334697776072 58.5 97.50106596290523 58.5 C101.2759742647014 58.5 104.1568491273391 62.576961157673026 104.75095175759384 68.75990513015492 C105.30829744521122 74.5603123062101 103.60139104065416 78.5595997603756 98.03303786678536 84.5 C93.06631407408203 89.79857325623331 92.76868726665883 91.02531979929462 95.23868924266529 96.0176369508716 C96.77454898268107 99.12188504337486 97.06142426644472 100.6825013901072 96.31534942662171 101.87472390836137 C94.86145886350127 104.19803113695068 90.69918179348035 104.43006852861916 88.76742678268045 102.29550326863756 Z" fill="currentColor"/></svg>
