<svg xmlns="http://www.w3.org/2000/svg" xmlns:xlink="http://www.w3.org/1999/xlink" width="256" height="256" xml:space="preserve" version="1.1" viewBox="0 0 256 256">
  <path d="M53.32884755531074 242.06989579830227 C38.90287454844884 236.8662167177636 29.237193887650644 224.89151556760743 27.039238487467134 209.5 C26.489446736710914 205.65 26.030703269903263 190.96014826902768 26.01980856122791 176.85588504228377 L26.0 151.21177008456752 L18.17210828883603 150.85588504228377 C11.444042974598956 150.55000219448831 9.828134056405688 150.10635936792033 6.671056793741059 147.69830670581857 C1.6935572256574858 143.901731554719 -7.105427357601002e-15 140.22047479699242 -7.105427357601002e-15 133.19754314667588 C-7.105427357601002e-15 128.7233852510809 0.5442670038683826 126.49607237221468 2.2499999999999964 123.98983086239255 C6.30719093517448 118.02858114859283 9.296245857014535 116.54678764958683 18.067505917387805 116.14846359020947 L25.999999999999993 115.78822991543248 L25.999999999999996 109.41316698593138 C26.0 103.28640247313314 25.892891936364578 103.01220806987696 23.25 102.37322448896812 C16.19743081071352 100.66809388821547 12.016332032667336 94.05693806555703 13.383065562938466 86.77162201119766 C14.092765246141393 82.98859746303548 18.13946444839036 78.62732401587635 22.0 77.48484148266668 C23.375 77.07792553482408 27.525951980529108 74.95794649580505 31.224337734509135 72.77377695151327 C42.68114252952788 66.00768877878907 59.44070606762407 60.00000000000005 66.85916076266005 60.000000000000014 C68.91291268805305 60.00000000000001 70.2864094666845 60.66664389193808 71.00709123245022 62.01325008903531 C72.86663093507313 65.48783180630657 70.75900726554313 67.23460470828886 61.85359804295027 69.59955408298478 C57.25911911932762 70.81967881682732 51.025 72.94705123448577 48.0 74.327048344448 L42.5 76.8361339989248 L128.0 76.83471873428383 L213.5 76.83330346964286 L208.29268549275955 74.36987946036864 C205.42866251377728 73.01499625526782 198.67866251377728 70.71877772572196 193.29268549275955 69.2671716169334 L183.5 66.62788778277238 L131.24952771289492 66.23615282298199 L78.99905542578983 65.84441786319161 L78.38786040814583 63.409222946143146 C77.1802331723215 58.59765279018092 78.97395561735432 57.99999999999997 94.62244471544219 57.999999999999986 L109.0 58.0 L109.0 52.5 C109.0 47.04260879812023 108.97651001261447 47.0 105.96788136910325 47.0 C101.41049672299 47.0 96.83764368410084 44.7180534674941 93.28370105550334 40.67033643151363 C86.07265783146232 32.45741192612819 88.42635974138679 19.500843059589865 98.11897813983734 14.053286809465718 C101.51309639244282 12.145685649432725 103.42379648760843 12.000000000000053 125.04829696791836 12.0 C148.0364780086141 11.999999999999943 148.37673474996737 12.030737654003781 152.56609378024226 14.485865567280385 C159.77623733276883 18.711291119641743 162.94873000667167 28.509759941268722 159.62316100387122 36.282118630896534 C156.99594068662955 42.42233062020865 150.29539344269503 46.99999999999991 143.93490033882554 46.99999999999997 C141.0517933672988 47.0 141.0 47.095009257002744 141.0 52.38375307711132 L141.0 57.767506154222644 L164.25 58.25385781233203 C183.8325897575144 58.66349329614463 188.76190459956493 59.07867340488779 195.5 60.885943368633505 C207.0804808198379 63.99202215019469 215.5045217183711 67.39279111865712 224.1402963613352 72.44797544876678 C228.32008815139028 74.89472965829478 232.92476305686296 77.1939966961219 234.3729072623856 77.55745775504927 C237.41130884265942 78.32004800787175 241.72176273859927 83.04323310354285 242.61034961749942 86.58364522796742 C244.25895744319098 93.15222200205133 240.23362734127036 100.32145847073288 233.946381779342 102.01443788747271 L229.99999999999997 103.07708814619332 L230.0 109.4326590308129 L230.0 115.78822991543248 L237.9324940826129 116.14846359020949 C246.703754142987 116.54678764958686 249.69280906482356 118.02858114859121 253.75 123.98983086239261 C255.45573299613167 126.49607237221439 255.99999999999997 128.72338525108015 255.99999999999997 133.19754314667557 C255.99999999999997 140.22047479699353 254.30644277434354 143.90173155471794 249.3289432062591 147.69830670581845 C246.17186594359447 150.1063593679204 244.55595702540148 150.55000219448831 237.8278917111641 150.85588504228375 L230.0 151.2117700845675 L229.9801914387721 176.85588504228375 C229.96929673009674 190.96014826902768 229.5105532632891 205.65 228.96076151253288 209.5 C227.24068530530138 221.5450941447054 220.88401874679337 231.65744264640924 211.0763237133765 237.9510232080765 C204.5388225567047 242.14612614116314 200.63672980628334 241.91302143973914 200.1904241468062 237.30071719781495 C199.9172417699986 234.47753938544994 200.32869882014472 233.87187278114396 203.6904241468062 232.14870166103384 C209.26328719774264 229.29213375837327 214.91026144392592 223.2665169264761 217.88719943628936 217.0 L220.5 211.5 L220.78285008786298 157.25 L221.06570017572596 103.0 L128.03285008786298 103.0 L35.0 103.0 L35.0 109.5 L35.0 116.0 L46.598870877466624 116.0 C59.8899086452348 116.00000000000001 63.49281798791298 117.15742632945928 67.80644647237833 122.81288482249246 C70.14484910205114 125.87868871815488 70.5 127.27754445906032 70.5 133.42215777466788 C70.5 139.2364504374657 70.08329162314642 141.08423766420063 68.16578515572573 143.77263934231013 C64.05163411286456 149.54080271257604 59.67446122680447 151.0 46.485778359340884 151.0 L34.89188058408891 151.0 L35.195940292044455 181.25 C35.48852366373812 210.3582532876316 35.587003999648395 211.69218672353367 37.805126838425 216.59188975445653 C40.69006130373216 222.96454049163373 47.96235174352825 230.2005158449578 54.5 233.20339499123247 L59.5 235.5 L126.0 236.0 L192.5 236.5 L192.5 240.0 L192.5 243.5 L125.5 243.71760657617438 C62.3141869139352 243.9228252097334 58.20561579127615 243.82902406216758 53.32884755531074 242.06989579830227 Z M60.0840238653578 139.23422345754085 C63.77446204231801 135.1010804298832 63.77447549441071 131.89894896732463 60.08407204408279 127.76577654245918 L57.16814408816557 124.5 L36.935202298154735 124.1903435242308 C14.74905060068193 123.8507940105307 11.900031182093157 124.35885146651044 9.452841747543696 129.09119400442066 C7.703583944281332 132.47388559146322 7.6402868387239975 134.1164095666514 9.132941294866669 137.39242924367875 C11.423802846254409 142.42032266456187 14.618394364218894 143.03905503805788 36.8340238653578 142.75760863230067 L57.1680477307156 142.5 L60.0840238653578 139.23422345754085 Z M245.14865046426655 139.15966114014918 C251.48558066340397 132.06740480983373 246.1357805526795 124.0 235.0957079433635 124.0 L230.0 124.0 L230.0 133.62019090488656 L230.0 143.24038180977314 L236.14865046426655 142.79562858749495 C241.52471586360363 142.40675912362983 242.65557630603317 141.94989559516708 245.14865046426655 139.15966114014918 Z M232.8000000000016 92.79999999999845 C234.63712000221102 90.96287999778414 234.22785980564717 87.1923143841706 232.06574145408928 86.03518375848799 C230.7686258376372 85.3409885476817 196.48946935852166 85.0 127.99999999999996 85.0 C59.5105306414782 85.0 25.231374162362744 85.3409885476817 23.934258545910666 86.03518375848799 C21.772140194352186 87.19231438417093 21.362879997788877 90.96287999778887 23.2 92.8 C24.941095221485114 94.54109522148512 231.05890477852108 94.54109522148359 232.8000000000016 92.79999999999845 Z M133.0 52.5 L133.0 47.0 L125.0 47.0 L117.0 47.0 L117.0 52.5 L117.0 58.0 L125.0 58.0 L133.0 58.0 L133.0 52.5 Z M147.02001556033187 37.48964955148992 C152.52559641582832 34.642603042769025 153.70964006608784 28.099102433152783 149.5865836679609 23.305763701326306 L147.17316733592173 20.5 L124.99999999999997 20.5 L102.82683266407822 20.5 L100.4134163320391 23.305763701326338 C96.36376412491781 28.013764975245333 97.45665648899852 34.55496173944742 102.77514137579459 37.44119800563956 C106.78348366276686 39.61644586705451 142.8309093270231 39.655920575244984 147.02001556033187 37.48964955148992 Z" fill="currentColor"/></svg>
