<svg xmlns="http://www.w3.org/2000/svg" xmlns:xlink="http://www.w3.org/1999/xlink" width="256" height="256" xml:space="preserve" version="1.1" viewBox="0 0 256 256">
  <path d="M58.844202752732535 253.74503285505975 C55.52512392301194 250.93930623985116 54.0 247.95722610646771 54.0 244.27314629355567 C54.0 241.7097089525843 53.511803049997596 241.28423690498516 49.26810900528814 240.14922181896395 C44.745077891478786 238.93949545918616 38.94240448835304 235.33083075014298 36.22972061498535 232.04068825553108 C31.355362697979132 226.12870850951657 31.533130329823955 228.37070847652734 31.0 166.08361089226935 L30.5 107.66722178453867 L19.977377079696403 104.08361089226933 C14.189934473529423 102.1126249015212 8.902434473529423 100.13594235253129 8.2273770796964 99.69098300562507 C7.402435382119107 99.14722847105806 6.999999999999996 95.80985371472241 7.0 89.51241157705384 C7.000000000000009 77.80346004978759 7.6146105752021125 76.99999999999997 16.571428571428346 76.99999999999999 L23.0 77.0 L23.00000000000001 73.07672528194396 C23.00000000000002 68.79254442302633 26.465812040009983 63.621707683932044 30.11326549371861 62.464050928794066 C31.227249347737295 62.11048618832887 36.00358674234593 58.72026966005675 40.72734859284893 54.93023642152268 C59.076305458742645 40.20825029795039 83.65825030305369 31.00000000000011 104.61046783822125 31.00000000000003 L112.0 31.0 L112.0 27.0 L112.0 23.0 L107.03518375848802 23.0 C100.7788240310329 23.0 99.99999999999999 21.726902286514935 99.99999999999997 11.500000000000014 C99.99999999999997 -0.8791285556718513 97.85951308184242 -2.3077782010109072e-15 128.0 1.4210854715202004e-14 C158.1404869181582 3.072948763141524e-14 156.0 -0.8791285556720823 156.0 11.500000000000043 C155.99999999999997 21.726902286513976 155.2211759689665 22.999999999999968 148.964816241512 22.999999999999986 L144.0 23.0 L144.0 27.0 L144.0 31.0 L151.38953216177802 31.00000000000003 C172.3417496969451 31.00000000000011 196.92369454126083 40.20825029795199 215.27265140715207 54.93023642152295 C219.99641325765484 58.720269660057 224.77275065226294 62.110486188329006 225.88673450628121 62.46405092879408 C229.5341879599886 63.62170768393171 233.0 68.79254442302785 233.0 73.07672528194365 L233.0 77.0 L239.4285714285714 77.00000000000001 C248.37661111756088 77.00000000000003 249.00000000000009 77.8108045811106 249.0 89.4489838559864 C248.99999999999997 96.49577782150772 248.6363034102531 99.05695192953202 247.50194418998234 99.99838646562625 C246.67801349447265 100.68218820870709 241.39051349447266 102.70011800197784 235.75194418998234 104.48267489511682 L225.5 107.72368742809678 L225.0 124.11184371404839 C224.50632739819503 140.29261121899316 224.47083016211164 140.50413513019583 222.1949579440617 140.82676386631437 C217.14040938261346 141.54329909228022 216.99999999999994 140.77437355797943 216.99999999999997 112.37755528455776 L217.0 86.0 L128.0 86.0 L39.0 86.0 L39.0 143.5 L39.0 201.0 L48.92857142857145 201.0 C59.334364119196955 201.0 62.0 201.99342277087854 62.0 205.8714285714287 C62.0 209.308242820581 59.8720687456627 209.99999999999997 49.29999999999991 210.0 L39.0 210.0 L39.0 214.28811024090857 C39.00000000000001 219.40838007403775 42.41768232729497 226.59507713457324 46.14183624313119 229.30595233975592 C47.59484617685334 230.3636230728215 50.74484617685334 231.60786929861203 53.14183624313119 232.0709439526238 C58.82868635255234 233.169586864785 197.17131364744736 233.16958686478503 202.8581637568686 232.07094395262385 C205.25515382314634 231.6078692986121 208.40515382314635 230.36362307282158 209.8581637568686 229.305952339756 C213.58231767270473 226.59507713457364 216.99999999999997 219.4083800740379 217.0 214.28811024090885 L217.0 210.0 L190.0 210.0 C164.42269845830356 210.0 163.0 210.09721838336793 162.99999999999997 211.84501243788793 C162.99999999999994 212.85976927872628 162.05275559704953 214.54726927872628 160.89501243788789 215.59501243788793 C158.92096030016697 217.38150506948614 156.87480929603208 217.5 128.0 217.5 C99.12519070396792 217.5 97.07903969983302 217.38150506948614 95.10498756211209 215.59501243788793 C93.94724440295045 214.54726927872628 93.0 212.85976927872628 93.0 211.84501243788793 C93.0 210.17108080147347 92.04492120541259 210.0 82.7000000000001 210.0 C71.77303837049213 210.0 70.0 209.34874817421297 70.0 205.33518375848809 C70.0 201.93675694095393 72.89267522782899 201.0 83.38690765770585 201.0 L92.90529822359044 201.0 L93.20264911179521 175.25 C93.495262481493 149.91025975167514 93.54133389501541 149.4123717035257 96.0943266242931 144.0 C99.40271047876611 136.98619108742346 105.98619108742366 130.4027104787659 113.0 127.09432662429305 C117.71577829280956 124.86991404623868 119.8545647669653 124.5 128.0 124.5 C136.14543523303465 124.5 138.28422170719045 124.86991404623868 143.0 127.09432662429302 C150.01380891257696 130.40271047876612 156.59728952123348 136.98619108742267 159.9056733757069 144.0 C162.4586661049846 149.4123717035257 162.504737518507 149.91025975167514 162.79735088820482 175.25 L163.09470177640964 201.0 L190.04735088820482 201.0 L217.0 201.0 L217.0 176.12244471544216 C217.0 149.05720351294949 217.20058967321407 148.08057667374737 222.4870140145472 149.4073847234657 L225.00000000000003 150.0381040564293 L224.97803799950904 186.26905202821465 C224.9576288283833 219.93828072655594 224.82009687682478 222.78282111474851 223.03289395775937 226.5 C219.63147998390636 233.57455436018287 214.14850699069223 238.16557951252597 206.73189099471244 240.14922181896378 C202.49611153834582 241.28212007538468 202.0 241.71280376741993 202.0 244.2570647663506 C201.99999999999997 248.01867648373113 199.6966526081892 252.31351581265002 196.58629542430435 254.3515001127128 C194.59834781655297 255.65405341267967 191.52373296162102 256.0 181.93518329434517 256.0 L169.80000000000015 256.0 L166.4000000000001 252.60000000000008 C163.63902439024386 249.83902439024396 163.0 248.42941176470606 163.0 245.10000000000008 L163.0 241.0 L128.0 241.0 L93.0 241.0 L93.0 245.10000000000002 C93.0 248.42941176470592 92.3609756097561 249.8390243902439 89.6 252.60000000000002 L86.19999999999999 256.0 L73.85 255.99503285505975 C62.50991346076796 255.99047189526416 61.282823855134744 255.80647956435502 58.844202752732535 253.74503285505975 Z M83.42857142857142 246.42857142857144 C84.29285714285714 245.56428571428572 85.0 243.98928571428573 85.0 242.92857142857144 C85.0 241.13561076604555 84.19135802469137 241.0 73.5 241.0 C61.21535324828359 241.0 60.463457735245456 241.3612661342703 63.55670396864905 245.7774937565946 C64.95456751485764 247.77322353017095 65.96764290472336 248.0 73.48527539722048 248.0 C79.76273066381657 248.0 82.25027129314556 247.6068715639973 83.42857142857142 246.42857142857144 Z M192.44329603135094 245.7774937565946 C195.53654226475456 241.3612661342703 194.7846467517164 241.0 182.5 241.0 C171.80864197530863 241.0 171.0 241.13561076604555 171.0 242.92857142857144 C171.0 246.84590541423535 173.62038223223868 248.0 182.5147246027795 248.0 C190.03235709527664 248.0 191.04543248514236 247.77322353017095 192.44329603135094 245.7774937565946 Z M155.0 182.68150122742793 C155.00000000000003 152.47143438199427 154.41190951574777 149.02165388459304 148.02501798097975 141.7657619266398 C137.10103017878293 129.35545641084127 118.91335391465427 129.33911521773888 108.00663137344088 141.7298063612502 C101.5839501559038 149.02635754599126 101.0 152.4393740623555 101.0 182.68150122742782 L101.0 209.0 L128.0 209.0 L155.0 209.0 L155.0 182.68150122742793 Z M113.75566231848799 200.2452093093423 C110.67968024063386 198.33800786160958 108.0 193.4502119082864 108.0 189.74675409725856 C108.0 186.62741048227912 111.81943563401587 180.91687130698105 115.03001531922646 179.23599236956886 C116.74344101741625 178.3389390492059 121.09398684023618 178.02817555476614 129.233510066814 178.22142366008308 C140.8233152229721 178.4965881660466 141.00433593629074 178.53734937075927 144.01385648873594 181.5495771911527 C149.621436786854 187.1622018882518 148.66793592253956 196.40208189105186 142.0795495816106 200.2939374527196 C137.92948705781572 202.74543969905304 117.73205468538384 202.71069223055218 113.75566231848799 200.2452093093423 Z M137.4176109623508 192.68390275325865 C138.40753959025915 191.96004926755091 139.0498851566919 190.4975492675509 138.84504555442356 189.43390275325865 C138.50512737258353 187.66884958358347 137.55824344953072 187.5 128.0 187.5 C118.44175655046928 187.5 117.4948726274165 187.66884958358347 117.15495444557645 189.43390275325865 C116.53542253999565 192.650873224626 119.7397654497016 194.0 128.0 194.0 C132.7198472684857 194.0 136.302436148438 193.49933848616587 137.4176109623508 192.68390275325865 Z M115.5 170.08746272204945 C111.0594888268878 168.15862600355953 108.5 164.0821661831518 108.5 158.9386667425213 C108.5 154.73765066891656 108.96647242791005 153.5719891105515 111.76923076923077 150.76923076923077 L115.03846153846153 147.5 L128.0 147.5 L140.96153846153848 147.5 L144.23076923076923 150.76923076923077 C147.04452395150068 153.58298548996225 147.5 154.72971342383113 147.5 159.0 C147.5 163.26887824327986 147.0439786171972 164.4179424813212 144.233510066814 167.23076923076923 L140.967020133628 170.5 L129.233510066814 170.72810403644309 C122.7800795300663 170.8535612564868 116.6 170.56527266500967 115.5 170.08746272204945 Z M137.06574145408933 161.96481624151198 C139.85966499060387 160.46955374231206 139.50942574602786 157.14418162929954 136.43490033882549 155.9752491529363 C135.0240955251795 155.43886211882133 131.22839037270805 155.0 128.0 155.0 C124.77160962729198 155.0 120.97590447482051 155.43886211882133 119.56509966117451 155.9752491529363 C116.5764827543605 157.11151927566786 116.12668572065027 160.39196090116576 118.75 161.91990120052802 C121.04743040323223 163.25803156703094 134.58730548082815 163.29123492085378 137.06574145408933 161.96481624151198 Z M31.0 92.5 L31.0 86.0 L23.5 86.0 L16.0 86.0 L16.0 89.91666666666666 L16.0 93.83333333333333 L23.25 96.33771929824562 C27.2375 97.71513157894736 30.6125 98.87763157894736 30.75 98.92105263157895 C30.8875 98.96447368421053 31.0 96.075 31.0 92.5 Z M240.0 89.90963557020102 L240.0 86.0 L232.5 86.0 L225.0 86.0 L225.0 92.43129054136776 L225.0 98.86258108273553 L232.5 96.34092611156879 L240.0 93.81927114040204 L240.0 89.90963557020102 Z M223.96283364313211 75.06944597304845 C224.74273632805438 73.61218447631386 224.6112711316448 72.7541282745016 223.4265888301913 71.56944597304843 C222.03717693780578 70.18003408066336 215.28344996401472 70.0 164.55101614401335 70.0 C102.17150384166735 70.0 103.98793644032884 70.16851841670773 105.40738472346573 64.51298598545259 L106.03810405642976 62.00000000000001 L158.25609489094023 62.0 L210.4740857254507 62.0 L204.98704286272533 58.018082879961746 C196.689547783235 51.996635893479635 182.19531903076353 45.209804009207126 171.27369655870694 42.23201950748894 C161.62398788898594 39.601022785499154 161.0813661379848 39.56679108461616 128.5 39.53360872031388 C97.825093479722 39.502367982317075 94.90111228552615 39.65322715303789 87.0 41.67474957215701 C75.26607823028681 44.676907377852025 63.62216393292004 49.77536133920533 53.986084567197416 56.13036334769127 L45.844113112641196 61.5 L71.1720565563206 62.0 L96.5 62.5 L96.82676386631414 64.80504205593854 C97.55272114563618 69.92605521607562 97.09185736721975 70.0 64.4489838559864 70.0 C38.24753465787689 70.0 33.93029056654767 70.21256657630947 32.573411169808566 71.56944597304857 C31.388728868355415 72.75412827450172 31.25726367194586 73.61218447631423 32.03716635686799 75.06944597304857 C33.046839577724406 76.95603764337307 35.23209430598078 77.0 128.00000000000003 77.0 C220.76790569402164 77.00000000000001 222.9531604222756 76.95603764337314 223.96283364313211 75.06944597304845 Z M135.0 27.0 L135.0 23.0 L128.0 23.0 L121.0 23.0 L121.0 27.0 L121.0 31.0 L128.0 31.0 L135.0 31.0 L135.0 27.0 Z M147.0 11.5 L147.0 8.0 L128.0 8.0 L109.0 8.0 L109.0 11.5 L109.0 15.0 L128.0 15.0 L147.0 15.0 L147.0 11.5 Z" fill="currentColor"/></svg>
