<svg xmlns="http://www.w3.org/2000/svg" xmlns:xlink="http://www.w3.org/1999/xlink" width="256" height="256" xml:space="preserve" version="1.1" viewBox="0 0 256 256">
  <path d="M37.5 222.33836659029419 C30.20535541307006 218.4927317282583 26.05969551631079 211.82317445927748 26.021962000490912 203.87244471544216 C25.99761142387312 198.7415988457177 27.585378587304646 196.65537006124515 31.120531959001262 197.17323613368586 C32.969314525084485 197.44406505272508 33.549027408340955 198.4949452134341 34.50713071905706 203.31232593488647 C35.355627956983284 207.5786030581084 36.511018318515234 209.9725567800537 38.85078747334799 212.31232593488647 L42.03846153846154 215.5 L125.09607017642877 215.5 L208.153678814396 215.5 L211.57683940719798 211.7646851746842 L214.99999999999997 208.02937034936835 L215.0 172.5146851746842 L215.0 137.0 L124.51746954945155 137.0 L34.03493909890311 137.0 L33.767469549451555 161.75 L33.5 186.5 L30.23785288992694 186.81426444963472 C27.30242390171989 187.09705395737092 26.914325916095194 186.82162958047596 26.36285288992694 184.06426444963472 L25.75 181.0 L17.77612912253318 181.0 C5.267893357623043 181.0 2.2729284959215646e-14 177.1611418808578 7.105427357601002e-15 168.04604801647918 C-8.99250871932668e-15 158.654372662961 5.014345863121777 155.0 17.901129122533153 155.0 L26.0 155.0 L26.0 146.0 L26.0 137.0 L21.67431402670949 137.0 C14.29884233246864 137.0 10.891165863790512 130.97871568663038 14.412678674302493 124.16886082386233 C17.033866441798438 119.10004261271536 25.3401539496685 112.34802978150756 31.894604588577277 109.95815742892589 C37.05719882711577 108.07578132786263 38.65273838347633 106.90597526542177 41.25615774849091 103.09452211717651 C45.869425640900054 96.34061428791549 54.523755671239456 87.54067895506041 61.9614524344643 82.04086994011386 C73.64099684634039 73.40442431833061 92.24471274023432 65.42921439295864 105.25 63.483542136967316 C109.65545932184565 62.82445788867614 109.99999999999999 62.56354369509504 110.0 59.88645622493728 C110.0 57.54943640294885 109.56647948908734 57.0 107.72250624340538 57.0 C100.39159095944814 57.0 95.47867224996445 45.776390377345436 99.44888787004004 38.09883996040432 C102.3809570779226 32.42884333461637 104.14924230509394 32.000000000000036 124.5967396246057 31.999999999999986 L143.26384583790392 31.999999999999943 L146.63192291895194 35.57120208104652 C149.61928212376415 38.73872561222993 149.99999999999994 39.767363790744454 149.99999999999997 44.6712020810469 C150.0 49.625521282994626 149.64671748426093 50.55328251573968 146.59999999999965 53.600000000000335 C144.72999999999945 55.470000000000134 142.25499999999946 56.99999999999998 141.09999999999965 56.999999999999986 C139.45427287840877 57.0 139.0 57.621092550326445 139.0 59.871169329443575 C139.0 62.55218302370831 139.3233040789498 62.78522646127375 143.88158425960728 63.38990370582276 C157.06883593779477 65.13925448987011 161.9021599056953 68.42936402764215 158.12936821427184 73.0885645431014 C156.49434129826668 75.10773731300506 156.2659089425732 75.1236677312359 150.4720328160034 73.62257188657925 C116.70360018710176 64.87373901675697 81.01411094072452 74.09700017038605 57.448363402946676 97.6627477081644 C47.00969691465771 108.10141419645359 46.98820427280409 108.0 59.63913026822148 108.0 L70.34862805341895 107.99999999999999 L68.17431402670947 105.68554877863241 C65.67552081755882 103.02570529520698 65.36652040528443 99.24953287935273 67.41785245345241 96.44112963510526 C68.71731242467764 94.6620867920814 70.39157811672365 94.47243432388862 87.46863333532954 94.16987716812467 C97.71674397096315 93.98830961059323 107.31621036690956 94.26081404358293 108.80078088187713 94.77544257476842 C111.18473302782405 95.60184305821865 112.84319224240849 94.8593780614489 123.0 88.41868499884458 C135.36555890198136 80.57736601988795 139.3064438157494 79.47116013749697 142.46033559807586 82.95617132921521 C143.89525881986907 84.54174364188249 144.15557981177267 86.24083449891063 143.8344149615295 91.92465929556275 L143.43818360268307 98.93697593269512 L145.65682675405614 96.85266891435884 C147.00640627535148 95.58480478474523 149.76047990728634 94.5625386134481 152.6877349527146 94.24291312510101 C155.3344807287216 93.95391630109417 157.8598605511072 93.10603487448908 158.29969011357156 92.35873217708972 C159.36828893237248 90.54310437969177 163.44729524899634 90.62910522916799 165.00000000000006 92.5 C165.75838384194557 93.41379662699053 167.9494823715106 94.00000000000003 170.60666817298303 94.00000000000004 C176.8382292013024 94.00000000000006 181.2034412998502 97.98149673643718 181.35612772125967 103.80454950268384 L181.46613674030013 108.0 L191.26825212863807 108.0 C202.87345017251354 107.99999999999999 202.85333211440758 108.18881362390357 192.36767299239864 97.68162650747091 C186.44792594797548 91.74972569380164 180.97683902219103 87.63264727334538 169.75 80.66147408417723 C166.8426893269342 78.85621383446686 166.2044422519957 76.19555774800429 168.2 74.19999999999999 C170.12639302104168 72.27360697895828 172.96031844448774 72.7871703158229 178.91914317649622 76.14252074966635 C190.24930234851837 82.52241212139094 201.8165761871971 92.97736379517781 208.738619157442 103.09452211717681 C211.33023014592555 106.88238341654008 212.95382821536296 108.07980198884628 217.98619518283425 109.91469484961628 C224.60851447499306 112.32931335209555 229.73729878191503 116.28563194257433 234.17160419756192 122.4000384997766 C239.60521177666544 129.89236992415323 236.69104878174124 137.0 228.1855487786324 137.0 L224.0 137.0 L224.0 146.0 L224.0 155.0 L232.09887087746657 155.0 C244.76255646172345 155.0 250.0 158.80349002186068 250.0 168.00000000000006 C249.99999999999994 177.17728204515285 244.75726466897402 181.0 232.17091605805845 181.0 L224.1440903611851 181.0 L223.82204518059257 195.9181405861886 C223.5029965390486 210.69747210615617 223.471698854382 210.87650894340152 220.4584085494278 215.1596554298941 C218.78553325161306 217.5375112715284 215.63553325161308 220.49194531879658 213.4584085494278 221.72506442382343 L209.5 223.96709916023585 L125.0 223.94351194946273 C49.91329860694171 223.9225523535809 40.16580004945769 223.74373918703176 37.5 222.33836659029419 Z M99.6549875621121 195.17125932841594 C98.25479034179156 193.6240588154578 98.0 190.7846575974851 98.0 176.727963297065 C98.0 160.6925706335581 98.07747379815547 160.05914317677707 100.22250624340542 158.55670396864906 C102.85704686518005 156.7113998874332 109.1008409240825 156.50084092408244 110.80000000000003 158.20000000000002 C113.48645414045129 160.88645414045138 111.51970573293258 166.0 107.80000000000003 166.0 C106.17101449275361 166.0 106.0 167.09259259259252 106.0 177.5 L106.0 189.0 L125.0 189.0 L144.0 189.0 L144.0 177.5 L144.0 166.0 L134.93425854591067 166.0 C124.88197169769384 166.00000000000003 122.0 165.03404769187838 122.0 161.66481624151203 C122.0 157.5589946741678 123.70161566120125 157.0 136.2 157.0 C152.59789896724533 157.0 152.0 156.23011000473377 152.0 177.34501243788793 C152.0 191.90980302288818 151.80082217011523 193.87027833447004 150.17125932841594 195.34501243788793 C148.57872624813422 196.78623506779493 145.30506124330034 197.0 124.82624689052804 197.0 C103.31405686706495 197.0 101.16893532034635 196.84415277095226 99.6549875621121 195.17125932841594 Z M164.9997979162969 190.25 C163.3476665153074 187.6375 162.10934004737214 184.6 162.24796132088525 183.5 C162.46770913947955 181.7562373412991 163.36656032887376 181.46207649812496 169.2637318158263 181.2039970701946 C174.43436304590824 180.97771340982442 176.15781250979964 181.24767787183566 176.5808780627121 182.35016903019977 C177.30958767924022 184.24915585081519 171.21212035584904 195.0 169.40637809652782 195.0 C168.63489039839033 195.0 166.6519293172864 192.8625 164.9997979162969 190.25 Z M162.0 171.01502272013028 C162.0 168.45212069216032 167.8018985596421 159.0 169.3750584957944 159.0 C170.9864362150854 159.0 177.22421832915296 169.97331310941712 176.5748247119722 171.66560574896454 C176.2150882206954 172.60306401812224 173.97117662760778 173.0 169.03138479633873 173.0 C162.68440499327875 173.0 162.0 172.80679078144107 162.0 171.01502272013028 Z M26.0 167.5 L26.0 163.0 L19.222506243405427 163.0 C11.960584454659376 163.0 8.0 164.71400093899854 8.0 167.85670396864907 C8.0 171.1125294079885 10.184782349613048 172.0 18.2 172.0 L26.0 172.0 L26.0 167.5 Z M240.8 170.8 C242.66010226411288 168.9398977358871 242.22274055383303 166.2694214941373 239.7774937565946 164.55670396864906 C238.29668696206332 163.51950651613834 235.29318806991205 163.0 230.7774937565946 163.0 L224.0 163.0 L224.0 167.5 L224.0 172.0 L231.8 172.0 C236.53333333333336 172.0 240.07179487179488 171.52820512820514 240.8 170.8 Z M225.9584243891412 125.94161243861552 C223.04599977259903 121.8514892254181 217.49489781284612 118.32476822965317 212.0 117.07355908310255 C205.59194054908647 115.61441955590718 44.816525425974554 115.63153710652239 38.006230247907055 117.09208397484787 C32.771153698319566 118.21480692003949 25.867591843157395 122.727316786998 23.230856312483652 126.75 L21.75605587956849 129.0 L124.94612215042243 129.0 L228.13618842127636 129.0 L225.9584243891412 125.94161243861552 Z M96.0 107.07142857142858 C96.0 106.5607142857143 96.70714285714286 105.4357142857143 97.57142857142857 104.57142857142858 C99.0 103.14285714285714 98.27272727272728 103.0 89.57142857142857 103.0 C84.30714285714285 103.0 80.0 103.24700139884874 80.0 103.54889199744164 C80.0 103.85078259603453 81.9125 104.96589969581363 84.25 106.02692999695073 C88.67170546881957 108.03401597989027 96.0 108.68545369828787 96.0 107.07142857142858 Z M128.39304105854208 105.90547390414858 C131.21955028735795 103.68214142072908 134.27067125705776 98.35127479212211 135.39818183853765 93.66621115985737 C135.9192549514641 91.50103352762748 135.77577828512077 91.01327716637054 134.79008168841617 91.59894319174562 C131.4607642897073 93.57710573652132 109.45118280982754 107.30190518717569 109.08333333333334 107.62923281921918 C108.85416666666667 107.83315476864863 112.50598025535609 108.0 117.19847464153204 108.0 C124.34443363368926 108.0 126.16280302580127 107.65977939637851 128.39304105854208 105.90547390414858 Z M143.0 104.33333333333334 C143.0 100.20735858947884 142.90320119291056 100.22417442213647 140.60149633334038 104.75 C139.0040563310886 107.89103469488421 139.01655627836791 108.0 140.9743198537684 108.0 C142.64025456761084 108.0 143.0 107.34882780587016 143.0 104.33333333333334 Z M172.83666662972715 105.61982729629284 C173.38835477006998 102.73948181022548 171.24814657564556 102.03062554903413 162.0 102.03062554903413 C152.3893194623102 102.03062554903413 150.46514544248265 102.73946200965828 151.47120460105975 105.90927373174353 C152.12226627172177 107.96058741232632 152.6630408349002 108.05407217276756 162.31649029319644 107.78411956193042 C171.34138745556334 107.53174401865519 172.51678231966122 107.28993267138684 172.83666662972715 105.61982729629284 Z M217.02352262042422 103.02352262042425 C213.24563170726398 99.24563170726397 218.44086127182237 93.63121406586558 222.55504205593857 97.04568084912805 C224.6219334785214 98.76104837363397 224.34001194872664 102.74766361037366 222.06574145408933 103.96481624151201 C219.48802274409528 105.34436942905145 219.31139639440937 105.31139639440939 217.02352262042422 103.02352262042425 Z M235.8378045328782 103.96903908762008 C234.92359702596121 103.43546014030193 233.86123403057493 101.13812577350288 233.47699787646422 98.86385160584439 C232.48592485449734 92.99774101732055 227.81189651328668 88.25828425799145 221.5 86.71919620408109 C217.0723321935502 85.63955704756997 216.4622173937023 85.1690210464914 216.16992415660442 82.60850658727122 C215.5560033154826 77.23050603509743 221.54431689603558 76.42952271832922 230.06449599488917 80.75 C236.9850305224522 84.25931733434774 240.80734319196634 89.57769125249894 241.67516796458108 96.90511349145268 C242.2139710838697 101.45446271871383 242.02491964009403 102.50860995315946 240.4657711154844 103.64868718949461 C238.30124560953016 105.23142688225293 238.03258029786102 105.2500241303137 235.8378045328782 103.96903908762008 Z M249.75 103.91990120052802 C248.75011383203096 103.33752097150204 248.0 101.71380738807824 248.0 100.13181111385657 C248.0 94.70551080795789 245.01252837514284 87.29581296066188 240.97569471896742 82.70972774189957 C235.5093248060614 76.49960357205296 231.33162168818995 74.11962160153242 223.29264815224377 72.63593101071385 L216.5 71.38226496676424 L216.5 67.94113248338212 L216.5 64.5 L223.0 64.52107079196459 C239.3927038916068 64.57421036941646 254.41381611391742 78.82826263278955 255.76080713499238 95.60893234184886 C256.42819448083105 103.92317233551084 254.45049087788797 106.65768580210846 249.75 103.91990120052802 Z M130.0 60.0 C130.0 58.22222222222222 129.33333333333334 58.0 124.0 58.0 C118.66666666666667 58.0 118.0 58.22222222222222 118.0 60.0 C118.0 61.77777777777778 118.66666666666667 62.0 124.0 62.0 C129.33333333333334 62.0 130.0 61.77777777777778 130.0 60.0 Z M140.42857142857144 47.4285714285714 C142.43081576880203 45.42632708834076 142.41120159653406 44.1118539928589 140.34501243788793 41.82874067158407 C138.8864780503534 40.21707831444565 136.96688946569353 40.0 124.17375310947199 40.0 C112.06953386704426 40.0 109.35361416408648 40.27499601760297 107.82874067158406 41.65498756211209 C105.56956561210781 43.69951289157195 105.53403186657381 44.82762966505534 107.6549875621121 47.17125932841593 C109.11604377424705 48.785708270371664 111.04114285551906 49.0 124.08355899068354 49.0 C136.18075644504066 49.0 139.1418232782362 48.71531957890671 140.42857142857144 47.4285714285714 Z" fill="currentColor"/></svg>
