<svg xmlns="http://www.w3.org/2000/svg" xmlns:xlink="http://www.w3.org/1999/xlink" width="256" height="256" xml:space="preserve" version="1.1" viewBox="0 0 256 256">
  <path d="M16.392577361701797 204.66125763487236 C13.861053050145891 202.48373209500778 13.605343367394331 201.52127007780106 12.683044766400013 190.69900096101378 C11.63365151524233 178.38540083072502 12.171937606296606 176.0 15.999999999999998 176.0 C19.08797178037836 176.0 20.158963374496814 178.69348964220967 21.053969314544894 188.7104769780915 C21.535044564875214 194.09471464014118 21.94470498060138 198.6125 21.964325793936375 198.75 C21.98394660727137 198.8875 23.924824321978882 199.0 26.2773873821753 199.0 L30.554774764350594 199.0 L30.55239067571207 191.25 C30.54944512328606 181.6748395245681 33.305446426291745 174.8167049764872 39.42192126345108 169.1787353446843 C48.13659490121294 161.14582968760914 44.02800024895156 161.5 128.5 161.5 L203.5 161.5 L208.6786968686082 163.8424702550883 C215.17853012391 166.7825276575348 217.24223705430921 169.0166855641456 216.82495584619002 172.66156594933165 C216.36776544667626 176.65504633392433 212.9195005998722 176.909216218848 207.75486043407003 173.3301181660449 L203.67099859550584 170.5 L128.0122301426358 170.5 L52.35346168976576 170.5 L48.66050285753384 173.0 C46.62937549980629 174.375 43.737346619608985 177.26152180975538 42.23377201265096 179.4144929105675 C39.93916853273236 182.70013963353426 39.44282862246088 184.58772580960363 39.14411495771624 191.1644929105675 L38.78822991543249 199.0 L127.89411495771624 199.0 L217.0 199.0 L217.0 192.2000000000016 C217.0 184.91904597203995 217.97304313245385 183.0 221.66481624151038 183.0 C225.0349397366159 182.99999999999997 226.35114232371492 186.36635025285227 225.6402614958649 193.16769095302647 L225.03066452574348 199.0 L229.51533226287174 199.0 C231.9818995182923 199.0 234.01653434312064 198.8875 234.03674298471256 198.75 C234.41570978333695 196.17150235215615 237.95594666245594 152.56510785121336 237.97427303282416 150.25 L238.0 147.0 L127.85247269638366 147.0 L17.704945392767296 147.0 L18.368191802945194 155.6285964916637 C19.091925736930307 165.04411384366404 18.411586208968206 167.0 14.412739043045818 167.0 C11.598379377936647 167.0 10.000000000000005 164.35772326353634 10.0 159.70531271957697 C10.0 157.82091911584604 9.716992137412333 154.21437506729774 9.371093638694077 151.69077038946966 C8.748452451741084 147.14810767822476 8.701132882394377 147.09939769789364 4.621093638694079 146.80119912398203 L0.5 146.5 L0.2109733654971926 137.74357208904843 C-0.05945756586547357 129.5505245540273 0.08238082526478685 128.82671008382644 2.4155188200424824 126.49357208904843 C3.786983469018936 125.12210744007179 6.054545454545199 124.0 7.45454545454529 124.0 C10.284047411537744 124.0 10.501178116275891 122.93563552919694 9.364076018114783 114.63957126548746 C8.759907701968347 110.23168284020566 8.570149911344327 110.00000000000001 5.564076018114373 109.99999999999999 C0.762576744517343 109.99999999999994 2.0459088579644174e-16 108.54570949141002 -1.7763568394002505e-15 99.38889364199258 C-3.494350231482412e-15 91.44756893073583 0.10108796268973474 91.0927273712842 3.076725281943701 88.58889364199301 C4.768924187012739 87.16500213889688 7.01892418701274 86.00000000000003 8.076725281943702 86.00000000000003 C10.205233891443985 86.0 10.427730837272883 84.3997792084756 9.371093638693994 76.690770389469 C8.748452451740933 72.14810767822476 8.7011328823941 72.09939769789351 4.621093638693995 71.80119912398196 L0.5 71.5 L0.2109733654971908 62.74357208904878 C-0.05945756586546136 54.55052455402846 0.08238082526489787 53.82671008382698 2.4155188200421565 51.49357208904877 L4.909090909089931 48.99999999999997 L127.99999999999953 49.0 L251.09090909090912 49.00000000000003 L253.58448117995778 51.4935720890487 C255.91761917473622 53.82671008382715 256.0594575658663 54.55052455402701 255.78902663450322 62.74357208904868 L255.5 71.5 L251.3789063613055 71.80119912398133 C247.29886711760375 72.09939769789234 247.2515475482582 72.14810767822232 246.6289063613055 76.69077038947262 C245.57226916272782 84.39977920848503 245.7947661085557 86.0 247.92327471805703 86.00000000000003 C248.9810758129884 86.00000000000004 251.23107581298842 87.16500213889717 252.92327471805706 88.58889364199362 C255.89891203730997 91.09272737128508 256.00000000000006 91.44756893073793 256.0 99.38889364199163 C256.0 108.54570949140799 255.23742325548187 110.0 250.43592398188738 110.0 C247.42985008865594 110.0 247.24009229803204 110.23168284020535 246.63592398188538 114.63957126548623 C245.4988218837238 122.93563552919447 245.71595258846233 124.0 248.54545454545416 124.0 C249.94545454545397 123.99999999999999 252.21301653098018 125.1221074400715 253.58448117995687 126.4935720890478 C255.91761917473517 128.8267100838254 256.0594575658653 129.5505245540255 255.7890266345027 137.7435720890478 L255.5 146.5 L251.25 146.80749783042214 C248.82929634854455 146.98264162357918 246.98210330998506 147.62827562894785 246.9584206612428 148.30749783042214 C246.93555202492632 148.96337402368997 245.88528683565778 161.3839468988172 244.6244980184238 175.9087708862604 C242.34381275171353 202.18323621852534 242.31831240519793 202.32944842559854 239.6103136558557 204.6587708862604 L236.88847259734936 207.0 L128.00000000000102 207.0 L19.11152740265268 207.0 L16.392577361701797 204.66125763487236 Z M248.0 135.5062081655795 L247.99999999999997 132.01241633115896 L171.3589051617222 131.7562081655795 C99.616342978056 131.51637560199418 94.6472613200141 131.3881483600455 93.61402001645128 129.75 C92.80897300240053 128.47364137856343 92.80896930447749 127.52635862143656 93.61400635344455 126.25 C94.64575209510335 124.61420252436045 99.34045787996456 124.4832439645183 165.55405469752284 124.24323630535146 C220.69934252326686 124.04334848651561 236.5652143254185 123.7110826113271 237.1798504242903 122.74323630535146 C237.61408863896187 122.05945633740815 237.97626519949856 118.9125 237.98468722548296 115.75 L238.0 110.0 L128.0 110.0 L18.0 110.0 L18.0 115.4182125317642 C18.0 124.75599909642769 15.085170146909753 124.0 51.08793677596944 124.0 L82.96189594357023 124.0 L83.59261527653427 126.51298598545257 C84.97043526867343 132.00265809436112 84.98919014744405 132.0 44.87755528455783 132.0 L8.0 132.0 L8.0 135.5 L8.0 139.0 L128.0 139.0 L248.0 139.0 L248.0 135.5062081655795 Z M248.0 98.0 L248.0 95.0 L128.0 95.0 L8.0 95.0 L8.0 98.0 L8.0 101.0 L128.0 101.0 L248.0 101.0 L248.0 98.0 Z M237.393011195815 84.41821253176587 C237.72685503811672 83.54822942423712 237.99999999999997 80.40794618180976 237.99999999999997 77.43980532637175 L237.99999999999997 72.04318558921172 L218.75 71.77159279460585 L199.5 71.5 L199.5 68.0 L199.5 64.5 L223.75 64.23222141967267 L248.00000000000003 63.964442839345324 L248.0 60.48222141967266 L248.0 57.0 L128.0 57.0 L8.0 57.0 L8.0 60.494682731433855 L8.0 63.98936546286771 L98.25 64.24468273143385 L188.5 64.5 L188.5 68.0 L188.5 71.5 L103.25 71.75561575700836 L18.0 72.01123151401671 L18.0 77.42382828877257 C18.0 80.40075651488829 18.27314496188295 83.54822942423453 18.60698880418433 84.41821253176421 C19.15533602379443 85.84718248020792 29.723866239915225 86.0 127.99999999999935 86.0 C226.27613376003416 85.99999999999999 236.8446639762046 85.84718248020735 237.393011195815 84.41821253176587 Z" fill="currentColor"/></svg>
