<svg xmlns="http://www.w3.org/2000/svg" xmlns:xlink="http://www.w3.org/1999/xlink" width="256" height="256" xml:space="preserve" version="1.1" viewBox="0 0 256 256">
  <path d="M120.14515946794029 254.93005486666362 C115.68536124133051 253.14379412817388 111.94928358731109 249.82140024456498 109.72736065768981 245.6657851557257 C107.63293593360622 241.74862724272668 107.47015841750924 239.95188396675303 107.0 215.56109354745843 L106.5 189.62218709491685 L101.0 188.26228271250793 C92.14684640850001 186.07329319119518 76.20157959851299 177.71009699397507 67.46215234024038 170.67188404728313 C57.10807120946881 162.33332527082402 48.165851057727124 151.06395304714042 41.93383859419959 138.5 C34.131415473624 122.77004465819913 32.6104763905326 115.74140041367275 32.629002796903166 95.5 C32.643320756892216 79.85662289553412 32.86302245665875 77.78178787883488 35.38211046472009 69.5 C45.51959404352229 36.171871583627855 69.523696535856 12.377005303952982 102.71149763542383 2.757501923639026 C109.43694544793567 0.8081269779326856 112.8203340692671 0.5 127.5 0.5 C141.98821921883166 0.5 145.7051330742791 0.8298741859600565 152.6564690741901 2.732623644294492 C168.1554704686546 6.975076678994517 181.72411271686627 14.411497297426331 193.34504905559615 25.0323784446187 C199.03566499988202 30.233280836377602 200.30316652351166 33.29683347649448 197.79999999999853 35.80000000000142 C195.6426515926126 37.957348407382064 193.43029174704765 37.08031268111782 187.42041321019101 31.685267734917716 C175.97841756304095 21.413832062461132 163.86053556647352 14.758785492434969 149.5 10.859671649732064 C143.08468961022626 9.117812829062382 138.72679318210405 8.685707713359308 127.5 8.678272274537676 C115.1660916772046 8.670103599896732 112.45314871466056 8.987297577431852 104.70341443674806 11.343621214364532 C89.7766603600999 15.882133399708975 77.10986235528154 23.204520147000856 67.09446506474254 33.084496245006775 C42.489294271078236 57.35697313999705 34.27899012973117 91.11610140770654 45.11026562529147 123.47912669502647 C59.7913893372462 167.34520489892918 105.79302581539956 192.22936131928643 150.48030535442052 180.4780674149755 C164.54685584060513 176.77902440568602 180.48666411080845 167.38190352591891 190.63657922800536 156.80442258346852 C217.94092418999946 128.34988033884883 223.28915496500017 88.23350152760105 204.44096920080034 53.25950077579665 C201.99843614036018 48.727226202484815 200.00000000000006 44.39482632443378 200.00000000000003 43.63194549123881 C199.99999999999997 41.43916654936376 202.7623823423746 39.72078301846148 205.23701401454682 40.3741782750012 C209.22362463600166 41.42679248786422 217.4315240771575 57.76301007080862 221.62939263855884 73.0 C224.46340473487126 83.28660453253994 224.23820458419658 108.75537427387532 221.21380887895026 120.0 C217.32244516517687 134.46799056409864 208.87758511177407 150.08425760168964 198.6127884403187 161.79389217344178 C189.8787270609151 171.7573303547817 170.0004581591949 183.90263851002635 155.9443333270624 187.863643942112 L149.5 189.67965223881637 L148.95595836579764 214.5898261194082 C148.65673546698636 228.29042175373368 148.31923546698636 239.64101131783966 148.20595836579764 239.81335848408816 C148.09268126460896 239.98570565033663 146.5375 239.98570565033663 144.75 239.81335848408816 L141.5 239.5 L141.23278879263685 215.5 L140.9655775852737 191.5 L127.98278879263685 191.5 L115.0 191.5 L115.02385663430509 212.5 C115.03697778317289 224.05 115.45091854879912 235.2377387819346 115.94372500236338 237.3616417376325 C117.82964673599102 245.48960904669744 125.78320019776444 249.90440950551093 132.64517594324514 246.6321613401015 C136.89550778314504 244.60531935153088 139.39152021727048 244.561900427269 140.98922258930702 246.48701401454747 C143.16214400537214 249.1052241489064 141.37631685412893 252.63226844229675 136.98887867357928 254.38777315002375 C132.5946275224761 256.1460038680985 123.88142919725829 256.4265243450512 120.14515946794029 254.93005486666362 Z M124.2 237.8 C122.65308185968107 236.25308185968106 122.65308185968107 231.74691814031894 124.19999999999999 230.2 C124.86 229.54 126.57 229.0 128.0 229.0 C129.43 229.0 131.14 229.54 131.8 230.2 C132.46 230.86 133.0 232.57 133.0 234.0 C133.0 235.43 132.46 237.14 131.8 237.8 C131.14 238.46 129.43 239.0 128.0 239.0 C126.57000000000001 239.0 124.86 238.46 124.2 237.8 Z M114.5 175.28773519636286 C109.09257532394302 174.5440329360782 97.61806551472606 170.82874740278183 91.45214642886856 167.8251630804215 C72.76632490427562 158.72279897213787 57.56357680176187 140.53966374135203 51.08422269055746 119.54340432402975 C48.44462741429385 110.98983151013898 46.92460567226955 93.53596455387614 48.11614294110254 85.4620042819663 C50.606805046016 68.5850610156275 56.29291579504289 55.97743295513741 67.41943422865315 42.66144558050466 C72.38238970101726 36.72188301156713 74.32993066139016 35.57102225593924 77.0 37.0 C80.37178800746156 38.804526178658 79.4338188253277 42.499788653485176 74.11247944773237 48.375796289823356 C71.42434314398517 51.34412969754416 67.53963844656973 56.786400702290926 65.47980234236472 60.46973185592727 C41.46775582885388 103.40728344327304 65.85522586200807 156.42039445587116 114.21490734667898 166.40936102992515 C130.03973698207128 169.6780693715658 143.79441498080837 167.7409364852642 159.57930204501184 160.02049021481946 C186.25608591807188 146.9727771889031 201.63259410693803 120.51206083239322 199.68759384969036 91.0 C197.86169974799304 63.295171889050536 180.59855957042748 39.73240552665887 154.31477807731423 29.06983861269316 C144.227818784947 24.977852136489414 135.38993076632391 23.613323409454683 123.59738316375838 24.327215975826164 C111.18254386193016 25.0787805901037 108.06587651349872 25.90671090916204 95.78839975145635 31.714562116832468 C87.53308679609245 35.61973174140374 85.8385299068022 36.11088115593377 84.48784169242822 34.989909500937614 C81.44427438414638 32.463972984760794 83.07652020291613 28.75952507242276 88.7142978848661 25.397796206099883 C100.23484348614014 18.528254182903858 119.10722527772256 14.308017295086088 133.51496248079488 15.379483763373656 C166.93207889657094 17.864629015657332 193.76786059985204 39.05385463875033 204.86159138264128 71.71396412112185 C207.4658664875215 79.3809890122936 209.28438377754944 94.63921938310551 208.47116330242972 102.0 C206.6850663842103 118.1666706357686 200.3532552366379 134.45361443718298 191.54845068310425 145.5292940636915 C175.95245066954462 165.14770791433 152.82319782254723 176.18081896276203 128.0 175.84316187345587 C122.225 175.7646075427575 116.15 175.51466553806566 114.5 175.28773519636286 Z M84.0 122.56902682458738 C68.14840743975059 118.15827459151589 57.80231462560874 106.52150118895477 57.86614870173026 93.17496365916644 C57.93578149692512 78.61602005351287 69.23982490050236 67.18113379936409 87.37390643181482 63.32565742315904 C103.12759054666006 59.9762759373581 127.102821287052 65.42040300249454 141.19977895836948 75.54805864212682 C145.9346371047686 78.94971550506868 146.40434610611436 79.07109879068463 153.74876022399457 78.79099538123646 C161.37205606141453 78.50025589936342 161.37947689588992 78.49724591913198 162.18734533156427 75.36820318187087 C163.24911498892314 71.25574812323289 169.94233368556854 65.28904551394344 174.44033515848724 64.44521535113694 C181.9724716627775 63.032178025346155 189.68383439847045 66.54710965273209 193.20856582309966 73.0 C195.66048855661182 77.48884939963665 195.33390467448584 87.86857058248178 192.6473428384575 90.83718799613817 C190.95720881060032 92.70476507522275 190.96968306148673 92.95068394874508 192.94113187041424 96.62898010051774 C195.8095149727255 101.98076122679561 195.71513646783484 109.64304262539386 192.72620337329187 114.07832015349975 C188.9971055629234 119.6119280313854 184.55773990294753 122.0 177.99999999999994 122.0 C170.75258734200742 122.0 166.3845479523186 119.27985846426094 163.14390621780876 112.74855463731248 L160.78781243561752 108.0 L151.82408148499738 108.0 C143.44132193341466 108.0 142.56916083076916 108.20034378060592 138.3676230729941 111.09107771907024 C123.32794459327324 121.43864842088468 98.65645434042551 126.64722833432421 84.0 122.56902682458738 Z M111.5 113.48181534561144 C118.9501647594864 111.56340063933217 131.17869510829505 105.8649495421693 135.35804409130992 102.36405273225449 C140.32854811903096 98.20043256915335 143.3280367721692 93.4431386149051 142.66025618866635 90.78248884567459 C141.19026952227384 84.92559545684136 131.08537373379949 78.26860721677333 116.96475682229406 73.85459164759354 C110.97515696316329 71.98228060077103 107.22741356748385 71.5190654902151 98.0 71.51057793037032 C87.4374215580023 71.50086225912767 86.03858122167162 71.72659370837985 80.83945602650276 74.27978207789613 C70.83299460390491 79.19375894229827 64.88668984117378 88.25200964217282 66.39377764708347 96.28547830636143 C67.30321385976025 101.13319009061769 72.11415790850441 107.39655427876639 77.23208135021937 110.39585718142257 C86.85138335005705 116.03314361960571 97.7725268000048 117.01663468412241 111.5 113.48181534561144 Z M184.22569444444446 111.18347714328748 C185.17482638888887 110.25374527003493 186.24629294114717 108.01853529426411 186.60673122724063 106.2163438637968 C187.19085411440386 103.2957294279807 186.8131323705975 102.51256467300955 183.1310367827962 99.00987128822453 C180.8589665522583 96.84850280212711 179.0 94.21549555211452 179.0 93.15874406597432 C179.0 92.10199257983412 180.54457985621383 90.05926923774778 182.43239968047516 88.61935886133803 C187.83336639602788 84.49984071854543 188.35878955681025 79.27545705138036 183.79933304867046 75.02767715421864 C178.74344680263687 70.31740260287748 170.0 74.26283181593489 170.0 81.25454545454541 C170.0 86.25905057020123 168.62009892583364 87.0 159.3 87.0 L151.0 87.0 L151.0 91.41821253176421 C151.0 93.84822942423453 150.72685503811704 96.54822942423453 150.39301119581566 97.41821253176421 C149.8687330244138 98.78445954600265 150.94911071078573 99.0 158.3215826243871 99.0 C167.7984029395812 99.0 170.0 100.10262973053896 170.0 104.84892232802315 C170.0 112.34638929964056 178.96375973767252 116.3378589344548 184.22569444444446 111.18347714328748 Z" fill="currentColor"/></svg>
