<svg xmlns="http://www.w3.org/2000/svg" xmlns:xlink="http://www.w3.org/1999/xlink" width="256" height="256" xml:space="preserve" version="1.1" viewBox="0 0 256 256">
  <path d="M13.454545454545455 246.54545454545456 C11.99864459289379 245.08955368380288 11.0 242.93322109988776 11.0 241.24545454545455 C10.999999999999996 235.83133238579768 15.725847213064577 234.12576364248983 18.594871718416066 238.50444849334326 L20.235849396540576 241.00889698668652 L128.3679246982703 240.75444849334326 L236.5 240.5 L236.78498309448725 230.25 L237.06996618897452 220.0 L128.0983415785754 220.0 L19.12671696817627 220.0 L18.813358484088134 223.1491510611558 C18.43156019538621 226.98609994579164 15.797215528039548 228.99245995075896 13.25 227.3862959170006 C11.651936322703229 226.37862602261 11.475432982204866 223.47057477784463 11.217037503760967 193.89141077172985 L10.934075007521932 161.5 L7.726506569883429 160.0 C5.962343929182253 159.175 3.4831413039173427 156.94270540563954 2.217167402628073 155.03934534586566 C-0.0694617678286642 151.601455646774 -0.08268050171628372 151.39095253849771 0.20769833650560976 123.03934534586566 C0.5350094496730357 91.0817957973864 0.45733475095054477 91.43420842351337 8.136154513371494 87.06768265034279 C11.459193187061219 85.1780518916005 13.404533864416813 85.0 30.72702468845049 85.0 L49.681740350157995 85.0 L50.89869379943893 79.56207874923209 C53.033285935322084 70.02371559795475 59.52674485743795 63.09730762087553 68.5 60.78721174278077 L73.5 59.5 L73.19222107212032 52.5 C72.78550654963023 43.249848675333524 73.54088295477352 39.69908017087479 76.71891592999572 35.92220257223285 C79.19951893248822 32.97417340315767 79.693287009855 32.809833109106165 84.92912523468372 33.18960750745596 C87.99310635560768 33.4118492072159 92.28281122573901 34.472604577031014 94.46180272386445 35.546841662600656 L98.42360544772892 37.5 L102.15620750206344 30.0 C106.19014089350307 21.89452826864735 114.01341376221035 12.390896777161563 119.38427273810947 9.071523381273337 C123.93372975344619 6.259804315438505 132.06627024655398 6.259804315438511 136.61572726189092 9.071523381273352 C141.97305098422297 12.382531530410613 149.80249591282342 21.882945491961298 153.86322361194232 30.0 L157.61525678028318 37.5 L161.5576283901416 35.58124587051644 C163.7259327755637 34.52593109930048 168.00689364439236 33.46517572948555 171.07087476531638 33.22401171537216 C176.32425426684154 32.81052154090698 176.79217047009246 32.96429681928732 179.28108407000582 35.92220257223465 C182.4840665071536 39.72873092169548 183.2792986625904 43.5195087557188 182.83711178635298 52.87336702420177 C182.52629715497366 59.44822522540166 182.65601445003253 60.00509186641203 184.5 60.01202169233402 C188.07654554825558 60.025462599206584 196.43722295018932 64.59500233404836 199.71435298811696 68.3274472466114 C202.54146423950678 71.54734907698627 206.00000000000009 79.99557161649723 206.0 83.68150122742843 C206.0 84.72684536076017 209.95983346894045 85.0 225.11384548662795 85.00000000000003 C242.5972024317349 85.00000000000006 244.5378697006816 85.17638171613582 247.86384548662795 87.06768265034262 C255.54266524904952 91.4342084235124 255.46499055032697 91.08179579738511 255.7923016634943 123.03934534586439 C256.0826805017161 151.39095253849183 256.0694617678282 151.60145564677188 253.7828325973725 155.03934534586438 C252.51685869608366 156.94270540563897 250.03256203579727 159.175 248.26217335229163 160.0 L245.04328483682684 161.5 L245.02164241841342 202.79545454545502 L244.99999999999997 244.09090909091003 L242.54545454545405 246.54545454545502 L240.09090909090813 248.99999999999997 L127.99999999999952 249.0 L15.90909090909091 249.0 L13.454545454545455 246.54545454545456 Z M237.0 205.5 L237.0 199.0 L162.12244471544219 199.0 C81.1651987630232 199.0 84.40578251217875 199.2187767307988 85.17323613368586 193.80504205593854 L85.5 191.5 L161.25 191.24371382344916 L237.0 190.9874276468983 L237.0 182.99371382344916 L237.0 175.0 L224.09877587068678 175.0 L211.19755174137353 174.99999999999997 L209.13784855296507 178.49093691726895 C203.1637295764118 188.61631449631818 187.88813526445966 188.6350201629002 182.44279013702214 178.5236262419471 L180.54519212655023 174.99999999999997 L127.95780836066615 175.0 L75.37042459478205 175.0 L73.69812698777545 178.50684454186842 C68.86946036454572 188.63266372693923 52.84031060272237 188.6231620899786 46.862151447034535 178.4909369172682 L44.80244825862691 175.0 L31.901224129313455 175.0 L19.0 175.0 L19.0 182.98442668804736 L19.0 190.96885337609473 L47.141530652388845 191.23442668804736 C72.68354481493822 191.47546820703502 75.38498142539278 191.6616526802828 76.38641579765951 193.25 C77.19088845483529 194.52595179893686 77.19088845483529 195.4740482010632 76.38641579765951 196.75 C75.38498142539277 198.3383473197172 72.68354481493802 198.52453179296498 47.14153065238883 198.76557331195264 L19.0 199.03114662390527 L19.0 205.51557331195264 L19.0 212.0 L128.0 212.0 L237.0 212.0 L237.0 205.5 Z M64.36514130819872 175.9274198509671 L67.0 173.85483970193422 L67.0055769344027 153.6774198509671 C67.0087446713009 142.21650732140978 67.48146340236022 131.80606984155983 68.0998505874027 129.57880327007695 C70.3068550139273 121.6297588829824 78.8513506373055 116.80579659098906 86.89009169796338 118.97040476767704 C91.94083156304576 120.33042777722356 96.81531226317632 125.34383363414506 97.54361786710692 129.92756180223458 C98.98170565501388 138.97843751435255 103.21898279813085 142.82631463473612 108.58517563318995 139.9544153844978 C110.87103779933494 138.73105907903482 111.48775068518006 137.29470855721718 113.45093068286685 128.62186507615954 C114.85807211433531 122.40546240028814 124.11496864166865 117.03501473976418 130.71253374753618 118.60743577776357 C140.02205430677225 120.8262067555614 143.0057117847212 125.59340594484426 143.87589612147573 139.6394647224596 C144.5885272035877 151.14238156813897 145.5840715122469 153.0 151.03614207299262 153.0 C154.59961594793123 153.0 156.81639712887318 150.30612289069103 157.86301583411378 144.70384559769147 C159.50609752050235 135.90885734064318 164.9548694810276 131.01035564626991 173.1021167802084 131.0037380604375 C178.2092448668732 130.99958980554484 182.88543880300801 133.57100732202008 186.40805235739913 138.32061077435242 C188.29266259815088 140.86166478654098 188.53329715443127 142.76908099555374 188.8359543579527 157.56564233313884 C189.16799979169264 173.7989603246932 189.20156594055732 174.01339149388397 191.72081304975381 175.99503155878642 C194.91044043284637 178.50399282398848 197.1244816909944 178.52902367824905 200.13921603769074 176.09020585489424 C202.49969458155653 174.18065878294914 202.50006468580955 174.17665738704326 203.0 145.16073357517422 C203.47422463880127 117.63704081214149 203.60849006540906 115.99565519903743 205.60453045783854 113.32052772027998 C212.16583446036654 104.52695585659633 224.83230487109745 104.52648656750839 231.395469542162 113.31957217340009 C233.29724658522764 115.86750281069178 233.53042095417925 117.71070899655594 233.81576200429777 132.45159795250487 C234.09839743747315 147.05271312231355 234.33853157158345 148.98624809455322 236.10471715171687 150.88202577910477 C238.69679457569364 153.66429429736195 243.33414610939153 153.63108337038514 245.96104485258093 150.81143855336734 C247.89913865178326 148.7311390557246 248.00000000000009 147.39828384152503 248.00000000000006 123.8672022546932 C248.00000000000003 99.14495103144156 247.9967437967136 99.10773922862758 245.58824781360516 96.30576370132587 L243.1764956272103 93.5 L215.94555976666402 93.0 C191.42467426243854 92.54976050713422 188.60493213296823 92.3258382250302 187.61242680778832 90.75 C185.82213801760926 87.9074908085296 188.04586478665104 85.54876375628976 192.85184468899922 85.19250216957784 C197.7338704267549 84.83060339533381 198.16815984643767 83.21010632770712 195.03108601769588 77.06093362852678 C191.7545601824675 70.63841241479231 183.99809404706042 67.1156089639913 177.17742681394782 68.95222392047 C172.99033782946273 70.07968989853138 167.67506982165156 75.03479979043651 166.06133391286562 79.31509966117447 C164.09473785872666 84.53133162979769 164.49179154239263 85.0 170.87755528455784 85.0 C177.52980716876164 84.99999999999999 179.60134594704917 86.46791089590963 178.59688841818712 90.4699884620928 L177.97044222687612 92.96594889509099 L95.39840261131657 93.2329744475455 L12.826362995757009 93.5 L10.413181497878504 96.30576370132636 C8.001755829543349 99.109485930512 8.0 99.12967681539601 8.000000000000004 124.05576370132636 C8.000000000000007 147.66666666666663 8.106905123682168 149.10690512368217 9.999999999999996 151.0 C14.265648768305802 155.26564876830582 22.0 152.14437639891744 22.0 146.1572837448635 C22.0 141.76375838025263 26.102238277151027 134.95072818670917 30.009323080210166 132.8553358109143 C36.777693731246906 129.22541914065638 45.91045166927907 131.26197378572346 50.26969366075229 137.3732866967859 C52.30587569271195 140.22785305615034 52.543519651061374 141.96575230035344 53.0 157.34012009065094 C53.48101153467879 173.5407041086093 53.58965532879836 174.25277155815456 55.86078396230978 176.09012009065094 C58.895234297642666 178.5449977176997 61.09083077852247 178.50299288897963 64.36514130819872 175.9274198509671 Z M45.0 155.9230769230769 C45.0 144.95467128031962 44.97068077133564 144.81683461748946 42.00723811720658 141.85339196336042 C39.72696793651784 139.5731217826717 38.47709187469161 139.0244151567201 36.75723811720658 139.54859561256325 C32.97033699601022 140.7027748835057 31.239379411917163 142.9180319927741 30.55419483698435 147.48717010560128 C29.72111455401529 153.0425474611584 26.383127652201843 158.07963791843991 22.26217335229091 160.0 C19.792892382091846 161.1506833608882 19.038244798918562 162.14041383837164 19.021642418413425 164.25 L19.0 167.0 L32.0 167.0 L45.0 167.0 L45.0 155.9230769230769 Z M179.99999999999997 155.93425854591064 C179.99999999999994 144.0472523900953 179.25018344635345 141.42581720498816 175.43523566993915 139.9753766455985 C170.36986656582965 138.04952674476826 166.9673218384125 141.5592337148943 165.54377469678968 150.17836655560765 C163.87521205319945 160.28099165150826 149.7775127405729 165.33243245921008 141.4758166543984 158.8023173661133 C137.01566659968222 155.2939628217591 135.04689084927537 149.62063357674367 135.0219620004909 140.20454545454547 C135.00221532477346 132.74586012641726 134.75240801240756 131.6614989214985 132.54545454545453 129.45454545454547 C127.60937452735894 124.51846543644987 122.44049524977113 127.26000920697703 120.87400675165966 135.64501407911817 C119.21543359490562 144.52292414162514 114.06723310124475 148.99252387912492 105.5 148.99252387912492 C97.02743754461179 148.99252387912486 90.01229774887808 142.75072204806236 90.00373806043756 135.20454545454544 C89.99932796427963 131.31662773028967 86.24076940061481 127.00000000000003 82.85990576682212 127.0 C81.6328539385743 127.0 79.58739939311975 127.97844131201927 78.31445122136759 129.17431402670948 C76.06305922392347 131.28938698848557 76.0 131.83430427463355 76.0 149.17431402670948 L76.0 167.0 L128.0 167.0 L180.0 167.0 L179.99999999999997 155.93425854591064 Z M236.97835758158658 164.25 C236.96186972410626 162.15496573882288 236.20235696119494 161.14274596064206 233.7893967334055 160.0 C226.77200572633586 156.6766566911377 225.05806733623513 151.250660142428 225.0238566343051 132.25 C225.0024336853798 120.35167144158324 224.79597412202517 118.7959741220252 223.0 117.00000000000001 C220.47948762341798 114.47948762341797 216.90831119849807 114.4443589764468 213.8607839623097 116.91010013071858 C211.51433547821432 118.80860148778893 211.49817516904977 118.96648227634185 211.19948462292052 142.91010013071855 L210.89896924584107 167.0 L223.94948462292052 167.0 L237.0 167.0 L236.97835758158658 164.25 Z M86.33838411141586 79.79068741584649 C86.86735201317441 75.32438121055111 86.64690545577305 74.25305052387456 84.7928051523643 72.2794511913731 C78.48041547870508 65.56022029349843 65.50788119340334 68.16382288754049 60.968913982304116 77.06093362852681 C59.886011292036855 79.18359825881099 59.0 81.83825099569053 59.0 82.96016193270356 C59.0 84.91149643092027 59.579688385613 85.0 72.360709047537 85.0 L85.72141809507399 85.0 L86.33838411141586 79.79068741584649 Z M121.73638608335142 79.75 C122.81374454108783 74.75053148987153 122.75082702440609 74.39426380489817 120.41792123588459 72.28425049653731 C116.81457942369259 69.02518224967224 110.69009912474061 67.6171425846091 106.34914057055556 69.04978810154088 C99.76273645740494 71.22349748107622 94.05013173388615 78.2581598240726 94.0055769344027 84.25 C94.00250962048122 84.6625 99.98613387464621 85.0 107.30251972143603 85.0 L120.60503944287206 85.0 L121.73638608335142 79.75 Z M157.26838142748232 79.75 C157.88727401937982 73.53550533552118 156.78025904227908 71.84530267727499 150.5269796177974 69.45715347602902 C145.67080016848936 67.60256162338149 140.11234515690703 68.55058878227862 135.75739527443324 71.9761928590869 C132.926884001678 74.2026733507279 130.0 79.7565774418415 130.0 82.90112912253319 C130.0 84.92832290244326 130.45668430725058 85.0 143.37277073650358 85.0 L156.7455414730072 85.0 L157.26838142748232 79.75 Z M95.5486545921319 55.484617078386584 L95.59730918426378 46.14195711581884 L92.0486545921319 44.19984701075391 C90.09689456645935 43.131686452968204 87.30572786469426 41.97702219260912 85.8460619215428 41.633926432178164 C83.53631018388697 41.09101726001047 83.04997676545413 41.417879332428974 82.0960619215428 44.15428124456024 C79.31434165622152 52.133929220084255 81.62067944081595 59.82212588624046 88.0 63.83510915935301 C94.5916427241734 67.9816560759145 95.48874082035901 66.98926591464573 95.5486545921319 55.484617078386584 Z M131.31672190742773 64.62376545536766 C135.7564363138917 61.30963378538948 141.23556358646516 59.753810367514475 147.0483262950404 60.15670395279791 L152.00124322910807 60.5 L152.00062161455403 55.460098760747464 C151.9998145353247 48.91649455839969 149.63019565248635 39.949711166388276 146.21709098202382 33.574863629247034 C142.75578173716696 27.109981697609655 131.1221963165748 14.99999999999998 128.3729465313886 15.000000000000004 C124.18154911745428 15.000000000000039 115.40852103107794 23.85091967540035 109.79896872847887 33.738887413516274 C106.44753657797321 39.64646277658585 104.0 48.81724785287002 104.0 55.46730461127336 L104.0 60.51441170105179 L108.58140768273432 60.150037536993324 C114.34996410503298 59.69124559579138 120.82489159263525 61.470557806754435 124.59059514068267 64.54936753506138 C126.1907678133072 65.85765617982257 127.64252485834248 66.94425747547243 127.81672190742773 66.96403708094995 C127.99091895651299 66.98381668642747 129.56591895651297 65.93069445491545 131.31672190742773 64.62376545536766 Z M173.98750367108767 57.10482567699425 C175.29202841376863 52.40854595647941 175.26394019781756 48.05558587743593 173.9039380784572 44.15428124456021 C172.95002323454585 41.417879332429 172.46368981611297 41.09101726001048 170.1539380784572 41.63392643217817 C168.69427213530574 41.97702219260912 165.88891300596276 43.13966304343923 163.91980667991726 44.21757276735619 L160.33961335983452 46.17740862902339 L160.41980667991726 55.338704314511695 C160.52158469145044 66.965838058003 161.39743337698084 67.91360049329093 168.15726041364428 63.711461064342345 C171.81569422292785 61.43725362163577 173.22887447896443 59.83588532944428 173.98750367108767 57.10482567699425 Z M110.2 56.8 C107.74208368688241 54.34208368688242 110.00219601594804 49.0 113.5 49.0 C115.2509008300679 49.0 118.0 51.749099169932094 118.0 53.5 C118.0 56.997803984051956 112.6579163131176 59.25791631311759 110.2 56.8 Z M125.2 56.8 C121.80570582077404 53.40570582077406 125.79738411607741 47.75082823576096 130.0 50.0 C133.52965281058627 51.88901285732728 132.0019060249181 58.0 128.0 58.0 C127.12 58.0 125.86 57.46 125.2 56.8 Z M139.57142857142856 56.42857142857143 C138.70714285714286 55.56428571428571 138.0 54.24642857142857 138.0 53.5 C138.0 51.74909916993208 140.7490991699321 49.0 142.5 49.0 C144.40449288646988 49.0 147.0 51.80973944671038 147.0 53.87142857142857 C147.0 57.74151386536996 142.45046198036923 59.30760483751209 139.57142857142856 56.42857142857143 Z M117.57142857142857 42.42857142857143 C115.71233886898986 40.569481726132715 115.69639045391571 40.43581671791994 117.03518375848799 37.934258545910666 C117.69898254914196 36.69393916004339 119.12719683701854 36.0 121.01613173027309 36.0 C123.32835017947205 36.0 124.09754480505421 36.54046811320973 124.59261527653426 38.512985985452545 C125.75788185334197 43.15577783245746 120.96919609667574 45.826338953818606 117.57142857142857 42.42857142857143 Z M132.01077741069298 42.512985985452545 C131.30295724192433 41.66011485745303 131.045638093176 39.95429936319644 131.40738472346573 38.512985985452545 C131.9024551949458 36.54046811320973 132.67164982052796 36.0 134.9838682697269 36.0 C136.87280316298143 36.0 138.301017450858 36.69393916004339 138.96481624151198 37.934258545910666 C140.3036095460843 40.435816717919934 140.28766113101014 40.569481726132715 138.42857142857144 42.42857142857143 C136.4490551358669 44.408087721275955 133.6145145423579 44.445371013244504 132.01077741069298 42.512985985452545 Z M125.16992415660444 29.12618063821172 C124.41445799965148 28.64725728023111 123.98244527699674 27.033824883686393 124.16992415660444 25.391493412728785 C124.4638739050601 22.816467768352187 124.88306751257211 22.5 128.0 22.5 C130.8932193647819 22.5 131.55664971039099 22.899615680830514 131.82676386631414 24.80504205593858 C132.4069497958341 28.897761923935747 128.6532324347277 31.33440357723654 125.16992415660444 29.12618063821172 Z" fill="currentColor"/></svg>
