<svg xmlns="http://www.w3.org/2000/svg" xmlns:xlink="http://www.w3.org/1999/xlink" width="256" height="256" xml:space="preserve" version="1.1" viewBox="0 0 256 256">
  <path d="M43.73446745397598 202.92597979264588 C37.827682841286105 201.51234764350764 32.677366222011344 198.49216502510956 28.738357672208892 194.1321534214703 C21.45006127957602 186.06488054280766 21.573929937265003 186.69943951082143 20.806785419618503 153.5 C20.42551740040868 137.0 19.97551740040868 121.7 19.806785419618503 119.5 C19.51063860475495 115.6387106958105 19.613528176223333 115.48907187096026 22.773811743499017 115.18486556928057 C28.48476796508565 114.63513361192932 29.0 117.49867298018992 29.0 149.78856638469333 L29.0 177.6413700311793 L31.75 183.06449599488917 C33.5502163468862 186.61460508983225 35.996956211675666 189.52588711861048 38.83428135829881 191.4938109792995 L43.16856271659763 194.5 L76.33428135829881 194.79003403057573 C104.79219470640496 195.03889832925998 110.09425418624036 194.85316971542582 113.68642359090649 193.48160630980385 C118.10004103946646 191.79639731854746 124.29768281430042 185.7363618823974 126.24923939239105 181.19772290693294 C126.99909093648142 179.45383011795187 127.6020574394297 167.77846119950186 127.95461282996885 148.17621353603192 L128.5 117.85242707206382 L133.0 113.82330385718817 C135.475 111.60728608900655 139.01503606153744 108.42892671470253 140.8667468034165 106.76028302540142 C148.38258249169036 99.98749097563696 150.46690188526804 87.78245502227361 145.70541126258618 78.42677815450939 C140.46286967691552 68.12590203649123 134.8474090656811 65.37344235804404 115.18197396544977 63.465488916740114 C88.05861850624859 60.833963139439426 39.085197453091965 62.01081100167839 26.208656903859293 65.60354780110089 C22.978191533794778 66.5048932960275 19.347287149665192 68.49833207221327 16.886240244870763 70.72174009969616 C7.052447160347496 79.60598137203434 5.34621012405431 92.36951261710158 12.559451765790765 103.0883449552041 C16.207645067608638 108.50953757308523 16.748055165492868 110.85194483450591 14.800000000000368 112.79999999999963 C12.6778250066219 114.92217499337943 10.235886562806627 114.09350883994787 6.806961276447918 110.08758082741517 C2.1804495009013944 104.68254234620181 -0.010905161837484946 97.98265319079049 -0.004946084763119529 89.26072653811352 C0.004078995030450679 76.05128436917516 5.840537914602928 66.0286152647531 16.981650733469685 60.090463975578956 C22.34149317621852 57.2336977055811 24.823629281758514 56.63429357805277 36.31548016733917 55.42159141144977 C61.754398980602744 52.73709504371572 117.84180743428998 51.63386291556514 164.0512257254893 52.909045685088 C187.45439987450845 53.55487343039541 207.59682220722868 54.343311743398814 208.81216424264545 54.66113082509557 C211.60907413749703 55.39253919283585 212.80940257967723 59.61916884889422 210.79288211975188 61.635689308819565 C209.52882910054177 62.89974232802967 206.30244491497083 62.95796833161841 187.41323192633996 62.05761785724019 C175.36095436685298 61.48314851198195 160.2225543895404 61.01017430740636 153.77234308786754 61.00656406929443 L142.04468617573508 61.0 L146.50187505052767 65.10849323970417 C148.9533289316636 67.36816452154147 152.2057745421232 71.75566452154146 153.72953196266013 74.85849323970417 C156.13371343484397 79.75413031095015 156.5 81.68989969996892 156.5 89.5 C156.5 97.31010030003108 156.133713434844 99.24586968904983 153.72953196266016 104.14150676029564 C152.0995102212147 107.46072161852697 149.0121808949321 111.45881026892818 146.22953196266016 113.85399989238212 C143.62828938319709 116.09304239686708 140.2625 119.03816584066246 138.75 120.39871865637187 L136.0 122.87245104857078 L135.99442306559726 150.6862255242854 C135.99135575167574 165.98380148592844 135.54697757351025 180.09053400202095 135.00691600300723 182.03452000449096 C134.46685443250422 183.97850600696097 132.6703781195499 187.70503477217727 131.0147464186643 190.31569503830494 L128.0045069625086 195.06235006762796 L170.417376722972 194.78117503381398 L212.83024648343536 194.5 L217.1217565453802 191.48292421735553 C219.79957527199457 189.6003276688766 222.46362686961407 186.45522875532708 224.2066333036625 183.11873254215806 L227.0 177.77161664960505 L227.0 149.85368969390524 C226.99999999999997 117.38992864993176 227.0285918981304 117.25819611536983 235.42020821553785 111.05894564747142 C250.4797731326747 99.9337927177257 252.08975577095205 82.44477294801871 239.13200368784288 70.738222396872 C235.26924140171025 67.2484487324553 227.22260088497092 63.99999999999996 222.44094348801377 63.999999999999986 C219.36997240249698 64.0 217.63993126292345 61.5707641286528 218.44017777713435 58.3823280525456 C219.0921431860035 55.784690958103226 219.22178360904175 55.74713367718077 225.88957520897077 56.22421173748279 C238.52951299521854 57.128594682124536 249.64913355905816 65.30733121968866 254.07498665863616 76.95522977233361 C257.1166379861178 84.96020537769243 256.73730181436395 95.93817055931318 253.15758014607752 103.5049171003227 C250.57536851347157 108.96314618899062 240.45110245281754 119.99999999999996 238.02640138548784 120.0 C236.02404826791633 120.00000000000007 235.5462106857709 125.35986110484968 235.03983910547117 153.5 L234.5 183.5 L231.835112848645 188.0 C228.23433685074514 194.08036703629654 223.50457797632507 198.4352004508468 217.5 201.19877610933855 L212.5 203.5 L130.0 203.6635800409382 C83.83349934205151 203.7551184417576 45.84163667535228 203.43027482798757 43.73446745397598 202.92597979264588 Z M44.655188778839644 190.54135068513324 C42.54054260720145 189.7873756684201 39.68528629720744 188.11962743924613 38.31017475663073 186.83524350919106 C33.16844067617551 182.0327526343173 33.00311718911184 180.98173105625693 32.95644893450441 152.7996599268842 C32.932495848481835 138.3348469670979 32.54379920508523 124.59231226715592 32.09267861584529 122.26069392701316 C31.016594529694945 116.69894957162666 27.877831270421858 112.26395824240967 22.000000000000014 108.00000000000007 C14.675074011981609 102.68627507243681 12.584397691452422 98.97753707923057 12.185599551205364 90.58982537489507 C11.90157223779191 84.61602815609882 12.22669680699175 82.7916431030547 14.251028105241543 79.0 C19.351564997495046 69.44651656272387 24.352887907353903 67.87878863689188 56.0 65.91325669351048 C80.57844968841003 64.3867436947908 121.31312456760284 66.15341537220691 130.83577033761617 69.15890027125306 C138.8523447154307 71.68904723003968 144.93875360148053 80.48315028009937 144.9780379995093 89.5927162551364 C145.00835643880762 96.6231873048997 141.7279131613917 102.4495580997461 134.745634993232 107.76641078212572 C124.91385623256511 115.25309607555802 124.55224910994504 116.32809676753368 124.17566933396515 139.1892442582494 C123.82486448296088 160.4856652314665 123.46757061557722 161.8361368604653 118.51298598545253 160.59261527653427 L116.0 159.96189594357014 L116.00976891570399 139.23094797178507 C116.01906106735343 119.51175720098855 116.1350950001797 118.25597903135795 118.38730912202293 113.5 C120.74441891181849 108.52251378936313 124.66356283542778 104.25798119326345 130.63626058150976 100.17156558034284 C135.01113801265808 97.17835075526887 137.21493891752408 91.36231630905552 135.84889950787806 86.41492926873644 C134.49824051670754 81.52324551377123 129.97591310390595 77.33089737653873 125.23576516263293 76.57620023807507 C99.34173408310738 72.45351221206418 33.760116132534044 73.65103225307804 26.545415657893127 78.37828556441848 C25.092922012819532 79.32999595316012 23.027683671278545 81.54671776928755 21.95599712113538 83.30433404470165 C18.068218259833284 89.68047397192439 20.033504718861302 95.6811747878315 27.848286673451973 101.29553657994644 C30.55479954995846 103.23997246722016 33.98407911511658 106.42363804679857 35.468907929358906 108.37034897900958 C40.440316043166575 114.88820102417638 41.0 118.91938049777661 41.0 148.20859081090367 C41.0 176.73757969601206 41.41102481352687 179.54405501209516 45.94460899442076 181.97035563344767 C47.1434695674702 182.61196634083535 59.35866348986594 183.0 78.35753326396724 183.0 L108.84654943611315 183.0 L111.89777812759665 180.4325603244436 C114.26366423780195 178.44179841133524 115.09638596525257 176.7541222657058 115.60515673827663 172.9188204545631 C116.15044464436521 168.80823902044287 116.66382167193758 167.87149542249583 118.6436393141891 167.37459282537029 C119.9539222753829 167.04573273619252 121.69512827745145 167.33201579958774 122.51298598545254 168.01077741069298 C125.84560292202839 170.77660381171262 123.13086499064116 182.96725472240013 118.2074269543744 187.34508092352246 C113.54626514492409 191.48969615921163 109.87282084214527 191.91221435188436 78.5 191.91221435188436 C55.62578512462904 191.91221435188436 47.586756713108294 191.58659835440338 44.655188778839644 190.54135068513324 Z M156.2 123.8 C154.36287999778884 121.96287999778882 154.77214019435212 118.19231438417097 156.93425854591067 117.03518375848799 C158.1400162009515 116.38988184483757 169.78866156259724 116.0 187.86282997448205 116.0 C212.88796289811268 116.0 217.07226376095602 116.21512090381323 218.4285714285714 117.57142857142853 C220.42316626518635 119.56602340804339 220.42316626518635 121.43397659195664 218.4285714285714 123.42857142857146 C217.0704789364087 124.78666392073407 212.82121212121177 125.0 187.12857142857138 125.0 C165.33968253968249 125.0 157.07951305462117 124.67951305462118 156.2 123.8 Z" fill="currentColor"/></svg>
