<svg xmlns="http://www.w3.org/2000/svg" xmlns:xlink="http://www.w3.org/1999/xlink" width="256" height="256" xml:space="preserve" version="1.1" viewBox="0 0 256 256">
  <path d="M98.0 254.40460638815586 C50.39044516022613 247.48619574779033 14.140640642666554 225.2261151484029 3.907785245419525 196.62497661946975 C1.9759505719383084 191.22544061839446 1.6614632608877347 187.88569117812992 1.2525335563594666 168.42709698904565 C0.8382869403244242 148.7155018019807 0.9680750998289787 146.17478204302822 2.4657601538115443 144.67709698904565 C4.562085379661565 142.5807717631956 6.405251429946452 142.54810857280359 8.42857142857143 144.57142857142856 C9.643848782952123 145.78670592580926 9.999999999999975 148.36921195931853 9.999999999999986 155.96609345726512 C9.999999999999996 162.93599981473054 10.57367793128593 167.63534746759828 11.975016549933407 172.14466488583656 C16.919289171815915 188.05466291036265 31.829641798577295 202.27978878056308 54.27715175446116 212.50274446489402 C63.398529119930735 216.65676585838102 65.67685750024688 219.27458403071356 62.989222589306976 222.5129859854526 C61.094642130691874 224.79581578335984 58.51057756304904 224.33546945964727 49.489449710503145 220.10802641380337 C36.96347701923325 214.23815769986027 27.34527904299505 207.6043175935617 18.74993634998588 198.90644405056983 C11.62170709956233 191.69318463555356 11.124446189805084 191.36225288265456 12.55246045637174 194.78196629497026 C17.141976970411218 205.77263462830558 24.91696389313779 214.935754826534 36.32779927326041 222.80211468852644 C84.92691049513024 256.305191817321 171.07308950486802 256.3051918173209 219.67220072673996 222.80211468852633 C231.1186743664113 214.91118665381705 238.85596568291493 205.77745981429504 243.48562470150324 194.6908156819509 C244.97993091702122 191.11240069076456 244.67023815582766 191.31207578901487 238.37369398961368 197.9867444056689 C208.53403441769913 229.6183559720583 144.55332043808346 243.7929824773423 85.5 231.85519288025506 C74.70354756625035 229.67266060953887 71.33004789529156 227.68619266985064 72.4464617780829 224.1686840003051 C73.44413086958748 221.02530703876937 75.91676706264735 220.783046612694 85.09476150754605 222.92944690987127 C131.3345765121128 233.74326394398244 185.7822397570438 225.5421640384729 219.44940432033917 202.6924746908781 C233.1367231243163 193.40297892462823 243.63720774890035 179.02431575997477 245.5149903496614 167.0 L246.21773484440862 162.5 L243.3588674222043 165.14395827125776 C241.78649033999193 166.5981353204495 238.18266721881162 169.19644214888106 235.35037159735913 170.9179734455501 C232.51807597590664 172.63950474221912 228.9997960299185 175.62255325135865 227.5319717173855 177.54697013252684 C223.47069956829887 182.8715724135949 219.74318981801179 186.0 217.4602182948679 186.0 C215.08145195752178 186.0 213.0 184.22644530144308 213.0 182.1995562353162 C213.0 179.68649378474262 226.11241926818704 166.0765162092329 231.9502652124787 162.53021228613838 C237.88696098816007 158.92386026513248 239.41190462724032 156.7656986580406 240.56444857314852 150.33907332925193 C240.9431209359263 148.22758299816337 242.32103142810422 144.2065788469756 243.6264718890995 141.40350854883462 C245.613387893834 137.13715906436562 245.99999999999997 134.71997875305385 245.99999999999997 126.56371091572478 L245.99999999999997 116.8204047337803 L241.98664445834703 121.89768050517254 C235.64219253691198 129.9240145015366 224.14904880749677 138.96670991036655 220.26905202821465 138.98487422538815 C217.5891243132015 138.99742038303202 216.9228087815898 138.54062703532608 216.36206169714967 136.30643269414392 C215.79044024158316 134.028911407341 216.2122600451694 133.21852861934292 219.09300966893503 131.0598482226759 C238.17322251146686 116.76215255082224 247.01273250905908 101.39867486531455 245.73100018003677 84.76178725373602 C244.6341972845817 70.52528397566128 238.12227127268307 57.45074233825545 225.537216905881 44.217029872851555 C209.34233442555458 27.187431755183194 188.3656671847714 16.54273856495892 159.66512928571467 10.78997711620677 C143.49762316106867 7.549347749487315 112.50237683893005 7.549347749487426 96.33487071428446 10.789977116206998 C67.63433281522649 16.542738564959766 46.65766557444275 27.18743175518437 30.462783094118265 44.21702987285184 C21.68230631910428 53.4500694420902 17.055955510483393 60.55927431660136 13.190821320836953 70.7584487817187 C9.667616345958656 80.05535296460818 9.475987367349788 94.82185873288003 12.772413904371504 103.0 C25.98809841786436 135.78693872871287 81.43544622492661 158.49785279018374 139.59641875017462 154.9463813671848 C160.6633009079659 153.6599787039108 176.7103105980425 150.29782973092904 194.73442391180916 143.39393695499672 C205.87571745812684 139.12641518069597 208.37386319055156 139.1910323712622 208.81396403698594 143.75811920247128 C209.10643347211993 146.79318109011263 208.7983545301422 147.1593474293869 204.31396403698594 149.10658124326005 C139.9985041592838 177.03395251473842 47.01945815616911 163.65353377397017 13.855612772957926 121.69812092733409 L10.000000000000028 116.82040473378004 L10.000000000000014 124.21020236689002 C10.000000000000005 128.62448941486443 9.516818608649775 132.08318139135022 8.799999999999997 132.8 C6.962879997790061 134.6371200022099 3.1923143841702086 134.22785980564643 2.0351837584880315 132.0657414540894 C0.4767727807605642 129.15382390612365 0.7727113317749914 87.15480555088111 2.4161483098522822 78.0 C8.864190716390503 42.08102336558434 42.99853673773513 13.446166865893503 92.0 2.8492783124393952 C101.27032650625576 0.844509264724568 105.3692381520699 0.5739827159477948 127.0 0.5392921440728884 C146.8227662038891 0.5075011650685458 153.40907501882077 0.8569404734232298 161.5 2.3697037565538466 C181.4004026718511 6.0904895198032705 202.64606517280478 14.666735080554915 217.0 24.773412212355154 C231.63279036382585 35.07643291886642 244.88787913464836 51.493737787033695 250.4024179211255 66.1445178930773 C254.65826149796146 77.45125283940502 255.14529048627696 85.64101174788777 254.79445938828434 140.0 L254.46853407182223 190.5 L251.8842590879128 197.17871030329576 C248.10602963008068 206.94303498443546 243.8427466044995 212.98863004267628 234.5751602436771 221.72406697030897 C216.8544912733758 238.42720628605494 189.71467283893452 249.89326532452884 157.14815370912623 254.43551013054918 C143.24908078331092 256.3740959386958 111.43881471671565 256.3574757027909 98.0 254.40460638815586 Z M134.0 189.17011483439376 L124.5 187.48822845627558 L124.5 183.9941142281378 C124.5 179.62321432003048 126.15056935664849 179.25850035887905 137.79639040422913 181.05611032432762 C146.0193755448908 182.3253827933271 146.17450921479735 182.30906610702638 155.32986726727225 179.211970094116 C163.0744987608672 176.5920979730263 166.23665602237728 176.06099058194383 174.9010574885116 175.92484585608315 C182.69622807185596 175.80235945396356 185.44819624334548 176.0987504164307 186.10226785095142 177.13123245405154 C187.31004597813205 179.03776563366714 187.20984678732557 180.33075814788694 185.69363671608008 182.40429897498018 C184.63998524754382 183.84525321936272 182.17353836726005 184.34489637671354 172.94363671608008 184.98714408190176 C165.4801875977521 185.50647605857804 159.76096035006105 186.47656164807552 156.5 187.77628574848626 C149.04644129300124 190.74705780498525 144.49857182162643 191.02878903823472 134.0 189.17011483439376 Z M58.97250624340543 184.32115880276933 C57.61262780953244 183.39779614429244 55.02184169726223 181.37279614429244 53.21520377169385 179.82115880276933 C51.40856584612546 178.2695214612462 48.93356584612546 176.99749037951878 47.71520377169385 176.9944230655973 C42.10034528255055 176.9802872565695 37.3866760443429 174.6517979985898 32.5 169.47831687528844 C29.75 166.56691596391659 25.475 163.31639907572557 23.0 162.25494601264174 C17.33973412690379 159.82742821511977 15.589429610046514 157.77197874074344 16.407384723465736 154.51298598545256 C17.26658795485274 151.08964763781682 20.30967994725718 151.23547557313563 28.371341127952466 155.08631044132346 C32.70549502710535 157.15661711693974 36.16319532418051 159.75076725952312 38.874783034393275 162.96654961134578 C42.33779780031036 167.07347992615527 43.6037278006332 167.86343747151452 47.70854170744629 168.4789352218308 C53.33145840592744 169.32206542375948 54.756884041257706 170.01282814401972 61.75 175.2834402666258 C67.42893426590251 179.56357232248433 68.62618295049677 183.05932577958805 65.06574145408933 184.96481624151198 C62.478313719667874 186.34956554123576 61.86431137840027 186.28470555131295 58.97250624340543 184.32115880276933 Z M118.47909100333024 94.25986553648563 C113.04315814756251 92.31386942590474 107.0 88.44393473848173 107.0 86.9088528095076 C107.0 86.38362548643877 105.90517599921279 86.67125027722038 104.5670577760284 87.5480190112445 C102.67450710066156 88.78806584041713 101.67499221503817 88.89642862908225 100.0670577760284 88.03588823261073 C96.7650476494656 86.26870604251143 97.56191603630418 82.84636283567062 102.37536105261664 78.12232387438462 C107.59128570127555 73.00328103170283 110.80067995551755 72.80207994934823 112.30215987175825 77.5 C114.33390394911692 83.8570422325157 119.52734064004159 87.0 128.0 87.0 C136.4726593599584 87.0 141.66609605088314 83.85704223251565 143.69784012824175 77.5 C145.19932004448242 72.80207994934824 148.40871429872448 73.00328103170284 153.62463894738337 78.12232387438463 C158.4380839636958 82.84636283567059 159.23495235053437 86.26870604251144 155.9329422239716 88.03588823261072 C154.3427747808599 88.88692002144047 153.34631972028137 88.80171209761286 151.61385659932893 87.66655866274954 C149.5645051380935 86.32377201273151 149.2501273018696 86.36983579340472 148.12066407049298 88.17839390034251 C147.43802349637104 89.27147520671498 144.38173560723592 91.30932854462455 141.32891320574822 92.70695687347487 C133.9959755120337 96.0640868032852 125.1906270669633 96.66251167329278 118.47909100333024 94.25986553648563 Z M19.888052898610102 91.50035833068078 C14.165891502212641 88.3904224153599 13.731939771989314 80.68655508575227 18.59469516023997 68.53961009032436 C22.239288138832432 59.435580192243975 25.81721122878363 56.000000000000014 31.653846153846153 56.000000000000014 C41.072258730502824 56.0 44.736388905352285 64.636102241611 39.623211060357136 74.78324373018849 C38.31597714355355 77.37745967858481 36.90696277890484 81.0683997872092 36.49206802780443 82.98533286046488 C36.077173276704016 84.90226593372056 35.11541802197344 87.4204093294536 34.35483412840314 88.58120707320498 C31.570997683608766 92.82987851025199 24.835154886298707 94.18905742224334 19.888052898610102 91.50035833068078 Z M28.94382274754148 78.0 C29.886206935547488 74.975 31.39751647988534 71.08276454795998 32.3022884016256 69.35058788435552 C33.709090555626986 66.65727943510278 33.74359830913289 66.03209492753679 32.54056567274456 65.03366651817095 C31.41722022240618 64.10137259926543 30.770575364869302 64.4205128395796 29.330894569496415 66.6177434582116 C27.0649685688688 70.07598364876985 22.96066236229377 82.12733337077924 23.662225059361703 83.2624856598742 C24.993941091159897 85.41724746268682 27.37094667437233 83.04884332938991 28.94382274754148 78.0 Z M117.2 72.8 C116.47506633826762 72.07506633826762 116.0 68.56054327009826 116.0 63.92244471544217 C116.0 55.366526505144996 117.17692167649616 53.32562040794377 121.48701401454746 54.40738472346574 C123.93482075228566 55.021745106607 124.0 55.26826768891337 124.0 63.91206322403058 C124.0 71.08146270045353 123.69616141933479 72.90261619481069 122.41821253176421 73.39301119581566 C120.044257392276 74.30398325763909 118.53214261556273 74.13214261556273 117.2 72.8 Z M133.25 73.33771929824562 C132.38144990998154 72.98725171806272 132.0 70.1181378910231 132.0 63.93571869488158 C132.0 55.26665805995721 132.064551346751 55.021902699716975 134.51298598545253 54.40738472346574 C138.82307832350384 53.32562040794378 140.0 55.366526505145 140.0 63.92244471544217 C140.0 73.15020977300722 138.3811990755575 75.40820313575125 133.25 73.33771929824562 Z M50.38811744686186 53.01993087257538 C46.76923506438669 51.557737928889914 44.0 47.08853750561778 44.0 42.71030509736147 C43.99999999999999 39.35552088566969 44.627604958605346 38.09542900488009 47.79281901452388 35.095163789162754 C51.80260570998897 31.294339158564796 65.22048759166363 24.219270677133206 74.78580462212446 20.86212586438443 C85.96693616086861 16.93787770549741 101.38557292824939 13.94906149886915 113.67833346145882 13.323027417128763 L125.85666692291764 12.702820769071486 L128.9283334614588 15.774487307612663 C131.42235002077118 18.268503866925016 131.99581838211233 19.659864251937798 131.97776415441118 23.17307692307692 C131.94204721447184 30.123316393091397 127.63327090091343 34.000000000000014 119.94407906867733 34.0 C112.25774100076924 34.0 94.97276443174933 37.0678372139258 85.8352923288995 40.053823958876364 C80.86606046402133 41.67769326475194 72.06307863054283 45.47989304459022 66.27311047672505 48.50315680296143 C55.53837621389451 54.108357417262205 54.096583874314064 54.51831984160462 50.38811744686186 53.01993087257538 Z M60.020411418461556 41.89242271803945 C72.82992459553216 34.010650186254864 93.7586888903536 27.64618134272045 111.80686269320066 26.1440846407243 C122.06579248950203 25.29026392837038 124.90452298517745 24.27256592799761 123.47573580546256 21.960739708528813 C122.9258478800912 21.07100235527476 120.42768755287645 20.933141973470068 114.11286809477502 21.44405208711369 C95.29560411319869 22.966491571421557 77.6812919960724 27.86828351046714 62.76348014313659 35.73379637360987 C53.420115303909526 40.66014596512272 51.4223842137178 42.256381030981956 52.47292709745006 43.95619512350009 C53.461100638073894 45.55509349901277 54.55308331674971 45.25650344918407 60.020411418461556 41.89242271803945 Z" fill="currentColor"/></svg>
