<svg xmlns="http://www.w3.org/2000/svg" xmlns:xlink="http://www.w3.org/1999/xlink" width="256" height="256" xml:space="preserve" version="1.1" viewBox="0 0 256 256">
  <path d="M39.67051885970211 236.39779158697485 C35.742237014895075 232.4695097421678 36.02246945550469 226.90592850414097 40.611048292857745 217.7250358677104 C46.49852058330492 205.94529906586092 42.80644642085308 207.0 78.15498756211208 207.0 L109.0 207.0 L109.0 192.02772948253894 L109.0 177.0554589650779 L60.57984330428529 176.77772948253894 L12.159686608570592 176.5 L9.581476672045122 174.07722044262744 C7.80240953657592 172.40540643479807 5.917899303589411 168.17761438275448 3.501633367759826 160.43743608401854 C-0.8051256755740672 146.64132101622383 -0.9642112184684413 142.9036089530504 2.6348586918014263 140.07258014903272 C5.047557325697704 138.1747511270168 6.599773973643156 138.00000000000003 21.044430443640085 138.0 L36.81914350367729 138.0 L37.15957175183864 118.07139113118521 C37.54204977235983 95.68119609580583 37.943417315681096 94.33244977748994 45.31453407209548 90.66764215229097 C48.720162173743354 88.97441543401249 49.0 88.50342499944882 49.0 84.46469517341681 C49.0 82.060871151276 49.53760836900531 78.9141842002285 50.194685264456254 77.4720575044224 C52.54203553453464 72.32018485097207 54.544978097679305 72.0 84.4255892260521 72.0 L111.9504983058726 72.0 L110.9752491529363 69.43490033882544 C109.27079527911637 64.95184691492909 109.85973601830355 57.80574564176446 112.28683259318339 53.52038217330177 C114.77917467894228 49.11981903305998 120.98063478889006 45.04209083340449 125.21971849543803 45.01645041988202 C127.62150918525731 45.00192301001128 128.33928648113883 44.1345781938648 131.35995584717037 37.59673532511381 C137.12688147390136 25.114980781790912 146.5577932706236 17.0 155.29667231943205 17.0 C158.37730556521558 17.0 159.06249347629998 17.400812495684967 159.59261527653422 19.512985985452318 C160.40651919634612 22.755837499736014 158.97510767178747 24.391275368635466 154.02478409072 25.874428388766376 C148.951225986165 27.39450337019976 143.63140294969318 32.838100128919216 139.77912388297062 40.45153540925729 L136.76774013467113 46.40307081851458 L139.2778822004807 48.45153540925729 C145.21147183748243 53.293790528182505 147.7029268435958 62.390763647615145 145.02475084706373 69.43490033882547 L144.04950169412743 72.0 L171.57441077394796 72.0 C201.45502190232148 72.0 203.45796446546555 72.32018485097198 205.80531473554385 77.4720575044225 C206.46239163099472 78.9141842002286 207.0 82.06087115127633 207.0 84.46469517341744 C206.99999999999997 88.5034249994504 207.27983782625628 88.97441543401342 210.68546592790523 90.66764215229155 C218.0565826843178 94.33244977748774 218.45795022764014 95.68119609580742 218.8404282481614 118.07139113118616 L219.18085649632283 138.0 L234.95556955635925 138.0 C249.4002260263537 137.99999999999997 250.95244267430118 138.17475112701692 253.36514130819782 140.07258014903215 C256.96421121846896 142.90360895304937 256.8051256755748 146.64132101622116 252.4983666322403 160.43743608401826 C247.71403947879355 175.76337544277865 246.97512318140244 176.39758599711894 233.38538216397217 176.842076931047 C221.83625388217618 177.21982385127498 219.69251327026532 176.446525811842 220.199441940972 172.0855958223378 C220.49490903274545 169.5437958100593 220.6637442078215 169.49152429498994 230.1670512339477 168.99961543271556 C235.48392941261892 168.7244039207091 240.14166564235728 168.19166769097177 240.51757618892182 167.81575714441033 C240.89348673548636 167.43984659784888 242.66948335086533 162.4900196531269 244.46423533420844 156.81614171169477 L247.7274207584686 146.5 L187.86371037923553 146.24219357371 C154.93866967065733 146.10040003925053 101.0623916835282 146.10040003925053 68.13864818561524 146.24219357371 L8.277296371228033 146.5 L11.633247599299986 157.13195635099265 C14.390691428583605 165.86778724985243 15.391431710510716 167.8717007010183 17.244599413685968 168.36830166770017 C18.485069736158685 168.70071559884335 62.08239987805101 168.97883524089664 114.12755528455783 168.9863453167075 C217.6768599672079 169.00128740156163 212.8151871295164 168.7206824033098 210.16846083160027 174.52961386497293 L209.0428775822996 177.0 L178.02143879114982 177.0 L147.0 177.0 L147.0 192.0 L147.0 207.0 L177.84501243788793 207.0 C213.19355357914728 207.0 209.50147941669505 205.9452990658608 215.38895170714224 217.72503586771052 C219.9625356128734 226.87592643548535 220.2551807954183 232.4720919318556 216.36363636363598 236.36363636363677 L213.72727272727192 239.0 L143.39882012212394 239.0 C74.093823355968 239.0 73.05479097797169 238.97089497063902 72.0 237.0 C71.23950997736534 235.57901139454756 71.23950997736534 234.42098860545244 72.0 233.0 C73.05435317466623 231.02992307232006 74.093823355968 231.0 141.47616676411306 231.0 C184.03136454412106 231.0 210.10585023812868 230.6377477113655 210.47440791237682 230.04140886761738 C210.80025095799652 229.51418374480693 209.47115132452586 225.91418374480693 207.52085317133094 222.04140886761738 L203.97485652915833 215.0 L128.0 215.0 L52.02514347084167 215.0 L48.47914682866909 222.0414088676174 C46.52884867547416 225.91418374480696 45.19974904200351 229.51418374480696 45.525592087623195 230.0414088676174 C45.85143513324289 230.56863399042783 49.128976341281174 231.00689074853267 52.80901699437495 231.01531277451704 C60.8130478582014 231.03363054931074 62.267764102511514 231.77431895014115 61.830075843395555 235.60850658727122 L61.5 238.5 L51.92051885970211 238.78415522333847 C42.696429686096224 239.05776848911276 42.24196336081032 238.96923608808302 39.67051885970211 236.39779158697485 Z M138.0 192.0 L138.0 177.0 L128.0 177.0 L118.0 177.0 L118.0 192.0 L118.0 207.0 L128.0 207.0 L138.0 207.0 L138.0 192.0 Z M66.0 119.20000000000003 C66.0 105.9111111111115 65.6482269503546 100.04822695035465 64.80000000000004 99.20000000000003 C64.08801054018448 98.48801054018443 60.66031746031765 98.0 56.37142857142857 98.0 C45.74500107651663 98.0 46.0 97.46963033820953 46.0 119.57142857142861 L46.0 138.0 L56.0 138.0 L66.0 138.0 L66.0 119.20000000000003 Z M95.0 119.57142857142858 C95.0 97.46963033820951 95.25499892348337 98.0 84.62857142857143 98.0 C80.3396825396824 98.0 76.91198945981553 98.48801054018445 76.19999999999997 99.20000000000002 C75.3517730496454 100.04822695035463 75.0 105.91111111111141 75.0 119.20000000000002 L75.0 138.0 L85.0 138.0 L95.0 138.0 L95.0 119.57142857142858 Z M124.0 120.22250624340543 C124.0 97.97402845733765 124.01210392635362 98.0 113.64329603135093 98.0 C109.34295467363339 98.0 105.9124394208003 98.48756057919968 105.19999999999997 99.20000000000002 C104.3517730496454 100.04822695035463 104.0 105.91111111111141 104.0 119.20000000000002 L104.0 138.0 L114.0 138.0 L124.0 138.0 L124.0 120.22250624340543 Z M152.0 119.20000000000003 C152.0 105.91111111111142 151.6482269503546 100.04822695035465 150.8 99.20000000000003 C150.0875605791997 98.48756057919968 146.65704532636664 98.0 142.35670396864907 98.0 C131.9878960736464 98.0 132.0 97.97402845733767 132.0 120.22250624340543 L132.0 138.0 L142.0 138.0 L152.0 138.0 L152.0 119.20000000000003 Z M181.0 119.20000000000003 C181.0 105.91111111111142 180.6482269503546 100.04822695035465 179.8 99.20000000000003 C179.08801054018446 98.48801054018445 175.66031746031763 98.0 171.37142857142857 98.0 C160.74500107651664 98.0 161.0 97.46963033820957 161.0 119.57142857142861 L161.0 138.0 L171.0 138.0 L181.0 138.0 L181.0 119.20000000000003 Z M210.0 119.57142857142858 C210.0 97.46963033820951 210.25499892348338 98.0 199.62857142857143 98.0 C195.3396825396824 98.0 191.91198945981552 98.48801054018445 191.2 99.20000000000002 C190.3517730496454 100.04822695035463 190.0 105.91111111111141 190.0 119.20000000000002 L190.0 138.0 L200.0 138.0 L210.0 138.0 L210.0 119.57142857142858 Z M84.7435605486574 89.0 C89.05345135801491 89.0 93.57072968987602 89.62945272731457 95.7272489767555 90.53050401793405 C99.01570667502739 91.90450937517944 99.78138934895726 91.90450937517944 103.21536679038697 90.53050401793405 C107.90331568792149 88.65475876055596 119.1303879617474 88.59900978287507 124.25 90.42605476627452 C127.38191534790897 91.54374692381968 128.61808465209103 91.54374692381968 131.75 90.42605476627452 C136.88866193260475 88.59221141345756 148.22333513667738 88.64864865817358 152.7272489767554 90.53050401793399 C156.01570667502736 91.9045093751793 156.7813893489574 91.9045093751793 160.21536679038712 90.53050401793399 C165.55347104577285 88.39461816267332 177.5251084733974 88.51609508643836 182.0 90.75155399907916 C185.33244658180865 92.41629768457793 185.66570755005475 92.41622329090433 188.96144191776096 90.75 C190.8652349725295 89.7875 193.92989934030618 89.0 195.77180717948696 89.0 C199.03018353459782 89.0 199.112338978765 88.89860884429768 198.810365261726 85.25 L198.5 81.5 L128.0 81.5 L57.5 81.5 L57.189634738273966 85.25 C56.88834263174832 88.89037325951932 56.97604402413286 89.00004542929433 60.189634738273966 89.00155399907925 C62.01033563222329 89.00240869857282 65.075 89.78990869857283 67.0 90.75155399907925 C70.33244658180863 92.41629768457791 70.66570755005479 92.41622329090431 73.96144191776096 90.75 C76.31933684872408 89.55791987061434 79.75679869529445 89.0 84.7435605486574 89.0 Z M134.5047873316001 69.58612175930898 C138.00251157415417 66.08839751675494 138.5708707185985 62.66223798573427 136.29874987164214 58.77182957286426 C133.91988579000505 54.698651489633136 130.38824407532184 52.78543167956117 126.54807454177526 53.48953122274561 C120.11078249978114 54.669816193635164 116.57039398825161 61.33476667029385 119.43655383060273 66.87730863738327 C121.42128582817075 70.715357104674 123.53691714292322 71.93146653418486 128.29545454545456 71.96959131409926 C131.0017565167498 71.99127385188547 132.7836012752232 71.30730781568592 134.5047873316001 69.58612175930898 Z" fill="currentColor"/></svg>
