<svg xmlns="http://www.w3.org/2000/svg" xmlns:xlink="http://www.w3.org/1999/xlink" width="256" height="256" xml:space="preserve" version="1.1" viewBox="0 0 256 256">
  <path d="M60.673649365262044 245.3403160319287 C60.30314221436792 244.96980888103457 60.0 238.96591106172082 60.0 231.9983208778981 L60.0 219.32997508912956 L51.17269461520044 212.73813295994114 C35.45445666702034 201.0004464761541 21.650859771722992 184.5259863520506 12.927029918644052 167.09230001201527 C4.744224936522919 150.73979682906634 -0.3690760452408546 129.61132472859586 0.19916876494213653 114.5 L0.5 106.5 L59.67109781857468 106.24210195307082 L118.84219563714936 105.98420390614163 L120.86011100013994 99.74210195307082 C121.96996444978475 96.30894587888187 127.42958739506851 79.1 132.99260643410383 61.5 C138.55562547313917 43.9 143.79887338848494 27.34853375987999 144.64426846820555 24.718963910844423 C147.71912381801104 15.154741085386135 154.77037284768494 9.988208921227294 164.7101619327035 10.016450419882418 C168.8469249448199 10.02820402813748 171.63360973449736 10.674956390556495 174.4704287918952 12.281678145818688 C181.4048931168017 16.20923026193323 185.78972295639838 25.26775005090318 184.38541222297386 32.76481589649519 C184.00060200791833 34.81916715342284 177.301902609594 52.025 169.49941356003092 71.0 L155.31306983355256 105.5 L182.1299266947468 105.76602353644432 C207.7077063462511 106.01975541235007 208.99584382617712 106.12371702635402 210.00857553645855 108.01602353644431 C210.75887284381278 109.41796687918321 210.75635706485102 110.58673389680604 210.0 112.0 C208.9405382024137 113.97962247692168 207.90617664403243 114.00000000000003 108.48014850438388 114.00000000000001 L8.030664525743802 114.0 L8.627371840438457 120.25 C10.563425008734708 140.52850506247523 17.998060241330105 160.713214378007 30.181711934354418 178.7690901332122 C36.509287450456746 188.14640329260226 51.00620247842401 202.52178856362963 60.61900532916904 208.9512232500612 L68.16755320337157 214.0 L127.88799592413856 214.0 L187.60843864490556 214.0 L192.55421932245278 210.8699501540211 C199.77667894361974 206.29905223138334 210.74905685675992 196.84005749233722 217.0905613765858 189.71782321829667 C233.930063982043 170.80513739753894 244.62682499421783 146.37512408114873 247.5072743508514 120.25000000000001 L248.19637379485943 114.00000000000003 L235.7206316128719 114.00000000000003 C222.27964454403005 114.00000000000003 220.5255926124009 113.37361804526802 221.17323613368654 108.80504205593932 C221.4997834764519 106.50152739006936 221.51126471038222 106.5 238.5 106.5 L255.5 106.5 L255.80083123505796 114.5 C256.3726469355896 129.70628535588068 251.3531848030222 150.38025306746442 243.0488999959627 167.0221642747101 C234.24926134033603 184.65677201820836 220.6601755510201 200.91484419422346 204.85532729412125 212.71720743461333 L196.05604381864444 219.28812403847292 L195.7780219093222 232.39406201923646 L195.5 245.5 L128.42364936526207 245.75698269859538 C91.53165651615615 245.89832318282285 61.04415651615617 245.71082318282285 60.673649365262044 245.3403160319287 Z M188.0 230.0 L188.0 222.0 L128.0 222.0 L68.0 222.0 L68.0 230.0 L68.0 238.0 L128.0 238.0 L188.0 238.0 L188.0 230.0 Z M160.81771853533462 69.08372972815968 C169.1843724274142 48.739906102587014 176.0 30.77651949171105 176.0 29.069044553475237 C176.0 26.935372474089668 174.93414222465148 24.807577482319587 172.57683940719772 22.235314825315562 C169.58318427172384 18.968671585459973 168.58183366448057 18.500000000000025 164.59607017642855 18.500000000000014 C160.8250856203224 18.500000000000004 159.49921270478714 19.0392488336745 156.91411637913865 21.624345159322914 C154.1955354357414 24.34292610272005 152.1814294712492 29.797540173777406 141.40569554373496 63.624345159322914 C134.59445392189062 85.00595532169531 128.7614309456814 103.2875 128.4434222632701 104.25 C127.92180738326782 105.82874407137352 128.73472586702005 106.0 136.75033086477757 106.0 L145.63543707066927 106.0 L160.81771853533462 69.08372972815968 Z M88.36076837078323 96.49776401306619 C87.2994065043805 93.7318993250095 88.91719986247323 90.52152393842177 92.63866524848892 88.00863604511741 L96.32825472311964 85.51727209023483 L80.41412736155982 83.77545060829769 C54.9962705863538 80.99343385362498 35.92417302329951 75.26389400516621 30.458197647391287 68.76795135354362 C27.051550941683622 64.71938177305243 27.137012732232275 59.41025641890647 30.670165596766278 55.599909740228576 C38.013312375193074 47.68065574499756 63.22768033658598 41.571431130018084 99.0 39.04417822584456 C118.55299522691435 37.662792717790694 129.3155297373449 37.71552973734492 130.79999999999998 39.20000000000002 C132.57362918334698 40.973629183347015 132.2564404132636 44.7975938116331 130.25 45.83069044028361 C129.2875 46.32627231677639 120.175 46.993413963532376 110.0 47.31322743307469 C75.60513264005488 48.39430280062569 42.55116550649704 54.811254756311804 37.014714515039344 61.4822700940249 C33.8023653351859 65.35291406467623 56.309879260382715 72.65781167481784 78.68929213653308 75.0079097307556 C84.08518146143989 75.57454072696162 90.3 76.30586841747531 92.5 76.63308237634158 L96.5 77.22801684700752 L94.17352783669851 74.71815631450929 C92.60269273967931 73.02349730450135 91.95309367874754 71.28126988713224 92.17352783669851 69.35414789100552 C92.44342465035184 66.99460392962219 93.0265652660302 66.44842965529439 95.53858310358527 66.20240958115238 C98.20703151233083 65.94106912984307 99.41400896663257 66.8361471984663 105.44714166397094 73.55046188110285 C113.9181086311062 82.97785901239047 113.81302589630896 83.55530172374814 102.09574282482674 91.96681577835074 C93.73974337255969 97.96535711290814 89.46506165831448 99.37550619122898 88.36076837078323 96.49776401306619 Z M176.66666666666669 82.33333333333334 C175.43003639245947 81.09670305912616 175.98815979698037 76.21852112057654 177.42955891951397 75.66540437935286 C178.21581632524666 75.36368910339418 183.27831632524666 74.36821219995822 188.67955891951397 73.45323348282852 C200.0977005360154 71.51898291253194 212.0674212492181 67.91314773192924 216.8585489296563 64.96441440617726 C219.93151466999328 63.07313596573357 220.08591191350715 62.75292959606424 218.67430950779573 61.19868588873487 C216.90353264455595 59.24897343029817 205.26352630160187 54.40314036506478 204.40741118615966 55.259255480506994 C204.09421270169284 55.572453964973825 204.3244185320705 56.73766448025597 204.91897969810998 57.848612181134 C207.4050464295341 62.49387036020833 205.0766518339182 66.73802249188604 200.65145690595756 65.62736926526378 C198.74424131381886 65.14868862277075 197.57470451895276 63.20793364481591 194.70862388342618 55.765701960514605 C190.1578175033507 43.94881341554339 190.42937867474845 43.41601919977855 202.59611908659312 40.290692041053404 C207.4932535889669 39.0327423403021 212.85 38.115220844394095 214.5 38.25175538348006 C217.06920598522964 38.46435256833475 217.5439061062809 38.95205814724091 217.80575707722613 41.64808097425795 C218.08736873689566 44.547560247076746 217.77149159971654 44.91642993029578 213.80575707722613 46.3191336058369 C211.43759068475177 47.15676801736345 210.175 47.882027591014165 211.0 47.93082154728293 C213.88995086294614 48.10174534852596 223.04147435823845 52.941707742813634 225.50896059639217 55.60416945518739 C227.35137451490178 57.59216697287437 228.0 59.39877547142434 228.0 62.54243053214664 C228.0 69.27959517748852 222.04302152244298 73.69418197165304 207.0 78.10507240280756 C194.82831729732425 81.6740335110652 178.3099194658985 83.97658613256517 176.66666666666669 82.33333333333334 Z M161.2 32.8 C158.51019258068857 30.11019258068855 160.60446640558735 26.0 164.664816241512 26.0 C167.62810554397242 26.0 169.45356090285597 29.283996609010423 168.0 32.0 C166.8131703142547 34.217611552896 163.05924931724957 34.65924931724955 161.2 32.8 Z" fill="currentColor"/></svg>
