<svg xmlns="http://www.w3.org/2000/svg" xmlns:xlink="http://www.w3.org/1999/xlink" width="256" height="256" xml:space="preserve" version="1.1" viewBox="0 0 256 256">
  <path d="M80.09458885565994 250.47809243932767 C57.24329491564071 239.52690439149083 37.36932951128116 219.23161077219098 26.53580049641857 195.78385736703046 C22.489327133400877 187.0257962175729 18.2500267225506 172.97868458918114 17.354896081598753 165.36251972497786 C16.732556788639542 160.0673835294289 16.68238746959282 160.0 13.362318588895192 160.0 C7.7646297147028775 160.0 6.000000000000015 157.28078243017532 6.000000000000007 148.65498756211207 C5.999999999999997 138.32646433444745 6.886770499491757 137.64963057333824 21.270070342068397 137.0 C33.61325690292766 136.44251239631285 36.930226615034776 134.64604923710917 27.285950478490832 133.74181316886288 C18.274339953822455 132.89689508957682 10.199967345578177 129.4060194982854 4.749999999999986 123.99861660500967 C0.2982742688112552 119.58165902113885 -2.6636980041199695e-14 118.95965234207904 0.0 114.09319721597284 C5.223617633024029e-14 104.5498853361237 4.836901167703809 99.42369179339897 18.35746158096282 94.63778604373611 C20.029399260818835 94.04596618490437 19.86611286854959 93.59420453838709 16.72264149295946 90.11475748972092 C11.560362590240665 84.40073183262882 8.199404368518119 78.1294433688388 6.407204404315337 70.86694857771064 C2.905159536160858 56.67568470019876 10.351318821037692 47.54271841344971 23.908559116753214 49.40094490441217 C29.740071258289206 50.200242556987966 38.155726809441944 54.12227689399598 44.79462119622848 59.134690795350224 C47.74173808862178 61.3597856409241 50.26592200523177 63.02724628515961 50.40391878869513 62.84015889365136 C50.54191557215849 62.65307150214311 51.263566207944315 60.925 52.00758686821918 59.0 C58.85326699278954 41.28821463784418 74.74542758044053 38.06810597729879 83.91939476430045 52.533951006027394 C86.63827342153556 56.82117773348693 89.19223578062382 64.85608074904853 90.50481869535614 73.25204906808351 L91.09139493229097 77.00409813616702 L93.99603753926124 75.50204906808352 C95.59359097309488 74.6759220806376 98.75305197167177 74.00000000000003 101.01706198054319 74.00000000000001 C103.8446166294375 74.0 106.13902322601471 73.23300719177512 108.34516131111144 71.55030364152185 C116.74781972781878 65.14128362374767 129.29170047884193 63.0747124282949 138.99999999999991 66.50000000000001 C141.33829917555448 67.32500000000002 143.41428658979015 68.00000000000003 143.61330536496808 68.00000000000004 C143.812324140146 68.00000000000006 142.483485630171 65.63750000000005 140.66033089835702 62.75000000000003 C138.837176166543 59.86250000000001 136.53984413122177 55.475 135.55514859764315 53.0 C133.26832648634937 47.25214745832888 132.39766894140132 33.03580904245067 133.9026871984939 26.018150929958367 C136.4016810445056 14.365744486457237 144.81710953858655 1.9999999999999576 150.24808653392972 2.0000000000000284 C153.45656313259295 2.00000000000007 215.00000000000009 63.58390844536929 215.0 66.79449497024731 C214.99999999999991 70.45580047334938 213.3265349761369 72.72696411962912 207.97158029846656 76.33320124094729 C202.77774880085857 79.83093167490384 202.53610020532125 81.00000000000003 207.00694432161924 81.00000000000003 C211.1325358755502 81.00000000000003 221.62570603523324 86.72362881212295 225.01158646113555 90.82085365370756 C226.68379937201357 92.8443841441684 229.02049513062016 96.63749999999999 230.20424370248355 99.24999999999999 L232.35651383314425 103.99999999999997 L237.48712728146705 104.00000000000001 C245.88027129940147 104.00000000000009 246.51521332885488 104.97272402405268 246.4120608506657 117.67289751366155 C246.35220848401323 125.04194432275406 245.80744575611442 129.8574025596266 244.70641975167817 132.75 L243.08871780202492 137.00000000000003 L247.321852657607 137.0 C249.6500768281771 137.0 252.55511532272152 137.7005167858921 253.7774937565945 138.55670396864906 C255.77018953611417 139.95244242269965 255.99999999999997 140.97043140789398 255.99999999999997 148.401716406537 C255.99999999999997 157.8152500629316 254.71368115529538 160.0 249.17125932841594 160.0 C247.42706669778715 160.0 246.0 160.1752894728003 246.0 160.38953216177845 C246.0 163.00101981151346 242.33282836319603 178.76824011108758 240.3336870785632 184.75217808267706 C231.34239979879075 211.66538615880444 211.27358387116257 235.22774527915374 185.5 249.1312142698238 C177.90860393439735 253.22636612459146 177.00165368476698 253.46686883999607 167.74294631977995 253.8399837193266 C157.14336130235955 254.2671343710131 155.0 253.5224726046453 155.0 249.4127390430458 C155.0 246.07390155750815 157.78876157459285 245.0 166.4592226782002 245.0 C173.12051100064468 245.0 174.88740133994423 244.57825532233872 180.8897103498666 241.55554097715273 C200.61531603372765 231.62188525074413 217.4578964379887 213.9672801912935 227.56599831057545 192.62886764038615 C231.6716536778124 183.96174406740917 237.0 166.59006591198025 237.0 161.8717750722792 C237.0 160.05452079927585 233.9142782937708 160.0 131.06287056638604 160.0 L25.125741132772063 159.99999999999997 L25.701917768628324 163.75 C26.857211530119493 171.269137944831 31.161961658795512 184.6978262461378 35.01913334695703 192.81509787966198 C45.00008048923438 213.81962286940356 63.11458205303177 232.44093369129706 83.71016193270356 242.86840872233773 C87.69888689638678 244.8878871836142 89.34596436776695 245.0 115.02590338679289 245.0 C131.79812012645115 245.0 142.86887335034876 245.39463938831372 144.06574145408933 246.035183758488 C145.16330114070814 246.62257987673755 146.0 248.1213494197534 146.0 249.5 C146.0 250.87865058024659 145.1633011407081 252.37742012326245 144.06574145408933 252.96481624151198 C142.8676837007116 253.6059972928504 131.72406344101321 254.0 114.78752966957715 254.0 L87.44357643097564 254.0 L80.09458885565994 250.47809243932767 Z M248.0 149.0 L248.0 146.0 L163.5714285714286 146.0 C88.15151515151587 146.0 78.97518330513256 145.8323261622754 77.57142857142858 144.42857142857144 C74.18756597114479 141.04470882828778 77.03701148543217 137.0 82.80476190476196 137.0 L86.46666666666671 137.0 L82.93283186729154 133.46616520062486 L79.39899706791637 129.93233040124971 L69.44949853395818 131.4779356999247 C63.977274340281184 132.32801861419594 58.494353335084604 133.25009760899937 57.26522963352134 133.52700013282117 C54.387297827463684 134.1753535731388 50.77848772923983 130.76831494787402 51.69973968722343 128.27268120235368 C52.686981265174964 125.59828428458839 53.714032290517196 125.20556923885763 63.251212694997534 123.85572708949073 L72.0472911523905 122.61077659601476 L67.0038608473696 117.50390940957865 L61.9604305423487 112.39704222314253 L49.50969229538694 114.34542958427755 C36.42232181883492 116.39344205721086 33.97846859990851 116.04362751709046 34.01531277451706 112.12755528455781 C34.04614941718915 108.85000811745 35.858561423010535 107.87120503369844 44.48124156677672 106.47537280988625 C49.32206550939908 105.6917442934326 53.42747512347308 104.90585820986026 53.60437404249673 104.72895929083661 C53.78127296152037 104.55206037181297 44.94265654155919 95.432396200129 33.96300422036077 84.46303890931671 C12.958644180711389 63.47837353016505 11.140915322978293 62.453055436444686 17.03655342356118 74.91541238042414 C19.115747383678183 79.3104679867346 22.264722491399016 83.48521420286184 27.035764528531494 88.1718425828674 C36.578792375300964 97.54602641729316 36.351373156260976 99.76041310477746 25.631899466946496 101.8413121928723 C18.669054388988943 103.19296231984731 12.447682959369688 106.4580612053888 9.66490436717919 110.2211073064534 C7.991146553552994 112.48446660940628 7.843358692744386 113.36079396872778 8.786371583254203 115.43048181395355 C11.560676860945954 121.51941863546409 23.81381333719472 126.0 37.691046732532506 126.0 C45.72708086103171 126.0 45.98010445968051 126.07254850677592 46.60325121546152 128.5553629415238 C47.066704618331144 130.40190837853817 46.655912934452765 131.73736145444337 45.12230324367645 133.36981416289137 C43.9550364596544 134.61231271680546 43.0 135.93739939311976 43.0 136.3144512213676 C43.0 136.69150304961542 47.86000000000004 137.0 53.8000000000001 137.0 C65.1470590981618 137.0 67.0 137.63168439835394 67.0 141.5 C67.0 145.80863284966452 65.84329189130563 146.0 39.800000000000104 146.0 L15.0 146.0 L15.0 149.0 L15.0 152.0 L131.5 152.0 L248.0 152.0 L248.0 149.0 Z M99.07847237522341 132.34377122584596 C97.37259684333615 126.2003423947011 97.78355079193685 123.46685309225482 101.41767144877875 116.78442287154002 C107.66481912926079 105.29715197569708 109.62771922605995 93.83144319631897 106.59128914336523 86.56424308822045 C104.14372006085085 80.70638573052955 99.3430314193641 81.01971291905593 91.36379403823688 87.55809805068509 C84.07582835651947 93.53003799645886 82.0049865939603 91.98213015749631 81.98813112461347 80.5500000000001 C81.97635610104096 72.56365448100634 80.45644323211825 64.67053161048177 78.02210653938393 59.9538724200515 C75.89599503268522 55.8344162216215 71.74739020561447 51.999999999999986 69.4165009899226 51.999999999999986 C64.87667976971457 51.999999999999986 59.6673953737037 60.710039904219556 57.45493834888982 72.0 C55.87085142534457 80.08344657296925 53.67349881085657 79.86421785336324 44.04136825110126 70.66173513595638 C36.17393671233873 63.145235819767365 26.82167298116589 57.57899517986901 23.053644817596734 58.17035096710238 C21.354973388023467 58.4369411136937 24.77131997924358 62.311886979812336 40.9130682201678 78.42716538485138 C58.87358563163424 96.3582304754664 60.92287197578134 98.11120208354524 61.37119250312605 95.92716538485138 C61.64521786005668 94.59222442318311 62.46130082923403 90.125 63.18471021240905 86.0 C64.48615461958833 78.57894864999878 64.53428345230084 78.49669603849044 67.75687509869164 78.18612875176414 C70.07976368976436 77.96226755982414 71.19800331259302 78.35241342504297 71.6562534647087 79.54659417918035 C72.00963026173768 80.46747935078898 71.48573210267557 86.83255990498711 70.49203533345957 93.69121763295395 L68.68531393488502 106.1615044110755 L73.68597988261362 111.16217035880409 L78.68664583034221 116.16283630653268 L80.00064088552155 106.99552875434449 C81.6190789380892 95.70422341527892 84.27561953303012 92.41847667588708 88.42857142857147 96.57142857142861 C90.32806913640634 98.47092627926357 90.36869615810781 97.00587225147201 88.0145912040232 111.5 L86.06557709712848 123.5 L92.727820796605 130.2216344186259 C96.39205483131708 133.91853334887017 99.56010293283249 136.77323040050084 99.76792768886148 136.56540564447187 C99.97575244489045 136.3575808884429 99.66549755375331 134.45784540006122 99.07847237522341 132.34377122584596 Z M119.36247761328127 131.75 C122.99504214869982 121.33960725438622 132.7104398484289 109.73529013413231 141.57337425931908 105.2207424058416 C152.57541957310653 99.61658735118154 168.05707568264012 98.31359549600523 179.16811494330423 102.05663382713908 C185.88607167568864 104.31974972172827 194.20388068448435 109.31814293220197 197.8457110173454 113.28049930730768 L200.1914220346908 115.83266186135845 L206.15885255790664 111.97572535998668 C209.44093934567536 109.85441028423222 214.46036938786995 107.35639237240362 217.31314154056125 106.42457444481204 C220.16591369325255 105.49275651722046 222.64568133692842 104.60784768710332 222.82373630428538 104.45811037788506 C223.67767976073048 103.73997711100303 219.70096393511517 97.96256356976627 216.1355164408294 94.74139595816153 C207.77406733345944 87.1873290159594 195.85549025809655 87.10144791002548 186.9626720404617 94.53118662490809 C184.67912743981637 96.43903398120864 182.13490138873698 98.0 181.30883637139647 98.0 C180.48277135405596 98.0 177.85197675335118 96.27920775892309 175.46262614760815 94.17601724205133 C171.04728356326927 90.28947726344754 165.50057100988332 88.0 160.50000000000009 88.0 C152.67205967644213 88.0 143.69787212063628 93.75157183712297 139.8950287946396 101.20576056077748 C137.90192583025086 105.1125651195309 137.77100313873277 105.1830794097982 133.67952001000606 104.5534017184452 C124.27939556391124 103.10672615522715 119.09258651319287 102.88008168490815 117.30305401587141 103.83781041276106 C116.2631542921648 104.39434785534499 114.6376125560343 107.30831415240579 113.68990668248632 110.31478317930589 C112.74237940392807 113.3206856376957 110.69085241682491 118.19204679169317 109.13095782225707 121.14003018818914 C106.34053562121548 126.41353927433568 106.31867041818144 126.58468682206707 107.77546575009279 131.75 C109.2557949611869 136.99875650975025 109.257125587642 137.0 113.39335369955128 137.0 C117.48498041917215 137.0 117.55074469708183 136.94215860417444 119.36247761328127 131.75 Z M135.83153916839973 134.5296138649729 C134.38321340304347 131.35088506640403 136.14538764557852 129.0 139.97642198860703 129.0 C142.9975094197444 129.0 148.0 133.02280943813986 148.0 135.45225110053758 C148.0 136.78671432408495 150.27376265867198 137.0 164.5 137.0 C180.12622183166422 137.0 181.0 136.89793106745503 181.0 135.07258014903283 C181.0 132.19655640707012 185.81960503608192 128.84649002951386 189.4467507048493 129.2013157354411 C192.25528799249656 129.47606103566258 192.5 129.80060778634171 192.5 133.2506558060978 L192.5 137.0013116121956 L197.25 137.0006558060978 C199.8625 137.000295112744 202.0 136.7471335614297 202.0 136.4380745809549 C202.0 136.1290156004801 200.84939441611112 133.443968687915 199.44309870246917 130.4713036641436 C194.6888199595604 120.42158368334084 184.63588372182926 112.2943665300637 173.25027622005956 109.29592254784725 C154.86272749556562 104.45349013375778 133.03217359783517 116.61152147518737 127.54578721757554 134.75 C126.90273710572667 136.87598053358337 127.14335616448125 137.0 131.91117353829313 137.0 C136.91447572696072 137.0 136.94760936041783 136.9791211135852 135.83153916839973 134.5296138649729 Z M235.32659311451272 132.75 C237.09207791421218 128.05546925856328 239.25889235438694 118.92555902105362 238.73249723401182 118.39916390067847 C238.54800053824732 118.21466720491397 234.15410043499313 122.32437940626676 228.96827478233584 127.53185768146241 L219.53950086841348 137.0 L226.63389252725926 137.0 L233.72828418610504 137.0 L235.32659311451272 132.75 Z M231.5358128794398 112.20247954610647 C230.6044397178035 111.27110638447019 220.52595627754027 114.21725944305746 215.2367769259936 116.96703116846993 C205.27036632929165 122.14843120071659 205.38162622306766 121.96940967978169 208.08070698025517 128.48142761560138 L210.39706490383176 134.0700578571902 L221.16534143769087 123.3351712477034 C227.08789353131337 117.43098361248566 231.75460568010038 112.42127234676704 231.5358128794398 112.20247954610647 Z M147.74235675648703 127.14099078064868 C144.86333674737133 122.26719836909491 145.9767321758515 118.0 150.1274198509671 118.0 C152.83249108470795 118.0 156.14269152809402 122.93019473071183 155.7986842645589 126.44675070484928 C155.54613960650823 129.028345688857 155.035390737849 129.54561416699033 152.49235675648703 129.79528283728519 C150.0639574710372 130.03369696190438 149.14915189802446 129.52250513752236 147.74235675648703 127.14099078064868 Z M172.4665960925588 127.89475360721303 C171.56511646668358 125.0544428153886 174.88546466593317 119.06761105945564 177.76298598545253 118.34497349386685 C182.72183872390622 117.09964709203571 184.51796573399884 122.05947270527261 180.93190578936182 127.09562950060018 C178.35091066051453 130.72030291864797 173.50847648990174 131.17742805866308 172.4665960925588 127.89475360721303 Z M161.2 125.8 C160.54 125.14 160.0 122.6808326913196 160.0 120.335183758488 C160.0 116.21614459754656 161.70109262612897 114.0 164.8628299744821 114.0 C168.3023508008637 114.0 170.22203209091967 120.84809505954117 167.96481624151198 125.06574145408933 C166.80768561582903 127.22785980564788 163.0371200022112 127.63712000221118 161.2 125.8 Z M140.83843822671687 86.11504212980276 C147.21963564885704 81.5712287807846 152.16587399203266 80.04392400098183 160.5 80.04392400098183 C168.65736916914315 80.04392400098183 175.13288209357265 82.00030639346228 179.22085321219714 85.69986941009094 C180.83530142054246 87.1609249583176 181.34325040889692 87.09582917238696 185.48883582717656 84.89660123971129 C187.96997612222944 83.58035938453034 190.0 81.8196220590803 190.0 80.98385162760009 C190.0 77.96787802274638 184.81976296182046 71.93726241747774 179.7135476030409 69.0087933646765 C169.98653786081059 63.43024937368709 159.15646316452737 65.47110850647867 151.335220117743 74.35650983440655 C149.0871701865633 76.91042942548295 146.5630219726683 79.0 145.72600186464302 79.0 C144.88898175661774 79.0 142.24571402015363 77.88652524299773 139.85207356138943 76.52561165110609 C131.71188089217992 71.89747345115958 121.95174101758309 72.27386267785492 115.43882283628074 77.46708223243036 C113.04473139153913 79.37606406824821 112.76990205498944 80.0178226501569 113.80986149423038 81.27089711617853 C114.49792554139734 82.09996357392592 115.53679130214228 85.48004284749672 116.11845207366358 88.78218439078032 L117.1760171127932 94.7860781058414 L120.8380085563966 94.32543524765522 C122.85210385037847 94.07208167565283 126.3 94.25406481533689 128.5 94.7298422247309 C132.34612265039647 95.56161416601151 132.60236989713965 95.45386217728407 135.16107773245182 91.92885848007792 C136.62467048530033 89.91254001112475 139.17948270771961 87.29632265350092 140.83843822671687 86.11504212980276 Z M203.4867246846842 68.66652976727408 C205.42449004338167 67.21725421409192 205.42772776086736 67.1301151988966 203.61810829998547 65.13050820246612 L201.7627672306025 63.080379397322204 L197.63138361530125 65.1631093915934 C195.35912262688555 66.30861088844254 193.35154372675032 67.37648179729473 193.17009717055626 67.53615585570935 C192.9886506143622 67.69582991412399 193.5954626559977 68.97915747081824 194.5185683741907 70.38799487058549 C196.0839077960017 72.77700479362476 196.37551674222283 72.8553284782322 198.84847120363446 71.55096997127748 C200.3068120416355 70.78176887689084 202.39402610810788 69.4837707850893 203.4867246846842 68.66652976727408 Z M154.401438642495 60.63551237115679 C156.7533636021401 59.41531903499509 156.86295195879083 59.13114965886787 155.43773712760014 57.948326405475285 C152.8854837422824 55.83014422926136 148.84667173067524 47.058455100596916 149.49014404820923 45.03105335432058 C150.19062678346967 42.82402768747292 152.60492805457648 41.73983369442544 155.07402070282632 42.523493258443054 C156.0597669707613 42.83635697018326 157.83143105013795 45.08605866836542 159.01105199032995 47.52283036551452 C161.70702356753924 53.09196449312057 166.26144023155035 57.0 170.0557262864001 57.0 C171.65197793378232 57.0 175.83762030794017 57.945311945349864 179.3571537845287 59.10069321188858 L185.75630556014417 61.201386423777166 L190.53861163857914 59.08594506117325 L195.32091771701408 56.970503698569324 L193.0697052067714 54.57419779248352 C190.94887173497366 52.316674013111154 190.62290624589698 52.25961312341222 187.44136497916085 53.58894594319886 C179.0536652467617 57.09355066210367 168.69116890549483 53.04071485508159 164.26212883493395 44.52340467486214 C162.41154928559237 40.96462900704189 162.2287985087116 32.3095202595318 163.93684704801802 29.118002370177322 C164.9577500996728 27.21042756906774 164.87327553165153 26.517452381827813 163.42471662876306 24.916812811149327 C160.9073528415501 22.135157136967617 160.23171155852813 22.471026372708614 157.72542052296365 27.75 C155.77781780590576 31.852214481038466 155.0631691286318 32.5 152.48513478379945 32.5 C149.86405877714674 32.5 149.46251144773254 32.11339702419312 149.1926090280121 29.330011901796887 C149.0032991269874 27.37774203115156 149.8931324948857 24.171000394397733 151.5090407950546 20.982158849692016 C154.00324298453768 16.060087738423952 154.04782298766116 15.710325149716764 152.41144420493038 13.902146947895133 C151.4646635738954 12.855966126552813 150.38128728548844 12.000000000000005 150.00394134180388 12.000000000000004 C148.65159606054866 11.999999999999996 144.00201519122442 21.83060003264945 142.40384444042996 28.068870495340807 C139.88418009886772 37.90408217722829 142.11650147132693 49.67364061951599 148.1947915882103 58.600715834847335 C150.82527032351348 62.46405257442719 150.85692247460494 62.47442946340515 154.401438642495 60.63551237115679 Z M100.12280326489747 59.997923367464125 C94.78317959447843 58.737242136546215 91.54109863773846 55.790414414107 91.21424429823364 51.90065840701513 C90.95043431662427 48.761166784384415 91.8092600020429 47.62321269446785 102.39703231686863 37.083333333333336 C112.21006708644566 27.314687053215174 114.32565429755425 25.66666666666667 117.0527697037549 25.666666666666668 C120.71561115667694 25.666666666666664 123.40268223036664 28.489881466440185 124.98424517958851 34.0 C127.34159265217488 42.21292886579648 125.04722003218355 50.11732098616618 118.68431438758297 55.70402613651788 C113.32503117000495 60.40953912479294 107.53720152857831 61.74845735759439 100.12280326489747 59.997923367464125 Z M227.46270455775485 54.950801443309444 C224.60280435585537 53.85692189077001 203.0 31.589360746966246 203.0 29.735335871823708 C203.0 25.316867164048297 207.98414966553102 21.665795522705864 215.7002458880366 20.431941970841006 C225.4810200015258 18.867933107820665 235.7625446849838 26.002708683505897 237.8667291003452 35.81418224075635 C240.19476478246722 46.66943825763599 234.27568265989504 57.556688681220805 227.46270455775485 54.950801443309444 Z M110.98895563318233 50.505711264045445 C115.17684593974354 48.3400690204486 117.0 45.16960901569993 117.0 40.05252128563821 L117.0 35.55005505808727 L109.5 43.0 C105.375 47.097469718052004 102.0 50.79870732998237 102.0 51.22497247095637 C102.0 52.55134131647553 107.95450876322937 52.07488472525685 110.98895563318233 50.505711264045445 Z M177.97838223257068 39.47818835512964 C174.42326960777595 35.89119195045094 171.3532191339835 33.440342598049575 171.1560478463652 34.03185646090438 C170.95887655874694 34.62337032375918 171.08483765139266 36.6386865502577 171.43596138557794 38.51033696423441 C172.25432895276188 42.87261113364948 176.18775440823865 46.0 180.85597037608184 46.0 L184.44222336856112 46.0 L177.97838223257068 39.47818835512964 Z M230.0 40.845275062261564 C230.0 36.96151474656749 227.49186798338803 32.72176861898384 223.9601666366707 30.635541306692808 C221.19920005534567 29.00459822153163 214.0 28.34753238556372 214.0 29.72648402710739 C214.0 31.055045771546112 228.3371795304713 44.90964557860791 229.17571966318755 44.391399275658415 C229.6290738484344 44.11121098023384 230.0 42.515455084205264 230.0 40.845275062261564 Z" fill="currentColor"/></svg>
