<svg xmlns="http://www.w3.org/2000/svg" xmlns:xlink="http://www.w3.org/1999/xlink" width="256" height="256" xml:space="preserve" version="1.1" viewBox="0 0 256 256">
  <path d="M48.95056132968625 223.63801964254426 C40.039871562579435 221.23478774015126 32.692438370236445 214.88327705086633 28.60565633343737 206.0508054177417 C26.551141456196177 201.61052839546178 26.487856172115066 199.92937637937757 26.0 136.83243242969607 C25.725 101.2652702660289 25.275 71.95690551672716 25.0 71.7027329868033 C24.725 71.44856045687943 22.077745666963175 70.02360540860627 19.117212593251498 68.53616621286295 C12.110794180228464 65.01598214133611 4.698110122622486 58.01659589390902 2.0817456146329896 52.4505199932195 C-0.1674803099146014 47.66549780858104 -0.7076649144565874 39.19080107976582 1.0296443665523576 35.94460899442073 C3.6404118919436317 31.066345250454987 4.414890524613853 31.0 58.75034007311429 31.0 C96.96674223842979 31.0 109.89813197050965 31.298131970511896 110.79999999999849 32.19999999999847 C112.63712000221173 34.0371200022071 112.22785980564898 37.80768561582843 110.0657414540893 38.964816241512025 C108.80698843240448 39.638480414665445 90.81056537172886 40.00000000000004 58.53435665775038 40.000000000000014 C3.5766938804601196 39.999999999999964 6.716351499985179 39.58047707982786 9.037554789945524 46.61379213122707 C10.667473385434478 51.55249398461096 17.24773982265816 57.94401695150795 24.0 61.14706568684164 C27.025 62.58202556248417 30.326977443078874 64.67752020877936 31.337727651286386 65.8037204563865 C33.314260540783394 68.00601713807879 34.91132139155129 77.43232775114959 34.967281352552256 87.22638607272945 L35.0 92.95277214545891 L52.12926549706899 93.22638607272945 C68.11728883675974 93.48177039472588 69.34897528365343 93.63634055449813 70.6160380208351 95.54637862430636 C71.77326795700776 97.29084886145341 71.74583132295142 97.9178641313485 70.43006855511703 99.79637862430636 C68.94232015857683 101.92043699797162 68.274844731069 102.0 51.94329603135093 102.0 L35.0 102.0 L35.0 109.5 L35.0 117.0 L52.464816241512 117.0 C68.90617664403203 116.99999999999999 69.992357098615 117.1172020163097 71.0 119.0 C71.76049002263466 120.42098860545245 71.76049002263466 121.57901139454755 71.0 123.0 C69.99235709861502 124.88279798369027 68.90617664403197 124.99999999999999 52.464816241512004 125.0 L35.0 125.0 L35.0 132.5 L35.0 140.0 L51.75 140.01531277451704 C60.962500000000006 140.02373480050144 68.98282368180853 140.36123480050145 69.57294151513007 140.76531277451704 C71.5270376639777 142.1033628524374 71.86965299694982 144.74108392838593 70.36785738605815 146.88519750986683 C68.95889487769092 148.896773271627 68.05956399491211 149.00000000000003 51.94329603135094 149.0 L35.0 149.0 L35.0 156.5 L35.0 164.0 L52.464816241512 164.0 C68.90617664403199 164.0 69.992357098615 164.11720201630973 71.0 166.0 C71.76049002263466 167.42098860545244 71.76049002263466 168.57901139454756 71.0 170.0 C69.99225591202202 171.88298705256875 68.906176644032 172.0 52.43659668724815 172.0 L34.94356089147229 172.0 L35.221780445736144 185.75 L35.5 199.5 L118.0 199.5 L200.5 199.5 L200.75686391495333 129.52952242002257 C201.0371734726914 53.17238354854511 201.0029099044814 52.64365277444881 195.38504193640034 46.63542406982327 C189.54599467136632 40.390647299566496 187.48129074762102 40.047585507527245 155.5 40.008307317198756 C139.55 39.98871814111818 125.4825776672795 39.700063908192256 124.23906148284334 39.366853466252266 C121.51973173875295 38.63818658024808 120.25428894389844 34.603453141450636 122.06194910927262 32.42535588976533 C123.18364336608437 31.0737969934685 127.42987874954264 30.916351245016475 155.42361641402147 31.188341875218242 C186.4578891636246 31.489874721749448 187.66244207106175 31.57484077715262 192.5 33.80361434890155 C202.02860042391387 38.19365848119702 207.07224595458695 45.49697856345305 209.11417731642246 57.86134285247418 L210.2727539543772 64.87679100913735 L228.06657527911483 65.18839550456867 C247.7916497808335 65.53382000756221 248.90581907432437 65.87225305593111 253.75000000000003 72.98983086239343 L256.00000000000006 76.29576643958427 L256.0 124.50000000000067 L256.0 172.70423356041707 L253.7262033732908 176.07832015350124 C249.99710556292126 181.61192803138658 245.55773990294708 184.0 238.99999999999994 184.0 C232.43080427601888 184.0 228.00255328774946 181.6114217999307 224.25096299383915 176.04443732790787 C222.04725215598447 172.77435103008386 221.96537131710917 171.945903800229 222.22716636713025 155.56823395461538 L222.5 138.5 L226.0 138.5 L229.5 138.5 L230.0 154.0 C230.3032758001303 163.40154980403972 230.9767741440039 170.3312973419369 231.71178315712996 171.6128497218125 C233.63499780500882 174.96614235494374 238.3627411880717 176.5066019297617 242.04715825245626 174.98046641225477 C247.98126223783018 172.52248006098066 248.0 172.36388710157183 248.00000000000003 124.59671294801007 C248.00000000000006 92.9987081020981 247.6730712554555 80.37657560799333 246.80531473554376 78.47205750442234 C244.67385170301247 73.79400572445876 241.51706571465922 73.00000000000003 225.04965992688423 73.00000000000001 L210.0 73.0 L210.0 81.88715338140024 L210.0 90.77430676280048 L217.11715110946983 91.17646179959496 C223.65583866275955 91.54593071955115 224.47076434792723 91.84326390973422 227.14362413851666 94.83471342458513 L230.05294605809365 98.09081001278082 L229.77647302904683 112.68796260200575 C229.53728497562756 125.31655254192923 229.26399612080368 127.43377437858132 227.75 128.3874427408859 C226.47565150701212 129.19015671327568 225.52434849298788 129.19037139348228 224.25 128.38823258461807 C222.77625834298357 127.46058572519344 222.46117469001675 125.48811928747776 222.25405523780063 115.89334743934751 C221.9027442665635 99.6189290749704 222.06411186249164 99.99999999999997 215.52388744203057 100.0 L210.08587894049046 100.00000000000003 L209.79293947024524 150.75 L209.5 201.5 L207.1083664534334 206.35830021323335 C202.59780412462706 215.52093549876915 195.51379023963378 220.7234102637484 183.78148140651086 223.4894821635213 C175.37711955642632 225.4709394776529 56.233320163188964 225.60219512430285 48.95056132968625 223.63801964254426 Z M188.67923068618654 212.7690156522982 C191.52780756358916 211.26697426106222 194.1418652110579 209.57947426106222 194.48824768056153 209.0190156522982 C194.91387562560504 208.33033517065593 169.93596847990145 208.0 117.43657227893277 208.0 C32.54717006998146 208.0 35.82546003724299 207.7438052039069 47.332208887710564 213.47857976677182 L52.5 216.0541219465903 L118.0 215.77706097329514 L183.5 215.5 L188.67923068618654 212.7690156522982 Z" fill="currentColor"/></svg>
