<svg xmlns="http://www.w3.org/2000/svg" xmlns:xlink="http://www.w3.org/1999/xlink" width="256" height="256" xml:space="preserve" version="1.1" viewBox="0 0 256 256">
  <path d="M202.5 235.19954376705442 C184.68326045368173 226.59390797499535 178.54220602380104 204.37898018621263 189.43134102983782 187.92438627850223 L192.0 184.04288051904706 L192.0 160.2754085134918 L192.0 136.50793650793653 L176.48259561175084 152.0253408961857 L160.96519122350168 167.54274528443486 L160.7074143774614 178.02137264221744 C160.4763398856914 187.41454944743134 160.12061696283902 189.20009620584682 157.2733676193015 195.25852735834516 C149.69677852781257 211.38013732051502 134.6674220304432 220.97835141821372 117.0 220.97835141821366 C104.26203554197521 220.97835141821358 93.56198481606435 216.45952045336333 85.09081512173051 207.50250757554056 C76.22961396436904 198.13309393570367 72.54031882190695 187.98369000575246 73.21628148173876 174.835173101552 C73.7414488202123 164.61985791066363 76.5999047036851 156.79245466772556 82.40646258355375 149.6693995888473 C91.70503560854526 138.26259900538622 101.0696938265128 133.77394730264305 116.46125206474302 133.34631707655498 L126.42250412948604 133.06955936257734 L141.9572838107748 117.53477968128868 L157.49206349206355 102.00000000000003 L132.3852760304734 102.00000000000001 L107.2784885688832 102.0 L103.10934459970593 108.44666265205231 C90.16133810412808 128.46790214646208 65.81145408425905 138.05103782608802 42.09306836571638 132.4602166114359 C23.562960415314475 128.09235946178558 7.316599288569675 112.28301988463255 1.612435364582069 93.06849877257066 C-0.9755103638005869 84.3509832001716 -0.565001464997847 69.5357440348923 2.519059725564034 60.348485198709824 C8.644883529604012 42.099972800578776 23.290150337508432 28.285078863640457 41.55229976229303 23.528393206160757 C49.01792704716714 21.58384432508245 62.90915083702198 21.564850526801454 70.29680567144648 23.489090164529244 C83.47070069067581 26.920453912215837 96.51438893360367 36.55140879139017 103.65429362017349 48.11896902497942 L107.284272610772 54.0 L149.5052259684978 53.999999999999986 L191.7261793262236 53.99999999999997 L192.2327822561266 47.68879501990949 C193.22700356060716 35.302892614347975 200.08482046256 25.478928482358718 211.2275799670303 20.47835559374569 C216.4511624767509 18.134151263654683 218.20057693779592 17.84704703435351 225.34501037008948 18.161480967499543 C235.1956236034646 18.59501668341371 240.88561711540143 21.055888887894394 247.46266336880907 27.727171574828716 C253.22294393512965 33.56998589198032 256.0 40.76922952083434 256.0 49.85937377520182 C256.0 60.06887571595118 253.75799894194523 65.39679920289234 246.32861469719086 72.84259259259265 L240.0 79.1851851851853 L240.0 112.05740883410465 C240.0 142.34828181813472 239.86257809292727 145.00164293962897 238.25 145.8466500222434 C237.25333351332452 146.3689132502626 235.53142834001133 146.3979307801188 234.25 145.9140579847861 L232.0 145.0644484081094 L232.0 113.0322242040547 C232.0 93.20245232135285 231.63377764063165 81.0 231.0386426912484 81.0 C230.50989617143506 81.0 228.31814794311018 82.77680632328763 226.1680910727487 84.94845849619473 C221.81182174397182 89.3484824602196 218.62036869455423 90.52656479797967 213.6055030873672 89.58577033909825 C206.57923595672665 88.26763467985866 202.59015205001634 80.80191100948036 205.00403116907341 73.48778543773332 C206.5302712881162 68.86323245362289 211.04847152480508 66.00872345447628 216.8499999999997 66.00373806043736 C220.49066282038387 66.0006095506317 221.77073106405805 66.57073106405853 224.70000000000005 69.50000000000001 C229.2600268893566 74.06002688935581 231.72093660739156 74.29481781539977 229.47713163138968 69.95577745146358 C226.3741344480998 63.95524256920916 217.1112545686943 60.645845146433196 210.87692724587163 63.31038538571974 C206.1678715956463 65.3230272666058 202.0031177816638 70.07257500419887 200.94372500236338 74.6383582623675 C200.4509185487991 76.76226121806538 200.0369777831729 103.22581223665736 200.0238566343051 133.44624941479412 L200.0 188.39249882958828 L197.3472401857518 192.22043248347688 C186.7700808577555 207.48327834562792 195.98421019977403 227.66589184529437 214.48126797053646 229.75077828575314 C223.50569733117206 230.76796224225282 233.36483176337632 224.70649479609924 237.64869020839615 215.50727885162638 C241.38630737071148 207.4810688740584 240.31725858995287 199.0379319738831 234.61713990589166 191.5646911189598 C232.0641062475664 188.21749143823365 232.0 187.76738713931672 232.0 173.1891666228699 C232.0 156.8679053667919 232.55528258488755 155.1695989277315 237.48701401454736 156.40738472346573 L240.0 157.0381040564297 L240.0 170.8966073127727 C240.0 181.410612538571 240.33061230709768 185.02949441366644 241.36994900061404 185.89206725692566 C242.12342095095175 186.51739343522112 243.96784238440495 189.76524822371067 245.4686632971767 193.10952234245798 C247.87077554385093 198.4621408651053 248.1544645087587 200.1662323012721 247.83851903250041 207.34501037009016 C247.41606668256838 216.94379209891457 244.99225709687448 222.7724487854785 238.88235294117646 228.88235294117652 C232.6357698829906 235.1289359993623 226.9677156146886 237.43716931527462 217.0 237.7936254340749 C209.3279118767378 238.06798747059628 207.91559161642036 237.81532029161343 202.5 235.19954376705442 Z M209.45042345477748 221.59340384095813 C198.01055807574477 216.61050985943402 196.23808021386787 199.13191113489606 206.49135522972153 192.41370731740523 C215.17170525069486 186.72612353974506 227.74327613289879 190.35465162586436 231.6359743770761 199.6711899061646 C237.2965161653074 213.21877334296954 222.89489579425174 227.44945005177456 209.45042345477748 221.59340384095813 Z M221.6855487786324 211.82568597329052 C226.56330037674192 207.24327627691883 222.93431372488217 197.95627429284383 216.29545454545456 198.03180337187047 C209.1943806761577 198.11259098235482 205.5208470995278 206.61175619043686 210.45454545454544 211.54545454545456 C213.593462000173 214.68437109108208 218.5119832003025 214.80709603194268 221.6855487786324 211.82568597329052 Z M125.53001101821778 211.45016755905908 C136.8819662125133 208.493358850456 146.05538929534237 200.54260258807054 150.18723503405593 190.07934703908074 C151.98701385508645 185.52168759897663 152.36785355096478 182.65396396220984 152.26696746076982 174.41895789691728 L152.14346580032088 164.33791579383453 L172.07173290016044 144.42833435992804 L192.0 124.51875292602159 L192.0 102.01532921870368 L192.0 79.51190551138578 L160.75 110.71008235938602 L129.5 141.90825920738627 L119.40582011248607 141.72504380445696 C109.58372391318983 141.54676688321936 109.10628645203914 141.64331974150636 101.69310955103137 145.30711050822342 C79.29088520334491 156.37889036927325 74.50889742857129 184.58093390893546 92.05543813374297 202.1458231383893 C97.38195897036043 207.47791395022588 100.81710834726722 209.45383031102895 108.23014954905744 211.44960396714808 C115.16004677315118 213.31530333977796 118.36886987103927 213.31540787626483 125.53001101821778 211.45016755905908 Z M108.68497732160685 199.9831409054766 C96.01071069249217 196.17884924259099 89.35587071382605 179.63957961085936 95.2868137872751 166.68469346350457 C99.5300046904593 157.41634366289253 108.3218046427104 152.4212280879283 119.0285420598054 153.19568355486584 C135.42344626284606 154.38158386187152 145.5669092811666 171.51316999564636 138.9632015648529 186.8639027558798 C136.389005256601 192.84778352376054 130.3870868727199 198.5200421448525 125.06535181537505 199.99840292966257 C120.83272967980879 201.17421166773647 112.62764427005132 201.1665667746347 108.68497732160685 199.9831409054766 Z M123.64656676835423 190.9290482447374 C133.49704279622856 186.16051461192535 135.50694607732677 174.24520274879654 127.80180933136403 166.29551912379637 C121.2817698668024 159.56854558981738 112.08730854050764 159.84031690787026 105.66425962297326 166.94986426150496 C101.93906951950666 171.07320440446833 100.32357814677584 176.22270344638065 101.5190398374844 180.16306098555054 C102.97073671003103 184.94799450603685 106.17181409655325 188.8760297127355 110.27444922722884 190.906805100197 C115.57934742135357 193.53269220506448 118.25894861470375 193.53714944652015 123.64656676835423 190.9290482447374 Z M63.0 124.97129842585682 C77.24571331311486 122.74985858090027 91.0472586983312 112.93679458708161 97.80864138809201 100.22193768795583 L101.11728277618404 94.0 L133.320362993518 94.0 L165.52344321085195 94.0 L181.5 78.0 L197.47655678914805 62.0 L149.78496337612077 62.00000000000001 L102.0933699630935 62.000000000000014 L100.50749124186153 59.75000000000001 C99.63525794518395 58.5125 97.17314201077743 54.724754403900924 95.03612249873593 51.332787564224276 C88.80193469630935 41.43762367873093 77.33464644382947 33.66670827166666 65.2007788970996 31.114587222144827 C57.993815312874375 29.598743786768324 52.53260491644409 29.714126713684717 45.460098760747314 31.531662794794705 C27.50843394930886 36.14499190225697 13.890932355189907 49.64255503183554 9.612135376078026 67.06388913654605 C7.590456528587858 75.29525482799859 7.5745231659755 80.94540725660217 9.551573277511 88.53990123925254 C14.2530961316445 106.59998318491391 27.882239044167424 120.10765051629636 45.78164442499614 124.44705634017117 C52.90979736750651 126.17515555542946 54.89270811945405 126.23552864180238 63.0 124.97129842585682 Z M42.82159095511009 111.6762964785909 C31.894107532279143 107.0676945087028 23.930936808690213 98.32181588402982 21.040542491089084 87.75436728772792 C19.11863092544926 80.72774757952394 20.078528212986093 68.53503094664374 23.034358249095355 62.42870914577915 C29.64340569287317 48.77536304810891 42.56748071153813 41.327037963016366 58.18748133097965 42.169472945741106 C71.54564638008712 42.88992013499234 83.16217106362733 50.712290596063326 88.8298177213262 62.80350193185252 C91.13625862995644 67.72400353402556 91.5 69.79412251853086 91.5 78.0 C91.5 86.39522377337784 91.17224458802104 88.1674511492506 88.68162254149863 93.23943009008033 C85.06773872087592 100.59885367600604 77.99038866299574 107.65483814076919 71.00235181558125 110.86532941259861 C62.863139748558275 114.60470140952992 50.60179128758125 114.95755028524837 42.82159095511009 111.6762964785909 Z M67.0 102.84931984096917 C90.32678058957927 92.73188537717942 87.76728640582094 58.51166794844071 63.148476831600924 51.35478584640201 C43.0914239512085 45.52404239202959 23.524042392029422 65.09142395120863 29.35478584640201 85.14847683160083 C34.15757540072799 101.66949251653408 51.22137737021157 109.69292090167747 67.0 102.84931984096917 Z M219.391296406015 79.42268120235369 C220.660959403464 76.11399246805912 216.9769599661709 72.94430581159347 214.37325179934055 75.1051916635897 C212.48320201334235 76.67379366521261 212.65022615499535 79.70487648785617 214.68960134791308 80.84616822625557 C216.70205693022953 81.97239499314465 218.63777077640458 81.38633751643331 219.391296406015 79.42268120235369 Z M242.42949086083345 64.68132946195162 C245.61746374613094 60.50168154033712 248.00290961808597 53.82801697621182 247.990231084296 49.124273476768565 C247.97680288413287 44.14240331156337 244.03799158341323 36.118553070444506 239.7635899920354 32.36557876608936 C237.80925945114475 30.649653824227524 234.14323462624782 28.456310379881042 231.6168681589311 27.491482223097176 C219.16801685137517 22.737222531745786 203.64337907786089 31.880075335176954 201.10639852584742 45.459871366111315 C199.53773649564877 53.85651058932595 199.71412075571146 53.99686238689907 211.86663136396098 54.021962000490916 C224.53110364890878 54.048119012070146 228.75364940967478 55.55771610856113 234.30580737367094 62.04416397794523 C236.33761331815194 64.41787225948967 238.0 66.72899784326563 238.0 67.17999860855846 C238.0 68.973102991955 240.028984052775 67.82855613297981 242.42949086083345 64.68132946195162 Z" fill="currentColor"/></svg>
