<svg xmlns="http://www.w3.org/2000/svg" xmlns:xlink="http://www.w3.org/1999/xlink" width="256" height="256" xml:space="preserve" version="1.1" viewBox="0 0 256 256">
  <path d="M73.40058597060005 253.98029614736606 C68.84933315142167 251.06399162395104 66.46031340842767 245.14679597465778 67.6611925866956 239.7647947223923 L68.61279087544594 235.5 L59.97868076369254 227.0 C41.13835278636029 208.45231115487792 31.594621186557802 191.23633212291844 22.421257239517605 159.25 C22.173127763677645 158.3848046507777 19.61397761148328 158.0 14.10811007828196 158.0 C7.009258791232687 157.99999999999997 5.822438682761499 157.72147186507075 3.0767252819433466 155.4111063580067 L-1.4210854715202004e-14 152.8222127160134 L7.105427357601002e-15 140.55712908484168 C2.7272821519385538e-14 128.95309911506158 0.13102873643720603 128.1506631073004 2.4310861649348254 125.66886007028846 C3.930218425815922 124.05126959109441 6.42198546547225 122.79625050632251 8.931086164934808 122.39502912173297 C12.944812397851193 121.75320841008158 12.999999999999993 121.68708830049563 13.000000000000007 117.52007499807114 C13.000000000000025 112.44459376020009 16.192463461130444 107.14320692932023 20.509469066122538 105.04989299011632 C23.473884425441007 103.61244940976154 23.500644707972764 103.52512185777687 23.573826410807794 95.04989299011632 C23.740313654739726 75.76887818440728 33.3711406865424 57.91601143016109 49.383217743329794 47.20648110594857 C59.14173957981173 40.67958361746861 67.19199766869254 37.95818446194199 78.76544680308152 37.27378423239847 L88.03089360616303 36.72586858121977 L91.56674784288609 31.90907124263387 C96.31585705516206 25.43948989599297 107.4818514821219 15.270613552192398 114.39121539561611 11.122817973833548 C126.73258417327449 3.7141077817285293 140.53166044517482 0.08296080995828686 156.5 0.042135275347604306 C179.9574159639646 -0.01783724365012928 199.60166077597518 8.29406927038772 215.27889239677364 24.91276091028992 C234.06491765536325 44.826937626141415 241.65601139412246 73.60939612919397 235.13778534392503 100.20991594995053 C234.32068153625988 103.54447137408388 234.47490730982025 104.08115135362783 236.66209229117118 105.51424999465243 C240.341503484405 107.92509280207568 242.99206295572023 112.99171108895362 242.99626193956243 117.62219177827959 C242.999931603011 121.6689579420226 243.07445076382012 121.75628871387313 247.06891383506445 122.39502912173283 C249.57801453452592 122.79625050632202 252.06978157418334 124.05126959109421 253.56891383506445 125.66886007028761 C255.86897126356303 128.15066310729952 255.99999999999997 128.95309911505902 255.99999999999997 140.5571290848414 L255.99999999999997 152.8222127160141 L252.9232747180563 155.41110635800703 C250.17756131723806 157.72147186507064 248.99074120876617 158.0 241.8918899217179 158.0 C236.38602238851723 158.0 233.82687223632269 158.38480465077774 233.5787427604825 159.25 C224.40537881342166 191.23633212295772 214.8616472136424 208.45231115487533 196.02131923630753 227.0 L187.38720912455415 235.5 L188.33880741330438 239.7647947223925 C189.55356052827307 245.20897503983744 187.10705721244872 251.1526820545913 182.4723995866038 254.01705799358237 C179.38113499683584 255.92756457827798 177.38698637059184 255.99938460028883 127.88196601125009 255.98315324313734 C78.34309086494525 255.96691078591687 76.38882282777931 255.89506753227028 73.40058597060005 253.98029614736606 Z M178.33275895705071 244.93530753667585 C180.2359151399808 242.21817146975334 179.32347847646255 239.07348460341817 176.2982057072095 237.92327794662714 C174.9625829409523 237.41547507598222 169.26409552517947 237.0 163.6349003388254 237.0 C152.82851504589092 237.0 151.0 236.33753900016993 151.0 232.42244471544205 C151.0 228.40053638225788 153.0556614704274 227.84368731988042 166.99785065338418 228.0888575637892 L180.11980910321034 228.31960423574205 L185.19307286840362 224.4506835032882 C187.98336793925992 222.3227771004386 192.86412780299293 217.5634395214656 196.03920589892144 213.8743777722371 C214.69186164734438 192.20221829645214 223.35046065586621 170.8021556478183 227.44651397326123 136.25 L228.068885559437 131.00000000000003 L128.00000000000034 131.0 L27.931114440563647 131.0 L28.553486026738923 136.25 C32.649539344129565 170.8021556478073 41.30813835265916 192.2022182964611 59.96079410107783 213.87437777223758 C63.13587219700667 217.56343952146588 67.96696723287344 222.28490221533514 70.69656084744845 224.36651709194703 L75.65945832849391 228.1512714130596 L109.72278977381235 228.0401248875238 C139.77172669674042 227.94207708088487 143.9755004845479 228.1183576274051 145.3930606095654 229.53591775242253 C147.29666385984797 231.43952100270505 147.471359618547 234.12864038145273 145.8000000000001 235.7999999999999 C144.9178914179112 236.68210858208897 136.32557770248476 237.0 113.36509966117461 237.0 C96.18590447482055 237.0 81.0374170590477 237.41547507598222 79.7017942927905 237.92327794662714 C76.67652152353762 239.07348460341808 75.76408486001932 242.2181714697535 77.6672410429493 244.93530753667588 C79.09497727966621 246.97368655024852 79.73644255703596 247.0 128.0 247.0 C176.26355744296436 247.0 176.90502272033376 246.97368655024854 178.33275895705071 244.93530753667585 Z M124.06290137857218 220.75 C123.48566847891836 219.26169001691682 123.62250059419391 217.82294220718506 124.46709764284276 216.5 C127.2881393114281 212.08123593070843 133.85105143950742 215.81515465766694 131.93709862142782 220.75 C131.295601836963 222.40400494151913 130.25271680446392 223.0 128.0 223.0 C125.74728319553607 223.0 124.70439816303703 222.40400494151913 124.06290137857218 220.75 Z M72.60534193403706 210.70068632087055 C71.42317292927599 209.8362632395823 70.94081540572758 208.41375451785194 71.16421229893217 206.45068632087055 C71.4363566707543 204.05925663871182 72.03268115343278 203.43892108926744 74.31047176559244 203.17774239245978 C79.68229965102954 202.56179156752282 82.02393789253503 207.46897078089125 77.77749375659457 210.44329603135094 C75.08378833207806 212.33004075351252 74.84955795977703 212.34169714439378 72.60534193403706 210.70068632087055 Z M107.0 210.0 C104.64950797973266 207.64950797973268 104.56260498068647 206.980432602068 106.29931367912945 204.60534193403703 C107.16373676041769 203.42317292927598 108.58624548214804 202.94081540572756 110.54931367912945 203.16421229893217 C112.97901107081601 203.44071153088177 113.55928846911821 204.020988929184 113.83578770106783 206.45068632087055 C114.05918459427242 208.41375451785194 113.57682707072401 209.8362632395823 112.39465806596296 210.70068632087055 C110.01956739793204 212.43739501931353 109.35049202026734 212.35049202026732 107.0 210.0 Z M143.60534193403706 210.70068632087055 C142.423172929276 209.8362632395823 141.9408154057276 208.41375451785194 142.16421229893217 206.45068632087055 C142.44071153088177 204.02098892918397 143.02098892918397 203.44071153088177 145.45068632087055 203.16421229893217 C147.41375451785197 202.94081540572756 148.8362632395823 203.42317292927598 149.70068632087055 204.60534193403703 C151.43739501931353 206.980432602068 151.35049202026735 207.64950797973265 149.0 210.0 C146.64950797973265 212.35049202026735 145.980432602068 212.43739501931353 143.60534193403706 210.70068632087055 Z M178.7506817890797 211.2285820283821 C176.5090880181501 210.74809461584604 175.39550075536638 206.43330331774183 177.01077741069298 204.48701401454747 C179.96312554800235 200.92965213477143 185.74907139565065 203.87932582704144 184.6226058219053 208.36752216409263 C184.00512480925428 210.8277624801499 181.8284929920415 211.88831331438237 178.7506817890797 211.2285820283821 Z M54.2 199.8 C52.65749938210575 198.25749938210575 52.65749938210575 194.74250061789428 54.199999999999996 193.2 C56.85741908277431 190.5425809172257 62.0 192.47340342277747 62.0 196.12857142857143 C62.0 199.95208508863146 56.79979882738827 202.39979882738825 54.2 199.8 Z M124.63165428444658 198.8845003218504 C122.32776131290724 195.59523234508296 123.96074934370444 192.5 128.0 192.5 C132.0392506562956 192.5 133.67223868709277 195.59523234508296 131.3683457155534 198.88450032185037 C129.47332293413325 201.59002433150317 126.52667706586675 201.5900243315032 124.63165428444658 198.8845003218504 Z M195.75 199.91990120052802 C192.1903397881715 197.84658946182267 194.2204308982652 192.0 198.5 192.0 C199.655 192.0 201.14 192.54 201.8 193.2 C202.46 193.86 203.0 195.345 203.0 196.5 C203.0 200.45400582636424 199.50086981768132 202.1045823106836 195.75 199.91990120052802 Z M90.75 191.91990120052802 C87.1903397881715 189.84658946182267 89.2204308982652 184.0 93.5 184.0 C97.7111547492535 184.0 99.44898586941531 188.40815698772755 96.42857142857143 191.42857142857144 C94.62071320273225 193.2364296544106 93.21862491283265 193.35774321511943 90.75 191.91990120052802 Z M159.57142857142856 191.42857142857144 C156.5510141305847 188.40815698772752 158.2888452507465 184.0 162.5 184.0 C166.89272568669787 184.0 168.81251860414645 189.9596019641275 165.06574145408933 191.96481624151198 C162.4378620827104 193.37121460033967 161.4141582747162 193.27130113185905 159.57142857142856 191.42857142857144 Z M41.2 179.8 C39.65749938210575 178.25749938210575 39.65749938210575 174.74250061789428 41.199999999999996 173.2 C44.00499738601466 170.39500261398535 49.0 172.50827295067145 49.0 176.5 C49.0 179.1804588774184 47.180458877418396 181.0 44.5 181.0 C43.345 181.0 41.86 180.46 41.2 179.8 Z M72.2 179.8 C69.15489558198665 176.75489558198663 71.864009143163 171.5567493880063 76.17483422879656 172.17323613368586 C79.11201622782343 172.59327956761766 80.9261351133189 177.17914916915478 79.04958524943751 179.44025342949257 C77.51152846245458 181.2934984834212 73.88401866273267 181.48401866273267 72.2 179.8 Z M108.2 179.8 C105.39500261398535 176.99500261398532 107.50827295067144 172.0 111.5 172.0 C112.65499999999999 172.0 114.14 172.54 114.8 173.2 C115.46 173.86 116.0 175.345 116.0 176.5 C116.0 177.655 115.46 179.14 114.8 179.8 C114.14 180.46 112.655 181.0 111.5 181.0 C110.345 181.0 108.86 180.46 108.2 179.8 Z M141.2 179.8 C140.54 179.14 140.0 177.655 140.0 176.5 C140.0 175.345 140.54 173.86 141.2 173.2 C141.86 172.54 143.345 172.0 144.5 172.0 C145.655 172.0 147.14 172.54 147.8 173.2 C148.46 173.86 149.0 175.345 149.0 176.5 C149.0 177.655 148.46 179.14 147.8 179.8 C147.14 180.46 145.655 181.0 144.5 181.0 C143.345 181.0 141.86 180.46 141.2 179.8 Z M176.95041475056246 179.44025342949257 C176.02649548712955 178.32699882167984 175.92564032396254 177.11039679329062 176.59809375038515 175.19025342949257 C178.26502976510147 170.43043512718847 185.0 171.41815998247975 185.0 176.42244471544217 C185.0 180.70809592978708 179.66314638258055 182.70889508318263 176.95041475056246 179.44025342949257 Z M209.2 179.8 C206.5425809172257 177.14258091722564 208.47340342277747 172.0 212.12857142857143 172.0 C214.19026055328965 172.0 217.0 174.5955071135301 217.0 176.5 C217.0 179.99780398405196 211.65791631311762 182.2579163131176 209.2 179.8 Z M90.2 168.8 C86.96751898481281 165.56751898481278 90.59374047041938 160.10150755203654 95.03544876370994 161.51125100053804 C97.47296548647586 162.2848887551206 98.65184747421543 166.50964555578003 96.989222589307 168.51298598545253 C95.50309779380667 170.3036568176942 91.85776314124425 170.45776314124424 90.2 168.8 Z M159.01077741069298 168.51298598545253 C157.34815252578457 166.50964555578003 158.52703451352414 162.2848887551206 160.96455123629005 161.51125100053804 C165.40625952958067 160.10150755203654 169.03248101518722 165.56751898481275 165.8 168.8 C164.14223685875575 170.45776314124424 160.4969022061933 170.3036568176942 159.01077741069298 168.51298598545253 Z M41.75 157.91990120052802 C38.19033978817151 155.84658946182267 40.22043089826521 150.0 44.5 150.0 C48.71115474925348 150.0 50.4489858694153 154.40815698772755 47.42857142857143 157.42857142857144 C45.62071320273223 159.2364296544106 44.21862491283265 159.35774321511943 41.75 157.91990120052802 Z M72.75 157.91990120052802 C69.30646963411925 155.9142288876357 70.91721264378751 150.0 74.90698880418434 150.0 C79.66721412565455 150.0 81.65790260013442 154.19924025700843 78.42857142857143 157.42857142857144 C76.62071320273225 159.2364296544106 75.21862491283265 159.35774321511943 72.75 157.91990120052802 Z M108.75 157.91990120052802 C105.1903397881715 155.84658946182267 107.2204308982652 150.0 111.5 150.0 C115.7111547492535 150.0 117.44898586941531 154.40815698772755 114.42857142857143 157.42857142857144 C112.62071320273225 159.2364296544106 111.21862491283265 159.35774321511943 108.75 157.91990120052802 Z M141.57142857142856 157.42857142857144 C138.5510141305847 154.40815698772752 140.2888452507465 150.0 144.5 150.0 C148.89272568669787 150.0 150.81251860414645 155.9596019641275 147.06574145408933 157.96481624151198 C144.4378620827104 159.37121460033967 143.4141582747162 159.27130113185905 141.57142857142856 157.42857142857144 Z M177.57142857142856 157.42857142857144 C174.34209739986557 154.1992402570084 176.33278587434546 150.0 181.09301119581568 150.0 C185.1992977990978 150.0 186.6914267226135 156.0244083724087 183.06574145408933 157.96481624151198 C180.4378620827104 159.37121460033967 179.4141582747162 159.27130113185905 177.57142857142856 157.42857142857144 Z M209.60534193403706 157.70068632087055 C208.423172929276 156.8362632395823 207.9408154057276 155.41375451785194 208.16421229893217 153.45068632087055 C208.44071153088177 151.02098892918397 209.02098892918397 150.44071153088177 211.45068632087055 150.16421229893217 C213.41375451785197 149.94081540572756 214.8362632395823 150.42317292927598 215.70068632087055 151.60534193403703 C217.43739501931353 153.980432602068 217.35049202026735 154.64950797973265 215.0 157.0 C212.64950797973265 159.35049202026735 211.980432602068 159.43739501931353 209.60534193403706 157.70068632087055 Z M20.570202177194005 146.75 C20.3128561436143 145.5125 19.815992479619123 141.43940777072092 19.466060701649162 137.6986839349354 L18.829821105340148 130.8973678698708 L14.164910552670074 131.1986839349354 L9.5 131.5 L9.211067116562177 140.25 L8.922134233124353 149.0 L14.980119144777092 149.0 C20.73444479515351 149.0 21.014650260972985 148.88721772209146 20.570202177194005 146.75 Z M246.78893288343784 140.25 L246.5 131.5 L241.83508944732992 131.19868393493542 L237.17017889465984 130.89736786987083 L236.53393929835084 137.69868393493542 C236.18400752038087 141.43940777072095 235.6871438563857 145.5125 235.429797822806 146.75 C234.98534973902701 148.88721772209146 235.2655552048465 149.0 241.0198808552229 149.0 L247.07786576687565 149.0 L246.78893288343784 140.25 Z M90.2 146.8 C88.65749938210575 145.25749938210575 88.65749938210574 141.74250061789428 90.19999999999999 140.2 C92.85741908277431 137.5425809172257 98.0 139.47340342277747 98.0 143.12857142857143 C98.0 146.95208508863146 92.79979882738827 149.39979882738825 90.2 146.8 Z M159.57142857142856 146.42857142857144 C156.5510141305847 143.40815698772752 158.2888452507465 139.0 162.5 139.0 C163.655 139.0 165.14 139.54 165.8 140.2 C166.46 140.86 167.0 142.345 167.0 143.5 C167.0 147.7111547492535 162.59184301227248 149.4489858694153 159.57142857142856 146.42857142857144 Z M54.75 141.91990120052802 C51.19033978817151 139.84658946182267 53.22043089826521 134.0 57.5 134.0 C61.71115474925348 134.0 63.4489858694153 138.40815698772755 60.42857142857143 141.42857142857144 C58.62071320273223 143.2364296544106 57.21862491283265 143.35774321511943 54.75 141.91990120052802 Z M125.02352262042425 141.02352262042422 C122.04748979998249 138.0474897999825 123.66609737725443 134.5 128.0 134.5 C132.33390262274557 134.5 133.9525102000175 138.0474897999825 130.97647737957578 141.02352262042422 C129.8894148208091 142.1105851791909 128.55 143.0 128.0 143.0 C127.45 143.0 126.1105851791909 142.1105851791909 125.02352262042425 141.02352262042422 Z M195.57142857142856 141.42857142857144 C192.5510141305847 138.40815698772752 194.2888452507465 134.0 198.5 134.0 C202.89272568669787 134.0 204.81251860414645 139.9596019641275 201.06574145408933 141.96481624151198 C198.4378620827104 143.37121460033967 197.4141582747162 143.27130113185905 195.57142857142856 141.42857142857144 Z M233.45580630379658 118.64533168346361 C234.31979884377594 116.18849353775467 234.13350925853302 115.52652755715935 232.1190676256125 113.89533168346361 C229.85582163229637 112.06266626138168 226.41697684020022 112.0 128.11172228109615 112.0 C37.713879369723514 112.0 26.198667079803435 112.17254703957965 24.222506243405427 113.55670396864906 C21.784604184967712 115.2642770388298 21.449993648968466 117.10378664066597 23.037658097260064 120.07036479837589 C24.05557016502655 121.97235089496876 26.057958823483943 122.00440135456637 128.2636128131349 121.75462334428656 L232.45190943174964 121.5 L233.45580630379658 118.64533168346361 Z M43.179768081584 94.12316809755254 C43.53451218775991 86.7033878551735 44.120552997998345 84.2002383013426 46.75011901904934 78.87316809755254 C57.07064045611798 57.96548150788068 83.09712816081921 50.044283349753854 102.92758638243839 61.775476851002736 C109.31918028721306 65.5565808497278 111.29646727216391 68.73292621594607 108.98922258930693 71.51298598545264 C107.16313275528294 73.71328962935951 104.57630599109986 73.34234562282627 98.72749681895057 70.04148208580771 C85.65061630003952 62.66134763239388 72.14776910936982 64.23048657177397 61.16070750864617 74.40704374120571 C55.69928125983306 79.46558609469734 52.74141640550756 86.35168256583569 52.20779085455525 95.25 L51.74302905543105 103.0 L57.82439961227769 103.0 L63.90577016912433 103.0 L63.31787021281397 98.03610481045709 C62.83491649341703 93.95831637255374 63.19201653380931 92.12858511161998 65.31831448141813 87.78610481045709 C74.99690772788432 68.01977781803694 104.06989146031523 75.25649826848209 102.8326606635512 97.12401242598966 L102.5 103.0036444145221 L107.6887271004384 103.00182220726106 L112.87745420087681 103.0 L113.56815659399018 98.39406643924457 C114.11234381012264 94.7651660805525 113.69929825251748 92.13562714046175 111.62097568767422 85.9978841724604 C108.85886929629876 77.84077739446865 108.94819910379516 75.46860397745043 112.0546084230277 74.48266795982245 C117.41270429988427 72.78207439084552 122.22834153979902 82.4500086931339 122.39755844168127 95.2473053879451 L122.5 102.99461077589021 L127.75 102.9973053879451 L133.0 103.0 L133.0 96.21009876074739 C132.99999999999994 82.28263960597528 128.3064761388348 71.24891054181097 118.02234034146404 61.0 C107.14758837639106 50.16249627091557 94.47933356034775 45.30011065442079 79.61364985555585 46.25780647145129 C66.82534863816957 47.0816705348895 55.746739371280505 52.33469275171324 46.2001367939926 62.10112418634797 C37.695324471676386 70.80177614476801 31.027029800744288 89.0631847683649 32.649562664588956 99.20994787706704 C33.252365571086735 102.97967016113638 33.28109475869217 103.0 38.005488956212176 103.0 L42.755361468983594 103.0 L43.179768081584 94.12316809755254 Z M92.96481624151201 101.06574145408933 C95.3901527572663 96.53395872098405 93.19943779351398 89.51506278111336 88.58963547718258 87.04797145157244 C80.1120970264586 82.51093056078747 70.06474568404674 90.60609206467603 73.02830154024761 99.58575450925052 L74.155104165744 103.0 L83.042368324384 103.0 C90.80549005796689 103.0 92.0605719892516 102.75533729461911 92.96481624151201 101.06574145408933 Z M178.25929444633238 100.25 C185.5867403374214 92.59833746284016 187.78289678924446 78.15311346675168 183.07463467576554 68.57708882202077 C179.99414185990992 62.31174623667492 174.69132061641125 57.00803677692653 168.42291117797924 53.922911177979245 C158.40932750189364 48.9945216655003 143.4455152140903 51.70666915112321 135.62742410719812 59.86699789118238 L132.81579405302358 62.801707300908724 L136.39122194730857 70.15085365045437 C138.3577072891653 74.19288414270446 139.97415362723498 76.59002974653505 139.98332492079675 75.47784388118902 C140.00702822054856 72.60338841115039 145.75071345945415 66.00210527453847 149.64308847139466 64.37576715207308 C159.82727105994928 60.1205439685142 171.4846010910647 66.02855908799653 173.76308658105376 76.59994825815748 C176.1938893453011 87.87803720349719 169.50304266422506 96.97432600292137 158.17377413107022 97.79381130550254 C152.00082044933313 98.24032246382613 147.81386551793548 96.8138655179355 143.9468187719183 92.94681877191826 C142.01772707602726 91.01772707602724 142.0 91.05463397913441 142.0 97.0 L142.0 103.0 L158.812908795234 103.0 L175.625817590468 103.0 L178.25929444633238 100.25 Z M204.0978842737062 97.25 C205.89855461996194 92.63100618448794 206.3472717656151 89.43468435876116 206.37914818091798 81.0 C206.41896496837902 70.46424711743114 206.00062699973827 68.57393794938324 200.89617929759035 56.22456213584432 C199.16921018336572 52.04644300241483 200.56778052159834 49.5 204.58947741259834 49.5 C208.24954866501574 49.5 211.1874443489176 54.50301277982691 214.01151037323314 65.54500512809238 C216.932774994357 76.9670403482238 216.31208812198412 91.25428847210217 212.46036340616288 101.25 C211.86020288187618 102.80749227003692 212.50858032567112 103.0 218.35446712271903 103.0 L224.92291185380668 103.0 L226.01082803477533 98.75 C226.6091819343081 96.4125 227.31550095537483 93.86427948865187 227.58042585936806 93.08728775255972 C228.7042609364841 89.79121949137459 227.99770244194517 70.80063762953415 226.51237948090295 64.38078667833557 C224.4192087734282 55.33370108829413 218.3225558806602 42.958872756782824 212.29574295050247 35.524225609574685 C189.81310536008365 7.7897531180006325 150.5632094154188 0.8998669960252528 119.52077545143996 19.23860380971891 C115.68220194973193 21.506292911337894 109.18710230461576 26.71612350183578 105.08722068451513 30.816005121936435 L97.63289046615036 38.27033534030126 L103.56644523307517 40.49633262616643 L109.5 42.7223299120316 L115.52673804026017 37.1111649560158 C126.3590470876362 27.02579663349527 137.6493228569707 22.269945398426202 153.00895555017516 21.32236988319501 C160.7718224549558 20.84345852158262 164.05390769290997 21.124158758661977 170.88273459450363 22.851024275600246 C180.63621770157368 25.31747332905459 190.33802427264968 30.44119684121616 196.5805051136145 36.422545213921524 C201.02607114442367 40.68214645604961 202.02072253702158 43.57927746297877 199.7999999999999 45.8000000000001 C197.65571421971612 47.94428578028355 194.96847855205434 47.084205483075245 189.24471698246154 42.421661782741495 C172.0773250016562 28.437201675861388 152.39466841480348 26.209602533636513 132.90917977107355 36.045845905697234 C129.56682352057982 37.733061972848006 124.8252701198207 40.96340572630332 122.37239443605333 43.22438758004239 L117.9126204655672 47.33526367774978 L122.13125206279463 51.63373610859628 L126.34988366002207 55.932208539442776 L130.42494183001105 52.17618044485342 C147.624350097379 36.32328756143194 175.37824020438933 39.797194918493574 188.41267871985426 59.43440713034779 C195.80472880955963 70.57100163113691 196.96066637489028 85.60922463624996 191.30218676011611 97.02559508702208 L188.34099619992318 103.0 L195.09864911817334 103.0 L201.8563020364235 103.0 L204.0978842737062 97.25 Z M162.54545454545456 86.54545454545455 C168.8613450624851 80.22956402842397 162.09988655953117 69.73032895778765 153.75886312824258 72.90158041406102 C150.48347160400465 74.14688205200407 147.64760737552996 79.27686403539045 148.56340994970992 82.29997859327685 C150.57937773708258 88.95479889850877 157.91019703466847 91.1807120562406 162.54545454545456 86.54545454545455 Z" fill="currentColor"/></svg>
