<svg xmlns="http://www.w3.org/2000/svg" xmlns:xlink="http://www.w3.org/1999/xlink" width="256" height="256" xml:space="preserve" version="1.1" viewBox="0 0 256 256">
  <path d="M75.36703996974735 254.2277641544112 C69.02433719846871 249.08997707220237 69.89791040435188 238.98339676874863 76.95469839296003 235.8597587707848 C80.26319490186192 234.39527586042675 82.9090167861347 229.28614763681412 85.4895501144747 219.37881117792574 C87.3516904760027 212.22957156426733 87.4325902229679 208.0 85.70719460424667 208.0 C82.96232660588575 208.0 60.15591396322239 195.8351418989411 53.5 190.82079876688155 C37.010047582865724 178.39781972782944 22.063851998314135 159.63652064929272 13.87663167048622 141.08333484011524 C9.518205987303874 131.20663941752778 5.270655124710317 115.84820527277327 4.31221433815918 106.5 C3.9542845638387014 103.00891213047649 2.9240887313268655 99.50276651644472 1.8485270212593718 98.11514130819907 C-1.1151342967937863 94.2916032302444 -0.6270078312872482 87.73362983395036 2.9165863563769605 83.76577654245921 L5.833172712753935 80.5 L34.00987949519517 80.20498171288368 C54.40402124048 79.99144913750654 62.57512663190463 80.2324232794344 63.593293138818204 81.07742642832584 C65.45273410754344 82.6206253678721 65.37861218957912 85.47853066756305 63.42857142857169 87.42857142857112 C62.07945671211383 88.77768614502943 58.12657730252146 88.99999999999994 35.48758842294665 88.99999999999996 C8.923640169510957 88.99999999999997 6.378275561097846 89.34101530562467 9.036354818517303 92.54380487649989 C10.861571095582613 94.74305594866384 245.1384289044174 94.74305594866388 246.96364518148272 92.5438048764999 C247.6283392182846 91.74289755857487 247.88188169276484 90.61789755857488 247.52707290254992 90.04380487649992 C247.0871875316421 89.3320553952172 219.9986716132829 89.0 162.37524155153574 89.00000000000001 C106.03496392385435 89.00000000000003 77.22382057990336 88.65496889766762 75.93425854591072 87.96481624151203 C73.77214019435155 86.80768561582873 73.36287999778871 83.03712000220634 75.20000000000158 81.19999999999838 C76.08418998384327 80.31581001615908 84.96840296602366 80.00000000000003 108.9578133469757 80.00000000000003 L141.51562669394824 80.00000000000003 L165.5 56.000000000000014 C178.6914053183285 42.800000000000004 190.18538931218924 31.999999999999993 191.04218665302392 31.999999999999986 C193.20637903145445 31.999999999999964 195.0 34.01271861859789 195.0 36.44127535978447 C195.0 37.76346366971744 187.6934723020087 45.7952976200398 174.25892983537963 59.24127535978643 L153.51785967075926 80.0 L169.00246282517716 79.99999999999999 L184.48706597959506 79.99999999999997 L212.74353298979753 51.75657945328527 C228.2845898454089 36.22269815259218 241.0 22.82219841051847 241.0 21.977691137565913 C241.0 20.011182362111573 228.93040528050383 8.000000000000075 226.9543330491024 8.0 C226.13381204619137 7.999999999999969 220.97936217409534 12.499999999999943 215.50000000000009 17.999999999999943 C205.65851958557332 27.87854800605227 202.87787372804104 29.4778737280322 200.200000000002 26.800000000002015 C197.7834862726308 24.383486272638777 199.2232839566894 22.169066732684893 210.3464515964119 11.194682027166735 L221.69290319282376 -5.684341886080802e-14 L226.96128852885522 -2.842170943040401e-14 C232.17642423295194 -2.8726933768016257e-16 232.30938442713315 0.07757000466694741 240.1160374322548 7.674582156810956 C248.84786359445062 16.17192274836666 250.49516314904025 19.594625506779657 248.81548633675524 25.75 C248.00182347813882 28.73176385443753 242.65945251856613 34.6629052383921 222.73770906199593 54.70174917023097 L197.68323070316876 79.90349834046194 L223.92516832640007 80.20174917023097 L250.16710594963138 80.5 L253.08355297481566 83.76577654245921 C256.6270010209261 87.73365574906994 257.11506822435655 94.29168847294056 254.15147297874094 98.11514130819927 C253.07591126867385 99.50276651644442 252.04571543616152 103.00891213047746 251.6877856618409 106.5 C250.72614225180752 115.87944223820406 246.50276767782339 131.11638336875433 242.0559340324952 141.24945299869268 C232.8366160945477 162.2576575003178 217.1792291206912 180.97563416833452 197.83948765136165 194.1090018548717 C191.6323885228176 198.3241623962489 172.47433699892278 207.96004481773264 170.25 207.98562488962654 C168.5719730854804 208.00492234731124 168.6704964341175 212.31475286424558 170.51044988552545 219.37881117792625 C173.090983213866 229.286147636816 175.73680509813786 234.39527586042684 179.04530160703987 235.85975877078474 C186.10208959564818 238.98339676874818 186.97566280153143 249.0899770722023 180.63296003025266 254.2277641544112 C178.67494627278438 255.8138163710563 174.35796890222764 255.95552830882238 128.0 255.95552830882238 C81.64203109777237 255.95552830882238 77.3250537272156 255.8138163710563 75.36703996974735 254.2277641544112 Z M175.5 245.5 C175.5 243.53209787634597 174.74666301783918 243.49582710039562 128.5600109464824 243.2399890535176 C100.12578743490597 243.0824856216504 81.24833208465941 243.35166791534058 80.67722838930683 243.92277161069316 C80.15869196229494 244.44130803770506 80.00675773888621 245.57522709426843 80.33959678173187 246.44259173638957 C80.8808133479228 247.85297949988848 85.94041863138386 247.99216523591423 128.22237933890744 247.75980917921402 C174.74673027359535 247.50413951435388 175.5 247.46813419474705 175.5 245.5 Z M165.9994957759531 234.25 C165.9992184527273 233.8375 165.14357202417926 231.2494021695244 164.0980592680686 228.49867148783196 C163.05254651195793 225.74794080613952 161.8899468299451 221.24794080613952 161.51450441915125 218.49867148783196 C160.22661042154024 209.06775118935693 163.90293288308962 210.0 127.99999999999999 210.0 C92.09706711691032 210.0 95.77338957845971 209.06775118935693 94.48549558084878 218.4986714878318 C94.11005317005493 221.2479408061393 92.94745348804213 225.7479408061393 91.90194073193143 228.4986714878318 C90.85642797582075 231.2494021695243 90.00078154727272 233.8375 90.00050422404692 234.25 C90.0002269008211 234.6625 107.1 235.0 128.0 235.0 C148.9 235.0 165.9997730991789 234.6625 165.9994957759531 234.25 Z M170.58012618216466 198.5611559276468 L176.5 196.12231185529362 L165.1066525606526 195.8111559276468 C155.5576724202965 195.55037025517692 153.5349870164439 195.21670812371718 152.61176741538196 193.75 C151.8095728195367 192.4755628788916 151.80992278727686 191.5244371211084 152.6130552441265 190.25 C153.58898868744754 188.70135656355086 155.87865601388646 188.4686304601962 172.51266889767456 188.22736575511345 L191.3094570165548 187.95473151022688 L197.4047285082774 183.6006092038313 C205.41306287572777 177.87990138076842 218.3707109990405 164.26677890033744 224.1522881983774 155.5 C231.84758311347693 143.8313935337046 238.2775836373827 129.54492985998638 240.4675586750299 119.25 L241.15891053163816 116.0 L127.99999999999999 116.0 L14.84108946836183 116.0 L15.532441324970065 119.25 C18.010516562360845 130.8992701141089 26.31222677463893 148.2204344623031 35.0222284325182 159.91460969715303 C41.166005062781664 168.16333378931006 52.962192928545655 179.8138524561094 60.24048119050457 184.8214463671331 L64.82597940661235 187.97635204268974 L103.66298970330618 188.23817602134488 L142.5 188.5 L142.82676386631408 190.8050420559386 C143.55259544380488 195.92516849622325 143.10809848534046 195.9964196957492 110.12755528455783 196.0466028599725 L79.5 196.09320571994496 L85.0 198.45946321550164 C90.44106422810299 200.80036485432964 90.89733561065168 200.82665446418736 127.58012618216466 200.91286035552918 L164.66025236432932 201.0 L170.58012618216466 198.5611559276468 Z M66.04568084912805 181.55504205593857 C65.38611612916209 180.7603151867048 64.9935160072131 179.0728151867048 65.17323613368588 177.80504205593857 C65.44335028960903 175.89961568083052 66.10678063521809 175.5 69.0 175.5 C71.89321936478191 175.5 72.55664971039097 175.89961568083052 72.82676386631412 177.80504205593857 C73.21795423237674 180.56455844868904 71.42393398670166 183.0 69.0 183.0 C68.03468918698638 183.0 66.705245569094 182.34976892517236 66.04568084912805 181.55504205593857 Z M105.2 181.8 C102.51019258068855 179.11019258068853 104.60446640558735 175.0 108.664816241512 175.0 C111.62810554397241 175.0 113.45356090285595 178.28399660901042 112.0 181.0 C110.81317031425472 183.217611552896 107.05924931724957 183.65924931724956 105.2 181.8 Z M144.03207473684517 181.05993219401088 C142.38615205054316 177.98449752283915 144.39070195848734 174.7908470857804 147.7163965969077 175.19006780598912 C151.06505223031948 175.59204479397158 152.89313646223712 178.35579036737693 151.39402324684528 180.75 C149.75005857615434 183.37554956480145 145.37004089860227 183.5599448355326 144.03207473684517 181.05993219401088 Z M184.04568084912805 181.55504205593857 C183.38611612916208 180.7603151867048 182.99351600721312 179.0728151867048 183.17323613368586 177.80504205593857 C183.44335028960901 175.89961568083052 184.1067806352181 175.5 187.0 175.5 C189.8932193647819 175.5 190.55664971039099 175.89961568083052 190.82676386631414 177.80504205593857 C191.21795423237674 180.56455844868904 189.42393398670166 183.0 187.0 183.0 C186.03468918698638 183.0 184.70524556909402 182.34976892517236 184.04568084912805 181.55504205593857 Z M86.0 173.0 C83.59573537711985 170.59573537711987 84.47488332172907 167.16989995301049 87.70412737132841 166.35941128943173 C91.00370387594951 165.53127030332757 93.46872969667241 167.99629612405047 92.64058871056825 171.2958726286716 C91.8301000469895 174.52511667827093 88.40426462288016 175.40426462288013 86.0 173.0 Z M165.7506817890797 174.25196072601807 C163.2876918493132 173.69110033142613 162.34813415104495 169.2232944203836 164.28571428571428 167.28571428571428 C167.33005414023395 164.2413744311946 172.63343673370454 167.64966049996178 171.25009076471497 171.7614591358505 C170.6740334270807 173.47370742960769 167.88322425079264 174.7375731872179 165.7506817890797 174.25196072601807 Z M124.40855137077767 172.62228451503404 C123.53309527262498 170.34088249327948 124.29908778327788 167.84089174039002 126.25 166.61229814969366 C128.8152123458137 164.99684696750916 131.5 167.040705925412 131.5 170.60898649570066 C131.5 173.14098000854366 131.0955455523235 173.53897804444443 128.2431249013084 173.81387124823584 C126.04699917665893 174.02551606162018 124.79809605665194 173.63742169414857 124.40855137077767 172.62228451503404 Z M66.04568084912805 163.55504205593857 C65.38611612916209 162.7603151867048 64.9935160072131 161.0728151867048 65.17323613368588 159.80504205593857 C65.44335028960903 157.89961568083052 66.10678063521809 157.5 69.0 157.5 C71.89321936478191 157.5 72.55664971039097 157.89961568083052 72.82676386631412 159.80504205593857 C73.21795423237674 162.56455844868904 71.42393398670166 165.0 69.0 165.0 C68.03468918698638 165.0 66.705245569094 164.34976892517236 66.04568084912805 163.55504205593857 Z M105.010777410693 163.51298598545253 C103.40346990106782 161.57629891540083 104.48429436018763 157.3670683172017 106.73906148284388 156.78224804045635 C109.20529430253164 156.14257978131076 110.85391499671461 156.85852058268114 112.0466428943385 159.08715304528351 C114.34613353972755 163.3837906186762 108.14230176921937 167.28624200422422 105.010777410693 163.51298598545253 Z M144.0 163.0 C142.8248527783745 160.8042173309864 144.00819876377975 157.50027058009525 146.2385408641495 156.74990923528503 C150.13501410338793 155.43900589927784 153.5982603476 160.36928780604123 150.98922258930702 163.51298598545253 C149.2179682451933 165.64721690609193 145.26132776564583 165.356812488498 144.0 163.0 Z M184.04568084912805 163.55504205593857 C183.38611612916208 162.7603151867048 182.99351600721312 161.0728151867048 183.17323613368586 159.80504205593857 C183.44335028960901 157.89961568083052 184.1067806352181 157.5 187.0 157.5 C189.8932193647819 157.5 190.55664971039099 157.89961568083052 190.82676386631414 159.80504205593857 C191.21795423237674 162.56455844868904 189.42393398670166 165.0 187.0 165.0 C186.03468918698638 165.0 184.70524556909402 164.34976892517236 184.04568084912805 163.55504205593857 Z M46.2 154.8 C43.51019258068856 152.11019258068853 45.60446640558735 148.0 49.664816241512 148.0 C52.62810554397242 148.0 54.45356090285595 151.28399660901042 53.0 154.0 C51.81317031425472 156.217611552896 48.05924931724955 156.65924931724956 46.2 154.8 Z M85.15334997775668 154.25 C83.7257932259956 151.5257071607282 85.52643172693347 148.0 88.34533108050299 148.0 C91.55092378786566 148.0 93.37751003201437 150.35974421720795 92.59261527653426 153.48701401454747 C92.09754480505421 155.45953188679027 91.32835017947204 156.0 89.01613173027309 156.0 C87.22664868493084 156.0 85.71041674206424 155.31308417870412 85.15334997775668 154.25 Z M124.40855137077767 154.62228451503404 C123.53309527262498 152.34088249327948 124.29908778327788 149.84089174039002 126.25 148.61229814969366 C128.8152123458137 146.99684696750916 131.5 149.040705925412 131.5 152.60898649570066 C131.5 155.14098000854366 131.0955455523235 155.53897804444443 128.2431249013084 155.81387124823584 C126.04699917665893 156.02551606162018 124.79809605665194 155.63742169414857 124.40855137077767 154.62228451503404 Z M163.40738472346573 153.48701401454747 C162.62248996798564 150.35974421720795 164.44907621213432 148.0 167.654668919497 148.0 C169.23529666274675 148.0 170.35678024457326 148.7741751624505 170.91405798478615 150.25 C172.15337670615665 153.53205707613552 170.46650994150875 156.0 166.9838682697269 156.0 C164.67164982052796 156.0 163.9024551949458 155.45953188679027 163.40738472346573 153.48701401454747 Z M203.03207473684517 154.05993219401088 C201.38615205054316 150.98449752283915 203.39070195848734 147.7908470857804 206.7163965969077 148.19006780598912 C210.06505223031948 148.59204479397158 211.89313646223712 151.35579036737693 210.39402324684528 153.75 C208.75005857615434 156.37554956480145 204.37004089860227 156.5599448355326 203.03207473684517 154.05993219401088 Z M66.2 145.8 C62.80570582077406 142.40570582077402 66.79738411607738 136.75082823576096 71.0 139.0 C74.52965281058626 140.8890128573273 73.00190602491809 147.0 69.0 147.0 C68.12 147.0 66.86 146.46 66.2 145.8 Z M105.010777410693 145.51298598545253 C104.33062813092188 144.69345623899792 104.0463178693526 142.9515909191773 104.3773941780947 141.63247783590737 C105.18368784389149 138.41994798878144 108.62029322566191 137.62029322566192 111.07421258751774 140.07421258751774 C113.41025353065713 142.41025353065714 113.47460091647304 143.38254194066982 111.42857142857143 145.42857142857144 C109.4490551358669 147.40808772127596 106.6145145423579 147.4453710132445 105.010777410693 145.51298598545253 Z M144.57142857142856 145.42857142857144 C142.52539908352696 143.38254194066982 142.58974646934286 142.41025353065714 144.92578741248226 140.07421258751774 C147.37970677433808 137.62029322566192 150.81631215610852 138.41994798878144 151.62260582190532 141.63247783590737 C152.75922442238848 146.16112705361195 147.91300816781023 148.77015102495307 144.57142857142856 145.42857142857144 Z M184.2 145.8 C180.80570582077408 142.40570582077402 184.7973841160774 136.750828235761 189.0 139.0 C192.52965281058627 140.88901285732732 191.0019060249181 147.0 187.0 147.0 C186.12 147.0 184.86 146.46 184.2 145.8 Z M46.2 136.8 C43.51019258068856 134.11019258068853 45.60446640558735 130.0 49.664816241512 130.0 C52.62810554397242 130.0 54.45356090285595 133.28399660901042 53.0 136.0 C51.81317031425472 138.217611552896 48.05924931724955 138.65924931724956 46.2 136.8 Z M85.18542471460185 136.30993219401088 C84.62294074969934 135.2372674359397 84.59253335378892 133.55612571535883 85.11077700589877 132.18286462741486 C85.77547084993762 130.42153443514277 86.62243580802536 129.94179968430433 88.64174888820463 130.18286462741486 C92.05546037719832 130.59039240206636 93.90576124211042 133.33562753426196 92.39402324684526 135.75 C90.84333599980941 138.22657769001026 86.37257620459609 138.57384662582797 85.18542471460185 136.30993219401088 Z M124.40855137077767 136.62228451503404 C123.53309527262498 134.34088249327948 124.29908778327788 131.84089174039002 126.25 130.61229814969366 C128.8152123458137 128.99684696750916 131.5 131.040705925412 131.5 134.60898649570066 C131.5 137.14098000854366 131.0955455523235 137.53897804444443 128.2431249013084 137.81387124823584 C126.04699917665893 138.02551606162018 124.79809605665194 137.63742169414857 124.40855137077767 136.62228451503404 Z M164.2 136.8 C161.48729913423279 134.08729913423275 163.61042515351946 130.0 167.73222420405483 130.0 C170.47427307017873 130.0 172.25214310003113 133.56781260342896 170.84665002224332 136.25 C169.79510435425968 138.25672815978848 165.97300127296256 138.57300127296256 164.2 136.8 Z M203.03207473684517 136.05993219401088 C201.38615205054316 132.98449752283915 203.39070195848734 129.7908470857804 206.7163965969077 130.19006780598912 C210.06505223031948 130.59204479397158 211.89313646223712 133.35579036737693 210.39402324684528 135.75 C208.75005857615434 138.37554956480145 204.37004089860227 138.5599448355326 203.03207473684517 136.05993219401088 Z M27.25 128.33771929824562 C25.198653729368523 127.50998308378027 25.740447479357265 122.20927581049861 28.0 121.0 C30.716003390989584 119.54643909714405 34.0 121.37189445602759 34.0 124.335183758488 C34.0 128.1254826125729 31.05369928651131 129.87254532613613 27.25 128.33771929824562 Z M66.2 127.8 C62.805705820774044 124.40570582077405 66.79738411607741 118.75082823576095 71.0 121.0 C74.52965281058626 122.88901285732727 73.00190602491809 129.0 69.0 129.0 C68.12 129.0 66.86 128.46 66.2 127.8 Z M105.2 127.8 C103.53912749255443 126.13912749255442 103.69990881913625 123.44294832372088 105.57142857142857 121.57142857142857 C107.62615360751518 119.51670353534196 108.58899663767471 119.58899663767471 110.97731879764632 121.97731879764632 C113.78800322897766 124.78800322897766 111.99220668739027 128.94475341931818 107.95 128.98468722548296 C107.09750000000001 128.99310925146733 105.86 128.46 105.2 127.8 Z M145.42705848486975 128.23468722548296 C143.2149940165713 126.71999561938333 143.03683604044866 123.96316395955132 145.02268120235368 121.97731879764632 C147.4110033623253 119.58899663767471 148.3738463924848 119.51670353534196 150.42857142857144 121.57142857142857 C154.2424054692194 125.38526261207656 149.83700108441542 131.2543564686904 145.42705848486975 128.23468722548296 Z M184.2 127.8 C180.80570582077405 124.40570582077402 184.7973841160774 118.75082823576096 189.0 121.0 C192.52965281058627 122.88901285732727 191.0019060249181 129.0 187.0 129.0 C186.12 129.0 184.86 128.46 184.2 127.8 Z M223.2 127.8 C219.80570582077405 124.40570582077402 223.7973841160774 118.75082823576096 228.0 121.0 C230.4578220890794 122.31538646332834 230.75098650111138 127.49784183171289 228.4182125317642 128.39301119581566 C226.044257392276 129.3039832576391 224.53214261556275 129.13214261556274 223.2 127.8 Z M243.0 106.08178746823414 C242.99999999999997 105.57677057576292 243.27314496188322 104.45177057576292 243.606988804185 103.58178746823414 C244.15833736373807 102.14499615327578 233.5611054314882 102.0 128.00000000000068 102.0 C22.4388945684627 102.0 11.84166263626296 102.14499615327524 12.39301119581567 103.58178746823579 C12.726855038117051 104.45177057576547 13.0 105.57677057576547 13.0 106.08178746823579 C13.0 106.63408120605611 58.82889020551286 107.0 128.0 107.0 C197.1711097946371 107.0 243.0 106.63408120605665 243.0 106.08178746823414 Z M225.6420332034866 24.819547754243608 C224.7017710090695 24.293350574762275 224.0 22.64786082703732 224.0 20.969361914643677 C224.0 18.65107997790432 224.54049128965016 17.902449378029516 226.58463552087358 17.38940183480279 C230.00711462753034 16.530414259173575 232.4842796128017 18.93434032332341 231.64058871056824 22.295872628671596 C230.95136253924395 25.041968425680682 228.14741292992923 26.221628741240146 225.6420332034866 24.819547754243608 Z" fill="currentColor"/></svg>
