<svg xmlns="http://www.w3.org/2000/svg" xmlns:xlink="http://www.w3.org/1999/xlink" width="256" height="256" xml:space="preserve" version="1.1" viewBox="0 0 256 256">
  <path d="M10.009452631029392 254.1447336679459 C8.106813470730998 253.12433718531614 5.202110910045326 250.62397149997838 3.5545580517278963 248.58836547830649 C-0.4782930884265517 243.60564457562867 -1.3093981516919637 233.45286860496222 1.8211676303555269 227.41327535342214 C4.4212755683204 222.3970592925867 57.91279570626919 169.05073621477442 60.54189388337376 168.85194028612887 C61.61885224751819 168.77050744349972 63.24035348755362 168.6580074434997 64.14522997234138 168.60194028612887 C65.05010645712913 168.545873128758 70.93280590763291 163.8094973739859 77.21789541790532 158.07666083107978 L88.6453308911279 147.65332166215956 L85.3197797834948 142.1306972108448 C76.94981133047182 128.230988278602 73.38520770311256 112.94959071986244 74.26496396754126 94.73888227646538 C75.04901696455968 78.50920468258533 79.51026292094994 65.7214937074776 89.25288154894238 51.77753021849168 C93.33050624627482 45.941496594222926 95.4711271591258 44.47608603621076 98.32105557357718 45.569706181169224 C101.44237017103826 46.76746697587095 101.36051724107794 50.002934319259815 98.09875253096699 54.356859372263955 C93.17860373611005 60.92445728514561 88.33104575295083 69.96369001857461 86.02411895675023 76.87240708255445 C75.67966823811585 107.85166629226603 87.67759066587988 142.44570606406032 115.263308086944 161.1788091079795 C151.7935127045949 185.98599743926306 202.35698796978122 172.39435674873468 221.95390475470725 132.5 C227.70912204260017 120.78383596411982 229.37277129995755 113.51682675000899 229.3941871695315 100.0 C229.40839439987627 91.03297344500245 228.91476303603852 86.747857834956 227.15304220398343 80.5450666635447 C215.0453646727998 37.91550020203423 169.18407656554973 15.14412620529249 128.56094691039317 31.591416042078023 C125.22742610967693 32.94107529412863 119.9075227347338 35.64078570480234 116.73893941051956 37.59077251024182 C109.73815685652927 41.89914385831654 106.63171659734985 41.84912449045145 106.19940014717537 37.421066658025936 C105.88532846138088 34.20414630335494 107.08785670718743 33.06865174130347 117.02916369657062 27.194996990619686 C121.2062996199307 24.727006183505694 137.88649312995923 19.0 140.89750454302012 19.0 C142.76634487770028 19.0 143.00073227347968 18.416555508835373 143.00658920570265 13.75 C143.01757782078516 4.99473695521268 147.58047284164837 0.10317340344836073 155.79965992688423 0.03543541572939546 C164.15285234965924 -0.033406969762046365 168.5333150991068 4.17789241763011 169.60650874730743 13.30909559845719 L170.24438551195558 18.736431431181074 L175.6312892272158 19.941967656316294 C182.7132490845385 21.526840823581267 191.24275234636883 25.040410943081973 199.12022801220158 29.617798817906973 C207.7205757487398 34.61522808566811 221.6296751319247 48.68818647985616 226.82544819388863 57.649406054106294 C230.65337739515584 64.25148695297328 236.9999999999999 80.85037777083777 236.99999999999994 84.25982313191491 C236.99999999999997 85.29222330753005 238.64105515772567 85.91751099044622 242.55912011713332 86.37800259756573 C251.82594675241214 87.46713611995187 256.0337477783951 91.80579463692101 255.9645645842706 100.20034007311575 C255.89750520274538 108.337186488784 250.99280054198417 112.98225839155926 242.45643491373983 112.99341079429733 L237.41286982747962 113.0 L236.28239428631508 118.38957605404292 C230.29067520599375 146.9552765066028 206.38141464687243 171.69183254502582 177.0 179.72322812283852 C166.95369817717216 182.46937989949646 144.05397308276332 182.2057549893765 133.70081788571 179.22476174622972 C126.0289598990192 177.01579680893062 115.92130304317027 172.45465141780988 110.9908297778309 168.97673304205784 L108.4816595556618 167.20678343399092 L98.0212529568725 178.66722448173073 C92.26802932753839 184.97046705798763 87.51162853570702 190.8864407853397 87.45147341946947 191.81383276473528 C87.3913183032319 192.74122474413088 87.26512787266319 194.3582986393095 87.17105024042786 195.4073303095767 C87.07697260819252 196.4563619798439 81.73643886623236 202.6438619798439 75.30319748051637 209.1573303095767 C63.71038451593607 220.8947136238367 60.98846233519221 222.5884623351928 58.19999999999989 219.79999999999987 C56.09876179657781 217.69876179657734 56.89090957479761 215.07366296133046 60.957493893222036 210.6619398976722 L64.91498778644406 206.36856597107948 L57.19188017083333 198.69075478364348 L49.46877255522261 191.0129435962075 L29.253883564247506 211.25647179810375 C14.03470276354495 226.49721419774426 8.885441355656294 232.2745655194879 8.417648984200405 234.634241512179 C7.5268780442832695 239.1275400996861 10.332532786456422 244.45538318300174 14.674494668714848 246.5157790023526 C20.791569103894663 249.41852088141005 23.412901919604383 248.12666688298097 35.00216309979484 236.49782951343167 C43.19124326531994 228.28078444295994 46.05797513786817 226.0 48.1969490216403 226.0 C50.63075744685261 226.0 52.99999999999998 228.2588354616456 53.0 230.57922801512996 C53.000000000000014 232.15510877251143 32.244413397669696 252.31072340596037 28.789838067296436 254.08955819650782 C23.865197568284074 256.6253610124318 14.685138704447201 256.65233138944353 10.009452631029392 254.1447336679459 Z M20.57142857142857 235.42857142857144 C18.468644541807492 233.32578739895035 18.590677589382558 231.79008650508996 21.115634054904707 228.58012451992604 C22.74986489081393 226.50253667638023 23.944479287319343 225.95987257602653 26.365634054904707 226.19526582812477 C29.06786340564894 226.4579861479089 29.54201385209108 226.93213659435105 29.804734171875236 229.63436594509528 C30.04012742397346 232.05552071268067 29.49746332361977 233.2501351091861 27.41987548007395 234.88436594509528 C24.20991349491006 237.40932241061745 22.674212601049657 237.5313554581925 20.57142857142857 235.42857142857144 Z M71.29524770509536 184.79403973743462 L63.565345223110974 177.0185335066701 L59.77009751801562 180.7244937692355 L55.974849812920255 184.4304540318009 L63.70475229490464 192.20596026256538 L71.43465477688902 199.9814664933299 L75.22990248198438 196.2755062307645 L79.02515018707975 192.5695459681991 L71.29524770509536 184.79403973743462 Z M94.26079069354921 169.68300668294032 L101.33268003254732 161.86601336588063 L97.681713641047 158.21504697438036 L94.03074724954669 154.56408058288005 L89.76537362477335 158.52044462269595 C87.419418131148 160.6964448445947 82.68950665313237 165.16703815480344 79.25445922918303 168.45509642315977 L73.00891845836607 174.43338418380768 L77.20640277266673 178.71030910320337 L81.40388708696742 182.98723402259904 L84.29639422075925 180.24361701129953 C85.88727314434477 178.73462765508478 90.37125155710025 173.98235300732316 94.26079069354921 169.68300668294032 Z M142.5 162.43324790509797 C124.61064898431144 158.90950477155758 107.32040820364294 145.5649696954466 99.13736815702987 128.96615112134634 C87.04791438305519 104.44340056518416 91.05463215630505 75.84280886129515 109.31403950967882 56.3234448631271 C133.15315518069747 30.83935509111877 173.58457120740633 29.17554954122036 198.92389828351227 52.63588219515072 C207.66999036804134 60.73342279315824 212.61637347530015 68.19578301501228 216.27675214834574 78.81526288779213 C224.39576058196715 102.37010634775446 218.59939234419318 127.65511674157584 201.09438763751473 145.04401660247595 C192.65875992943106 153.4236936112881 180.98000497056833 160.3616419033261 176.2308763773695 159.81457699945435 C173.95896785301298 159.55286974219825 173.4472332760381 158.95242048024926 173.18603596301406 156.24188079752872 C172.8938174754487 153.20942308423847 173.2008763350965 152.84281956904286 177.61937711722743 150.94882899286694 C193.22296311497036 144.26035109244603 205.78018501335393 129.32306098213812 209.91524255099205 112.53167627776635 C212.35841559219813 102.61059100607872 210.70388265561317 82.0 207.46428595320134 82.0 C205.567313893969 81.99999999999999 203.9830252009409 78.78091564760268 204.64123807384496 76.26390575499522 C204.9374437825873 75.13121338472621 204.67044593675251 73.25273969196424 204.04790952754541 72.08951977107972 C203.1435348746717 70.3996802747752 202.53567703545227 70.17813059234292 201.02375402767376 70.9872872301903 C198.43924626942487 72.37047380609135 197.40761685301135 72.26475971015368 195.57142857142878 70.42857142857167 C193.5561527494133 68.41329560655672 193.57966577993423 66.56319136292349 195.64682539682514 64.49603174603197 C197.17592592592533 62.96693121693131 197.1455727672589 62.70112832281494 195.22222222222197 60.777777777777516 C193.29887167718482 58.85442723273989 193.0330687830689 58.82407407407349 191.5039682539685 60.35317460317433 C189.43680863707826 62.42033422006518 187.5867043934429 62.44384725058631 185.57142857142833 60.42857142857119 C183.73524028984696 58.59238314698928 183.62952619390913 57.56075373057426 185.0127127698097 54.97624597232624 C185.82186940765703 53.46432296454775 185.60031972522475 52.8564651253283 183.91048022892028 51.952090472454586 C182.74726030803575 51.3295540632475 180.86878661527376 51.0625562174127 179.73609424500472 51.35876192615502 C177.23524028383633 52.012749928080886 174.0 50.43677785514098 174.0 48.56455700015823 C174.0 44.891895534031185 151.8432763250079 43.46956071189208 141.37016318795452 46.46990826872726 C117.870725452229 53.20204986547327 101.0 75.15542309395173 101.0 99.00240085591778 C101.0 110.0905452512134 102.52489938214809 116.45868225214919 105.67415495859397 118.52215375790895 C107.65403125708846 119.81941853293338 108.09648796559202 120.77052236150661 107.68413216484562 122.84279570879376 C107.08397754720156 125.85884256964535 109.29479223791995 130.9500671225507 110.4165038602788 129.1350995919983 C111.33993885216549 127.64095038872466 115.28101898166706 127.68101898166708 116.8 129.2 C118.45012241055466 130.85012241055466 118.30356849873321 133.55357435840963 116.46428571428571 135.39285714285717 C115.08333333333331 136.77380952380955 115.13732004429677 137.1373200442968 117.0 139.0 C118.86267995570323 140.86267995570321 119.22619047619048 140.91666666666669 120.60714285714286 139.53571428571428 C122.4464256415905 137.69643150126666 125.14987758944523 137.54987758944523 126.8 139.2 C128.31898101833286 140.71898101833287 128.35904961127528 144.66006114783454 126.86490040800169 145.5834961397212 C125.04993287744942 146.70520776207997 130.14115743035487 148.9160224527984 133.15720429120623 148.3158678351544 C135.22947763849336 147.90351203440798 136.18058146706662 148.34596874291154 137.47784624209103 150.325845041406 C139.35806050113302 153.19541470770523 145.78127403898606 155.0 154.1149625569897 155.0 C156.87404875014363 155.0 160.00189925383847 155.4658326913196 161.06574145408933 156.03518375848802 C163.227859805648 157.19231438417103 163.63712000221128 160.9628799977887 161.8 162.8 C160.2454954951522 164.35450450484782 151.4005431842098 164.1864265364879 142.5 162.43324790509797 Z M144.71405995852712 151.3807266251938 C143.48790337151908 150.1545700381857 143.93251619349073 146.3008960158705 145.44495794406143 145.04568084912805 C146.2396848132952 144.38611612916208 147.9271848132952 143.99351600721312 149.19495794406143 144.17323613368586 C151.10038431916948 144.44335028960901 151.5 145.1067806352181 151.5 148.0 C151.5 151.1661246621067 151.210392712237 151.52836922451633 148.46405995852712 151.79739329186046 C146.79429293571704 151.96095960238372 145.10679293571704 151.7734596023837 144.71405995852712 151.3807266251938 Z M159.03207473684517 146.05993219401088 C157.38615205054316 142.98449752283915 159.39070195848734 139.7908470857804 162.7163965969077 140.19006780598912 C166.06505223031948 140.59204479397158 167.89313646223712 143.35579036737693 166.39402324684528 145.75 C164.75005857615434 148.37554956480145 160.37004089860227 148.5599448355326 159.03207473684517 146.05993219401088 Z M174.2 142.8 C170.80570582077408 139.40570582077402 174.7973841160774 133.750828235761 179.0 136.0 C182.52965281058627 137.88901285732732 181.0019060249181 144.0 177.0 144.0 C176.12 144.0 174.86 143.46 174.2 142.8 Z M134.71405995852712 141.3807266251938 C133.48790337151908 140.1545700381857 133.93251619349073 136.3008960158705 135.44495794406143 135.04568084912805 C136.2396848132952 134.38611612916208 137.9271848132952 133.99351600721312 139.19495794406143 134.17323613368586 C141.10038431916948 134.44335028960901 141.5 135.1067806352181 141.5 138.0 C141.5 141.1661246621067 141.210392712237 141.52836922451633 138.46405995852712 141.79739329186046 C136.79429293571704 141.96095960238372 135.10679293571704 141.7734596023837 134.71405995852712 141.3807266251938 Z M189.7506817890797 139.25196072601807 C187.50645246339437 138.74091546154654 186.39783626294704 134.4304892032638 188.01077741069298 132.48701401454747 C190.82032868750161 129.10171182572643 197.18708350658596 132.46412667835807 195.63349010414498 136.51272618756514 C194.93512155768056 138.33264544701825 191.90650094814487 139.74287364640819 189.7506817890797 139.25196072601807 Z M148.8614315412384 135.59522047687796 C147.3777604363042 132.3389171080715 149.25967355820077 129.76955933883238 152.81354227923683 130.19944194097184 C158.3042019639481 130.86360239764667 158.1753542977832 137.1561403443706 152.65759168326338 137.81560661190505 C150.63663909372724 138.05714474143213 149.74573310514103 137.53605099652646 148.8614315412384 135.59522047687796 Z M164.04568084912805 132.55504205593857 C162.44569744560258 130.62717999385703 163.08005969846528 126.9675007148281 165.25 125.60724240062454 C169.16749664739925 123.15150323502607 173.15360740286746 129.9520754580184 169.40384014996886 132.69397221711966 C167.08954432000476 134.38622664461113 165.5319104805725 134.34583920776512 164.04568084912805 132.55504205593857 Z M124.4140436700268 130.63659721744997 C124.0993302971023 129.81646731398803 123.98992409151352 128.1002252522819 124.1709187687184 126.82272596921412 C124.44367827704242 124.89753081035639 125.09901936547345 124.5 128.0 124.5 C131.33333333333334 124.5 131.5 124.66666666666667 131.5 128.0 C131.5 131.21931890075285 131.23881620491102 131.52517077913626 128.2431249013084 131.81387124823584 C126.05906235262657 132.02435351040654 124.79776547281192 131.6365602064708 124.4140436700268 130.63659721744997 Z M177.40738472346573 126.48701401454746 C177.045638093176 125.04570063680357 177.30295724192433 123.33988514254698 178.01077741069298 122.48701401454746 C179.7820317548067 120.35278309390806 183.73867223435423 120.643187511502 185.0 123.0 C186.6188644243276 126.02487584619757 184.6274493383963 129.0 180.9838682697269 129.0 C178.67164982052796 129.0 177.9024551949458 128.45953188679027 177.40738472346573 126.48701401454746 Z M139.01077741069298 126.51298598545254 C137.32534754946798 124.48216724033588 138.52758469351383 120.35680210573665 140.9927134596121 119.7121564521866 C142.1337149423192 119.41377786173047 143.96579645508714 119.96146934470474 145.21769105471014 120.97519209141225 C147.1555060625606 122.54433948845407 147.28101361841155 123.08782647987096 146.2354778690917 125.38252748968047 C144.88316206437207 128.35053737809443 141.03546968136783 128.95259092599318 139.01077741069298 126.51298598545254 Z M192.08594201521385 122.75 C190.84662329384335 119.46794292386448 192.53349005849125 117.0 196.0161317302731 117.0 C198.32835017947204 117.0 199.0975448050542 117.54046811320973 199.59261527653427 119.51298598545256 C200.37751003201436 122.64025578279207 198.55092378786568 125.0 195.345331080503 125.0 C193.76470333725325 125.0 192.64321975542674 124.2258248375495 192.08594201521385 122.75 Z M154.59615985003114 122.69397221711966 C150.84639259713254 119.95207545801841 154.83250335260072 113.15150323502607 158.75 115.60724240062453 C161.21343474501867 117.15148193156445 161.5781139857748 121.10410437153894 159.40384014996886 122.69397221711966 C158.4214854688706 123.41228749770386 157.33975740138462 124.0 157.0 124.0 C156.66024259861538 124.0 155.5785145311294 123.41228749770386 154.59615985003114 122.69397221711966 Z M114.3895339723797 120.5727259692141 C114.08830093316111 119.78772525228187 113.98992409151352 118.10022525228187 114.1709187687184 116.8227259692141 C114.44367827704242 114.89753081035639 115.09901936547345 114.5 118.0 114.5 C120.89321936478193 114.5 121.55664971039097 114.89961568083051 121.82676386631412 116.80504205593857 C122.0064839927869 118.0728151867048 121.61388387083791 119.7603151867048 120.95431915087195 120.55504205593857 C119.41111876958537 122.41448476185461 115.1007387317563 122.42609586331507 114.3895339723797 120.5727259692141 Z M167.42264440660753 116.54781343494503 C166.58259920938315 113.20080677534136 168.5881464085875 110.81278693083316 171.9144041776623 111.19944194097184 C174.14545501099525 111.4587865385561 174.5 111.97993095084547 174.5 115.0 C174.5 118.20995671256321 174.23351748496856 118.52575579589302 171.2843117113567 118.81079942039757 C168.54557466582105 119.07550103634088 167.9728117435027 118.73985470435386 167.42264440660753 116.54781343494503 Z M129.2 116.8 C127.0626432154351 114.6626432154351 127.7899286547792 111.05283732800771 130.61747251031954 109.76452213090828 C132.91945941125763 108.71566670743132 133.4558042020934 108.84467138775406 135.06733552885225 110.83482833317657 C138.57271048996927 115.163783165974 133.11376004485686 120.71376004485681 129.2 116.8 Z M182.0 113.0 C180.3811355756724 109.97512415380243 182.3725506616037 107.0 186.0161317302731 107.0 C188.32835017947204 107.0 189.0975448050542 107.54046811320973 189.59261527653427 109.51298598545256 C189.95436190682403 110.95429936319644 189.69704275807567 112.66011485745304 188.98922258930702 113.51298598545256 C187.2179682451933 115.64721690609194 183.26132776564583 115.356812488498 182.0 113.0 Z M143.18045224575638 111.35796679651341 C141.77837125875985 108.85258707007075 142.95803157431934 106.04863746075604 145.7041273713284 105.35941128943175 C149.0656596766766 104.5157203871983 151.46958574082643 106.99288537246969 150.61059816519722 110.41536447912642 C150.09755062197047 112.45950871034982 149.34892002209568 113.0 147.03063808535632 113.0 C145.35213917296267 113.0 143.7066494252377 112.2982289909305 143.18045224575638 111.35796679651341 Z M105.16992415660444 111.12618063821172 C104.41445799965148 110.64725728023112 103.98244527699674 109.03382488368639 104.16992415660444 107.39149341272878 C104.4638739050601 104.81646776835218 104.88306751257211 104.5 108.0 104.5 C110.89321936478193 104.5 111.55664971039097 104.89961568083051 111.82676386631412 106.80504205593857 C112.40694979583411 110.89776192393573 108.6532324347277 113.33440357723653 105.16992415660444 111.12618063821172 Z M197.04568084912805 109.55504205593857 C194.20142330724795 106.12792137600046 198.124210816274 100.3343642577446 201.75 102.60724240062453 C205.31833792764536 104.84410639662227 204.03475339915704 111.0 200.0 111.0 C199.03468918698638 111.0 197.70524556909402 110.34976892517236 197.04568084912805 109.55504205593857 Z M157.41404367002679 107.63659721744997 C157.0993302971023 106.81646731398801 156.98992409151353 105.10022525228187 157.17091876871842 103.8227259692141 C157.4436782770424 101.89753081035639 158.09901936547345 101.5 161.0 101.5 C164.33333333333334 101.5 164.5 101.66666666666667 164.5 105.0 C164.5 108.21931890075285 164.23881620491102 108.52517077913626 161.2431249013084 108.81387124823586 C159.05906235262654 109.02435351040653 157.7977654728119 108.63656020647079 157.41404367002679 107.63659721744997 Z M119.59615985003114 106.69397221711966 C115.84639259713254 103.9520754580184 119.83250335260074 97.15150323502607 123.75 99.60724240062453 C125.91994030153471 100.96750071482808 126.55430255439742 104.62717999385704 124.95431915087195 106.55504205593857 C123.46808951942751 108.34583920776514 121.91045567999524 108.38622664461113 119.59615985003114 106.69397221711966 Z M171.97978467244857 102.96222731495337 C169.8867849118958 99.0514214891826 172.6412624921836 95.78198548628174 177.2030124836606 96.76250030336331 C181.41231628299576 97.66725938760885 179.89635279137394 105.0 175.5 105.0 C174.07881125587235 105.0 172.61770998584907 104.15420166634767 171.97978467244857 102.96222731495337 Z M245.77749375659457 103.44329603135094 C250.07658636463987 100.43209435558896 247.22489708794075 95.0 241.34501243788793 95.0 L238.0 95.0 L238.0 100.0 C238.0 104.79987729030208 238.11116791534775 105.0 240.77749375659457 105.0 C242.30511532272158 105.0 244.55511532272158 104.29948321410792 245.77749375659457 103.44329603135094 Z M133.03207473684517 101.05993219401088 C131.38615205054316 97.98449752283913 133.39070195848734 94.79084708578038 136.7163965969077 95.19006780598912 C140.06505223031948 95.59204479397157 141.89313646223712 98.35579036737693 140.39402324684528 100.75 C138.75005857615434 103.37554956480146 134.37004089860227 103.5599448355326 133.03207473684517 101.05993219401088 Z M187.59615985003114 99.69397221711966 C185.42188601422515 98.10410437153894 185.78656525498127 94.15148193156446 188.25 92.60724240062453 C192.16749664739925 90.15150323502608 196.1536074028674 96.95207545801843 192.40384014996886 99.69397221711966 C191.4214854688706 100.41228749770386 190.33975740138462 101.0 190.0 101.0 C189.66024259861538 101.0 188.5785145311294 100.41228749770386 187.59615985003114 99.69397221711966 Z M148.16992415660445 98.12618063821172 C147.4144579996515 97.64725728023112 146.98244527699674 96.03382488368639 147.16992415660445 94.39149341272878 C147.4638739050601 91.81646776835218 147.8830675125721 91.5 151.0 91.5 C154.1169324874279 91.5 154.5361260949399 91.81646776835218 154.83007584339555 94.39149341272878 C155.1646406198719 97.32231027397083 153.78662737222749 98.96937445096587 151.0 98.96937445096587 C150.175 98.96937445096587 148.901465870472 98.5899372352265 148.16992415660445 98.12618063821172 Z M109.59615985003114 96.69397221711966 C107.42188601422517 95.10410437153894 107.78656525498128 91.15148193156446 110.25 89.60724240062453 C114.16749664739926 87.15150323502607 118.15360740286744 93.95207545801843 114.40384014996886 96.69397221711966 C113.42148546887061 97.41228749770386 112.33975740138463 98.0 112.0 98.0 C111.66024259861538 98.0 110.57851453112939 97.41228749770386 109.59615985003114 96.69397221711966 Z M201.2 94.8 C198.51019258068857 92.11019258068853 200.60446640558737 88.0 204.664816241512 88.0 C207.62810554397242 88.0 209.45356090285597 91.28399660901043 208.0 94.0 C206.8131703142547 96.217611552896 203.05924931724957 96.65924931724955 201.2 94.8 Z M162.2 93.8 C159.7420836868824 91.34208368688239 162.00219601594804 86.0 165.5 86.0 C167.25090083006793 86.0 170.0 88.74909916993208 170.0 90.5 C170.0 93.99780398405197 164.6579163131176 96.25791631311759 162.2 93.8 Z M123.24297620117684 91.84297620117684 C120.37918576550875 88.97918576550875 122.93225158785404 84.55608698333802 127.09283039816614 85.17323613368588 C130.12902785248735 85.62360296115192 131.817688387846 88.47628727489224 130.39402324684528 90.75 C129.04876206915415 92.89849501488784 124.92827597062863 93.52827597062863 123.24297620117684 91.84297620117684 Z M176.71405995852712 89.3807266251938 C176.32132698133722 88.98799364800388 176.0 87.40024007936339 176.0 85.85238536154824 C176.0 83.68059653300634 176.57370760572476 82.89411261338404 178.51298598545253 82.40738472346574 C181.79685707126967 81.5831855465596 184.18377254831626 83.6177440056932 183.80055805902816 86.9144041776623 C183.56040139696287 88.98038791521508 182.8898848688557 89.5597653921969 180.46405995852712 89.79739329186046 C178.79429293571704 89.96095960238372 177.10679293571704 89.77345960238372 176.71405995852712 89.3807266251938 Z M138.16992415660445 88.12618063821172 C137.4144579996515 87.64725728023112 136.98244527699674 86.03382488368639 137.16992415660445 84.39149341272878 C137.4638739050601 81.81646776835218 137.8830675125721 81.5 141.0 81.5 C143.8932193647819 81.5 144.55664971039096 81.89961568083051 144.82676386631414 83.80504205593857 C145.4069497958341 87.89776192393573 141.6532324347277 90.33440357723654 138.16992415660445 88.12618063821172 Z M191.24297620117684 84.84297620117684 C188.34428949559455 81.94428949559453 190.93643087336457 77.56954529566441 195.19495794406143 78.17323613368588 C197.10038431916948 78.44335028960903 197.5 79.10678063521809 197.5 82.0 C197.5 84.99137343571627 197.1356745996077 85.54257585103471 194.99297620117684 85.79297620117683 C193.6141131118241 85.9541131118241 191.9266131118241 85.52661311182409 191.24297620117684 84.84297620117684 Z M152.75 83.91990120052802 C150.34550468053473 82.51941124506996 150.51931772360797 78.32762086429405 153.0377726850466 76.97978467244857 C155.6138548453003 75.60110733975013 158.96328060900473 76.61331066679286 159.11848261840305 78.81738767055707 C159.50300638851968 84.2781417058957 156.91926121481254 86.34827292816536 152.75 83.91990120052802 Z M113.2 81.8 C110.51019258068855 79.11019258068855 112.60446640558735 75.0 116.664816241512 75.0 C119.62810554397241 75.0 121.45356090285595 78.28399660901042 120.0 81.0 C118.81317031425472 83.217611552896 115.05924931724955 83.65924931724955 113.2 81.8 Z M166.15334997775668 78.25 C164.7257932259956 75.52570716072817 166.52643172693348 72.0 169.345331080503 72.0 C172.55092378786568 72.0 174.37751003201436 74.35974421720795 173.59261527653427 77.48701401454746 C173.0975448050542 79.45953188679027 172.32835017947204 80.0 170.0161317302731 80.0 C168.22664868493086 80.0 166.71041674206424 79.31308417870412 166.15334997775668 78.25 Z M128.25 78.33771929824562 C126.19865372936852 77.50998308378027 126.74044747935726 72.20927581049861 129.0 71.0 C131.71600339098958 69.54643909714405 135.0 71.37189445602759 135.0 74.335183758488 C135.0 78.12548261257291 132.05369928651132 79.87254532613612 128.25 78.33771929824562 Z M181.0876403113482 74.60560011496675 C180.40499788716116 73.78306631326747 179.99351600721312 72.0728151867048 180.17323613368586 70.80504205593857 C180.44335028960904 68.89961568083051 181.1067806352181 68.5 184.0 68.5 C187.33333333333334 68.5 187.5 68.66666666666667 187.5 72.0 C187.5 75.02006904915453 187.14545501099525 75.5412134614439 184.9144041776623 75.80055805902816 C183.4923264753766 75.96586499149366 181.7702827355352 75.42813391666603 181.0876403113482 74.60560011496675 Z M142.75 73.91990120052802 C140.61152865171627 72.6743559840074 140.45998631145025 68.69306098648998 142.48701401454747 67.010777410693 C143.33988514254696 66.30295724192433 145.04570063680356 66.04563809317598 146.48701401454747 66.40738472346574 C148.45953188679027 66.90245519494579 149.0 67.67164982052796 149.0 69.98386826972691 C149.0 71.87280316298146 148.30606083995661 73.30101745085804 147.06574145408933 73.96481624151201 C144.76370746462277 75.19682744416184 144.94559937933911 75.19872044050814 142.75 73.91990120052802 Z M156.03207473684517 68.05993219401088 C154.38615205054316 64.98449752283913 156.39070195848734 61.79084708578039 159.7163965969077 62.19006780598911 C163.06505223031948 62.592044793971574 164.89313646223712 65.35579036737693 163.39402324684528 67.75 C161.75005857615434 70.37554956480146 157.37004089860227 70.5599448355326 156.03207473684517 68.05993219401088 Z M118.42705848486975 68.23468722548293 C116.31800072457108 66.7905285528558 116.1091349930321 64.08679191327866 117.93266447114775 61.83482833317658 C119.54419579790661 59.84467138775406 120.08054058874237 59.715666707431325 122.38252748968047 60.764522130908276 C124.11165423502514 61.55236500003786 125.0 62.74499709857508 125.0 64.27856120885019 C125.0 68.12065321489946 121.41324454860457 70.27945175645071 118.42705848486975 68.23468722548293 Z M171.04568084912805 64.55504205593857 C170.38611612916208 63.760315186704794 169.99351600721312 62.072815186704794 170.17323613368586 60.80504205593857 C170.44335028960901 58.899615680830514 171.1067806352181 58.5 174.0 58.5 C176.8932193647819 58.5 177.55664971039099 58.899615680830514 177.82676386631414 60.80504205593857 C178.21795423237674 63.56455844868904 176.42393398670166 66.0 174.0 66.0 C173.03468918698638 66.0 171.70524556909402 65.34976892517236 171.04568084912805 64.55504205593857 Z M131.71405995852712 63.3807266251938 C130.47356137357656 62.1402280402432 130.94021606566304 58.294505689546206 132.48701401454747 57.010777410692995 C133.35566142879424 56.28986408725244 135.0443225359045 56.04529221186791 136.54781343494503 56.42264440660753 C138.73985470435386 56.972811743502696 139.07550103634088 57.545574665821036 138.8107994203976 60.28431171135671 C138.54338280110267 63.051139557287605 138.07622963771817 63.54151151251681 135.46405995852712 63.797393291860466 C133.79429293571704 63.960959602383724 132.10679293571704 63.773459602383724 131.71405995852712 63.3807266251938 Z M146.24297620117684 58.84297620117684 C143.37918576550874 55.97918576550875 145.93225158785404 51.55608698333802 150.09283039816614 52.173236133685876 C153.12902785248735 52.62360296115192 154.817688387846 55.47628727489225 153.39402324684528 57.75 C152.04876206915415 59.89849501488786 147.92827597062865 60.52827597062864 146.24297620117684 58.84297620117684 Z M161.2 54.8 C157.80570582077405 51.40570582077404 161.7973841160774 45.75082823576096 166.0 48.0 C169.52965281058627 49.88901285732728 168.0019060249181 56.0 164.0 56.0 C163.12 56.0 161.86 55.46 161.2 54.8 Z M161.0 14.828740671584068 C161.0 11.392860297221082 158.60207888291933 8.000000000000004 156.173753109472 8.0 C153.46264139921763 7.9999999999999964 151.0 11.16769036615436 151.0 14.654987562112089 L151.0 18.0 L156.0 18.0 C160.94889285670675 18.0 161.0 17.96758519901652 161.0 14.828740671584068 Z" fill="currentColor"/></svg>
