<svg xmlns="http://www.w3.org/2000/svg" xmlns:xlink="http://www.w3.org/1999/xlink" width="256" height="256" xml:space="preserve" version="1.1" viewBox="0 0 256 256">
  <path d="M10.5 254.83574469677336 C7.314273972363145 253.07811922776196 2.942734673671714 248.73216275069325 1.4107235918476002 245.7996599268842 C-0.2491784035897857 242.62235439259874 -0.4494252123376876 233.32881373810878 1.0555327437582847 229.31509966117451 C1.6360757528253402 227.76679484752853 19.3964916368285 209.175 40.523123597098646 188.0 L78.93518170668072 149.5 L102.55319065047453 101.0 C115.54309556956113 74.325 128.81032598533898 47.1 132.0359249077586 40.5 C140.92798383730818 22.305676915652278 150.25602171411433 12.533370766638424 165.5 5.442124901947622 C175.1767422199122 0.9406649179638844 182.76876177464982 -0.3470621297068911 196.2318313379185 0.22951840732937967 C205.27137984500138 0.6166535779742122 208.87932234303284 1.2428328775997217 214.47401787640257 3.3955554482573547 C232.9283735221749 10.496407976986369 247.21092306589313 25.192737977072788 253.08417996846003 43.12429447519597 C255.1841894804229 49.53580342756279 255.4946985329891 52.33016417463054 255.45944596709876 64.5 C255.4229800983197 77.08869035664405 255.1585795055172 79.17960116039566 252.8366279932676 85.24155121828184 C247.60022080703138 98.91230992200998 238.5155604639685 110.52251552214713 227.66000883157977 117.41729733814154 C224.8220039742109 119.21982427983183 196.4 133.3783843534041 164.5 148.8807641683021 L106.5 177.06690928629854 L68.0 215.477921899391 C46.824999999999996 236.60397883659184 28.23320515247147 254.36392424717468 26.684900338825486 254.94446725624172 C23.0259541636276 256.3164035854725 13.06240685012369 256.2494731538584 10.5 254.83574469677336 Z M54.4679190554988 216.0108226853 L86.5 184.02164537060003 L79.248665780883 176.76810915583812 L71.997331561766 169.5145729410762 L40.498086706598855 201.00191257026665 C15.965276007314479 225.52545102646832 8.868815943276788 233.18234987737554 8.410920136126492 235.62314437108762 C7.257738724884296 241.77012976570867 12.723899583692088 247.86898463184778 19.467919055498793 247.9599623693448 C22.04849493135405 247.99477468796374 26.616345682676297 243.82509178196764 54.4679190554988 216.0108226853 Z M95.31941419379868 175.19954506974645 C96.85116281039512 173.50698190012497 96.51221785898505 172.96541826268478 89.66323521149592 166.16214577843016 L82.3776669111703 158.9252014173674 L80.50131918332045 160.99854231883876 C78.64205493809699 163.0530061844904 78.68789088764457 163.13528850961035 85.53566619957631 170.03594161015508 C89.33654830883447 173.8661737245698 92.72618532840313 177.0 93.06819290972894 177.0 C93.41020049105472 177.0 94.4232500688861 176.1897952813859 95.31941419379868 175.19954506974645 Z M198.4441043009014 122.57879269315107 C223.61729615128553 110.26772126415939 224.5979537534596 109.676897534961 231.44692206212062 102.69535139772783 C243.19355126619254 90.72133866335864 248.77323219239193 76.1698221955116 247.62644519899797 60.5 C247.30443371041972 56.1 246.73532694453232 51.415071379527944 246.36176349702598 50.089047510062095 C245.7838828505522 48.037766700759676 245.47845770922547 48.485313903124606 244.31443660248078 53.089047510062095 C240.28017084238317 69.0446730150146 227.30958007806993 87.9281695266455 212.0 100.13467264358877 C209.525 102.10801842187763 189.05 115.78888776230288 166.5 130.53660451120044 C143.95 145.28432126009795 125.05328234766208 157.74095974923753 124.50729410591572 158.218023375955 C123.54450158857085 159.059274624575 144.8089184480006 148.80934017663316 198.4441043009014 122.57879269315107 Z M212.6280311110699 87.72527420620636 C221.17467297097429 79.63440611380125 229.18781714550641 68.36618316245598 233.33080253277186 58.61267632834558 C235.73396041161135 52.95510947649187 236.43722348771536 49.658782336792626 236.76840136283664 42.5 L237.1847572088263 33.5 L233.55748063255737 39.42910783944878 C222.03554490667088 58.262741834970406 205.03238908150132 75.47928176875934 156.0 117.95990978022141 C134.825 136.30548328771502 116.825 151.95446549362606 116.0 152.73542579335702 C115.175 153.51638609308802 134.96862627038317 140.73289904856355 159.98583615640706 124.32767680552487 C192.0555484048403 103.29772346129667 207.58245238151895 92.50178322809002 212.6280311110699 87.72527420620636 Z M157.0 105.34525923581118 C192.9635703922114 74.03836764932615 208.4331892656835 58.90710034365995 219.35651215516697 44.35260897169491 C225.85005159970095 35.70046485994529 231.56680752383176 26.23347419049839 230.7756930810439 25.44235974771052 C229.87959233534306 24.54625900200967 220.10696676523685 30.25513104127829 211.5 36.702636167642865 C197.6520082162761 47.07620916388499 177.1966709430783 68.2089658637122 144.4239923844883 106.0 C127.96872488885444 124.975 112.92912626322165 142.3 111.0026621053043 144.5 C108.51422592850612 147.34176560796976 109.67168948505672 146.60021881284902 115.0 141.93904411672364 C119.125 138.33051838092163 138.025 121.86331518451104 157.0 105.34525923581118 Z M138.07804187266493 100.0 C181.0979341135171 50.4138301896763 197.75940907604533 33.95090373234071 216.5708921605513 22.442519367442557 L222.5 18.815242791173688 L213.5 19.231598637163366 C202.48521064123233 19.74116218625979 194.02536917199723 23.01286228052338 182.0814403704968 31.3821932878177 C173.11780047947082 37.66318093643463 169.4155373448315 38.50381400192401 168.40738472346578 34.48701401454758 C167.6243133946142 31.367009327574017 168.7097353799287 30.02176544107066 176.4895170159383 24.47022865045743 C184.24027089572425 18.939405636163887 195.70303249007145 13.433681089422342 202.7512197942196 11.856365888370696 C207.58699414852134 10.774167009602712 207.95341934361446 10.526534729269889 205.86587698341725 9.751462425004789 C204.56464464253776 9.268334911973405 199.9 8.628930650459743 195.5 8.330564066085543 C179.68946112743168 7.258442138693787 165.12173822559015 12.908990348784014 153.222327692025 24.729285211200846 C146.2048952772372 31.70006078751185 145.5119806982844 32.84433827481559 133.8448018973538 56.729285211200846 C104.66011228271893 116.47592788242045 96.97314917153972 132.42012472882269 97.80099019097423 131.4908809973698 C98.28650389311684 130.9458964488164 110.30800559546469 112.725 124.51543841841394 91.0 C156.4502440429784 42.16755709215844 157.60214355773863 40.59594458770976 161.75676541935195 40.18920057960244 C164.4634668344584 39.92421025822031 165.02817585151428 40.2640801876144 165.58812728776888 42.495104413918575 C166.09343729002552 44.50841982635681 165.5604133704237 45.96363246403266 163.27657023020123 48.80590383431613 C160.9196590886254 51.739109246729214 110.47669270599074 127.88151248427724 104.1870931043153 138.0 C101.86813555988796 141.73065766484225 102.0622756641654 141.51297936929 138.07804187266493 100.0 Z" fill="currentColor"/></svg>
