<svg xmlns="http://www.w3.org/2000/svg" xmlns:xlink="http://www.w3.org/1999/xlink" width="256" height="256" xml:space="preserve" version="1.1" viewBox="0 0 256 256">
  <path d="M16.5 254.58264174395936 C12.773288454719037 252.91919344349563 8.468943708197619 248.4044023923333 7.063618396326994 244.68490033882546 C5.49483962320557 240.53278280501573 5.770671592524493 232.3585269093017 7.603001160096291 228.7003400731158 C8.484651798149248 226.94015303290212 33.98228145827338 200.67189992860062 64.26440040481657 170.32644428577913 L119.32279848944056 115.1528885715583 L114.51692215304861 109.82644428577915 C111.87369016803304 106.89689992860062 109.10106050790891 103.05195338390342 108.35552290832833 101.28211863089649 C106.41684560844116 96.6798846696098 106.67281974824978 89.54849885853876 108.93241012209742 85.21016193270357 C111.43903837742604 80.39752064811682 189.61920359866158 2.4201842841733363 193.3150996611745 1.0463929401105077 C197.27051505259894 -0.42386361878664713 205.4676222375505 -0.25499467988781577 209.28211863089535 1.3753301480738571 C214.07384749911216 3.423326459289222 241.19129371427235 31.4531177085323 244.27228296015875 37.54271088681246 C248.9151781935353 46.71942034089088 250.30048607948675 53.391960068894626 249.75170283161333 63.93514476340374 C249.20420325866257 74.45366758667426 247.12090850930377 80.99431190789448 241.81153817473466 88.86382702910376 C237.5740045081139 95.14467262184431 184.6232360507309 148.51872800615033 179.0542193224528 152.12282609137708 C175.44528334510738 154.4584195866544 173.5065426719061 154.99999999999997 168.75455939556866 155.0 C161.8184087437051 155.0 158.4831857360284 153.46749206146927 151.7860537656891 147.20310920051244 L146.88651689650183 142.62016609503144 L91.19325844825092 198.26416546643134 C60.40599929633699 229.02419417777037 34.24108873975333 254.3758986940343 32.684900338825486 254.95408241891562 C28.80227464634229 256.39662689737423 20.117429715116277 256.1973112021514 16.5 254.58264174395936 Z M29.799659926884203 246.5647517053563 C31.28484696709789 245.77536514330222 56.91738007688605 220.6814502624477 86.76084461530232 190.8004964145684 L141.02168923060464 136.47148941842428 L133.4999985658484 128.9999985754199 L125.97830790109215 121.52850773241553 L71.02189180774289 176.47811090617364 C40.79586295640081 206.7003926517406 15.557111306264769 232.65501432866424 14.935777029662818 234.1550479660039 C13.301383802848902 238.10082226042877 15.352110887362295 243.6340022575196 19.353094358975326 246.07365579633557 C23.1093460820148 248.3640808565277 26.145759570551512 248.5068234864018 29.799659926884203 246.5647517053563 Z M172.7996599268842 145.57804942926214 C174.2848469670979 144.79597661535632 188.86498077455622 130.72454440469897 205.1999572767916 114.30820007224582 C229.81131501557758 89.5742481700924 235.33723057515206 83.50507726852548 237.45233925512355 78.885071343839 C241.35065055264965 70.37003783213997 242.4913973319841 63.18126920423601 241.19028040086718 55.3292791835923 C239.30403788520866 43.946168983996 236.1074774134638 38.9809188922587 220.57007018052897 23.299695638035445 C206.23981774480382 8.836800744114555 203.67319811210822 7.129822489043473 198.25000000000045 8.45531668742015 C194.82525267952607 9.292365714646358 118.74691836814105 84.90621391338648 116.44165867382925 89.76418810815159 C113.67012497529863 95.60476182772254 115.19063377758887 97.71690612857807 139.7466210598347 122.13719601912997 C152.26097947692563 134.5823995789389 163.4 145.25406620408293 164.5 145.85201074167233 C167.23457857100155 147.3384892136172 169.60511217043637 147.26024088757316 172.7996599268842 145.57804942926214 Z M155.2 128.8 C152.45688075310437 126.05688075310432 154.29255234246745 123.33533630707396 168.84769287484835 108.56609598367243 C177.83260287186067 99.44902186578337 183.87933495404312 92.51281979218498 184.1612432354026 90.99993324958736 C185.46851492269795 83.98434032805154 180.64724346038815 78.0 173.6878737824031 78.0 C169.8224164975337 78.0 168.98567434572917 78.65033538762162 154.57273247420432 92.85673072080806 C146.28272961339195 101.02793261725247 138.70229345894083 107.99272607619332 137.72731879764632 108.33404951845435 C135.3362347126854 109.17113081196287 131.9904942231961 105.75235406262281 132.6674387557913 103.16371419331853 C132.95289622520698 102.0721231533742 140.01542182842135 94.43861679304301 148.36194009626763 86.20036672591587 C160.27763256978446 74.4392405689193 164.3926344744535 70.98430701702114 167.51871392799404 70.11644205451776 C172.95194106512645 68.60806469696239 176.39438498712659 68.72011784903353 180.76847135248875 70.5477278262639 C190.80217705280035 74.7400777514269 195.54079652061594 85.9221616825574 191.46202152272167 95.78211863089648 C189.680175785103 100.08952030678493 160.39727792895292 130.0 157.96209991455657 130.0 C157.10294496155046 130.0 155.86 129.46 155.2 128.8 Z" fill="currentColor"/></svg>
