<svg xmlns="http://www.w3.org/2000/svg" xmlns:xlink="http://www.w3.org/1999/xlink" width="256" height="256" xml:space="preserve" version="1.1" viewBox="0 0 256 256">
  <path d="M60.75 254.97897651015126 C59.7875 254.3858803046397 59.0 253.1003258151808 59.0 252.12218875579816 C59.0 249.40980527061973 71.908256841133 218.92293453547072 74.54729888904 215.40239790065394 C75.82440140768956 213.69871674601362 79.5881092895821 210.5487167460136 82.91109418213455 208.40239790065394 C88.660189113593 204.68905246149578 89.00658228627677 204.23355137925515 90.06129989322027 199.0 C91.67895142179468 190.97314775747515 94.80647037209677 186.88597361600995 103.4564102074566 181.49470287202183 L111.0245521830778 176.7776871243837 L137.2009861351147 140.63884356219185 C151.598024808735 120.76247960298633 170.4528861175616 94.75211444998091 179.10067793250712 82.83803211106869 L194.82393577786263 61.17606422213737 L173.16196788893131 76.89932206749288 C161.24788555001908 85.5471138824384 135.23752039701372 104.40197519126491 115.36115643780826 118.79901386488513 L79.22231287561654 144.97544781692187 L74.5052971279782 152.5435897925433 C69.11402638398998 161.19352962790322 65.02685224252488 164.32104857820528 57.0 165.93870010677975 C51.76644862074484 166.9934177137233 51.31094753850421 167.33981088640707 47.59760209934596 173.08890581786568 C45.45128325398624 176.4118907104182 42.30128325398624 180.1755985923107 40.59760209934596 181.45270111096016 C37.06641346612302 184.09972804145855 6.586364963814232 197.00000000000006 3.8633048891185666 197.0 C0.7616773237748777 197.0 -0.20161014255940735 193.3819704546849 0.15952059759698045 183.08888679181797 C0.4689965406086357 174.26808751096988 0.8359054720605155 172.70674087210332 4.188907516653597 165.94220764757648 C6.217806650813075 161.84899344140942 9.592806650813074 156.87364860833952 11.688907516653597 154.88588579631005 C13.78500838249412 152.89812298428058 51.724999999999994 125.02193260647036 96.0 92.9387960678429 C153.75125182760252 51.09031955374624 177.40565813845654 34.490793561802775 179.7048128359965 34.19877959639501 C182.46007114736102 33.84883624282897 182.99930762529442 34.14906001283397 183.54895607431285 36.33903386826783 C183.90058779558876 37.74004623846676 183.90837598525454 39.33923377566889 183.56626316245902 39.89278395093922 C183.2241503396635 40.44633412620955 157.64428588242114 59.214138598101464 126.72211992414267 81.59901611069903 C95.7999539658642 103.98389362329658 70.11609766349527 122.63796722641138 69.64688369665615 123.05251300650967 C68.89692886260946 123.71509049501175 76.33725063676802 135.0 77.52405343247449 135.0 C77.77758428836223 134.99999999999997 105.68091110629219 114.93013107326428 139.5314463612077 90.40029127392066 L201.07787409741772 45.800582547841344 L208.16160242653137 47.40029127392066 C219.1265873403971 49.876498891305936 220.99259609154788 49.60004804036308 228.68679179803257 44.35946627027835 C243.219675299214 34.46099640436789 245.38024771713611 32.39978682337453 247.1451414334722 26.749999999999986 C250.21656939441152 16.917729046775715 239.66390971479672 5.859665046305803 229.6161571164131 8.381490417935268 C228.29781310713534 8.712373701393824 220.00277438392487 14.16189970059144 211.18273773150094 20.491548193929972 C202.36270107907703 26.821196687268504 194.49348839908308 32.000000000000036 193.6955984426255 32.00000000000004 C191.56183074157983 32.000000000000064 189.79929198203254 29.433410188515698 190.17323613368652 26.870774236589654 C190.54988022949763 24.289635591321062 219.25981014870104 2.79084424331726 224.84131010694813 0.9103594642155741 C226.67903066576963 0.2912059096231736 231.22876259494018 -0.04325181925049226 234.95182550510492 0.16712006671853885 C243.01449823290648 0.6227018574714733 248.432066425272 3.6736246475595378 252.7414618126406 10.185417005651956 C256.3736893374834 15.67396222209983 257.1763656425673 27.485828358089577 254.29182861912983 33.0 C252.42754553860203 36.56382213561928 151.33512878516765 176.6419997663657 147.66276741951106 180.75 C146.55649990939955 181.9875 144.62064594991992 183.0 143.3608697317785 183.0 C140.53420474053632 183.0 138.54294322846147 179.71760815009003 139.87263486586983 177.25 C140.39128617643505 176.2875 160.19806242376717 148.75344355601254 183.88769319327463 116.06320790225013 C207.57732396278203 83.3729722484877 226.84367197332878 56.51033863999547 226.7017998833785 56.36846655004517 C226.55992779342824 56.22659446009487 224.65648423741567 56.520110997280256 222.4719253144617 57.02072552156824 C220.2873663915078 57.52134004585622 216.25 57.69980924974055 213.5 57.41732375242229 L208.5 56.90371375729819 L165.0 117.087244120137 C141.075 150.18818581969833 121.3591046987794 177.63253612796805 121.1868993306209 178.0746892496252 C121.0146939624624 178.51684237128237 124.49050013662998 181.49341811261283 128.91091305099332 184.6893020081373 C135.4314032075248 189.40350628857303 136.9529311187943 190.9987885173962 136.9740137203724 193.14325221950116 C137.00721685738395 196.5205831363511 104.53900525152221 241.60500172092506 98.52396789982444 246.53387260269068 C90.74237601904355 252.91030210634773 83.74286686659389 255.3868812220315 72.5 255.74172046804756 C66.52544440611769 255.93028507771248 61.79554722892941 255.6232467378511 60.75 254.97897651015126 Z M85.19975334157245 244.5959002168758 C88.1148890037076 243.21527285842237 92.56315794472529 239.92889320843983 95.08479543272287 237.2928343280257 C98.66276021307783 233.55251642826548 122.89120376013643 200.99650987409538 126.30633118065182 195.34013850311246 C126.73808559554291 194.62503683603708 124.51651408789694 192.40337673419674 120.51283302370447 189.54640930687606 L114.01904937589615 184.91254160752717 L108.00707185428989 188.99519759544035 C100.70945862041205 193.95091212692213 99.49946385036662 195.72503136829417 97.94973829805653 203.74146710067157 C96.75369168144749 209.9283889209136 96.68798564518883 210.0177717918963 90.43117646476168 213.96930430691106 C86.95959263289929 216.16180786497344 83.24189700527958 218.89735493040035 82.16963062560679 220.04829778563757 C80.39824684066528 221.94965508808662 70.0 245.32043909697353 70.0 247.4003902274818 C70.0 248.97169313403762 79.76455535440458 247.1700456116046 85.19975334157245 244.5959002168758 Z M21.53375320937418 180.94387797742596 C34.98679343181668 175.25505788867287 36.64668376213018 174.000392426866 42.12644762665259 165.37842646592608 C45.9626075526324 159.34253858457805 46.104429640569606 159.2399638825689 52.25853289932843 158.05026170194344 C60.27496863170588 156.50053614963338 62.049087873077866 155.29054137958798 67.00480240455965 147.9929281457101 L71.08745839247283 141.98095062410385 L66.45359069312396 135.48716697629553 C63.596623265803245 131.48348591210305 61.374963163962924 129.2619144044571 60.659861496887544 129.69366881934818 C55.008545387204514 133.1057440425536 22.447452463258777 157.33686773658485 18.705252228518177 160.91520456727713 C16.068140954203173 163.4368420552747 12.794533814329753 167.77726713475005 11.430569695466133 170.5605936327779 C8.850337312382118 175.8258561595448 7.017474317162524 186.0 8.649174322804187 186.0 C9.159440248055802 186.0 14.957500747012297 183.7247450898417 21.53375320937418 180.94387797742596 Z M228.2 28.8 C224.80570582077405 25.405705820774035 228.7973841160774 19.750828235760952 233.0 22.0 C236.52965281058627 23.889012857327277 235.0019060249181 30.0 231.0 30.0 C230.12 30.0 228.86 29.46 228.2 28.8 Z" fill="currentColor"/></svg>
