<svg xmlns="http://www.w3.org/2000/svg" xmlns:xlink="http://www.w3.org/1999/xlink" width="256" height="256" xml:space="preserve" version="1.1" viewBox="0 0 256 256">
  <path d="M42.0 254.41733752196802 C17.790357077727375 248.0302163550512 2.194245360131265 227.2649571399551 3.207949275695629 202.76811857808786 C3.486380108481359 196.03964978490876 3.66478065602372 195.57738082403432 7.033384232701973 192.8557059379403 C14.507473041921575 186.81699008864211 31.564892353392008 183.01019842033926 51.17764051533395 183.00380607245805 C68.6242495666663 182.9981197304175 81.38410198303362 185.23346681128785 93.0 190.3304965496332 C94.17726047029727 190.8470757773536 95.19552851091862 188.8529170686412 97.73261537667506 181.06222356855844 C109.40416850384761 145.22210539561468 131.5612507947782 108.07954770051776 160.90044967634773 75.17215649459735 C166.45520235435646 68.94184256662588 170.99999999999997 63.288533608770585 171.0 62.60924769936335 C171.0 61.92996178995612 172.35 60.08080032524261 174.0 58.500000000000014 C176.25615197151458 56.338469230080634 177.0 54.72439113328113 177.0 51.99029088608599 C177.0 48.751334710604645 177.90843334002872 47.46806438203136 185.32798563216588 40.22601893828934 C191.97314062310514 33.73984396030704 194.09707913428602 32.21262599412243 195.83892414932137 32.66812869789035 C197.06282338344298 32.988185537316205 198.29469752396545 34.32598711306329 198.64285822179363 35.713169824294184 C199.168081518645 37.80582612201205 198.16407192514131 39.29451260391594 192.13194757508103 45.36716588903363 L185.0000557408858 52.546975830384866 L192.76523406884996 60.26661098325643 L200.53041239681414 67.98624613612799 L222.77287835996333 45.72729002378226 L245.01534432311252 23.46833391143653 L237.23768658779153 15.736292543581868 L229.46002885247057 8.004251175727205 L218.9800144262353 18.537897491785643 C209.79854185174716 27.7663566166259 208.128280515961 29.036134812951165 205.5 28.78577190392204 C203.19798156076305 28.56648783984058 202.42119999645223 27.94253193301583 202.16130908904688 26.103942145514324 C201.8893756767283 24.180158047944584 204.15299620044357 21.37141909222489 213.64567733097812 11.853942145514324 C224.84249407146055 0.6278782191382639 225.6824297618868 -1.5054377761393233e-15 229.50312990184466 -2.842170943040401e-14 C233.27613864020185 -5.500200216090267e-14 234.16800139976337 0.6328527535639807 243.26876165991342 9.767890708796457 C252.53835971173666 19.072402377336797 252.99999999999997 19.73872199985588 253.0 23.813707814151 C253.00000000000006 28.050048724540805 252.77884850681673 28.315727175062356 230.25000000000003 51.14422529048994 C217.7375 63.82315038436944 206.68435067570746 74.63343043945328 205.68744594601657 75.16706985734291 C204.6905412163257 75.70070927523254 202.4405412163257 76.16077441395785 200.68744594601657 76.18943683228805 C198.65374173093971 76.2226870965262 196.41410701500848 77.23861716749606 194.5 78.99615006741715 C192.85 80.51117992840796 190.17261501001494 82.3693311063717 188.550255577811 83.12537490733658 C184.77968167894943 84.88251883347728 172.16216704550456 99.11705851736747 160.73974677199766 114.5 C137.92462324531508 145.2258620963207 120.74174183966319 181.57942660759448 117.49134266764709 206.0 C115.51626928975755 220.8389234145113 113.58309962796426 226.0 110.00000000000001 226.0 C106.11098097018949 226.0 105.56760957298044 223.52301992585427 107.30237213344277 213.70275633343317 C108.19649563069189 208.64124035004494 109.41741137007823 201.3973590402027 110.01551822096798 197.60524231156157 C112.27927338794493 183.2525830409469 126.10684882062307 151.3368582713937 139.08904879848626 130.5 C147.17522038736917 117.52142844486858 162.96688517787447 96.41373492935631 171.37075877869995 87.35113321119317 C175.016841450415 83.41925647734942 178.00000000000003 79.84825952696484 178.00000000000003 79.41558443256076 C178.00000000000003 78.98290933815669 177.07629256466612 77.64566093500767 175.9473168103691 76.44392131445183 L173.89463362073815 74.25894018616847 L168.56964394767937 79.87947009308424 C160.44051312720893 88.45977272256134 146.70003275999744 106.08473200603079 138.52516349675636 118.41762381761632 C123.10645961776288 141.67881622219187 113.21932622319166 161.92921458523318 104.95465316376844 187.17528899353783 C100.12315503112694 201.93405325235838 99.59905038321041 203.00585639948685 95.99091055241166 205.50629899143405 C87.9003773898271 211.11304226080716 69.05977347672308 215.0 49.97367229734123 215.0 C40.85750326825691 215.0 38.0 213.96541332928206 38.0 210.66481624151191 C38.0 206.5049422990357 39.649885026976754 206.0 53.242158332084145 206.0 C66.23488805171546 206.0 77.64553440966439 204.32599698253517 85.1671918396568 201.31642636640714 C87.27523632784556 200.47295419179764 89.0 199.38774047004065 89.0 198.90484031805832 C89.0 197.61164664857537 82.47244839550636 195.0964372184288 74.5 193.31767089422434 C65.83735718126377 191.3849124039637 40.224837445558606 191.14237144243197 31.094572599756006 192.9066377664421 C27.57158752962181 193.58739391362937 22.206099702566892 195.0734025946079 19.171266317411746 196.20887927972768 C14.02211789670886 198.1354225978976 13.781911752000966 198.36806070352299 15.57669371765574 199.69019971454455 C16.634512172945083 200.469449268574 20.142303677536226 201.8704382412681 23.3717859500805 202.8035085427536 C29.84333887321113 204.6732862121965 32.39512896923388 207.61404614360117 30.02457732500827 210.4703861350271 C28.315742725821345 212.5294058641604 24.076986396271685 212.39609152488967 17.475017486312673 210.07568633443447 C12.051940194231234 208.1696281768744 12.0 208.1699274408448 12.000000000000004 210.1072317588442 C12.000000000000009 213.16223627086916 15.828534415196609 223.7689262752503 18.396649930965403 227.8287083152491 C28.42464890928742 243.681379232636 50.85634594181017 251.27895581477856 73.48255519216241 246.486208156291 C82.33779501432807 244.61046620352133 89.08887537701213 241.30654990310538 95.83783875127028 235.54573910786863 C101.79350954299672 230.4620705965359 101.42229559811528 230.6204544699283 104.06574145408933 232.035183758488 C111.60118066056003 236.06802843486474 94.6960106032385 250.50142723768113 77.76026766751961 254.49443099298458 C69.64524241882094 256.4077409915731 49.37878710574184 256.36404972505875 42.0 254.41733752196802 Z M189.32730326964838 72.19082773905596 C190.86444890242976 70.4923009336776 190.70157662383176 70.12353555562488 186.6641662523188 66.16111698990102 L182.36375084111668 61.940578501690126 L180.50381888318333 63.99578018158126 C178.67345672647298 66.01830759890683 178.7055883898072 66.11416989511842 182.5248912281107 70.0254909307362 C184.6594435946841 72.21147091883128 186.69482463355243 74.0 187.04796020337363 74.0 C187.40109577319484 74.0 188.4268001530185 73.18587248257518 189.32730326964838 72.19082773905596 Z" fill="currentColor"/></svg>
