<svg xmlns="http://www.w3.org/2000/svg" xmlns:xlink="http://www.w3.org/1999/xlink" width="256" height="256" xml:space="preserve" version="1.1" viewBox="0 0 256 256">
  <path d="M9.218182780478099 254.3369172413186 C2.988722660602316 251.2665399877778 -0.013730875893286365 244.29028820926888 1.45794833111606 236.30588071703784 C2.072893108072746 232.96957640489154 6.767459318985928 227.87318258436161 39.50704711643177 195.0 L76.85464920069955 157.5 L76.3666164220482 153.0 C75.21138269706277 142.34794548677576 86.68254347793388 134.4552236610567 96.14426924097691 139.3920038218139 C98.70088236047027 140.72595042343121 98.98185648279649 140.57632971335698 104.62024577978667 134.8784862857155 L110.4519530776195 128.98528641095282 L106.88548953231356 125.41882286564686 L103.31902598700759 121.8523593203409 L98.9095129935038 124.82591379254674 C91.91140725245162 129.54508542304922 85.1527596973495 131.32370317449218 76.1898889871157 130.804850589357 C63.169874058056585 130.05113354681086 60.6515688049515 128.20789857771803 28.187042691301365 95.66990227467689 L8.881784197001252e-15 67.41906972987044 L1.1546319456101628e-14 61.979100082326624 L1.4210854715202004e-14 56.539130434782805 L28.26956521739122 28.269565217391403 L56.53913043478243 0.0 L61.95651064724662 -2.842170943040401e-14 L67.3738908597108 -5.684341886080802e-14 L85.1869454298554 17.713601922984225 C103.4590021692639 35.88364334521947 105.35966847243343 38.66677624116149 101.0657414540893 40.96481624151207 C100.00189925383842 41.53416730868048 98.56854934650595 42.00000000000006 97.88051943779492 42.00000000000003 C97.19248952908389 42.0 88.93415108030062 34.349999999999966 79.52865621827655 24.999999999999957 C70.12316135625247 15.649999999999949 61.99082701815118 7.999999999999937 61.45680213360701 7.999999999999929 C60.922777249062854 7.999999999999921 48.6271691313561 19.865015122938544 34.133228538703094 34.36670027319687 C13.189514271383679 55.32160541028534 7.9060985017335 61.12878207516972 8.392002843079103 62.65973108932873 C8.7282693031389 63.71921288794293 21.058703291599237 76.5879522303016 35.79296726187985 91.25692962790356 C65.13084743382134 120.46481554631826 67.5993654742013 122.28393493568741 78.0 122.3604623409295 C84.90721739828402 122.4112853386632 89.88138650156222 120.73692233423783 95.44932884188725 116.48681589701313 C99.68117433390982 113.25657523221209 101.38054622350339 112.6440794141933 105.4430087925166 112.88484553733949 C106.53787752413025 112.94973408594429 115.93473810013806 121.50991295044184 126.97032905822616 132.4954070070177 L146.55464053141915 151.99081401403538 L149.28410540231295 149.26134914314156 L152.01357027320677 146.53188427224774 L132.30678513660337 126.80660379937117 C114.44264405764476 108.92569675406156 112.59999999999998 106.76395191748692 112.6 103.68708658290461 C112.60000000000001 101.37385358585487 113.62365733876493 99.00037712101164 115.81417512492592 96.23462302503019 C120.40774271501094 90.43477129238991 122.24344856260333 85.37112739740331 122.24344856260333 78.5 C122.24344856260335 70.38438833405455 120.30891206913147 66.31449042988869 112.49842932557232 57.998327634197764 C107.17401251491225 52.329188037662995 105.93421982646743 50.40892947924827 106.18630256396207 48.22176131891722 C106.4417829626878 46.005113724420625 107.06515935453353 45.44467902129238 109.54531196802851 45.20190772356514 C112.15333298965291 44.9466199463233 113.48589298080799 45.83614521622223 118.82531404113405 51.3965979465445 C122.37204451939819 55.090149541139425 126.23267584108062 60.392221491589304 127.78000207310554 63.69469022297936 C130.15400407048972 68.76153857231478 130.49556019683328 70.70844258660907 130.46509711710655 79.0 C130.42825597047917 89.02756402754702 129.13365108425052 93.01205528166378 123.44533001134624 100.6052024338631 L121.11910241610451 103.7104048677262 L124.83899070881878 107.34277863228262 L128.55887900153306 110.97515239683904 L139.1703450733209 100.23757619841952 C145.00665141280422 94.33190928928877 150.28090363745926 88.51708365434023 150.89090557255435 87.31574145408939 C152.53615845445844 84.07556859003506 152.24796126488764 80.01200327864751 149.90443446933716 73.40655045299334 C147.00656342819718 65.23862572799217 146.32508447396918 51.50179943327181 148.38357340617085 42.749984885555435 C151.52587967670547 29.39024255143844 160.74149176008282 16.224564831052852 172.0138591544801 8.991106605075075 C188.43509580579928 -1.5463719192011478 210.48473484572392 -2.1980916039483613 228.42937634948396 7.323636991871609 C240.06771125238595 13.49913323845145 250.48003989399277 26.5701863673435 254.4046206831638 39.93150122742519 C256.70741079927694 47.77139686238559 256.5267210724112 63.08462928623083 254.03631842927317 71.14466488583496 C245.31555707464554 99.3688748012975 216.33789906500988 115.54269370791621 187.9919046006271 108.00721563797346 C171.3698954972163 103.58843311000376 171.91792729803876 103.40398657425776 157.01437435643743 118.4330670774945 L146.52874871287486 129.0070095824401 L152.01437435643743 134.47983217197478 L157.5 139.95265476150945 L161.71312770722102 138.49395292219893 C172.30747591913612 134.82589529448222 182.5183771564364 143.0928169133673 180.52403286704623 153.723585931329 C179.8647810840558 157.23770005241371 180.0857114804311 157.55331874833158 190.55842571115193 168.05860743920812 C200.04330160508107 177.57298520868565 201.19235291320297 179.09746893937938 200.61440400579272 181.40020080238526 C200.11223552090945 183.4009994126288 199.33661234488977 184.0 197.24802248099837 184.0 C195.14190336825396 184.0 192.2342355470271 181.7079137780636 184.2640881986041 173.76489107251376 L173.99402737878196 163.52978214502753 L168.74722325298148 168.77658627082798 L163.50041912718103 174.02339039662846 L200.02845179703743 210.51169519831421 C232.939646120141 243.38709532463685 236.8754881520727 247.0 239.77824223344695 247.0 C243.95058185804885 246.99999999999997 246.99999999999991 243.96061080878957 247.0 239.80199320806915 C247.00000000000003 236.97299881911397 244.5191526534605 234.11376767252136 225.50000000000003 215.0227701988464 C203.55997220548406 192.9998639827141 201.6304987535389 190.3384860997991 205.9342585459106 188.03518375848802 C206.99810074616147 187.46583269131963 208.21270567911876 187.00000000000003 208.63338061914902 187.0 C209.05405555917932 187.0 219.4304532950173 196.99608987575067 231.69204225434453 209.21353305722374 C255.62796355460918 233.06327711994103 256.73367449686367 234.62183620227125 255.50946224706703 242.785468387486 C254.63073678645935 248.64522959586802 249.2099294882825 254.49478861162646 243.70059126577303 255.52834669230765 C234.6769876560605 257.2211849336735 235.56724713810743 257.91770146284676 194.90762251310554 217.35396053971445 L157.31524502621104 179.85023355928104 L153.72280180761163 180.52417996954233 C143.06173895208704 182.5242074171166 134.31424472766196 172.06493763968302 138.25586287518604 162.03055393505795 L139.76042315904942 158.20031604037297 L134.10004901953718 152.59900505833414 L128.43967488002494 146.99769407629532 L122.62024109520937 152.87849101968948 C117.77270922761635 157.77713780287476 116.96744843998412 159.07165556918497 117.79860040277613 160.6296439815418 C118.34738660358641 161.6583397916938 118.89201589101108 163.625 119.00888770816428 165.0 C119.5529931451783 171.40141476463617 118.93551068321455 173.29978343443253 115.04314769802139 177.1921464196257 C111.27792641150407 180.95736770614297 110.81585064086555 181.13647116479183 105.50207433712427 180.89032612681416 L99.91785327820578 180.63165353202402 L92.60440927614852 187.89628755216916 C86.41725767033219 194.04214606024897 84.84505223002684 195.1100296162673 82.39548263704563 194.83046078615712 C80.03995047694598 194.56162442724212 79.43837557275786 193.960049523054 79.16953921384285 191.60451736295437 C78.89057251155602 189.16022358704697 79.94349317956139 187.5971995776424 85.92660654193475 181.57388657765676 L93.0141346561838 174.4387384294048 L87.99071477368729 169.4908543931983 L82.96729489119078 164.54297035699182 L46.48364744559539 201.01634795129297 C13.788135654479177 233.7026562206236 10.0 237.82017380897594 10.0 240.67228262376418 C10.0 244.22640485864295 13.770387679769337 248.0 17.321488999547444 248.0 C18.665757527461867 248.0 28.037600042221698 239.37936353963266 44.5 223.0 C58.31970666147923 209.25 70.3535801658506 198.0 71.24194112082526 198.0 C73.32806789933137 198.0 76.0 200.6812044127976 76.0 202.77457060379703 C76.00000000000001 204.9379446551082 28.493130277783386 252.53811147572728 24.3914246737674 254.4844982262086 C20.251464072429567 256.44903816151475 13.367600680670574 256.3820829685277 9.218182780478099 254.3369172413186 Z M109.0 171.0 C110.1 169.9 111.0 168.18423305959334 111.0 167.1871845768741 C111.0 165.385876599536 92.11715028217147 146.0 90.36258284453416 146.0 C88.00769603317805 146.0 85.0 149.2936828322106 85.0 151.87248407302855 C85.0 154.03440473771562 87.0269608031474 156.61932962436543 94.36529840420619 163.81578010437948 C99.51621252651958 168.86710104697076 104.46621252651958 173.0 105.36529840420619 173.0 C106.26438428189279 173.0 107.9 172.1 109.0 171.0 Z M162.73121093766954 162.76975043420674 C172.4485869189163 153.09277916769256 173.57828722044675 150.73830542816893 170.04029470345802 147.5364662054485 C166.9178556314444 144.71069768182338 164.11865221849743 146.22669603169436 154.7151691518047 155.83627926669823 C145.82832720477404 164.9178979372097 144.59008109998007 167.4472239571229 147.57142857142856 170.42857142857144 C150.6713921283853 173.52853498552813 153.220921730475 172.2404959906068 162.73121093766954 162.76975043420674 Z M119.28488944781927 137.77547296427605 L116.59281032475194 134.96554783829316 L110.80792087693266 140.6900748740171 L105.02303142911337 146.41460190974107 L107.71511055218072 149.22452703572395 L110.40718967524806 152.03445216170684 L116.19207912306734 146.3099251259829 L121.97696857088661 140.58539809025893 L119.28488944781927 137.77547296427605 Z M151.62134478661878 110.96739030704968 C157.94541606447848 104.78776897794083 164.58077069538678 99.23474773892598 166.70592202619304 98.3433509825005 C171.88594534703392 96.17058525072832 179.7510597955833 96.41217292173535 187.14552445385772 98.9711811277719 C194.23699380265015 101.42533150850431 205.92948772973074 101.89568718450722 213.0096655087821 100.0116217408688 C235.40435054077054 94.05230073133481 251.0499643120998 70.43403736112475 247.25996117516834 48.30815293617099 C242.63746811097485 21.322226118099138 216.34190718873631 3.811053811773184 190.5349623899945 10.532909017976259 C175.1209463258424 14.547750175553734 163.28116161294173 25.491535451545214 157.842533615952 40.75127272385767 C155.0351409163544 48.62827314377588 154.9997575776955 61.32559196446601 157.76242017093344 69.5 C160.92631378370223 78.8616055160321 161.27188556444867 81.69786183640757 159.93047313591546 87.29414369876181 C158.80761699860616 91.97862350645836 157.47958537583727 93.72721207756582 146.67030149934558 104.753505491884 L134.65795842384486 117.00701098376798 L137.0032932386319 119.503505491884 C138.29322738676478 120.8765774713478 139.56962698359126 122.0 139.83973678713522 122.0 C140.10984659067915 122.0 145.41157019044675 117.03532563817237 151.62134478661878 110.96739030704968 Z M46.8847919722304 81.36150668571744 C35.486612391081806 70.01033536286204 25.93303821487944 59.85193969847905 25.654627136225148 58.78729409819968 C25.12396934986498 56.75805560584835 28.073516004042386 52.99999999999999 30.196841444475687 52.99999999999999 C30.855104238937322 52.99999999999999 40.98010423893732 62.54867438039908 52.696841444475695 74.21927640088686 C73.82031384383801 95.25957416801494 75.7667785291324 97.8332214708676 72.8 100.8 C69.93728239951295 103.66271760048704 67.2675537654184 101.66020609646257 46.8847919722304 81.36150668571744 Z M200.22250624340543 92.44329603135094 C197.77400843864126 90.72830141155424 197.21095480087612 86.1890451991239 199.2 84.2 C199.86 83.54 201.57 83.0 203.0 83.0 C206.34554738120974 83.0 208.0 84.70186791765643 208.0 88.14329603135096 C208.0 90.51906186229013 205.02824476331452 94.0 203.0 94.0 C202.69475686774598 94.0 201.44488467727842 93.29948321410792 200.22250624340543 92.44329603135094 Z M60.713409833087454 67.21359148421055 L39.94467933693422 46.4271829684211 L42.77705852958162 43.71359148421055 C44.33486708553769 42.221116167894756 46.04928466877807 41.000000000000014 46.5868753812269 41.00000000000001 C47.12446609367574 41.0 56.66234260617422 50.137544116546096 67.7821565201124 61.30565359232465 C87.66256243340474 81.27240405963816 89.65569908401312 83.94430091598687 86.8 86.8 C83.86555581457714 89.73444418542286 81.26185059276975 87.77952275633946 60.713409833087454 67.21359148421055 Z M181.44012498478236 73.54896322685605 C178.15814218064438 68.54002434939599 183.6051443980323 63.20081047527869 188.6349792111448 66.49648482230945 C191.22841655036225 68.19577023168485 191.86525523582023 72.73474476417977 189.8 74.80000000000001 C187.7001422564093 76.89985774359069 183.19386103165934 76.22550274282472 181.44012498478236 73.54896322685605 Z M74.21927640088686 52.696841444475695 C62.548674380399085 40.98010423893732 53.0 30.72010423893733 53.0 29.896841444475704 C53.0 27.78279309336497 55.03985178581452 26.0 57.45872210809745 25.999999999999996 C59.895532671582366 25.999999999999993 102.0 67.64812650516976 102.0 70.0585261861712 C102.0 72.21993058831906 99.97639172611164 74.0 97.51927640088685 74.0 C96.14080128528606 74.0 88.27700348301585 66.81014028195939 74.21927640088686 52.696841444475695 Z M207.22250624340543 70.44329603135094 C202.85421801323338 67.38362785525966 205.06978981894363 61.0 210.5 61.0 C214.1207106850045 61.0 216.0 63.008295548245584 216.0 66.8775545772616 C216.0 68.83848656352886 212.605464291839 72.0 210.5 72.0 C209.91975686774597 72.0 208.44488467727842 71.29948321410792 207.22250624340543 70.44329603135094 Z M227.55670396864906 62.77749375659457 C225.5073849996341 59.851681081165026 225.59030156046063 57.68074711622404 227.82874067158406 55.65498756211209 C231.50449087921933 52.32847934277126 237.0 54.63244875038125 237.0 59.49999999999999 C237.0 64.67768390314932 230.47408545778404 66.94263928495394 227.55670396864906 62.77749375659457 Z M164.5003674890634 56.640904909605965 C161.96565801604032 52.77244928988619 164.18985360447422 49.044498000350245 169.05 49.015312774517064 C172.30261735308596 48.99578077603938 174.0 50.70505786630783 174.0 54.0 C174.0 57.354833627103446 172.29661216963783 59.0 168.82305297985422 59.0 C167.00868960863937 59.0 165.51030078713146 58.18225794593398 164.5003674890634 56.640904909605965 Z M188.22250624340543 51.44329603135095 C185.77400843864126 49.72830141155425 185.21095480087612 45.18904519912388 187.2 43.2 C189.15410856137186 41.245891438628156 194.7781971649925 41.71704051995275 195.96481624151198 43.934258545910666 C197.50101068384367 46.80466411776829 197.23306567339873 48.766934326601266 195.0 51.0 C192.59307620120492 53.40692379879508 191.15981767718444 53.500669044223 188.22250624340543 51.44329603135095 Z M211.22250624340543 46.44329603135095 C206.85421801323338 43.38362785525966 209.06978981894363 37.0 214.5 37.0 C218.12071068500447 37.0 220.0 39.00829554824559 220.0 42.87755457726161 C220.0 44.83848656352888 216.60546429183904 48.0 214.5 48.0 C213.91975686774597 48.0 212.44488467727842 47.29948321410792 211.22250624340543 46.44329603135095 Z M194.22250624340543 29.443296031350947 C190.05736071504606 26.52591454221598 192.32231609685067 20.0 197.5 20.0 C202.6776839031493 20.0 204.94263928495394 26.52591454221599 200.77749375659457 29.443296031350947 C199.55511532272158 30.299483214107926 198.08024313225403 31.0 197.5 31.0 C196.91975686774597 31.0 195.44488467727842 30.299483214107926 194.22250624340543 29.443296031350947 Z" fill="currentColor"/></svg>
