<svg xmlns="http://www.w3.org/2000/svg" xmlns:xlink="http://www.w3.org/1999/xlink" width="256" height="256" xml:space="preserve" version="1.1" viewBox="0 0 256 256">
  <path d="M18.5 254.84557269801934 C15.363168057011903 253.1303374169418 3.007957029864132 240.79547835605842 1.4259622344931273 237.7996599268842 C-0.6437217886425648 233.8803059838624 -0.39264127771903734 225.1561582365374 1.8979497597916595 221.39978527929435 C2.937710261195771 219.69466718290624 32.29852813399887 192.62127235864838 67.14421169935412 161.2366856698324 C101.98989526470936 129.85209898101647 131.1625058755823 103.12219560533401 131.97223527907178 101.83690039053808 C133.1028671689276 100.04223200939137 133.46715297184272 95.67149785622757 133.54222675938928 83.0 C133.6275973210535 68.59053799646509 133.92710773003503 65.67645472866526 135.90617410526437 60.0 C143.88621064405282 37.11126988336721 160.26294987911072 18.408237806612362 181.5 7.929635077431101 C195.1134227771393 1.212617023887189 201.66749340172237 -0.2899287675418855 215.44506938873144 0.14759791742554285 C225.52698427922724 0.4677635840363905 227.1357376080042 0.7922484335181839 233.0316405525228 3.6948017024346456 C241.29202657119333 7.761390088747001 248.2386099112543 14.707973428808684 252.30519829756753 22.968359447481376 C255.2077515664815 28.86426239199521 255.53223641596367 30.473015720774576 255.85240208257443 40.55493061126877 C256.2782038728869 53.96329339917823 254.81088981142045 60.66594056675529 248.64021227734156 73.5 C238.22124018287624 95.16985818902405 219.35451110174688 111.8581066523486 195.97841741620482 120.08110652822657 C190.30268630585948 122.0776563728549 187.45562354263362 122.37212918944915 173.0 122.45777324061103 C160.3295519112601 122.53284080868622 155.95712712565125 122.89722649802634 154.16097897761438 124.02776472092854 C152.8745174153023 124.83749412441784 141.68805661471538 136.75 129.30217719853232 150.5 C116.91629778234926 164.25 105.90658831725032 175.64704373984125 104.83615616497912 175.8267638663139 C102.33568114262441 176.2465809339401 100.0 174.30167803151275 100.0 171.7997355231852 C100.0 169.89194115075978 138.91632191039199 125.79270124124957 146.39290001706038 119.22817871827696 C152.02100501260725 114.2866370828101 159.45942165882457 112.54465562372667 168.98479034750676 113.9374487211482 C186.85266428903353 116.55007740825884 206.36350626302712 109.18489315132052 222.75389471337542 93.64004886966912 C244.94070100686608 72.59781122019189 253.44159109818523 45.64272508361978 243.97987441159245 26.33555428705698 C233.1705926163752 4.278600277415443 202.6937277170252 2.0577073699567556 175.64930339518924 21.356207460075197 C152.35414390593604 37.97928777240755 138.74623555049072 64.76505870695942 142.10924821536474 87.37636365987099 C143.57930762798546 97.26034715623136 141.66539502274836 104.23794591003534 135.71291906353213 110.69561982476684 C133.4103446783854 113.19361807718627 103.94349195151113 140.02587880352587 70.23102411492263 170.3228658832993 C32.85202762128131 203.914917919124 8.708895269331158 226.3116722843723 8.354534081815922 227.7235597142837 C7.443829539335692 231.35209562959406 9.709629314107403 235.41859268187417 15.96847307658161 241.38851847330503 C21.817230291881426 246.96728795094936 25.321406823950973 248.66754011907332 28.736466133348635 247.58364240004937 C29.77091139206606 247.25532222906625 43.98575042938618 232.13968989183476 60.32499732739334 213.99334831731275 C83.96288022003814 187.74115323475974 90.53298410627295 181.0 92.48117572157881 181.0 C95.90134530691799 181.0 97.62862205895341 184.4049784958195 95.68569141857809 187.31705777602846 C92.01702918443873 192.81567674683157 36.67545729487657 253.1164672628492 34.05322580250534 254.47247586781958 C30.64987351485408 256.2324177345949 21.440295146040356 256.453340682703 18.5 254.84557269801934 Z M20.666666666666664 235.33333333333331 C20.3 234.96666666666667 20.0 233.4601658005655 20.0 231.98555363088633 C20.0 230.01492873538885 21.57031206269199 227.80661658168884 25.925762729621937 223.652220297553 C31.828996872214198 218.02148863238276 34.519798387387404 216.9197983873874 36.800000000000004 219.2 C39.080201612612605 221.48020161261257 37.978511367617244 224.1710031277858 32.34777970244701 230.07423727037806 C28.19338341831115 234.42968793730802 25.98507126461116 236.0 24.014446369113678 236.0 C22.539834199434488 236.0 21.03333333333333 235.7 20.666666666666664 235.33333333333331 Z M169.71759477981283 102.56280484853576 C145.3589784734361 93.87263380160071 146.22027360403376 59.64843418613449 171.43083745178555 34.4858389952158 C183.45261821932857 22.486932316473144 196.2366015114304 16.110874293896234 210.0 15.249329319741712 C219.83663502062439 14.633587250539147 225.75890285328148 16.19121110709951 226.61959237436037 19.620471304550904 C227.04388616115867 21.31099240357569 226.72571136241666 22.702860066154752 225.6747199199511 23.75385150862033 C224.29905083507816 25.129520593493268 223.36586271770778 25.176345944693097 218.59654328570088 24.109019025848404 C206.14403238150751 21.322269200274242 191.4005009874732 27.407295953201185 177.90389847033717 40.9038984703372 C164.01773644988123 54.790060490793095 157.88428336342227 70.21036767496219 161.4155962587294 82.35765730151391 C165.46035164103594 96.27112703757899 180.37220855766975 99.44307294047584 199.0 90.35234878269102 C209.49746292796135 85.22938291042918 222.2293829104291 72.49746292796144 227.35234878269102 62.0 C232.02560572551317 52.42403507395343 233.55521199272815 44.4828510081532 231.98621923136903 37.942555310639214 C230.37453059705703 31.22428324443029 231.30186666692924 28.80172519773281 235.33547357068275 29.1930163745997 C238.03785855143832 29.455168692537097 238.69504524011006 30.084152427080703 239.83557770929613 33.5 C241.6576735421833 38.95710165782097 240.84434496876005 51.97380717354053 238.22743029512162 59.23717683134011 C231.36942957128556 78.27188013002345 212.71293250062007 96.13317088893334 193.64466488583642 101.91966608938966 C185.76714514095633 104.31019422315195 175.39686261673606 104.58893836545889 169.71759477981283 102.56280484853576 Z" fill="currentColor"/></svg>
