<svg xmlns="http://www.w3.org/2000/svg" xmlns:xlink="http://www.w3.org/1999/xlink" width="256" height="256" xml:space="preserve" version="1.1" viewBox="0 0 256 256">
  <path d="M45.45454545454545 253.54545454545456 C43.22943722943723 251.32034632034632 43.0 250.28787878787878 43.0 242.5 C43.0 234.71212121212125 43.22943722943723 233.6796536796537 45.45454545454545 231.45454545454547 C46.804545454545455 230.10454545454547 48.60454545454545 229.0 49.45454545454545 229.0 C50.304545454545455 229.0 51.0 228.81198885601222 51.0 228.58219745780494 C51.0 227.7020564655844 75.02879968115546 78.38757990491854 75.5034881358713 76.3180164139446 C75.86851595080687 74.7265552535233 75.43744858104239 73.95622845668262 73.91069185163164 73.47165469482762 C71.08161129987704 72.57373940868793 68.99966816381902 67.19216461866105 69.00155399907914 60.78211863089588 C69.00362856938429 53.73055302369259 71.5232950131975 48.78754091054841 75.75 47.543203452516735 C78.33517380156505 46.78213103159931 79.0 46.055936261000795 79.0 43.993203452515075 C79.00000000000001 40.79889602324611 80.68058831686615 39.000000000000036 83.66481624151358 39.0 C86.10053872946946 38.99999999999997 88.0 41.60009607556001 88.0 44.93425854591068 C88.0 46.67045768732446 88.62509899792083 47.0 91.9184434388131 46.999999999999986 L95.8368868776262 46.99999999999997 L96.1684434388131 34.411058849141895 C96.49438973537409 22.035135021673483 96.54747629419809 21.781320200192077 99.30576370132741 19.411058849141895 L102.1115274026548 16.99999999999997 L127.99999999999986 16.999999999999986 L153.8884725973449 17.0 L156.69423629867245 19.411058849141725 C159.45252370580192 21.781320200191736 159.50561026462591 22.03513502167298 159.83155656118714 34.411058849141725 L160.1631131223743 47.0 L164.1571403141461 46.999999999999986 L168.1511675059179 46.99999999999997 L167.82558375295895 33.16815994456208 C167.50835601675047 19.69131022922176 167.42598518580417 19.239384068395008 164.61608752111914 15.559313541289455 C159.24764918785445 8.528370053514607 156.88735648929375 8.043924000981056 128.0 8.043924000981136 C105.22955298991033 8.0439240009812 102.05940866666649 8.244004687656652 98.3839124788804 9.913115597218152 C93.31643343267423 12.214351710073919 89.09868392850748 17.55163041537707 88.3131092196632 22.65704069936487 C87.47109130561569 28.12927251803494 86.2671115668363 29.999999999999968 83.58726095695422 30.0 C79.9760021932221 30.000000000000043 78.64129783323452 27.633670495185598 79.34729470996089 22.482861725445346 C80.15287321106517 16.605525798065308 82.92991270120497 11.36925061535865 87.66526561247598 6.798826708311552 C94.53159191041662 0.1716497156529586 95.54992139366242 8.526512829121202e-14 127.99999999999861 8.526512829121202e-14 C160.45007860633535 8.526512829121202e-14 161.4684080895852 0.17164971565362475 168.33473438752404 6.798826708311154 C175.38712732119666 13.605589766927457 176.40850000639796 16.708499866916 176.8172356508942 32.56849846929937 L177.17980168466923 46.63699693859874 L180.3399008423346 47.56849846929937 C184.47145444466878 48.786355350597105 186.99639097704224 53.79699228048195 186.99844600092086 60.7821186308945 C187.00033183618095 67.19216461865908 184.9183887001227 72.57373940868797 182.0893081483693 73.47165469482728 C180.56445223257313 73.955625161877 180.13080777522407 74.72853662421747 180.49234776772226 76.31801641394448 C182.2878005113631 84.21157150782852 193.06426071586637 154.6096704554386 192.81192230219665 156.79663468119023 C192.56472723647096 158.93902258663238 191.90406594280466 159.56810040025888 189.62817766967078 159.82817766967077 C188.0486753879897 160.00867538798965 186.38353879368452 159.7835387936845 185.92787412677038 159.32787412677038 C185.22992897899906 158.6299289789991 172.0 79.6409248133985 172.0 76.17180358672577 C172.0 75.30216769895802 164.28245444533837 75.0 142.07142857142833 75.00000000000001 C116.19696969696699 75.00000000000003 111.92999204455019 74.78713490169349 110.57142857142833 73.4285714285712 C108.57683373481397 71.43397659195622 108.57683373481397 69.56602340804373 110.57142857142836 67.57142857142878 C111.93637020968876 66.206486933168 116.46969696969447 66.0 145.07142857142836 66.0 L178.0 66.0 L178.0 60.5 L178.0 55.0 L128.0 55.0 L78.0 55.0 L78.0 60.5 L78.0 66.0 L87.56574145408936 66.00000000000003 C98.10623288051485 66.00000000000006 101.0 66.93380756179225 101.00000000000003 70.33518375848946 C101.00000000000003 74.08600310512878 99.09943855850983 75.0 91.29999999999852 75.0 C86.48421064718733 75.0 84.0 75.3895996777091 84.0 76.14486170908893 C84.0 76.77453564908784 78.6 110.81484397381462 72.0 151.7899913195929 C65.4 192.76513866537115 60.0 226.89995089628113 60.0 227.64512961050394 C60.0 228.7716737534644 71.45953508526783 229.0 128.0 229.0 C186.75446455454542 229.0 196.0 228.80273372790396 196.0 227.54912605314536 C196.0 226.4283243386288 189.9237588429664 187.63145104708434 187.63422989062593 174.1335827046275 C187.25519632494712 171.89899852884105 189.90893360240042 168.0 191.80887036489437 168.0 C194.93442273865685 167.9999999999999 195.92367047462093 171.3059279684007 199.4393503717792 193.5 C205.10855005612433 229.28898814353863 205.0498670721887 229.0 206.64810954163818 229.0 C207.44164929373665 229.0 209.19545454545377 230.10454545454522 210.54545454545405 231.45454545454496 C212.77056277056295 233.67965367965297 212.99999999999997 234.71212121211943 212.99999999999997 242.5 C212.99999999999997 250.28787878788054 212.77056277056295 251.32034632034703 210.54545454545405 253.54545454545504 L208.09090909090813 256.0 L127.99999999999952 256.0 L47.90909090909091 256.0 L45.45454545454545 253.54545454545456 Z M204.5 242.5 L204.5 237.5 L128.0 237.5 L51.5 237.5 L51.18336539464649 241.35516135645543 C51.009216361702066 243.47550010250592 51.10867317271429 245.84081445755712 51.40438053022922 246.61141547879143 C51.86011676052587 247.79904505768124 63.563498603666716 247.97346670298006 128.22101513558272 247.75625412233597 L204.5 247.5 L204.5 242.5 Z M92.9553082472494 215.95215732211472 C88.98056569005486 211.6971814901753 88.18086286884983 205.640222377265 90.80929390993342 199.6982180434514 C93.09460922448193 194.53188372045554 95.31871045726042 193.0 100.53425854591066 193.0 C103.36980765056128 193.0 104.9700090209425 193.7700090209425 107.6 196.4 C110.66653602709056 199.46653602709057 111.0 200.35568254551717 111.0 205.46574145408934 C111.0 214.6837628387367 107.58285965892348 218.93976530619403 100.15120980030909 218.9777641544112 C96.57798558791863 218.996034445272 95.29466396598518 218.45644581433737 92.9553082472494 215.95215732211472 Z M122.21679497935997 217.43929570629814 C119.03531070615628 215.21089737941554 117.0 210.74790408295047 117.0 206.0 C117.0 198.3243291432712 121.50520158276794 193.0 128.0 193.0 C134.49479841723206 193.0 139.0 198.3243291432712 139.0 206.0 C139.0 213.6756708567288 134.49479841723206 219.0 128.0 219.0 C126.04475686774596 219.0 123.44231460845796 218.29768306783416 122.21679497935997 217.43929570629814 Z M149.36703996974734 217.2277641544112 C146.10146542813547 214.5825469180214 145.0 211.64989961624556 145.0 205.6005376823955 C145.0 200.83997597949065 145.43228710300295 199.5772446462733 148.1035921946885 196.53479622830616 C150.791957943664 193.4729167951612 151.80859236223756 193.0 155.7023823943794 193.0 C159.40201330091102 193.0 160.690788601023 193.5279811076818 162.98435794250776 195.98325512265671 C164.51708559122702 197.62404544011792 166.06802087776134 200.54904544011794 166.43088080147294 202.48325512265671 C167.40315447228218 207.6659193555125 166.13556735100462 212.643364166116 162.98435794250776 216.01674487734329 C160.70764322538443 218.45397595789356 159.40162299531193 218.99593018170125 155.8487901996909 218.9777641544112 C153.24684303469448 218.9644601105888 150.64322232137263 218.2615116650803 149.36703996974734 217.2277641544112 Z M103.0 206.24312891080578 C103.0 205.48709241036434 102.51861754560211 203.96904574807598 101.93026121244914 202.86969188349832 C100.50502114795927 200.20660646305046 98.0 202.152332202421 98.0 205.92244471544217 C98.0 209.71125419604405 100.07753729852286 211.61444662305243 101.73663075639996 209.34550112129506 C102.43148384037998 208.39523290596742 103.0 206.99916541124722 103.0 206.24312891080578 Z M130.0 208.5 C131.04441439022884 205.75298197856856 129.77695252927722 201.0 128.0 201.0 C127.42277406822991 201.0 126.52277406822992 202.125 126.0 203.5 C124.95558560977118 206.24701802143147 126.22304747072279 211.0 128.0 211.0 C128.57722593177007 211.0 129.47722593177008 209.875 130.0 208.5 Z M158.0 206.0 C158.0 204.4846891869864 157.33621645315543 202.69399801630988 156.52492545145654 202.0206862873855 C154.2380092116085 200.12271438318243 152.24609222275254 205.04993685771342 153.86441043114843 208.60175842805666 C154.84162152500784 210.74650315374876 155.30895615781452 210.9884785939044 156.52492545145654 209.9793137126145 C157.33621645315543 209.30600198369012 158.0 207.5153108130136 158.0 206.0 Z M79.71451725040126 179.61122748152158 C74.2617630709426 174.55778546005726 74.16472818495474 163.7443627241362 79.5240428785686 158.3850480305223 C82.88246064337474 155.02663026571616 90.1137747506934 155.0228656597843 93.46869756542637 158.37778847451727 C101.70544990016597 166.61454080925688 97.16664489074351 182.0 86.5 182.0 C83.44977594672989 182.0 81.58289259453392 181.34277931114124 79.71451725040126 179.61122748152158 Z M106.9966170486746 179.15046320252077 C101.82040423954744 173.9742503933936 101.82040423954746 164.0257496066064 106.99661704867461 158.84953679747926 C109.27999198614533 156.56616186000852 110.73494016923621 156.0 114.31948472838842 156.0 C118.21624642661219 156.0 119.20657229952275 156.4712428346296 122.00296042153914 159.65615295378132 C125.04206748095902 163.11750467049234 125.1911354338696 163.65733502193436 124.80076214264189 169.78803077780947 C124.43278532121171 175.56699667557223 124.04303893865585 176.57235273955268 121.17843298395505 179.13187782402815 C116.71118518679268 183.1233632067356 110.977031704982 183.13087785882814 106.9966170486746 179.15046320252077 Z M134.82156701604492 179.13187782402815 C131.95696106134415 176.57235273955268 131.5672146787883 175.56699667557223 131.19923785735813 169.78803077780947 C130.80886456613038 163.65733502193436 130.95793251904098 163.11750467049234 133.99703957846089 159.65615295378132 C136.79342770047728 156.4712428346296 137.78375357338783 156.0 141.6805152716116 156.0 C149.49040434887024 156.0 154.2826569950094 163.34931339811752 152.5377507736602 172.65046320252077 C150.879418754834 181.49013283279754 141.35906121307383 184.97312812215372 134.82156701604492 179.13187782402815 Z M162.7213998855919 179.61760609254014 C158.93409198151673 176.10764758702442 157.37010412897178 170.04577097187803 158.91846934660416 164.8777884745173 C160.77851623608493 158.66950527386146 163.96032800889841 156.0 169.5 156.0 C173.00463164927262 156.0 174.65524696418703 156.5643378732779 176.4759571214314 158.38504803052228 C181.83527181504527 163.7443627241362 181.73823692905742 174.5577854600573 176.28548274959874 179.61122748152158 C172.72399164510213 182.91190604031942 166.27927850665705 182.91493671468558 162.7213998855919 179.61760609254014 Z M89.0 169.0 C89.0 165.6005556774902 86.88657132445178 163.5134286755482 85.17620639568256 165.22379360431745 C82.40422132268755 167.99577867731244 84.78277559987738 175.25509595803578 87.67620639568256 172.85376168024038 C88.40429287805715 172.24950356912177 89.0 170.5153108130136 89.0 169.0 Z M117.0 169.0 C117.0 168.11024259861537 116.33355142047104 166.50875093441257 115.51900315660231 165.4411296351049 C114.23712173997933 163.7609788518065 113.90306325801207 163.70167034217093 113.03431593111937 165.0 C110.4849870964954 168.80993314291936 113.1081209378943 175.94020249312416 115.73663075639996 172.34550112129506 C116.43148384037998 171.39523290596742 117.0 169.88975740138463 117.0 169.0 Z M143.98468722548296 169.12755528455784 C143.97626519949856 167.68239987805103 143.51771377902753 165.825 142.96568406888065 165.0 C142.09693674198792 163.70167034217093 141.76287826002067 163.76097885180647 140.4809968433977 165.44112963510486 C138.72397157761026 167.74404731399972 138.62075634670003 169.4228596600229 140.06973878755088 172.13030811650168 C141.48870045204714 174.78166223925223 144.00638429478414 172.8506068477 143.98468722548296 169.12755528455784 Z M172.0 169.0 C172.0 165.6005556774902 169.8865713244518 163.5134286755482 168.17620639568256 165.22379360431745 C165.40422132268756 167.99577867731244 167.7827755998774 175.2550959580358 170.67620639568256 172.85376168024038 C171.40429287805716 172.24950356912177 172.0 170.5153108130136 172.0 169.0 Z M94.28917321871481 143.2277641544112 C88.32538908262228 138.56705869244965 87.6450155656299 127.20113828052394 93.00872955593891 121.83742429021495 C95.2120587931283 119.63409505302555 96.77193822550036 119.0 99.98881837716627 119.0 C102.26728386922309 119.0 104.99724155200894 119.46333996494855 106.05539100557925 120.02964436655233 C109.11394130974443 121.66653081386006 111.0 126.44239215538478 111.0 132.5503400731158 C111.0 137.6421101860429 110.66425848776704 138.53574151223296 107.6 141.6 C104.89640441650236 144.30359558349764 103.41142441072527 144.99544554674333 100.35 144.9777641544112 C98.2325 144.96553443933735 95.50512794842166 144.17803443933735 94.28917321871481 143.2277641544112 Z M122.21679497935997 143.43929570629814 C117.53003323328083 140.156559996609 115.40972419292949 130.95623902854877 118.12496319070436 125.68425854591067 C120.70614098219983 120.67257487823552 123.17713135090477 119.0 128.0 119.0 C131.5497632524529 119.0 133.13673040085848 119.5328792429963 134.70072278258615 121.25 C137.89098402512468 124.75261539878855 139.0 127.52147315262732 139.0 131.98391847279487 C139.0 139.67550393219867 134.50022357931627 145.0 128.0 145.0 C126.04475686774596 145.0 123.44231460845796 144.29768306783416 122.21679497935997 143.43929570629814 Z M148.4 141.6 C145.33574151223294 138.53574151223293 145.0 137.6421101860429 145.0 132.5503400731158 C145.0 126.44239215538484 146.88605869025557 121.66653081386006 149.94460899442072 120.02964436655233 C151.00275844799106 119.46333996494855 153.7327161307769 119.0 156.01118162283373 119.0 C164.34173528013255 119.0 169.17147533686577 128.53247598476264 165.49559125395928 137.71941470479635 C162.269656272371 145.7818199173218 154.37406624084178 147.57406624084177 148.4 141.6 Z M103.0 132.24312891080578 C103.0 131.48709241036434 102.51861754560211 129.96904574807598 101.93026121244914 128.86969188349832 C100.50502114795928 126.20660646305049 98.0 128.15233220242104 98.0 131.92244471544217 C98.0 135.71125419604405 100.07753729852286 137.61444662305243 101.73663075639996 135.34550112129506 C102.43148384037998 134.39523290596742 103.0 132.99916541124722 103.0 132.24312891080578 Z M158.0 132.0 C158.0 130.4846891869864 157.33621645315543 128.69399801630988 156.52492545145654 128.0206862873855 C154.23800921160847 126.12271438318244 152.24609222275254 131.04993685771342 153.86441043114843 134.60175842805666 C154.84162152500784 136.74650315374876 155.30895615781452 136.9884785939044 156.52492545145654 135.9793137126145 C157.33621645315543 135.30600198369012 158.0 133.5153108130136 158.0 132.0 Z M129.96495890285263 134.065474888936 C131.12664761643634 131.89483967222893 129.76535783150712 127.0 128.0 127.0 C126.2346421684929 127.0 124.87335238356367 131.89483967222895 126.03504109714736 134.06547488893602 C127.35024762079836 136.5229607576528 128.64975237920163 136.5229607576528 129.96495890285263 134.065474888936 Z M106.93308434379176 104.92836655560771 C99.57375168246092 97.05017516017129 103.65757716102289 81.98182791900004 113.22556279231969 81.71061379713434 C121.30365940507556 81.48163206956899 125.58315709326787 86.95434932531934 124.79144754784699 96.50132562629088 C124.37839804423083 101.4821596265365 123.84377325997559 102.75039660007744 121.13802003186575 105.16798679197908 C116.58737935021081 109.23398370719771 110.86496012608814 109.1374533548462 106.93308434379176 104.92836655560771 Z M134.86197996813425 105.16798679197908 C132.1562267400244 102.75039660007745 131.62160195576917 101.48215962653649 131.20855245215301 96.50132562629089 C130.41684290673214 86.95434932531934 134.69634059492444 81.481632069569 142.7744372076803 81.71061379713433 C145.52669690151882 81.78862935074983 147.12676729823085 82.57745869029696 149.16899658892947 84.86311012715268 C159.6250663323913 96.56548406814731 146.33843773875924 115.4222004637182 134.86197996813425 105.16798679197908 Z M143.80056378963423 94.1628906699624 C143.43051467555267 89.84354085969059 141.4304954370618 88.96105939347183 139.85383583392417 92.42145028474408 C138.21960904557423 96.00818738476568 140.24944049460257 100.8677984945637 142.57548924109076 98.93734949441375 C143.54528609746916 98.13248959000686 143.99162205753055 96.39299327468574 143.80056378963423 94.1628906699624 Z M116.5659791568457 96.59314076853425 C117.26914419757894 93.79150809220816 115.40483696314257 89.70122735098738 113.68229567925252 90.26635365195584 C112.3708467573895 90.69660997443295 111.54693682683248 95.37695300534723 112.39404161162793 97.58447268879942 C113.262700232954 99.84816076989182 115.90670591246938 99.2198945988245 116.5659791568457 96.59314076853425 Z M151.0 36.0 L151.0 25.0 L128.0 25.0 L105.0 25.0 L105.0 36.0 L105.0 47.0 L128.0 47.0 L151.0 47.0 L151.0 36.0 Z" fill="currentColor"/></svg>
