<svg xmlns="http://www.w3.org/2000/svg" xmlns:xlink="http://www.w3.org/1999/xlink" width="256" height="256" xml:space="preserve" version="1.1" viewBox="0 0 256 256">
  <path d="M117.94160061886944 255.10767890599527 C112.92894007666364 253.4770976745578 111.0 251.94307749585545 111.0 249.5872609569542 C111.0 245.37420482060685 113.39716099359114 244.44472725098808 119.39044204960933 246.333942675392 C125.95352648321882 248.40277279160847 130.35502276293198 248.4391040766406 136.1278666997129 246.47209845402335 C141.9944808171313 244.47314211966545 147.34052695866262 239.97796852076806 150.75099061049212 234.17637956254538 L153.5 229.5 L154.0 177.21278426010022 C154.43049106144278 132.19442625258625 154.70852681567166 124.7938530456482 156.0 123.97809703461728 C158.15363135519135 122.61776083494952 159.6370368155262 122.77989395838281 161.42857142857162 124.57142857142877 C163.76618820770892 126.90904535056671 163.79072510659415 221.52736882924805 161.45605170515313 230.53990123925254 C158.87621244180465 240.49884665713384 152.9532631506771 247.8277976969581 143.5 252.75839701681258 C139.38885300605648 254.902674421246 136.90006458909835 255.41726630403116 129.5 255.65309321111496 C124.55 255.81084091399103 119.34872027849124 255.56540447668718 117.94160061886944 255.10767890599527 Z M98.72415352528074 240.2476868574388 C97.80483205789179 239.23184807039138 96.25331145986269 236.3980481145846 95.27632997410495 233.95035362231266 C93.63975505582982 229.85013732133982 93.5 224.49075106696205 93.5 165.83089712086215 L93.5 102.1617942417243 L95.75 99.76644589949454 C97.72172470527093 97.66734923100381 98.00000000000001 96.31189169419943 98.0 88.806869122192 C98.0 80.25837395028906 97.99455878949416 80.24038686393196 95.03813702013116 79.01579687096677 C93.40911238120329 78.34103277208293 90.06804312130471 75.64199176753458 87.61353866480098 73.01792797197045 C82.8654963754049 67.94188672120045 80.0 60.75904585976177 80.0 53.93333338268282 C80.0 44.60295021043883 86.26828492634428 33.94442670508946 94.10744643467052 29.945184919226364 L98.00000000000001 27.95935226918573 L98.00373806043731 18.729676134592864 C98.00953984770601 4.404434905889039 102.07927309832031 -0.6696327213075792 112.71850794597668 0.3835750709438628 C115.8983285756895 0.6983544618615426 119.2875 0.9315377438070556 120.25 0.9017601419338916 C122.51678736411266 0.8316307999498237 133.48321263588596 0.8316307999497936 135.75 0.901760141933849 C136.7125 0.9315377438069895 140.10167142431058 0.6983544618615277 143.28149205402354 0.38357507094393384 C153.92072690168018 -0.6696327213072082 157.99046015229396 4.4044349058887935 157.99626193956271 18.72967613459288 L158.00000000000003 27.959352269185757 L161.75 29.888093318610387 C172.78701117081937 35.564769720775054 178.30168748372034 49.57065043400573 174.5632368692542 62.43046878338882 C172.69303918804158 68.86372280706577 166.11946564193255 76.87944789900857 160.96186297986878 79.01579687096688 C158.00544121050586 80.24038686393202 158.0 80.25837395028915 158.0 88.80686912219205 C158.0 96.15106417326672 158.30141301081534 97.6919370047633 160.11581905198875 99.6232837313471 C162.68349118036144 102.3564454644649 163.84695394594007 110.2745566391852 162.0066980380846 112.4919293578388 C160.5055502577514 114.30070177941865 156.86545233797003 114.46545233797147 155.19999999999948 112.79999999999951 C154.53999999999976 112.13999999999923 154.0 110.11499999999923 154.0 108.2999999999995 L154.0 105.0 L128.0 105.0 L102.0 105.0 L102.04389282405782 165.75 C102.08222521348037 218.80406310499984 102.28875810644865 227.00672835522636 103.67421716520124 230.5 C104.54675449959834 232.7 105.31450272877231 236.075 105.38032434114342 238.0 C105.4844694382083 241.04579764347815 105.16879869790985 241.53858555887615 102.94782355117579 241.79733323512613 C101.43004459845915 241.97415726562195 99.71819050577552 241.34608535716498 98.72415352528074 240.2476868574388 Z M121.5 235.04597238518727 C118.42671693590682 233.77477797312017 115.05723104466168 229.68634921697125 113.97611845775361 225.91672992861447 C112.38762125840512 220.37796388826112 112.75098338989018 206.80053349904352 114.55670396864906 204.22250624340543 C116.01689569295283 202.13779053046844 116.85035067059357 202.0 128.0 202.0 C142.66053766695669 202.0 143.00289024046228 202.2847721844191 142.9944230655973 214.4725062434054 C142.98712518795213 224.9771424831087 141.7302646874409 229.1516347227832 137.44091454363024 232.9177340300114 C134.4468088396845 235.5465936566075 133.1632425760571 235.99067577198917 128.71520377169384 235.9366136995809 C125.84684169726222 235.90175123435043 122.6 235.50096264287328 121.5 235.04597238518727 Z M132.0 226.0 C133.61904761904762 224.38095238095238 134.0 222.66666666666666 134.0 217.0 L134.0 210.0 L128.0 210.0 L122.0 210.0 L122.0 217.0 C122.0 224.5695308754899 123.8711649770055 228.0 128.0 228.0 C129.1 228.0 130.9 227.1 132.0 226.0 Z M149.0 86.95454545454547 C149.0 77.62233445566784 149.17427670368846 76.73481420540246 151.45454545454544 74.45454545454547 C152.80454545454543 73.10454545454546 154.44956955960484 72.0 155.11015457689967 72.0 C157.3941517585905 72.0 163.0259938698329 66.86937167127707 165.00923082013145 62.98190609777071 C167.32621089293355 58.4402499602313 167.6009001130501 51.357546180957804 165.64000014324608 46.71788136910354 C163.9216594271723 42.652133458494504 159.40976336284285 38.104697086449136 155.42039372654432 36.41777488067882 C150.18131651770207 34.20240842254804 149.5417274090926 32.62891791040586 149.0 20.622589382760914 C148.50475452912212 9.646442107606777 148.4741380408949 9.532005841290463 145.78028176494598 8.588141451446077 C143.67035041144214 7.848870731115261 142.6437528913146 8.012424078174496 141.20154109336193 9.317607817252977 C138.8152895220334 11.477135809375731 134.59325584774314 11.463516997311956 130.90429205663673 9.28439247360022 C128.16047936165165 7.663582438400535 127.83952063834826 7.663582438400535 125.09570794336331 9.284392473600214 C121.40674415225719 11.463516997311855 117.18471047796653 11.477135809375635 114.79845890663809 9.317607817252977 C113.35624710868541 8.012424078174494 112.32964958855786 7.848870731115261 110.219718235054 8.588141451446084 C107.52586195910509 9.532005841290477 107.49524547087788 9.646442107606791 107.0 20.62258938276093 C106.4582725909074 32.62891791040601 105.81868348229793 34.202408422548174 100.57960627345564 36.41777488067885 C87.36658437893396 42.00495833853402 84.95576192205324 60.76257794250494 96.33516005751443 69.44206803047436 C98.1796519912919 70.84893061371346 100.22926040580559 72.0 100.88984542310038 72.0 C101.55043044039517 72.0 103.19545454545455 73.10454545454546 104.54545454545456 74.45454545454545 C106.82572329631154 76.73481420540243 107.0 77.6223344556678 107.0 86.95454545454545 L107.0 97.0 L128.0 97.0 L149.0 97.0 L149.0 86.95454545454547 Z M107.4 64.6 C104.50831503191343 61.70831503191342 104.0 60.50485528408215 104.0 56.5503400731158 C104.0 53.99302711332948 104.65517709828627 50.6337073453885 105.45594910730284 49.08518503324695 C108.06534599372779 44.03916787185271 112.0690825586011 43.0 128.9011291225332 43.0 C142.66666666666669 43.0 144.17661364802095 43.17661364802095 146.0 45.00000000000001 C148.5060776413302 47.50607764133021 148.53929251979667 50.04468327594598 146.10647048848503 53.137515308424085 C144.2484311397984 55.499629569665174 144.2484311397984 55.58857649628835 146.10647048848503 57.88315796253516 C148.50057558444573 60.83975260372054 148.52640795338914 64.21363222536178 146.17125932841594 66.3450124378879 C144.62261558396605 67.74651576475773 141.77376832768272 68.0 127.57125932841592 68.0 L110.8 68.0 L107.4 64.6 Z M134.54545454545456 56.0 L134.54545454545456 52.0 L124.47272727272727 52.0 C114.54477786070193 52.0 112.0 52.740327919908495 112.0 55.628571428571426 C112.0 58.962313446130636 115.04893642833274 60.0 124.84415584415585 60.0 L134.54545454545456 60.0 L134.54545454545456 56.0 Z" fill="currentColor"/></svg>
