<svg xmlns="http://www.w3.org/2000/svg" xmlns:xlink="http://www.w3.org/1999/xlink" width="256" height="256" xml:space="preserve" version="1.1" viewBox="0 0 256 256">
  <path d="M20.23449602610417 254.0199886607084 C14.31247249517043 251.33201677143563 5.558415887642639 242.76159869289958 2.5324612638923103 236.68929895252532 C-0.7287876052576867 230.1448251834866 -0.9251523118295415 220.66012333660103 2.0627177123228204 214.0 C3.5985631767594533 210.57651767432247 16.211609167463294 197.35927289514092 54.78707915291795 158.75 C82.67514140400772 130.83749999999998 106.15107831305356 108.0 106.9558278396865 108.0 C107.76057736631945 108.0 130.71223181783074 85.81970771683338 157.95950439860047 58.71046159296307 C209.5289476889803 7.40225353339568 210.67344985796896 6.4129803867055335 223.61384251959117 1.9608324295645474 C229.99721846585393 -0.23537095637305105 243.89028133693495 -0.7136325931480179 250.22203347873335 1.0448589629627918 C253.45420299001924 1.9425161463503788 254.09425174633378 2.6327447282707297 255.08518540933528 6.289282028559725 C255.75824080730217 8.77285107027788 256.0421357131932 14.703774208160642 255.7773094998895 20.74862841968529 C255.35570830906735 30.371987460063412 255.0659031381793 31.531178497179866 251.02718801812728 39.74862841968529 C246.75879237367582 48.433402268569296 246.35040939959512 48.87700200371188 197.36303044883968 98.04049560139953 C170.21336370197784 125.28776818216927 147.99999999999997 148.23942263368053 148.0 149.04417216031348 C148.0 149.84892168694643 125.16250000000001 173.32485859599228 97.25 201.21292084708205 C58.64072710485898 239.7883908325368 45.423482325677526 252.40143682324054 42.0 253.9372822876772 C36.00886574387653 256.62502987880197 26.057123667690693 256.6628453363926 20.23449602610417 254.0199886607084 Z M38.34897900197536 245.50464001627523 C40.082159487848315 244.6821920252266 59.26181583917114 226.2434103139354 80.97043756047053 204.52956954673925 L120.44065887192396 165.04985906092804 L117.22032943596197 161.7273222873157 C109.97110029421465 154.24801593597567 116.24450674643079 147.9676990537897 123.72368447017979 155.21680352476713 L127.04258342665621 158.43360704953426 L132.02159131435843 153.45459916183205 L137.00059920206064 148.47559127412984 L122.22534308775695 133.7249674118508 L107.45008697345327 118.97434354957178 L102.50491685734711 123.99500808046913 L97.55974674124096 129.01567261136648 L105.77987337062046 137.27872389212087 C113.87603303521976 145.41716086542198 115.34790545661184 148.25209454338813 112.79999999999998 150.79999999999998 C110.25111985107468 153.34888014892533 107.41681442259072 151.87568839207938 99.26219859996343 143.7634339235559 L90.98262202705158 135.52686784711182 L51.48667099725056 175.01332579904732 C29.76389793086002 196.73087767261188 11.317807974773407 215.91784051215166 10.495359983724779 217.65102099802462 C8.443920360685084 221.97410909757204 8.620623371553405 228.34476567838706 10.915265612475974 232.78983806729644 C13.116573665052373 237.05410788220976 19.125077037212492 243.0485443411441 23.5 245.34510948282332 C27.32691881754679 247.35400619510148 34.293992299144065 247.42885719657235 38.34897900197536 245.50464001627523 Z M24.298548514842203 236.09936428119664 C19.62345113506648 233.16280783103102 17.68835440696359 228.77157892306 18.22384196242401 222.31430298011557 C18.570452825439563 218.13463164230242 19.30057722868033 216.29570269864445 21.542581556002865 213.95555443259798 C27.46241958225317 207.77657497052456 36.526996805490256 207.5936634721569 42.46666666666668 213.53333333333336 C48.414839323004415 219.48150598967112 48.22314267926843 228.53785092641291 42.023336183567174 234.47764251722856 C37.96735569367558 238.36351844304568 29.182746383318932 239.1672624637258 24.298548514842203 236.09936428119664 Z M36.548019011244506 226.5670577760284 C38.38505624308021 223.76338458240846 37.35740848295745 220.79683049068865 33.910023952270585 218.95184628060227 C31.11644024396566 217.4567656519408 27.0 220.13737398300194 27.0 223.45162440842563 C27.0 228.82861412573584 33.64543535883047 230.99696035910276 36.548019011244506 226.5670577760284 Z M243.24402150684568 35.0 C245.96684659572298 29.39318148030504 246.45776468085793 27.160227779542442 246.81660739643144 18.749999999999986 L247.23261473518056 8.999999999999972 L239.29444619949894 8.999999999999972 C230.71204735368613 8.999999999999972 224.08403299690735 10.75350896558335 217.5 14.765943577303766 C215.3 16.106665312740283 191.56476513770178 39.091318313932746 164.75503363933726 65.84295024662038 L116.0100672786745 114.48228103332512 L128.7459379574261 127.24648509347384 L141.4818086361777 140.01068915362256 L190.7846257960934 90.75534457681128 C234.96366836015403 46.618841027565836 240.41548905804294 40.82449022608519 243.24402150684568 35.0 Z M134.0 122.0 C132.9 120.9 132.0 119.44832705843335 132.0 118.77406012985189 C132.0 118.09979320127043 153.71249999999998 95.80930246732365 180.25 69.23963627663682 C224.45514118614855 24.98091389404054 228.7514938122602 20.954995906617462 231.5 21.215576146784933 C234.02701607917135 21.455157363576383 234.54484263642362 21.97298392082864 234.78442385321506 24.5 C235.04500409338254 27.248506187739807 231.0190861059595 31.544858813851434 186.76036372336318 75.75 C160.19069753267635 102.28750000000001 137.90020679872958 124.0 137.22593987014812 124.0 C136.55167294156664 124.0 135.1 123.1 134.0 122.0 Z" fill="currentColor"/></svg>
