<svg xmlns="http://www.w3.org/2000/svg" xmlns:xlink="http://www.w3.org/1999/xlink" width="256" height="256" xml:space="preserve" version="1.1" viewBox="0 0 256 256">
  <path d="M86.0 241.43396221123868 C82.975 240.6450336505726 77.48004903723555 238.44531543587001 73.78899786052342 236.5456995118996 C67.31285561938641 233.21272406989567 66.78791189237276 233.11145147089073 58.78899786052342 233.6518865050923 C31.24960606141147 235.5125456007624 7.782308473342763 216.60534324176092 3.8108069232204045 189.35689354808883 C1.6209567967713596 174.33234420468247 6.292808388515521 159.17547129878932 16.49598599373791 148.202408397042 C19.412261731462564 145.0660837786689 35.773013018489294 131.25 52.853211076019534 117.5 C81.2705412327899 94.62331623207814 84.03941755789035 92.12390643761252 85.4540583175827 88.07186116809146 C86.64567359980452 84.65864192190921 87.0 79.14643533506226 87.0 64.02186116808987 C87.0 43.27746286060463 87.27124805584779 41.99999999999994 91.67597705749881 41.99999999999994 C93.72215026717647 41.99999999999994 110.42948406101 52.94886734987492 112.23468722548293 55.47280142310095 C112.63876519949855 56.037760640395426 112.97626519949856 62.15582444765738 112.98468722548293 69.06849877257196 C113.01024496840233 90.04591603644732 112.34838961471189 88.93498388232896 136.440964158174 108.44014110368285 C147.650765566117 117.51550739497095 157.30684505542533 125.06662549307836 157.89891857885914 125.22040354392152 C158.49099210229298 125.37418159476468 160.44344731799987 122.59048847848214 162.23770794709668 119.03441884107144 C166.37632675188036 110.83203372831534 170.29291018613893 108.0 177.4978447200155 108.0 C184.4256051545426 108.0 185.88167725393012 109.15067008403669 211.33180392514782 134.73749788780339 C229.98979863674197 153.4957109221241 232.1289839438797 155.984793932275 231.83180392514782 158.59059819558726 C231.56155622356613 160.96024813348325 230.96345345831244 161.561246923689 228.6078757233186 161.83013671901764 C226.01641173446868 162.1259529899951 223.3084246294065 159.7609019431522 202.55909055125966 139.08013671901764 C189.822927058802 126.38606152355794 178.73701079284106 116.00000000000001 177.92372107134645 116.0 C173.40540156684938 115.99999999999996 168.10676551392882 124.20687789197402 165.50764270255775 135.23084319287503 C158.99222150792517 162.86546548011327 176.5005945820067 191.29003719476884 204.46009876074777 198.46955052468553 C218.26869464937633 202.01535726060112 238.6010243269586 198.39897567304146 245.90133794316046 191.0986620568396 C249.1871396420641 187.8128603579359 248.45040214496754 185.43370046823864 242.0 178.5 C236.02254821478368 172.07468583964743 234.92026725445595 169.47973274554215 237.2000000000005 167.19999999999948 C239.44079763786766 164.95920236213422 242.1077825742247 165.9887089213968 247.65641381543958 171.23637323278678 C255.01727988449912 178.1979737595263 256.3196727258258 180.9038142876122 255.79577399646814 188.14664020575447 C255.47624552182478 192.56407622543884 254.78512956282572 194.60457208451766 252.9371807669221 196.5865374064029 C249.89901393084605 199.8450374928514 241.2644796047705 204.2762944881696 233.44772045167753 206.5885599933183 C223.06682034057772 209.659320748406 204.64813837403202 208.7147425338649 194.0 204.56553481596632 C192.9518971613729 204.15712573689308 191.74683806437852 205.4066096073116 190.0 208.71299571156874 C186.97593824688934 214.43688962182532 178.69924836205522 222.91986645486446 172.71940849737211 226.42428602421086 C163.62507224703734 231.753922042412 157.38517898409816 233.31782198248678 144.5 233.496895986965 C132.98584289208335 233.65691597768847 132.19634819244789 233.8076157774384 125.0 237.2190819579165 C120.875 239.17455959992944 115.11535050369484 241.27523428567625 112.20077889709964 241.88724792624274 C105.02660990431406 243.39370920973928 92.69635292155918 243.18039000367435 86.0 241.43396221123868 Z M80.45136283533807 224.25 C75.96691385901187 213.8079770194896 73.64979656275786 201.81493614723055 73.56769568407847 188.6212031196918 C73.50972919466831 179.3059022590533 73.75150924909487 177.582002512844 75.25000000000001 176.62631797442117 C76.52817513564442 175.81114296330142 77.47159504438699 175.80770422118516 78.74914759696762 176.61356366841045 C80.14572728465339 177.49450350360632 80.73995583289512 180.27140722319436 81.69721351517269 190.3902414097904 C83.43755256420272 208.78675322852425 87.66743817908484 222.56330939598683 93.86172771368396 230.00954281975459 L95.9334614305885 232.5 L95.96673071529425 180.22856120885018 L96.0 127.95712241770038 L98.47038613502708 126.83153916839973 C100.35934145752076 125.97087352608189 101.3007826424261 126.00473799081546 102.47038613502708 126.97542267499173 C103.80734141672563 128.08499700815943 104.0 134.79851464215946 104.0 180.27743227755428 L104.0 232.30997512422417 L106.15386854164993 230.40498756211207 C109.24478533027326 227.67122831729745 114.49491470598774 215.7443340731612 116.45656849209922 207.0 C117.3819473488547 202.875 118.40272570458126 194.84970066845756 118.72496483815826 189.16600148546127 C119.30928467383445 178.85968599927025 120.3464333642262 176.0 123.5 176.0 C125.75827492167323 176.0 128.0 178.97176727902033 128.0 181.96547403822285 C128.0 195.18709247786316 123.9646048599116 216.02898497566227 119.52853981918088 225.71862738720318 L117.05726633982857 231.1165997109146 L119.27863316991429 230.4263994786554 C123.35457690915662 229.15996420223055 131.97791673234585 222.84310354846667 136.0448728435338 218.1446151726425 C141.48984753954844 211.85412429532417 145.70063401898523 202.78288654407098 147.1798695766521 194.15664921454567 C148.98807270332316 183.61202078818695 147.30328567910183 175.36182086418367 140.41320061714976 161.02108315613384 C134.07798078981233 147.83521896871218 133.8518683868702 144.66414961537933 139.28431171135674 145.1892005796024 C142.3003243448936 145.48070115250482 142.82692611295218 146.1680593919442 147.7650007438898 156.25880162580782 C154.34115441027308 169.6968876202981 156.00000000000003 175.9958272339659 156.0 187.52859753331916 C156.0 200.42932246629067 152.21162514995189 211.8205802499215 144.7853198093103 221.25 L141.83194136551222 225.0 L145.5025933050672 225.0 C152.7980824808888 225.0 164.04734136156702 209.85578701909537 166.89491617829367 196.20077889709953 C168.60760907788165 187.98788302620486 168.26688848659867 185.59136891183294 164.4835903676393 179.24032365187216 C158.31253236132122 168.88093153747283 156.69824581522 162.95786425124945 156.0676318534138 148.36086877552776 L155.5 135.22173755105553 L141.6900121733875 124.00418993547476 C134.0945188687506 117.83453874690532 127.72947385754777 112.94714779791782 127.54546770404787 113.14332115994699 C127.36146155054796 113.33949452197615 129.27242722569326 117.92907868736738 131.79205809325964 123.34239708303863 C136.77168237307927 134.04090537029217 136.7423248629236 136.2089000420501 131.60955027353026 136.8202423985794 C129.02631788496387 137.1279199223796 128.46188449292947 136.2058853678611 117.22377194471768 113.32024239857941 L105.5267195455242 89.5 L105.17661893921715 74.99804858543169 L104.8265183329101 60.49609717086338 L101.00348327306206 57.74804858543169 C98.90081399014564 56.23662186344426 96.91484736524086 55.0 96.59022410660701 55.0 C96.26560084797316 55.0 95.98899931005838 61.1875 95.97555402235193 68.75 C95.9621087346455 76.3125 95.4903559509075 84.49922509053079 94.92721450293416 86.94272242340173 C94.36407305496081 89.38621975627268 85.54324327024476 108.51121975627268 75.32537053689849 129.44272242340173 C65.10749780355222 150.37422509053079 55.90425058729022 170.1275924700998 54.87371005631627 173.33909437799957 C52.39050367708177 181.07757897412077 52.399438498395924 192.89220333848453 54.89455985792088 200.90904405788206 C58.407747525863826 212.1969382694135 67.40447112781814 223.11103934225972 78.0 228.93870465437644 C81.025 230.6024901795555 83.56293048328392 231.97192116534862 83.6398455184087 231.98188462280555 C83.71676055353349 231.99184808026249 82.2819433461517 228.5125 80.45136283533807 224.25 Z M57.379872379806756 223.75 C56.97388349488802 223.0625 55.647661924725554 221.15 54.43271333500127 219.5 C45.325652064121 207.1318625956326 41.892929370092574 189.5650825124582 45.550648417812894 174.04649414117952 C46.70432552004228 169.15179341942076 64.36629381675566 130.70491107201445 73.82426026682934 112.5 C74.11000083029396 111.95 73.47893613712924 112.21335358521735 72.42189428201885 113.08523018937188 C71.36485242690848 113.9571067935264 60.05306472262337 123.09769777630576 47.28458827249638 133.39765459554823 C34.51611182236938 143.69761141479069 22.696411665843897 153.8581057214324 21.01858792466196 155.9765308325298 C9.285972996844396 170.79016439359515 8.999495755054648 192.32607756646155 20.33148737751361 207.6292821365097 C23.99088788094067 212.5710925766704 35.10062182373372 222.23182465843234 33.87960803755928 219.4103710970595 C33.662923055961734 218.90966699367678 31.990812882132598 215.62989942553037 30.163807651272315 212.12199872340085 C24.305307743697277 200.87351645740787 22.565053363477215 186.71159347789646 25.507642702557707 174.23084319287508 C27.020361428570716 167.81477132715438 31.016030655057133 158.87635547568178 33.76898762679573 155.75 C35.85598394899055 153.37993303324288 39.67805825629435 153.5299292574939 41.018465830524114 156.034503719949 C41.90464825988996 157.69035073569083 41.5550956383146 159.03970246141324 39.140336905269606 163.284503719949 C30.95489271037735 177.67334652427286 30.805035979531155 196.2588885409711 38.76366607446488 210.0 C40.19714614947135 212.475 43.60202070558537 216.8625 46.33005397694047 219.75 C50.42994247950537 224.08954679932316 51.88216220169665 225.0 54.70407422953164 225.0 C57.16226156167592 225.0 57.91137821003211 224.65004990740837 57.379872379806756 223.75 Z M176.85563424686103 211.39412689501714 C179.41003541108748 208.58589668727657 182.28920444834975 204.91357986071387 183.25378766299946 203.2334228359889 L185.0075753259989 200.17859188194353 L180.81773673273278 197.09734985437896 L176.62789813946668 194.0161078268144 L174.53243317194386 201.2580539134072 C173.37992743980635 205.24112426103324 171.03203287955026 211.08731454717463 169.31488970470812 214.24958788261029 L166.19281120499517 219.9991757652206 L169.20203984935864 218.24958788261029 C170.85711560375853 217.28731454717465 174.3012330826346 214.2023571027577 176.85563424686103 211.39412689501714 Z M18.104631483580892 90.41748156682958 C10.581323869431513 88.39435034507478 3.106610787438978 84.10684267589716 1.4213619878461952 80.84793085293754 C0.6396128945307877 79.3361948033945 7.993605777301126e-16 75.95618049342376 1.7763568394002505e-15 73.33678794189142 L3.552713678800501e-15 68.57425603001444 L27.369436274805082 41.152880964740255 L54.738872549610164 13.731505899466072 L59.61943627480508 13.310085538801012 C63.350556560150345 12.987915776275859 65.28045360261119 13.378484152413591 67.8138242474985 14.968447997275199 C74.29580029088712 19.036588430277426 79.95692530675873 36.81425630814228 78.49162007357421 48.5 C76.52298276885475 64.19979444841354 68.05550743001753 77.6555074300173 63.20000000000003 72.80000000000003 C61.35573203732074 70.95573203732081 61.700999242750626 69.38393154374536 65.75 61.19133518740382 C69.29626466705831 54.01595619100634 69.49939115526665 53.08477856501381 69.48879346200249 44.05186287765248 C69.47959448883711 36.21114254900016 69.0599590130571 33.572276405790774 67.14632320691402 29.321303131391744 C64.18031632806728 22.73258027556614 61.82350872039881 20.478825186872236 59.33318718885069 21.84980015334937 C58.324934234982805 22.404864847654196 46.32002474763951 34.091509277393286 32.65561055031 47.820121108325125 C15.04341003658979 65.51506659590098 7.91147269153779 73.3224990277471 8.155610550309996 74.6406167641006 C8.62906352733609 77.19682320207771 18.67765240167543 82.05137509049379 25.20737137335135 82.8784558019483 C32.666742341264914 83.82329000904154 41.166666851713146 82.4696900728336 47.62158222022477 79.30902711641289 C53.98315840456843 76.19406788884683 56.5 76.8405267854791 56.5 81.58947741259837 C56.5 83.90945129293806 55.72474321433862 84.88863784252015 52.46368084325978 86.6875423392134 C43.23152199560371 91.78029131958344 28.94124499075933 93.33161086326155 18.104631483580892 90.41748156682958 Z" fill="currentColor"/></svg>
