<svg xmlns="http://www.w3.org/2000/svg" xmlns:xlink="http://www.w3.org/1999/xlink" width="256" height="256" xml:space="preserve" version="1.1" viewBox="0 0 256 256">
  <path d="M92.7160833447319 254.223390625911 C91.18492918433445 253.27552578165995 88.82242918433444 250.27414505437923 87.4660833447319 247.55365567639825 L85.0 242.60731135279653 L85.0 179.8626726707732 C85.0 139.1116028752573 85.3505250703246 116.90139758138034 86.0 116.5 C86.63917782099534 116.1049663817698 87.00000000000001 101.72294901687481 87.00000000000003 76.64098300562344 C87.00000000000003 47.45355177899418 87.30744036491349 37.092559635084115 88.20000000000162 36.199999999998354 C91.21000495131089 33.18999504869707 95.99999999999997 36.18154873295228 96.0 41.07142857142699 C96.0 43.33333333333333 96.45528455284528 44.0 98.0 44.0 C99.93589743589745 44.0 100.0 43.33333333333333 100.0 23.199999999998397 C100.0 8.355555555535808 100.34358974358922 2.056410256408482 101.20000000000158 1.1999999999983686 C102.8961082755113 -0.4961082755069004 142.10389172448896 -0.49610827550680003 143.7999999999985 1.1999999999984823 C144.59774011299487 1.9977401129928416 145.0 6.35555555554302 145.0 14.199999999998482 C145.0 20.68999999999932 145.18769258439315 26.000000000000018 145.41709463198478 26.000000000000043 C145.64649667957642 26.000000000000068 147.9338040951832 25.100000000000087 150.49999999999986 24.000000000000085 C165.3572977635601 17.63141858762975 172.36585397561765 26.26803323291756 164.990985571372 41.85718119732755 C163.3368954201592 45.3536308558577 161.08725042292255 49.47309758058762 159.99177446640164 51.011551696727366 C158.10560882177379 53.660427085024146 158.0 55.45437916412558 158.0 84.84535350502486 C157.99999999999997 104.45773918334177 158.36808871540399 116.10945734824504 158.99999999999997 116.49999999999997 C159.54999999999998 116.83991869381241 160.00988290022084 119.22897634128114 160.02196200049082 121.80901699437493 C160.04686229757098 127.12760673243638 162.63981975064146 133.54043350251075 165.96114833223032 136.4976394611793 C169.36929029930974 139.53214131351154 171.0 143.41643222983853 171.0 148.5 C171.0 153.58356777016138 169.36929029930948 157.46785868648888 165.96114833223012 160.5023605388209 C164.72716279927408 161.6010622424694 162.8909750612612 164.3 161.88073113664595 166.5 C160.2076853141167 170.14337831674283 160.04196596958616 173.714378843723 160.02196200049093 206.55365567639825 L160.0 242.6073113527965 L157.52550065075937 247.57298454498974 C154.58764931454274 253.46848402345063 150.77483793429107 256.0013620168196 144.84570794336344 255.99626193956243 C138.93852379952622 255.9911807395294 134.7731495723874 253.2113456013059 131.8865091375968 247.3477145968572 L129.5 242.5 L129.5677615048046 180.5 C129.60503033244711 146.39999999999998 129.8300303324471 117.40542586397567 130.0677615048046 116.06761303105702 C130.4470255737503 113.93333533634407 129.94513121677377 113.46069720449678 125.97261452607046 112.21117872219416 C121.96243536943486 110.94981385863362 121.00657365984091 110.97041330781691 117.60544213393244 112.3914967962102 C114.22875838047767 113.80236535304402 113.86987193410444 114.26747630090163 114.62976071608 116.24793110507306 C115.10501874127583 117.48656899728287 115.49524631773794 146.39999999999998 115.49693310821803 180.5 L115.5 242.5 L113.11349086240321 247.34771459685717 C111.7761210484604 250.06431310733905 109.35825212468689 253.0300543973943 107.61349086240321 254.09397653641963 C103.70522757953388 256.4771609420282 96.45845272168714 256.5401138262038 92.7160833447319 254.223390625911 Z M102.6002959998886 246.23468722548296 C106.39331580432602 243.7020203825551 106.49159082151155 242.20047900001228 106.78805686335957 182.25 L107.07611372671916 124.00000000000001 L100.53805686335957 124.0 L94.0 124.0 L94.00373806043756 182.25 C94.0073513538413 238.55576184749418 94.07361571519523 240.60847680679217 95.98903962644732 243.75 C97.89754744289425 246.8801799745557 100.28806933365233 247.77860213045105 102.6002959998886 246.23468722548296 Z M148.72694702014576 244.29708422833414 C150.3217501156055 241.86590000067835 150.55026637286642 237.76919061206627 151.0 203.54708422833414 C151.5522203996063 161.52633211548175 151.21578107654489 163.7186423681343 158.43899329145438 155.07302027567482 C162.87452615691998 149.76403311143991 162.9166226393707 147.0284299356475 158.63627438114597 142.25288082303337 C154.39267154999163 137.51832827916837 152.42656112888574 133.6439259656367 151.53034998720398 128.25 L150.82420433811407 124.0 L144.37404530569745 124.00000000000001 L137.92388627328086 124.00000000000003 L138.21194313664043 182.25 C138.44764587053325 229.91310404525635 138.75439520371876 240.95437321694178 139.8997040001114 243.0 C142.60964728447777 247.84020779420283 146.06926364274514 248.34856740367667 148.72694702014576 244.29708422833414 Z M105.0 111.62244471544217 C105.0 109.76478930893536 105.5625 107.80612512256063 106.25 107.26985763460942 C107.9492980716508 105.94436191364287 134.33099236981948 96.0 136.14814142748082 96.0 C140.00328947380194 96.0 141.42779543086348 102.09137922826226 138.06392553829932 104.1921507457553 C136.1491595893651 105.38794187224275 136.1491595893651 105.41617432202409 138.06392553829932 106.75732859800614 C139.34128791208968 107.65202803139698 140.0 109.28492316719898 140.0 111.55670396864906 C140.0 114.97098074654647 140.03792489502845 115.0 144.5 115.0 L149.0 115.0 L149.0 107.5 C149.0 100.69071074617597 148.81756505976966 100.0 147.01905202821496 100.0 C145.74050309662138 100.0 144.81581999617157 99.11434976062417 144.41120519533683 97.50223598693375 C143.5868986267053 94.21793701840156 144.5407656787238 91.9328532425317 147.00504687026762 91.28842923470663 C148.86880965627677 90.80104431762952 149.0 89.91480884173012 149.0 77.81184104880268 L149.0 64.85694482552736 L141.25 72.50197066079988 C123.51645655016017 89.99531231563256 105.61885244309244 99.25640822265237 98.52639694747447 94.60925289790305 L96.0 92.95389404029157 L96.0 103.97694702014579 L96.0 115.0 L100.5 115.0 C104.94511693204569 115.0 105.0 114.95880653417737 105.0 111.62244471544217 Z M110.28324373018847 84.3615794253164 C122.53513050369887 78.16507944141138 141.1068873702127 61.12474326251794 151.3766431406703 46.656727605360516 C156.46100754652818 39.49388308648172 159.7878380192753 32.45450468594201 158.63397398775493 31.300640654421613 C157.6520960209825 30.318762687649212 149.51415046761107 34.481754440195076 142.0 39.809802588344645 C128.13764554111447 49.63916284963038 108.15568976338669 72.63867107901768 104.51614537887723 82.95423911985742 C102.8240400173349 87.75017678270096 103.33613252113351 87.87514229860123 110.28324373018847 84.3615794253164 Z M107.46803295797375 60.51607530758073 C110.4308434311732 56.65723388841133 114.47323723275356 51.9389099395572 116.451130294819 50.03091097679378 L120.04729949857432 46.56182195358755 L115.77364974928716 45.53091097679378 C111.93760082118435 44.605560239251744 111.46790870846286 44.16714998805354 111.1865935039591 41.24935625976357 C110.91972557592564 38.48140929411229 111.2864946436683 37.84157323649327 113.65654076058772 36.94048330890455 C115.18738532455595 36.35845724306211 119.6300220951643 35.97540208789847 123.52906691749519 36.089249630763135 C128.8777798109054 36.245425783680304 131.27887613682097 35.863379296851846 133.30911966086657 34.533112648138214 C135.98045378423186 32.78278730549046 136.0 32.68364906254044 136.0 20.88499006651605 L136.0 9.0 L122.5 9.0 L109.0 9.0 L109.0 29.79999999999997 C109.0 44.64444444444404 108.65641025641024 50.94358974358971 107.80000000000004 51.79999999999997 C107.14000000000006 52.45999999999999 104.21500000000005 53.0 101.30000000000004 53.0 L96.0 53.0 L96.01811537719445 65.75 L96.0362307543889 78.5 L99.05866778963636 73.01607530758073 C100.72100815902246 69.99991672675013 104.5052224847743 64.37491672675013 107.46803295797375 60.51607530758073 Z M119.2584838830528 33.304231843488594 C118.02565001873185 33.06162121631258 115.66315001873186 31.50930386488571 114.0084838830528 29.85463772920666 C111.51720569392096 27.3633595400748 111.0 26.038051820446135 111.0 22.14558316648235 C111.0 16.82411592109279 112.77027034200373 13.687278213089773 117.01104436681766 11.49428873595456 C127.24851953186847 6.200284580575279 137.71906439839563 16.743436733213372 132.8458742127401 27.43892413983 C130.8733486450978 31.768146182106875 124.79219297214934 34.393216070454784 119.2584838830528 33.304231843488594 Z M124.80287201560948 21.622722299757207 C124.61032070595303 20.273198613877256 123.77649121147843 19.5 122.51369504303216 19.5 C120.22562512022529 19.5 119.15080668973776 22.85713568248901 121.06092308516573 24.037652537331926 C123.06216224093663 25.274486355215497 125.1332043466954 23.937904189757106 124.80287201560948 21.622722299757207 Z" fill="currentColor"/></svg>
