<svg xmlns="http://www.w3.org/2000/svg" xmlns:xlink="http://www.w3.org/1999/xlink" width="256" height="256" xml:space="preserve" version="1.1" viewBox="0 0 256 256">
  <path d="M20.0 254.22713527502702 C17.281444700561416 253.18731449917212 13.12098578803236 250.12949610307214 9.490515703080442 246.50296467455127 C1.7789265137010384 238.79974170211995 -0.3662395028659128 233.2204568401394 0.16037258144746502 222.23653220423517 C0.78207853977829 209.2691666700734 1.1882492215152851 208.74702126896352 36.722143467777926 175.23520644854813 C64.19261425675833 149.3279607149408 68.65374833764633 145.5 71.37577571956822 145.5 C74.11772406294317 145.5 74.53454844325086 145.86707601895085 74.78235385697162 148.5 C75.0357594902367 151.19242612071565 73.65167703345706 152.82426502573475 61.282353856971625 164.4165554839956 C24.711744760203352 198.68982305381508 11.838343674780397 211.4441020434335 10.342330811753355 214.88521262791 C8.310793683573849 219.55812961098346 8.331353685271571 228.48809167836836 10.384534440305519 233.21579487288005 C12.449803207960336 237.97133221484455 18.02866778515545 243.55019679203966 22.78420512711999 245.61546555969448 C27.493688008124863 247.66073346667014 36.45512724558714 247.69197929168857 41.0 245.67897852051334 C45.00139071053125 243.9066951098828 53.4382379951412 235.42671846730588 88.93393911785023 197.5 C125.76400653549703 158.14752761884932 129.60286126596608 154.67853651738008 144.67151931302067 147.13259011083974 C148.9771836908593 144.97643841250914 169.69241865004437 137.33648411461314 190.7053747778764 130.15491389329307 C211.71833090570837 122.97334367197301 230.39333090570838 116.3338769696057 232.2053747778764 115.40054344358792 C242.20735089684487 110.24880303506596 247.55497359135654 101.84759409085028 247.41879101103558 91.5 C247.2871118550685 81.49459069609219 243.06834791131695 74.41333352662434 225.30814085892706 54.386949353231046 C219.06035440636688 47.341954249108376 217.87826422225794 44.52173577774201 220.2 42.199999999999974 C222.95013857636252 39.4498614236374 225.61049843723723 41.00728755468897 233.3629238206937 49.90583026036529 C253.05803712462355 72.51266594847777 256.4374165823561 79.08508570899792 255.77799270901565 93.5 C255.44950570989985 100.68068018067922 254.84406645729604 103.51473648886055 252.78294301210826 107.51980372156582 C249.7398863824806 113.43291213971679 241.50152846783567 121.47441987472692 236.22883530837373 123.67836183775681 C234.17797588876817 124.53560404746753 215.4 131.06615997175228 194.5 138.19070833616738 C154.55247862467118 151.8083182920064 144.81552306308512 155.9471281559834 135.05255874914383 163.45955696970873 C131.77134914195867 165.98438987949316 111.58639819005164 186.60137575167508 90.19711218935043 209.27508113011294 C46.00765733767985 256.1180977744139 46.985461447474 255.32423572906794 33.0 255.71241557748135 C26.89759300747781 255.88179371564365 23.23068605486469 255.46284104890142 20.0 254.22713527502702 Z M25.2181827804781 237.3369172413186 C20.126196516733426 234.82717827539108 17.626407602635084 230.52840897653118 17.196578955442725 223.54254282186207 C16.72942577835863 215.95005313985757 19.291433257516648 211.5971825970981 26.263234900333423 208.13822417529042 C33.18987420045183 204.7016723957867 38.98371642491579 205.72055853017898 44.63157894736843 211.3684210526316 C50.279441469821045 217.01628357508417 51.29832760421332 222.81012579954813 47.86177582470959 229.73676509966657 C44.71297793687903 236.08341389106843 40.20185952182426 239.00668371282072 33.60211678020825 238.97722990638826 C30.79595255109371 238.9647063549018 27.023182251215147 238.22656565562045 25.2181827804781 237.3369172413186 Z M38.75 227.67667362181353 C41.78551772964031 224.944300669352 41.62999266824926 220.90271994097654 38.36363636363636 217.63636363636363 C35.10178286815451 214.3745101408818 31.071984225330866 214.22039569475396 28.26096463769668 217.25 C24.30585960781483 221.51265376411516 25.25049677173923 227.3609369292685 30.232476548439948 229.45570220802983 C33.79734594612813 230.95461729245463 35.504513638087026 230.5980464954698 38.75 227.67667362181353 Z M81.2 139.8 C78.99009060994563 137.5900906099456 79.96690015399143 134.43783600387698 84.09643159337158 130.4529477654857 C90.55915503564724 124.21659116882415 96.80299810775306 115.63908912719927 100.9933078428524 107.24080280071419 C103.11755057997645 102.98336126032139 110.68474329941739 82.4 117.80929166383223 61.5 C124.93384002824709 40.6 131.46439595253224 21.822024111231638 132.3216381622437 19.771164691625863 C134.5255801252766 14.498471532160638 142.56708786028256 6.26011361751967 148.48019627843314 3.2170569878922493 C152.48526351113955 1.1559335427039024 155.31931981932024 0.5504942901001684 162.5 0.22200729098437932 C176.82465568956695 -0.43328761735776133 183.36393567508304 2.897587854993315 205.60975999510197 22.180578036490388 C214.18362069598436 29.61251983978241 216.21016396028097 32.83691534511112 213.9892225893068 35.512985985452794 C211.74535090746596 38.21668596013273 208.8076228085752 37.07229657504577 201.61305064676895 30.69185914107289 C181.58666647337657 12.931652088683617 174.50540930390824 8.712888144931831 164.5 8.581208988964633 C154.1524059091496 8.445026408643594 145.7511969649352 13.792649103154343 140.59945655641226 23.79462522212338 C139.66612303039443 25.606669094291238 133.02665632802706 44.28166909429124 125.84508610670702 65.29462522212339 C109.51130426388904 113.08654686145911 105.54375201833155 121.22154291199973 91.49434099900895 135.7267603243506 C86.42913921402817 140.95629293803282 83.51095351867369 142.11095351867365 81.2 139.8 Z M173.0 122.78348910200128 C169.7179817830496 121.1180551395622 167.83393282988615 119.23899367272934 166.039123895591 115.84103994682908 C164.68564203816604 113.27861191758508 162.24553388452276 110.3948264204485 160.61666133193927 109.43262773097 C155.91278834530178 106.65398159561869 150.31492682332697 101.20750688881193 147.35621818861978 96.53079586220665 C145.6144564334803 93.77766352926021 143.06365365536612 91.45778164412009 140.3040765704257 90.11707554958167 C137.92622611184132 88.96182657352567 135.08636090815875 86.5503827210287 133.99326500668667 84.75831143292174 C130.0444436034184 78.2844334784537 130.26001208859105 76.82049233189322 138.91333540479127 51.34575813696681 C146.14730143893837 30.04950522220293 147.40057572754287 27.138475776091603 150.63532573651514 24.11863049783232 L154.25732753449478 20.73726099566464 L162.99935314781806 21.235708762559682 C176.78809905919314 22.02190751234752 180.28426570968733 25.074393657290344 183.5532759640303 39.1812390798412 L185.33326635634864 46.8624781596824 L197.41663317817432 58.81588705362372 L209.5 70.76929594756504 L217.0 72.51937919009302 C231.02497434145354 75.79202886634135 233.97668945794135 79.18729390575545 234.7613890140812 92.9497462109792 L235.26273900433534 101.74267246550508 L231.88136950216767 105.35056386314886 C228.90810086698312 108.52301523969604 225.89553876639036 109.85206137811686 206.9204188292744 116.36253772307154 C180.265246533303 125.50808564470378 178.884387752582 125.76947472532815 173.0 122.78348910200128 Z M202.7957851780289 108.35650714390971 C218.02616711215978 103.12453717113783 225.40491677897484 100.11192316954161 226.0803751405116 98.84981767619655 C227.6116098127392 95.98867951954978 226.03449629115644 86.94358720024734 223.57566517444428 84.4847560835352 C222.31860620731183 83.22769711640275 218.83623649648197 81.82987006926611 214.9811516083348 81.03490884809402 C205.58123055927956 79.09654096959324 203.65123651433504 77.86176058293255 191.6639208785079 66.11690469577549 C179.39424522836512 54.095399909300156 176.8093573214484 50.215367500917836 174.94352903656014 41.01884839166535 C174.15560903043632 37.135253394436624 172.78159940736143 33.69069031645247 171.515243916465 32.42433482555589 C169.05641279975305 29.965503708843652 160.0113204804503 28.38839018726072 157.15018232380348 29.919624859488394 C155.88722233493502 30.595540533150977 152.84114256313038 38.06559007997804 147.52383820280795 53.52677664988328 C138.80440565621376 78.88037017230165 138.77968785470657 79.31647160123408 145.8574467884868 82.92727477810132 C148.02303790352516 84.03207692679494 150.85353601408588 86.36156424782122 152.1474425897328 88.1039132692708 C155.17227267433321 92.17708967717307 163.8207068493004 100.8262904859607 167.8879664334877 103.84583241970039 C169.62584929145447 105.1360402505356 171.76627399669474 107.6110402505356 172.64446577846604 109.34583241970039 C174.84224947111957 113.68736466661241 177.01416802407883 115.99855361921409 178.90498756211207 116.00779898569814 C179.78224440295043 116.01208842783213 190.53310333011302 112.56900709902733 202.7957851780289 108.35650714390971 Z" fill="currentColor"/></svg>
