<svg xmlns="http://www.w3.org/2000/svg" xmlns:xlink="http://www.w3.org/1999/xlink" width="256" height="256" xml:space="preserve" version="1.1" viewBox="0 0 256 256">
  <path d="M117.47780756439585 254.12892248698185 C112.34281754332584 251.7962605864181 107.20373941358189 246.65718245667415 104.87107751301814 241.52219243560415 C102.83372586270139 237.0372817028234 102.45054018094106 228.5184180438198 104.03031561712082 222.83063817937202 C105.25795492696415 218.4106795020699 113.2483019679772 209.22676825276537 116.5975533722901 208.3861596604827 C119.61075498935097 207.6298941958121 119.65163877777832 206.6179365373222 116.72290236281555 205.28351492462048 C98.94686947650072 197.18421232080584 98.49679938543895 168.88985772607364 116.00619979156502 160.22689576097488 L120.00910913551249 158.24641381459008 L117.05421701451786 157.02245742272473 C112.85508391827722 155.28311954405214 107.06823399462883 149.36072514293062 104.89732363528773 144.58081503798633 C102.33135546324398 138.93106670004016 102.39134059522814 129.27307031534662 105.02722740960911 123.6654624955378 C106.14220248489411 121.29345512521051 108.84220248489412 117.60703291774843 111.02722740960911 115.47341314562203 L115.00000000000001 111.5941044690286 L115.0 88.40404103869933 C115.0 62.62849055842783 115.39432299229279 64.00000000000016 107.98358859609172 64.00000000000007 C100.85958114336246 63.99999999999999 89.6886186951464 60.97973343971477 80.21615574366382 56.4925851914805 L70.81101800247868 52.03732919777343 L60.65550900123934 55.07025348301164 C31.433695686163823 63.797294860373825 13.880724698399293 56.96870519237598 11.417001256654828 35.91511641324307 C10.134235102130479 24.953321489530833 14.373838857460111 14.314184210733455 21.924103299450735 9.547911483982787 C30.906137680614094 3.877802068531813 44.93749689644076 3.9347902582326473 62.7033710656248 9.71353596922144 L70.9067421312496 12.381864862564385 L77.09383593306015 9.190932431282206 C84.59344642845771 5.323082497482053 87.64213302278804 5.120461499298184 89.13221751239624 8.390840714193402 C90.71921034229202 11.87391056779854 89.2074318123772 13.802225886084493 81.87513220511488 17.64745369501601 C73.99004528809638 21.782575977680377 69.42246846137378 21.936527865473625 58.5 18.43532128146586 C47.63056016484381 14.95111306883454 33.88536170589471 14.13285344664169 29.0710848547455 16.683400924679503 C23.09227962844433 19.85090189379839 21.5 23.07214550057103 21.5 32.0 C21.5 40.78204205394876 23.01224578621181 43.920759386243574 28.90647437223715 47.372388334816705 C33.99689245714084 50.35331012394635 45.22019984944305 49.837877526485094 57.372988518271676 46.06505807876208 C62.8031322033211 44.379276135442936 68.84962974054142 43.00000000000001 70.80964971209461 43.000000000000014 C72.9435531644551 43.00000000000002 78.25866266833077 44.81620616864163 84.05745935808332 47.526859433938256 C98.7939640317332 54.41545316292322 104.19743088859123 55.22565646757287 132.78613072745821 54.83330391125497 C153.5275999173009 54.54864708865404 157.21377816587253 54.718931223178004 158.04185849709606 56.0 C160.848579993407 60.34209476856721 156.6751805547224 63.96048945577369 148.8317874682342 63.985258197603 C140.37572939334993 64.01196168129188 141.0 61.46266660111538 141.0 95.96744196386278 L141.0 126.72090631935572 L138.53263168693593 130.35677673874537 L136.0652633738719 133.99264715813501 L139.9251852522654 135.96183236370103 C156.6411082163036 144.48965992995863 157.5014245989007 169.8581511180155 141.4021827603616 179.51464505780402 L136.3761867678651 182.52929011560803 L141.4084913464422 185.51464505780402 C150.79650805198546 191.08397450352618 155.212998342147 203.0678351033661 152.11606721633092 214.56895926580893 C150.63493882086956 220.06945019850016 144.62100472542272 226.80429386881357 138.76963217256787 229.51527429839126 C135.4730295580077 231.0426125581654 134.4163625550612 231.94579569523808 135.4583012230061 232.3456250773703 C138.0033107300968 233.32223685889468 140.99228988087845 239.25926314458653 140.99626193956243 243.3457079433635 C141.00076177279433 247.9751259778655 138.71605814599243 252.14579899377398 134.96016663667066 254.3644586933072 C131.25296072808453 256.5543591009302 122.55918444768444 256.4372296520234 117.47780756439585 254.12892248698185 Z M131.09793671318442 244.8170035774981 C132.09263761330328 242.95838794437594 131.93280957163714 242.3640108102019 130.02233650936262 240.8170035774981 C128.78818907067242 239.81765160987416 126.94581467475862 239.0 125.92817118510975 239.0 C122.92817922180815 239.0 120.0 235.04141782673358 120.0 230.98575258007736 C120.0 226.31328734575445 123.01490118109925 223.48480190179293 128.95382327866167 222.5855572535213 C135.16790374761112 221.64464937262392 139.50302305610415 218.65806606851933 141.9290482447374 213.64656676835426 C144.57220013722136 208.18654354952045 144.53687502978642 205.4874538409985 141.75 199.96600611924603 C139.17402209036948 194.8623946517795 133.3922505715862 191.04234667371358 128.20454545454547 191.016450419882 C123.87025835402159 190.99481430209937 120.0 187.20371460534082 120.0 182.97971309136523 C120.0 177.1335557524622 122.57547356406214 174.9658929412323 131.22056327262146 173.5358585449605 C136.19164703973436 172.7135627662733 140.48512169592644 168.91505517092543 142.5475364589788 163.51469919826948 C146.3029235980681 153.6813583351537 140.25215365450802 144.65227190875768 128.5 142.5526692501531 C126.3 142.15962419775468 123.4875 140.89604114665164 122.25 139.74470691436852 C117.55985421185102 135.38113083332254 120.78432514880025 125.99999999999999 126.97431402670989 125.99999999999999 C131.9421906455251 125.99999999999999 132.0 125.63536190947984 132.0 94.2999999999996 L132.0 65.0 L128.0 65.0 L124.0 65.0 L124.0 91.49080677843044 L124.0 117.98161355686088 L120.6342948771817 120.18788689045194 C109.58441326143108 127.4312603466966 109.75876850396757 142.10059488579546 120.96188975909163 147.75 C123.41592912659205 148.98749999999998 126.61774271528138 149.99999999999997 128.07703106729016 149.99999999999997 C132.54400469395458 149.99999999999997 136.0 153.52125564793684 136.0 158.07258014903275 C136.0 163.29754123584794 133.59158531669 165.5296168336456 126.33947215280278 167.02578435385783 C113.54307975433142 169.6657799316738 107.92233807768481 182.81209110374195 115.6589065456555 192.00648032653191 C118.8147931404796 195.7570384474774 122.16208346875449 197.54116263260704 127.80095434562652 198.4782586942282 C133.2427393731385 199.38260203331512 136.0 202.253173392085 136.0 207.01424741992273 C136.0 211.68671265424555 132.9850988189007 214.5151980982071 127.04617672133833 215.4144427464787 C120.83209625238891 216.35535062737605 116.49697694389586 219.3419339314807 114.0709517552626 224.35343323164577 C111.42779986277863 229.81345645047963 111.46312497021354 232.5125461590014 114.25 238.03399388075394 C118.04235532577384 245.54753196544326 128.46191047656697 249.74246365510723 131.09793671318442 244.8170035774981 Z M206.18768788567857 57.93194258082244 C203.81591622280177 57.4650332343303 198.08494158318845 55.926863054726084 193.45218868653785 54.5137866261464 L185.02900160171853 51.944556756001525 L181.0543388681557 53.972278378000766 C175.9395695059086 56.58163900117772 172.37975054873436 56.578087482760054 170.97978467244855 53.96222731495338 C169.1854863186516 50.609550173056874 170.8335187507425 47.98594824113922 176.34612382073806 45.41922932375783 C182.8692944034489 42.38198193829198 186.9517121212755 42.388613192118925 196.69837804118185 45.452288401249355 C217.02748329217408 51.84234796552202 228.296622254229 50.44977936395445 233.30305356069505 40.92891514525499 C235.78934724074762 36.200664004563535 235.2833625790256 25.216327283033692 232.39803263605177 21.281966673575738 C227.28308984157098 14.30736416780655 215.78152836140208 13.01504340566716 200.36186675457884 17.682368273014827 C186.52486678160903 21.87064267942289 182.32196135261512 21.874029600993488 174.24445490007645 17.70341505293236 C160.33288328558476 10.52052967825605 156.244991875053 9.751069816725128 128.5 9.092980381762487 L103.5 8.5 L103.19893464163071 5.4148251987210045 C102.66183141151981 -0.08915360574570474 103.3623247631823 -0.216258122109991 131.70788702518973 0.24187588212182476 C160.48859183851303 0.707042860249282 162.07445662685458 0.9888639303108082 176.82531183832162 8.259609192509696 L185.15062367664328 12.36318289973105 L193.32531183832162 9.7041949878048 C221.76262508349308 0.45436543209897806 240.02061759569662 6.00917675413811 244.12780809024818 25.16034555744885 C246.3435189818783 35.491849139090206 243.15092719634404 47.02626489001998 236.4461618336622 52.91312684834247 C230.34874783481865 58.266727246310445 218.15886285252043 60.28860008204731 206.18768788567857 57.93194258082244 Z" fill="currentColor"/></svg>
