<svg xmlns="http://www.w3.org/2000/svg" xmlns:xlink="http://www.w3.org/1999/xlink" width="256" height="256" xml:space="preserve" version="1.1" viewBox="0 0 256 256">
  <path d="M93.40972234504325 253.0351074664532 C88.48412356680282 250.56394720067507 80.63978892798934 243.19516313799397 46.3040119843027 208.7851074664532 C-0.29411988787251886 162.08616966344033 0.009817722507039911 162.47886572856174 0.03173091619473212 149.0 C0.04045077286570447 143.63639217014935 0.620990537902359 140.2181646979104 2.069768828246495 137.0 C3.6069110345322732 133.58555293318074 16.56793975551284 119.99981681224595 55.79780682775575 80.68232936824587 C84.23401307249009 52.1826105207811 109.48355150052929 27.685711754904467 111.90789222339842 26.244776555186675 C115.44091359170092 24.144884075998636 117.95124981415158 23.539054378148574 124.55580642536646 23.19240374118509 C136.63696605953123 22.558304901706688 140.87338615486124 24.774796901723562 156.1350160588392 39.71462390452693 C166.38821721043178 49.75162862771251 168.33910665790972 51.26269867733059 169.33332839072102 49.937435092518214 C183.36552372647301 31.23299836605293 202.21875944159487 8.129680045984601 205.230464270842 5.9480122926972285 C211.98898898243473 1.0521621815282796 216.9573915445778 -0.3078972785565376 226.22592871769882 0.20067606487251055 C239.15853381794585 0.9103002582300309 247.43638592329458 6.182136275827849 252.95316910928472 17.22219647308495 C255.60491335845697 22.528806349096953 255.9971521579875 24.36852182711644 255.97803799950896 31.40972234504298 C255.95452309976642 40.072051080673205 254.23958186708109 45.3749750479115 249.4169955018104 51.69771172216838 C248.05167703348107 53.487736513411576 237.8368136721663 62.009006816382396 226.7172991433331 70.63386795099241 C215.5977846144999 79.25872908560243 206.08052419904993 86.6864368799188 205.5678315534443 87.13988527169545 C205.02880385280423 87.61662556838839 209.56826497720812 93.00318668664003 216.33126034707004 99.91185653655084 C230.54150286294131 114.42818675123866 232.97571912693158 118.8325199390141 232.99023108429603 130.05365567639825 C233.0030675091945 139.97921310128547 230.42537567455136 145.1549880286179 220.62500764384367 154.88191970463754 C214.1729783662736 161.2856024804231 212.84364703766005 162.1775739642155 210.59367797384178 161.612867676423 C205.93914213678292 160.44465354574425 207.14035429620452 156.5505611544624 214.50999629341143 148.91693777723077 C221.3577252997385 141.82392237112873 224.94510286956478 135.50910928180164 224.9724610651066 130.5 C225.01338723426204 123.00668219430352 223.11944300781366 119.9316019841397 210.52967475902477 107.05014032132185 C203.78340253859704 100.14756314459483 197.71319541088437 93.44011631247065 197.0403255863299 92.14470291660145 C195.3206170064045 88.83390868845818 196.5242303144757 83.81704432771443 199.76245270221227 80.79841551556797 C201.26810371599552 79.3948672143593 211.05 71.63447405179656 221.5 63.5530973765397 C231.95 55.47172070128283 241.73905983382744 47.23400137103722 243.2534662973943 45.24705442043836 C250.47467176277902 35.772615077846176 249.4329498738816 24.365182451420367 240.53388371123083 15.466116288768603 C235.43643282381424 10.368665401351455 230.28999112792818 7.999999999999957 224.31211927251803 7.999999999999986 C220.23677483329902 8.000000000000005 213.0313934523053 10.641350726198768 209.87138943499582 13.293686791346346 C208.42565362424352 14.507159056105856 200.60156635801897 24.05 192.48452884338573 34.5 C184.3674913287525 44.95 176.58404374150723 54.731896284004335 175.18797864950741 56.237547297787415 C172.18640279195367 59.4747357059574 167.16772245901743 60.68023025202222 163.85529708339885 58.95967441367016 C162.5598836875295 58.286804589115604 155.8524368554051 52.21659746140294 148.94985967867802 45.47032524097534 C136.0595245707281 32.87188448120121 133.04955711315907 31.019462789085797 125.44634432360175 31.00557693440247 C117.93030958882296 30.991850294229344 114.12302433965914 34.32098705341556 62.298052215500405 86.22321542972672 C10.553157107783086 138.04524741760417 8.069070711945605 140.89579929146672 8.027538934893336 148.5 C7.9793469789003835 157.32363654813076 7.85806977626698 157.1775905564482 52.334990215200406 201.85648844672198 C80.48195439453967 230.13127289850382 95.82982733095571 244.8351863300775 98.5 246.08452644623105 C100.7 247.11387870026397 104.3 247.95607599901817 106.5 247.95607599901817 C114.99932746700765 247.95607599901817 117.47592576745849 245.90923024194794 158.54152008860393 204.94507798393744 C180.01435613733608 183.52528509277184 197.9314397916763 166.0 198.35726154269332 166.00000000000003 C200.4934256361823 166.0000000000001 203.0 168.3226200203235 203.0 170.30201371470275 C202.99999999999997 173.64700777620203 125.13975793144746 251.16035547371052 119.0 253.92776459353973 C115.77327013818862 255.38216747823083 112.35233913808517 255.96229012332927 106.90972234504325 255.97803799950907 C100.46540286874962 255.9966842406528 98.42721189402957 255.55236909608223 93.40972234504325 253.0351074664532 Z M86.83011553689391 227.29611480791692 C79.22355199160225 219.75897795227127 73.0 212.87397795227125 73.0 211.9961148079169 C73.0 209.80912940669612 74.99321394680572 208.0 77.40273190999807 208.0 C78.62579128036292 208.0 84.32362642640068 212.86630621740306 92.03866646560863 220.5 C101.02178156445927 229.38839844381275 105.35260551502328 233.0 107.02794436347295 233.0 C108.79093160793437 233.0 118.50144723783964 223.9049435461986 145.60351031946175 196.86938001247208 C178.57168610827438 163.98209728254932 182.05536284912145 160.79707913086068 184.4115005115994 161.38843204068718 C186.40718349811218 161.88931658574575 187.00000000000003 162.66473688580857 187.0 164.774260612625 C187.0 167.04016420381552 180.85578158499735 173.63572292919702 151.25 203.1503743029594 C131.5875 222.75235072673618 114.5170836543402 239.28750686375173 113.31574145408933 239.8951657185495 C112.11439925383847 240.50282457334728 108.77545124544072 241.0 105.89585699098325 241.0 L100.66023107378781 241.0 L86.83011553689391 227.29611480791692 Z M86.23442369060857 81.83442369060857 C85.55549066077386 81.15549066077385 85.0 79.84510012194897 85.0 78.92244471544217 C85.0 75.71490531435569 87.50489087109159 74.90937479349223 96.5454453607515 75.20962483878462 C103.57920339147543 75.4432262367648 105.50384470759707 75.84215765992428 106.38921826929352 77.25 C107.18998124800814 78.52330211175435 107.18991592849234 79.47669788824565 106.38897847558886 80.75 C105.49978684892363 82.1636054842769 103.57552151566311 82.55467346837854 96.3785170209267 82.78442369060858 C90.30511752532398 82.97830503177309 87.07588566653729 82.6758856665373 86.23442369060857 81.83442369060857 Z M117.3962583310281 81.59024936695823 C117.09132689455288 80.79561078126673 116.98992409151352 79.10022525228187 117.1709187687184 77.8227259692141 L117.5 75.5 L142.39101350429928 75.5 C165.00955145469038 75.5 167.38280720858225 75.65976979879315 168.38589864957007 77.25 C169.19073957935979 78.52593786709875 169.19091625087464 79.47406213290124 168.3865508323317 80.75 C167.39229737130384 82.32715089581725 164.84701573175468 82.52642353122742 142.6170052493706 82.76752339774413 C121.85881110439254 82.99266039628257 117.86283671052306 82.80613313375464 117.3962583310281 81.59024936695823 Z M100.0 65.0 C99.23950997736534 63.57901139454756 99.23950997736534 62.42098860545244 100.0 61.0 C101.02811956433595 59.078941021602375 102.09382335596798 59.0 127.0 59.0 C151.90617664403197 59.0 152.97188043566405 59.078941021602375 154.0 61.0 C154.76049002263466 62.420988605452436 154.76049002263466 63.57901139454755 154.0 65.0 C152.97188043566405 66.92105897839762 151.90617664403203 67.0 127.0 67.0 C102.09382335596798 67.0 101.02811956433595 66.92105897839762 100.0 65.0 Z M115.69756993307533 50.364236599742 C114.58489637813449 49.251563044801145 114.88984860987215 45.51015139012786 116.2 44.2 C116.96800232225112 43.43199767774888 120.88390117434618 43.0 127.07755528455783 43.0 C137.53807946822536 43.0 139.44375590283195 43.84260219434204 138.82676386631414 48.19495794406143 C138.5109234465956 50.42294434484847 138.13052637689225 50.509390364558236 127.44756993307533 50.780903266408664 C121.36873339626676 50.93540006293343 116.08123339626675 50.74790006293343 115.69756993307533 50.364236599742 Z M217.24085995762772 44.00540198193474 C207.4976330030428 38.064884121690795 207.9229371106055 24.82446039179296 218.01993330012328 19.751553999079235 C224.73866972782685 16.37594403198432 231.94058276155025 18.574024317150624 236.00540198193474 25.24085995762769 C243.13249406890952 36.930223976603955 228.93022397660394 51.13249406890957 217.24085995762772 44.00540198193474 Z M227.8 35.8 C228.46 35.14 229.0 33.43 229.0 32.0 C229.0 28.695242091714576 227.30475790828544 27.0 224.0 27.0 C220.69524209171456 27.0 219.0 28.695242091714576 219.0 32.0 C219.0 35.304757908285424 220.69524209171456 37.0 224.0 37.0 C225.43 37.0 227.14 36.46 227.8 35.8 Z" fill="currentColor"/></svg>
