<svg xmlns="http://www.w3.org/2000/svg" xmlns:xlink="http://www.w3.org/1999/xlink" width="256" height="256" xml:space="preserve" version="1.1" viewBox="0 0 256 256">
  <path d="M19.894110051465095 253.1841220844264 C11.932002027411132 248.07191498920764 8.768943350829556 237.34209823384052 12.534274733054353 228.2178813691035 C13.620839689389998 225.58489816182683 46.81322682707466 191.74483473919312 126.28260805815758 112.25 C220.49070374657944 18.011730092394544 238.93514431134255 0.0 241.22928129688677 0.0 C244.9988287121579 0.0 245.39788250107844 2.279337567408831 244.70952902523595 19.878672027080754 C243.02759406659186 62.881194590596465 226.67494761456183 105.4335932927157 197.97113969752712 141.5 C188.3132440662641 153.6351701063647 130.0201948380444 212.0 127.55784494315228 212.0 C126.23271876113954 212.00000000000003 117.88342236535637 204.37266419388763 103.75719918921229 190.25738733394252 L81.99772525181058 168.51477466788498 L51.99558050855757 198.50441764985987 C35.49440089976842 214.99872128994605 21.288790648223586 229.9789899886848 20.427557727346827 231.79390364705705 C16.063376461684985 240.99073297703504 26.323982418124615 251.07712872898946 35.562301487539784 246.67168141357593 C40.0188865092731 244.5464841377094 41.94219770423946 241.35112542873085 42.66192267432651 234.87648339828843 L43.25957569279652 229.5 L64.34906424728511 208.25 C78.34358938806844 194.14896296094145 86.13855355198625 187.0 87.51927640088684 187.0 C89.9762236768951 187.0 92.0 188.7800336935931 92.0 190.94106744260284 C92.00000000000001 191.7886545360344 82.92987670309199 201.56036012180857 71.84417045131553 212.65596874432325 L51.68834090263105 232.82980260344084 L50.9125753574839 238.54644705688662 C50.366550177840374 242.57012642003596 49.28500629578585 245.31552291416796 47.260520232459086 247.8168423713825 C42.15460722868443 254.12536668011455 39.60682385491166 255.43304583672912 31.69926647042949 255.80383506662992 C25.13074686928948 256.1118361605296 24.096465740327435 255.88231614362942 19.894110051465095 253.1841220844264 Z M157.59814273314882 170.75 C174.12800582107292 154.1125 189.92197540187755 137.575 192.69585291271466 134.0 C218.50667370919618 100.73476604971822 233.09826534831845 63.2354783089626 236.47145928555665 21.5 L237.118044699006 13.5 L233.19635882210935 17.318842286837565 C229.35100508244267 21.063354195707895 229.2505411596677 21.34558383484218 228.03486379024378 31.818842286837565 C224.77987337941815 59.86111459424935 213.79273223364655 89.89835843935275 197.9743168248261 114.0 C187.67797707425242 129.68796138180795 182.76129891858702 135.34441849224376 155.6000787798705 162.75 C134.0262045143355 184.51796795588075 129.11066033590106 189.0 126.81112024192238 189.0 C124.67491716073718 189.0 123.89157108891173 188.41616615420807 123.40002313773093 186.45768312073238 C122.82801115889077 184.1786058652741 125.3382456776786 181.3052820792901 147.64337790204837 158.70768312073238 C180.76574022614875 125.15101764881499 189.39383077032946 114.14452599633603 201.50396579547015 90.0 C209.90485010213473 73.25077556002577 219.0 43.95380110303456 219.0 33.64239479889561 C219.0 32.10502880620263 200.62915278099206 49.874966720139085 153.503257028819 96.99674325587388 L88.00651405763797 162.48776123751372 L107.24364006584605 181.74388061875686 C117.82405937036049 192.33474627844058 126.7199591045633 201.0 127.01230614185229 201.0 C127.30465317914128 201.0 141.06827964522472 187.3875 157.59814273314882 170.75 Z" fill="currentColor"/></svg>
