<svg xmlns="http://www.w3.org/2000/svg" xmlns:xlink="http://www.w3.org/1999/xlink" width="256" height="256" xml:space="preserve" version="1.1" viewBox="0 0 256 256">
  <path d="M16.747969211532016 249.57324708183387 C11.59818283816875 247.73547021100467 6.436210214519011 243.61627761741894 3.2506165896772066 238.8025206548408 C-0.18065222939780634 233.61752340990193 -1.032440893754552 223.99193018890585 1.380813863191717 217.67291280516318 C2.6872246785683584 214.25212491324555 17.638406171683727 198.84097838367668 78.75007649876935 137.9234265247224 C140.20876185145562 76.65996191776566 156.95262420533084 60.523646991971226 167.5 52.39377482374698 C190.48920081644877 34.67379712258011 208.6235887904753 23.299299078740976 230.0053923393727 13.18829052993489 C245.2423974859824 5.98302887166293 250.84062093562738 4.309151637840692 254.01662309414172 6.008896410000446 C256.2006482275697 7.177751189540707 256.2506423442678 7.549796023626268 255.743014016813 18.856304601448045 C255.1563060148316 31.92417079075181 252.405007676392 42.24741781115788 246.24344089490333 54.5 C238.24765869746957 70.4000108271922 234.23800182881442 74.9725408386165 184.64113444327558 124.75 C158.1999120422575 151.28750000000002 136.027240123639 173.0 135.36853017967894 173.0 C134.7098202357189 173.0 130.49206744749765 171.59519610010696 125.995746205854 169.87821355579322 L117.82061667559282 166.75642711158645 L77.16030833779641 207.27877667247083 C38.36729937799936 245.94016252640336 36.2505616834157 247.8745793776985 31.06849877257219 249.40056311667763 C24.56609335894673 251.315353634693 21.72564876676103 251.349605107929 16.747969211532016 249.57324708183387 Z M31.59996150022313 238.10140372611474 C33.74498267510041 236.50717577547783 52.144633002294796 218.51026310943564 72.48807333843288 198.10826446824316 L109.47614667686578 161.01372148425685 L99.49981227287378 150.99981156580617 L89.5234778688818 140.9859016473555 L50.25685746828506 180.24295082367775 C23.23908029252624 207.25414242619115 10.655271366502054 220.5148862024357 9.916423745542948 222.7534624314593 C7.954448211114178 228.69789761499126 10.908085869144413 235.14343096414396 17.411302724622175 239.1090544168809 C21.978331841579575 241.8940019556183 26.97445057696287 241.53918741151807 31.59996150022313 238.10140372611474 Z M178.1127022884808 117.25 C202.64510507238592 92.6375 224.7319423052858 69.8 227.19456280603612 66.5 C236.41357211038905 54.14619611706482 242.9840378219681 39.739111314977066 245.59101431814724 26.16203179092696 C247.56517507159322 15.880643530588342 247.57859352713476 15.955333558378541 244.0 17.306101742278756 C241.44622490005372 18.270044175999615 241.0 18.96411996861205 241.0 21.972419954432894 C241.0 26.980518413159608 237.84285674781617 37.38646381385153 234.01347776145826 45.0 C226.5585577152151 59.82180367603121 221.5207417042447 65.55963689609463 174.11833864118057 113.21771938797917 C130.11487000048868 157.45853426011007 127.77979043998008 159.98680812204856 130.07562687799185 160.90433308756008 C131.40903209509634 161.43722495894104 132.7268750578561 161.90175123435043 133.00416679523573 161.9366136995809 C133.28145853261537 161.9714761648114 153.58029950457566 141.8625 178.1127022884808 117.25 Z M164.67506114910879 108.75 C210.8698250955168 62.47218253027411 218.53159012536096 53.8629597399076 224.96907297939674 41.0 C228.23732317786408 34.46959492148788 231.4298722297622 25.096538896428836 230.651170876958 24.317837543624606 C229.77553866495882 23.4422053316254 213.68769239096684 32.43821642273623 199.5 41.73696711121875 C174.8048902931598 57.92238064152882 162.44491740976008 68.43925962126994 128.5 102.14959217162539 L96.5 133.92844815143724 L106.9821327801283 144.46422407571862 C112.74730580919888 150.2589008340734 117.6991203777645 155.0 117.98616515471859 155.0 C118.27320993167268 155.0 139.28321312914827 134.1875 164.67506114910879 108.75 Z" fill="currentColor"/></svg>
