<svg xmlns="http://www.w3.org/2000/svg" xmlns:xlink="http://www.w3.org/1999/xlink" width="256" height="256" xml:space="preserve" version="1.1" viewBox="0 0 256 256">
  <path d="M18.331938571334554 254.06361499001565 C12.818519955404447 251.56030981193027 6.52787839176343 244.9490954146528 4.428309749950788 239.45145339911886 C3.1813628508340965 236.1863695494166 2.8598968975907213 233.08478045686337 3.207326779593007 227.67108467003015 C3.614317339183955 221.32930697077077 4.171049818488517 219.58137667409932 7.2714299293485665 214.91133148816218 C11.201332132195907 208.99179252604443 29.003719811840444 191.0 30.93103985829555 191.0 C31.591283535731282 191.00000000000003 33.001899253838495 191.4658326913196 34.065741454089355 192.03518375848802 C38.00062313728944 194.14106852690855 36.341760370759296 197.19800807477029 25.392662353826548 208.0178672198717 C11.152591788487223 222.0898535602076 8.778661634900537 227.51252123673598 12.892813269532503 236.5707408115711 C17.00147731557849 245.61687824000947 26.731081384593224 249.90203070781368 35.53120244753638 246.54123381057957 C41.94236431782606 244.09278875315113 44.30996062176064 240.69128115168562 43.744329752365374 234.74149628237313 C43.10709694490107 228.03854154418127 44.44815029956628 226.54019821557128 50.299356737175756 227.41764080907546 C58.196748029312175 228.60192777129043 61.401892428664155 225.3240354938693 61.46360021921357 216.0 L61.5 210.5 L67.75935001754448 210.46287220467775 C76.44691683956725 210.41134126266104 78.58767316339191 208.28243833736067 78.27819537016924 200.00226984990957 C78.01458207759318 192.94921943446016 78.93032334584592 192.09471542104345 86.02216664738846 192.77615176876915 C90.25409411409865 193.18278641566383 91.18222435726784 192.90868473364122 93.53286841451073 190.55804067639835 C95.99829622248957 188.0926128684195 96.16076306959359 187.4422716653445 95.54414844322505 182.50705490969995 C94.73528486765858 176.03312954293398 96.0009522470188 174.90763831097533 103.18007377418584 175.71682933540123 C107.28793307056725 176.17984460261152 108.17234674147606 175.91856234943302 110.55195355099929 173.5389555399098 C113.0220683516831 171.068840739226 113.20208946570591 170.37655808241328 112.63313470059731 165.5356409099955 C111.84812563850252 158.85643883235232 113.06008202324898 157.58654553462955 119.3232021832854 158.52575840555545 C127.0904126027508 159.69052354030407 130.40228918967728 156.2640849797765 130.46360021921365 147.0 L130.5 141.5 L136.75935001754448 141.46287220467775 C145.44691683956697 141.41134126266098 147.58767316339186 139.28243833736042 147.27819537016933 131.00226984990974 C147.01458207759342 123.94921943446056 147.93032334584643 123.0947154210435 155.02216664738813 123.77615176876913 C159.25835334238297 124.18319567357364 160.18128071874258 123.9096283721665 162.54445976950774 121.54644932140133 C164.99357964505793 119.09732944585113 165.17770008344363 118.39722253592431 164.57249533830816 113.83496586120975 C163.66213197602238 106.97231093428186 164.76001613811542 105.83679304399749 171.53564090999484 106.63313470059722 C176.32802587800572 107.19638545797807 177.08198388602867 107.00892520487902 179.417472608808 104.67343648210098 C181.26225005792887 102.82865903298112 182.00000000000003 101.03538873331108 182.00000000000003 98.3960118364175 C182.00000000000003 95.0424722851493 181.00967451579325 93.69613946393056 171.28059663489847 83.82314180078643 L160.56119326979695 72.94516901964823 L102.52741849466801 130.97258450982412 C62.24181280038239 171.25377574637184 43.84395644871968 189.0 42.36926657521171 189.0 C39.888568122899535 189.0 37.690471208192506 186.72409772385862 38.16742432225643 184.64942642724077 C38.3503409450154 183.85376778549548 78.67680275722583 142.85051963843551 127.78178390494628 93.53109721155191 C198.9729193337059 22.029070345923714 217.9957655670129 3.4470646806201866 221.66419220527843 1.8243451559823711 C228.35196056936965 -1.1339727745070771 237.96509911369273 -0.44715561710614926 243.7153436563339 3.3998045220574653 C251.7836868901319 8.797591447351383 255.34792517035822 21.402311316959455 251.45824418546215 30.78211863089537 C249.9836271258625 34.33809762624143 236.40682283321914 49.0863290631308 232.75 51.10453833127656 C230.3538212320514 52.42699512455545 227.0 50.509417918558874 227.0 47.816924540443665 C227.00000000000003 46.52517478571476 230.27793490936418 42.30387888131188 235.43565387465077 36.95356326676577 C241.67727275423857 30.478873355147243 244.04385433257036 27.283157573282725 244.5347170645518 24.666634262338036 C246.4395576246656 14.512961138587658 236.5257689750854 5.691197854883501 226.81275230029385 8.896782432881253 C224.5325072500724 9.649331163289197 214.58645175303232 18.904500691016423 195.0040678801725 38.49593024075449 L166.51298974876525 67.0001692359443 L176.25401517426525 76.74119466144474 L185.99504059976525 86.48222008694518 L202.25855731463895 70.24111004347257 C212.63316780875374 59.88079292097795 219.26036833683904 53.99999999999998 220.5610370147563 53.999999999999986 C222.98870976682852 54.0 225.0 55.79459715622697 225.0 57.96071646872849 C225.00000000000003 58.819110526529116 217.19468197770587 67.31719148015088 207.65484883934636 76.8453408101102 C193.0623578631066 91.41995978941085 190.38255014910905 94.55035176580519 190.76875801565484 96.57066772481514 C192.20030196919188 104.05930621688586 186.11285635365272 113.1873775816068 178.39039407573125 115.13191599842348 C174.51556780305233 116.10760850096332 173.97751751796122 116.60292066923704 173.38989495992965 119.7352181955018 C172.39661139101096 125.02987481356206 165.52252776180782 131.73290283764456 160.21580540102752 132.58148196947488 C156.4580173955653 133.18237650785215 156.0 133.55159327158663 156.0 135.97992500192896 C155.99999999999994 141.65470005594435 147.6547000559442 150.0000000000001 141.97992500192902 150.0 C139.5579917665001 149.99999999999997 139.18188822287033 150.46107096209138 138.5913478772394 154.1541074033047 C137.80434598169194 159.07574688325528 131.9982720195273 165.50916794285783 127.43250490146895 166.51866491134487 C125.81962720566102 166.8752742394945 123.99432092418567 167.3185328758721 123.37626872041258 167.50368410329514 C122.75821651663951 167.68883533071818 121.9452887039618 169.47809927010326 121.56976247001765 171.4798261908176 C120.60298139431404 176.6332123746467 114.75369577790367 182.781421062284 109.57767699943457 184.0847576146271 C105.81751412274205 185.03157754123615 105.25979749238155 185.59025714752224 103.70517383068668 189.96740048311977 C101.56506232530026 195.9930226604029 96.3576936695209 200.75926087211906 90.97391201612547 201.6201622818411 C87.46998921912986 202.18046213605007 87.0 202.5778167455301 87.0 204.9799250019285 C87.00000000000003 210.65470005594432 78.65470005594447 219.0 72.9799250019287 219.0 C70.58379375844393 219.0 70.1800561462559 219.4725281398255 69.62836539685108 222.92261255303623 C68.62281395700694 229.21098580024153 63.25645740391532 234.57412393326376 56.59870739786566 235.94445614155785 C54.179865795193905 236.44231450990918 53.47191485109354 237.31497099848596 52.34133651651109 241.19230891278767 C50.739811806535236 246.6847655508975 43.81430537784052 253.40161030917938 38.122667508467956 254.98257730394988 C32.28442411245319 256.60426693501444 22.975610788616017 256.1720216822383 18.331938571334554 254.06361499001565 Z M188.65498756211207 64.17125932841593 C186.80189985040514 62.12362045547699 186.49019480347204 57.82109681503319 187.9916829546919 55.01554054131163 C189.41012537839725 52.365156628853754 194.53091584816295 51.46262439208851 197.4178203413947 53.35419686597342 C201.4316366289663 55.9841503066229 201.53338174057563 62.60849586360911 197.6002959998886 65.23468722548293 C195.5155707360862 66.62669539429592 190.3179342889185 66.00879477799205 188.65498756211207 64.17125932841593 Z M216.29981369680146 38.206456788836576 C212.2947467827074 35.66057180528949 213.31045429954185 27.942473430498204 217.9007842028932 26.041096528763298 C223.48601092235222 23.727619872634783 228.9482191875678 29.204425272989525 226.81282275595515 34.976951499070466 C225.66115392119238 38.09020880998941 224.2710164203609 38.96937445096587 220.5 38.96937445096587 C218.85 38.96937445096587 216.95991616356065 38.62606150300769 216.29981369680146 38.206456788836576 Z" fill="currentColor"/></svg>
