<svg xmlns="http://www.w3.org/2000/svg" xmlns:xlink="http://www.w3.org/1999/xlink" width="256" height="256" xml:space="preserve" version="1.1" viewBox="0 0 256 256">
  <path d="M11.5 254.59952271934603 C7.546099418120186 252.8569152929479 3.050996850741196 248.2831688480263 1.3599998567539098 244.28211863089643 C-0.49920308506094613 239.88307808825388 -0.36205489045915606 230.61583933000793 1.6201970147199214 226.7003400731158 C3.3457385182811836 223.29191531273182 8.966347839026657 217.23120204368252 37.27843230930739 188.25 C48.10475856209293 177.16780826480095 55.85774363755564 170.0 57.01835452821225 170.0 C59.944768683577664 170.0 61.47886515964231 173.6281429690968 59.68941136247878 176.3170577760285 C58.89040842163347 177.51767599921283 48.845926025639024 188.18671686532736 37.36833937138002 200.02603747850523 C7.30394614207977 231.03795672637776 8.0 230.20839754623665 8.0 235.0273168390167 C7.999999999999998 243.05074911926332 12.889276314424963 248.0 20.815481381314505 248.0 C25.99739624203537 248.0 28.608264802207856 245.79956482575665 35.350517701331654 235.74989838042342 C41.5531212561704 226.50460637619318 47.23155692497866 220.34011022371345 60.73954267551472 208.18763371864728 C71.01615201220237 198.94226910084078 76.10992656910977 192.70968916505043 84.01381283448944 179.7099797525363 L89.35818770485824 170.9199595050726 L83.46573381340343 164.96537249278018 L77.57327992194863 159.01078548048775 L73.994477332841 162.50539274024388 C72.02613590883179 164.42742673310974 69.43798061771295 166.0 68.24302113035468 166.0 C65.69975576989702 165.99999999999997 63.54701165461173 162.63186265185473 64.73428986533683 160.51031419182613 C67.79176993525759 155.04690041457238 135.08717774122215 86.74824873987723 153.5 70.42127966773519 C188.02822342869558 39.80450467727587 242.05047448612748 -1.5352163257066218e-13 249.07501294992534 -8.526512829121202e-14 C253.09513521906723 -4.620213585665375e-14 256.0 3.1643865315565485 256.00000000000006 7.543668089577537 C256.00000000000017 15.447700776245657 242.88590815036912 44.37247410254296 229.58455336067306 65.80624662847434 C224.10202810888555 74.6407752139022 223.64938601354348 75.09697012866283 220.65464483633917 74.80624662847434 C218.37928064740765 74.58535881144192 217.42785910310056 73.94254856376922 217.24117603001534 72.5 C217.09882284652377 71.4 220.3768725043355 64.875 224.52573082515246 58.0 C233.29132723179336 43.474684687765105 241.7336715237578 26.58020766916173 245.3955007341969 16.236262829569085 L247.96691477014832 8.97252565913817 L241.85275341911338 12.859933679239205 C203.13246694039935 37.47844528794641 151.83952150290855 80.56238162713925 115.54141692389476 118.95619183057417 L103.85148265539607 131.3210555831256 L115.67574132769803 143.2306389704979 C122.17908359746411 149.78090983355264 130.00112441549766 157.32836886320126 133.05805425666148 160.00277014749477 L138.61610851332298 164.86531793711936 L153.21526493263653 149.18265896855968 C171.02913770932378 130.04669770873565 185.62221637725605 112.86837439252905 199.24372709459698 95.0 C210.21692034593812 80.60562558990424 212.9508100326603 78.60317281301205 215.12249691300374 83.369506322465 C216.14736611054556 85.61884919194777 215.77001169053463 86.56831864627095 211.43894917848462 92.63775885112423 C198.1440478661082 111.26889343308616 173.57038690201864 140.21726943643114 153.61991569268974 160.75 C142.6692502805792 172.0202632453874 141.42437671394373 173.0 138.05481504755292 173.0 C135.1938329174456 173.0 133.66238986351533 172.24688922457403 131.0568283089305 169.55863193501114 L127.72132305051491 166.11726387002227 L124.12852701280282 168.55863193501114 C119.88862200517829 171.4397219205124 118.04295149085371 171.5628436762913 111.93058075190206 169.3723376039714 C107.68664452206055 167.85142722745184 107.11679877040726 167.85343813245038 103.93058075190206 169.40056847160827 C98.57358581971916 172.00176190475054 97.74038940796088 172.91799813372697 92.01836968628848 182.5 C83.83314612439545 196.2068432583098 76.586524737432 205.35085100571666 67.63179950919502 213.27171756664154 C54.483172270939505 224.90228345884245 47.5447356400402 232.37216925378576 41.62142654782406 241.27435358410696 C35.54265314087931 250.41018636412997 34.09270451707541 251.95230775553506 29.299659926884203 254.3794109455203 C25.424738991402403 256.3415944358836 15.724845348554584 256.46154396325767 11.5 254.59952271934603 Z M22.58003171592203 231.08843405066833 C20.113666715691753 228.3631314017853 20.883597463328144 223.90747215910238 24.134768589752767 222.0910303970408 C26.494613324257593 220.7725761044027 27.04242243571626 220.7977763804882 29.384768589752767 222.33254052653922 C31.366592806804885 223.63108162682263 32.0 224.87969858125112 32.0 227.48786922136622 C32.0 232.77213348907824 26.133160447901975 235.01459710608927 22.58003171592203 231.08843405066833 Z M53.57142857142857 199.42857142857144 C51.71177003483308 197.56891289197594 51.50097642005395 192.89902357994606 53.2 191.2 C53.86 190.54 55.795 190.0 57.5 190.0 C61.32175886617748 190.0 63.0 191.564905368941 63.0 195.12857142857143 C63.0 198.48208926525143 60.641373156014104 201.0 57.5 201.0 C56.20357142857143 201.0 54.43571428571429 200.29285714285714 53.57142857142857 199.42857142857144 Z M105.4778533432403 160.45105022078064 C108.02296653319596 160.0693869275832 111.18284695487023 160.41736790168267 114.00679729836278 161.39029785976905 C117.66503164674758 162.6506620157628 118.73027836289758 162.69829306567385 119.78012702653525 161.64844440203618 C120.82997569017293 160.5985957383985 119.0226893757229 158.34424774097258 109.98515685826808 149.43052895215396 C103.88986069197061 143.41873802846928 98.57870924091755 138.3846796973021 98.18259807815019 138.2437326606713 C97.78648691538284 138.10278562404048 94.09585687212149 141.3995995054333 89.98119798201387 145.56998573043305 L82.5 153.15250613952352 L88.91988701999534 158.9582401707533 L95.3397740399907 164.76397420198305 L98.38731332927637 162.91065491188533 C100.06345993838347 161.8913293023316 103.25420294466724 160.7845071913345 105.4778533432403 160.45105022078064 Z" fill="currentColor"/></svg>
