<svg xmlns="http://www.w3.org/2000/svg" xmlns:xlink="http://www.w3.org/1999/xlink" width="256" height="256" xml:space="preserve" version="1.1" viewBox="0 0 256 256">
  <path d="M103.84418264002352 254.6063236863941 C97.85365218174391 252.46645261612468 91.79534323646025 248.458338450013 86.7594357013044 243.30323286551035 C84.15212533702181 240.63420843930456 71.27078258142689 222.3538490925514 58.134229577760095 202.68021209494776 C38.2322606660411 172.8745155931743 33.52010756224933 166.4396459502916 29.874793876455698 164.08940638173954 C19.765068858794372 157.57137314463128 15.53784239468921 149.74402638100193 15.514954493331317 137.5 C15.497365375797878 128.09059125909428 17.743487449322412 122.49180666832524 24.076710147032657 116.15858397061463 C31.965464080116867 108.26983003752997 34.632119704996505 107.59049633951058 59.29501019219982 107.18668006805517 C75.30672783553418 106.92451322586435 81.47610103496696 107.15023933342464 82.54501019219981 108.03735514170107 C84.62047789206422 109.75984034416975 84.34476057073682 113.74512222499862 82.0657414540893 114.96481624151203 C80.92343219971463 115.57616160162388 72.01826431131417 116.00899196788679 60.31574145408931 116.02196200049099 C37.97056117337662 116.04672740538045 35.08660859916845 116.7205170015937 29.347281391393643 123.25724956645205 C25.194717841686682 127.98675816569035 23.682851140320096 132.9387063805214 24.201659082157548 140.11115288040446 C24.761899588651854 147.85639873316896 28.52416324297976 153.3632361699105 35.88126745784179 157.20663330366247 L41.22838335039536 160.0 L128.00000000000003 160.0 L214.7716166496047 159.99999999999997 L219.9981256376544 157.25 C227.3330955844722 153.39060410115624 231.24961307613597 147.69723776896194 231.79954528374478 140.09450269195534 C232.31718991309316 132.9381388228825 230.80277431144145 127.98390188589936 226.65271860860628 123.25724956645203 C220.09469818099473 115.78807693728064 222.62989176133806 116.0465418183413 155.68425854591072 116.02196200049082 C116.40601211231666 116.0075405648205 95.20439717473435 115.64457380668664 93.93425854591072 114.96481624151201 C91.71775478721035 113.77857942922799 91.36057477358885 109.77556523501767 93.32571014632025 108.14464773117082 C94.16182376835249 107.45073505711325 101.77429858718341 106.94387904162373 113.9384690310117 106.77220301572868 L133.22551776938292 106.5 L103.37584385335366 86.55872030460999 C70.96518712656453 64.90655845124022 63.0257472613414 58.15408115991575 57.2608369379675 47.338001680694276 C52.66199118061465 38.709683383611406 50.62094089271806 29.96217731984938 51.359966167410136 22.048128543799862 C52.17630905740361 13.306103513490212 54.01098861640334 11.487277292769924 61.688786331502456 11.808558995318165 C83.40263744784538 12.717187135105982 117.53422415782833 29.89715444023644 156.3762311608357 59.46902143430856 C159.15816983759055 61.58701499031329 159.71241541630974 61.69147679122039 161.441129635107 60.42363151393549 C164.11954472241337 58.459272175575556 169.37002750292243 58.63446989530517 171.22203385479267 60.75000000000004 C172.0646387932519 61.71250000000002 173.34978299637172 64.1875 174.07790986172563 66.24999999999999 C174.94396436891913 68.7031953236177 176.02393589713236 69.99999999999997 177.2008884448209 69.99999999999999 C179.6036106974133 70.0 179.5551986942834 69.69759876925356 175.3880836001501 58.6764773054219 L171.77616720030022 49.123736749732814 L165.0170980987993 51.56186837486641 C156.5893656247208 54.601920305782926 154.81501975184125 54.605118643525074 151.305763701326 51.586583667960554 C148.53693694367448 49.20493915728916 148.5 49.023242234104345 148.5 37.78472079030847 C148.5 26.629451188239905 148.57719490271134 26.240080972183154 152.2702270634485 18.767738130621396 C154.38327672723798 14.492272648097659 158.35545692274238 8.691122163343959 161.3072929062884 5.569601008273494 C166.0323781746849 0.5728960060216757 166.99568561794985 4.807294295447389e-14 170.67240987497487 -2.842170943040401e-14 C174.4183769246363 -1.0635696572860468e-13 175.2839128377446 0.5486389000723744 180.74080271214785 6.382071371073252 C191.00177273157655 17.351080655294375 200.859304838558 35.54343162275792 208.88863273327405 58.32967825273546 C212.81700530318554 69.47791723440021 212.929060028825 72.72871671970877 209.4153644791255 73.61059816519739 C205.82828908256207 74.51089677987632 204.88617933044986 73.1758319633452 200.5164950277756 61.0 C193.08678136750163 40.297601657881074 181.0420609143697 18.009191142415492 173.4963527776715 11.0 L170.80499082756143 8.5 L166.45873427273565 13.284629363347946 C159.79721258029474 20.618046498800453 156.66948318271895 28.017009820892525 156.5767906238203 36.66137629867275 C156.53455578071913 40.60013326294276 156.76835855650057 44.0934918194421 157.09635234777903 44.424395313115724 C157.4243461390575 44.75529880678935 160.75332137204506 43.87402501313756 164.4940750877514 42.46600910500064 C172.13316088377582 39.59066495195896 176.20482949219664 39.84435146409411 178.4718348675621 43.336897545840245 C181.12364123353768 47.42226762642258 187.0 65.24070961379324 187.0 69.19621310334557 C187.00000000000003 74.69386156045286 182.73919744180358 78.99999999999997 177.29942932032827 78.99999999999999 C172.59303647506007 79.0 169.62316214786807 77.04250255892477 166.96381257844132 72.18760961063722 L164.94386216249632 68.5 L165.60038419329356 72.0 C166.69823519586308 77.85277923473089 170.9987820574428 90.03722907664798 175.04189612364738 98.75 L178.870263854146 107.0 L196.435131927073 107.0 C210.19007187794836 107.0 214.0 106.71772719573632 214.0 105.69864091693233 C214.00000000000003 104.98289342124512 212.88444199979787 100.59539342124512 211.52098222177304 95.94864091693233 C210.1575224437482 91.30188841261955 209.03252244374818 86.54260012194896 209.020982221773 85.37244471544216 C208.99264823788678 82.49943546971535 211.4552938163803 80.64647139080515 214.33977972588534 81.37043126933912 C216.74647643038128 81.97447369094138 217.11194579010805 83.01091712644428 223.0965383078398 106.20393565760176 C223.7455645747136 108.71920769829835 225.2563453800496 110.77336923180361 227.80420733726095 112.60480638521237 C233.02454216206038 116.35725267623336 237.50759992184626 122.54501526857653 239.54271019049798 128.80693286614422 C243.94734621738206 142.35974534637373 236.96838119507444 158.8954585446682 224.18642644971334 165.19156911487067 C219.5107874827407 167.49468632259598 219.37688464007513 167.50115092841597 166.01476224930076 168.0 L112.52952449860152 168.5 L119.2805062066464 172.5 C126.26932750807455 176.64092148589285 128.3210941817708 179.70325260518686 125.98922258930702 182.51298598545253 C123.83498546612384 185.10868292415915 121.32259958776532 184.18979343080187 108.18171240001027 176.0 C96.90624581031005 168.97279240844554 94.7771639152558 168.0 90.67267859941654 168.0 C88.10270536973745 168.0 86.01906608927672 168.3375 86.04236908728159 168.75 C86.06567208528645 169.1625 88.89338628522735 173.09164071127992 92.32617842048356 177.48142380284426 C98.16163970457977 184.94369016418688 99.73624243711285 186.1986106814175 116.53380933320197 196.7743235789333 C140.3190263390208 211.74944633419472 143.155882468934 213.17991454779175 148.3231675384158 212.80392267058696 C151.6422860040583 212.56241062590945 152.5599631013803 212.08112898971817 152.79200389585287 210.46021279676 C153.29806350604974 206.92514380755662 148.7711117458622 201.67501760872284 140.75472945720733 196.5 C132.8171560222935 191.37585785992968 130.66435774307138 188.31427675299975 133.01077741069304 185.4870140145474 C133.68953902179825 184.66915630654634 134.99610191328242 184.0 135.9142505028801 184.0 C138.79711513767896 183.99999999999994 153.5710017486928 193.74877254207357 156.4922158765351 197.57868170294986 C159.88120851245148 202.02188010416586 163.22483112351813 212.25602010565856 162.3831396858838 215.609585909501 C161.62600750534767 218.6262407976285 159.999818644159 219.5292570673282 152.99510278024806 220.82272582741533 C142.872095568833 222.6920084422267 139.27435911350312 221.38360921423953 118.31066986435205 208.20893773765656 L110.1213397287041 203.06233721004133 L115.97526037157633 214.78116860502067 C122.45452909898314 227.75187019314265 125.53728273244806 236.7879305386714 126.55648481245666 245.7964860599912 C127.15217480623711 251.06168958314402 126.98181501633873 252.01818498366126 125.11603806214752 253.88396193785246 C123.31581106297641 255.6841889370236 121.8433404002274 255.99344915402483 115.25 255.95610717594218 C110.9875 255.93196612271038 105.85488218801059 255.32456355241374 103.84418264002352 254.6063236863941 Z M117.61603277137456 244.00026344411185 C115.26481781797304 229.29657288632995 101.99322389239671 204.74014309056227 82.45268481344283 178.9375218958616 C78.26019111895415 173.4014757190919 74.28302287877965 168.66210047098386 73.61453316861058 168.40557690006597 C72.94604345844151 168.14905332914807 66.45764185340278 168.06535706580317 59.19586293519119 168.21958520374397 L45.99262853844283 168.5 L65.62037692780875 198.0 C76.41563854196 214.225 87.05030437550334 229.86675533474804 89.25296766901616 232.75945629944007 C96.19932996951978 241.8819349764791 106.12566084228295 247.7597725355363 114.87780822172039 247.93310426425046 L118.25561644344076 248.0 L117.61603277137456 244.00026344411185 Z M86.42415078347335 224.23468722548296 C84.35861508746837 222.8241524903895 80.0 215.5191509029761 80.0 213.46786548754562 C80.0 210.92492131043812 81.80532893230193 209.0 84.19028392826277 209.0 C86.19637960833201 209.0 92.93678547372608 217.57697804755406 92.97520887573386 220.17857142857144 C93.0239254688869 223.47710200290754 88.98066314049493 225.98050526544662 86.42415078347335 224.23468722548296 Z M197.5 150.04597238518727 C190.75890213372818 147.25766888040397 187.83613865674786 136.77027881862688 191.9662281281735 130.1898243972242 C195.39692967145697 124.72370186036301 203.2176797106643 122.50068366039926 208.7996599268842 125.40498597779109 C221.86387757377395 132.20229376410703 217.9306831050407 151.14806685138007 203.5 150.93287563914336 C201.3 150.9000691071535 198.6 150.50096264287328 197.5 150.04597238518727 Z M206.17125932841594 141.34501243788793 C209.54283025836108 138.29378268150887 207.9299457560156 133.0 203.62874067158407 133.0 C201.30724117459485 133.0 198.0 135.73509963078675 198.0 137.65498756211207 C198.0 139.30952084488334 201.57051082275174 143.0 203.17125932841594 143.0 C203.81545195904468 143.0 205.1654519590447 142.25525559704957 206.17125932841594 141.34501243788793 Z M43.010777410692995 140.51298598545253 C42.302957241924325 139.66011485745304 42.04563809317598 137.95429936319644 42.40738472346574 136.51298598545253 L43.03810405642983 134.0 L60.49999999999999 134.0 L77.96189594357016 134.0 L78.59261527653425 136.51298598545253 C79.84696863950118 141.5107278607925 78.23366629386499 142.0 60.5 142.0 C47.33405466371494 142.0 44.010355440482776 141.71740382971004 43.010777410692995 140.51298598545253 Z M164.34527700101418 96.05183014941957 C161.899230694631 90.03033673160033 159.13338806224607 81.85579594158506 158.19896004015874 77.88618394938561 L156.5 70.66870759993208 L145.19888007634094 62.23848473797962 C114.72090810276276 39.503030388919456 83.15699580062956 23.1322429580262 64.60985728618465 20.440568537588412 L59.71971457236931 19.730881054270398 L60.20203958878303 27.1154405271352 C60.85137256352117 37.05694844496833 64.4127333680384 44.36738779895548 72.90000873615033 53.18068313127844 C77.99191331944675 58.46818199872516 87.49743995245477 65.38611219390239 114.5 83.45631611766717 L149.5 106.87843373237325 L159.14631696085542 106.93921686618663 L168.79263392171086 107.0 L164.34527700101418 96.05183014941957 Z M201.22996707599555 97.75 C199.6633672582023 95.82054228059044 196.7803402343189 84.59199977368982 197.16063966004725 81.90116629641415 C197.44429737966794 79.89412753588678 198.06812916236615 79.5 200.96124660793924 79.5 L204.42249321587846 79.5 L206.67892754418597 87.37613017710402 C208.32256779985585 93.11329010929441 208.66300759526885 95.7611589762328 207.9324971777587 97.12613017710402 C206.7943434836672 99.25278980763355 202.75538336196584 99.62873520400662 201.22996707599555 97.75 Z M110.3119118895475 52.47892288675058 C101.06833181484122 46.93219603018938 98.76503014595096 44.192973928368936 101.03982631653491 41.4520122242825 C103.12240390721611 38.94265974001996 106.50158332056799 39.835741467152744 115.41038358352795 45.25 C124.72306724937407 50.90971573199938 126.9660257462416 54.08923851419787 123.45632930297757 56.655591211362236 C122.44510558772453 57.395016045113 121.14124906558743 57.99827899524556 120.55887036489511 57.99617554499014 C119.9764916642028 57.994072094734705 115.36536035029637 55.51130839852691 110.3119118895475 52.47892288675058 Z" fill="currentColor"/></svg>
