<svg xmlns="http://www.w3.org/2000/svg" xmlns:xlink="http://www.w3.org/1999/xlink" width="256" height="256" xml:space="preserve" version="1.1" viewBox="0 0 256 256">
  <path d="M57.26265575630474 254.4858870022598 C44.96789265680466 251.81475058285315 31.830387623615074 242.43993236554653 25.71725922090635 231.97534505650228 C21.763931707484982 225.2079522912671 19.65280628397797 215.82018407800146 20.450891180179134 208.55682053796943 C21.4593118818009 199.3791927040919 23.803262585945646 191.24913406046178 27.674941426067377 183.5 C40.3108635567445 158.20930348006493 63.82712473222024 144.55626843775502 91.19401189023984 146.62219495985613 C98.38097138276217 147.1647385872382 100.36416695136624 146.99140851604926 102.42585470666336 145.64053881571505 C107.89227106427472 142.05880525400784 107.78578006131127 141.41107419304393 98.51654279515925 121.86216616815426 C93.1588058722521 110.5626489241699 90.15668073013633 103.08170323459979 90.52022531250562 101.93627568307832 C91.18462697374578 99.84293141398925 93.9881045917176 98.67446889099283 96.2571466363955 99.5451820209167 C97.10354240503294 99.8699745520173 103.51759396734926 112.14267826912493 110.51059455265398 126.81785694782253 C117.50359513795871 141.49303562652014 123.56781433703745 153.8708300067105 123.98663721727338 154.32406668157887 C124.40546009750932 154.77730335644722 128.591092747137 153.20230335644723 133.2880431053349 150.82406668157887 L141.8279528475129 146.5 L111.4401838915241 83.0 C94.72691096573027 48.075 79.9936805777447 17.284175661118354 78.69967191822283 14.575945913596343 L76.34692890091034 9.651891827192685 L73.92346445045517 14.575945913596343 C71.80414933693064 18.882021970609497 71.5 20.880520644983484 71.5 30.5 C71.5 43.76541457871531 72.21531160134717 46.14326340989385 83.17276652265406 69.30277375655432 C91.85160922585214 87.64624391684788 92.59012025765824 91.25915962223351 87.77427111619315 91.81408028875839 C84.36426167630944 92.20700885766716 83.51884776807373 90.87726638657912 73.59542004785479 69.51231747987836 C64.2260046347865 49.340146408586264 62.62579569231232 43.55446035427592 62.66707668880313 30.0 C62.705515722662774 17.378687415567647 65.16976455105751 9.649079703928262 71.03574611661327 3.7499999999999716 C75.31884781547471 -0.5572686163855698 77.89095323645394 -0.9334075218649112 81.29301563929663 2.250000000000014 C82.61551431236988 3.4875000000000065 93.51185363854395 25.087500000000006 105.50710303079453 50.25000000000003 C117.50235242304512 75.41250000000005 127.58290171976432 95.9925034516164 127.90832369017053 95.98334100359192 C128.23374566057674 95.97417855556743 138.175 75.6619575120309 150.0 50.84507201795516 C161.825 26.028186523879427 172.28088570470442 4.435683072263072 173.2353015660098 2.861731014363272 C174.60423978311272 0.6041793418671588 175.6964408665707 -6.0004974654201765e-15 178.40857628406548 -2.842170943040401e-14 C188.56248176024312 -1.123640028296334e-13 195.7882049333683 18.383850973657974 193.12287759919911 37.43646360062854 C191.58933234312428 48.39873578962023 189.92671459965828 53.027490871806044 179.88004604915176 74.30472395735154 C173.29823959052072 88.24393469573906 171.0143951515342 92.17795965196635 169.2370140145472 92.63782621217965 C166.60440493879014 93.3189681770972 164.0 91.51675655497056 164.0 89.01388610145264 C164.0 88.056212644238 168.03204267884098 78.76067928163336 172.96009484186885 68.35714529566455 C182.52777668333786 48.15896152816521 184.96170333932534 40.381478417339636 184.98521891330404 29.931501227427262 C184.9998317255448 23.43778116195139 182.85213396230296 14.037142602690869 180.64100712614447 10.916551575329777 C179.7042272144687 9.594462340473216 175.31725397500446 18.054593127121493 156.13120934304254 58.182874728162375 L132.76241868608508 107.05951554426733 L138.13120934304254 118.60361233200722 L143.5 130.1477091197471 L146.0 124.82035716945857 C147.375 121.89031359679988 150.4245967554127 115.34143774914911 152.77688167869488 110.26729973023464 C155.12916660197706 105.19316171132017 157.94166660197706 100.5664028456873 159.02688167869488 99.98561336216162 C161.55781978377837 98.63109639458251 165.0 100.32923789075562 165.0 102.932350443259 C165.0 103.95644105271462 161.4 112.48155384113245 157.0 121.87704552863194 C152.6 131.27253721613144 149.0 139.6187185423878 149.0 140.42411514253496 C148.99999999999997 141.22951174268215 150.07724396806944 143.14084334787142 151.39387548459877 144.67151870962223 L153.78775096919756 147.45456482189644 L168.64387548459877 147.531728560585 C181.3898312659002 147.5979319368575 184.42326210361452 147.93153272055585 190.0 149.88036291430768 C213.18143533903128 157.98127817383434 230.65865805529842 179.2115070133936 234.9538548326249 204.4874730261821 C237.2832616324192 218.19534490119477 233.57762616018996 230.2795565315369 223.91010815909925 240.50153134220082 C213.2136040533868 251.8115072345054 202.09455879164616 256.42324932960935 186.96666944202659 255.8242148513374 C174.98021702293474 255.34957505822027 168.15706960147497 252.34537424940572 159.8265790736826 243.87455637269426 C153.96501872288633 237.91425787174794 152.73121904181252 235.65468230881834 134.50460542461985 197.5 L127.81676070413792 183.5 L124.90682554047994 189.5 C123.30636120046806 192.8 117.54537093079674 204.7489557557301 112.10462494121035 216.05323501273352 C100.96590174124233 239.1962447874783 96.31444163260042 245.44650977942632 86.30263088155345 250.72391828784183 C76.50418884367251 255.8888562461948 68.49557138285634 256.92632849620156 57.26265575630474 254.4858870022598 Z M199.19161336671465 246.02253601040513 C211.0266949670248 242.36705163032312 221.96441000064064 232.4055663184673 225.48946434845857 222.07186116809174 C232.01542104570225 202.9410036892048 216.3416026534774 172.16562292091947 194.5 161.22436751574008 C186.40423621221106 157.16890415494592 180.17070499063334 156.0 166.6394967375497 156.0 C159.49087129337278 156.0 152.24715248230555 155.49561806532816 150.54234382406702 154.8791512562848 C147.7260522364598 153.86076700538496 146.55384234863547 154.20451658212036 137.71965818889242 158.6393931766832 L127.99662465960607 163.52048384079677 L144.23878047283023 197.44276496710248 C157.63468071450083 225.42054692926754 161.3405340471745 232.3055830150109 165.38623042490468 236.73221950588703 C174.9350998014234 247.1802041498612 185.78751623803905 250.16263992668829 199.19161336671465 246.02253601040513 Z M76.88525738094509 245.54048355390532 C83.54380211671096 243.19121214140355 89.5344360890508 238.45001253978117 93.65737107916897 232.26643957933658 C95.77201589927098 229.09489781070147 103.23019903740189 214.51097936645152 110.23111138612651 199.85773192544784 L122.96004292926223 173.21546385089567 L117.23002146463111 161.3416302907205 L111.5 149.4677967305453 L109.09671441364986 151.72921859853028 C105.51308357795125 155.1013110309332 100.95762872488507 155.9413355817244 89.67623179323793 155.31034994886718 C71.7855824300251 154.30969880796056 60.27083157397506 158.71236166575417 47.40641582655758 171.472206257247 C41.2959972907945 177.53295494853256 38.41940116311913 181.3377200958014 35.66661333603891 187.0 C26.247865780230768 206.37366348518725 26.91064562516199 221.14717050784932 37.73611634333315 233.12967253832866 C48.00843759036045 244.49990422660346 64.77216094759763 249.81423289358997 76.88525738094509 245.54048355390532 Z M185.33598489531542 234.9785315818488 C180.2116116631958 233.9387913400367 174.2607898319035 230.27614383957598 170.49309189289235 225.84293880219997 C166.77986445380347 221.47382565821687 150.89573153350634 188.54460281214443 150.2671443608067 183.91274740308654 C149.55692738214793 178.67938837656146 152.05068846219967 174.64541526216792 157.72272089368008 171.8524119016236 C161.8610455001086 169.81463185145537 163.97123484778342 169.5 173.5 169.5 C183.1666006010879 169.5 185.04548157228223 169.78905420406068 189.0 171.8845790295553 C198.16293966390768 176.74007986769632 205.80927574295538 185.38239902138378 211.63841421281677 197.4717882154878 C217.36032220546835 209.33878588824405 215.94956820622838 221.03576513454078 207.8721116005344 228.69931868137576 C202.08178471501404 234.19293905063685 193.3941975106551 236.61355064734758 185.33598489531542 234.9785315818488 Z M58.07132424074783 233.89429855293463 C52.28855573010497 232.13336166306655 46.5874221893624 227.49527857239414 43.71226978534773 222.21267643486 C41.49560896210785 218.1399402603586 41.0 215.9504492119727 41.0 210.23046693128342 C41.0 204.0369142008354 41.471091434627226 202.2903786534176 45.09414359090643 195.0517419701533 C50.22096678806267 184.80866269258146 59.07618908121855 175.08833064752432 66.66179873587788 171.37703765421085 C77.91002583416042 165.87379291614116 96.16439367114296 167.4506899098217 102.75 174.49450392797803 C107.86333324165024 179.96360830022365 107.3757788525927 182.43458784898553 96.95136776756328 203.88261319069954 C87.46781065791536 223.39484957107697 83.82701034948252 228.4531104277385 76.57239201312747 232.19566708677763 C71.98968151593884 234.55982366848954 62.97486432709974 235.38749763450113 58.07132424074783 233.89429855293463 Z M199.99829494475068 224.00121410642708 C204.48010152558362 220.80988633163525 207.40670975815104 213.9448856820325 206.55528383086673 208.62036044049745 C205.07814507014334 199.3828421025162 193.99867529078284 184.35154551345042 185.56068975875587 180.13741165780255 C179.2953752949955 177.0083622303297 170.95482543006796 176.45224681116756 164.5 178.7331667935299 C159.93575529716924 180.34601861421322 159.51261002985015 180.76145317830154 159.64469164152518 183.5 C159.84969845376315 187.75055953634248 174.3658558357501 216.96928776563118 178.25712600287073 220.9638857225721 C180.04070670129184 222.79482716533087 182.85 224.90927465132353 184.5 225.66265791366686 C188.71946363685916 227.58924778037965 196.0652867861688 226.8017629361431 199.99829494475068 224.00121410642708 Z M75.73464608578662 222.39795933572233 C78.6805149332594 220.06914848330072 81.39538127857293 215.62120996273435 88.208860729564 201.96065864736647 C93.32002763045293 191.71312532269388 96.83143956978118 183.4672317825505 96.708860729564 182.0 C96.44127124133044 178.79703445458412 90.99315622336324 176.7751753613404 82.39338054867287 176.68735816288174 C71.17676187649846 176.57281889287864 62.42128047604569 182.61970451469165 54.68084839514301 195.8267412029216 C46.712859866651826 209.42204385880456 47.53516105660388 217.9572522608469 57.411302724622175 224.16793420997809 C62.14353144826787 227.14382990903235 70.78749700578027 226.30885118549023 75.73464608578662 222.39795933572233 Z M124.60534193403706 140.70068632087055 C123.42317292927599 139.8362632395823 122.94081540572758 138.41375451785194 123.16421229893217 136.45068632087055 C123.46482450634791 133.8090996115076 123.86664305271101 133.5 127.0 133.5 C130.13335694728897 133.5 130.5351754936521 133.8090996115076 130.83578770106783 136.45068632087055 C131.13824209834948 139.1084610097828 129.13955715510198 142.0 127.0 142.0 C126.66024259861538 142.0 125.58264646893204 141.41530884439175 124.60534193403706 140.70068632087055 Z" fill="currentColor"/></svg>
