<svg xmlns="http://www.w3.org/2000/svg" xmlns:xlink="http://www.w3.org/1999/xlink" width="256" height="256" xml:space="preserve" version="1.1" viewBox="0 0 256 256">
  <path d="M10.502229294702579 254.42459741398733 C5.993310186084756 252.07358162730162 3.908168804673423 249.91513456402043 1.88073113664593 245.5 C-2.324382894421527 236.34255728449776 -0.2233079345045308 231.81477238917162 15.609064278672657 215.9156488348566 L28.140580939149622 203.33129766971317 L26.02464288732275 199.27178164522678 C23.165811179664043 193.78699293956018 22.573766583415605 189.30028774017174 24.004683436870017 183.96387641928828 C24.98614056838766 180.30366448248103 27.280779138435594 177.39323598855677 36.75003081368192 167.7981836367159 L48.29842472944766 156.09636727343178 L40.64111864168294 147.95660316143648 C28.21970896714673 134.75256723413608 25.81377336861398 131.48422034623547 26.177884365807117 128.30900047275094 C26.42671763820402 126.13905680779824 27.08616486481463 125.43182148019821 29.076511762776036 125.20031851313108 C31.258328171905575 124.94654517702239 33.400636141182744 126.84792075764211 43.061175203418045 137.6122116445345 L54.46932688128401 150.32378626280683 L101.29839853067655 102.96427001261284 L148.12747018006908 55.60475376241885 L145.81373509003453 53.81764430863679 C139.73425994559744 49.12190902266917 127.64668064160573 43.77830658054037 121.93189536914933 43.26010802733124 C109.91264687158565 42.17024079957776 107.4948547697501 44.89652113146167 101.54734186558315 66.24554471926885 C99.70167911385539 72.8706833707825 95.52332437317337 78.13646469440216 89.59468036499393 81.30891429977437 C83.2851085095591 84.68520046491192 68.55749940053127 84.37790279447127 56.55864939942274 80.61960381623484 C44.04939098017384 76.70143389734969 38.53501135754356 75.97427964767289 32.736756959317894 77.4783274608534 C21.776636125238525 80.32134617657853 17.17584291873609 90.09858966317555 20.521203704020284 103.43785946758157 C22.418998712027992 111.00511492075363 21.570461811361497 113.32252609627847 17.092983745228846 112.80055805902808 C13.550724608408768 112.38761442831249 11.913577364955248 108.49834451754742 11.25841558289543 98.93973369713221 C10.322125923064027 85.27955277911548 14.491011173045191 76.39872337233986 24.240629684329686 71.28418027128644 C31.766085723817437 67.33640844570228 41.37354593825436 67.51489853194404 57.36775765653236 71.89962533134671 C71.29206181581817 75.71689814764201 79.68850953776453 76.19613815437208 85.36806009374618 73.49778512139464 C90.25941924141421 71.17390162719961 92.25585185242689 67.86681225411093 95.96483670975022 55.94423127616592 C97.59981917363879 50.68855847805718 99.97479585846462 44.84926696007497 101.24256267602982 42.96802790287212 C109.60738755683532 30.555465076330144 127.86085701915866 31.530416781223956 148.9262417056322 45.514901759454716 L154.35248341126444 49.11717139516608 L165.9262417056322 37.65916181657481 C172.2918087675345 31.357256548349607 179.03286385009974 25.43295035760984 180.90636411133275 24.49403694826421 C185.62637527967377 22.128581298260794 195.47386666727516 22.77710879382672 199.6154304318266 25.726162313764235 L202.64577521992965 27.883958130037882 L215.07288760996482 15.372679714983434 C221.90779942448418 8.491476586703488 228.7151530329021 2.217586007444951 230.2003400731158 1.4307006499644643 C231.68552711332947 0.6438152924839775 235.5564796644235 -3.126388037344441e-14 238.80245685332477 0.0 C246.15615572766558 7.082771952181959e-14 250.55078784252896 2.637201245825378 253.75 8.969961165831307 C258.69615192069256 18.760744364899644 256.5647037788641 23.725440871981355 240.40241206422795 40.059961387861435 L227.86549104974773 52.73047848609866 L229.90407771398077 56.08266555233227 C232.62218589655942 60.55223618875747 233.43301811905204 66.67817699371511 232.00730992381747 71.9728530154443 C231.08383718417215 75.4023689484127 228.64339881793052 78.55723737370879 220.27909852221097 87.13445854826848 L209.71700987930464 97.96541477324692 L212.3640825804076 101.23270738662346 C235.91321254249286 130.29949438665784 245.00000000000009 146.70220973264045 245.00000000000003 160.14435971610612 C244.99999999999994 178.21168732177856 233.42133991764763 181.44756346039912 205.65709301868117 171.13948117397302 C189.93952606373642 165.3039915925858 184.03414708660927 164.61209939334174 179.61487918615006 168.0882960304686 C174.8244571329841 171.85644256666376 173.74642590628184 175.44552062892944 173.03392578501294 189.99819520200538 C172.2206756427553 206.60866910017916 169.85345767859098 213.082693239617 162.91316540268383 217.67711958351885 C156.9381941073556 221.63250999533332 145.26687342003356 222.1870848186739 134.81445038689887 219.0122589677792 C127.28130995659922 216.72413793586927 114.48740950331626 210.67446670592378 107.74372214897795 206.21170557965277 L103.80634462185185 203.60607242315606 L91.15317231092592 216.75470652184634 C83.22863439798398 224.98954651754445 77.11058544864785 230.48196903484845 74.78211863089652 231.45167031026833 C69.42011972225568 233.68470070643704 63.12038974075327 233.39561208382415 57.73546328786885 230.66941549494416 L53.13197056722333 228.33883098988832 L40.81598528361167 240.73871484497965 C34.04219337762525 247.55865096527992 27.28484696709789 253.78241399255504 25.799659926884203 254.56929935003552 C22.23654209646782 256.457118979359 14.255533765608865 256.38162477481836 10.502229294702579 254.42459741398733 Z M33.67748097798034 234.7874022510432 L47.02080731119713 221.5748045020864 L40.760403655598566 215.21382110637566 L34.5 208.85283771066491 L21.75 221.99711298163933 C8.436867250530561 235.72193506619234 7.247587955058718 237.85707105029232 10.025141375794588 243.04697709038408 C11.228082791639798 245.29469368635063 15.683134681724308 247.90286473201888 18.41707732238177 247.9599623693448 C19.568174813402596 247.98400272267617 25.665561330965016 242.72082670978963 33.67748097798034 234.7874022510432 Z M70.31574145408933 223.89581103556515 C71.5170836543402 223.28850710512597 96.40131343404224 198.93876279173656 125.61402985342718 169.78526811692203 C170.87865141504298 124.61240967030429 179.04337866153318 116.87899251122175 180.86170593209076 117.45610716793443 C182.03521135597077 117.82856332080581 183.282516101585 119.27745246044356 183.63349425567796 120.67586081157387 C184.20995479948522 122.97266256164436 180.68300708294305 126.80837676774594 147.14456602967817 160.3592107249963 L110.01749570532759 197.5 L118.25874785266379 202.20982556441422 C130.74121835051213 209.34348166506086 139.18528251766122 212.2672972289031 147.66926681824782 212.39342097416863 C160.75181851820557 212.5879074747995 163.8038374464802 208.1035012781788 164.93036317116957 187.03126914463593 C165.80701371144758 170.6330784243775 167.71585395295642 165.551125431645 174.8923772877812 160.50915045043905 C178.79096309703561 157.77014004174154 179.86333195105954 157.5077554936813 186.83773421939134 157.5863901817516 C193.29782006153965 157.65922607729652 196.30430563075504 158.34916980355177 206.0 161.98384520084113 C218.63900644257228 166.7218953098378 226.27620382481365 168.96993448972916 229.79545454545405 168.98813112461346 C233.12398041104777 169.00534159771902 237.00000000000003 164.7152387886679 237.00000000000003 161.01390912104534 C237.00000000000003 156.65777860397222 233.77219502914892 147.63624885740236 229.406621540819 139.79085188397767 C225.57086768674262 132.89759679205952 213.0353295798184 115.60658663158615 206.72155788349795 108.5 L203.16780020846554 104.5 L199.29173747609946 108.24999999999999 C197.1599029732981 110.31249999999997 194.6726647122854 111.99999999999997 193.7645413405157 111.99999999999999 C192.1395984309128 112.0 189.0 108.45206636923727 189.0 106.61578388792216 C188.99999999999997 106.0992218940253 196.87499999999997 97.72211914446035 206.5 88.00000000000003 C229.52459703573376 64.74307785614636 229.2975540673994 67.17691709044396 210.25 47.801013898059 C202.6875 40.10814858979334 195.2078332221114 33.14101384494242 193.62851827135862 32.318492242834736 C187.24435922651585 28.993564100305942 189.47366767376556 27.012237400132847 109.88275311598275 106.74862358400314 C68.84450340366783 147.86188061280143 34.532509070261064 182.61262780953246 33.633876819523266 183.97250624340543 C29.454757650825833 190.29666612686265 31.858414050586486 194.6570731518691 48.64327982368049 211.20065179157825 C62.110839158417555 224.47461119948252 65.3812215502408 226.39031537563724 70.31574145408933 223.89581103556515 Z M137.2 136.8 C136.54 136.14 136.0 134.8998212599382 136.0 134.0440472443071 C136.0 133.18827322867602 150.14916977480252 118.34427243133086 167.44259949956114 101.05737880576231 C197.85410141728147 70.65737099859246 198.96906386760546 69.6648745141707 201.44259949956114 70.7918927703054 C206.855244144339 73.2580587110044 205.4927470166669 75.01993307924698 173.24404645738082 107.25604878025747 C142.79043012497877 137.6977807750311 140.21157306014868 139.81157306014862 137.2 136.8 Z M234.299405665684 33.164065444389436 C245.3140375985787 22.03205926238197 247.0 19.897900251807243 247.0 17.087142367466324 C247.0 12.679107725736321 242.34995617637048 7.999999999999998 237.9693016880415 8.000000000000004 C235.23015323118045 8.000000000000007 232.946640956544 9.811784694574296 221.64237861111843 20.954110064930838 L208.5 33.90822012986167 L214.46869650873722 39.95411006493083 C217.7514795885427 43.27934952921888 220.6987121381005 46.0 221.01810217442122 46.0 C221.33749221074194 46.0 227.3140787818102 40.22382944997524 234.299405665684 33.164065444389436 Z" fill="currentColor"/></svg>
