<svg xmlns="http://www.w3.org/2000/svg" xmlns:xlink="http://www.w3.org/1999/xlink" width="256" height="256" xml:space="preserve" version="1.1" viewBox="0 0 256 256">
  <path d="M60.5 254.35781747142454 C56.12484659986603 252.07966449750833 4.2087363066818995 200.16398904196478 1.9315300395658213 195.78983806729644 C-1.1226349389036616 189.92327300892381 -0.7146760017934728 181.49038922203806 2.891529105753044 175.94578067754722 C4.48187011391723 173.50060130489624 20.894599476027608 156.43978533434813 39.36426102155389 138.03285629855137 C71.34436209894912 106.16137616134195 72.87871430727954 104.46383994651862 71.54547202094896 102.42905502544772 C69.40080628168269 99.15588138571337 68.67899638245584 93.50268027639441 69.92405197995532 89.73012476107304 C72.0421173345298 83.3123236996114 75.24895877779758 81.45424679408268 95.54374335244675 74.88581215374558 C113.5032480126867 69.07319403505068 114.99086673881379 68.75618143904956 123.83531710910661 68.85685790354914 C130.13973747442557 68.92862118182263 134.03577662343017 68.50405228078075 135.8353171091066 67.5491639565301 C137.30089269909797 66.77148708272334 146.3701775890722 58.22978465321948 155.98928353127155 48.56760300207708 C167.76338603487326 36.74077441191821 174.17731553525974 30.999999999999975 175.6168388158294 30.999999999999986 C178.48650115804173 31.000000000000004 180.35440605937623 33.451797776398166 179.6432938915485 36.28509432913964 C179.32427149667586 37.55618079416401 170.80032591764672 46.752271406662004 160.7011926048171 56.72085124580187 C143.59169290433948 73.60917309370538 141.95090396715187 74.9584028238456 136.64785786665735 76.5000401482863 C132.55425794089925 77.69008193130755 129.2081559863345 77.97093655235614 124.72829184863937 77.50050733144766 C119.54901005811296 76.95663246768085 117.08471391007686 77.29593876173686 110.09701592068835 79.51507202424257 L101.6940318413767 82.18366781974262 L137.59180733627846 118.09183390987131 C157.33558385847445 137.8413252594421 173.58484887697202 154.0 173.70128515516194 154.0 C173.81772143335186 154.0 175.08898333080876 150.2875 176.52631159395503 145.75 C178.7313037963929 138.78906256135195 179.0355099304182 136.45294293333257 178.47323075905473 130.79883509226522 C177.96777135396547 125.71608948970947 178.22577918516248 122.81793194105222 179.54152809016375 118.79883509226521 C181.1284424008089 113.95143428428 183.9816856040789 110.77375982731623 213.0322613789915 81.5 C242.9970951530065 51.30495829196319 244.87887048523987 49.19363646317978 246.39414619349924 44.068498772576035 C248.3849011738391 37.33514105629802 248.4124792218573 33.75197063165075 246.52252985398366 27.387820903271646 C242.38908963390907 13.469018155949398 225.8466076803839 4.9008953298460805 211.991774068368 9.502732215821979 C207.7988787624146 10.895388440956102 204.67708137236968 13.202453818864115 196.8485472662298 20.693853835831646 C188.58024034897713 28.606087945103685 186.62459602348218 30.017557886905422 184.74352607250066 29.430551678624425 C182.23881432918236 28.64893197197026 181.03818973906138 27.22956340277732 181.01531277451707 25.023088414964448 C180.99002908785303 22.584485945836747 199.04115630845996 5.614601772874222 204.5 2.945108619899983 C208.83676613260926 0.824335769233338 210.89279112152053 0.5 220.0 0.5 C229.45720887405878 0.5 231.06208044756536 0.77602683907058 236.15966141504072 3.2793502822774343 C243.27431101782565 6.773217129021127 249.12955795839105 12.409268906310444 252.71574583437 19.215646387920884 C255.27241152322762 24.068050214615525 255.5 25.39915399082458 255.5 35.5 C255.5 51.848947510444106 255.7684407929662 51.45744509083317 219.50241499214383 88.0 C202.85435674003224 104.775 188.73888958877495 119.4676963267399 188.1347102115721 120.6504362816442 C187.53053083436922 121.83317623654851 187.08204764975875 127.00817623654852 187.13808091243772 132.1504362816442 C187.23431556405475 140.9820405878107 186.9024781613475 142.55258695785724 181.14816188069048 160.5 C175.8225615712264 177.1102702370753 174.62274839507631 179.9011676165301 171.60881952469447 182.6895592683013 C166.93979922166506 187.00918915832858 162.06330312617624 187.82813929343973 156.12745538126373 185.28947219937004 L151.5 183.3103835821193 L140.40354840358796 194.15519179105965 C134.30050002556135 200.11983630597683 128.5951428827042 205.0 127.72497697501655 205.0 C125.68773366962718 205.0 123.0 202.31226633037284 123.0 200.27502302498345 C123.0 199.4048571172958 127.93949519434499 193.68644182149288 133.9766559874333 187.56743347875474 L144.9533119748666 176.4419637646854 L112.22121607276287 143.72113989205934 L79.48912017065912 111.00031601943326 L43.99456008532956 146.5054415339336 L8.5 182.01056704843393 L8.5 186.49212562948006 C8.5 190.5054929918358 8.996456409022484 191.4701406195487 13.25211492901036 195.72579913953666 L18.00422985802072 200.47791406854716 L38.76083956922392 179.7389570342736 C60.60719205119592 157.91118401242636 62.84556061408275 156.37217550158692 65.20724769580673 161.55551402904678 C66.3286383871531 164.016698501694 65.58906344705622 164.8942178683685 45.171171972698616 185.3286890326246 L23.970726136083414 206.54635000715558 L28.757010417881283 211.2606641884508 L33.54329469967915 215.97497836974603 L54.021647349839576 195.45466550756984 C72.46501864446927 176.97350368442312 74.79811695163598 174.9624574895697 77.5 175.21717632269684 C80.02788353608574 175.45549142852013 80.54450857147987 175.97211646391426 80.78282367730317 178.5 C81.03754251043031 181.20188304836404 79.02649631557689 183.53498135553073 60.54533449243014 201.97835265016042 L40.02502163025395 222.45670530032083 L44.739335811549196 227.2429895821187 L49.45364999284444 232.0292738639166 L70.67131096737543 210.82882802730137 C91.10578213163149 190.4109365529438 91.98330149830599 189.6713616128469 94.4444859709532 190.79275230419327 C99.62782449841312 193.15443938591724 98.08881598757378 195.39280794880395 76.26104296572645 217.23916043077605 L55.522085931452885 237.9957701419792 L60.27420086046328 242.74788507098958 C64.52152281150319 246.9952070220295 65.49957837387107 247.5 69.4816039785029 247.5 L73.93689216753211 247.5 L94.77282350728908 226.75 C106.23258574415541 215.3375 116.33964214931783 206.0 117.23294885209444 206.0 C119.32135346309958 206.0 122.0 208.67556051249318 122.0 210.76155910705944 C122.0 212.86417726722007 85.85944413388304 249.36084083431376 80.0542193224528 253.120648743608 C76.37155863328984 255.50575823309748 74.56922953538766 255.99312752507228 69.5542193224528 255.9599623693448 C66.0882884611184 255.93704155126545 62.21744564083461 255.25209557698471 60.5 254.35781747142454 Z M165.29087821796242 176.75 C166.2111038364571 176.0625 167.8826956139584 172.81129098887388 169.00552661240965 169.5250910863864 L171.04703751868473 163.5501821727728 L131.74842767295598 124.25157232704403 L92.44981782722722 84.95296248131527 L86.58375461793315 86.97118418575982 C72.571349037544 91.7921586732176 71.27273156420992 89.76219329179042 118.74542665928723 137.24548142368673 C146.08064991176968 164.5868042461596 160.1699773842538 178.0 161.55429702418235 178.0 C162.6891910622667 178.0 164.37065259946772 177.4375 165.29087821796242 176.75 Z" fill="currentColor"/></svg>
