<svg xmlns="http://www.w3.org/2000/svg" xmlns:xlink="http://www.w3.org/1999/xlink" width="256" height="256" xml:space="preserve" version="1.1" viewBox="0 0 256 256">
  <path d="M45.5 254.09772925614584 C23.836273049970757 247.74380945328357 8.103543101366009 231.70697568099516 2.5873999255833517 210.35565547885193 C0.5543413784389681 202.48630135832104 0.5344338492657652 187.21372722939958 2.5471281160313985 179.46009876074737 C4.44493281821337 172.14906657381385 8.240617351538255 163.6843837326452 11.590705049430529 159.29219233468925 C16.70734340310323 152.58393362922553 24.070085895133698 156.84216402056845 19.226149198614515 163.70813929503035 C-3.8022974798702798 196.34951250235554 15.476824806708805 241.480650021482 54.90382406207844 247.22719305125753 C79.55670262137482 250.8203862976225 104.78364580629697 235.13225364069132 112.57833227394477 211.36056707447975 C115.22009912470746 203.30389233611925 115.26862834949992 185.70463958109497 112.6696333180817 178.25 C111.66293164302662 175.3625 110.39888091227223 173.0 109.86063169418304 173.0 C109.32238247609385 173.0 100.69604748295708 180.26673484913925 90.69099837610135 189.1482996647539 C80.68594926924561 198.02986448036856 70.94840230439283 205.9481308839689 69.05200512087296 206.7444472283102 C62.55214232807773 209.4738053094438 53.73585756430398 206.2574585285399 50.48491125294923 199.97082158066553 C48.82990823324286 196.7703986465218 48.5351734965068 190.35195000716934 49.88080137307253 186.81509966117451 C50.36524212826242 185.54179484752854 58.24024212826242 176.03054642005253 67.38080137307253 165.67899204456117 C76.52136061788264 155.3274376690698 84.0 146.68301876624446 84.0 146.46917226050482 C84.0 146.25532575476518 81.02759919862635 145.16227933471268 77.39466488583633 144.04018021594368 C69.63165881059156 141.64243185992103 57.08559456544697 141.33511280163566 49.49484696631471 143.35676702740696 C43.96906827801072 144.82845524915257 37.47473928769662 147.70730904772532 31.777155270533974 151.21079538297883 C27.44643963279392 153.8737842942414 24.70325381030177 152.9861707963852 24.19399650280132 148.75711031963485 C23.967810906713186 146.87878172083373 24.668499232286 145.66017498139587 26.880274581882986 144.08525201730475 C35.53316431950906 137.92385106127242 50.89713704120679 133.05311029627399 61.79215833208436 133.01736362377466 C68.19180582655207 132.99636631711607 80.48221163855536 135.43253014568973 86.2721622798889 137.86970951480595 L90.5 139.64934452479508 L93.35249073668426 136.32009417993333 L96.20498147336852 132.99084383507162 L89.85249073668426 130.03397321498375 C80.96951869649662 125.8992487213275 73.0475503488326 123.98673602847124 62.0 123.30985621225963 C56.775 122.98972216190164 51.24259985315838 122.09219375277233 49.70577745146308 121.31534863641673 C40.7078721136002 116.76701643392023 40.99330512947147 102.15754292949008 50.17281653040975 97.410633098947 C52.89365654283331 96.00363204647397 55.262343179504114 95.82299906770783 64.46703907894667 96.32057417848236 C81.35749576298272 97.23361584193381 97.38948965768104 101.90144495759755 110.62978544701588 109.76118630515809 L115.75957089403174 112.80634386232552 L120.90556731749052 107.59562046830604 C123.73586535039284 104.72972260159533 125.77213961720027 102.10547295053601 125.43062124372925 101.76395457706312 C125.08910287025823 101.42243620359022 125.12257508247372 99.64833436187575 125.50500393754146 97.82150603991984 C126.05633366891092 95.1878533888308 132.9576048692889 87.71777584822556 158.8298582559064 61.74999999999997 C176.77609927593937 43.737499999999955 192.16602522200938 28.99999999999996 193.02969369161752 28.999999999999986 C195.20980329840384 29.000000000000046 197.00000000000003 31.00917292171256 197.0 33.45595275569093 C197.0 34.82062950414527 186.40870884909162 46.09919365475809 165.5 67.00000000000003 C148.175 84.31845196873786 134.0 98.94811363941831 134.0 99.51035926817883 C134.0 101.37931503713644 156.7367988767038 123.28070122882409 157.9187163703926 122.55023604582632 C158.5429668024852 122.16442806130128 160.8937788991354 118.17029441186646 163.1427432518375 113.67438349152675 C169.81609377770147 100.3336698121663 174.51111055135982 94.762062460894 201.64495994241543 67.98354916755268 C224.75207815905685 45.179034282203794 228.43951874300666 41.945802009539314 236.3398783303645 37.56225090510863 C249.3039266320361 30.369088667072972 249.933639310083 26.97601596354815 240.19885878845668 16.768956260954397 C234.14734379988997 10.423854320317886 230.47266161597895 7.999999999999897 226.9046904576649 7.999999999999943 C225.46896363366247 7.999999999999962 221.19602330381963 11.457998755728024 214.5480048956332 17.99999999999997 C208.95887400437266 23.49999999999997 203.71411026552224 27.999999999999986 202.89297436485447 28.0 C200.77939609353706 28.00000000000004 199.00000000000003 25.957423734309177 199.00000000000006 23.531238340088535 C199.00000000000006 21.375280772554593 216.585232019788 3.1921197851444663 220.68425854591058 1.109676680325478 C223.50457171359454 -0.3231371041291715 232.4991131488464 -0.32186443566162604 235.31574145408933 1.1117469389445205 C238.46643056529817 2.7153890450999096 251.89049050064125 16.015206468173982 253.5733122653903 19.20034007311574 C254.35799051942558 20.685527113329396 254.99999999999991 24.19537408042729 254.99999999999994 26.999999999999943 C255.0 35.23482355477489 251.79758169283187 39.62937181594347 242.35371817576038 44.35397767261203 C233.9817216233609 48.54234654007543 223.75796228889902 57.495558101396526 201.49229586825692 80.13738636283817 C179.61898412437262 102.38023140765856 175.32980625935923 107.77677457073297 169.6923761960166 120.14730073205922 C165.8972674681943 128.4751187759369 163.00198744931006 131.0 157.24759145051314 131.0 C153.99948333152747 131.0 152.70689638308644 131.72887990507522 148.64910034972615 135.8486234406828 L143.87338438711618 140.69724688136557 L147.05905847963177 146.0986234406828 C155.38693835909837 160.21871666536038 159.83609318921484 175.21291081196532 160.689341060791 192.0343373231417 C161.17906199456428 201.68898162156137 160.9996887373481 204.0999217693648 159.58865513587088 206.82855987167858 C154.84241881264958 216.00676885307269 140.23260340017166 216.29137580922063 135.6846513635832 207.29422254853682 C134.90780624722763 205.75740014684158 134.01027783809835 200.225 133.6901437877403 195.0 C132.99620063407122 183.67395400812256 131.06550668338267 175.86331824762422 126.71648458257997 166.7880133462226 L123.5 160.07602669244523 L120.27132684019273 163.00486147817588 L117.04265368038546 165.9336962639065 L118.99546031883702 170.48940935344564 C120.06950396998536 172.99505155269213 121.6944535058219 178.727704461061 122.60645928736264 183.22863803870973 C129.0055067220614 214.80923549407402 108.96436088087964 246.4970003256537 77.53990123925254 254.48496761756968 C69.39879537704479 256.55440295835103 53.208894439165704 256.35872973626516 45.5 254.09772925614584 Z M152.05650690059798 201.89441589042679 C153.65926560955776 198.89963384867002 151.49577529297284 180.68771220582425 148.3419413536518 170.6257866020907 C136.9845689495653 134.39146406562367 105.90639965685423 109.08892988233849 67.70687923578122 104.97612119251143 C56.42677369843781 103.76163170246643 54.017938129134826 104.22944811547369 51.98415399176666 108.02960853722118 C51.119343940047756 109.64552090003684 51.38481691217188 110.47572600308096 53.415781174611084 112.50669026552018 C55.616125016042155 114.70703410695126 56.76631266800384 115.00082321477308 63.204545454545446 115.00700603536448 C78.69984607142939 115.02188661935398 97.18338777903398 121.82635623127051 110.91589517769758 132.57130374791498 C129.34444195379655 146.99064918635116 141.9719361418797 171.86773355212867 141.99299396463553 193.79545454545456 C141.99917678522692 200.23368733199615 142.29296589304874 201.38387498395784 144.49330973447982 203.58421882538892 C146.52427399691902 205.61518308782811 147.35447909996319 205.88065605995226 148.97039146277882 205.01584600823338 C150.06146605937937 204.43192060483392 151.450218006398 203.02727705182096 152.05650690059798 201.89441589042679 Z M69.70225317241787 195.75 C89.00295167657563 179.1196083276237 117.55716484437981 153.4614519878838 117.78518672653775 152.54378664175584 C117.94203942613349 151.91253894963324 114.87696880172146 148.31309131598962 110.97391867228879 144.5450141225478 C105.00051530941161 138.77817940803754 103.67425637815485 137.91599962852098 102.5934149988262 139.09698233996315 C99.86797374288463 142.0749392038255 70.08748831598942 175.88990696764884 63.712713199625995 183.2450094499381 C60.0207209398317 187.50476464740402 57.0 191.60657823609344 57.0 192.3601507581368 C57.0 194.86587556165296 61.07057619755903 199.0 63.537783920726724 199.0 C64.85372691319026 199.0 67.62773807645127 197.5375 69.70225317241787 195.75 Z M138.5 118.0 L130.53819183835853 109.99121992634734 L126.73638024615136 113.79303151855451 L122.9345686539442 117.59484311076169 L130.7172843269721 125.56250107193088 L138.5 133.53015903310006 L142.48090408082072 129.76946955337635 L146.46180816164147 126.00878007365266 L138.5 118.0 Z" fill="currentColor"/></svg>
