<svg xmlns="http://www.w3.org/2000/svg" xmlns:xlink="http://www.w3.org/1999/xlink" width="256" height="256" xml:space="preserve" version="1.1" viewBox="0 0 256 256">
  <path d="M27.951949457429826 253.7466020611514 C26.112850117245294 252.50723319478467 23.683802668339002 249.91973319478467 22.554066237638068 247.9966020611514 C20.547437089500555 244.5807513515793 20.49291183539518 242.98732757232838 20.193076456526505 179.0 C19.767414927061115 88.16034050548217 20.584709960380852 80.62303771746377 33.502538318997814 56.256755622808484 C47.71646914702737 29.44569740042116 71.51720521147529 10.977766349701708 103.0 2.330930511796794 C112.34759213420793 -0.2364112762216002 143.65240786579213 -0.23641127622159086 153.0 2.330930511796808 C193.69923893287012 13.509087983015707 222.44150722583964 42.20966746425153 232.44655364464234 81.6622520396129 C235.47115679923846 93.58907444189083 236.11918805606882 112.36019340999816 235.80692354347352 179.0 C235.50708816460482 242.98732757233012 235.4525629104995 244.5807513515792 233.44593376236176 247.99660206115183 C232.31619733166073 249.91973319478535 229.88714988275424 252.50723319478533 228.04805054256957 253.74660206115183 L224.70423356041562 256.0 L127.99999999999956 256.0 L31.295766439583517 256.0 L27.951949457429826 253.7466020611514 Z M223.58722525024376 244.5036838406653 L226.08354140957945 242.00736768133058 L225.7471924237521 167.2536838406653 C225.4189202715902 94.29507920553334 225.35877237807753 92.30408862324602 223.24241346944828 84.34153151932595 C213.48119847874898 47.6160822346272 184.77242949652538 19.584126708143224 148.5 11.361181452244466 C137.6550575229117 8.902637331261044 118.34494247708842 8.902637331261051 107.5 11.36118145224448 C71.22757050347602 19.584126708142854 42.51880152125021 47.61608223462878 32.75758653055151 84.34153151932571 C30.64122762192221 92.30408862324607 30.581079728409563 94.29507920553269 30.252807576247804 167.25368384066485 L29.916458590420604 242.0073676813297 L32.412774749755755 244.50368384066485 L34.90909090909091 247.0 L127.9999999999995 247.0 L221.0909090909081 247.0 L223.58722525024376 244.5036838406653 Z M109.16827294759405 235.85427325725905 C103.53188229041466 233.0643318202285 100.03313088043724 227.7320799037396 99.3288472957416 220.85855331567598 C98.32261947644372 211.03817155485137 102.49757091943572 202.36135501651242 109.6711899061647 199.36402562292386 C114.21272660381227 197.46645042955174 141.787273396188 197.4664504295518 146.3288100938354 199.36402562292392 C156.33350962063255 203.5442559949533 160.25027275737082 219.9790136283109 153.6270328796802 229.98740478888823 C149.26681622675608 236.57613698237532 144.70027569823858 238.00012738609834 127.93427565235281 237.99921143079214 C115.190997010991 237.99851524364803 112.99253168815206 237.7472325241294 109.16827294759405 235.85427325725905 Z M144.54774889946242 225.35397727316484 C147.98074848168477 221.64970942156327 147.99978329902697 214.27384475849496 144.5865836679609 210.30576370132636 L142.17316733592182 207.5 L128.00000000000003 207.5 L113.82683266407822 207.5 L111.4134163320391 210.30576370132633 C108.00021670097301 214.27384475849496 108.01925151831522 221.6497094215633 111.45225110053758 225.35397727316484 C113.88060155753669 227.97421077883303 114.04188269539534 228.0 128.0 228.0 C141.95811730460468 228.0 142.1193984424633 227.97421077883303 144.54774889946242 225.35397727316484 Z M117.5389182444795 183.94612882804378 C89.01120598410125 179.51011788465277 65.70555356392475 160.54142992487957 56.53557699896138 134.29494019244876 C51.831389248252705 120.83052023197148 50.85020248637845 107.53369647934957 53.57750737827735 94.20784166791597 C56.856144859896666 78.18812667779497 62.84705219152195 67.21742961657709 75.05680733546417 54.87441855295707 C82.50155639357155 47.3484183255336 84.970831023866 45.56701544104899 94.05680733546417 41.16729404361428 C116.89064425703675 30.11041722112706 139.10935574296252 30.110417221126983 161.94319266453567 41.16729404361402 C171.02916897613397 45.567015441048625 173.49844360642794 47.348418325532855 180.94319266453567 54.874418552956755 C185.64943669904105 59.63202601528303 191.00957571465025 66.0936201070138 192.8546126992228 69.2335165345807 C222.29789742226154 119.3402977485749 189.6410528472066 180.94388317561916 131.81445375846863 184.37913745165565 C127.2415041913109 184.65079867334657 120.81751321001578 184.45594479272123 117.5389182444795 183.94612882804378 Z M143.20781344446914 173.07472873537773 C163.2873147326644 167.93925720228066 178.72857171993476 155.5326645466143 187.50302933797025 137.4848346847501 C196.6018511117929 118.76983320365095 196.1522821190973 96.56192275713056 186.2927567886072 77.69951846225527 C183.7815953415892 72.89537821456213 179.8628935545221 67.79682070256855 174.51475626553759 62.375358496486356 C167.7709630875161 55.53910544898453 164.9935101041912 53.53252964821879 157.0 49.721791977183486 C145.3852815129115 44.184719439549305 139.456790953307 42.76190476190476 127.99999999999991 42.76190476190476 C116.54320904669339 42.76190476190476 110.61471848708808 44.18471943954951 99.0 49.72179197718348 C81.84244390291195 57.90129566327916 68.74859110967148 73.93318667248826 63.97199947693045 92.60948099613064 C56.27465945691829 122.70579208488162 70.90980165367863 154.3987886020845 98.78008385101671 167.98780544333843 C112.9852379363024 174.9139670347697 128.89422661462888 176.73552770872536 143.20781344446914 173.07472873537773 Z M88.81411200380143 148.26780661100707 C83.41635040171064 142.96460994039168 79.0 137.91991812530406 79.0 137.05738035525684 C79.0 135.3224323853723 146.19999885237203 67.86745173341251 149.68425854591064 66.10491943204917 C152.8601523002334 64.49837576997014 159.6748873360982 64.75188933299927 163.61856453821963 66.62328669678615 C169.96303049810243 69.63393291944692 173.02395375529645 76.60824099228134 171.54959241399388 84.69411928296253 C170.9418672191337 88.02708239190979 166.6205872148062 92.74642019126972 136.77339469996713 122.67375129603792 C118.02816173301841 141.4693145088588 101.77699393166651 157.0865605434053 100.6596884747407 157.3787424839191 C99.09542489358616 157.78780659954094 96.37115188181001 155.69245254298744 88.81411200380143 148.26780661100707 Z M131.18767304323123 114.25 C148.0592395587252 97.3375 161.98223975802213 82.825 162.12767348611328 82.0 C162.9950761769895 77.07949614325877 157.94037800465642 72.95166126707488 153.68452511106398 75.10504383464755 C152.4830362999788 75.7129748711784 137.89456784747722 89.76570749146212 121.26570632772717 106.33333854638917 L91.03141265545433 136.45630410080196 L95.22391430078434 140.72815205040098 C97.52979020571586 143.07766842268043 99.66294430935449 145.0 99.96425675331464 145.0 C100.2655691972748 145.0 114.31610652773728 131.1625 131.18767304323123 114.25 Z M35.25 112.96883790363577 C32.73701448147466 111.95874114569644 32.106484306264484 107.29351569373553 34.2 105.2 C36.00944495246346 103.39055504753654 46.5221253033986 103.66498244625573 48.42857142857143 105.57142857142858 C50.647001057257256 107.78985820011441 50.37873344203898 110.62131683387787 47.77749375659457 112.44329603135094 C45.35987664568198 114.1366609712239 38.8362497118067 114.41033415594306 35.25 112.96883790363577 Z M209.25 112.96883790363577 C206.73701448147466 111.95874114569644 206.1064843062645 107.29351569373554 208.2 105.2 C210.00944495246347 103.39055504753654 220.52212530339858 103.66498244625573 222.42857142857144 105.57142857142858 C224.64700105725726 107.78985820011442 224.378733442039 110.62131683387787 221.77749375659457 112.44329603135094 C219.35987664568196 114.1366609712239 212.83624971180672 114.41033415594306 209.25 112.96883790363577 Z M58.208207973057185 53.71214846839362 C53.95317849479311 49.376589298738246 53.00899141321553 46.39100858678442 55.20000000000001 44.19999999999999 C57.4837066307108 41.916293369289235 61.14065551168332 42.905361394036255 65.11764705882354 46.88235294117647 C69.26547175979191 51.03017764214485 69.95959699025376 53.897545866889104 67.42857142857143 56.42857142857143 C64.91454248762716 58.9426003695157 62.70168449210111 58.290667471679114 58.208207973057185 53.71214846839362 Z M187.75 56.91990120052802 C184.78009633615864 55.1900911168 185.64474518794006 51.119960694412896 189.88235294117646 46.88235294117648 C193.85934448831668 42.905361394036255 197.5162933692892 41.916293369289235 199.8 44.199999999999996 C201.99100858678446 46.39100858678446 201.04682150520688 49.37658929873825 196.7917920269428 53.712148468393615 C192.4780050905188 58.107577126101276 190.80695588219797 58.70041454677513 187.75 56.91990120052802 Z M125.22250624340543 28.443296031350947 C123.3514005156199 27.132722564640392 123.0 25.950542291384505 123.0 20.966349011205164 C123.0 15.754906533165505 123.29931227792999 14.849989022914887 125.5 13.408043046370263 C127.81587139515283 11.890625828586026 128.18412860484716 11.890625828586026 130.5 13.408043046370263 C132.70068772207 14.849989022914889 133.0 15.754906533165506 133.0 20.966349011205168 C133.0 25.950542291384508 132.6485994843801 27.13272256464039 130.77749375659457 28.443296031350947 C129.55511532272158 29.299483214107926 128.30524313225402 30.0 128.0 30.0 C127.69475686774597 30.0 126.44488467727841 29.299483214107926 125.22250624340543 28.443296031350947 Z" fill="currentColor"/></svg>
