<svg xmlns="http://www.w3.org/2000/svg" xmlns:xlink="http://www.w3.org/1999/xlink" width="256" height="256" xml:space="preserve" version="1.1" viewBox="0 0 256 256">
  <path d="M49.36703996974735 254.2277641544112 C44.10495740447024 249.96531314506854 43.45903638819389 242.86111745450728 47.90120980030909 238.10575525485456 C49.49687519047909 236.39758986468453 51.521875190479086 235.0 52.40120980030909 235.0 C53.78677785241885 235.0 54.0 233.21164849589084 54.0 221.59051655370797 C54.0 209.30454088092245 54.376973694217746 206.51870400519834 58.49932135006358 188.34051655370797 C60.973948092598555 177.42823244916858 62.99894809259855 166.4231864113105 62.99932135006358 163.88485869180107 C62.99976270801234 160.8834153972182 63.657155890565456 158.43427904799302 64.87945158938302 156.88038186940472 C66.72980785584221 154.52803506444124 66.67667851370346 153.72891462618333 61.44749014365857 105.26012036815438 C58.52621297434945 78.18311107527526 55.7986858965355 55.460125645353635 55.38631885962758 54.76459719055073 C54.973951822719656 54.06906873574783 52.089605989215016 50.125 48.9766614518395 46.0 C41.75419908039119 36.42942881746873 40.69138869006987 34.36574140854268 41.44289802613704 31.37148971723036 C42.270184901060624 28.075316262614677 45.62102772542702 26.999999999999936 55.06509966117454 26.99999999999997 L63.0 27.0 L62.999999999999986 22.954545454545965 C62.99999999999998 19.992704826039706 63.657473612530026 18.251617296561598 65.45454545454491 16.454545454545965 C67.90131402520696 14.007776883882904 67.97418630751712 14.0 88.45454545454493 14.0 L109.0 14.0 L108.99999999999999 10.934258545910694 C108.99999999999996 4.2811635923870694 113.28432814413281 0.05526904424199734 120.06290879523402 0.022235845588824077 C125.8307984936715 -0.0058720808377979924 129.56915770940677 3.4534664608923817 130.57614021138355 9.750789079032273 L131.25561644344089 14.000000000000057 L151.51702425941087 14.000000000000071 C175.04207781000358 14.000000000000087 175.82339825749668 14.253576703892367 176.71665333315755 22.17851228690047 C177.18188700903912 26.306053246776486 177.55657346935433 26.867893964611596 180.36754694429166 27.65301138007179 C182.4641551749172 28.23860340003846 183.9960225133439 29.590861939798582 185.0 31.74231731896151 L186.5 34.95671516317313 L196.0 34.979911580665686 C206.6194968037505 35.00584150502576 211.56586059059276 36.68616229789587 213.72134670792317 41.0 C215.29972264721607 44.15885014534376 215.52040300205266 110.98294623559852 213.9792949918949 119.10917708196243 C210.63856441232883 136.72478072955005 197.05696579517246 149.97614768590975 179.10148803311327 153.138942772436 C173.134804325993 154.1899533978181 172.96352382250763 154.30221293438942 174.58794568825135 156.0971788916592 C175.70107481878884 157.32717273592777 176.5472582500381 160.78050951032063 177.0711880887336 166.23147363748797 C177.5082979596229 170.77916313686958 179.69609831411253 182.55157294341367 181.93296665426612 192.39238431869705 C185.50892845157978 208.12436322013147 185.99999999999994 211.78267328838334 185.99999999999994 222.6903502352322 C185.99999999999997 234.69635606133522 186.08109088977452 235.1668579288239 188.51761923795112 237.29796591653513 C193.5053865322272 241.66051344430403 193.40847525687343 249.96033278876763 188.32306207473374 253.96051938083463 C185.8402099739347 255.91353112795935 184.61076696444715 256.02939073169694 169.08535154924198 255.77343262781065 C152.62184368305716 255.50200876287377 152.49759944111867 255.48306609221618 152.17323613368586 253.19495794406146 C151.51848387492086 248.57623583840746 153.22307106982453 248.0 167.54065724720687 248.0 C174.85332954618426 248.0 181.54822942423527 247.72685503811698 182.4182125317647 247.3930111958155 C184.4567215344365 246.61076189450353 184.45672153443647 244.3892381054965 182.41821253176465 243.60698880418454 C181.54822942423525 243.27314496188305 152.57832954618425 243.0 118.04065724720687 243.0 C67.15706594535708 243.0 55.03647847551838 243.25111983867265 54.146238319759625 244.32379360431744 C51.31439534724675 247.73595564328002 54.469772134974114 248.0 98.07755528455782 248.0 C144.5066213728516 248.0 143.98587824770757 247.9358121762352 142.59261527653427 253.4870140145474 L141.96189594357028 256.0 L96.73094797178514 255.9777641544112 C55.385379053620014 255.95743838792893 51.316776817746074 255.80711181621797 49.36703996974735 254.2277641544112 Z M177.0 224.5 L177.0 214.0 L157.25 214.03623754634148 L137.5 214.07247509268296 L135.5 218.28480219609162 C129.39458068224127 231.14381383102656 108.87276380712039 230.51307636620515 103.35060560206053 217.29669146293895 L101.9731599582733 214.0 L81.98657997913665 214.0 L62.0 214.0 L62.0 224.5 L62.0 235.0 L119.5 235.0 L177.0 235.0 L177.0 224.5 Z M70.75 227.91990120052802 C68.61152865171628 226.67435598400743 68.45998631145024 222.69306098649 70.48701401454746 221.01077741069298 C72.49300803511929 219.34595024094162 76.64015069924324 220.51593220185634 77.26997107524492 222.92436901951976 C77.8403776191704 225.10560699430155 75.52659817074668 229.0163092344253 73.69329603135094 228.96959131409926 C73.03698321410792 228.95286653685383 71.7125 228.4805059857468 70.75 227.91990120052802 Z M85.57142857142857 227.42857142857144 C84.70714285714286 226.56428571428572 84.0 225.24642857142857 84.0 224.5 C84.0 222.74909916993207 86.74909916993208 220.0 88.5 220.0 C90.25090083006792 220.0 93.0 222.74909916993207 93.0 224.5 C93.0 226.25090083006793 90.25090083006792 229.0 88.5 229.0 C87.75357142857143 229.0 86.43571428571428 228.29285714285714 85.57142857142857 227.42857142857144 Z M126.41110635800683 215.92327471805652 C129.6898588558155 212.02669876776883 129.7322059322037 207.94380655545308 126.53160124273151 204.30576370132633 L124.06320248546302 201.5 L124.03160124273151 205.62755528455784 C123.99477413388553 210.43768028576986 122.1134138321635 212.49626514287203 118.5675584650793 211.60631209702893 C116.45140957292146 211.07519253430914 116.06674184772393 210.33063900390366 115.80457247962676 206.2583433562847 L115.5 201.5273971280099 L113.25 203.95226001063708 C107.88416383550701 209.73511198820938 112.07531072516919 219.0 120.05712908484197 219.0 C123.03379034626577 219.0 124.36433657306334 218.35572240208162 126.41110635800683 215.92327471805652 Z M89.49747560787527 200.64733436846848 C92.1135016598382 192.33030717127266 97.42644788163561 186.08602911639332 105.30758974376957 182.06578947368422 C111.28308897369806 179.01763486495196 112.92161299526158 178.6315789473684 119.8832928639188 178.63157894736844 C126.3997117210113 178.63157894736844 128.67229899897592 179.09422438375924 133.31595551564595 181.36615382361458 C140.99842227400578 185.12483458227322 147.56813692686524 192.6163101211964 149.77843358689012 200.13839254285733 L151.5 205.9972280050753 L163.79531305865606 205.99861400253764 L176.09062611731213 206.0 L175.46546146370645 202.75 C175.12162090422333 200.9625 173.624357908386 194.1 172.13821036184567 187.5 L169.43612391359056 175.5 L119.71806195679528 175.2406647282703 C92.37312788055787 175.09803032881894 70.0 175.347332164331 70.0 175.79466880718593 C70.0 176.24200545004084 68.48261868948377 183.22120632231923 66.62804153218615 191.30400407891563 L63.2560830643723 206.0 L75.5349693716058 206.0 L87.81385567883929 206.0 L89.49747560787527 200.64733436846848 Z M103.95177638424951 202.0945260958514 C106.13276053316247 197.81944399132237 110.05672754312873 194.27485037266288 113.59012412113844 193.38802428382638 C114.83596247435437 193.07533876163478 116.09872253324323 192.1851164932409 116.39625758533589 191.40975257628446 C117.17351344693714 189.38425626890887 120.76986804209935 189.67381787746706 123.72712939921918 192.0 C125.12555279063004 193.1 126.7986038691913 194.0 127.44502068491087 194.0 C129.27992681251027 194.0 135.1692078054518 200.1972935187371 136.23528518021118 203.25 C136.98274617083172 205.39035028280534 137.83354873404323 206.0 140.0730742955707 206.0 C142.73120362292144 206.0 142.87786211962734 205.80895235215974 141.99741953758615 203.49321286950834 C139.030770303482 195.69033406432186 135.88884189993436 192.2071332962085 129.0 189.08402974945602 C116.40054988772016 183.37198294908353 101.73519482584744 190.21284985926087 97.55929754588448 203.75 C96.9651446013257 205.67608607870878 97.23190440328813 206.0 99.41228846403581 206.0 C101.36681364298254 206.0 102.42286176021891 205.09144634023 103.95177638424951 202.0945260958514 Z M168.0 164.5 L168.0 162.0 L119.5 162.0 L71.0 162.0 L71.0 164.5 L71.0 167.0 L119.5 167.0 L168.0 167.0 L168.0 164.5 Z M100.0 150.4503400731158 C100.0 146.733290296232 102.4642711698541 142.5651244308938 105.4720575044224 141.19468526445624 C107.05371641531605 140.47403323724208 113.00480563014034 140.0 120.47032773918241 140.0 C132.235496651582 140.0 132.9942624000234 140.12429226468527 135.83831779908098 142.51740710769974 C137.85190586456358 144.21172976007142 139.0517398635366 146.3467711514309 139.50801489701797 149.04743976601208 L140.18594363198713 153.06006531662464 L152.34297181599356 152.78003265831234 L164.5 152.5 L168.41684549120887 116.25017882454131 C170.57111051137375 96.31277717803901 172.0616591714327 79.72832583809827 171.72917584689537 79.39584251356189 C171.02163090388606 78.68829757055448 167.57973898631687 80.36928217625378 160.15477575931644 85.04866045014765 C155.90139292207945 87.72923766388294 153.51819774624911 88.49956780499146 148.48759352578284 88.81989254538105 C141.86200337189925 89.24177833741696 138.76095119591028 88.17507912206517 127.0 81.4285950589267 C121.18510395222548 78.09297170145886 116.816430914456 78.59456239530924 108.84846737231763 83.51266950589323 C101.60782524789774 87.98184827773115 98.0 87.79776347094173 98.0 82.95913991868332 C98.0 80.38013511900324 98.86361112055198 79.39820508620267 104.11966017120353 76.00105662212087 C111.08930589224877 71.49635717425177 114.63430581460099 70.58849932146126 122.91557115928507 71.18751197765192 C127.7116450591947 71.53442864394567 129.94295838777563 72.37944484332061 135.32895464097146 75.88855956102714 C144.30007582702368 81.73347513623297 148.47869729042912 81.7528567584768 158.01032401887008 75.99376213491544 C161.80883993733434 73.69866464245227 166.74197241995972 71.57603942375279 168.97284064692644 71.27681720447217 C172.0567604782782 70.86317675504264 173.13707378146896 70.22550392490564 173.48000559219088 68.61638840289007 C174.25265691690853 64.99092934415836 177.05138151972656 36.71804818639111 176.67488286992722 36.34154953659386 C176.47857429821588 36.145240964883605 148.54507375050463 36.1005842670867 114.6004372083467 36.24231243037852 L52.882916222604976 36.5 L57.57377406613405 42.5 C63.643341284773236 50.26348474556142 64.63221294092713 52.79174145783277 65.49411338133218 62.74999999999999 C66.20691936932913 70.98564530903666 66.2131187070802 70.99999999999999 69.05702787227774 71.0 C72.57718715636051 71.00000000000001 75.98978819003115 72.45674480228894 82.67933642435153 76.81498598359875 C88.42616183572875 80.55904317436158 89.48816817441856 82.2193323305944 87.96123011956439 85.0724421842418 C86.5299627709533 87.74678968808742 82.98365314499944 87.47972989157799 78.38954684032197 84.35163321423553 C74.45665496207623 81.67375307807892 68.02099101390382 78.6236961662785 67.50142049406938 79.19141893232378 C67.34609592469684 79.3611385195457 68.95796001345548 95.475 71.0833406913108 115.0 C73.20872136916611 134.525 74.95944362728928 151.0625 74.97383459825114 151.75 C74.99334222075169 152.68193784524007 78.18062154759939 153.0 87.5 153.0 L100.0 153.0 L100.0 150.4503400731158 Z M131.0 151.10698880418434 C131.0 148.48386730393744 129.1495882893205 148.0 119.11821253176424 148.0 C110.49525068107476 148.0 108.0 148.83038775285146 108.0 151.7 C108.0 152.69130434782608 110.73076923076924 153.0 119.5 153.0 C130.11668181522302 153.0 131.0 152.85459728580432 131.0 151.10698880418434 Z M187.56249583165163 141.5132252389768 L193.0 138.85290233286622 L193.0 125.5082386346688 C193.0 118.16867360066023 193.27314496188296 111.45177057576532 193.60698880418437 110.58178746823569 C194.33476450554437 108.68523439153674 199.5210338682091 108.44232916992081 200.69098300562504 110.25 C201.13594235253126 110.9375 201.725 115.1 202.0 119.5 L202.5 127.5 L204.25 122.57186116809177 C205.79575771710864 118.21888480786039 206.0 113.34624748745222 206.0 80.82186116809177 C206.0 44.66666666666667 205.96378962684025 44.0 204.0 44.0 C202.05128205128204 44.0 202.0 44.666666666666664 202.0 70.0 C202.0 94.56725405771753 201.8910386352336 96.10896136476642 200.02268120235362 97.97731879764636 C198.03683604044858 99.96316395955141 195.28000438061682 99.78500598342873 193.76531277451707 97.57294151513018 C193.36123480050145 96.98282368180858 193.02373480050147 84.6875 193.01531277451707 70.25 L193.0 44.0 L189.0453130586561 44.000000000000014 C185.3621025376996 44.00000000000003 185.05320492611995 44.22310194949576 184.54549922958358 47.250000000000014 C184.03456303421024 50.29615800897751 174.0 142.82972744659867 174.0 144.49515974320687 C174.0 145.95491124732217 182.14373038140982 144.16438014457339 187.56249583165163 141.5132252389768 Z M168.0 24.490396099401273 L168.0 21.980792198802543 L119.75 22.240396099401273 L71.5 22.5 L71.18044904692417 24.75 L70.86089809384832 27.0 L119.43044904692417 27.0 L168.0 27.0 L168.0 24.490396099401273 Z M122.0 11.559016994374948 C122.0 8.558982170061478 120.40202363469828 7.421460586581246 118.4561951235001 9.036354818517289 C116.02125593708008 11.057174857197548 116.64010259562109 14.0 119.5 14.0 C121.4838816317746 14.0 122.0 13.496065533708336 122.0 11.559016994374948 Z" fill="currentColor"/></svg>
