<svg xmlns="http://www.w3.org/2000/svg" xmlns:xlink="http://www.w3.org/1999/xlink" width="256" height="256" xml:space="preserve" version="1.1" viewBox="0 0 256 256">
  <path d="M40.31008385053592 253.92299426373694 C38.55562996833067 252.7991725413412 36.19312996833067 249.96467762548818 35.06008385053592 247.62411667295243 C33.17385473391729 243.7276872615123 33.0 241.53585990781175 33.0 221.65215702145636 C32.99999999999999 198.00603341914044 33.46466442039147 195.43183382328132 38.59101879608906 190.6784097455023 C40.13807226192035 189.24390080305463 42.66297854154948 187.79365917333308 44.20192163970934 187.4556505683433 C46.59406452295904 186.93024785535778 47.0 186.3498968504645 47.0 183.45534096248696 C47.0 181.11935623077957 47.930161031464024 179.0101975685327 50.0 176.65278121992122 L53.0 173.23596998323035 L52.99729817102728 149.86798499161517 L52.99459634205457 126.5 L49.24729817102728 124.5 C42.58583941809856 120.94466041990859 42.00332229011566 118.48237702732492 42.001553999079164 93.87244471544217 C41.99988191076951 70.60139980773988 42.24740541783929 69.47186871694112 47.194957944061585 70.17323613368575 L49.5 70.5 L50.0 92.14772243263678 C50.44972536667354 111.6187822499659 50.69154510235331 114.00682733297283 52.404987562112105 115.89772243263681 C54.23934592745336 117.92205609163794 55.194051277252576 118.00000000000006 78.1549875621121 118.00000000000001 C100.66666666666652 117.99999999999997 102.11183330994744 117.88816669005253 103.99999999999999 116.0 C105.92341235950218 114.07658764049782 105.99999999999997 112.66666666666661 105.99999999999999 79.18150122742742 C106.0 41.0819452309405 105.62259049468436 37.91800363975534 100.1827458996221 30.413645793354448 C98.62241336438755 28.2611406070095 94.90547768164934 25.15 91.92288882687055 23.5 C87.08380760947503 20.82296860296061 85.5849222916116 20.501291716446133 78.0 20.51199853268359 C68.02255830224357 20.526082610367023 63.609641748556356 22.36903694725312 57.58461659530711 29.038019572767368 C52.27387706419968 34.91637339880692 51.02945666400211 38.591257260711586 50.21411235805985 50.80377258618611 C49.50998851775582 61.350388449048225 49.463834444973116 61.50420400161876 46.91440417766236 61.80055805902825 C42.4964677904258 62.314113338622406 41.739139323716266 60.157325162485655 42.14755306950845 48.22509039947961 C42.48275412361765 38.43184100068626 42.823981976561655 36.7998442080387 45.80064378733452 30.753385545066592 C51.09533181318523 19.9983470768815 61.07720911763667 12.98370237237563 72.23553572896786 12.176581892123494 L78.0 11.759618190226917 L78.0 8.334354549659437 C77.99999999999999 6.030988215230222 78.80395211061524 4.105138798476362 80.45454545454496 2.4545454545459506 C82.61974225952905 0.2893486495609592 83.76909939528505 0.0037490699898054883 90.20454545454497 0.031803371871049535 C94.3552859218771 0.04989786369476361 98.1839304053929 0.588711802313928 99.0866571843558 1.281803371871078 C101.35214518191358 3.02118971625774 102.99999999999997 6.454076424794916 102.99999999999999 9.43425854591068 C103.00000000000001 13.46906740106528 105.67475317631984 12.556132531562465 106.46968815966417 8.25 C106.85043663666303 6.1875 108.1039588533483 3.4875000000000003 109.25529308563145 2.25 C111.20839876374512 0.1507240392107958 112.17735172836547 -3.8078531970009464e-15 123.71976857216436 -5.684341886080802e-14 C135.52122640688245 -1.1106923658962292e-13 136.20393925498342 0.11303016407359578 138.54545454545487 2.4545454545457233 C140.21353780320877 4.122628712300103 141.0 6.027045691562554 141.0 8.398223433066633 L141.0 11.887355957041706 L169.75 12.193677978520853 C198.0312050297852 12.495005140071811 198.58152956003735 12.540375736082833 203.5 14.976140927556358 C210.20144455944617 18.294885157035267 216.5783197655339 24.86641853377275 219.82891062412193 31.803501931851997 C222.3911566478836 37.27158915860081 222.5118945955145 38.29342994047607 222.8400789260216 57.287905405214914 C223.1966227588444 77.92375683112438 222.8409153834242 79.99999999999997 218.9489838559864 80.00000000000003 C214.48550657353536 80.0000000000001 214.0012877911525 77.92308416152503 213.97803799950896 58.6785714285714 C213.95858143691714 42.57382209239433 213.72417846948937 39.98663736023244 211.92332409609241 36.0 C209.04655685118084 29.631562915537682 203.49113878689943 24.327456533127695 197.25325677510642 21.993565775379537 C192.22344682965334 20.11167270290246 189.4285361797527 20.0 147.3588951982005 19.999999999999986 L102.79281561062159 19.99999999999997 L106.04075147187217 23.69919458225624 C107.82711619555998 25.733751602497186 110.23623268317012 29.446251602497192 111.39434366656137 31.949194582256254 C113.42631860785832 36.34075764253623 113.5 37.92591604587723 113.5 77.2496257288357 L113.5 117.99925145767139 L138.0 118.01493850335275 C151.475 118.0235663784775 163.09853412952793 118.41006276477344 163.83007584339543 118.87381936178816 C164.58554200034823 119.35274271976866 165.01755472300303 120.96617511631364 164.83007584339543 122.60850658727111 L164.5 125.5 L133.75 125.76445188105623 L103.0 126.02890376211246 L103.0 149.59137495797933 L103.0 173.1538461538462 L106.0 176.1538461538462 C108.31372549019608 178.46757164404227 109.0 180.0512820512821 109.0 183.0769230769231 C109.0 186.0384281620615 109.4000055537173 187.0 110.63196601125011 187.0 C113.66140177826347 187.0 119.04942327041871 191.17655374785735 121.03108601769588 195.06093362852684 C122.81926039199134 198.56604496605675 123.0 201.01378568485245 123.0 221.72576365328115 C122.99999999999999 247.1926719059484 122.54284194745999 249.28427118575502 116.00050556352255 253.75 C112.96548168615915 255.82167482466045 111.58656136153233 255.99970373765203 98.60211678020829 255.99626193956243 C86.30790199452046 255.9930031012889 84.08334755173509 255.7384859449744 81.25 254.01096037355268 C78.01007934840707 252.03554236612302 77.98992065159293 252.03554236612302 74.75 254.01096037355268 C71.91534387509577 255.73928379753946 69.71082638420285 255.99084861242625 57.5 255.97941518269977 C45.12198289675693 255.96782520637467 43.13042932596289 255.7295766664396 40.31008385053592 253.92299426373694 Z M59.76755460771048 221.98472179686598 C59.931278183623135 206.47263902860428 59.656669778836836 196.25666977883677 59.05993625176785 195.65993625176787 C58.42637230023049 195.0263723002306 57.54445763017476 195.1331771567926 56.54238164405738 195.96482635949963 C55.23036493053522 197.05370351937123 55.0 200.8559677039549 55.0 221.42244471544217 C55.0 245.46366946016934 55.42552098087763 248.69052839508242 58.4625 247.67966718915557 C59.13325996646722 247.4564041292789 59.59457637185888 238.3736425535766 59.76755460771048 221.98472179686598 Z M87.5 222.00072467913708 C87.5 207.7007695597745 87.23224440295044 196.00062486722942 86.9049875621121 196.00040314014802 C86.57773072127374 196.0001814130666 85.45273072127374 196.94614898908532 84.4049875621121 198.10255330907847 C82.683459676462 200.00262038806318 82.47063321528573 202.20395707950502 82.19506454661439 220.9605409502289 L81.8901290932288 241.71597528230083 L84.53395818860757 244.85798764115043 C85.9880641910659 246.58609443851768 87.25028514508942 248.0001446925451 87.33889364199317 248.00032153898906 C87.42750213889693 248.00049838543305 87.5 236.30067979849966 87.5 222.00072467913708 Z M100.76774502118977 222.6106329246572 C101.03847905281964 197.4701280877675 100.66095800046531 194.42540020472316 97.42688687798375 195.6664297378955 C96.24321688180392 196.12064653374068 96.0 200.5138789883299 96.0 221.44032213751768 C96.0 235.31481162854962 96.31555631973245 246.9822229863991 96.70123626607213 247.3679029327388 C97.0869162124118 247.75358287907846 98.0994162124118 247.9351376314168 98.95123626607213 247.77135793793508 C100.29139520380804 247.51368518287845 100.53606288961522 244.1247577445237 100.76774502118977 222.6106329246572 Z M47.0 221.5 C47.0 207.475 46.69793330221283 196.0 46.328740671584065 196.0 C45.9595480409553 196.0 44.8345480409553 196.74474440295043 43.828740671584065 197.6549875621121 C42.162575942289294 199.16284591855373 42.0 201.26723247827192 42.0 221.326246890528 C42.0 240.40929539157625 42.22049364544662 243.58616139257512 43.65498756211209 245.17125932841594 C44.56523072127374 246.17706669778715 45.69023072127374 247.0 46.15498756211209 247.0 C46.61974440295044 247.0 47.0 235.525 47.0 221.5 Z M72.4743198537684 244.0496599268842 C73.68888750476118 241.70094507922428 74.0 237.12240194400934 74.0 221.59671294801004 C74.0 202.14247490949643 73.35943126691053 197.7356403321184 70.36455001937196 196.5863965660483 C69.23382866830313 196.15249807176036 69.0 200.4270598656994 69.0 221.53138479633867 C69.0 237.396277442371 69.36739718603296 247.0 69.9743198537684 247.0 C70.51019577334102 247.0 71.63519577334102 245.6723469670979 72.4743198537684 244.0496599268842 Z M112.5950124378879 244.8950124378879 C114.34276255393173 242.96377029797952 114.5 241.03274876291493 114.5 221.5 C114.5 201.9672512370851 114.34276255393173 200.03622970202048 112.59501243788792 198.1049875621121 C111.54726927872628 196.94724440295045 110.30976927872626 196.0 109.84501243788792 196.0 C109.38025559704957 196.0 109.0 207.475 109.0 221.5 C109.0 235.525 109.38025559704955 247.0 109.8450124378879 247.0 C110.30976927872626 247.0 111.54726927872626 246.05275559704955 112.5950124378879 244.8950124378879 Z M82.7071157993465 188.5 C86.21274530087233 186.81597100059375 86.97396098099806 185.90546803763525 87.52537873294042 182.7367941282742 C87.90437989873352 180.55889705942613 89.40608618046595 177.7477599733802 91.0901289486489 176.06371720519726 L94.0 173.15384615384616 L94.0 149.5769230769231 L94.0 126.0 L78.0 126.0 L62.0 126.0 L62.0 149.5987901996909 L62.0 173.19758039938182 L64.96753591005523 175.96967399934084 C66.83744981566653 177.71643512619204 68.17295017694448 180.1765617950068 68.5782008420068 182.62088379964993 C69.12197594965718 185.9007339659728 69.86079586121335 186.82436582705003 73.36066493195156 188.59965635144366 C78.16775974241848 191.03803038612824 77.40682892156892 191.04614379627535 82.7071157993465 188.5 Z M59.81955095307584 184.75 C59.60980958781679 183.27318365102528 58.812725643533085 182.5 57.5 182.5 C56.187274356466915 182.5 55.39019041218321 183.27318365102528 55.18044904692416 184.75 C54.91832064639895 186.59568030702053 55.33513848159801 187.0 57.5 187.0 C59.66486151840199 187.0 60.08167935360105 186.59568030702053 59.81955095307584 184.75 Z M100.81955095307583 184.75 C100.6098095878168 183.27318365102528 99.81272564353308 182.5 98.5 182.5 C97.18727435646692 182.5 96.3901904121832 183.27318365102528 96.18044904692417 184.75 C95.91832064639895 186.59568030702053 96.33513848159801 187.0 98.5 187.0 C100.66486151840199 187.0 101.08167935360105 186.59568030702053 100.81955095307583 184.75 Z M173.40738472346573 123.48701401454746 C172.13678002283314 118.42452165247856 173.6501120916981 118.0 192.9674571533301 118.0 C215.2279394935236 118.0 214.0 118.92081622759676 214.0 102.22796329706499 C214.0 90.84274315437708 214.13380202783807 90.0196893489401 216.2225062434054 88.55670396864906 C218.9905740247787 86.61787382428427 219.47639074378642 86.61924788664358 221.42857142857144 88.57142857142857 C223.76037922190366 90.9032363647608 223.68569141904482 113.75275435177419 221.3300353744807 118.71693097121204 C218.1472907413881 125.42406740978468 215.9967933382013 125.99205085753404 193.7690520282149 125.99626193956243 L174.03810405642983 126.0 L173.40738472346573 123.48701401454746 Z M58.57142857142857 107.42857142857143 C54.88092579581347 103.73806865295633 58.051095557262975 100.0 64.87142857142858 100.0 C67.47214285714287 100.0 70.14000000000001 100.54 70.80000000000001 101.20000000000002 C72.63712000221118 103.0371200022112 72.22785980564787 106.80768561582904 70.06574145408933 107.96481624151201 C67.1294260955503 109.53628453120095 60.36349008830326 109.22063294544611 58.57142857142857 107.42857142857143 Z M85.75 107.91990120052802 C83.40047879439234 106.55143072693151 83.5134381529651 102.330767515009 85.93425854591067 101.03518375848799 C90.78042480640661 98.44159428493805 99.0 100.62128823718429 99.0 104.5 C99.0 108.37464168945968 90.35963794480242 110.6047688264836 85.75 107.91990120052802 Z M129.3147146335077 107.53634256420486 C125.39483076416444 105.83147036478049 123.0 101.43726640705518 123.0 95.94965992688421 C123.0 92.56377216689826 123.62579233315726 91.17420766684275 126.39999999999999 88.4 C129.28429557054017 85.5157044294598 130.49994517210212 85.0 134.4146851746844 85.0 C138.25424704647756 85.0 139.6427894340969 85.56215664165244 142.6813518413511 88.34679129166591 C145.86399589815318 91.2634669202699 146.33333333333334 92.28146161692345 146.33333333333334 96.26795315186968 C146.33333333333334 101.86472333354718 144.01524111525015 105.67785846968015 139.45433753432349 107.58352566356443 C135.28811179502017 109.32428592583103 133.4054550750111 109.3155252865105 129.3147146335077 107.53634256420486 Z M137.3928167050356 97.69143092533281 C138.27358305377925 96.25271089804365 138.1222511663838 95.6021375536402 136.65280081613514 94.51011454819948 C133.4130614637141 92.10250009298723 129.6044651674413 95.61355710821204 132.14078605089705 98.66963681360485 C133.62945202108597 100.46336957402929 135.96181002834308 100.02896115440981 137.3928167050356 97.69143092533281 Z M58.57142857142857 94.42857142857143 C55.088723656354354 90.94586651349722 58.04510269068745 87.0 64.1371700255179 87.0 C66.33404211098133 87.0 69.00189925383847 87.4658326913196 70.06574145408933 88.03518375848799 C72.22785980564788 89.19231438417097 72.63712000221118 92.9628799977888 70.80000000000001 94.8 C69.02559310865188 96.57440689134813 60.45700312343949 96.31414598058234 58.57142857142857 94.42857142857143 Z M85.75 94.91990120052802 C83.57586070393413 93.653581311586 83.49141575990612 90.65144138295102 85.57142857142857 88.57142857142857 C88.99911543606936 85.14374170678778 99.0 87.32478568083648 99.0 91.5 C99.0 95.37464168945968 90.35963794480242 97.6047688264836 85.75 94.91990120052802 Z M58.57142857142857 81.42857142857143 C56.51115240319984 79.36829526034269 56.5861960034385 77.68446259426462 58.828740671584065 75.6549875621121 C60.880864552813605 73.79784097368616 67.11159075607311 73.45417028478374 70.06574145408933 75.03518375848799 C72.22785980564787 76.19231438417097 72.63712000221118 79.96287999778882 70.80000000000001 81.8 C69.02559310865188 83.57440689134813 60.45700312343949 83.31414598058234 58.57142857142857 81.42857142857143 Z M85.2 81.8 C81.75600905582705 78.35600905582704 85.27432406245659 74.0 91.5 74.0 C97.72567593754341 74.0 101.24399094417294 78.35600905582702 97.80000000000001 81.79999999999998 C96.24297514259632 83.35702485740369 86.7570248574037 83.3570248574037 85.2 81.8 Z M135.5 55.0124880524686 C127.11607602731635 49.4949339646017 126.92423651547604 36.756060135154435 135.13686070397975 30.898656495354786 C138.4426858563081 28.540877564365232 138.93351975284787 28.49465125440152 163.93852568470473 28.18614070894344 C185.63658524168696 27.91843110681221 190.00914980920223 28.113682014538636 193.67588789054668 29.514022064250568 C204.04387214612711 33.47359137784296 206.0145570628739 46.38997619500752 197.40414809446716 53.95001539993456 L193.93040754338764 57.0 L166.21520377169384 56.99341079429733 C140.30598135704207 56.98725095518907 138.30451364832973 56.85816983527549 135.5 55.0124880524686 Z M191.77749375659454 47.443296031350954 C194.43415942000843 45.582494967740345 194.70713812354884 41.438860174384885 192.3450124378879 38.82874067158407 C190.82653253628447 37.15083926699511 188.64673050047205 37.0 165.9175925869208 37.0 L141.14516029806578 37.0 L139.16930863662833 39.51188834664741 C136.873259667653 42.43084160668369 137.30985441663688 45.403195279563576 140.34713734795224 47.530591054994105 C143.53314129193956 49.76215508252058 188.57601102585292 49.68570182314327 191.77749375659454 47.443296031350954 Z M94.0 9.939634738273966 C94.0 8.170950341393581 93.47029905066147 7.923207126652972 90.2583166513239 8.189634738273966 C87.64336635304824 8.40653971341358 86.4167663091648 9.026977473627866 86.18499248811337 10.25 C85.9131363172637 11.68452879783447 86.58764679962347 12.0 89.92667583678947 12.0 C93.37311386541906 12.0 94.0 11.682909004293371 94.0 9.939634738273966 Z M132.81207110918228 10.25 C132.52907575009874 8.7697979632822 131.1302389618511 8.455455140870413 123.73874694597176 8.211067116562175 C115.51657338493526 7.93921391726435 115.0 8.042661634565903 115.0 9.961067116562175 C115.0 11.863166096282628 115.60891575933186 12.0 124.07332416321053 12.0 C132.17537659188295 12.0 133.11083285369256 11.812667826601682 132.81207110918228 10.25 Z" fill="currentColor"/></svg>
