<svg xmlns="http://www.w3.org/2000/svg" xmlns:xlink="http://www.w3.org/1999/xlink" width="256" height="256" xml:space="preserve" version="1.1" viewBox="0 0 256 256">
  <path d="M16.465282137040894 255.0484759493063 C13.019701196710287 253.6518460145794 11.839155742495768 251.32402772964633 11.261389664131823 244.78735808381646 C10.918058140141415 240.90300966779378 9.997513729534624 237.58851406006735 8.852829923773205 236.1151413081987 C7.233487391962639 234.03081448335593 7.0 231.7999486779653 6.999999999999999 218.41219432932456 C6.999999999999998 209.31571789071523 7.450949241638969 202.10438026689204 8.110271817763778 200.65732483888962 C9.814363856083615 196.91725021811763 13.144845724803627 196.0 25.02074578253746 196.0 L35.94738552282325 196.0 L30.30898734777576 187.75 C17.4538224577052 168.94056032395426 8.999999999999995 143.4077605127804 9.0 123.39117168870789 C9.000000000000002 118.05985905464017 8.71076998499915 117.04297730039787 7.043920152297719 116.51393971482833 C0.20528955853293507 114.34344268087307 -2.409128169057383 103.01653671967013 2.5642758980816485 97.10598180830223 C5.740261097593212 93.33153785281574 10.284457829951569 92.01277130353768 20.139216037689685 92.00557693440257 C26.135319540130887 92.00119953811749 28.278476302539154 92.40491125018355 30.103255115631754 93.88252748968013 C32.15511941118873 95.54402639716682 32.28805430393072 96.0723738583981 31.23547786909188 98.38252748968014 C30.066934272640783 100.94720131601962 29.844763164317346 101.0 20.22143879114943 101.0 C10.547194834230526 101.0 8.000000000000014 101.75626761762186 7.999999999999999 104.62857142857155 C7.999999999999996 105.30428571428546 8.707142857142738 106.56428571428528 9.571428571428317 107.42857142857113 C10.92361111111077 108.78075396825403 14.969696969694297 108.99999999999997 38.57142857142832 108.99999999999999 L66.0 109.0 L66.0 105.0 L66.0 101.0 L54.69999999999962 100.99999999999999 C42.725857383171885 100.99999999999997 40.99999999999998 100.41234981375511 40.99999999999999 96.33518375848762 C41.00000000000001 92.87570289004904 43.91570614500971 92.00000000000003 55.43425854591062 92.00000000000001 L66.0 92.0 L66.0 88.5 L66.0 85.0 L51.62244471544219 85.0 C35.1246611744201 85.0 33.71865253268719 84.43240919762376 35.82016272202135 78.62078606788164 C36.82153037411635 75.85155304782442 36.64998066705641 74.35158629601638 34.655409821404135 68.43662046981717 C32.9677012630676 63.43166490812095 31.78495608832212 61.41476192350564 30.408164683168536 61.19390954728593 C24.374338618394745 60.226017955928214 21.06505378248156 57.38706033624983 19.69110950886919 52.0 C18.924664146031393 48.99486544444014 24.683459783178744 9.866052050254458 26.572491914102024 5.243638949173118 C27.335489864836568 3.3766025627407945 29.01829724546095 1.5633423831985034 30.516730831574385 0.9936389491731177 C32.184244715016106 0.3596513006809443 69.10084618755991 0.0 132.509335959847 0.0 L231.88847259734496 0.0 L234.5521592942317 2.291206837787982 C237.67364899681434 4.976199242863695 238.19502029134597 7.499221450344159 243.4810638275884 45.5 C249.3206922881784 87.4804389467618 253.3385112723783 129.7835190865889 254.6468135084907 163.06268896880692 C255.29157593519665 179.4634545868327 255.26439111980855 179.78813464981403 253.1517584365348 180.91878134955306 C251.66199923790927 181.7160762767155 250.41914430398958 181.75950298244595 249.11199005568784 181.05993525891625 C247.48169884706306 180.18742988245455 247.13154481410524 178.37396445451674 246.54681257838115 167.7747515004283 C244.4593964534314 129.93697434291914 241.07935420459955 92.108908825678 236.96151691637795 60.5 C235.8867516400698 52.25 235.00573362994055 44.9375 235.00369911609067 44.25 C235.0007638615392 43.25812299495382 213.75275823225502 43.0 132.10698880418357 42.999999999999986 C39.2045105148963 42.99999999999997 29.15504122822225 43.153585744735246 28.60698880418358 44.581787468237664 C27.587200793671176 47.23931242449651 27.928056970062148 50.69540315738529 29.324220585109767 51.854116042824046 C30.24513520992535 52.61840729827724 48.6190877848844 53.03640044846394 89.6535204839835 53.22656075826626 L148.65859979774746 53.5 L153.55286435601687 56.52643554285659 C156.5864150647583 58.40227318438349 159.59772681561608 61.41423262045277 161.47356445714314 64.44883926046118 L164.5 69.34480743520919 L164.5 120.97518469613414 L164.5 172.60556195705908 L160.74081936240106 180.21082904626448 C154.13718914044944 193.57075410386122 142.29927587700865 202.10680407979416 127.75539793178656 203.99586611681778 C123.76492906930395 204.51417651975382 96.9875 204.9521427173982 68.25 204.9691243338053 L16.0 205.0 L16.0 208.84637529012565 C16.0 210.96188169969474 15.70761578014201 216.81188169969477 15.350257289204468 221.84637529012565 L14.700514578408937 231.0 L131.32911736184687 231.0 L247.9577201452848 231.0 L248.22886007264242 211.25 L248.5 191.5 L250.8050420559379 191.1732361336853 C255.7272860522144 190.47545646627134 256.0 191.67205941626634 256.0 213.96745715333012 C256.0 233.42003316770118 255.87742911736763 234.80095000003527 254.0 236.50000000000006 C252.4289110223839 237.92181598371403 251.99999999999997 239.57996683229894 251.99999999999997 244.2319106390359 C251.99999999999997 249.44387445365302 251.64955682349353 250.50428933035388 249.0769230769223 253.0769230769238 L246.15384615384465 256.0 L132.32692307692233 255.9366136995809 C69.72211538461505 255.90175123435043 17.584376961668404 255.50208924672685 16.465282137040894 255.0484759493063 Z M243.0 243.0 L243.0 239.0 L131.5 239.0 L20.0 239.0 L20.0 243.0 L20.0 247.0 L131.5 247.0 L243.0 247.0 L243.0 243.0 Z M210.22178899606655 224.585837721619 C197.6534832231277 220.49797562118306 190.6799438991197 207.44494922142962 194.3550080532691 194.88649841877483 C198.20368057086824 181.73479209734182 210.51189364265838 174.76425314421869 224.12103407746986 178.02903562777752 C230.77128193274086 179.62440550533984 238.8952547579893 187.22383997610615 240.7838837112306 193.61601955938917 C244.26599973608631 205.40145307321185 239.27329800329483 217.69888031784737 228.8240120447037 223.07414855362023 C223.83749986002908 225.63928464615282 215.53502416553752 226.31397618931518 210.22178899606655 224.585837721619 Z M224.68810855419673 215.34371250687667 C235.35464065565884 210.2821116119852 236.06010410390405 195.03861009535072 225.9459337623619 188.16489762139918 C223.10706147545312 186.23556568496426 221.523074246492 185.8912666448371 216.9545625551 186.2105128766953 C210.5632973872313 186.65713257682506 207.11443756498613 188.7782377014375 204.0676826503429 194.13615451337125 C199.9525387730627 201.37290285096688 202.2860771393125 209.58057145202523 209.92167984650007 214.7262033732917 C213.97035950149183 217.4546081987677 219.73197858131317 217.6955501676388 224.68810855419673 215.34371250687667 Z M219.01077741069298 199.51298598545253 C218.30295724192433 198.66011485745304 218.045638093176 196.95429936319644 218.40738472346573 195.51298598545253 C218.9024551949458 193.54046811320973 219.67164982052796 193.0 221.9838682697269 193.0 C225.46650994150875 193.0 227.15337670615665 195.46794292386448 225.91405798478615 198.75 C224.92245744987423 201.3760311380664 220.92375901225054 201.81798780420678 219.01077741069298 199.51298598545253 Z M99.1033219163763 191.75 C115.26771724503602 172.27121746446375 126.00000000000007 144.21126732343964 126.0 121.42764051533455 L126.0 117.0 L100.5 117.0 L75.0 117.0 L75.0 119.5 C75.0 120.94579183366805 75.57565724612009 122.0 76.36514130819876 122.0 C79.39423607348061 121.99999999999997 82.96397934742993 126.21450570135076 84.65999742786246 131.79306233681373 C85.61427441225739 134.93187805156617 87.2156325745945 138.70776828245934 88.2185711219449 140.18392951657628 C94.93875870652093 150.0749446984659 95.49288995223796 167.17619593910615 89.47632689596128 179.0 C79.36779710357314 198.8653740500927 55.66320738472251 195.16306949506262 48.82535292752957 172.6509221262729 C45.30915066656834 161.07459157218176 47.08017686622689 148.93747976619406 53.88155508739454 138.0 C54.39457427942143 137.175 55.30590461640246 134.64842955391762 55.90673361401906 132.3853990087058 C57.21339974261574 127.4638233638251 60.37976048624928 123.18631294869472 63.6313233693814 121.9500709439526 C65.04646482814587 121.4120351203023 66.0 120.23441738841849 66.0 119.0247508470637 C66.0 117.04661191322553 65.4335879472477 117.0 41.39591910659644 117.0 L16.791838213192868 116.99999999999999 L17.492726471523714 125.25 C19.621956236836514 150.31269060015944 27.70455847939184 170.72491338633174 43.40994457827489 190.7026864142174 L47.5 195.90537282843482 L71.53823760199346 195.9526864142174 L95.57647520398692 196.0 L99.1033219163763 191.75 Z M131.72540845082116 194.48890434934822 C138.9201361627441 192.3522998269065 145.88531733136472 187.24561058686095 150.22535613936589 180.92522502566942 C156.72305666299715 171.4626431485687 157.0 168.9734181148426 157.0 120.03329935245819 C157.0 94.48661844542028 156.59355675524222 75.0696114543396 156.01670239777624 73.0582378575383 C154.7167554879036 68.52558787765943 149.45565396574003 63.22128813835233 145.04435721438344 61.99580018157353 C143.09496074647254 61.454244709551105 134.67816399340956 61.00864424832425 126.34036442979902 61.005576934402754 L111.18072885959803 61.00000000000003 L108.59146104962284 68.70109661982357 C106.86717754938373 73.82952473535175 106.33589211292217 76.73589211292187 107.00109661982381 77.40109661982396 C108.36988232660842 78.76988232660946 108.25761008919656 82.34238991080247 106.80000000000041 83.79999999999959 C105.97124183006578 84.62875816993476 100.8666666666706 84.99999999999999 90.30000000000041 85.0 L75.0 85.0 L75.0 88.5 L75.0 92.0 L102.75 92.00557693440274 C118.03175379099372 92.00864811777035 132.105935749699 92.45727088956788 134.07425706126628 93.00405592725329 C144.1079601243542 95.79134409775345 146.57226880248228 108.08554195659543 138.4407774444431 114.78820416399955 C134.98458219027563 117.63709230659285 134.9419579926242 117.77005641771717 133.98346863664037 128.69256216464328 C131.96068653526436 151.74326063002266 123.4637539488601 174.44861512003655 110.50926442045404 191.41991967626035 L107.01321010143678 196.0 L116.82510382329059 196.0 C122.66723105576493 196.0 128.6957034046013 195.38863005998078 131.72540845082116 194.48890434934822 Z M72.06005072573683 161.0 C72.0814808116022 154.125 71.6851162221288 147.15 71.17924052690704 145.5 L70.25946653559474 142.5 L69.43111878396282 145.5 C68.30650377222129 149.5729814604769 68.28822946978238 169.32788238441984 69.40336723637074 175.5 L70.3067344727415 180.5 L71.16391070299791 177.0 C71.63535762963893 175.075 72.03862063987145 167.875 72.06005072573683 161.0 Z M60.5 160.3924118558262 L60.5 143.78619783579137 L58.16176470588235 148.94178831045195 C55.07975336877336 155.7373355046838 54.94799266987097 165.8333359128631 57.85553427414923 172.40631596952932 C58.97313694846072 174.93284218628818 60.025342830813656 176.99969082206874 60.19376956826687 176.9993129379305 C60.3621963057201 176.99893505379228 60.5 169.52582956684535 60.5 160.3924118558262 Z M83.84360763001021 170.10077673477343 C86.05875642747576 163.5893317238123 84.94117415806845 151.03513107712095 81.75926983913754 146.68666615124178 C80.72753228007905 145.276669451597 80.5 147.83562716867385 80.5 160.8491325565518 C80.5 177.07354822442466 81.00044689877932 178.45826711190563 83.84360763001021 170.10077673477343 Z M198.25 163.88422412520868 C196.6643169406284 162.2551261733849 196.63818591908398 158.76181408091603 198.2 157.2 C198.86 156.54 200.7725 155.9983178728031 202.45 155.99626193956243 C208.87787882701755 155.98838397249995 214.40153168282976 150.57467340851082 216.52844519073653 142.19803286123897 C217.86833739289864 136.9209986481035 220.07929272910337 134.93374380190787 222.75 136.60596379357344 C224.93954352242966 137.9769109171043 225.52036771521463 143.31425866252215 224.02389983551473 148.3121676663347 C222.60799292976398 153.04101882900136 216.87775139567785 159.5115569207335 211.82141244488997 162.0911085722717 C206.78556482287033 164.6602063279219 199.89185677298914 165.57103378761664 198.25 163.88422412520868 Z M175.88147514089815 150.53770892790052 C173.2366337307418 149.0591875520347 170.0 143.5720718286092 170.0 140.56675224657036 C170.0 137.03099873137222 172.96423138336988 132.06985696298196 176.02139042528614 130.48893858119072 C178.60516662677907 129.15281597998825 181.63129548193035 128.9063531797966 192.1846798402135 129.17252088710302 L205.16902336815818 129.5 L208.08451168407908 132.76577654245915 C212.1907997098736 137.36542423714894 212.1908079368735 143.63455726010213 208.08453198336306 148.23422345754085 L205.16906396672613 151.5 L191.83453198336306 151.75075940209723 C181.61872426407962 151.9428703692331 177.8875707805594 151.65915812855224 175.88147514089815 150.53770892790052 Z M201.42857142857142 142.42857142857144 C203.3594259545723 140.49771690257057 203.3594259545723 140.50228309742943 201.42857142857144 138.57142857142856 C200.24666363532654 137.38952077818368 197.75159926174945 137.0 191.3628299744821 137.0 C182.6155797295827 137.0 179.0 138.0193523809809 179.0 140.48549364491677 C179.0 142.9924808756176 182.30680478293652 143.93850569505096 191.17857142857142 143.96959131409926 C197.76521523460875 143.99267013349785 200.23592810566754 143.62121475147532 201.42857142857142 142.42857142857144 Z M75.98468722548293 133.25 C75.93625855751596 130.87802613368493 73.98384545767685 129.8930505562335 69.9095175092696 130.18512925116323 C66.67513800577302 130.41699407801354 65.42974506278647 130.96133330584996 65.1853026680908 132.25 C64.90133408950443 133.74704330079481 65.65895720725112 134.0 70.42667583678947 134.0 C73.49200412655526 134.0 75.99310925146732 133.6625 75.98468722548293 133.25 Z M133.4285714285714 107.42857142857146 C134.29285714285712 106.56428571428576 135.0 105.30428571428581 135.0 104.62857142857156 C135.0 101.25021193061485 132.84857143124876 101.0 103.80000000000011 101.0 L75.0 101.0 L75.0 105.0 L75.0 109.0 L103.42857142857139 109.0 C127.9393939393936 109.0 132.073701842546 108.78344101459679 133.4285714285714 107.42857142857146 Z M184.01077741069298 103.51298598545254 C183.30295724192433 102.66011485745302 183.045638093176 100.95429936319643 183.40738472346573 99.51298598545254 L184.03810405642983 97.0 L201.98386826972694 97.0 C218.90617664403203 97.0 219.99067607370625 97.11406099253591 221.0 99.0 C221.76049002263463 100.42098860545244 221.76049002263463 101.57901139454756 221.0 103.0 C219.99279996178953 104.8819704862794 218.90617664403203 105.0 202.5872609569542 105.0 C188.45908142382854 105.0 185.01616217938172 104.72440052205263 184.01077741069298 103.51298598545254 Z M184.2 89.8 C183.54 89.14 183.0 87.88 183.0 87.0 C183.0 83.40901021853196 185.01077769708291 83.0 202.66481624151203 83.0 C218.90617664403203 83.0 219.99308371643377 83.11855971412324 221.0 85.0 C221.76049002263463 86.42098860545244 221.76049002263463 87.57901139454756 221.0 89.0 C219.99308371643377 90.88144028587676 218.90617664403203 91.0 202.66481624151203 91.0 C190.5699591647804 91.0 185.0406593090276 90.6406593090276 184.2 89.8 Z M99.06479391356592 70.25 C100.29011409678172 66.5375 101.49994777579155 62.9375 101.75331320025444 62.25 C102.11548999674369 61.26724338230361 95.68951244613379 61.0 71.69654670888893 61.0 L41.17911580940908 61.0 L43.80178023949097 69.0 L46.42444466957284 77.0 L71.63069185228228 77.0 L96.83693903499173 77.0 L99.06479391356592 70.25 Z M183.66666666666669 76.33333333333334 C182.58011954543798 75.24678621210465 182.90649152234676 71.49350847765324 184.2 70.2 C185.0406593090276 69.3593406909724 190.5699591647804 69.0 202.66481624151203 69.0 C218.90617664403203 69.0 219.99308371643377 69.11855971412325 221.0 71.0 C221.76049002263468 72.42098860545245 221.76049002263466 73.57901139454755 221.0 75.0 C219.99118235822365 76.88499300618999 218.906176644032 77.0 202.13148290817867 77.0 C192.34250064201373 77.0 184.03333333333333 76.7 183.66666666666669 76.33333333333334 Z M233.0 32.581787468234076 C232.99999999999994 26.898437057052373 233.37131364306634 27.0 212.5930111958134 27.000000000000007 C192.26176938222167 27.000000000000014 191.00000000000006 26.723913172489432 191.0 22.275249152934727 C190.99999999999994 18.660285760928392 194.4811788328089 17.999999999999986 213.54009966117454 17.99999999999999 L230.95 17.999999999999993 L230.38846574517524 14.749999999999996 C230.07962190502164 12.962499999999999 229.6549950633738 10.9375 229.4448505415134 10.25 C229.14259984183025 9.261169293434046 208.70937573348778 9.0 131.64801616029916 9.0 L34.23326272792196 9.0 L33.63028604725343 11.25 C33.298648872885735 12.4875 33.02116475910329 14.5125 33.013654683292444 15.75 L33.0 18.0 L104.75 18.013654683292607 C144.2125 18.021164759103538 177.5174223327202 18.299936091808053 178.760938517156 18.633146533747087 C181.4394842596351 19.35088500935069 182.7486649430827 23.392987642476236 180.98922258930705 25.512985985452495 C179.91726616176186 26.804614463794977 169.9823052164279 26.999999999999993 105.37755528455783 26.999999999999996 C63.54276178862003 27.0 31.0 27.38284286779932 31.0 27.875 C31.0 28.35625 30.71875 30.15625 30.375 31.875 L29.75 35.0 L131.375 35.0 L233.0 35.0 L233.0 32.581787468234076 Z" fill="currentColor"/></svg>
