<svg xmlns="http://www.w3.org/2000/svg" xmlns:xlink="http://www.w3.org/1999/xlink" width="256" height="256" xml:space="preserve" version="1.1" viewBox="0 0 256 256">
  <path d="M10.0 222.0 C8.481342977522146 220.48134297752216 8.0 218.66666666666666 8.0 214.4599447977945 C8.0 209.29739849304758 7.727433114884249 208.66060294682043 4.0 205.11478100863172 L0.0 201.3096724216745 L-8.881784197001252e-16 120.05483621083698 L-1.7763568394002505e-15 38.79999999999947 L3.400000000000275 35.399999999999764 L6.800000000000551 32.00000000000006 L128.00000000000028 32.000000000000014 L249.20000000000002 31.99999999999997 L252.60000000000002 35.400000000000034 L256.00000000000006 38.8000000000001 L256.0 120.05483621083742 L256.0 201.30967242167475 L252.0 205.11478100863172 C248.27256688511576 208.66060294682023 248.00000000000003 209.29739849304733 247.99999999999994 214.45994479779438 C247.99999999999986 222.61732725238392 246.25127092718546 224.0 235.93425854591064 224.0 C231.4981007461615 223.99999999999997 226.99493034283458 223.53247056031196 225.9272132051842 222.9610456895822 C224.8594960675338 222.38962081885242 222.4084224409346 218.78962081885243 220.4803829238527 214.9610456895822 L216.97485652915827 208.0 L127.99999999999997 208.0 L39.02514347084168 208.0 L35.519617076147185 214.96104568958225 C33.59157755906522 218.78962081885248 31.140503932466043 222.38962081885248 30.07278679481568 222.96104568958225 C29.00506965716532 223.53247056031202 24.501899253838463 224.0 20.06574145408933 224.0 C13.333333333333334 224.0 11.669383567295643 223.66938356729565 10.0 222.0 Z M27.0 212.0 L29.04064773081425 208.0 L22.520323865407125 208.0 L16.0 208.0 L16.0 212.0 L16.0 216.0 L20.479676134592875 216.0 C24.69919033648219 216.0 25.07786504592782 215.76769576649122 27.0 212.0 Z M240.0 212.0 L240.0 208.0 L233.47967613459286 208.0 L226.95935226918576 208.0 L229.0 212.0 C230.92213495407216 215.76769576649122 231.3008096635178 216.0 235.52032386540714 216.0 L240.0 216.0 L240.0 212.0 Z M192.0 188.0 L192.0 176.0 L187.7225062434054 176.0 C185.3698846772784 175.99999999999997 182.44231460845793 175.2976830678341 181.21679497935992 174.43929570629803 C176.01145251888806 170.79333192534673 176.0 170.6738204120909 176.0 120.00000000000003 C176.0 69.32617958790902 176.01145251888806 69.20666807465312 181.21679497935992 65.56070429370192 C182.4423146084579 64.70231693216586 185.36988467727838 64.0 187.7225062434054 64.0 C191.71848421435294 64.0 192.0010077835279 63.81901354985361 192.01531277451707 61.25 C192.03774457859106 57.22150332654095 193.32721238584227 55.795350952943274 196.60850658727173 56.16992415660363 L199.5 56.5 L199.75661885093228 128.25 L200.01323770186457 200.0 L222.8066188509339 200.0 C239.20147085578424 200.0 245.93686248314413 199.6631375168582 246.8000000000016 198.79999999999842 C248.5374843405068 197.0625156594885 248.5374843405072 42.93748434051302 246.800000000002 41.20000000000199 C245.93684210526536 40.336842105262484 239.20000000002682 40.0 222.800000000002 40.0 L200.0 40.0 L200.0 43.480947971785355 C200.00000000000003 46.3647665873286 199.56891693989635 47.07009090434424 197.48701401454724 47.59261527653433 C194.21263969792105 48.4144309161005 191.99999999999997 46.51308186019007 192.0 42.8775552845578 L192.0 40.0 L101.19999999999959 40.0 C31.911111111092538 40.0 10.115712187958415 40.28428781204098 9.199999999999601 41.200000000000415 C7.46251565949143 42.93748434050976 7.462515659491802 197.0625156594918 9.2 198.8 C10.115712187958886 199.71571218795887 31.911111111110984 200.0 101.2 200.0 L192.0 200.0 L192.0 188.0 Z M35.358610661444686 172.55861066144467 C31.92513030306086 169.12513030306087 31.917890992105526 169.09812652410048 32.20861066144469 160.80861066144467 C32.48263405446495 152.9951687008658 32.637373711055766 152.48052583689793 34.80504205593858 152.17323613368586 C38.659820804206646 151.62678085130852 40.0 153.66841651753387 40.0 160.0872609569542 C40.0 164.83998659578054 40.36075365286379 166.12270197885195 41.934258545910666 166.964816241512 C43.2021168084999 167.64335339171458 63.33221608420682 168.0 100.36282997448185 168.0 C150.3879628981085 168.0 157.03708759321617 167.82005526392626 158.4285714285712 166.42857142857167 C159.81043372763125 165.04670912951207 160.0 159.44588744589106 160.0 120.00000000000028 C160.00000000000003 80.55411255411246 159.81043372763122 74.95329087048836 158.42857142857144 73.5714285714286 C157.0370875932165 72.17994473607367 150.3879628981133 72.00000000000001 100.36282997448205 72.00000000000003 C63.33221608420682 72.00000000000003 43.202116808499845 72.35664660828546 41.93425854591062 73.03518375848802 C40.080409370015765 74.0273337281133 39.999999999999986 75.47723413261245 39.99999999999999 107.91273904304583 C40.0 144.38110762879046 39.97418911627028 144.55954463039106 34.805042055938586 143.8267638663141 L32.5 143.5 L32.23743364368144 107.16256635631862 L31.974867287362887 70.82513271263726 L35.38743364368138 67.41256635631862 L38.799999999999876 64.0 L99.99999999999993 64.0 L161.2 64.00000000000001 L164.6 67.4 L168.0 70.80000000000001 L168.0 120.00000000000009 L168.0 169.20000000000016 L164.5999999999999 172.60000000000008 L161.19999999999982 176.0 L99.99999999999991 176.0 L38.8 176.0 L35.358610661444686 172.55861066144467 Z M217.96636145297123 175.17971473738962 C208.97838666361002 171.19620836592358 205.12860900816273 159.55662325292323 210.2737966267083 151.9216798465 C213.74361300719568 146.77281965718197 218.51790288091036 144.0 223.91348494036941 144.0 C233.5823574631121 144.0 240.00263520339203 150.34646776229755 239.99626193956243 159.89788321979177 C239.98961226902583 169.86354095017668 234.00601384110615 176.0524964019404 224.5 175.92597667695208 C221.75 175.889375715757 218.80986265383706 175.5535578429539 217.96636145297123 175.17971473738962 Z M192.0 120.0 L192.0 72.0 L189.57142857142878 71.99999999999997 C183.90323377870652 71.99999999999994 184.0 71.16632178577933 184.0 119.9999999999998 C184.0 168.83367821422007 183.9032337787066 168.0 189.57142857142856 168.0 L192.0 168.0 L192.0 120.0 Z M229.0769230769231 165.0769230769231 C232.79971376411507 161.3541323897311 232.7724836811795 158.61863752733336 228.97483185047392 154.82098569662776 C226.53617877800113 152.38233262415497 225.42137737643782 151.92477425646058 223.22483185047392 152.46095940804116 C216.59506918301597 154.07930979448903 214.4670120609072 161.42446473037958 219.39884552005884 165.66664927770512 C222.9996231177521 168.76390777392325 225.54504148751656 168.6088046663296 229.0769230769231 165.0769230769231 Z M68.71257632355133 151.37924299021802 C66.9933164642215 149.65998313088812 68.05370733619522 142.22253858148977 70.4921015196687 138.89788321979177 C74.19163521726867 133.85371332024437 76.06583472451291 129.3418379216489 75.30732650944023 127.30589683516347 C74.93728477455122 126.31265357582356 73.27421777630124 123.79106731076077 71.61162206888474 121.7023718016906 C69.14870849952862 118.60824826426385 68.51555868771374 116.7557547889916 68.19378035041517 111.70232226392122 C67.8262242872432 105.92996424873101 68.04820902248368 105.12933998219223 71.39526901775886 100.15562958999631 C73.37330502253967 97.2162803560406 75.35699085695069 93.39130264803683 75.80345976089447 91.6556791277657 C76.47150790040018 89.05867841090175 77.17432443615537 88.4449763682343 79.7732989908576 88.18920057960241 C82.44865560099319 87.92590771835033 83.02987025247828 88.27083121878346 83.57574606463804 90.44577369170278 C84.6184181911568 94.60011034260212 83.22111478951693 99.19940170342016 79.49105505150858 103.89073064682745 C77.57097477317886 106.30563250258254 76.0 109.17388997523364 76.0 110.26463614160767 C76.0 111.3553823079817 77.84387062926035 115.00455351690934 80.09749028724522 118.37390549478022 C83.93330904284419 124.10877893056134 84.16865228731453 124.86806130562998 83.78270836320168 130.26343790798143 C83.49759496316769 134.24923499261314 82.69240010239847 136.87092490056685 81.17211879813739 138.76343790798143 C79.96304425356085 140.26854705859165 78.25009503894243 143.075 77.36556498787425 145.0 C76.48103493680605 146.925 75.42904175753317 149.175 75.02780236726784 150.0 C74.24616917498763 151.60713877868457 69.89152480324944 152.55819146991612 68.71257632355133 151.37924299021802 Z M92.66666666666666 151.33333333333331 C92.3 150.96666666666667 92.00107252247423 148.82916666666665 92.00238338327605 146.58333333333331 C92.0042057365306 143.4611851400004 92.95858283218969 141.09585199066248 96.05679459407884 136.5348595365726 C100.70985107417943 129.6849225002313 100.67340709815736 127.96505460388822 95.74525451316535 121.83262772567836 C93.13259251372219 118.58151924379911 92.52107769775495 116.83607303737067 92.19613248107802 111.7023718016906 C91.82699379367016 105.87047264323265 92.02878613303074 105.17285506911054 95.57449560264672 100.02301126283002 C97.64851888538671 97.01066745738653 99.62366934873769 93.18566745738654 99.9637188545378 91.52301126283002 C100.50820040890483 88.86079410400784 100.99482026872515 88.5 104.04099534163265 88.5 L107.5 88.5 L107.46017333046993 93.69673019117138 C107.42719369703686 98.00003395163145 106.87689316090187 99.56971559019476 104.259279208641 102.82698611515923 C99.21662182853134 109.10189889881818 99.1715853056815 111.00725019316661 103.89860364635175 118.08601603047984 C107.40560942840806 123.33779864102924 108.0 124.99221058837706 108.0 129.50174072831823 C108.0 133.92739985310254 107.4172363190038 135.62276527435765 104.37646031011978 140.04327599054815 C102.38351348068566 142.9405110353434 100.33736169989805 146.81600645579542 99.82945635281399 148.65548803599705 C99.06420498153174 151.4270001096133 98.42862305689371 152.0 96.11966270936088 152.0 C94.58718155254573 152.0 93.03333333333333 151.7 92.66666666666666 151.33333333333331 Z M116.36784805643993 150.516213378151 C115.13447524603507 147.3020953553601 116.85012164432793 141.1696706396466 120.44460453017328 135.94421172073257 C124.69305140787634 129.76805639222974 124.62048121100378 128.60900331878264 119.50983852491925 121.01461998700464 C116.59689622947177 116.68600580405422 116.0 114.89984395496695 116.0 110.51172290016028 C116.0 106.0575623619732 116.57872396247387 104.38310744331912 119.67272351290515 99.88522330827892 C121.692721445003 96.94866287783854 123.62366934873769 93.18566745738654 123.9637188545378 91.52301126283002 C124.50820040890483 88.86079410400784 124.99482026872515 88.5 128.04099534163265 88.5 L131.5 88.5 L131.45772288088898 93.5 C131.4230741700789 97.59780887849344 130.74643082894897 99.46754801980791 127.70772288088897 103.8622120454489 C125.66847529640003 106.81142867044579 124.0 109.9046861430969 124.0 110.73611754022912 C124.0 111.56754893736135 125.8 114.94333226510454 128.0 118.23785826854731 C131.4038225900085 123.33512282940592 132.0 125.01394089723468 132.0 129.50174072831823 C132.0 133.94039365732735 131.41837516939643 135.62110967711865 128.32727648709485 140.11477669172106 C126.30727855499701 143.0513371221614 124.37888984521761 146.8143325426134 124.04196824314062 148.47698873716996 C123.53195640946761 150.99381855551974 122.8899553650412 151.5525554779654 120.20781665735416 151.81387124823584 C117.96116057517752 152.03275875877517 116.79910902568967 151.6400614491466 116.36784805643993 150.516213378151 Z M209.24479361040977 134.84479361040974 C205.76736278392877 131.36736278392883 208.99605836892235 127.74423153647389 215.1760950129746 128.18889097604955 C219.3917751840607 128.4922131228704 219.5 128.58760295541282 219.5 132.0 C219.5 135.43845804427843 219.42078308224436 135.50518347866253 214.99479361040977 135.79479361040976 C212.35575531986677 135.96747640413844 209.97396286873388 135.57396286873387 209.24479361040977 134.84479361040974 Z M229.24479361040977 134.84479361040974 C225.76736278392877 131.36736278392883 228.99605836892235 127.74423153647389 235.1760950129746 128.18889097604955 C239.3917751840607 128.4922131228704 239.5 128.58760295541282 239.5 132.0 C239.5 135.43845804427843 239.42078308224436 135.50518347866253 234.99479361040977 135.79479361040976 C232.35575531986677 135.96747640413844 229.97396286873388 135.57396286873387 229.24479361040977 134.84479361040974 Z M209.24479361040977 118.84479361040975 C205.7673627839288 115.36736278392881 208.99605836892235 111.74423153647389 215.1760950129746 112.18889097604955 C219.3917751840607 112.49221312287038 219.5 112.5876029554128 219.5 116.0 C219.5 119.43845804427842 219.42078308224436 119.50518347866253 214.99479361040977 119.79479361040976 C212.35575531986677 119.96747640413844 209.97396286873388 119.57396286873387 209.24479361040977 118.84479361040975 Z M229.24479361040977 118.84479361040975 C225.7673627839288 115.36736278392881 228.99605836892235 111.74423153647389 235.1760950129746 112.18889097604955 C239.3917751840607 112.49221312287038 239.5 112.5876029554128 239.5 116.0 C239.5 119.43845804427842 239.42078308224436 119.50518347866253 234.99479361040977 119.79479361040976 C232.35575531986677 119.96747640413844 229.97396286873388 119.57396286873387 229.24479361040977 118.84479361040975 Z M209.24479361040977 102.84479361040975 C205.7673627839288 99.36736278392881 208.99605836892235 95.74423153647389 215.1760950129746 96.18889097604955 C219.3917751840607 96.49221312287038 219.5 96.5876029554128 219.5 100.0 C219.5 103.43845804427842 219.42078308224436 103.50518347866253 214.99479361040977 103.79479361040976 C212.35575531986677 103.96747640413844 209.97396286873388 103.57396286873387 209.24479361040977 102.84479361040975 Z M229.24479361040977 102.84479361040975 C225.7673627839288 99.36736278392881 228.99605836892235 95.74423153647389 235.1760950129746 96.18889097604955 C239.3917751840607 96.49221312287038 239.5 96.5876029554128 239.5 100.0 C239.5 103.43845804427842 239.42078308224436 103.50518347866253 234.99479361040977 103.79479361040976 C232.35575531986677 103.96747640413844 229.97396286873388 103.57396286873387 229.24479361040977 102.84479361040975 Z M210.45454545454544 81.54545454545455 C208.215769744633 79.3066788355421 208.0 78.30761253866547 208.0 70.18031323725583 C208.0 62.67989932690475 208.32800445112932 60.85272729546973 210.0725801490329 58.634858691801284 C212.10465335653052 56.051496231415875 212.37827229558994 56.00000000000001 224.0725801490329 56.0 C239.7930534551533 56.0 240.0 56.17963850825053 240.0 69.82568597329052 C240.0 78.80339101029102 239.80025715059205 79.83902061041678 237.6855487786324 81.82568597329052 C235.59287187656864 83.79165384486205 234.29492533367107 84.0 224.14009423317788 84.0 C213.54915243229541 84.0 212.76920491163585 83.86011400254493 210.45454545454544 81.54545454545455 Z M232.0 70.0 L232.0 64.0 L224.0 64.0 L216.0 64.0 L216.0 70.0 L216.0 76.0 L224.0 76.0 L232.0 76.0 L232.0 70.0 Z" fill="currentColor"/></svg>
