<svg xmlns="http://www.w3.org/2000/svg" xmlns:xlink="http://www.w3.org/1999/xlink" width="256" height="256" xml:space="preserve" version="1.1" viewBox="0 0 256 256">
  <path d="M18.241383908095244 254.6790086060429 C14.178790390017703 252.41515590506717 12.598187819305254 248.93753265099417 12.035265761275868 241.02438018469644 C11.535360392119369 233.99707090016722 11.33969124809659 233.47736065873687 9.073336125993944 233.15729836379984 C5.539352277079304 232.65821727543772 2.3616882923748395 230.2885104062819 1.0865615037648784 227.2012517912873 C0.28601378697237845 225.26301485872617 0.07923644781235006 201.62016193523112 0.3545211621965123 143.5 C0.5655311390696206 98.95 0.7546474435586809 61.825 0.7747796166166463 61.0 C0.7949117896746117 60.175 0.6088198369792694 51.520291224134006 0.36124194396033005 41.7673138314089 C-0.13114133295787833 22.37057808177624 0.13088446912693197 21.110489140767733 5.313821893411415 17.950227215855463 C8.05990022189156 16.27582405913192 10.399257275190493 16.00695979080418 22.25 16.003738060437783 L36.0 16.0 L35.99999999999999 11.434258545910708 C35.999999999999986 6.622289984257577 37.27887407955605 3.3044841140359607 39.913342815644285 1.2818033718709785 C41.077369345275635 0.38809223664207826 49.51112362487907 0.05513542428568006 71.5756859732905 0.03180337187097848 L101.65137194658101 0.0 L103.88534232045032 2.377952492964141 C105.42334264189606 4.015078813590768 106.3000824054796 6.507394953730527 106.69955918311328 10.377952492964127 L107.27980567190696 15.999999999999972 L128.00000000000006 15.999999999999986 L148.72019432809313 16.0 L149.3004408168867 10.37795249296424 C149.69991759452031 6.507394953730612 150.5766573581038 4.015078813590972 152.1146576795496 2.3779524929642406 L154.34862805341893 0.0 L184.42431402670945 0.0318033718700832 C206.48887637513522 0.05513542428414307 214.92263065472346 0.3880922366399471 216.08665718435515 1.2818033718700832 C218.72112592044323 3.3044841140371126 219.99999999999991 6.622289984260225 219.99999999999994 11.43425854591068 L220.0 16.0 L233.54965992688417 15.999999999999986 C243.61492751291627 15.999999999999975 247.84241044290303 16.38426707789551 249.98895563318257 17.49428873595467 C255.6131387251615 20.40266684476764 256.0 21.86964986541491 255.99999999999994 40.28824769749485 C255.9999999999999 50.55677421927315 255.57349082486778 57.92842259173178 254.9073592920721 59.17310074616162 C254.11717168150176 60.64957980225779 254.11717168150176 61.51717168150182 254.90735929207216 62.30735929207219 C255.67972018426525 63.079720184265256 255.99999999999997 87.35504014108895 256.0 145.1230769230777 L256.0 226.84615384615543 L252.98837777467958 229.85777607147435 C251.33198555075333 231.51416829539974 248.74448555075332 233.01128368001477 247.23837777467958 233.18469914839662 C244.58216985667949 233.49053884163584 244.48362083655667 233.7250507328808 243.95415096297435 241.0 C243.34879571306945 249.3176190967126 241.4932112294374 253.14078004174544 237.20125179128638 254.91336293587023 C235.32944520292088 255.68642064702976 222.21761735656804 255.94776769493492 194.5 255.76449111023928 L154.5 255.5 L154.17323613368592 253.19495794406134 C153.43363747574705 247.97771642254492 153.26099000360296 248.0 194.4224447154438 248.0 C222.78276549235278 248.0 232.90857610764962 247.6914238923528 233.8000000000016 246.79999999999842 C234.46000000000072 246.13999999999757 235.0 242.98999999999756 235.0 239.79999999999842 L235.0 234.0 L128.0 234.0 L21.0 234.0 L21.0 239.87755528455784 C21.0 243.57651855644974 21.497765991184465 246.1682196501018 22.342907306622934 246.8696246442305 C23.289302950045837 247.65506326685193 41.34205813597687 248.0602962520969 83.48405167601682 248.24206935967266 C139.18397929347694 248.48232256281437 143.35793430074975 248.61993734065715 144.3860295146643 250.25 C145.19101809572652 251.52632325238704 145.19101596024737 252.47367674761296 144.38602162513087 253.75 C143.35687145762512 255.38172364286956 139.1330615409002 255.51478816436958 81.89113647986048 255.71880355698 C34.08390858734687 255.88919283647581 20.000239997407284 255.65911923997632 18.241383908095244 254.6790086060429 Z M246.8000000000016 223.79999999999842 C248.53748434050678 222.0625156594885 248.5374843405072 67.93748434051301 246.800000000002 66.20000000000199 C245.0576226043844 64.45762260437857 10.942377395621813 64.45762260437702 9.199999999999601 66.20000000000041 C7.462515659491448 67.93748434050974 7.46251565949182 222.0625156594918 9.2 223.8 C10.942377395622627 225.54237739562262 245.05762260438362 225.54237739562106 246.8000000000016 223.79999999999842 Z M49.189824397224214 207.97436540468397 C43.083501203600406 204.25144270216836 43.0 203.55748286649896 43.0 156.53211863089643 L43.0 114.0 L39.434258545910716 114.00000000000003 C31.610684583732628 114.00000000000009 28.607542680067322 109.44288092064428 29.164376764544073 98.41596311134208 C29.468592455590056 92.3916166947316 29.950390231837982 90.68170962104699 31.94055148452902 88.56328004490157 L34.34862805341896 86.0 L64.15526199849442 86.0 L93.96189594356989 86.00000000000001 L94.59261527653422 88.51298598545243 C95.9334295983276 93.85521575970789 95.16122352291563 94.00000000000003 65.32765142856994 94.00000000000001 L37.90019228802424 94.0 L38.20009614401212 99.75 L38.5 105.5 L128.0 105.5 L217.5 105.5 L217.79990385598813 99.74999999999999 L218.09980771197624 93.99999999999997 L162.1723485714303 93.99999999999997 C101.29680254017806 93.99999999999999 102.98986812841079 94.16082195835232 104.40738472346575 88.51298598545242 L105.0381040564301 86.0 L163.34473800150553 85.99999999999999 L221.65137194658098 85.99999999999997 L224.059448515471 88.56328004490157 C226.04960976816216 90.68170962104709 226.53140754441 92.39161669473147 226.8356232354559 98.41596311134222 C227.39245731993248 109.4428809206443 224.3893154162672 114.00000000000004 216.5657414540893 114.00000000000001 L213.0 114.0 L213.0 156.53211863089712 C212.99999999999997 203.55748286650055 212.91649879639957 204.25144270216987 206.8101756027752 207.97436540468453 C203.56724226991628 209.95152739641267 201.96630753533947 209.99252387912446 128.0 209.9925238791247 C54.03369246464712 209.9925238791249 52.43275773008429 209.95152739641344 49.189824397224214 207.97436540468397 Z M201.7774937565945 200.44329603135097 L203.99999999999994 198.8865920627019 L203.99999999999997 156.44329603135094 L204.0 114.0 L128.0 114.0 L52.0 114.0 L52.0 156.44329603135094 L52.0 198.88659206270188 L54.22250624340543 200.44329603135094 C56.183778143751354 201.8170243436684 64.85561660146868 202.0 127.99999999999997 202.0 C191.14438339853126 202.00000000000003 199.81622185624857 201.81702434366844 201.7774937565945 200.44329603135097 Z M76.97647737957575 161.97647737957578 C75.8894148208091 160.8894148208091 75.0 159.5391666926874 75.0 158.9759259837498 C75.0 157.964751949216 94.8723935648567 135.61033274775676 99.64749847149666 131.25 C102.66553547262825 128.49411383053038 103.45989380923973 128.4598938092397 105.97731879764635 130.97731879764632 C107.22836133886034 132.22836133886034 107.71078197620442 133.60574973210433 107.29073003220712 134.72731879764632 C106.33738659214869 137.2728147213929 83.0282745038775 162.35945854893316 80.81089931533981 163.22647737957578 C79.56653977971501 163.7130360616849 78.30022434825149 163.3002243482515 76.97647737957575 161.97647737957578 Z M73.2 146.8 C70.86939213140688 144.46939213140686 72.07171339033277 141.7790071113896 78.72850371578721 134.42909374708114 C85.59613656239428 126.84638436724268 88.47121224006531 125.45299715316287 90.989222589307 128.48701401454747 C92.99529214633341 130.90417995787303 91.38899965013412 134.09324813430746 84.56067121212996 141.25 C78.2302393821646 147.88490782862613 75.57974644546543 149.1797464454654 73.2 146.8 Z M247.393011195815 54.41821253176589 C248.37435314822068 51.860876396955184 248.05741592061224 27.639274871656518 247.0211617339205 26.0 C246.18704418575703 24.68048983128611 231.86563791853547 24.5 127.99999999999999 24.5 C24.134362081464502 24.5 9.812955814242933 24.68048983128611 8.978838266079482 26.0 C7.94258407938808 27.639274871655985 7.625646851779134 51.860876396949465 8.60698880418433 54.41821253176421 C9.155769339295567 55.8483116823032 20.605174127694994 56.0 127.99999999999936 56.0 C235.39482587225004 56.0 246.8442306607035 55.84831168230264 247.393011195815 54.41821253176589 Z M47.269694649313244 52.51741308155582 C43.098390713827364 50.70403161008863 40.00747612087511 45.58923131623065 40.00747612087511 40.5 C40.00747612087511 30.60281490706858 50.364756908799706 24.034542250848215 58.96136389641441 28.480020494347286 C63.867827276401755 31.017251315726337 66.0 34.65839315954278 66.0 40.5 C66.0 46.60079748148152 63.580395654635915 50.441721825685704 58.36421840619362 52.621179839534456 C54.24759000986982 54.341217008724705 51.40379018892096 54.31461903172032 47.269694649313244 52.51741308155582 Z M83.24085995762769 52.00540198193474 C79.27906695683079 49.58986735572463 76.00879702957889 44.48583782867831 76.00373806043756 40.71016193270356 C75.99424744865377 33.6270046433459 82.59845220255946 26.999999999999982 89.66673084311086 27.0 C96.39765846414545 27.000000000000018 103.0 33.684902981050485 103.0 40.5 C103.0 47.3864247302682 96.38746236635443 54.00478011695871 89.51560172057768 53.996261939562444 C87.85702077425995 53.99420600632179 85.03338698093246 53.09831902538932 83.24085995762769 52.00540198193474 Z M160.0616635766923 52.17273470273003 C156.13421586395242 50.06642157966596 153.0 44.88564938856978 153.0 40.500000000000014 C153.0 33.684902981050485 159.60234153585455 27.0 166.33326915688912 27.0 C176.37794318373298 27.000000000000014 183.22604201820715 38.534929996379525 178.06394666744643 46.7591400423723 C173.84511364889053 53.480551898598506 166.5761044889664 55.66646737253456 160.0616635766923 52.17273470273003 Z M197.41518617850733 52.57858767827638 C192.38213595988051 50.38719636890106 190.0 46.506938023346756 190.0 40.49999999999999 C190.0 34.65839315954274 192.13217272359825 31.017251315726295 197.0386361035856 28.480020494347272 C205.63524309120035 24.034542250848247 215.9925238791249 30.602814907068584 215.9925238791249 40.5 C215.9925238791249 50.34048816048917 206.4799243675395 56.525376926611656 197.41518617850733 52.57858767827638 Z M56.42857142857143 43.42857142857143 C58.27130113185904 41.58584172528382 58.37121460033966 40.56213791728961 56.964816241512004 37.934258545910666 C54.87615867805101 34.03156618962191 48.0 36.27782771917974 48.0 40.86282997448209 C48.0 42.50560108583757 51.01461977484256 45.0 53.0 45.0 C54.02142857142857 45.0 55.56428571428571 44.292857142857144 56.42857142857143 43.42857142857143 Z M92.8 43.8 C95.60499738601465 40.995002613985356 93.49172704932853 36.0 89.5 36.0 C86.8195411225816 36.0 85.0 37.8195411225816 85.0 40.5 C85.0 43.18045887741839 86.81954112258161 45.0 89.5 45.0 C90.655 45.0 92.14 44.46 92.8 43.8 Z M169.8 43.8 C172.60499738601465 40.995002613985335 170.49172704932855 36.0 166.5 36.0 C163.8195411225816 36.0 162.0 37.819541122581604 162.0 40.5 C162.0 43.1804588774184 163.8195411225816 45.0 166.5 45.0 C167.655 45.0 169.14 44.46 169.8 43.8 Z M206.42857142857144 43.42857142857143 C208.27130113185905 41.585841725283814 208.37121460033967 40.5621379172896 206.96481624151198 37.934258545910666 C204.876158678051 34.03156618962192 198.0 36.277827719179754 198.0 40.86282997448209 C198.0 42.50560108583757 201.01461977484254 45.0 203.0 45.0 C204.02142857142857 45.0 205.56428571428572 44.292857142857144 206.42857142857144 43.42857142857143 Z M98.0 12.0 L98.0 8.0 L71.5 8.0 L45.0 8.0 L45.0 12.0 L45.0 16.0 L71.5 16.0 L98.0 16.0 L98.0 12.0 Z M211.0 12.0 L211.0 8.0 L184.5 8.0 L158.0 8.0 L158.0 12.0 L158.0 16.0 L184.5 16.0 L211.0 16.0 L211.0 12.0 Z" fill="currentColor"/></svg>
