<svg xmlns="http://www.w3.org/2000/svg" xmlns:xlink="http://www.w3.org/1999/xlink" width="256" height="256" xml:space="preserve" version="1.1" viewBox="0 0 256 256">
  <path d="M39.73615727759663 248.75 C37.825052369791166 247.29876481197587 36.0 242.8498032767201 36.0 239.64230517829182 C36.0 237.8698991275644 35.131701878975186 237.1784022005291 31.75 236.25768200712645 C26.210340962139437 234.74942488593118 20.70320341405899 230.08407310906463 18.089792315818062 224.685486173017 C16.067018684770282 220.5069934335829 16.000000000000004 218.9557133124798 16.0 176.313106322909 L15.999999999999996 132.25766134111237 L10.871601477100041 131.5773552245791 C7.125784904609558 131.0804550881529 4.969038397120647 130.1228845509665 2.871601477100043 128.02544763094622 C0.0680715460799668 125.22191769992659 -2.5265209830539217e-16 124.90074882574626 -1.0658141036401503e-14 114.47692307692304 L-2.1316282072803006e-14 103.79999999999947 L3.4000000000002544 100.39999999999974 C6.334894491815578 97.46510550818488 7.465549685124735 97.0 11.665280865525421 97.00000000000001 L16.530561731050312 97.00000000000003 L18.246676720506933 92.168167400059 C21.522306812455 82.94541929701147 30.403696337171382 74.19544481999186 39.8218126275897 70.91227179950747 L42.99999999999999 69.80434971473161 L43.0 60.45194639391033 L43.000000000000014 51.09954307308905 L38.436910504489504 47.299771536544526 C32.28363784264368 42.17582418901096 30.00000000000001 38.24568364390864 29.999999999999993 32.77984923104091 C29.999999999999957 21.989692589686655 41.79734539183555 13.794786417490787 64.5 8.814774584975353 C76.62908722285984 6.154160708317452 106.74422261267561 5.317967475025161 119.49840978461411 7.287658817158373 C125.53735141678445 8.220282032435044 129.648450243246 8.377638179696518 131.99840978461413 7.766107991891886 C136.98300699459259 6.468965801020831 172.82815260764147 5.604839860160981 176.91765076395885 6.683231058066397 C181.1338031642801 7.795020686950476 182.9535456757247 10.271074684433636 181.37634082563372 12.750000000000014 C180.37574067867422 14.322663839395553 178.67889859786 14.461289362847355 164.6314556803626 14.117993223794713 C155.95977844529014 13.906071856226598 149.02417509003138 14.128692787623075 149.05429653420217 14.617993223794713 C149.08415962801337 15.10309695070762 151.21163042644594 16.85 153.7820094196079 18.5 C160.01646562866654 22.502076258914776 163.0 27.10251898945543 162.99999999999997 32.71362467388087 C162.99999999999994 38.44179119137282 161.90096314708998 40.44057048868489 155.38656852689218 46.55990213915409 L150.0 51.61980427830818 L150.0 60.30990213915409 L150.0 69.0 L177.0 69.0 L204.0 69.0 L204.0 60.52023644452892 C204.0 49.891148166655796 205.75312764580073 45.262642322357465 211.59098574912753 40.47895651378309 C214.0172103496362 38.49084786426771 216.4538546905329 36.02048184535734 217.00575095112015 34.98925424953782 C219.54001922432812 30.25393066578828 212.80619995883958 24.46134539949485 199.5315045397327 19.957508027753818 C191.6197234926222 17.273199722968165 191.5 17.18239956266077 191.5 13.8662899740131 C191.5 10.527735069283594 191.53707577562827 10.50086449021508 196.0 10.604925814819367 C204.9120332204259 10.812726336452803 218.93624347890847 18.06901695117615 223.55088918552661 24.860078507164346 C226.6134038761415 29.366973966171454 226.829906795764 35.92795000852044 224.06308949551035 40.381966011250114 C222.99778871804105 42.09688470506255 220.07278871804104 45.20989719144517 217.56308949551035 47.299771536544824 L213.0 51.09954307308965 L213.0 60.41391362959702 L213.0 69.72828418610439 L217.32413382801246 71.37968596211061 C219.70240743341932 72.28795693891404 223.59406697787952 74.46204468651592 225.97226614903514 76.21099206789258 C230.67997608980912 79.67308097661785 237.4771534150741 89.34301000296787 238.51068061263084 94.04862851078234 C239.12357996448807 96.83914098142152 239.4325459928534 96.99999999999997 244.17945526581906 96.99999999999997 C248.55576104194628 96.99999999999997 249.63628979988349 97.43628979988355 252.59999999999997 100.39999999999996 L256.0 103.79999999999995 L256.0 114.476923076924 C256.0 124.90074882574937 255.93192845392045 125.22191769992753 253.12839852289844 128.02544763094772 C251.0309616028767 130.12288455096808 248.87421509538785 131.08045508815408 245.12839852289844 131.57735522457932 L240.0 132.25766134111126 L240.0 176.3131063229085 C240.0 218.95571331247808 239.93298131522965 220.50699343358318 237.9102076841822 224.68548617301659 C235.29679658594188 230.08407310906304 229.7896590378583 234.74942488593234 224.25 236.2576820071265 C220.93181349634065 237.1611091656199 220.00000000000003 237.88474446945563 220.0 239.558181574239 C220.0 243.08732881419078 217.9131154173962 247.97613170049655 215.96055772068974 249.0211088672846 C214.95456657380862 249.5594989902781 209.63456032090315 250.00000000000003 204.13832160312205 250.0 C194.53362292266257 250.0 194.06459320825238 249.89757554275224 192.07258014903272 247.36514130819853 C190.78775430798274 245.73174993545882 189.99999999999997 243.2612047050234 190.0 240.86514130819853 L190.0 237.0 L128.0 237.0 L66.0 237.0 L66.0 241.04545454545456 C66.0 244.00729517396184 65.34252638747022 245.7483827034389 63.54545454545455 247.54545454545456 C61.2715046930479 249.81940439786118 60.36586741870845 250.0 51.236584180559426 250.0 C44.89771198167337 250.0 40.79502536368413 249.55407235611702 39.73615727759663 248.75 Z M57.0 239.5 C57.0 237.11111111111111 56.733333333333334 237.0 51.0 237.0 C45.266666666666666 237.0 45.0 237.11111111111111 45.0 239.5 C45.0 241.88888888888889 45.266666666666666 242.0 51.0 242.0 C56.733333333333334 242.0 57.0 241.88888888888889 57.0 239.5 Z M211.0 239.5 C211.0 237.11111111111111 210.73333333333335 237.0 205.0 237.0 C199.26666666666665 237.0 199.0 237.11111111111111 199.0 239.5 C199.0 241.88888888888889 199.26666666666665 242.0 205.0 242.0 C210.73333333333335 242.0 211.0 241.88888888888889 211.0 239.5 Z M224.61518474724434 226.43821135307445 C229.5519286176579 222.75199429527294 231.3428551864281 219.40817876721312 231.80540898084303 213.01343790798063 L232.24038180977306 207.0 L145.2426356203287 207.0 C51.131627795675215 207.0 55.401492497114056 207.24903915013073 56.17323613368588 201.8050420559386 L56.5 199.5 L144.29329513547134 199.24452940508982 L232.08659027094268 198.98905881017964 L231.79329513547134 148.74452940508982 L231.5 98.5 L229.1422008669679 94.0 C225.9276837216535 87.86490267501604 221.4591653269071 83.33182669475927 215.5 80.16070750864615 L210.5 77.5 L128.0 77.5 L45.5 77.5 L40.5 80.16070750864615 C34.54083467309228 83.3318266947596 30.07231627834675 87.86490267501549 26.85779913303209 94.0 L24.5 98.5 L24.20669035224596 148.75 L23.91338070449192 199.0 L34.42150659375797 199.0 C43.906176644032016 199.0 45.03388265062387 199.19479321998557 46.0 201.0 C46.760490022634656 202.42098860545244 46.760490022634656 203.57901139454756 46.0 205.0 C45.03431409996162 206.80440060955257 43.90617664403201 207.0 34.464816241512004 207.0 L24.0 207.0 L24.0 211.43490033882546 C24.0 216.73983827343216 25.358888550607244 220.6568226231328 28.316612439407525 223.8774979023466 C33.13430074309677 229.12349455585547 29.610037420506956 228.95432207442977 129.17697339416517 228.7190196555135 C221.04910691882895 228.50190204475294 221.87792636294444 228.4820946925136 224.61518474724434 226.43821135307445 Z M75.2 180.8 C74.33727536655074 179.93727536655072 74.0 173.2310895191009 74.0 156.93990283595386 L74.0 134.27980567190772 L68.58912744521156 133.72135436083272 C60.07654416474909 132.84277826326743 56.0 129.0159146830755 56.0 121.90328705198996 C56.0 114.72271147263628 61.54185354870185 110.0 69.96788136910348 110.0 L74.0 110.0 L74.0 102.70000000000039 C74.0 95.1959109011302 74.93796999194348 93.00000000000003 78.14329603135054 93.0 C81.20176427493938 93.0 83.0 96.97009863346457 83.0 103.72250624340543 L83.0 110.0 L87.35211678020819 110.0 C96.53450250168594 109.99999999999997 102.96588368387002 118.4170342958707 99.70916567338995 126.17221890342705 C97.7414905746215 130.85782066247882 94.15989732421384 133.18213369545683 87.99454607219823 133.7745458880254 L83.102776592529 134.24458299775918 L82.80138829626449 157.16012584861042 C82.55080800183786 176.21256931002853 82.24713018487648 180.2352890405554 81.0 181.02252157521377 C78.94109077362322 182.3221776564854 76.6336509057778 182.2336509057778 75.2 180.8 Z M162.68849648106777 171.35516314773446 C161.58349837576952 170.25016504243615 161.89470263625992 166.50529736374008 163.2 165.2 C164.03739601082412 164.36260398917588 169.43945672990174 164.0 181.07755528455783 164.0 C199.0207734004816 164.0 200.5049090553767 164.41121854700384 199.8267638663141 169.1949579440614 C199.50101354753988 171.4928502813623 199.4439773048819 171.5008431545469 181.43849648106777 171.77182981440112 C171.50466954565505 171.92133621232173 163.06716954565505 171.73383621232173 162.68849648106777 171.35516314773446 Z M163.2 150.8 C161.36287999778884 148.9628799977888 161.77214019435212 145.19231438417097 163.93425854591067 144.03518375848802 C165.02313671545886 143.45243384717367 172.48183088220486 143.0 181.0 143.0 C189.51816911779514 143.0 196.97686328454114 143.45243384717367 198.06574145408933 144.03518375848802 C200.22785980564788 145.19231438417097 200.63712000221116 148.96287999778892 198.79999999999995 150.8 C197.9630522088353 151.63694779116466 192.5777777777775 152.0 180.99999999999997 152.0 C169.4222222222222 152.0 164.03694779116466 151.63694779116466 163.2 150.8 Z M176.5 131.09279367565372 C169.7196532452927 129.4078855568566 163.54595571105952 123.42711540024638 162.42631327943678 117.45890813702881 C160.59473190230875 107.69574003138099 164.2983177759536 99.57301868005293 172.44634432360175 95.48293056281096 C180.04373674591943 91.66924582739304 187.21666681574726 92.61730408297143 193.6762898698941 98.28892824363393 C201.83764794975346 105.45469554639222 202.25467258379362 117.46590396625695 194.633026793082 125.84501402220891 C190.51781278921504 130.36921154975843 182.69671963301843 132.63267114760362 176.5 131.09279367565372 Z M91.5 122.0 L91.5 119.5 L78.89633357046634 119.22121569060891 C68.56710905085046 118.99274044966643 66.06370499535402 119.21831388921218 65.02388885502417 120.47121569060891 C63.99885114047947 121.70631057829287 63.99885114047947 122.29368942170713 65.02388885502417 123.52878430939109 C66.06370499535402 124.78168611078782 68.56710905085046 125.00725955033357 78.89633357046634 124.77878430939109 L91.5 124.5 L91.5 122.0 Z M16.0 114.0 L16.0 105.0 L13.200000000000005 105.0 C8.975680292138428 105.0 7.999999999999999 106.68867742870113 8.0 114.0 C8.0 121.31132257129886 8.975680292138442 123.0 13.2 123.0 L16.0 123.0 L16.0 114.0 Z M186.64690564102466 121.07365579633557 C190.2654936428938 118.86717304355429 192.49172920280535 113.50349124773122 191.21804288027715 110.06038925891595 C190.40418320954672 107.86031707368092 190.3199702423237 107.89171563084527 187.6516025265028 111.39012605615645 C184.0789618186935 116.07409949204629 181.6032757583405 117.39323090472936 179.0 116.0 C175.92265908627414 114.35305712364331 176.54392042801436 110.51058721343949 180.61636234467994 106.00288082303337 L184.23272468935988 102.0 L180.75122103648124 102.0 C176.63021955379688 102.0 172.75921792127582 104.75287223528616 171.03839875068005 108.90729721533005 C168.49134754359744 115.05642278352755 174.10405626853697 122.99252387912489 181.0 122.99252387912489 C182.375 122.99252387912489 184.9161075384611 122.12903324186969 186.64690564102466 121.07365579633557 Z M246.8 121.80000000000001 C247.4909090909091 121.10909090909091 248.0 117.80000000000001 248.0 114.0 C248.0 106.68867742870111 247.0243197078616 105.0 242.8 105.0 L240.0 105.0 L240.0 114.0 L240.0 123.0 L242.8 123.0 C244.34 123.0 246.14 122.46000000000001 246.8 121.80000000000001 Z M141.00557693440274 61.25 C141.01370709012795 49.95190998851055 142.17495852775215 46.89983938672091 149.04849781163813 40.11111347930662 C152.32182401523715 36.87817721692336 155.0 33.56629826077871 155.0 32.75138246565183 C155.0 27.909459225360585 144.57489803952413 21.689311609051657 130.5 18.133432715392274 C106.3108330596912 12.022287331837116 73.02306567812984 13.336814854562007 52.55091677621755 21.21162699902549 C46.526936503761796 23.528809881722864 37.99999999999998 30.46046835149107 37.99999999999999 33.04025800504547 C38.0 33.80095865883258 40.46036170612661 36.71310618147422 43.46747045805914 39.511696944249124 C50.51253578905809 46.06824557116813 52.0 49.72150855451301 52.0 60.46788136910355 L52.0 69.0 L96.5 69.0 L141.0 69.0 L141.00557693440274 61.25 Z" fill="currentColor"/></svg>
