<svg xmlns="http://www.w3.org/2000/svg" xmlns:xlink="http://www.w3.org/1999/xlink" width="256" height="256" xml:space="preserve" version="1.1" viewBox="0 0 256 256">
  <path d="M14.0 222.0 C12.444444444444445 220.44444444444446 12.0 218.66666666666666 12.0 214.0 C12.0 208.2051282051282 11.911111111111111 208.0 9.399999999999991 208.0 C7.7764705882352745 208.0 5.523076923076919 206.72307692307692 3.3999999999999924 204.6 L0.0 201.2 L3.552713678800501e-15 119.99999999999972 L7.105427357601002e-15 38.79999999999944 L3.4000000000003103 35.399999999999736 L6.8000000000006136 32.00000000000003 L128.0000000000003 32.0 L249.20000000000002 31.99999999999997 L252.60000000000002 35.39999999999998 L256.0 38.79999999999998 L256.0 119.99999999999973 L255.99999999999997 201.19999999999948 L252.6000000000003 204.59999999999974 C250.47692307692319 206.72307692307726 248.22352941176555 208.0 246.6000000000003 208.0 C244.08888888888882 208.0 244.0 208.20512820512803 243.99999999999997 213.99999999999997 C243.99999999999991 223.00337146605244 242.6119535972259 223.99999999999997 230.07258014903346 224.0 C220.53890296970934 224.0 220.06295734328876 223.89549587745012 218.0725801490335 221.3651413081995 C216.5614011717699 219.443988553279 216.00000000000003 217.27864444998121 216.0 213.37112663563755 L216.0 208.01197065487608 L136.25 207.75598532743805 L56.5 207.5 L56.16992415660446 204.60850658727122 C55.982445276996785 202.96617511631362 56.414457999651525 201.35274271976886 57.16992415660446 200.87381936178826 C57.90146587047201 200.41006276477347 100.59750000000074 200.02373480050144 152.0500000000016 200.01531277451704 C223.46054251550632 200.00362390721955 245.88399090306427 199.7160090969382 246.8000000000016 198.7999999999984 C248.53748434050863 197.0625156594867 248.53748434050706 42.93748434050708 246.8 41.2 C245.05762260438016 39.45762260438018 10.942377395625996 39.457622604378564 9.200000000001616 41.19999999999837 C7.462515659491601 42.93748434050382 7.462515659489981 197.06251565948992 9.199999999999976 198.79999999999998 C10.042823080402703 199.64282308040274 15.661678952123754 200.0 28.077555284557803 200.0 C47.346287824914285 200.0 48.86275311148499 200.4263817935179 47.592615276534275 205.48701401454744 C47.070090904343864 207.56891693989618 46.36476658732786 208.0 43.4809479717851 208.0 L40.0 208.0 L40.0 213.3651413081987 C40.0 217.2787143171532 39.439252114873184 219.44315803389333 37.92741985096713 221.3651413081987 C35.9370426567122 223.89549587745037 35.46109703029299 224.0 25.927419850967123 224.0 C17.333333333333336 224.0 15.731383712314042 223.73138371231406 14.0 222.0 Z M32.0 212.0 L32.0 208.0 L26.0 208.0 L20.0 208.0 L20.0 212.0 L20.0 216.0 L26.0 216.0 L32.0 216.0 L32.0 212.0 Z M236.0 212.0 L236.0 208.0 L230.0 208.0 L224.0 208.0 L224.0 212.0 L224.0 216.0 L230.0 216.0 L236.0 216.0 L236.0 212.0 Z M27.4 180.6 L24.0 177.2 L24.0 120.00000000000009 L24.0 62.80000000000017 L27.407604349347082 59.39239565065295 L30.81520869869416 55.984791301305734 L93.15760434934708 56.24239565065287 L155.5 56.5 L155.8267638663145 58.80504205593812 C156.58654752463977 64.1646716429152 158.543896118288 64.0 94.07755528455743 64.0 C48.9950122854447 64.0 34.10652258359004 64.29347741640939 33.19999999999962 65.20000000000041 C32.29642590536321 66.10357409463742 32.0 79.68107027590221 32.0 120.16481624151243 C32.0 172.2970582808164 32.05873396066804 173.96106594484522 33.934258545910666 174.964816241512 C35.215119999153636 175.65031248816098 59.68166202248074 176.0 106.36282997448184 176.0 C169.11523562537994 176.0 177.02972208692495 175.82742077021746 178.42857142857116 174.4285714285717 C179.81750321750326 173.03963963964006 179.99999999999997 166.71861471861882 180.0 120.00000000000028 C180.00000000000003 59.86923845171287 180.6232274577573 64.00000000000003 171.55101614401363 64.00000000000003 C165.69094170731927 64.00000000000003 163.64138072924945 62.55683104267712 164.1732361336855 58.80504205593812 C164.48052583689787 56.637373711055915 164.99516870086646 56.482634054464924 172.80861066144502 56.20861066144464 C181.09812652410147 55.91789099210541 181.12513030306133 55.92513030306061 184.55861066144502 59.358610661445 L188.00000000000003 62.80000000000072 L188.0 120.00000000000007 L187.99999999999997 177.19999999999942 L184.60000000000028 180.5999999999997 L181.20000000000059 184.0 L106.00000000000028 184.0 L30.8 184.0 L27.4 180.6 Z M209.23549814360808 166.8354981436081 C208.55597416462365 166.15597416462364 208.0 164.84510012194897 208.0 163.92244471544217 C208.0 160.74304772749173 210.51404259561934 159.90576393820527 219.15308006862836 160.20799168336222 L227.5 160.5 L227.5 164.0 L227.5 167.5 L218.98549814360808 167.7854981436081 C213.21916423304344 167.97884799010026 210.07222294114615 167.67222294114617 209.23549814360808 166.8354981436081 Z M164.48207322835083 162.81387124823584 C164.20477611250456 162.09124206170614 164.0953699069158 142.375 164.23894832704246 119.0 L164.5 76.5 L168.0 76.5 L171.5 76.5 L171.5 120.0 L171.5 163.5 L168.2431249013084 163.81387124823584 C166.2302602371105 164.0078548446395 164.7936722857614 163.62589041653064 164.48207322835083 162.81387124823584 Z M51.349997216131285 156.5499972161313 L47.899994432262574 153.09999443226258 L48.19999721613129 128.72384188548466 C48.49618739446306 104.65747531125905 48.53146230173797 104.30180979233685 50.975676546354805 100.73756195987491 C53.76977957801888 96.66309275316871 63.14474248733731 90.15267234968114 71.60671696808053 86.41038564931338 C91.8533593489251 77.45635953148914 118.62339716321561 77.90754321407461 138.65082939412451 87.54035078981494 C147.44271901054213 91.76907966157688 151.47925588854287 95.05893335063516 154.04384983583734 100.0859527789637 C155.82871241116464 103.58457245422753 156.0 106.07787727268718 156.0 128.56016193270364 L156.0 153.20000000000016 L152.5999999999999 156.60000000000008 L149.19999999999982 160.0 L101.99999999999991 160.0 L54.8 160.0 L51.349997216131285 156.5499972161313 Z M146.42857142857167 150.42857142857122 C147.75589512522635 149.1012477319162 148.00000000000003 145.64252105570338 148.00000000000003 128.16296970799357 C148.00000000000003 103.48368956365397 147.68453005514746 102.46921249438375 138.40731506317732 97.31515342651404 C130.0877309659754 92.69311675988483 121.95950578816894 90.13190810032356 111.31892836227112 88.77958642704905 C96.48966577521453 86.89492054920422 80.98335512723939 90.42041863406115 66.91380674004958 98.87548704396491 C56.182596121993896 105.3243877051516 56.0 105.82967240519947 56.0 129.0764546483632 C56.0 145.72556514119321 56.248780560340066 149.10592341748293 57.57142857142857 150.42857142857144 C58.95111111111111 151.80825396825398 64.3722943722944 152.0 102.00000000000021 152.0 C139.62770562770848 152.0 145.0488888888892 151.80825396825404 146.42857142857167 150.42857142857122 Z M209.23549814360808 150.8354981436081 C208.55597416462365 150.15597416462364 208.0 148.84510012194897 208.0 147.92244471544217 C208.0 144.74304772749173 210.51404259561934 143.90576393820527 219.15308006862836 144.20799168336222 L227.5 144.5 L227.5 148.0 L227.5 151.5 L218.98549814360808 151.7854981436081 C213.21916423304344 151.97884799010026 210.07222294114615 151.67222294114617 209.23549814360808 150.8354981436081 Z M100.30245328682221 142.3457973402334 C99.953325870547 141.43598587736173 100.19896903126643 138.70515027569184 100.84832697730981 136.27727378096694 C101.92400254127656 132.25544355063295 101.76095043138506 131.09441621504558 99.01448889414888 123.21926340006766 C95.34278619269959 112.69109125090345 95.16508754801772 106.89341084164329 98.33062771777796 100.90728374486349 C100.39090192212082 97.01124623466903 101.05790364461554 96.5 104.08062771777796 96.5 C106.87958400721973 96.5 107.55873953665733 96.91404092854141 107.82373817866389 98.78195290133564 C108.00179417692904 100.03702699707024 107.186244671981 103.04954549882208 106.01140594544604 105.47643846078417 C103.67990017611521 110.29268669517076 103.72903564033642 110.70961248000745 108.01766372404654 122.5 C110.31821960127841 128.82473713609943 110.37010523040203 135.76147063711554 108.15791064947985 141.25 C107.28798087547192 143.4083251082279 106.39196033919977 144.0 103.993366050725 144.0 C102.07267434343818 144.0 100.70139210812502 143.3854152438577 100.30245328682221 142.3457973402334 Z M85.49322011506361 132.63801603689149 C81.68301381930344 123.51890877924879 79.66200683153636 115.75922765631651 80.67577073217745 114.14136003157752 C81.87956933696636 112.22021568212665 85.80690415552807 111.40690415552803 87.19192917871001 112.79192917871003 C88.80731116328131 114.40731116328138 94.14822964134271 130.9426421525323 93.8138777248095 133.29329265267336 C93.57479208853015 134.9741766037028 92.71990253402214 135.57509154163637 90.22618825650105 135.8151344307194 C87.31274699107833 136.09557989507348 86.79175735407905 135.74585310434944 85.49322011506361 132.63801603689149 Z M209.23549814360808 134.8354981436081 C208.55597416462365 134.15597416462364 208.0 132.84510012194897 208.0 131.92244471544217 C208.0 128.74304772749173 210.51404259561934 127.90576393820528 219.15308006862836 128.20799168336222 L227.5 128.5 L227.5 132.0 L227.5 135.5 L218.98549814360808 135.7854981436081 C213.21916423304344 135.97884799010026 210.07222294114615 135.67222294114617 209.23549814360808 134.8354981436081 Z M117.45252727670993 124.23468722548293 C115.94927564111308 123.18032108419536 112.0 113.16115767194827 112.0 110.401831086909 C112.0 107.47666986679663 115.25807938864695 105.53256862174037 117.8424057516056 106.9156581178282 C119.69090159578514 107.90494307126565 124.0 117.68350824041929 124.0 120.88898408880966 C124.0 124.16146221977073 120.15174132852083 126.12788982505111 117.45252727670993 124.23468722548293 Z M209.23549814360808 118.83549814360808 C208.55597416462365 118.15597416462363 208.0 116.84510012194897 208.0 115.92244471544217 C208.0 112.74304772749173 210.51404259561932 111.90576393820528 219.15308006862836 112.20799168336222 L227.5 112.5 L227.5 116.0 L227.5 119.5 L218.98549814360808 119.7854981436081 C213.21916423304347 119.97884799010025 210.07222294114615 119.67222294114615 209.23549814360808 118.83549814360808 Z M198.45454545454544 97.54545454545455 C196.13629478868674 95.22720387959583 196.0 94.45949801181928 196.0 83.71976857216403 C196.0 67.53413822720347 195.33870210892445 68.0 218.3144512213676 68.0 C240.97678730411468 68.0 240.0 67.28715988258283 240.0 83.82568597329052 C240.0 100.49806095340693 240.67313924347147 100.0 218.14009423317788 100.0 C201.17878206192506 100.0 200.8706735760506 99.96158266695969 198.45454545454544 97.54545454545455 Z M232.0 84.0 L232.0 76.0 L218.0 76.0 L204.0 76.0 L204.0 84.0 L204.0 92.0 L218.0 92.0 L232.0 92.0 L232.0 84.0 Z" fill="currentColor"/></svg>
