<svg xmlns="http://www.w3.org/2000/svg" xmlns:xlink="http://www.w3.org/1999/xlink" width="256" height="256" xml:space="preserve" version="1.1" viewBox="0 0 256 256">
  <path d="M9.41014807174443 252.61014807174442 L6.000000000000001 249.2 L6.0 232.05454545454543 C5.999999999999998 215.18406285072945 6.039365018156103 214.86972589093477 8.454545454545467 212.45454545454544 C10.411957411957427 210.49713349713352 11.930976430976475 210.0 15.954545454545467 210.0 L21.0 210.0 L21.0 205.0 L21.0 200.0 L16.423076923076906 200.0 C12.687326580245132 200.0 11.303538999850936 199.45738515369712 8.893720521496036 197.04756667534218 L5.941287196838259 194.09513335068436 L6.220643598419129 180.79756667534218 L6.5 167.5 L10.0 167.5 L13.5 167.5 L13.748075648077469 177.5 C13.884517254520077 183.0 14.230590667216786 188.5125 14.517127676292379 189.75 L15.03810405642982 192.0 L127.39660731277276 192.0 C220.91949099522233 192.0 239.944355781065 191.77197346938487 240.88399877370261 190.63977292691965 C241.7053480799234 189.65010755683448 241.94302501337194 169.01381119322843 241.75644348914477 114.88977292691965 L241.5 40.5 L128.0 40.5 L14.5 40.5 L14.0 98.5 L13.5 156.5 L11.194957944061452 156.82676386631414 C5.843701297403257 157.5853605726069 6.000000000000002 159.38761369913655 6.0 96.92460830568363 C5.999999999999998 55.80896853872356 6.329079471464549 38.37185527658575 7.1385574439153565 36.59524465183202 C9.540374603717273 31.32383019703136 11.899547873087975 31.0 47.90112912253257 31.0 L81.0 31.0 L81.0 22.967881369103694 C81.00000000000001 11.266397741983136 83.67865608917758 5.737515988106884 91.21016193270366 1.89359033117519 C94.6295513042422 0.14840433392940433 97.51284201599887 -5.350222241426354e-14 128.0 -1.4210854715202004e-14 C158.48715798400076 2.508051298385903e-14 161.3704486957579 0.14840433392950914 164.78983806729636 1.8935903311752327 C172.31316151758418 5.733339862912622 175.00000000000006 11.269274986645733 175.00000000000006 22.93050581090091 L175.00000000000003 30.925248883592474 L209.58306205981054 31.212624441796237 L244.16612411962106 31.5 L247.08306205981054 34.76577654245902 L250.00000000000003 38.031553084918045 L250.0 116.0926996193828 L249.99999999999997 194.15384615384755 L247.07692307692236 197.07692307692378 C244.69769446239957 199.4561516914454 243.30229419702897 199.99999999999997 239.57692307692236 200.0 L235.0 200.0 L235.0 205.0 L235.0 210.0 L240.04545454545405 210.0 C244.06902356902202 210.0 245.58804258804204 210.49713349713372 247.5454545454541 212.45454545454498 C249.96063498184415 214.86972589093406 250.00000000000009 215.18406285072723 250.0 232.05454545454472 L249.99999999999991 249.19999999999945 L246.59256512539253 252.6074348746074 L243.18513025078514 256.0148697492154 L179.34256512539258 255.7574348746077 L115.5 255.5 L115.16992415660442 252.60850658727122 C114.98244527699673 250.96617511631362 115.41445799965145 249.3527427197689 116.16992415660442 248.8738193617883 C116.901465870472 248.4100627647735 145.0466673086804 248.02373480050144 178.714816241512 248.01531277451704 C238.20441448702553 248.0004315601318 239.95880708092304 247.94548676517866 240.96481624151198 246.06574145408936 C241.5341673086804 245.0018992538385 241.99999999999997 238.2518992538385 242.0 231.06574145408936 L242.0 218.0 L128.0 218.0 L14.0 218.0 L14.0 231.06574145408933 C14.0 238.25189925383847 14.465832691319598 245.00189925383847 15.035183758487996 246.06574145408933 C16.034195506749587 247.93241198064644 17.58486259403125 248.0 59.41273904304582 248.0 C106.1689109824789 248.0 105.57286908646742 247.93181814219884 104.82676386631417 253.19495794406146 L104.5 255.5 L58.66014807174443 255.76014807174442 L12.820296143488859 256.02029614348885 L9.41014807174443 252.61014807174442 Z M24.045680849128054 242.55504205593857 C23.38611612916209 241.7603151867048 22.99351600721311 240.0728151867048 23.173236133685876 238.80504205593857 L23.5 236.5 L45.72616223135428 236.23093209133754 L67.95232446270856 235.96186418267504 L68.58782953610347 238.49391807679007 C69.8916155576119 243.68861535153835 68.61420932615667 244.0 46.0 244.0 C29.122347678540038 244.0 25.020853948610906 243.7300537581306 24.045680849128054 242.55504205593857 Z M196.05474179558286 242.78693094060992 C189.78722359321418 239.47686867269863 188.4708474012878 230.43824350780315 193.5208187900069 225.38827211908398 C196.9082910329345 222.0007998761564 204.6315477196567 222.00241982105265 208.28828502477256 225.39136957945954 C212.96579273619162 229.7263374226193 212.63449324782255 237.7387490818924 207.60515513163912 241.91272899201283 C205.3569485377045 243.77857474350196 198.86303122626248 244.27007188758853 196.05474179558286 242.78693094060992 Z M219.27299178530996 240.47299178530994 C216.00305166215384 237.20305166215383 215.7845131147865 236.6041504661879 216.27461401235576 232.25598816827085 C216.9804551168762 225.993784417538 220.33070106344707 223.0 226.63268677824942 223.0 C232.86257865072574 223.0 237.0 226.9863703858204 237.0 232.98881837716627 C237.0 238.1696906868343 235.74543050842811 240.56316261034812 232.02001556033187 242.4896495514899 C227.08580655130825 245.04122819526106 223.2314443226224 244.43144432262238 219.27299178530996 240.47299178530994 Z M202.80962912017839 233.25 C202.62426855674488 232.2875 201.80993545266463 231.5 201.0 231.5 C200.19006454733537 231.5 199.37573144325512 232.2875 199.19037087982161 233.25 C198.95390876693557 234.47784900648256 199.49385142007796 235.0 201.0 235.0 C202.50614857992204 235.0 203.04609123306443 234.47784900648256 202.80962912017839 233.25 Z M228.5 232.98630495696784 C228.5 230.84279859889082 225.594331559924 231.15240088076735 225.17288185846138 233.34081318457078 C224.91551558070623 234.67720878971383 225.32279121028617 235.08448441929377 226.65918681542922 234.82711814153862 C227.67163406694317 234.632138616357 228.5 233.80377268330017 228.5 232.98630495696784 Z M24.045680849128054 229.55504205593857 C23.38611612916209 228.7603151867048 22.99351600721311 227.0728151867048 23.173236133685876 225.80504205593857 C23.49528168376926 223.53328372095652 23.68771387329784 223.5 36.5 223.5 C49.31228612670216 223.5 49.504718316230736 223.53328372095652 49.826763866314124 225.80504205593857 C50.46241677450845 230.28903443519104 48.638557890314665 231.0 36.5 231.0 C27.905957136266863 231.0 24.961358211059114 230.65836577997476 24.045680849128054 229.55504205593857 Z M226.0 205.0 L226.0 200.0 L128.0 200.0 L30.0 200.0 L30.0 205.0 L30.0 210.0 L128.0 210.0 L226.0 210.0 L226.0 205.0 Z M23.860783962309785 183.0886982101315 L21.5 181.17739642026297 L21.228756673230237 116.75056341562912 C20.958981445245637 52.67243928576258 20.968846121861 52.309323121713724 23.05133682226326 49.661865205497634 L25.145160298066045 47.0 L105.53739639054501 47.0 C184.90617664403214 47.0 185.94325909597023 47.025461559193715 187.0 49.000000000000014 C187.76049002263468 50.42098860545249 187.76049002263468 51.57901139454756 187.0 53.000000000000014 C185.94368335799462 54.97374569996236 184.9061766440318 55.0 107.964816241512 55.0 L30.0 55.0 L30.0 116.0 L30.0 177.0 L128.0 177.0 L226.0 177.0 L226.0 116.0 L226.0 55.0 L212.6224447154422 55.000000000000014 C198.21736475394889 55.00000000000003 196.51781146633363 54.42850743414278 197.1732361336865 49.80504205593934 C197.49767146926035 47.516425810307474 197.61871066496894 47.49804913942842 214.15872612186746 47.22623477450453 L230.81745224373495 46.952469549009066 L232.92996944863722 49.63809998000181 C235.0369481095468 52.31668929329117 235.04177551466947 52.49264304663018 234.77124332676976 116.75056341562832 L234.5 181.17739642026208 L232.13921603769074 183.08869821013104 C229.8495148947476 184.94245101540318 226.7139001156238 185.0 128.00000000000054 185.0 C29.286099884385834 185.0 26.150485105253246 184.94245101540304 23.860783962309785 183.0886982101315 Z M38.86078396230978 168.09052972012577 C36.659525404021736 166.31008819626123 36.477809536439366 165.3799124212427 36.17160784947443 154.32504788192517 C35.86986142956995 143.43103279555535 36.017745535839765 142.24715759050122 37.994187998507314 139.73451816179943 C40.13159785242735 137.01724185565956 40.223518446234124 137.0 52.57258014903289 137.0 C69.25145488029997 137.0 69.00530474365152 136.75628115866505 68.98468722548293 153.25 C68.97626519949856 159.9875 68.63876519949855 165.9951331999499 68.23468722548293 166.6002959998886 C66.51403925817105 169.17720493471498 62.627649062545316 170.0 52.176525416399116 170.0 C42.88559971056536 170.0 40.8629704991177 169.70995604114268 38.86078396230978 168.09052972012577 Z M76.63485869180128 167.9274198509671 C74.04091013235005 165.88701961673073 74.0 165.66188537293942 74.0 153.4274198509671 C74.0 142.33333333333334 74.21457926895897 140.78542073104103 76.0 139.0 C77.78542073104103 137.21457926895897 79.33333333333333 137.0 90.42741985096711 137.0 C102.66188537293941 137.0 102.88701961673074 137.04091013235004 104.92741985096711 139.6348586918013 C106.74916019448985 141.95082624585498 107.0 143.65071664002264 107.0 153.68031323725583 C107.00000000000001 164.4619335263198 106.86470039488881 165.2262086960203 104.54545454545456 167.54545454545456 C102.2262086960203 169.86470039488879 101.46193352631978 170.0 90.68031323725583 170.0 C80.65071664002262 170.0 78.95082624585497 169.74916019448983 76.63485869180128 167.9274198509671 Z M114.0 168.0 C112.20602686210742 166.20602686210742 112.0 164.66666666666666 112.0 153.05670396864906 C112.0 136.64386420431117 111.64512189163186 137.0 128.0 137.0 C144.35487810836813 137.0 144.0 136.64386420431117 144.0 153.05670396864906 C144.0 170.28884910745066 144.2727678080262 170.0 128.0 170.0 C117.33333333333334 170.0 115.77777777777777 169.77777777777777 114.0 168.0 Z M151.45454545454544 167.54545454545456 C149.13529960511121 165.2262086960203 149.0 164.4619335263198 149.0 153.6803132372558 C149.0 143.65071664002258 149.25083980551017 141.95082624585496 151.0725801490329 139.63485869180127 C153.11298038326925 137.04091013235006 153.3381146270606 137.0 165.5725801490329 137.0 C176.66666666666666 137.0 178.21457926895897 137.21457926895897 180.0 139.0 C181.78542073104103 140.78542073104103 182.0 142.33333333333334 182.0 153.4274198509671 C182.0 165.66188537293937 181.95908986764994 165.8870196167307 179.3651413081987 167.9274198509671 C177.04917375414502 169.74916019448986 175.34928335997742 170.0 165.31968676274417 170.0 C154.5380664736802 170.0 153.7737913039797 169.86470039488879 151.45454545454544 167.54545454545456 Z M190.5 168.80505450718388 C187.23506431067486 166.95362681789996 187.03130566457386 166.04408267768764 187.01531277451704 153.25 C186.99470896977542 136.76725170354447 186.7608191372659 137.0 203.34501243788793 137.0 C219.76056022828502 137.0 219.5 136.7307567930442 219.5 153.6933406843507 C219.5 169.9964954274895 219.48406698334452 170.01284580291787 203.63921603769023 169.96959131409926 C197.23567653282052 169.95211044104698 191.6497289366151 169.4570244664636 190.5 168.80505450718388 Z M61.0 153.0 L61.0 145.0 L53.0 145.0 L45.0 145.0 L45.0 153.0 L45.0 161.0 L53.0 161.0 L61.0 161.0 L61.0 153.0 Z M98.0 153.0 L98.0 145.0 L90.0 145.0 L82.0 145.0 L82.0 153.0 L82.0 161.0 L90.0 161.0 L98.0 161.0 L98.0 153.0 Z M136.0 153.0 L136.0 145.0 L128.0 145.0 L120.0 145.0 L120.0 153.0 L120.0 161.0 L128.0 161.0 L136.0 161.0 L136.0 153.0 Z M174.0 153.0 L174.0 145.0 L166.0 145.0 L158.0 145.0 L158.0 153.0 L158.0 161.0 L166.0 161.0 L174.0 161.0 L174.0 153.0 Z M211.0 153.0 L211.0 145.0 L203.0 145.0 L195.0 145.0 L195.0 153.0 L195.0 161.0 L203.0 161.0 L211.0 161.0 L211.0 153.0 Z M37.994187998507314 129.26548183820057 C36.020030827445424 126.75574768698742 35.87021032844937 125.5665216818735 36.17160784947443 114.79843811482215 C36.60403054032816 99.34919468519549 36.349194685195485 99.60403054032817 51.798438114822126 99.17160784947441 C62.56652168187351 98.87021032844935 63.755747686987405 99.0200308274454 66.26548183820056 100.9941879985073 C68.98275814434044 103.13159785242735 69.0 103.22351844623408 69.0 115.57258014903289 C69.0 126.66666666666667 68.78542073104103 128.21457926895897 67.0 130.0 C65.21457926895897 131.78542073104103 63.66666666666667 132.0 52.57258014903289 132.0 C40.22351844623407 132.0 40.13159785242733 131.98275814434044 37.994187998507314 129.26548183820057 Z M76.0 130.0 C74.22138364779875 128.22138364779875 74.0 126.66666666666667 74.0 115.95454545454544 C74.0 104.39200003160133 74.10172737934376 103.80736352974711 76.5374391718741 101.37165173721681 C79.016708597329 98.89238231176193 79.35119047313086 98.84184401650666 91.12796889199987 99.16710628267137 C106.89608999532818 99.60260524688817 107.0 99.70741469475652 107.0 115.17652541639913 C107.0 125.62764906254536 106.17720493471501 129.51403925817098 103.6002959998886 131.23468722548296 C102.99513319994988 131.63876519949855 96.9875 131.97626519949856 90.25 131.98468722548296 C79.32147294619227 131.99834812920363 77.78424931490738 131.78424931490738 76.0 130.0 Z M113.6549875621121 130.17125932841594 C112.2999987942748 128.67401359315414 112.00277573922445 126.09092299097446 112.01531277451707 115.92125932841593 C112.02373480050144 109.08956669778716 112.36123480050145 103.00486680005012 112.76531277451707 102.39970400011138 C114.45207362046439 99.87354572868558 118.36658969399474 99.0 128.0 99.0 C137.63341030600517 99.0 141.54792637953557 99.87354572868558 143.23468722548296 102.39970400011138 C143.63876519949855 103.00486680005012 143.97626519949856 109.16775559704956 143.98468722548296 116.09501243788792 C144.00464014566785 132.5066220793079 144.519335464284 132.0 127.82624689052801 132.0 C116.97067801591572 132.0 115.09038556261747 131.75735626565495 113.6549875621121 130.17125932841594 Z M152.3997040001114 131.23468722548296 C149.82279506528502 129.514039258171 149.0 125.62764906254526 149.0 115.17652541639912 C149.0 99.70741469475655 149.10391000467183 99.60260524688817 164.87203110800013 99.16710628267137 C176.64880952686912 98.84184401650666 176.98329140267097 98.89238231176195 179.4625608281259 101.3716517372168 C181.89827262065626 103.80736352974711 182.0 104.39200003160128 182.0 115.95454545454542 C182.0 132.1946219601703 182.19197932184483 132.0052400680927 165.75 131.98468722548296 C159.0125 131.97626519949856 153.0048668000501 131.63876519949855 152.3997040001114 131.23468722548296 Z M189.0 130.0 C187.21457926895897 128.21457926895897 187.0 126.66666666666667 187.0 115.57258014903289 C187.0 103.22351844623404 187.01724185565956 103.13159785242733 189.73451816179946 100.9941879985073 C192.24425231301262 99.02003082744541 193.43347831812653 98.87021032844935 204.20156188517788 99.17160784947441 C219.65080531480453 99.60403054032817 219.39596945967185 99.34919468519547 219.8283921505256 114.79843811482212 C220.12978967155064 125.56652168187344 219.97996917255458 126.75574768698739 218.0058120014927 129.26548183820054 C215.86840214757268 131.98275814434044 215.77648155376596 132.0 203.4274198509671 132.0 C192.33333333333334 132.0 190.78542073104103 131.78542073104103 189.0 130.0 Z M61.0 116.0 L61.0 108.0 L53.0 108.0 L45.0 108.0 L45.0 116.0 L45.0 124.0 L53.0 124.0 L61.0 124.0 L61.0 116.0 Z M98.0 116.0 L98.0 108.0 L90.0 108.0 L82.0 108.0 L82.0 116.0 L82.0 124.0 L90.0 124.0 L98.0 124.0 L98.0 116.0 Z M136.0 116.0 L136.0 108.0 L128.0 108.0 L120.0 108.0 L120.0 116.0 L120.0 124.0 L128.0 124.0 L136.0 124.0 L136.0 116.0 Z M174.0 116.0 L174.0 108.0 L166.0 108.0 L158.0 108.0 L158.0 116.0 L158.0 124.0 L166.0 124.0 L174.0 124.0 L174.0 116.0 Z M211.0 116.0 L211.0 108.0 L203.0 108.0 L195.0 108.0 L195.0 116.0 L195.0 124.0 L203.0 124.0 L211.0 124.0 L211.0 116.0 Z M40.23545510898467 93.96345739826326 C36.916000558368516 92.62988252347115 36.0 89.08442247913607 36.0 77.56975903062676 C36.0 68.66368022229369 36.28049398312826 66.91312706800569 38.07258014903289 64.63485869180128 C40.11298038326927 62.04091013235006 40.338114627060605 62.00000000000001 52.57258014903289 62.0 C63.66666666666667 62.0 65.21457926895897 62.214579268958964 67.0 64.0 C68.78542073104103 65.78542073104103 69.0 67.33333333333334 69.0 78.42741985096711 C69.0 90.66188537293937 68.95908986764995 90.88701961673073 66.36514130819873 92.92741985096711 C64.06113514008673 94.73975136693686 62.39736624328641 94.99204074300977 53.11514130819873 94.93661369958093 C47.27681358868942 94.90175123435043 41.4809547990431 94.46383089875748 40.23545510898467 93.96345739826326 Z M78.31537175679054 94.03549966209061 C74.73430778914054 92.5230236211005 74.0 89.72051379831036 74.0 77.56574145408933 C74.0 61.876536129583286 73.87636835199888 61.99484536803124 90.25 62.01531277451706 C96.9875 62.023734800501444 102.99513319994988 62.36123480050144 103.6002959998886 62.76531277451706 C106.17720493471498 64.48596074182899 107.0 68.37235093745471 107.0 78.82347458360087 C107.0 94.2076080158706 106.79082846832331 94.42707352309327 91.84043081938083 94.72909287129445 C85.60319386872138 94.8550939505064 79.51691729055574 94.54297700636468 78.31537175679054 94.03549966209061 Z M115.5 93.80505450718388 C112.22894549811582 91.95015705920474 112.0312921576188 91.0482966790714 112.01531277451707 77.9049875621121 C111.99535985433215 61.4933779206921 111.48066453571599 61.99999999999999 128.173753109472 62.0 C144.4886198766099 62.00000000000002 144.00511505249145 61.50830554201173 143.98468722548296 78.07874067158407 C143.97626519949856 84.91043330221284 143.63876519949855 90.99513319994988 143.23468722548296 91.6002959998886 C141.53190953654718 94.15044171475932 137.65055371213703 94.998582319562 127.81574145408933 94.96959131409926 C122.02684500957054 94.95252683701084 116.62234229023333 94.44149448356268 115.5 93.80505450718388 Z M153.3153717567905 94.03549966209061 C149.77785481675343 92.54141587449665 149.0 89.74110945273517 149.0 78.5 C149.0 68.37030118142935 149.84204434664017 64.47310765401193 152.3997040001114 62.76531277451706 C153.00486680005014 62.36123480050144 159.0125 62.023734800501444 165.75 62.01531277451706 C182.17014398572212 61.99478722656677 182.0 61.82858112378748 182.0 77.8892160376902 C182.0 94.34155057165246 181.92545900456022 94.42435379431032 166.84043081938083 94.72909287129445 C160.60319386872138 94.8550939505064 154.51691729055574 94.54297700636468 153.3153717567905 94.03549966209061 Z M189.73451816179943 93.00581200149269 C187.0082151957641 90.86130177586408 187.0 90.81617276160276 187.0 77.98412381961617 C187.0 61.57797044574547 186.56039123775085 62.0 203.64992609437255 62.0 C215.756559107077 62.0 215.8721604994359 62.02201982580385 218.0058120014927 64.73451816179944 C219.97996917255458 67.2442523130126 220.12978967155064 68.43347831812652 219.8283921505256 79.20156188517788 C219.39596945967185 94.65080531480454 219.65080531480453 94.39596945967185 204.20156188517785 94.82839215052557 C193.43347831812648 95.12978967155064 192.24425231301257 94.97996917255458 189.73451816179943 93.00581200149269 Z M61.0 78.0 L61.0 70.0 L53.0 70.0 L45.0 70.0 L45.0 78.0 L45.0 86.0 L53.0 86.0 L61.0 86.0 L61.0 78.0 Z M98.0 78.0 L98.0 70.0 L90.0 70.0 L82.0 70.0 L82.0 78.0 L82.0 86.0 L90.0 86.0 L98.0 86.0 L98.0 78.0 Z M136.0 78.0 L136.0 70.0 L128.0 70.0 L120.0 70.0 L120.0 78.0 L120.0 86.0 L128.0 86.0 L136.0 86.0 L136.0 78.0 Z M174.0 78.0 L174.0 70.0 L166.0 70.0 L158.0 70.0 L158.0 78.0 L158.0 86.0 L166.0 86.0 L174.0 86.0 L174.0 78.0 Z M211.0 78.0 L211.0 70.0 L203.0 70.0 L195.0 70.0 L195.0 78.0 L195.0 86.0 L203.0 86.0 L211.0 86.0 L211.0 78.0 Z M166.84242883279023 23.550733529570596 C166.43747859608354 15.531553128252245 164.55459345420752 11.654978738294925 159.9036011838889 9.26474180239703 C156.4869332396719 7.508848555684259 99.51306676032809 7.508848555684261 96.09639881611113 9.264741802397031 C91.4454065457924 11.654978738295007 89.56252140391643 15.53155312825216 89.15757116720975 23.55073352957051 L88.78140027822518 31.0 L128.0 31.0 L167.21859972177484 31.0 L166.84242883279023 23.550733529570596 Z" fill="currentColor"/></svg>
