<svg xmlns="http://www.w3.org/2000/svg" xmlns:xlink="http://www.w3.org/1999/xlink" width="256" height="256" xml:space="preserve" version="1.1" viewBox="0 0 256 256">
  <path d="M69.29805472315527 239.30056426056933 C68.08698482089066 239.06567486309905 65.72448482089067 237.31129848458625 64.04805472315527 235.40195008609646 C61.632517029298185 232.6508046410892 61.0 231.01180932367717 61.0 227.5037478447905 C61.0 223.17589054437715 60.909543267502684 223.05273067761422 56.94725250021283 221.98579657330947 C51.798357987896395 220.59934326200553 45.80483357263499 214.6705954714864 44.30077411688141 209.47599840145133 C43.66760163956972 207.2891992806531 42.58174105692745 200.38050312777972 41.8877505998986 194.12334028395492 C40.692093203842916 183.34304358567772 40.724402395883864 182.67469024943293 42.50410451957335 181.37334028395492 C44.81552050260296 179.68319165195513 45.17551396736801 179.67663589633835 47.374597308030765 181.2846448947891 C48.69662571536074 182.2513356681153 49.4771672040618 185.3684587062127 50.52825555915682 193.87890276726955 C52.253326289813394 207.84644211203954 52.40465310106112 208.32126132770202 56.13017323767236 211.45607984770254 L59.15345056388699 214.0 L127.94186659014237 214.0 C196.07201237176534 214.0 196.75555736525885 213.98011887964833 199.37146221367306 211.92244782599636 C200.8241109921745 210.77979413029433 202.45977374300537 209.00942199464512 203.0062683266306 207.98828752455364 C203.5527629102558 206.96715305446216 206.46284808009503 185.28955153276382 209.47312425960666 159.81583969855728 C212.48340043911827 134.3421278643508 215.2109969044007 111.5875 215.53444973801203 109.25000000000001 L216.12254579912354 105.00000000000003 L201.99553144547247 105.00000000000001 C186.96376266914896 105.0 184.0 104.2860196529211 184.0 100.664816241512 C184.0 96.29507747132035 185.33650825819745 96.0 205.12857142857138 96.00000000000001 C220.82121212121228 96.00000000000003 224.11187388761752 95.7452689695253 225.42857142857142 94.42857142857142 C227.60090160994358 92.25624124719926 227.40614724804428 88.2877309276839 225.06574145408945 87.03518375848803 C223.7840469949279 86.34924170060071 198.96504800976038 86.00000000000004 151.50000000000006 86.00000000000003 C104.03495199023845 86.00000000000001 79.21595300507221 85.65075829939934 77.93425854591064 84.964816241512 C75.41727729677243 83.61776875655438 75.41727729677238 79.38223124344562 77.93425854591057 78.03518375848802 C79.2090952134998 77.3529118792693 102.30623098716644 76.98601798054511 145.68425854591058 76.9589870437896 L211.5 76.91797408757915 L207.26276398184018 73.08444437485537 C197.26738574577115 64.04138439574085 177.45003161537662 57.08747767215065 153.02623438115256 54.05285391263696 C142.11728140353648 52.69743126562516 113.8827185964615 52.69743126562517 102.97376561884646 54.05285391263698 C78.54996838462282 57.08747767215092 58.73261425422807 64.04138439574122 48.737236018160125 73.08444437485497 L44.5 76.91797408757915 L55.67857142857166 76.95898704378956 C64.46773887427054 76.99123353806476 67.19303351288256 77.33589065573933 68.42857142857166 78.57142857142883 C70.42316626518615 80.56602340804397 70.42316626518617 82.433976591956 68.4285714285717 84.42857142857113 C67.11818426000573 85.73895859713755 63.91212121212321 85.99999999999997 49.12857142857123 85.99999999999996 C30.42042345233488 85.99999999999994 29.000000000000004 86.32662682651274 28.999999999999996 90.62857142857169 C28.999999999999986 96.219695350209 25.958154273435994 96.0 103.37142857142835 96.0 C157.43809523809483 96.0 174.8891295627758 96.28912956277577 175.8 97.19999999999999 C177.6371200022117 99.03712000221168 177.22785980564845 102.80768561582873 175.0657414540893 103.96481624151203 C173.78794804418385 104.64867052119641 150.52814526572476 105.00000000000003 106.53129867437099 105.00000000000003 L39.93111444056334 105.00000000000003 L40.53669529582815 109.75000000000001 C44.94181382298613 144.3024678035779 47.611363593611415 170.76949942933328 46.84064592479553 172.25 C45.78688204875766 174.27421468060925 41.71971842218042 174.58157278151486 40.224318561707726 172.75 C39.66300458366059 172.0625 38.6251709566166 166.39300780333028 37.91802161272109 160.15112845184504 C36.47725941756135 147.43378115597187 35.38578257176462 145.25778317863623 28.749291346493784 141.87209798878175 C26.515380292502133 140.7324416079895 20.370417035635356 138.73638900542352 15.09381744234539 137.43642553863515 C3.0291844491310407 134.46413593164422 2.2106738797614958e-14 131.75734699671924 0.0 123.94904016319562 C-2.916558379138623e-14 113.64748328016246 4.18115418091714 111.00000000000003 20.450340073115747 111.00000000000001 C31.76563563418595 111.0 31.99968927494738 110.95434325976524 31.984687225482936 108.75 C31.965148644818893 105.87907635091786 31.18159573971746 104.85220448986904 27.597159068141522 103.0 C22.900920229072106 100.57328822902669 20.5 96.5137705442399 20.5 90.99999999999999 C20.5 85.13788531402899 22.90691894350509 81.39091133549088 28.560366257009953 78.45201507346106 C30.72716481565448 77.32562336386464 35.474307210794336 73.4711450828173 39.10957157954298 69.88650778224475 C52.56601994745509 56.617462711541755 77.71680205623952 47.2763673990321 105.25 45.32170326787839 L114.0 44.70051457840867 L114.0 41.350257289204336 C114.0 38.17433495033185 113.813870203651 38.0 110.42307692307617 38.0 C105.09118816670694 38.0 100.99999999999997 33.57124977340102 100.99999999999997 27.799429320327732 C100.99999999999999 22.572681647345 103.08901987985126 19.278578505046593 107.59857390267234 17.394366526464424 C112.30354004053919 15.428506152926563 143.6964599594632 15.428506152926804 148.40142609732877 17.394366526464736 C152.9109801201487 19.27857850504701 155.00000000000003 22.572681647345984 155.0 27.799429320327775 C155.0 33.57124977340085 150.90881183329287 37.999999999999964 145.5769230769238 37.999999999999986 C142.15567765567755 38.0 142.0 38.152329749103814 142.0 41.5 C142.0 44.995131158715076 142.00642918303632 45.0 146.6216623854125 44.99999999999997 C149.16357669738937 44.99999999999996 155.941019202023 45.69754049782389 161.6826457290428 46.55008999516426 C185.4774658563369 50.083280780626005 205.22989129205445 58.40132258009907 216.72687806287712 69.73003955947495 C220.4520951282947 73.4007343825705 225.27283518434558 77.32562336386411 227.43963374299017 78.45201507346071 C233.0930810564928 81.39091133548976 235.5 85.13788531403134 235.5 91.0 C235.5 96.51377054423835 233.09907977092652 100.57328822902747 228.40284093185852 103.0 C224.81840426028484 104.85220448986786 224.0348513551811 105.87907635091965 224.01531277451707 108.75 C224.00031072505263 110.95434325976524 224.23436436581403 111.0 235.54965992688432 111.00000000000001 C251.818845819084 111.00000000000003 256.0000000000001 113.6474832801616 256.0 123.94904016319461 C256.0 131.7573469967193 252.97081555086962 134.46413593164397 240.90618255765474 137.4364255386351 C235.62958296436486 138.73638900542346 229.48461970749807 140.73244160798944 227.2507086535063 141.87209798878172 C219.80264454100015 145.67181677131788 219.759253467898 145.80936991733267 216.13250262336172 177.11769364130072 C214.32421180092385 192.72796213858533 212.32794409356248 207.28919928065315 211.69635216255867 209.47599840145148 C210.19650071755683 214.66902519652984 204.20316589795723 220.59893292215824 199.0527474997872 221.98579657330947 C195.16101109190976 223.03373236156787 195.0 223.23827469552623 194.99999999999997 227.13425201646 C194.99999999999994 231.65411098838536 192.8634424258187 235.97919165874447 189.63351466264882 237.9977467712119 C187.02593771628796 239.6273614753696 174.88764334553397 240.5101571513056 168.42131252094555 239.54047095929013 C161.8539257267537 238.5556304887505 158.3193666154936 234.88821862199828 157.4226447754209 228.1283985229002 L156.74233865888763 223.0 L128.00709331132902 223.0 L99.27184796377041 223.0 L98.64338257901329 227.5851548668266 C97.81307937434609 233.6428771728735 94.82006612176575 237.67809352044543 90.20690207540034 238.95931901889026 C86.6126914825223 239.95754804610291 73.76639417423286 240.16720751492952 69.29805472315527 239.30056426056933 Z M88.80000000000001 229.8 C89.46000000000001 229.14 90.0 227.34 90.0 225.8 L90.0 223.0 L79.5 223.0 L69.0 223.0 L69.0 225.8 C69.0 230.202205126621 70.61093195586145 231.0 79.50000000000001 231.0 C84.46666666666671 231.0 88.0641975308642 230.5358024691358 88.80000000000001 229.8 Z M185.8 229.8 C186.46 229.14 187.0 227.34 187.0 225.8 L187.0 223.0 L176.5 223.0 L166.0 223.0 L166.0 225.8 C166.0 230.202205126621 167.61093195586142 231.0 176.5 231.0 C181.4666666666667 231.0 185.06419753086422 230.5358024691358 185.8 229.8 Z M109.55139617659825 204.04314011344695 C103.44473132847573 200.01770568715028 103.08802831845185 198.15178260445626 103.04346953066235 170.0 C102.99906061921492 141.94290772284464 103.36390216069721 139.94268850483851 109.32333043794787 135.571084854745 C111.89838478888609 133.68212563314933 113.54076089014356 133.5 128.0 133.5 C142.45923910985647 133.5 144.1016152111139 133.68212563314933 146.67666956205215 135.571084854745 C152.6215642202059 139.93202720993958 152.99673681958296 141.96716784967742 152.99844600092078 169.86384548662878 C152.99990988979033 193.75694271779136 152.8785624629168 195.4437599135588 150.90574429348612 198.95391617590002 C147.30375814698985 205.3627856930734 145.21352184495876 206.0008682605039 127.84570794336351 205.99341079429735 C114.33301430599454 205.98760865611627 112.14779513522913 205.7546527004996 109.55139617659825 204.04314011344695 Z M141.77749375659457 196.44329603135094 C143.97287062538447 194.90559421635447 144.0 194.582989671613 144.0 170.0147246027796 C144.0 148.737269336184 143.77290157133612 144.91575871419337 142.4285714285715 143.57142857142864 C140.12652931456537 141.26938645742234 115.87347068543471 141.2693864574223 113.57142857142854 143.57142857142858 C112.22709842866387 144.91575871419332 112.0 148.73726933618372 112.0 170.01472460277955 C112.0 200.20898360254623 110.73705950221772 198.0 128.0 198.0 C136.83969914614437 198.0 140.07725076457862 197.6341925794225 141.77749375659457 196.44329603135094 Z M116.66666666666666 191.33333333333331 C115.58011954543795 190.2467862121046 115.90649152234678 186.49350847765322 117.2 185.2 C117.97042441193969 184.42957558806032 121.91587528692217 184.0 128.2214387911498 184.0 C137.69582385672845 184.0 138.08265157757842 184.08729441072657 139.16846083160027 186.47038613502707 C141.22854727390356 190.9917833636954 139.10909529954205 192.0 127.5442219512245 192.0 C121.92823321138435 192.0 117.03333333333333 191.7 116.66666666666666 191.33333333333331 Z M116.66666666666666 171.33333333333331 C115.58011954543795 170.2467862121046 115.90649152234678 166.49350847765322 117.2 165.2 C117.97042441193969 164.42957558806032 121.91587528692217 164.0 128.2214387911498 164.0 C137.69582385672845 164.0 138.08265157757842 164.08729441072657 139.16846083160027 166.47038613502707 C141.22854727390356 170.9917833636954 139.10909529954205 172.0 127.5442219512245 172.0 C121.92823321138435 172.0 117.03333333333333 171.7 116.66666666666666 171.33333333333331 Z M117.2 157.8 C115.36287999778882 155.9628799977888 115.77214019435212 152.19231438417097 117.93425854591067 151.03518375848802 C118.99810074616153 150.4658326913196 123.69095788901868 150.0 128.3628299744821 150.0 C137.00545151596268 150.0 140.0 151.15796780047202 140.0 154.5 C140.0 157.92110999113606 137.03390873753597 159.0 127.62857142857143 159.0 C121.78412698412697 159.0 117.95995872033025 158.55995872033023 117.2 157.8 Z M34.58929967920136 131.75 C34.313570138240415 129.9625 33.81560645704246 126.3625 33.4827137209837 123.75 L32.87745420087686 119.0 L22.093714662550518 119.0 C12.71355388787659 119.0 11.082835557238315 119.2509863963829 9.564854727239974 120.92833633305565 C7.5427680807280115 123.16271692696432 8.205144692048744 126.63125663602516 10.801152498283647 127.40221816674256 C11.735518624227641 127.67970590656299 15.424999999999999 128.57168635183186 19.0 129.38439693400673 C22.575000000000003 130.1971075161816 27.525 131.76130399643858 30.0 132.86038911235553 C32.475 133.95947422827248 34.63289087639524 134.89051240723126 34.79531305865609 134.929362843375 C34.95773524091694 134.96821327951875 34.865029220162306 133.5375 34.58929967920136 131.75 Z M236.5 129.58300555681143 C240.35 128.64468308843064 244.26448137577236 127.65662902231011 245.19884750171633 127.38732985432137 C247.79317593358948 126.63960316689767 248.45842467266945 123.1640349046332 246.43514527276002 120.92833633305565 C244.9171644427617 119.2509863963829 243.28644611212343 119.0 233.9062853374495 119.0 L223.12254579912315 119.0 L222.5172862790163 123.75 C222.18439354295754 126.3625 221.68790916797215 129.95461461996 221.41398766793765 131.73247693324447 L220.9159485769658 134.96495386648894 L225.2079742884829 133.1270001374509 C227.5685884298173 132.11612558647997 232.65 130.5213280251922 236.5 129.58300555681143 Z M133.0 41.0 C133.0 38.06666666666666 132.88888888888889 38.0 128.0 38.0 C123.11111111111111 38.0 123.0 38.06666666666666 123.0 41.0 C123.0 43.93333333333334 123.11111111111111 44.0 128.0 44.0 C132.88888888888889 44.0 133.0 43.93333333333334 133.0 41.0 Z M145.96364518148272 28.543804876499912 C148.49866653328212 25.489291010961008 146.01843683167576 25.0 128.0 25.0 C109.98156316832424 25.0 107.50133346671792 25.489291010961004 110.03635481851728 28.543804876499912 C111.0064558930374 29.712705162484706 114.5505293762612 30.0 128.0 30.0 C141.44947062373882 30.0 144.99354410696262 29.712705162484706 145.96364518148272 28.543804876499912 Z" fill="currentColor"/></svg>
