<svg xmlns="http://www.w3.org/2000/svg" xmlns:xlink="http://www.w3.org/1999/xlink" width="256" height="256" xml:space="preserve" version="1.1" viewBox="0 0 256 256">
  <path d="M15.539351586954629 253.85229395134576 C11.642073305230863 250.7866944081552 9.999746841130136 246.16909859074062 10.001553999079242 238.28211863089643 C10.00435592699941 226.0536637986937 15.350806776521376 220.0 26.147883219791776 220.0 L32.0 220.0 L32.010317403419066 199.25 C32.01599197529955 187.8375 32.485492376925 173.1 33.0536516292534 166.5 C34.01207965575261 155.36645786551674 37.212937680606736 132.04908246918785 38.505636744079155 126.78377935213709 C38.95829994250978 124.94003318025648 36.45879526053016 121.34525517318656 25.533166849995666 108.12682311243354 C10.93225949039063 90.46183445400577 10.95524036956226 90.51221982862337 13.367575908883286 81.45387242005137 C15.227985705944928 74.4680124559609 16.658092436990273 72.12391739216889 19.49390655316983 71.41217335614108 C20.833804110427398 71.07588047649666 28.786399949474077 71.95498220778813 37.16634175105134 73.365732759011 C45.5462835526286 74.77648331023386 52.51186882449238 75.82146450884208 52.645420132970855 75.6879132003626 C52.77897144144932 75.55436189188312 55.05088653772662 71.18244679560537 57.6941203469204 65.9725463197454 C60.584332507485705 60.275843418060646 63.39582519719542 56.06515480459571 64.7473775353712 55.40909373103676 C65.98343517982536 54.809095283106984 68.71350556949209 51.65894633005474 70.81420062351947 48.408762724254004 C75.82196262623 40.660781439794114 85.7794858724981 31.748944446960138 94.0542781938433 27.60923478088064 L100.68825168653555 24.29039327698308 L97.87113513858264 16.39519663849154 C92.21876224014387 0.5539650999232464 92.98168487242494 -0.14309461391902845 115.56901627554164 0.2251691167512888 L132.42567557362295 0.5 L133.96145194861435 3.2382840163786 C135.39063747482083 5.786516914460994 135.3131527397584 6.488373376893131 132.84504067233786 13.35073349891509 L130.19285302106994 20.72489896507298 L135.84642651053497 21.983194634019057 C144.03268109799336 23.805180093566616 150.6818082650471 26.62203789175602 157.42435707762309 31.12453912324237 C162.17119086699213 34.29435302839818 163.92586300495418 34.95555690336533 166.24133398034223 34.44699416623676 C172.47195647174703 33.078519906820674 176.5614894520638 37.011616969163825 177.2140775243165 45.0 L177.5 48.5 L195.07610404031445 49.0 C212.10373158925972 49.48439709704406 212.77956205783246 49.5843423732088 216.73330688522864 52.20277824091299 C219.73723611564367 54.19218230828267 221.762692405483 56.801069999942925 224.4072028449142 62.08713507287071 C226.3832412802114 66.0370032979453 228.0 70.01825308953447 228.0 70.93435683195773 C228.0 73.29203809437567 225.99920066927183 75.0 223.23728479961324 75.00000000000001 C221.3020866040268 75.00000000000003 220.3495440198547 73.84208090385555 217.97296357409815 68.60064507713264 C213.32980101967868 58.36036955627383 212.52725170568408 58.00000000000003 194.36514130819836 58.000000000000014 L179.0 58.0 L179.0 61.87499999999996 C179.0 64.00624999999994 179.28125 67.15624999999994 179.625 68.87499999999997 L180.25000000000003 72.00000000000003 L188.17465992688426 72.00000000000001 C193.31612089489127 72.0 197.13367694264178 72.53488683863529 199.04446617402635 73.52299435224742 C206.7760679874673 77.52116103575047 216.41500734430116 109.4036941090206 217.71621475458164 135.28317559389802 L218.31390793957846 147.17058846332588 L224.90695396978924 152.16397474915212 L231.5 157.15736103497835 L231.81317452788375 144.82868051748918 C232.1775417175124 130.48470847626714 230.74179239059032 114.43757671005575 227.89178848396983 101.0 C224.49904693470222 85.00345181290034 224.51834838610992 85.32813963797948 226.8848663321893 84.06161766906742 C230.04198014379222 82.37198163339936 232.73807968962774 84.31358574567113 234.06200047410266 89.2302521825036 C238.6491954145988 106.26579363454758 241.7798774185231 136.4774736925504 240.52235295390904 151.57388910799745 C239.64698305231676 162.08258937465303 237.6175056425286 165.0 231.18256769368742 165.0 C227.9705420722351 165.0 225.92307413523213 163.9755716546368 219.69036261067288 159.25 C215.51923758348642 156.0875 211.6816198535381 152.6 211.16232321078778 151.5 C210.64302656803744 150.4 209.74652174577676 143.2 209.1700902724307 135.5 C208.05657055623243 120.62554880989373 205.6120432957361 107.93212428760674 201.65938557710084 96.5 C196.19013722187634 80.68149725893718 195.5989126123141 80.00000000000007 187.34501243788793 80.00000000000003 C181.07912082104724 80.0 181.00055174910463 80.03429185679458 181.04424694897216 82.75 C181.06858277090686 84.2625 184.11024477047727 115.64999999999999 187.8034958369064 152.5 L194.51849777586847 219.5 L201.50924888793423 220.05317396558235 C205.6668099972966 220.3821592962212 209.57959582444576 221.3177655827272 211.16384736043975 222.36173452156572 C213.88068446938505 224.15203958940535 217.00000000000006 229.51791012618554 217.0 232.40112912253255 C217.0 233.78712739125137 218.7926967086871 234.0 230.464816241512 234.0 C242.98937242388743 234.0 244.00578885021804 234.14229947375307 245.02021532755145 236.03777268504663 C246.4818242063737 238.76881385668386 245.43533002830955 241.6495952787205 242.71688083760534 242.37837480826857 C241.49759637692242 242.70524851209953 235.2837294350409 242.9788352408972 228.90828763342424 242.98634531670788 L217.31657526684847 243.0 L216.14022587915036 246.92630432224445 C215.49323371591643 249.08577169947887 213.58747790400076 252.01077169947888 211.90521296378222 253.42630432224445 L208.84654943611216 256.0 L139.45845847654408 256.0 C71.093823355968 256.0 70.05457988151915 255.97050053330943 69.0 254.0 C68.23950997736534 252.57901139454756 68.23950997736534 251.42098860545244 69.0 250.0 C70.05402461423465 248.03053699310215 71.09382335596797 248.0 137.1009252125773 248.0 C181.3944391153434 248.0 204.787591446985 247.64886136622553 206.06574145408933 246.96481624151198 C207.70559089274033 246.08719545558031 208.0 244.823871276183 208.00000000000003 238.66481624151362 C208.00000000000006 234.34773694256828 207.51309376404302 230.91309376404487 206.80000000000166 230.2000000000016 C205.0602500596574 228.46025005965265 21.939749940348857 228.4602500596511 20.19999999999998 230.20000000000002 C19.50445859872612 230.8955414012739 19.0 234.22857142857154 19.0 238.12857142857143 C19.0 248.10935698123185 18.76904379281057 247.99699262285537 39.32142857142858 248.01531277451704 C48.769642857142856 248.02373480050144 57.098534129528 248.4100627647735 57.830075843395555 248.87381936178826 C58.585542000348504 249.35274271976888 59.01755472300324 250.96617511631362 58.830075843395555 252.60850658727122 L58.5 255.5 L38.41053142648909 255.77019417604856 C19.05032048944475 256.0305801699896 18.22008535943373 255.96095944409893 15.539351586954629 253.85229395134576 Z M185.6952264351879 216.25 C185.38701193064884 214.1875 181.4312932180853 174.70000000000002 176.90474040726886 128.5 C172.37818759645242 82.29999999999998 168.3743549718046 44.149005571413205 168.00733457471813 43.720012380918234 C167.64031417763164 43.29101919042326 145.33818087632332 47.45351919042326 118.44703834958854 52.97001238091822 C91.55589582285376 58.48650557141318 69.2670129523662 62.99999999999998 68.91618752628287 62.999999999999986 C67.9059158375326 63.00000000000001 61.533045786136505 77.53738728913136 57.651426695648055 88.6964585176973 C46.83715597914794 119.7858607483613 41.40339539298938 153.33714225653435 40.31368911404405 195.75 L39.69063802363515 220.0 L112.97312723353792 220.0 L186.2556164434407 220.0 L185.6952264351879 216.25 Z M136.0 204.30601893224173 C132.06051345245518 202.89808233959712 132.0 202.1440520295337 132.0 154.4638579270072 C132.0 111.020718400744 132.107406921779 108.21277319592947 133.82874067158406 106.65498756211208 C136.60181987980798 104.14538536991779 155.01404086147207 104.25304607200773 157.31203412812593 106.79230004947759 C158.59272980309203 108.20745284116587 159.89121547022998 118.10513584921105 163.482769503743 153.828616444874 C168.33220280119886 202.06362410036954 168.33198801537296 202.16288143095656 163.37409860480795 204.0478676251348 C160.77141944203254 205.037404479114 138.6306871584266 205.2462025499412 136.0 204.30601893224173 Z M158.99469657949737 195.25 C158.99177969822094 194.8375 157.19416623744712 176.725 155.0 155.0 C152.80583376255288 133.275 151.00822030177906 114.9375 151.00530342050263 114.25 C151.0017062503451 113.40215799036396 149.2305048423986 113.0 145.5 113.0 L140.0 113.0 L140.0 121.5 L140.0 130.0 L143.75 130.01531277451707 C147.98197033870804 130.03259362986628 149.35652623784594 130.71614432470128 150.30026031277657 133.27268120235368 C151.28883025830658 135.95067661337242 147.66825428907177 139.0 143.5 139.0 L140.0 139.0 L140.0 147.0 L140.0 155.0 L143.75 155.01531277451704 C147.89233447799563 155.0322276102066 149.44188470836977 155.74761415556566 150.21492837731608 158.0 C151.28706302186293 161.1238350350846 149.12943123515686 163.0 144.464816241512 163.0 L140.0 163.0 L140.0 171.5 L140.0 180.0 L144.53222420405484 180.0 C148.31390572628163 180.0 149.20514494505838 180.37260315423103 149.91405798478615 182.25 C151.35182776401268 186.05761009770427 149.5110360879598 188.0 144.464816241512 188.0 L140.0 188.0 L140.0 192.0 L140.0 196.0 L149.5 196.0 C154.725 196.0 158.9976134607738 195.6625 158.99469657949737 195.25 Z M47.939925853487466 90.58592288485585 C49.07581514074416 87.33318047152656 49.87845345125021 84.54512011791684 49.72356654350091 84.39023321016757 C48.789782538698184 83.45644920536503 23.67190302744194 79.93305296159946 22.987911485296745 80.63990442287985 C22.530157667377825 81.11295699029593 21.860734105806166 83.10647515366256 21.50030357069306 85.06994478591679 C20.876164902557374 88.46998224615986 21.332573786114185 89.22865548803458 31.08996962916988 101.0105263547571 L41.33496393330689 113.38116313768066 L43.60481826861836 104.94058156884033 C44.85323815303967 100.29826170597815 46.804036566230764 93.83866529818513 47.939925853487466 90.58592288485585 Z M114.9250698979827 44.947543583464956 C133.9412814540922 41.068692554370685 149.95 37.74365125831261 150.5 37.55856292555813 C152.7344152082605 36.806628042688686 137.46244184048268 30.88984898376822 130.48881216384527 29.805682909220558 C116.86464858292302 27.68758134182473 102.13457533650643 31.592402980976416 89.91697857595406 40.56094332672046 C85.26702570248369 43.97432246902258 78.02231567774476 52.0 79.5910405807388 52.0 C80.00854514911342 52.0 95.90885834187316 48.82639461255923 114.9250698979827 44.947543583464956 Z M121.12707933677581 20.12313617947098 C122.11509491869064 19.141333369418703 125.25689820623946 8.92356487290612 124.73212965048603 8.3987963171527 C124.47272853422065 8.139395200887316 119.75419260329494 8.056047391055756 114.24649424842889 8.213578961971455 L104.23249723958155 8.5 L106.69987401339823 15.169116336940222 L109.16725078721491 21.838232673880444 L114.83362539360746 21.292252516411203 C117.95013142712335 20.991963429803118 120.78218570154911 20.46586107818002 121.12707933677581 20.12313617947098 Z" fill="currentColor"/></svg>
