<svg xmlns="http://www.w3.org/2000/svg" xmlns:xlink="http://www.w3.org/1999/xlink" width="256" height="256" xml:space="preserve" version="1.1" viewBox="0 0 256 256">
  <path d="M48.92431402670948 253.42112022540297 C46.501979808337055 250.84434648476926 46.499738371911 250.82045956532698 46.17963128850866 224.17112022540297 C45.83460123836382 195.4469108419334 46.27341808783629 192.0 50.27524915293619 192.0 C54.353449299576894 192.0 54.99999999999999 193.73791045520974 55.0 204.6999999999999 L55.0 215.0 L74.34708978821723 215.0 L93.69417957643446 215.0 L91.09708978821723 209.75441829765575 L88.5 204.5088365953115 L88.5 171.66735472082036 L88.5 138.8258728463292 L90.86078396230974 136.91293642316458 C92.89000748015188 135.26866247010682 94.89134958052807 135.0 105.11078396230974 135.0 L117.0 135.0 L117.0 119.5 L117.0 104.0 L113.45034007311588 104.00000000000003 C108.58952962779803 104.00000000000007 104.0499859430745 101.44183630059955 102.86164756471575 98.03296659744491 C101.88681185833792 95.23655105996615 101.73756973330015 95.18904433612762 92.85329625314012 94.8471101797772 C84.11540950780049 94.51081009410048 83.74368436235105 94.39829352813047 80.9172686047889 91.23422345754075 C78.15305140906095 88.13978242415364 77.99999999999997 87.49709914229224 77.99999999999999 78.98422345754075 L78.0 70.0 L66.5 70.0 L55.0 70.0 L55.0 125.52143879114982 L55.0 181.04287758229964 L52.38252748968043 182.23547786909177 C50.07237385839884 183.2880543039304 49.544026397167215 183.15511941118837 47.88252748968043 181.10325511563212 C46.076850414845765 178.87333832034395 46.001777885034166 175.81308154681224 46.04355106549559 106.13921603769016 C46.067504151518165 66.18764721696057 46.46598139336453 31.5388263094086 46.9290560473764 29.141836243130214 C48.82380950886312 19.334119094538764 55.652940705831135 15.000000000000073 69.21188975909112 15.000000000000028 L78.0 15.0 L78.0 10.576923076923833 C78.0 6.971153846156042 78.56856187291012 5.58528428093725 81.07692307692227 3.076923076923805 L84.15384615384454 -5.684341886080802e-14 L128.0000000000002 -2.842170943040401e-14 L171.84615384615586 0.0 L174.92307692307793 3.0769230769241602 C177.43143812708976 5.585284280937674 178.00000000000003 6.971153846156888 178.0 10.57692307692416 L178.0 15.0 L186.78811024090805 15.000000000000014 C201.63699014404966 15.000000000000039 208.23396634537286 20.02520405068207 209.47999803346562 32.285399093892494 C209.82738029751707 35.703429592251624 209.97399166619016 86.27637099491886 209.80580107496138 144.66971332204193 L209.5 250.83942664408386 L207.0756859732905 253.41971332204193 L204.65137194658098 256.0 L127.99999999999997 256.0 L51.34862805341897 256.0 L48.92431402670948 253.42112022540297 Z M201.0 235.5 L201.0 223.0 L128.0 223.0 L55.0 223.0 L55.0 235.5 L55.0 248.0 L128.0 248.0 L201.0 248.0 L201.0 235.5 Z M150.99944312559364 212.44427449139047 C152.92413684467016 211.31362546165522 155.50423415572322 208.61362546165523 156.73299270571164 206.44427449139047 C158.69022735905935 202.98881215152244 158.96913785332225 201.04753045702068 158.983549580118 190.7798769423964 L159.0 179.0597538847928 L146.25 178.7798769423964 L133.5 178.5 L133.5 175.0 L133.5 171.5 L146.25 171.2201230576036 L159.0 170.9402461152072 L159.0 167.4701230576036 L159.0 164.0 L128.0 164.0 L97.0 164.0 L97.0 167.4701230576036 L97.0 170.9402461152072 L109.75 171.2201230576036 L122.5 171.5 L122.5 175.0 L122.5 178.5 L109.75 178.7798769423964 L97.0 179.0597538847928 L97.0 190.56971500969286 C97.0 200.130752142523 97.3408279560311 202.7477541196062 99.01286275922477 206.02521309098194 C103.0201394131477 213.88012424181335 106.85377680937412 214.95271404822088 130.0 214.69491345620747 C145.64766963652647 214.52063109218187 147.8704071289592 214.28240669836774 150.99944312559364 212.44427449139047 Z M201.0 142.5 L201.0 70.0 L189.5 70.0 L178.0 70.0 L178.0 78.98422345754076 C178.0 87.49709914229223 177.846948590939 88.13978242415367 175.0827313952111 91.23422345754076 C172.25631563764895 94.3982935281305 171.8845904921996 94.51081009410048 163.14670374685977 94.8471101797771 C154.26243026669943 95.18904433612744 154.11318814166185 95.2365510599659 153.13835243528433 98.03296659744471 C151.95001405692605 101.44183630059928 147.41047037220224 104.00000000000003 142.5496599268842 104.00000000000001 L139.0 104.0 L139.0 119.5 L139.0 135.0 L150.8892160376903 135.00000000000003 C165.4077483556448 135.00000000000006 166.98860948840877 135.8260578482382 167.7561081730258 143.81356896884404 L168.2544585269928 149.0 L172.37722926349642 149.0219620004909 C180.4889946457536 149.06517337621204 189.40232868852473 155.2742946750935 193.12892248698193 163.47780756439602 C195.63629575698937 168.9973973161189 195.54069467725074 178.2104668206469 192.91597025054398 184.0 C189.18044047317554 192.23971208881207 183.6923199363497 196.37244397416222 173.80845804592172 198.3885733572884 L167.5263275269877 199.6700145660251 L166.79632466708063 203.94621636996405 C166.3948230941317 206.2981273621305 165.16657580023002 209.74737408477483 164.06688623618797 211.6112090869515 L162.06745066520241 215.0 L181.5337253326012 215.0 L201.0 215.0 L201.0 142.5 Z M178.16325350707052 187.7880901323583 C185.28571747039513 183.78504147360997 188.46719628382783 175.44725771818472 185.54282586171792 168.4482541288061 C183.3892476449789 163.29401595329864 181.30226614853592 161.08594031889317 176.5 158.88073113664592 C171.19764191082595 156.44587884313563 168.0 156.4426663948764 168.0 158.8721917782796 C168.0 160.27095276244722 168.9734651632292 160.9000469146397 171.84958793915743 161.3599574964087 C182.94186526059474 163.1336841810768 186.4923889023978 176.20067214746817 177.85652315878002 183.46727409206426 C175.9183246762691 185.0981605926373 173.62760820236224 186.0 171.42327471805652 186.0 C168.66666666666666 186.0 168.0 186.38949060275544 168.0 188.0 C168.0 190.78065323485515 173.0251314420658 190.67587626180912 178.16325350707052 187.7880901323583 Z M172.06574145408933 176.96481624151198 C175.520190570081 175.11605118011005 173.85587541257135 170.0 169.8 170.0 C168.36666666666667 170.0 168.0 170.8148148148148 168.0 174.0 C168.0 178.14892565109616 168.78440932975528 178.7209319006605 172.06574145408933 176.96481624151198 Z M117.0 150.0 L117.0 144.0 L107.0 144.0 L97.0 144.0 L97.0 150.0 L97.0 156.0 L107.0 156.0 L117.0 156.0 L117.0 150.0 Z M130.0 150.0 C130.0 144.66666666666666 129.77777777777777 144.0 128.0 144.0 C126.22222222222223 144.0 126.0 144.66666666666666 126.0 150.0 C126.0 155.33333333333334 126.22222222222223 156.0 128.0 156.0 C129.77777777777777 156.0 130.0 155.33333333333334 130.0 150.0 Z M159.0 150.0 L159.0 144.0 L149.0 144.0 L139.0 144.0 L139.0 150.0 L139.0 156.0 L149.0 156.0 L159.0 156.0 L159.0 150.0 Z M130.0 119.5 C130.0 104.66666666666666 129.91397849462365 104.0 128.0 104.0 C126.08602150537635 104.0 126.0 104.66666666666666 126.0 119.5 C126.0 134.33333333333334 126.08602150537635 135.0 128.0 135.0 C129.91397849462365 135.0 130.0 134.33333333333334 130.0 119.5 Z M145.0 78.0 L145.0 61.0 L128.0 61.0 L111.0 61.0 L111.0 78.0 L111.0 95.0 L128.0 95.0 L145.0 95.0 L145.0 78.0 Z M102.0 72.9230769230769 L102.0 58.84615384615381 L104.92307692307693 55.923076923076906 L107.84615384615387 53.0 L127.99999999999997 53.0 L148.15384615384608 52.99999999999999 L151.07692307692304 55.92307692307689 L154.0 58.8461538461538 L154.0 72.9230769230769 L154.0 87.0 L160.42857142857162 87.0 C170.63736367268683 87.0 170.0 89.6550477768194 170.0 47.128571428571256 C170.0 19.8952380952378 169.68977051730843 10.089770517308477 168.79999999999998 9.20000000000001 C166.9745299404298 7.374529940429793 88.67169879995141 7.485726171563843 87.1527516106527 9.315945568903821 C86.51855085593458 10.080110729661435 85.94308016539863 16.219902296633688 85.78030689521053 23.958784254849306 C85.54021664760307 35.373619647697765 85.24892114854143 37.44379197718318 83.75000000000001 38.38772383121626 C80.34505405288596 40.53195733133691 78.53154527335315 38.00018966306903 78.20431008922367 30.645606134956754 L77.90862017844734 24.000000000000007 L69.53609755745956 24.000000000000007 C64.93121011591627 24.000000000000007 60.43512725319279 24.27953160400079 59.544802306962914 24.621181342223974 C55.89210148216983 26.022854165031692 55.000000000000014 30.307710478476537 55.00000000000001 46.45034007311578 L55.0 62.0 L66.45431008922367 62.0 L77.90862017844735 62.0 L78.20431008922367 55.25 C78.47518722332724 49.0664252868873 78.69342727523293 48.47257965678202 80.80504205593856 48.17323613368586 C85.5940044836078 47.49435052530109 86.0 48.969683747660014 86.0 67.0510161440136 C86.0 87.09777699856312 85.95308705624147 87.0 95.57142857142857 87.0 L102.0 87.0 L102.0 72.9230769230769 Z M119.2 75.8 C117.65749938210575 74.25749938210575 117.65749938210574 70.74250061789427 119.19999999999999 69.2 C119.92280701754386 68.47719298245615 123.4222222222222 68.0 128.0 68.0 C136.02281645338377 68.0 138.0 68.8897325959773 138.0 72.5 C138.0 76.1102674040227 136.02281645338377 77.0 128.0 77.0 C123.42222222222222 77.0 119.92280701754386 76.52280701754385 119.2 75.8 Z M201.0 46.45034007311579 C201.0 30.307710478477397 200.10789851783008 26.022854165031916 196.45519769303723 24.621181342224038 C195.56487274680742 24.279531604000816 191.04822942423456 24.0 186.41821253176425 24.0 L178.0 24.0 L178.0 43.0 L178.0 62.0 L189.5 62.0 L201.0 62.0 L201.0 46.45034007311579 Z M113.40738472346574 43.487014014547455 C112.63591377993414 40.413228944145736 114.43587594813722 38.0 117.5 38.0 C120.56412405186278 38.0 122.36408622006586 40.41322894414574 121.59261527653426 43.487014014547455 C121.07092252701726 45.565603491244346 120.36347019815503 46.0 117.5 46.0 C114.63652980184497 46.0 113.92907747298274 45.565603491244346 113.40738472346574 43.487014014547455 Z M134.40738472346573 43.487014014547455 C133.63591377993416 40.41322894414572 135.4358759481372 38.0 138.5 38.0 C141.5641240518628 38.0 143.36408622006584 40.41322894414573 142.59261527653427 43.487014014547455 C142.07092252701725 45.565603491244346 141.36347019815503 46.0 138.5 46.0 C135.63652980184497 46.0 134.92907747298275 45.565603491244346 134.40738472346573 43.487014014547455 Z M114.010777410693 32.512985985452545 C113.30295724192433 31.660114857453035 113.04563809317598 29.954299363196437 113.40738472346574 28.51298598545255 C113.92907747298274 26.434396508755654 114.63652980184497 26.0 117.5 26.0 C120.36347019815503 26.0 121.07092252701726 26.434396508755658 121.59261527653426 28.51298598545255 C122.36408622006586 31.586771055854264 120.56412405186278 34.0 117.5 34.0 C116.25968918698639 34.0 114.68953902179824 33.330843693453645 114.010777410693 32.512985985452545 Z M135.01077741069298 32.512985985452545 C134.30295724192433 31.660114857453035 134.045638093176 29.954299363196437 134.40738472346573 28.51298598545255 C134.92907747298275 26.434396508755654 135.63652980184497 26.0 138.5 26.0 C141.36347019815503 26.0 142.07092252701725 26.434396508755658 142.59261527653427 28.51298598545255 C143.36408622006584 31.58677105585428 141.5641240518628 34.0 138.5 34.0 C137.25968918698638 34.0 135.68953902179823 33.330843693453645 135.01077741069298 32.512985985452545 Z M113.40738472346574 18.48701401454745 C112.63591377993414 15.413228944145738 114.43587594813722 13.0 117.5 13.0 C120.56412405186278 13.0 122.36408622006586 15.413228944145736 121.59261527653426 18.48701401454745 C121.07092252701726 20.565603491244346 120.36347019815503 21.0 117.5 21.0 C114.63652980184497 21.0 113.92907747298274 20.565603491244342 113.40738472346574 18.48701401454745 Z M134.40738472346573 18.48701401454745 C133.63591377993416 15.413228944145722 135.4358759481372 13.0 138.5 13.0 C141.5641240518628 13.0 143.36408622006584 15.413228944145722 142.59261527653427 18.48701401454745 C142.07092252701725 20.565603491244346 141.36347019815503 21.0 138.5 21.0 C135.63652980184497 21.0 134.92907747298275 20.565603491244342 134.40738472346573 18.48701401454745 Z" fill="currentColor"/></svg>
