<svg xmlns="http://www.w3.org/2000/svg" xmlns:xlink="http://www.w3.org/1999/xlink" width="256" height="256" xml:space="preserve" version="1.1" viewBox="0 0 256 256">
  <path d="M0.6704673463950231 255.3371340130617 C-0.4171666562217361 254.2495000104449 -0.0949550504778287 235.38151871598686 1.063618396326994 232.31509966117451 C3.8663846023637154 224.8969633970668 12.012254469702171 220.05617966002958 21.75 220.02196200049093 L28.0 220.0 L28.0 173.51905202821496 L28.0 127.03810405642992 L30.512985985452513 126.40738472346574 C36.09213191454097 125.00710823196322 35.99999999999999 124.20592933614782 36.0 174.12244471544216 L36.0 220.0 L61.61500993348385 220.0 L87.2300198669677 220.0 L85.4204111577295 217.25 C80.42391482019201 209.65699668492834 80.5 210.2561947240857 80.5 178.5 L80.5 148.5 L128.0 148.5 L175.5 148.5 L175.8103652617265 152.25 L176.120730523453 156.0 L185.8103652617265 156.02196200049073 C196.63754586782136 156.04650230074014 201.5083423218269 157.6238484114776 206.19695208635878 162.623901486712 C210.83605955952436 167.57116405546194 211.99999999999997 171.8586533006774 211.99999999999997 184.00000000000023 C211.99999999999997 196.14134669932326 210.8360595595247 200.42883594453735 206.1969520863587 205.37609851328816 C201.38133444862538 210.5115960249065 196.71178724904604 211.95358456418606 184.81809421063815 211.97803799950916 C173.3101826029591 212.00169826813163 173.57669110902356 211.88306497717366 169.60494905296645 218.75 C169.03451335465476 219.7362535934409 174.2748451212097 220.0 194.44098300562504 220.0 L220.0 220.0 L220.0 158.0 L220.0 96.0 L196.10857970280472 95.99999999999999 L172.21715940560946 95.99999999999997 L170.7015470109213 99.74999999999999 C167.3261207578504 108.10163957049873 160.11194912061734 112.00000000000007 148.03211863089606 112.00000000000003 L140.0 112.0 L140.0 115.82568597329053 C139.99999999999994 122.02097620176609 137.0608395587018 124.0 127.85986280534189 123.99999999999999 C121.30142606349821 123.99999999999997 120.07281693229727 123.70641251525521 118.17431402670948 121.6855487786324 C116.75385314811555 120.17353746150822 116.0 118.09328647975909 116.0 115.68554877863241 L116.0 112.0 L107.71188975909078 111.99999999999999 C97.87559550772703 111.99999999999997 92.39243922350931 109.73093505529103 87.55796606151782 103.65981062912087 L84.5 99.81962125824174 L84.19587273087052 77.90981062912088 L83.89174546174105 56.00000000000003 L59.945872730870526 56.000000000000014 L36.0 56.0 L36.0 85.5214387911498 L36.0 115.04287758229961 L33.529613864972916 116.16846083160024 C31.64065854247927 117.02912647391807 30.699217357573882 116.99526200918449 29.52961386497292 116.02457732500827 C28.220376161375814 114.93800653852607 28.000000000000004 110.52666174599608 28.000000000000004 85.40577483882167 L28.000000000000004 56.056439108527684 L14.250000000000002 55.77821955426384 L0.5 55.5 L0.5 28.0 L0.5 0.5 L128.0 0.5 L255.5 0.5 L255.5 28.0 L255.5 55.5 L241.75000000000003 55.77821955426421 L228.00000000000006 56.05643910852842 L228.00000000000003 59.99999999999997 L228.0 63.94356089147152 L241.75 64.22178044573576 L255.5 64.5 L255.5 80.0 L255.5 95.5 L241.75 95.7782195542642 L228.00000000000003 96.0564391085284 L228.0 158.02821955426418 L228.0 220.0 L234.25 220.02196200049113 C241.86508149366946 220.04872078825176 247.32950980266975 222.33338675755445 251.7092533246503 227.32163905079926 C255.55190850564503 231.6981815178518 256.1998304721708 234.73334210243286 255.80329744345983 246.5 L255.5 255.5 L128.42046734639501 255.75380067972836 C58.52672438691229 255.89339105357897 1.0392243869122861 255.70589105357894 0.6704673463950231 255.3371340130617 Z M248.0 242.86803398874986 C248.0 236.97252074663055 245.53770021265493 232.16091157545642 241.38279390435434 229.93727320121468 C237.35055693178398 227.7792854631202 18.649443068216 227.7792854631202 14.617206095645656 229.93727320121465 C10.462299787345083 232.16091157545642 8.0 236.97252074663058 8.0 242.8680339887499 L8.0 248.0 L128.0 248.0 L248.0 248.0 L248.0 242.86803398874986 Z M155.50857745555723 218.13501809544152 C160.55007375191502 215.84471516924836 165.57476833271764 210.19304244646293 166.93987174655788 205.27733429165062 C167.52952975798945 203.15398842205792 167.99128811387882 191.53841500473214 167.99442306559732 178.75 L168.0 156.0 L128.0 156.0 L88.0 156.0 L88.0055769344027 178.75 C88.00871188612119 191.5384150047311 88.47047024201059 203.15398842205806 89.06012825344209 205.27733429165053 C90.42523166728225 210.19304244646273 95.44992624808494 215.84471516924833 100.49142254444273 218.13501809544152 C104.00466235806795 219.73104890704346 107.40388166736449 219.95607599901817 128.0 219.95607599901817 C148.59611833263537 219.95607599901817 151.99533764193208 219.73104890704346 155.50857745555723 218.13501809544152 Z M197.67906630571366 201.428915145255 C202.39528994993844 197.96633841722758 203.9967011780591 193.5456758640227 203.99844600092075 183.98439827942224 C204.0003818736333 173.37620602115962 202.22680695524753 169.4613440609817 195.9641182772383 166.25 C192.52181146942215 164.484874493734 189.89788447728148 164.0 183.78811024090854 164.0 C176.66666666666666 164.0 176.0 164.1712011376431 176.0 166.0 C176.0 167.85310734463278 176.66666666666666 168.0 185.07692307692307 168.0 C193.77597840755732 168.0 194.27553237722728 168.12168622338115 197.07692307692307 170.9230769230769 C199.92385392385393 173.77000777000774 200.0 174.11066126855596 200.0 184.0 C200.0 193.889338731444 199.92385392385393 194.22999222999223 197.07692307692307 197.0769230769231 C194.27553237722728 199.87831377661885 193.77597840755732 200.0 185.07692307692307 200.0 C176.52735823014189 200.0 176.0 200.1218058358048 176.0 202.09652971875113 C176.0 204.1015051309408 176.41176217032378 204.177926674146 185.42906630571366 203.84652971875113 C193.03096582488382 203.5671506140824 195.40477383613882 203.0986646677402 197.67906630571366 201.428915145255 Z M191.79998367544937 185.16268978811075 C192.1967290545813 176.7812385677188 191.4359758982627 176.0 182.87755528455784 176.0 L176.0 176.0 L176.0 184.04206425394725 L176.0 192.0841285078945 L183.75 191.79206425394725 L191.5 191.5 L191.79998367544937 185.16268978811075 Z M132.0 114.0 C132.0 112.33333333333333 131.33333333333334 112.0 128.0 112.0 C124.66666666666667 112.0 124.0 112.33333333333333 124.0 114.0 C124.0 115.66666666666667 124.66666666666667 116.0 128.0 116.0 C131.33333333333334 116.0 132.0 115.66666666666667 132.0 114.0 Z M156.9383364233079 102.17273470272994 C163.26384292880573 98.78032865761853 164.0 95.92321793195806 164.0 74.76560172057759 L164.0 56.0 L128.0 56.0 L92.0 56.0 L92.0 74.76560172057768 C92.0 104.51432323851859 91.36664895888408 104.0 128.00000000000009 104.0 C150.81696130422745 104.0 153.89341840401812 103.805742002071 156.9383364233079 102.17273470272994 Z M248.0 80.0 L248.0 72.0 L210.0 72.0 L172.0 72.0 L172.0 80.0 L172.0 88.0 L210.0 88.0 L248.0 88.0 L248.0 80.0 Z M220.0 60.0 L220.0 56.0 L196.0 56.0 L172.0 56.0 L172.0 60.0 L172.0 64.0 L196.0 64.0 L220.0 64.0 L220.0 60.0 Z M248.0 28.0 L248.0 8.0 L128.0 8.0 L8.0 8.0 L8.0 28.0 L8.0 48.0 L128.0 48.0 L248.0 48.0 L248.0 28.0 Z M120.42371116433662 41.98065403014374 C109.95968203792503 36.80094457534907 109.08019957137222 20.82857160582386 118.89788321979177 14.269933300123283 C123.64245991779809 11.100350373005035 132.3575400822019 11.100350373005034 137.10211678020823 14.269933300123279 C146.95883058986004 20.854645445611595 146.0318126553551 36.9016369646073 135.5001849715428 41.99991045681239 C130.2500899990488 44.54143782878423 125.58495933287506 44.53547929048664 120.42371116433662 41.98065403014374 Z M42.45240237563929 38.59423591473133 C38.20014338743325 36.74202593478406 36.0 32.93700659416517 36.0 27.435183294344974 C36.0 23.49713170469776 36.511360100659694 22.288639899340318 39.4 19.400000000000002 C42.28863989934032 16.51136010065968 43.49713170469774 15.999999999999996 47.43518329434498 15.999999999999995 C57.36712177982958 15.999999999999991 62.70099641914105 24.505814317553266 58.42272699764528 33.521597875112086 C55.764129137877816 39.12417698100496 48.76952694847423 41.3458653923402 42.45240237563929 38.59423591473133 Z M74.31471463350769 38.53634256420486 C70.39483076416444 36.831470364780486 68.0 32.43726640705517 68.0 26.94965992688421 C68.0 23.563772166898254 68.62579233315726 22.174207666842747 71.4 19.400000000000002 C74.28863989934031 16.51136010065968 75.49713170469775 15.999999999999996 79.43518329434498 15.999999999999995 C84.74770531196761 15.999999999999993 88.44679117179989 18.02953194398171 90.55111212995925 22.098839960402945 C93.57541995369027 27.947206400662516 91.174293771701 35.74034716354696 85.52159787511209 38.422726997645285 C81.48839591882799 40.33660663884635 78.5230468634959 40.36666939632362 74.31471463350769 38.53634256420486 Z M170.32098495033702 38.386705818044085 C164.80548865783732 35.66669939768596 162.47008083351452 27.859217580607314 165.44888787004075 22.09883996040296 C167.55320882820013 18.029531943981723 171.2522946880324 15.999999999999996 176.564816705655 15.999999999999995 C180.50286829530228 15.999999999999993 181.7113601006597 16.511360100659672 184.60000000000002 19.4 C187.37420766684275 22.174207666842744 188.0 23.56377216689826 188.0 26.94965992688421 C188.0 32.55523242810951 185.58176385180857 36.85897683484135 181.46570093680873 38.578777730848294 C177.12107049614215 40.39408023690284 174.29259416744733 40.3453332917646 170.32098495033702 38.386705818044085 Z M202.32098495033702 38.386705818044085 C196.80548865783732 35.66669939768596 194.47008083351452 27.859217580607314 197.44888787004075 22.09883996040296 C199.55320882820013 18.029531943981723 203.2522946880324 15.999999999999996 208.564816705655 15.999999999999995 C212.50286829530228 15.999999999999993 213.7113601006597 16.511360100659672 216.60000000000002 19.4 C219.4886398993403 22.28863989934031 220.0 23.497131704697765 220.0 27.435183294344974 C220.0 33.038627741263944 217.77155734240114 36.77967605107835 213.32771508160636 38.63643190239861 C209.11987909477855 40.39457803617727 206.2609191970121 40.329712553687834 202.32098495033702 38.386705818044085 Z M132.8023201269712 33.25 C134.55394067962325 31.7354221730635 136.80270956035437 27.0 135.77033543604279 27.0 C135.56989348825354 27.0 133.6482425420343 28.8 131.5 31.0 C128.87361326791057 33.68966408472909 128.1156718226025 35.0 129.1862682722045 35.0 C130.06195836395128 35.0 131.6891816985963 34.2125 132.8023201269712 33.25 Z M50.808139129542326 27.835840313450724 C51.037806206688245 25.85014713268349 50.57992281111375 25.00144802067937 49.010151353824824 24.503221914543463 C45.2742837496407 23.31750359814185 42.55865215293674 27.15865215293674 45.238320552297566 29.838320552297567 C47.33057893848345 31.93057893848345 50.464870580678614 30.803727679463915 50.808139129542326 27.835840313450724 Z M82.962833643132 29.069445973048573 C84.10104734672919 26.94267421373198 82.06992836464487 23.999999999999993 79.46375518705943 24.0 C77.27157242064698 24.0 75.61278060534649 27.82850288519031 77.0530507868235 29.56392228760327 C78.73948433757548 31.59595040461519 81.74528712475471 31.34445245272411 82.962833643132 29.069445973048573 Z M178.94694921317648 29.56392228760327 C180.3872193946535 27.828502885190314 178.72842757935302 24.0 176.53624481294057 24.0 C173.93007163535512 24.0 171.8989526532708 26.94267421373198 173.037166356868 29.069445973048573 C174.2547128752453 31.344452452724113 177.26051566242452 31.59595040461519 178.94694921317648 29.56392228760327 Z M211.3809218028353 28.76876363444488 C212.8807963649778 26.375939571739995 210.05743732296662 23.529607090189387 207.11150707343916 24.46460902971051 C205.03904773536323 25.122382071346674 204.1600171642243 28.826683830891014 205.7088492470795 30.375515913746167 C206.88915219850574 31.555818865172423 210.22652725660998 30.610426342636586 211.3809218028353 28.76876363444488 Z M129.0 20.29179202694282 C129.0 20.131306412124268 128.35009366559686 20.0 127.55576370132634 20.0 C125.4351430791767 20.0 121.26728079567317 24.11776570834111 120.47060197747533 27.0 C119.86986061927672 29.173369372282853 120.3819111346045 28.917525092506697 124.38978829893681 25.04179202694282 C126.92540473452156 22.58977764176137 129.0 20.45227764176137 129.0 20.29179202694282 Z" fill="currentColor"/></svg>
