<svg xmlns="http://www.w3.org/2000/svg" xmlns:xlink="http://www.w3.org/1999/xlink" width="256" height="256" xml:space="preserve" version="1.1" viewBox="0 0 256 256">
  <path d="M20.35654860995862 251.91775403232512 C13.641850921920838 249.33545942255105 7.14981072021921 243.52857157316882 3.5185954492415643 236.85683287662937 C1.1124734509169025 232.4359941086498 0.5954791196380822 230.2825778841199 0.5522969624636733 224.50142605345275 L0.5 217.5 L25.336143833017687 217.0 L50.17228766603537 216.5 L47.22629417386955 214.32368022188857 C39.821183541988304 208.85323747647084 30.765796426575903 193.60311999259324 27.547244722832897 181.18232333957943 C25.70354023760287 174.0672353723239 26.566717063267628 171.0 30.412739043045832 171.0 C33.48769979007091 171.0 34.30760099694468 172.23258724645464 36.397066789788354 179.99645713093233 C39.95440840818193 193.21454261212938 49.12102566466707 205.8901827934917 60.389562452319645 213.17338964177608 L66.31007253694204 217.0 L115.23556865230836 217.0 L164.16106476767467 217.0 L169.53464422016953 213.43322126247523 C181.3453818623667 205.59370046091468 191.31378729768946 191.25499251149597 194.59451314298184 177.38671973659854 C196.0034073534973 171.43104707640376 196.13725151017886 166.03857936775876 195.58452451706577 137.5 C195.01388442689912 108.03652579563085 193.36010815431126 82.02677482097782 191.96891817648097 80.6355848431476 C191.5040453954309 80.17071206209755 177.342668287727 78.86205706236957 158.75 77.56581959174721 L151.0 77.02550766653772 L151.0 99.91126241918694 L151.0 122.79701717183616 L157.93933657463862 123.49390780766764 C169.10397846031145 124.6151294545572 168.5 123.07726775543074 168.5 150.38367435804128 C168.5 171.17582531426305 168.30198304447515 174.12658838409715 166.8063135347582 175.62225789381327 C163.5219526208497 178.90661880772 130.92223222744758 179.31762312290027 127.71234181425503 176.11513914803146 C124.97292769830919 173.382045902608 124.86740126991039 128.2754558729468 127.594042390441 125.54881475241616 C128.29681138286574 124.84604575999144 132.05064825100845 123.95781770787485 135.9359020974248 123.57497463660152 L143.0 122.87889632519548 L143.0 100.06034310336823 L143.0 77.24178988154097 L128.75 76.55891616955037 C109.6537687150784 75.64380639112473 40.05317587243371 78.61349079422047 38.24617719692285 80.42048946974448 C36.74218851961129 81.92447814706699 34.0 123.65130546286 34.0 145.03293364749692 C34.0 162.47778965345435 33.632626264571584 163.99999999999991 29.422444715442577 163.99999999999997 C24.8630393301786 164.00000000000003 24.643274649531552 162.54649107349152 25.38955978295759 137.32676828829068 C26.027788700235554 115.75866295386433 28.082444593752747 85.91277178678283 29.554402962551094 76.8283380361452 C29.881610308313665 74.80892395602505 30.79633918268726 72.90839359159651 31.587133794492416 72.60493722630397 C37.03865765724251 70.51299123678925 82.6721894807254 68.02141605552481 115.75 68.00967360671683 C142.4264781843955 68.0002035972289 143.0 67.95745544052721 143.0 65.97856120885018 C143.0 63.23843785579348 147.35292735570047 61.21808797184699 149.47038613502707 62.97542267499168 C150.31167376076218 63.67362939073263 150.99999999999997 65.31478930893535 151.0 66.62244471544216 C151.0 68.84863552522667 151.36606750454956 69.00085530898704 156.75 69.01343475346597 C166.30431953406756 69.03575821911386 198.3020831639332 71.9020831639332 199.21763984901253 72.81763984901252 C199.6878754342527 73.28787543425271 200.30558336067918 75.43377557127769 200.5903241299602 77.58630682017916 C200.87506489924127 79.73883806908063 201.32020745462938 82.9150042738995 201.57952980860048 84.64445394199888 L202.05102499763885 87.78890788399775 L206.7755124988194 86.36367793342474 C225.0506639613759 80.85063695084513 242.85467929137545 85.88853326982203 250.60430614771013 98.76565097693765 C254.69662341101036 105.56562368159796 256.0 112.64103696387208 255.99999999999997 128.05631360819638 C255.99999999999991 155.55232206416431 248.3471243031969 176.96236280861095 233.5817530785869 190.7746431646308 C223.64160653847722 200.07316256542165 211.39527278033674 205.0 198.22266726586693 205.0 L191.86553205322946 205.0 L186.15612542175302 211.0 L180.44671879027658 217.0 L204.68817563665027 217.0 C232.86385572185927 217.0 231.90767348079288 216.6382659072799 230.06601533187288 226.60071147850368 C227.93096906491917 238.15023940747602 219.85935579196178 248.03818403578973 209.35958157784881 251.96665301779882 C204.04037301317098 253.95682398996 202.0306403288044 253.9988935938192 114.71248739288973 253.94789449820053 C28.29738096153119 253.89742283649437 25.33871996605478 253.83376497362744 20.35654860995862 251.91775403232512 Z M207.5 243.27252333031237 C209.7 242.04741116198417 212.19330971498908 240.47241116198416 213.04068825553134 239.77252333031237 C215.65884004248494 237.61007468488634 219.66991332478636 231.6612317602548 220.80987733321626 228.25 L221.89596097917774 225.0 L115.44798048958887 225.0 C-2.8551520775033197 225.0 7.079987404318568 224.3546889083674 10.912371025773153 231.78983806729644 C13.769300362492087 237.3325232087602 19.216152248151346 242.03583859835035 25.182614501851223 244.11208533290443 C30.2188241629977 245.86461697039215 35.073997862138526 245.95023511473667 117.0 245.73123114560923 L203.5 245.5 L207.5 243.27252333031237 Z M210.54677966851696 194.44509684758788 C221.2123192013123 191.52275276843477 231.0896586071223 183.01559688649945 237.76800168202828 171.0 C247.72784342373185 153.0803690257671 251.0339416973802 118.78766475206096 244.11013144813919 105.2158754722359 C241.59283075816495 100.28155848657995 236.1584945601976 95.66366867955668 231.0777162388379 94.14143046855028 C225.63940377782953 92.51207242379235 215.4133971555956 92.83657032434819 209.0 94.84201407202593 L203.5 96.56184216697001 L203.19774041917339 101.780921083485 C203.03149764971874 104.65141448756825 203.03149764971874 106.99977309917888 203.19774041917339 106.99949577595308 C203.36398318862803 106.99921845272728 205.975 106.02931275758502 209.0 104.84414978674809 C216.19186440773746 102.02645346035781 227.41227294336815 101.73186852282817 231.27178659443692 104.25941770308452 C234.9845558509952 106.6908657401439 237.1243040928556 111.27929264426733 237.7467999901049 118.14428746860959 C238.31045663791738 124.36039264622995 237.19365426070274 127.0 234.0 127.0 C231.3239954991305 127.0 230.0205988875113 124.77080007475878 228.98838442931395 118.42863119643023 C228.4708756063625 115.24893503434106 227.4742809549231 112.25339347500376 226.77372964833748 111.77187217568068 C224.7668059589265 110.39242074438236 214.9896959511266 111.62169245030182 209.5 113.94369054485762 L204.5 116.05856003419542 L204.5 146.52863904556423 C204.5 163.28718250181709 204.8554271302834 176.9990064941231 205.28983806729644 176.99935902846653 C205.72424900430948 176.99971156280992 207.79185516855654 176.1265114348986 209.8845184322899 175.0589142997746 C214.91417793355612 172.4929734877678 219.60717473912692 167.01020533075214 223.1054880856976 159.6130245146957 C225.54017222258847 154.46488682479415 226.753029526528 150.08680913243296 229.54718176268253 136.36030113443678 C230.14429838188684 133.42691549310015 232.79921252991022 132.6384191297455 235.69354822300386 134.53486071278832 C237.8584573479371 135.95336365210835 238.0404075525121 136.59534141958315 237.47136120362075 140.80754620357908 C236.50648767733867 147.9497498066326 233.2146364634209 159.6537999777395 230.857407261525 164.32320463929256 C224.3803922150791 177.15343948726505 216.4595871903318 183.61997025251682 203.79315830348088 186.41840809131912 C201.77842742709532 186.8635295355593 200.5639026176608 188.1974434402987 199.04315830348088 191.63533820118016 C197.9194212365664 194.17573222990086 197.0 196.3792128021343 197.0 196.5319616950323 C197.0 197.1120642236135 205.7105741445964 195.77021092502756 210.54677966851696 194.44509684758788 Z M157.75 169.36971395274657 C159.9798710957296 168.77213160980355 160.0 168.6022763532147 160.0 150.383368636039 L160.0 132.0 L147.616631363961 132.0 C132.82445493633378 132.0 134.0273093665849 130.36247849863722 134.0273093665849 150.5 C134.0273093665849 165.99403113738262 134.43141302609385 168.68734048020383 136.85262500661497 169.3304382567543 C139.42097825065468 170.0126182037916 155.2400688490385 170.04234948790804 157.75 169.36971395274657 Z M105.71405995852713 60.3807266251938 C105.32132698133721 59.98799364800387 105.0 57.91472939104648 105.0 55.773472720844026 C105.0 52.464340292537244 105.76314322590433 51.07336733909298 110.08690351578537 46.50162837098019 C115.74300044028823 40.52113986478595 115.90425198108969 38.78450571684299 111.17399833754307 34.793920152297474 C106.55709233048198 30.89895809465451 105.0 27.87106599325294 105.0 22.78808052779271 C105.0 18.489772627156185 105.47713142984765 17.494308457052153 109.85370377336145 12.661545371173837 C112.52324084871024 9.713749877001502 115.01368111882076 6.081626090783431 115.38801548471814 4.590159179578123 C115.97558640073284 2.249090180685436 116.50819816948217 1.9208864887063433 119.2843117113567 2.189200579602417 C121.99267452682145 2.450966496481116 122.55176007666235 2.9529185179415993 122.82808183531482 5.370829183343361 C123.37413568608099 10.148988659780976 122.13742849044131 12.94104371996046 117.46241776954912 17.48463393750378 C115.0080879962971 19.869969376102524 113.0 22.3567457832273 113.0 23.010803731114397 C113.0 23.664861679001493 114.59503667325599 25.795036673256 116.54452594056889 27.744525940568863 C121.97720424240933 33.177204242409246 123.0 35.08284576269588 123.0 39.77216617028963 C123.0 45.06460903006492 121.00110095839835 49.150964820103894 117.02851258518714 51.97969724855419 C115.36668720093401 53.16302129656243 113.66036621959616 55.541630652853485 113.20581313592206 57.30853559477285 C112.54185603226912 59.88942026985727 111.81497511561959 60.55689623722358 109.40644925631281 60.797393291860466 C107.7683681197206 60.960959602383724 106.10679293571705 60.773459602383724 105.71405995852713 60.3807266251938 Z" fill="currentColor"/></svg>
