<svg xmlns="http://www.w3.org/2000/svg" xmlns:xlink="http://www.w3.org/1999/xlink" width="256" height="256" xml:space="preserve" version="1.1" viewBox="0 0 256 256">
  <path d="M5.6975699330753296 255.36423659974201 C5.313906469883898 254.98057313655056 5.000000000000001 222.39045028011026 5.000000000000002 182.941741363208 L5.0000000000000036 111.21681605974936 L2.5000000000000036 110.5893560016597 L3.552713678800501e-15 109.96189594357003 L4.440892098500626e-16 78.99999999999953 L-2.6645352591003757e-15 48.038104056429034 L2.4778389963160232 47.41620605620386 L4.955677992632049 46.79430805597869 L5.2278389963160246 28.647154027989345 L5.5 10.5 L14.301686830856982 10.21031326426467 C22.907657136072793 9.927068075761364 23.263437166700605 9.815886816190172 30.30168683085698 5.21031326426467 L37.5 0.5 L103.22569353720893 0.22906466512759494 L168.95138707441785 -0.04187066974481013 L169.58736084195982 2.4920506505781077 C171.0195582612691 8.198379686326877 173.3374220974917 8.0 105.23260333047546 8.0 L42.71009609183521 8.0 L35.85504804591761 12.230060837702084 L29.00000000000001 16.460121675404167 L29.000000000000007 31.730060837702084 L29.0 47.0 L128.0 47.0 L227.0 47.0 L227.0 31.730060837701842 L226.99999999999997 16.460121675403684 L220.14495195408216 12.230060837701856 L213.28990390816432 8.000000000000028 L197.26739666952437 8.000000000000043 C179.73596191256595 8.000000000000059 178.15365713902096 7.5082345605311955 179.42221780719268 2.453886272507475 L180.06777022388712 -0.11819942588601862 L199.28388511194356 0.1909002870569907 L218.5 0.5 L225.69831316914394 5.210313264265267 C232.73656283330158 9.81588681619156 233.09234286392868 9.927068075762532 241.69831316914394 10.210313264265267 L250.5 10.5 L250.77216100368435 28.647154027987398 L251.04432200736872 46.794308055974795 L253.52216100368435 47.41620605620383 L255.99999999999997 48.03810405643287 L256.0 79.00000000000131 L256.0 109.96189594356974 L253.5 110.58935600165974 L251.0 111.21681605974973 L251.0 130.0732242713869 C251.0 147.90617664403197 250.89144742439757 148.98772805842847 249.0 150.0 C247.5790113945476 150.76049002263463 246.42098860545246 150.76049002263463 245.00000000000003 149.99999999999997 C243.18667998011995 149.029540576419 243.00000000000003 147.90617664403197 243.0 137.96481624151198 L243.0 127.0 L239.0 127.0 L235.0 127.0 L235.0 187.5 L235.0 248.0 L239.0 248.0 L243.0 248.0 L243.01531277451707 205.25 C243.02373480050147 181.7375 243.4100627647737 161.90146587047167 243.87381936178872 161.1699241566037 C244.35274271976994 160.41445799964978 245.96617511631305 159.98244527699546 247.60850658727165 160.1699241566037 L250.5 160.5 L250.5 208.0 L250.5 255.5 L239.0 255.5 L227.5 255.5 L227.22395393057292 240.25 L226.9479078611458 225.0 L128.0 225.0 L29.052092138854192 225.0 L28.776046069427096 240.25 L28.5 255.5 L17.44756993307533 255.78090326640867 C11.368733396266759 255.93540006293344 6.081233396266761 255.74790006293344 5.6975699330753296 255.36423659974201 Z M21.0 187.5 L21.0 127.0 L17.0 127.0 L13.0 127.0 L13.0 187.5 L13.0 248.0 L17.0 248.0 L21.0 248.0 L21.0 187.5 Z M227.0 213.0 L227.0 209.0 L128.0 209.0 L29.0 209.0 L29.0 213.0 L29.0 217.0 L128.0 217.0 L227.0 217.0 L227.0 213.0 Z M227.0 164.0 L227.0 127.0 L128.0 127.0 L29.0 127.0 L29.0 164.0 L29.0 201.0 L128.0 201.0 L227.0 201.0 L227.0 164.0 Z M243.0 115.00499844201684 L243.0 111.0099968840337 L146.85893383831112 110.75499844201684 C56.54368524552754 110.5154520275555 50.65098004697368 110.39395602573786 49.61404869304042 108.75 C48.808956431460814 107.47360280198076 48.80895711945935 106.52639719801921 49.614051235249676 105.25 C50.651349471753775 103.60546610437662 56.66260916761934 103.48463951859635 149.3589363805204 103.2451233966092 L248.0 102.9902467932184 L248.0 78.9951233966092 L248.0 55.0 L128.0 55.0 L8.0 55.0 L8.0 78.97460705634525 L8.0 102.9492141126905 L23.75 103.22460705634525 C39.34053694915711 103.49721174609678 39.50330836590652 103.52333771673403 39.8267638663141 105.8050420559386 C40.47350872990927 110.3672787771069 38.71366369899092 111.0 25.37755528455783 111.0 L13.0 111.0 L13.0 115.0 L13.0 119.0 L128.0 119.0 L243.0 119.0 L243.0 115.00499844201684 Z M29.44866054532445 92.4485409540702 C21.35657600951156 88.45487755157527 20.841056513478 75.09894216116399 28.618333896941813 70.93666962027814 C29.872169196027187 70.2656373323887 31.033476691568385 68.81383085479696 31.1990172203667 67.71043300340759 C31.911804659628014 62.959402336250044 38.10198753719418 63.03615837910175 38.81335527535276 67.8048480585999 C38.985700676796775 68.96017419034507 40.029249202298324 70.19189566562605 41.13235199868953 70.54200689255764 C44.03082016546496 71.4619449521943 46.991927953241344 76.89425385518518 46.996261939562444 81.2996599268842 C47.0014487031792 86.57189620931841 44.49929696595693 90.89343369983769 40.46570093680873 92.57877773084829 C36.15493468489651 94.37993087539769 33.293564610889774 94.34610549195841 29.44866054532445 92.4485409540702 Z M75.18982439722421 91.97436540468395 C68.21287023690384 87.72063362301381 67.36913026686219 78.21738368938144 73.4585273747781 72.47434300696993 C75.26708237910293 70.76865609213327 77.04590730127585 68.43071940358351 77.41147164627348 67.278928143526 C78.74596536475431 63.074310755148595 84.5342180103223 63.29599538753896 85.6127044547035 67.59302764671142 C85.95224821826078 68.9458777571675 87.10237386292404 70.51960507024262 88.16853922062187 71.09019945354504 C90.95830590711695 72.58323727412808 93.99252387912489 78.00660387880426 93.99252387912489 81.5 C93.99252387912489 87.78828169836166 87.67822377300706 94.00477849435278 81.2996599268842 93.99626193956244 C79.75984696709789 93.99420600632179 77.01042097875089 93.08435256562646 75.18982439722421 91.97436540468395 Z M122.19808924713496 92.32718565269636 C114.32496944036957 88.44709155577135 113.80178141712258 75.11996155484647 121.3637036819699 71.07294357575142 C122.75758559928983 70.32696061235168 124.03347669156838 68.81383085479696 124.1990172203667 67.71043300340759 C124.36455774916502 66.6070351520182 125.2875 65.21059938076584 126.25 64.60724240062454 C128.46427457000138 63.21919251204305 131.37095689703423 64.84412806680977 131.8009827796333 67.71043300340759 C131.96652330843162 68.81383085479696 133.24241440071017 70.32696061235168 134.6362963180301 71.07294357575142 C139.6548023084843 73.7587664737172 141.5780523578999 82.04770309091892 138.54405089269716 87.91481496675306 C136.96300980737817 90.97221129112724 131.59751216286324 94.01356945736322 127.84887087746681 93.97722990638826 C126.55699189486006 93.96470635490181 124.01414016121073 93.22218644074046 122.19808924713496 92.32718565269636 Z M168.2985485148422 92.04048448809945 C164.60859947281207 89.79059067764729 161.99834783985864 85.33672267745027 162.00373806043757 81.2996599268842 C162.00802447543597 78.08930404806732 165.2769879714493 72.21467615489213 167.54297968537776 71.34513354670403 C168.38532272280287 71.02189619448889 169.70978518168727 69.23700768421065 170.48622959400979 67.37871463497461 C171.41590177366976 65.15369591874413 172.57390027739888 64.0 173.87754478223314 64.0 C175.96434382527093 64.0 179.0 66.45259504614167 179.0 68.13858077728412 C179.0 68.686228776219 180.5366947515351 70.58359410625938 182.41487722563352 72.35494817737387 C193.21951057134544 82.5450290282844 180.90041032325803 99.72429002578487 168.2985485148422 92.04048448809945 Z M215.3147146335077 92.53634256420486 C207.41973588180383 89.10258528019604 206.8002237758533 75.12079517915531 214.3637036819699 71.07294357575142 C215.75758559928983 70.32696061235168 217.03347669156838 68.81383085479696 217.1990172203667 67.71043300340759 C217.62904310296577 64.84412806680974 220.5357254299986 63.219192512043044 222.75 64.60724240062454 C223.7125 65.21059938076584 224.63544225083498 66.6070351520182 224.8009827796333 67.71043300340759 C224.96652330843162 68.81383085479696 226.1278308039728 70.2656373323887 227.3816661030582 70.93666962027814 C235.24065115211698 75.14267077673446 234.62407458013834 88.57785005442798 226.39280833018643 92.48384163824707 C222.48552400286562 94.3379694522019 219.48970293433538 94.35216714581311 215.3147146335077 92.53634256420486 Z M38.06956652971944 83.41617745962786 C39.82355251782528 81.30275363508004 38.07356712369705 78.5 35.0 78.5 C31.926432876302947 78.5 30.176447482174726 81.30275363508004 31.93043347028057 83.41617745962786 C32.653384248612646 84.28727985683254 34.03468918698639 85.0 35.0 85.0 C35.96531081301361 85.0 37.346615751387354 84.28727985683254 38.06956652971944 83.41617745962786 Z M84.5 81.5 C84.5 78.8363906328455 84.16514499521865 78.5 81.51369504303216 78.5 C79.4279032931334 78.5 78.42237052020629 79.04532274970477 78.17912151250144 80.30841326679818 C77.55445758473894 83.55203218624088 78.82064944940453 85.15326367975351 81.74431438119544 84.81697098313387 C84.06908262805965 84.54956599624475 84.5 84.03087822972279 84.5 81.5 Z M131.06956652971945 83.41617745962786 C132.82355251782528 81.30275363508002 131.07356712369705 78.5 128.0 78.5 C124.92643287630295 78.5 123.17644748217472 81.30275363508004 124.93043347028056 83.41617745962786 C125.65338424861264 84.28727985683254 127.03468918698638 85.0 128.0 85.0 C128.96531081301362 85.0 130.34661575138736 84.28727985683254 131.06956652971945 83.41617745962786 Z M177.5 81.5 C177.5 78.8363906328455 177.16514499521864 78.5 174.51369504303216 78.5 C172.42790329313337 78.5 171.42237052020627 79.04532274970477 171.1791215125014 80.30841326679818 C170.55445758473897 83.5520321862409 171.82064944940453 85.15326367975351 174.7443143811954 84.81697098313387 C177.06908262805965 84.54956599624475 177.5 84.03087822972279 177.5 81.5 Z M224.06956652971945 83.41617745962786 C225.82355251782528 81.30275363508002 224.07356712369705 78.5 221.0 78.5 C217.92643287630295 78.5 216.17644748217472 81.30275363508002 217.93043347028055 83.41617745962786 C218.65338424861264 84.28727985683254 220.03468918698638 85.0 221.0 85.0 C221.96531081301362 85.0 223.34661575138736 84.28727985683254 224.06956652971945 83.41617745962786 Z M21.0 32.5 L21.0 18.0 L17.0 18.0 L13.0 18.0 L13.0 32.5 L13.0 47.0 L17.0 47.0 L21.0 47.0 L21.0 32.5 Z M243.0 32.5 L243.0 18.0 L239.0 18.0 L235.0 18.0 L235.0 32.5 L235.0 47.0 L239.0 47.0 L243.0 47.0 L243.0 32.5 Z" fill="currentColor"/></svg>
