<svg xmlns="http://www.w3.org/2000/svg" xmlns:xlink="http://www.w3.org/1999/xlink" width="256" height="256" xml:space="preserve" version="1.1" viewBox="0 0 256 256">
  <path d="M2.222506243405428 229.44329603135094 L1.3322676295501878e-15 227.88659206270188 L-2.4424906541753444e-15 184.49023991887685 L-6.217248937900877e-15 141.09388777505185 L9.283863997360534 119.29694388752593 C14.389989195908832 107.30862474938667 19.15121032531564 96.4494038549585 19.864355396042328 95.1653418999078 C22.116594246517437 91.11004608381909 26.71627044350683 89.99999999999997 41.2678813691042 89.99999999999999 C55.26014024857069 90.0 56.99999999999995 90.49766780082982 56.99999999999999 94.49999999999999 C57.000000000000036 98.47764416692401 55.23559807494333 99.00000000000003 41.800000000000495 99.00000000000001 L29.0 99.0 L29.0 119.0 L29.0 139.0 L32.0 139.0 C34.9358864234532 139.0 35.0 138.89245762565514 35.0 133.9678813691037 C35.0 127.92666955492928 36.94743722749687 122.85065160087375 40.116872769869545 120.63069253356915 C43.57640943430237 118.20753873087943 80.42359056569784 118.20753873087952 83.88312723013064 120.63069253356926 C87.05256277250304 122.85065160087368 88.99999999999997 127.92666955492959 88.99999999999999 133.9678813691039 L89.0 139.0 L95.0 139.0 L101.0 139.0 L100.99999999999997 133.9678813691039 C100.99999999999996 127.92666955492894 102.94743722749654 122.85065160087402 106.11687276986939 120.63069253356926 C109.57640943430195 118.20753873087968 146.42359056569768 118.20753873087946 149.8831272301303 120.630692533569 C153.05256277250297 122.85065160087352 154.99999999999994 127.92666955492922 154.99999999999997 133.96788136910357 L155.0 139.0 L161.0 139.0 L167.0 139.0 L166.99999999999997 133.96788136910274 C166.99999999999994 127.92666955492912 168.94743722749712 122.85065160087353 172.1168727698701 120.63069253356875 C175.57640943430172 118.20753873087985 212.42359056569802 118.20753873087972 215.88312723012984 120.63069253356859 C219.05256277250265 122.85065160087312 220.99999999999991 127.9266695549289 220.99999999999994 133.9678813691027 C221.0 138.89245762565525 221.06411357654673 139.0 224.0 139.0 L227.0 139.0 L227.0 119.0 L227.0 99.0 L148.19999999999953 99.0 C88.24444444442429 99.0 69.11302876480488 98.71302876480559 68.19999999999953 97.79999999999949 C66.65749938210595 96.25749938210464 66.65749938210594 92.74250061789532 68.19999999999952 91.20000000000049 C70.11846628533331 89.28153371466513 226.83947393465428 89.48826120715405 231.4516272322121 91.41534189990689 C235.6348560784175 93.16320651385146 235.41085454430024 92.75405337877169 246.71613600263944 119.29694388752583 L256.0 141.09388777505166 L256.0 184.49023991887677 L255.99999999999997 227.88659206270188 L253.77749375659454 229.44329603135094 C250.64742059103352 231.63568461673677 234.35257940896653 231.63568461673677 231.22250624340543 229.44329603135094 C229.1132461145078 227.96591272891442 229.0 227.2015991425489 229.0 214.44329603135094 L229.0 201.0 L128.0 201.0 L27.0 201.0 L27.0 214.0 C26.999999999999996 230.83998177909365 26.875021121822016 231.0 13.722506243405427 231.0 C6.94411675290517 231.0 3.846329805901724 230.58066632744092 2.222506243405428 229.44329603135094 Z M19.0 211.5 L19.0 201.0 L13.5 201.0 L8.0 201.0 L8.0 211.5 L8.0 222.0 L13.5 222.0 L19.0 222.0 L19.0 211.5 Z M248.0 211.5 L248.0 201.0 L242.5 201.0 L237.0 201.0 L237.0 211.5 L237.0 222.0 L242.5 222.0 L248.0 222.0 L248.0 211.5 Z M43.0 180.0 L43.0 167.0 L38.199999999999996 167.0 C32.90948744514275 167.0 31.000000000000007 165.76285999346317 31.0 162.335183758488 C31.0 159.48332859772108 33.7147897894337 158.0 38.93425854591065 158.0 L43.0 158.0 L43.0 153.0 L43.0 148.0 L25.5 148.0 L8.0 148.0 L8.0 153.0 L8.0 158.0 L12.25 158.01365468329246 C20.4944060075011 158.04014286046115 23.465144410894272 160.39383553443622 21.020215327551433 164.9622273149534 C20.110018561186678 166.66294552982643 18.9430317729848 167.0 13.964816241512004 167.0 L8.0 167.0 L8.0 180.0 L8.0 193.0 L25.5 193.0 L43.0 193.0 L43.0 180.0 Z M229.21724887716925 181.85665256065212 C229.4539986965028 172.5262369406384 229.78471073895014 170.5340939131702 231.25 169.61176741538196 C232.5242078395856 168.80971714081895 233.4757921604144 168.80971714081895 234.75 169.61176741538196 C236.21528926104986 170.5340939131702 236.5460013034972 172.5262369406384 236.78275112283075 181.85665256065212 L237.06550224566152 193.0 L242.53275112283075 193.0 L248.0 193.0 L248.0 170.5 L248.0 148.0 L242.54990385598785 148.0 L237.09980771197573 148.0 L236.79990385598785 153.75 L236.5 159.5 L233.0 159.5 L229.5 159.5 L229.20009614401212 153.75 L228.90019228802424 148.0 L140.45009614401212 148.0 L52.0 148.0 L52.0 170.5 L52.0 193.0 L140.46724887716925 193.0 L228.93449775433848 193.0 L229.21724887716925 181.85665256065212 Z M70.88235294117646 180.11764705882354 C67.33533355149844 176.5706276691455 67.00032287046058 175.77167007864355 67.00373806043756 170.86764705882354 C67.0101242218489 161.6974741605053 72.46449608815196 155.9937686818461 81.21788136910355 156.00373806043757 C87.96554368775745 156.01142308721322 94.98857691278678 163.03445631224253 94.99626193956244 169.78211863089643 C95.00623131815388 178.53550391184808 89.30252583949468 183.98987577815112 80.13235294117646 183.99626193956243 C75.22832992135646 183.99967712953944 74.4293723308545 183.66466644850155 70.88235294117646 180.11764705882354 Z M189.88235294117646 180.11764705882354 C186.33533355149842 176.5706276691455 186.00032287046056 175.77167007864355 186.00373806043757 170.86764705882354 C186.00625789209874 167.24930882410862 186.66519120331253 164.4212183051853 188.02563459531603 162.1898243972242 C191.63993685544708 156.26166002655592 200.6189495702051 154.25087826944085 206.7591400423723 157.99459801806526 C213.2956508173058 161.97995719969626 215.5820894467143 169.27776423753005 212.5601756027758 176.51022209601797 C210.54856225719715 181.32469050935543 205.76480921451554 183.9916430586771 199.13235294117646 183.99626193956243 C194.22832992135645 183.99967712953944 193.4293723308545 183.66466644850158 189.88235294117646 180.11764705882354 Z M110.2145503115841 179.8145503115841 C108.60062357092565 178.20062357092564 108.67419089537103 175.51528697144335 110.37091033015423 174.1071349104182 C111.34347550710064 173.2999775040004 120.27849714324394 173.04647140940477 141.12091033015423 173.23469019497605 L170.5 173.5 L170.5 177.0 L170.5 180.5 L140.9645503115841 180.76455031158412 C118.82961061558109 180.96281393225854 111.12477846752175 180.72477846752173 110.2145503115841 179.8145503115841 Z M84.17125932841594 174.34501243788793 C86.24800513505477 172.46558331321134 86.5932402130595 167.99324021305952 84.8 166.2 C81.90610925892737 163.3061092589274 75.0 166.09320887338095 75.0 170.15498756211207 C75.0 172.45616957712892 78.43848393097589 176.0 80.67125932841594 176.0 C81.5904519590447 176.0 83.1654519590447 175.25525559704957 84.17125932841594 174.34501243788793 Z M203.17125932841594 174.34501243788793 C205.24800513505477 172.46558331321134 205.5932402130595 167.99324021305952 203.8 166.2 C200.90610925892736 163.3061092589274 194.0 166.09320887338095 194.0 170.15498756211207 C194.0 172.4561695771289 197.4384839309759 176.0 199.67125932841594 176.0 C200.59045195904469 176.0 202.1654519590447 175.25525559704957 203.17125932841594 174.34501243788793 Z M110.57142857142857 166.42857142857144 C109.70714285714286 165.56428571428572 109.0 164.24642857142857 109.0 163.5 C109.0 162.75357142857143 109.70714285714286 161.43571428571428 110.57142857142857 160.57142857142856 C111.92577597840756 159.21708116444958 116.04242424242426 159.0 140.37142857142868 159.0 C170.02856117395865 159.0 171.0 159.14272538722156 171.0 163.5 C171.0 167.85727461277844 170.0285611739587 168.0 140.37142857142868 168.0 C116.04242424242426 168.0 111.92577597840756 167.78291883555042 110.57142857142857 166.42857142857144 Z M20.0 128.3333333333333 C20.0 122.4666666666666 19.813461160993576 117.8541666666666 19.585469246652394 118.08333333333329 C18.90994339208761 118.7623399059353 11.0 137.27079127813164 11.0 138.17244550297357 C11.0 138.6276004763381 13.024999999999999 139.0 15.5 139.0 L20.0 139.0 L20.0 128.3333333333333 Z M79.81110902395045 134.1760950129746 C80.31435181720231 127.18184587228463 79.86497460820274 127.0 62.07755528455783 127.0 C51.217234507679606 127.0 46.03127660503871 127.3687233949613 45.2 128.2 C43.92161564621685 129.47838435378313 43.533456090648976 137.20012275731563 44.6894672394641 138.35613390613076 C45.06867422116935 138.73534088783603 53.05617422116936 138.92284088783603 62.4394672394641 138.77280057279745 L79.5 138.5 L79.81110902395045 134.1760950129746 Z M145.81110902395045 134.1760950129746 C146.31435181720232 127.18184587228463 145.86497460820277 127.0 128.07755528455783 127.0 C117.2172345076796 127.0 112.03127660503871 127.3687233949613 111.2 128.2 C109.92161564621684 129.47838435378313 109.53345609064897 137.20012275731563 110.68946723946411 138.35613390613076 C111.06867422116936 138.73534088783603 119.05617422116936 138.92284088783603 128.4394672394641 138.77280057279745 L145.5 138.5 L145.81110902395045 134.1760950129746 Z M211.81110902395045 134.1760950129746 C212.31435181720232 127.18184587228463 211.86497460820277 127.0 194.07755528455783 127.0 C183.21723450767962 127.0 178.0312766050387 127.3687233949613 177.2 128.2 C175.92161564621685 129.47838435378313 175.53345609064897 137.20012275731563 176.6894672394641 138.35613390613076 C177.06867422116937 138.73534088783603 185.05617422116936 138.92284088783603 194.4394672394641 138.77280057279745 L211.5 138.5 L211.81110902395045 134.1760950129746 Z M245.0 138.23902379141606 C245.0 137.8204868766949 242.98383950136463 132.75798687669493 240.51964333636585 126.98902379141607 L236.0392866727317 116.5 L236.01964333636585 127.75 L236.0 139.0 L240.5 139.0 C242.975 139.0 245.0 138.65756070613725 245.0 138.23902379141606 Z M142.25 81.33771929824562 C141.45009290027514 81.01494976677768 141.0 78.72861319966583 141.0 74.98809523809524 C141.0 66.00262240988512 140.99398349206507 66.0 120.37891150168723 66.0 C101.05103638974694 66.0 98.25578215715767 65.32909506040437 95.51692690399008 60.03273302289411 C94.68261710679553 58.41935577987496 94.0 55.2319728866705 94.0 52.94965992688418 C94.0 49.55656235825978 94.62542690878124 48.174573091218754 97.43039665168394 45.36960334831605 L100.86079330336787 41.939206696632105 L113.68039665168394 42.219603348316056 C126.2090800416385 42.49363685599186 126.50741537220765 42.552309164387935 126.82676386631411 44.8050420559386 C127.44543645185193 49.16925265427374 125.54601121627712 49.99999999999999 114.94898385598646 49.99999999999999 C107.36765654102072 49.99999999999999 104.78633377310615 50.35652336975109 103.57142857142864 51.57142857142851 C101.46498732316155 53.677869819695424 101.58795135570618 54.59798195789256 104.22250624340543 56.443296031350954 C106.02914589484425 57.70871570054578 109.72983242861693 58.00000000000001 124.00000000000001 58.00000000000001 C143.19547831937217 58.00000000000001 144.58042721267879 58.35416878689288 147.50571126404543 64.01104436681766 C149.31393787297506 67.50776904975751 149.5168395529202 79.08316044707978 147.8 80.8 C146.57090168878943 82.02909831121056 144.46827787437056 82.23281387913197 142.25 81.33771929824562 Z M71.71405995852713 76.3807266251938 C71.32132698133721 75.98799364800388 71.0 74.19699111841734 71.0 72.4007210038904 C71.0 68.81689219559111 73.3169744993463 67.33105311574523 77.05530146248411 68.51755200235624 C78.72048572719906 69.04606095718239 79.05265359092007 69.86554520825919 78.80530146248411 72.8349396729133 C78.53293182015322 76.10466253073186 78.17252357513041 76.53207879294987 75.46405995852713 76.79739329186046 C73.79429293571705 76.96095960238372 72.10679293571705 76.77345960238372 71.71405995852713 76.3807266251938 Z M191.7506817890797 75.22858202838208 C189.50398492124833 74.74700076295528 188.50592231204257 70.79170969645736 189.95015257342737 68.09314076853425 C192.46939617472353 63.38589104105093 198.94559985715657 67.09629406680368 197.59596970221673 72.47364891807942 C197.00252774280202 74.83811001709184 194.79121131200867 75.88032195653409 191.7506817890797 75.22858202838208 Z M48.2 58.8 C45.18567155491784 55.785671554917855 47.86038208674964 50.545426398942276 52.092830398166136 51.173236133685876 C55.332095246912566 51.6537244600218 56.64723888116044 54.2840495829123 55.21733773635283 57.42234074421635 C53.94660610431903 60.21129287820299 50.32273856404117 60.922738564041175 48.2 58.8 Z M173.7506817890797 54.228582028382085 C171.50398492124833 53.74700076295527 170.50592231204257 49.79170969645735 171.95015257342737 47.09314076853425 C174.46939617472356 42.38589104105092 180.94559985715654 46.09629406680368 179.59596970221673 51.473648918079434 C179.00252774280202 53.83811001709183 176.79121131200864 54.88032195653409 173.7506817890797 54.228582028382085 Z M138.04568084912805 48.55504205593857 C137.38611612916208 47.760315186704794 136.99351600721312 46.072815186704794 137.17323613368586 44.80504205593857 C137.46886798586254 42.719609966923194 138.13989080210663 42.452363132300036 144.21634002194418 42.0 C151.85792217598248 41.43112006471746 155.2891467135376 39.27026279712922 153.3765578811993 36.23123636555511 C152.43016736184876 34.727460041931465 149.93606240497607 34.434307051753 134.3935085324687 34.0 C124.55207883961091 33.725 115.9375 33.13594235253127 115.25 32.69098300562505 C113.66045846164307 31.66221011138853 113.63047314774103 27.76952685225897 115.19999999999999 26.199999999999996 C117.03590143502096 24.36409856497904 150.9887618842374 24.550637695256558 155.46570093680873 26.421222269151706 C163.86705143424362 29.931530641869447 164.23484766224806 44.24159477410168 156.03273302289412 48.48307309600992 C152.11642255495548 50.508275946982565 139.70792543296918 50.557924250858036 138.04568084912805 48.55504205593857 Z" fill="currentColor"/></svg>
