<svg xmlns="http://www.w3.org/2000/svg" xmlns:xlink="http://www.w3.org/1999/xlink" width="256" height="256" xml:space="preserve" version="1.1" viewBox="0 0 256 256">
  <path d="M17.5 253.57406775379218 C13.006879283664837 250.87031971886694 11.580750837823354 248.7323609312993 4.778773512523906 234.50323438191444 C-0.4109463276490217 223.64680590088844 -1.2132818289988427 218.71969624632476 1.9342585459106818 217.035183758488 C3.0926920706325007 216.41520895076889 12.351344493445623 216.0 25.017591879244016 216.0 C41.549465924012 216.0 46.05234465378761 215.72710385743443 45.6430150138607 214.75 C41.012722540390534 203.69710718313678 40.93327643976922 191.62901391073382 45.420833610763594 181.0 C48.65702288070537 173.33491642394904 48.5371679603492 174.4528456283678 47.15202942559124 164.85252475065596 C45.429361626835316 152.91280665116045 42.66623941622572 146.89519535342444 33.90543563113392 136.00369129407855 C26.01329897498338 126.19212142720755 23.999999999999993 122.68804781981594 24.0 118.76364101040956 C24.0 114.81183191128073 21.29330767663552 113.05949187535984 16.133246117457716 113.67062483634378 C6.531441937965299 114.80781650580442 0.011018954136729021 109.1269962339729 0.003738060437530777 99.6180339887499 C-0.00044537252793394773 94.15440441695628 2.8288091429926547 88.50649687899738 6.088142089154942 87.47202478764504 C7.182004180182167 87.12484644666323 9.222370640050553 85.10999273713107 10.622289777751355 82.99457209979579 C13.910907226713125 78.02513562844335 18.917883141253366 75.61792488602666 24.627140009804513 76.26144086450586 C30.5641761119748 76.93063086322525 33.812386954681834 79.32163315735028 36.239994487738954 84.80964264162358 C37.93045421183826 88.63120723652167 38.11613600123204 90.1128904682448 37.291675999902665 93.2017357314931 C36.10418772493905 97.65066900584232 37.445038207091976 99.3616067705914 43.0 100.48561058195995 C47.70489062085116 101.43760902714465 51.035785888986 103.45630575407453 60.5 111.09152577215887 C70.16957845990137 118.89242272540478 75.61165723060468 121.35058680822051 87.95269446616906 123.49179235347664 C93.12763417469417 124.38965931463676 98.74279870965731 125.67682301510165 100.43083787719826 126.35215613228749 C103.01558838717048 127.3862361777109 104.71081311423556 127.25805477722159 111.17153728271848 125.54001726358543 L118.84307456543694 123.5 L116.70493978587534 120.5 C115.52896565711646 118.85 111.96144098912987 114.37563467798982 108.77710719034957 110.55696595108849 C103.59085509383361 104.33758697191935 101.02183079152442 99.22097086285449 101.00557693440261 95.0787406715841 C101.00250962048119 94.29704804095536 100.2921973829619 92.87536825491067 99.42710529547085 91.91945225815145 C98.18439890911483 90.54627715787076 97.2050551542331 90.36759850273712 94.7618748158165 91.06829340423734 C89.21996919203626 92.6576910242652 82.04908078727013 89.76850770584807 78.95951551190008 84.70145148515742 C75.0221911433069 78.24402393254894 77.45538882461068 67.57215535029829 83.49213674706911 64.82162892634102 C84.86533895006504 64.19595613143683 86.85972081447952 62.208056472596326 87.92409644576793 60.404074128917685 C93.28969615452664 51.31005989812306 108.04910350507171 51.65796091092159 113.20574944033837 61.0 C114.71577219094493 63.73563314965793 115.02062412581695 65.7192322494424 114.60165216894907 70.08280735374476 C113.99688183296514 76.38146467116542 114.92362728999191 78.00000000000001 119.13490033882735 77.99999999999999 C123.56244404374631 77.99999999999996 126.60055436907696 79.60300833998912 134.7760737548015 86.25280478591392 C147.93203291828104 96.95358676201649 152.49908711231257 99.1284566932537 165.6569714224424 100.95855009428719 C175.34135103987848 102.30552342322339 182.54323095999686 105.55721766480573 188.79603413756087 111.40598296194412 C197.44213204199033 119.49339527016085 201.7040759569386 130.63992581660335 200.7404306314304 142.6449159546498 L200.22567848490692 149.0576430015991 L207.66657629059847 154.65782490705922 C214.43150405306912 159.74925702136068 215.07988103548954 160.54153445359904 214.803737048145 163.37900340625967 C214.30170738887452 168.5375208347685 210.7922642767173 168.01714827979578 202.03904916275337 161.4862833831482 C183.35189407288652 147.543602481827 166.21343302795864 138.74666823495815 149.16953880339503 134.34909731514526 C140.76538942187332 132.18070537143797 137.92963833423488 131.91037302046604 127.5 132.28333865433228 C111.5630593812561 132.85324635096327 111.07230931787768 133.09827363726816 115.50227941149666 138.27369736647836 C121.90133929439664 145.74955965509776 125.03017609494387 157.97558829443386 123.14881823346497 168.15278937051923 C120.8420031456408 180.63150034562267 113.277699203331 190.76877104997646 102.20584683007034 196.2194260483842 C96.01881587736943 199.2652913698084 94.82510064552719 199.5 85.52102747753182 199.5 C76.64294368773177 199.5 74.81567275493794 199.1808220946496 69.5 196.70153267910777 C66.2 195.16237565261704 61.18799552754281 191.62761600496333 58.36221228342846 188.84651123987726 L53.22442456685692 183.78995712153898 L51.892722951010064 187.6449785607695 C49.62314114825673 194.21498373579342 50.252514553839035 203.66666080777205 53.397958394214996 210.25 L56.1452423414729 216.0 L68.45017645529428 216.0 C81.70872622983899 216.0 83.47283713087371 216.637458784726 82.82676386631407 221.19495794406134 L82.5 223.5 L46.25 223.76247418895377 C26.3125 223.90683499287834 10.0 224.21257952210098 10.000000000000002 224.44190647611515 C10.000000000000004 224.67123343012935 11.957675469143595 229.05312004510014 14.35038993143021 234.17943228716138 C21.377668131935074 249.2351453007366 6.573600385561079 247.5 127.99999999999999 247.5 C249.396643210896 247.5 234.6227815708581 249.22020019432367 241.65671170979465 234.26633758099314 C244.04552026940758 229.18782325053934 245.99999999999997 224.80032325053935 246.0 224.51633758099314 C246.0 224.2323519114469 211.5835734126967 224.0 169.51905202821484 224.0 L93.03810405642966 224.0 L92.40738472346573 221.48701401454736 C90.98282491461588 215.8111156426743 88.81028279914706 216.0 155.51885252075434 216.0 L216.79281561062433 216.0 L220.04075147187643 212.30080541773896 C228.3238414939507 202.8668870637523 229.17480695306088 192.68303591987706 222.57366901626057 181.98834683840778 C219.2924448394907 176.67234333823498 218.9156017595868 175.48064977095996 219.8601921792761 173.40749962633058 C222.34635778229702 167.95096050414637 227.39998165494328 171.3735670253174 232.32405678773154 181.8487499771516 C234.9588377061925 187.45382532929233 235.450060235818 189.6796744977792 235.44709537093993 196.0 C235.4440876177119 202.4117523776916 234.98767763678933 204.40687301859032 232.30160275809288 209.75 L229.15962839546538 216.0 L240.645555651822 216.0 C246.96281564281813 216.0 253.00189925383842 216.4658326913196 254.0657414540893 217.03518375848802 C257.2082534363006 218.71700513222137 256.4098255002237 223.6464191710214 251.23640322103148 234.5032343819144 C244.62106928307486 248.386009505765 242.67982597434948 251.2496344167 238.16325350706904 253.78809013235917 L234.22769097325573 256.0 L127.86384548662787 255.99053950499797 L21.5 255.9810790099959 L17.5 253.57406775379218 Z M173.5 208.85354240583456 C159.57030764203063 207.56543384424037 148.2242775111956 200.68632806978752 143.01597168995747 190.3710553369619 C138.61628169829524 181.6572808848522 139.2229449011798 163.80017084671846 144.1306323762114 157.56105724415596 C145.56626188518558 155.73595007438382 147.09488397268345 155.0 149.45013543359067 155.0 C153.22890649075902 155.0 154.42703049578208 156.16991141945388 157.54882785458256 162.90799007969167 C161.44340968009723 171.31404456464193 166.64639197980708 173.88636451462642 187.89865891957527 177.9127453200649 C199.93587669621627 180.19327486282427 206.5740770008511 183.24466095865208 209.75 187.9571662908278 C212.86019432249358 192.57214194759956 212.62287059975415 196.22099712197283 208.9396748620063 200.4159253165294 C203.28152351328072 206.8602036856042 188.91996592899014 210.27945976439403 173.5 208.85354240583456 Z M191.5 199.64390533642464 C197.19583558653915 198.12612815284245 203.0 195.34285571762788 203.0 194.12930741588048 C203.0 193.08662414867288 200.15911437905757 190.59786696592542 197.25379628046562 189.09534699343408 C196.01838423472174 188.4564388911212 188.4856814202365 186.64475923326543 180.51445669272061 185.069392198199 C163.2677830499619 181.66090202885732 157.14230988730407 178.74573484782252 152.31387862427582 171.64848617374594 L149.12775724855163 166.9652475652867 L148.41661488567274 171.7074846102385 C147.56411741381365 177.39234505845036 149.11916839142208 184.00715591075212 152.527624116077 189.19472384725242 C158.68445576059275 198.565237947961 177.05945112538734 203.49189835997458 191.5 199.64390533642464 Z M97.65538373966103 188.54312338240186 C120.39533540800866 178.19581543429518 120.60954104636838 146.53452715775623 98.01757111057492 135.00896411173073 C95.85781942622684 133.90714101828394 90.80783114638689 132.54654972749017 86.79537493315283 131.98542790996686 C72.2122884468793 129.94605662230305 64.6150183849636 126.24240401558505 49.90746309259865 114.00265123739412 C41.85441991240925 107.30084011527083 36.41937980762202 107.3946696573482 33.521991738880956 114.2855270293293 C31.784586841215873 118.41759669454112 32.67702100920605 120.54237333658041 39.84909664845752 129.34959024631308 C50.58247769520504 142.53004452598725 53.231808414142 147.9174928912302 55.05604199817788 160.2731107713621 C56.5945477909747 170.69348119350474 58.59347500311175 176.16506975377678 62.55085287374167 180.78837575907275 C71.67345145732526 191.44608048027317 84.86936411066131 194.36111651015108 97.65538373966103 188.54312338240186 Z M191.10840253363625 131.0 C189.40306729315867 125.25652975710692 184.4825024187445 118.42805174455276 179.65645575007625 115.10764438467235 C175.25305760274563 112.07802684868713 170.34450699781257 110.54508658146483 157.07029040546826 108.05398534648413 C148.56341399994736 106.4575453477694 140.8071568549987 102.41775495711735 130.9143576031233 94.43085707484488 C126.44461596678931 90.82223537934516 121.7103548366772 87.46017608870656 120.39377731398528 86.95961420675911 C117.36751069827629 85.80902969021902 113.71773321764343 87.13720480215584 111.60091363730646 90.15938809982204 C108.59700196979374 94.44807276314906 109.56362092603553 97.35037512304169 117.10828788748222 106.69544419502124 C121.01784622559745 111.53794988775955 125.18034622559745 117.18403404854165 126.35828788748222 119.2422978856481 L128.5 122.98459577129621 L135.62177507227892 122.9922978856481 C149.17626321005858 123.00695690205329 171.80267253017828 130.80960672554772 187.0 140.70992563612228 L191.5 143.6414565375952 L191.8238064087667 139.0707282687976 C192.0018999335884 136.55682772095892 191.6799681897797 132.925 191.10840253363625 131.0 Z M227.3895324377016 139.23468722548296 C225.07015874263277 137.70018564908267 222.71511249670115 131.35833444993196 222.67014167319047 126.52594571737899 C222.64123265718618 123.4194959727996 223.45912517395436 119.6373438345749 224.81168479189358 116.6228817823911 C227.2718981637183 111.13978162822544 227.52901263081492 107.49772591269563 225.85121965318643 101.89775205392013 C224.49183277621776 97.36052304146644 225.79986953339474 95.0 229.6734713617804 95.0 C232.53959122542042 95.0 234.80515747529182 99.49186906235786 235.6565889281033 106.8625446040879 C236.16804280487526 111.29010077176059 235.6218664509216 113.59028626775303 231.87911358591035 122.77113151138292 C230.7227052292288 125.60776180572687 230.78014404647513 126.70271513007324 232.31154028048076 131.014460142708 C233.64956145033617 134.78174517176495 233.81726105032894 136.47293375898053 233.0035704081617 137.99332863132508 C231.9161525515266 140.02518748239945 229.4189588391668 140.57735917992375 227.3895324377016 139.23468722548296 Z M28.321652782053917 101.23772779587559 C26.802296979788526 98.59040305822683 26.723148648053012 97.65452456616767 27.773065342346612 94.75103155631982 C29.53698812387864 89.87298980888815 29.315428511762406 88.39327640157899 26.488111653352576 86.1693086366283 C23.133557242549074 83.5306157525219 20.398848270896313 84.40792726785592 17.45824390149194 89.0661459391596 C16.140752629359383 91.15318712939309 13.821642889033722 93.45563988301876 12.304666700768252 94.18270761388331 C10.787690512502781 94.90977534474784 9.095217699976281 96.78794327346444 8.543616006264918 98.35641412214238 C7.657833046157119 100.87512421136799 7.874045597741571 101.49490781395637 10.394923625107422 103.66327580568971 C12.255949786169287 105.26406311694316 13.81474982964044 105.86460125511685 14.874571707167112 105.38909017818798 C18.50301042102825 103.76111585817769 24.59135973855029 103.80269231969176 25.97084054118717 105.46486500155426 C27.12704605579271 106.8580074195731 27.533364680651896 106.89520674791953 28.71268479423059 105.71588663434085 C29.892004907809287 104.53656652076215 29.834057200062144 103.87294044531075 28.321652782053917 101.23772779587559 Z M209.18578811836488 96.72386098767771 C207.09628781696773 94.20616714729448 205.0 88.11032761426485 205.0 84.55191948122794 C205.0 82.62014470191721 206.19982004853262 78.1179815157377 207.66626677451694 74.54711240082901 C210.21621808457334 68.33785691526782 210.273664078225 67.80922761152661 208.9830851779248 62.42949110998646 C207.43634337144022 55.98194779987385 208.30518615348853 53.5 212.10898649570063 53.5 C217.7244203640829 53.5 220.18141085115664 68.80375762456916 215.91014592443196 77.17612853842671 C214.28960651223983 80.35264820465156 213.95879717603069 82.30867315547742 214.43705485470133 85.88629047113028 C215.85324508675038 96.48013333533636 215.72626691574726 97.47369799856894 212.9144041776623 97.80055805902816 C211.4923264753766 97.96586499149366 209.81444924869274 97.48135130938596 209.18578811836488 96.72386098767771 Z M105.7021389752359 78.81099162032775 C103.86088144352325 76.32055753080178 103.75183495388141 75.5751939974627 104.80332557670982 72.66734836561764 C106.48877606293544 68.00631789358266 106.29626934882344 65.57809519994444 104.08246528294987 63.57463005537569 C101.21279955787699 60.97761826676535 97.93137866228281 61.98914779469337 94.94898957781976 66.3901117208813 C93.49907887403873 68.52967316736601 91.12872455022642 70.90061713103337 89.68153552490352 71.65887608458655 C85.92476921451349 73.6272448611702 84.72278477695423 76.29747281799149 86.16684011314311 79.46682904548459 C87.5330771548665 82.46539272092214 91.49416106404783 83.79699522149033 94.13736160699708 82.14628916180465 C96.61401949023531 80.59959071452447 100.20930126665611 80.70134177277515 102.50941919559324 82.38322906592069 C103.89874842747071 83.39913140366308 104.85208440151813 83.4848122511522 106.0993622292242 82.70587435565345 C107.67304720505817 81.72309182234365 107.64390809926167 81.43737491390466 105.7021389752359 78.81099162032775 Z M53.02032386540712 70.03983806729644 C50.39622656373802 64.89618242885452 50.39691741576426 56.92587430657371 53.021962000490916 51.14079620614981 C55.19256371889452 46.3572201332174 55.5644749749019 40.61488101881897 53.97453345150171 36.433017901397236 C52.179872197837255 31.712701088162905 54.7907998633701 28.16405177372652 59.061222273374696 29.519431194732604 C61.23095908047862 30.208078905661264 64.0 37.91069436420395 64.0 43.257583417483325 C64.0 45.40330158200019 62.81043230200214 50.13234016631819 61.35651622667143 53.76655804930111 L58.713032453342855 60.374226927451865 L60.507322274077424 65.65294014930112 C62.536602818814096 71.62298463072024 61.65111808189828 74.0 57.39787914996495 74.0 C55.6585026255187 74.0 54.51109981329169 72.96200033052983 53.02032386540712 70.03983806729644 Z M33.3701229935618 43.95849437221176 C31.029353332888597 43.07359586995607 28.0 35.61824161681755 28.0 30.742416582516626 C28.0 29.146698417999783 29.17579979649767 24.9020741679698 30.612888436661493 21.309918249116656 C32.635098422263226 16.255189288128463 33.05818074923956 13.955998923045094 32.484409088767464 11.139362834691838 C32.07665680726193 9.137713275611326 31.688357010764257 5.925 31.62152065210597 4.0 C31.509063076879272 0.7610319194945241 31.739501463374886 0.47684474758886486 34.71131271392152 0.18952692224035417 C37.579791781260575 -0.08780063937177185 38.08689276031102 0.2722009098690412 39.46131271392152 3.5616508769128608 C41.68830666131852 8.891597628361005 41.42948450117875 18.130873389190125 38.88766155950756 24.039500236049694 C37.40970431244577 27.47510455188708 36.95922167580724 30.008433144016152 37.38766155950756 32.47488171167966 C37.7244477017784 34.41369677025585 38.26959787128704 37.53529925230444 38.59910638063788 39.41177611623209 C39.29182874950957 43.356674233958394 37.01502695238817 45.336404428130564 33.3701229935618 43.95849437221176 Z" fill="currentColor"/></svg>
