<svg xmlns="http://www.w3.org/2000/svg" xmlns:xlink="http://www.w3.org/1999/xlink" width="256" height="256" xml:space="preserve" version="1.1" viewBox="0 0 256 256">
  <path d="M0.6666666666666664 255.33333333333331 C0.2999999999999998 254.96666666666667 -1.4710455076283326e-16 253.5055167325203 -5.551115123125783e-17 252.0863334796748 C7.862401816271662e-17 250.00799173239744 11.951358998927134 237.54088673840698 61.43229906893065 188.00300014634146 L122.8645981378613 126.5 L123.88152720232648 111.30968301287335 C124.9985314457783 94.62449903406548 126.78150113301092 88.96793814722106 131.61838745645483 86.76410525355078 C136.88578089339822 84.36412019209217 139.68647337792646 89.22764813080553 135.94849613775352 94.28353291849443 C133.60333617842488 97.45553151592793 132.16397830684008 106.36541311730575 132.053918384597 118.39166290688817 L132.0 124.28332581377634 L144.11031640882703 123.57496983594444 C150.77099043368187 123.1853740481369 157.18349043368187 122.48182127493891 158.36031640882703 122.0115192288378 C159.53714238397217 121.54121718273669 175.7976561605663 105.8210911075806 194.49479146792515 87.07790572849093 L228.4895829358503 52.99938685741881 L215.74575009769524 40.25555401926374 L203.00191725954014 27.51172118110867 L175.6622350461828 54.8378454075917 C150.9815484548727 79.506292631149 148.03940867681806 82.13168154205525 145.4112764164127 81.83198481703737 C143.03414439335714 81.56091068086167 142.43906385194794 80.96559168601517 142.16787637774115 78.58728512254794 C141.86654121289303 75.94458415541035 145.157455092026 72.34610492352148 177.66787637774115 39.76949242913635 C197.37554436998352 20.021699630358604 215.16957286971663 2.9949213252120352 217.2101619327036 1.9322073065884098 C223.03951053259217 -1.103646696998903 231.49780200934902 -0.7121542080814418 237.05421932245264 2.8506906006534365 C242.3471756107018 6.244600879850193 252.0570906053716 16.275934146638875 254.3600650217632 20.72939559124326 C256.6386325807739 25.13565937808983 256.4951523868559 34.12689475116462 254.07186037788648 38.789838067296415 C251.66057995921162 43.42966845916127 167.70384833604857 127.18491759531173 163.19458731357673 129.4490204718589 C160.91046137454245 130.5958815835114 155.1944414341879 131.41409885689458 144.69458731357673 132.09719520104818 L129.5 133.08572008202268 L67.99699985365854 194.54286004101135 C18.45241329887172 244.05050329195421 5.992289361795038 256.0 3.913666520325206 256.0 C2.494483267479676 256.0 1.033333333333333 255.7 0.6666666666666664 255.33333333333331 Z M150.04568084912805 105.55504205593857 C149.38611612916208 104.7603151867048 148.99351600721312 103.0728151867048 149.17323613368586 101.80504205593857 C149.44335028960904 99.89961568083051 150.1067806352181 99.5 153.0 99.5 C156.1169324874279 99.5 156.5361260949399 99.81646776835218 156.83007584339555 102.39149341272878 C157.3130549726001 106.62243305440009 152.71208071862117 108.76785735102742 150.04568084912805 105.55504205593857 Z M165.3147146335077 95.58858388465657 C161.0467184742079 93.6623087888125 158.6251349068824 88.8314949783592 159.32223832206904 83.63420092851345 C159.8130684044886 79.97478941040836 161.59615538017323 77.86898327601119 178.23626061858783 61.296948331599935 C195.50937127889623 44.094497423988614 196.8324135449645 43.0 200.35384212422144 43.0 C207.90227976305667 43.000000000000014 213.0 48.01762397251161 213.0 55.447459250082446 C213.0 58.118071897047116 212.10664428497546 59.98307634055807 209.38363765532006 62.99711917696664 C205.67495703695224 67.10218529343562 203.31162288672658 67.91162288672656 201.2 65.8 C199.32353351707474 63.92353351707472 199.77911740365943 61.05121586877999 202.45822445221026 57.86727804468174 C205.0210332089535 54.82155288751091 204.95388873488608 52.58001906092838 202.26898402755054 51.54972445411085 C199.97953844651892 50.671181752653126 167.81635771671833 82.73191420392449 168.21286478417767 85.4973659067086 C168.83897075611972 89.86416278961123 172.3339887377643 88.23083997826195 180.97792222725664 79.5318860094767 C189.35983783686632 71.09661772023406 192.19350577013375 69.59350577013377 194.8 72.2 C197.15801752491012 74.55801752491016 195.86812878177875 76.66889971345832 186.15784565137037 86.34274663791558 C177.66610006464526 94.80262837608683 175.77950899743928 96.20821937805538 172.40784565137037 96.5870844878187 C170.20173377844625 96.83497958620094 167.112916633427 96.40016655728716 165.3147146335077 95.58858388465657 Z M247.5 29.498316498316505 C247.5 25.21604011573432 247.12998175521645 24.645133270367975 239.24242424242425 16.757575757575765 C231.3658099944658 8.88096150961729 230.77893615244076 8.5 226.52157164099054 8.500000000000004 C222.36913492477996 8.500000000000007 221.60305581445817 8.95119249422538 215.52163035431985 14.978561911681618 L208.98496591150715 21.45712382336323 L221.7306362568446 34.23114935133133 L234.47630660218204 47.00517487929944 L240.98815330109102 40.49332818039046 C247.0672674931264 34.41421398835507 247.5 33.68356119686883 247.5 29.498316498316505 Z" fill="currentColor"/></svg>
