<svg xmlns="http://www.w3.org/2000/svg" xmlns:xlink="http://www.w3.org/1999/xlink" width="256" height="256" xml:space="preserve" version="1.1" viewBox="0 0 256 256">
  <path d="M11.91334281564462 198.71819662812953 C9.352324052801563 196.751908981224 8.0 193.4163342781186 8.0 189.06574145408933 C8.0 186.06526877000877 7.595073990480891 185.0 6.4545454545454595 185.0 C5.6045454545454625 185.0 3.804545454545461 183.89545454545456 2.454545454545457 182.54545454545456 C0.055683291477254926 180.14659238238636 -5.288772468118698e-15 179.73258405929164 -3.552713678800501e-15 164.2957746031123 L-1.7763568394002505e-15 148.50064011531555 L9.155270698357661 121.00032005765777 C14.190669582454374 105.875144025946 18.94202183264753 92.52626868780162 19.713831254342452 91.33615263955917 C22.435357958355276 87.13960811040162 26.853412317990603 86.00000000000003 40.401129122533376 86.00000000000001 L53.0 86.0 L53.0 82.5 L53.0 79.0 L40.1743140267095 79.0 C28.06074472155571 79.00000000000001 27.227904275883226 78.87149542755395 25.17431402670951 76.68554877863241 C22.084881847607708 73.3969989222552 21.99747849132003 61.45320341719835 25.038955147420012 58.188561446631596 L27.077910294840024 55.99999999999997 L101.41651043197785 56.0 C166.91496928193686 56.00000000000003 175.90607205427636 56.18189746183336 177.02457732500832 57.52961386497293 C177.9952620091846 58.69921735757391 178.02912647391815 59.64065854247922 177.16846083160027 61.529613864972916 L176.0428775822996 64.0 L103.5214387911498 64.0 L31.0 64.0 L31.0 67.5 L31.0 71.0 L128.0 71.0 L225.0 71.0 L225.0 67.5 L225.0 64.0 L207.1224447154422 63.999999999999986 C187.88953096343266 63.99999999999997 186.48851590894566 63.63516275559359 187.1732361336865 58.80504205593928 L187.5 56.5 L207.91295628545288 56.22877545468877 C227.74245977286847 55.9653031779684 228.39271106277138 56.02030483414625 230.66295628545288 58.15308948139827 C232.68981058656246 60.05722023010977 233.00000000000003 61.29781007152847 233.00000000000003 67.50000000000003 C233.00000000000003 73.68227643760743 232.6863644764781 74.94601722221798 230.6855487786324 76.82568597329053 C228.5603511019878 78.82220552626183 227.3337954741842 79.00000000000001 215.68554877863238 79.0 L203.0 79.0 L203.0 82.5 L203.0 86.0 L215.59887087746506 85.99999999999997 C229.1041568658331 85.99999999999996 233.02181740676298 87.009880552964 236.09366985505648 91.28307613897152 C236.9701882753375 92.50238426253719 241.8076882753375 105.87514402594607 246.84366985505648 121.00032005765792 L256.0 148.50064011531583 L256.0 164.295774603113 C256.0 179.73258405929388 255.9443167085229 180.14659238238724 253.54545454545405 182.54545454545507 C252.19545454545374 183.89545454545478 250.39545454545376 185.0 249.54545454545405 185.0 C248.4049260095192 185.0 248.0 186.06526877000937 247.99999999999994 189.0657414540894 C247.99999999999991 193.4163342781182 246.64767594719868 196.75190898122273 244.086657184355 198.7181966281301 C242.95513277562551 199.58695342887626 236.29278866619333 199.9455160567341 220.86078396230926 199.9681966281301 C195.15747007474346 200.00597304518843 194.9919632897149 199.94823042033534 194.22292852857873 190.67468220855147 L193.75375829928632 185.0171060354683 L139.62687914964317 184.75855301773413 L85.5 184.5 L85.5 181.0 L85.5 177.5 L166.74999999999997 177.24412020124032 L247.99999999999994 176.98824040248064 L247.99999999999997 165.99412020124032 L248.0 155.0 L128.0 155.0 L8.0 155.0 L8.0 165.98651936284142 L7.999999999999999 176.9730387256828 L41.25 177.23651936284142 L74.5 177.5 L74.5 181.0 L74.5 184.5 L68.3701316199964 184.7945992061048 L62.2402632399928 185.0891984122096 L61.7740822410608 190.7107283969226 C61.00849553147923 199.94269763992128 60.82651219772457 200.00594950377445 35.13921603769016 199.96819662812953 C19.70721133381332 199.94551605673317 13.044867224373885 199.58695342887492 11.91334281564462 198.71819662812953 Z M53.81335848408814 188.25 L54.126716968176275 185.0 L35.56335848408814 185.0 L17.0 185.0 L17.0 188.52255868355877 L17.0 192.0451173671175 L35.25 191.77255868355877 L53.5 191.5 L53.81335848408814 188.25 Z M239.0 188.5 L239.0 185.0 L220.5 185.0 L202.0 185.0 L202.0 187.83333333333331 C202.0 189.39166666666665 202.3 190.96666666666667 202.66666666666669 191.33333333333331 C203.03333333333333 191.7 211.35833333333335 192.0 221.16666666666669 192.0 L239.0 192.0 L239.0 188.5 Z M246.0 146.2265670847989 C245.99999999999997 145.80117898143826 242.404483318292 134.66367898143824 238.00996292953778 121.47656708479887 C232.5346912277256 105.0463280122777 229.35244699855753 96.9492091392909 227.89917896722855 95.75 C225.91140243628462 94.10972461281213 219.64774601775483 94.00000000000001 128.00000000000045 94.0 C36.35225398224617 94.0 30.08859756371628 94.10972461281212 28.100821032771783 95.75 C26.647553001441874 96.94920913929133 23.465308772276128 105.04632801227184 17.99003707046208 121.47656708479889 C13.595516681707934 134.66367898143827 10.0 145.80117898143828 10.0 146.2265670847989 C10.0 146.6519551881595 63.099999999999994 147.0 128.0 147.0 C192.9 147.0 246.0 146.6519551881595 246.0 146.2265670847989 Z M36.356998522048386 139.0261452836233 C31.760217915304146 137.1330919125992 31.0 134.4615326390778 31.0 120.20057067967151 L31.0 106.84615384615387 L33.923076923076906 103.92307692307693 C36.67258389847554 101.17356994767827 37.32702803547945 101.0 44.94451571422671 101.0 C52.5864601850999 101.0 53.10631458170103 101.1392290475772 54.16846083160026 103.47038613502708 C55.912225925566055 107.29753362816349 53.846611907523844 109.0 47.45934275279365 109.0 C38.84778398087082 109.0 39.0 108.79114575665274 39.0 120.60698880418431 L39.0 131.0 L75.5 131.0 L112.0 131.0 L112.0 120.5 C112.0 114.725 111.8875 109.9084331235295 111.75 109.79651805228778 C111.6125 109.68460298104607 100.92500000000001 109.34710298104606 88.0 109.04651805228778 L64.5 108.5 L64.17323613368586 106.19495794406146 C63.46381768890083 101.19061224043985 64.41876271807365 101.0 90.19936779236525 101.0 L114.15384615384616 101.0 L117.07692307692308 103.92307692307692 L120.0 106.84615384615384 L120.0 120.36731322175063 C119.99999999999999 133.2172305025083 119.88023084013255 134.02776144471514 117.58743095628256 136.69423629867373 L115.17486191256515 139.5 L76.83743095628257 139.70433975014328 C55.751843930327155 139.81672661272208 37.53564933492177 139.51153910278808 36.356998522048386 139.0261452836233 Z M128.2 138.8 C126.36287999778882 136.9628799977888 126.77214019435213 133.19231438417097 128.93425854591067 132.03518375848802 C131.58592138712658 130.6160568728831 215.4140786128733 130.61605687288306 218.06574145408933 132.035183758488 C220.22785980564802 133.19231438417103 220.6371200022112 136.96287999779 218.7999999999996 138.8000000000004 C217.07346521515717 140.52653478484166 129.92653478484132 140.5265347848413 128.2 138.8 Z M135.75 123.91990120052802 C133.74115069570348 122.74985389375189 133.43164820562328 118.96835179437673 135.2 117.2 C135.8909090909091 116.50909090909092 139.2 116.0 143.0 116.0 C149.99057180908522 116.0 152.0 117.00471409545739 152.0 120.5 C152.0 121.655 151.46 123.14 150.8 123.8 C149.34011556195742 125.25988443804262 138.20294869398512 125.34861265584665 135.75 123.91990120052802 Z M165.57142857142856 123.42857142857143 C163.69990881913625 121.55705167627912 163.53912749255443 118.86087250744558 165.2 117.2 C167.0463795611828 115.35362043881723 179.49569480686478 115.63855194972191 181.42857142857144 117.57142857142856 C185.51786394415652 121.66072108701367 181.95382587356534 125.0 173.5 125.0 C169.05411255411255 125.0 166.67041198501872 124.52755484216158 165.57142857142856 123.42857142857143 Z M195.63214261394194 122.88519750986693 C194.1303470030499 120.74108392838556 194.4729623360219 118.10336285243731 196.42705848486975 116.76531277451707 C198.2075035170286 115.5461687649362 210.49357115693988 115.89357115693986 211.8 117.2 C213.6371200022112 119.0371200022112 213.22785980564788 122.80768561582903 211.06574145408933 123.96481624151201 C210.00189925383847 124.5341673086804 206.42741603973053 125.0 203.1224454227384 125.0 C198.13829216654796 125.0 196.86076756470587 124.63930534210058 195.63214261394194 122.88519750986693 Z M127.67663552437554 108.3433021910422 C126.58166524010467 107.24833190677134 126.9010884702311 103.4989115297689 128.2 102.2 C129.09711584710772 101.30288415289229 140.5505678410128 101.0 173.57755528455783 101.0 C221.23871379055288 101.0 220.57379134890022 100.9253123626031 219.82676386631417 106.19495794406147 L219.5 108.5 L173.92663552437554 108.75996885770887 C148.8612850627821 108.90295172944874 128.0487850627821 108.71545172944874 127.67663552437554 108.3433021910422 Z M194.0 82.5 L194.0 79.0 L128.0 79.0 L62.0 79.0 L62.0 82.5 L62.0 86.0 L128.0 86.0 L194.0 86.0 L194.0 82.5 Z" fill="currentColor"/></svg>
