<svg xmlns="http://www.w3.org/2000/svg" xmlns:xlink="http://www.w3.org/1999/xlink" width="256" height="256" xml:space="preserve" version="1.1" viewBox="0 0 256 256">
  <path d="M62.234639078899946 245.00609472951362 C56.8602259561142 243.8632019853986 56.09243922670481 243.3733329137865 54.944882171750216 240.35502912548804 C53.36320192351315 236.19489480840207 56.08994710918094 232.16404115335465 69.2217677861017 219.25 C81.40125266795572 207.27250100267094 84.14667686761948 205.54667686761948 86.80000000000001 208.2 C89.19674468079006 210.59674468079004 87.91990369420263 213.52700406196695 81.77888831571944 219.72309470901575 C74.65393037210715 226.91195234153585 75.22003772308753 227.3981808942146 86.64466488583645 223.90230117091565 C100.52403908133668 219.65528092851036 103.85166447681281 217.17084670861607 129.2837618870394 192.0675784767096 L153.06752377407878 168.59133329788835 L148.0319760251366 163.55578554894612 L142.9964282761944 158.5202378000039 L120.65814343213124 180.84197372559964 C100.59465137280394 200.89060210597492 98.02352938426534 203.12991560800367 95.40992929403404 202.8318548255977 C93.08723224108466 202.56696927425352 92.43664230229335 201.9501951128606 92.18604172649205 199.77553558003746 C91.94402527486201 197.6753672865112 92.94924610623782 195.89949715789797 96.5728836005913 192.02553558003746 L101.27368374819847 187.0 L54.08718194721503 187.0 C4.37580725740203 187.0 2.2973898507525634 186.82332704676455 0.621181342223899 182.4551976930369 C0.27953160400073884 181.56487274680694 -2.2026824808563106e-14 151.92667073625339 -1.4210854715202004e-14 116.59252655847344 L0.0 52.34862805341899 L2.578873170966311 49.924314026709496 L5.157746341932622 47.5 L32.56029072953041 47.20487122066248 C61.53003682306525 46.89286348585621 64.0 47.21734867081455 64.0 51.33518375848962 C63.999999999999986 55.86014009716264 63.124529466668136 55.99999999999997 34.79999999999843 55.999999999999986 L8.0 56.0 L8.0 60.5 L8.0 65.0 L29.999999999999996 64.99999999999999 C50.666666666666785 64.99999999999997 52.1212121212121 65.12121212121208 54.0 67.0 C56.41134262539338 69.41134262539342 56.48703464537064 70.37010821177147 54.428571428571686 72.42857142857115 C53.09341825902368 73.76372459811964 49.4848484848511 74.00000000000003 30.428571428571683 74.00000000000001 L8.0 74.0 L8.0 112.5 L8.0 151.0 L16.065741454089366 151.0 C25.143556746451885 151.00000000000003 28.00000000000001 152.03761841191778 28.0 155.33518375848763 C27.99999999999999 159.23691299676398 26.16172611029777 159.99999999999997 16.762474186211538 160.0 L7.924948372422307 160.0 L8.212474186211153 169.25 L8.5 178.5 L58.92443436796628 178.75934681129837 L109.34886873593256 179.01869362259677 L124.68714295887719 163.87938228440999 C139.92946173006808 148.8347816964407 140.0495710924636 148.74331066547654 143.8863682607712 149.25793315628664 C147.73766221505062 149.77450007412227 147.78702971023185 149.73588600607417 163.62365966986027 133.81989825584049 C180.26636057549754 117.09380031579992 183.66746525908334 114.46976268783233 187.29997859327685 115.55302395272291 C189.98699736542267 116.35432682104278 200.99999999999997 126.93778375449057 201.0 128.7186965087372 C201.0 129.71280655874554 205.01995763063636 130.0 218.9349003388255 130.0 C228.79909552517958 130.0 237.91159552517956 129.6029006478496 239.1849003388255 129.11755699522132 C242.89040826926913 127.70513419234595 246.8986002927918 123.05742817139516 247.59012989831186 119.37125846415313 C248.44196311058323 114.83059707000221 246.51909402867972 110.49808576483414 242.18341508859325 107.18912227122172 L238.65990362611862 104.5 L210.43968502459145 104.1812568724076 C182.3459269566511 103.86394209753499 182.20962539051112 103.85203844569446 180.02339716700175 101.52490514299164 C178.4524695733806 99.85272934728155 177.67099789351548 97.46326146680855 177.27815391456326 93.13090860441051 L176.7289799181873 87.07452066765293 L172.4178585216967 89.60100608023347 C168.9260204135922 91.64735950707048 167.7165160218042 91.91865149605405 166.05336856260305 91.028561987919 C164.86042067968776 90.3901156562601 164.0 88.9269083424265 164.0 87.53666091007992 C164.0 85.64364238341709 166.03702470031644 83.71577092670242 173.75 78.30911119011431 C181.3451316814323 72.98505775281502 183.99727730428486 70.4912155135025 185.75 67.02537676245393 C188.6297737528042 61.33090410507272 188.58312277982037 58.562863598512244 185.50321380990087 52.38229159269716 C181.0559573684431 43.45781072874713 171.22235123639985 40.28342397603522 162.2413329801105 44.87312299699438 L157.98266596022103 47.04949089804947 L162.99133298011054 54.18157448572366 C168.14984340260085 61.52702735272238 168.87151055565894 63.72848944434791 166.79999999999802 65.800000000002 C163.87375466558254 68.72624533440786 161.16047938153417 67.14749957228905 156.01768113490152 59.52620230827412 L150.97441457106112 52.052404616548245 L139.73720728553056 59.68741255839221 C133.55674327848874 63.88666692640639 128.0999251406491 67.67245074703335 127.610944756998 68.10026549311878 C127.1219643733469 68.52808023920421 129.15988780268444 71.57218589501042 132.13966348885924 74.86494472824367 C135.11943917503402 78.15770356147692 139.3445140343849 84.37262870212662 141.52871873186123 88.67588948524298 C143.71292342933756 92.97915026835933 145.58659113437326 96.66159113437394 145.69242474305167 96.85909140971987 C145.79825835173008 97.0565916850658 147.21772507646 96.2690916850658 148.84679524245146 95.10909140971988 C153.94076177816316 91.48186729906766 158.93349854796432 93.25965112873283 157.63126832721028 98.23701401454711 C156.82050759086425 101.33589033768104 143.344452664017 110.0 139.335257378375 109.99999999999999 C129.86739386325397 109.99999999999994 111.99999999999996 85.96086386904419 111.99999999999999 73.2226177850766 L112.0 68.09442301383498 L120.50096538207602 62.29721150691749 L129.00193076415204 56.5 L102.33336743980742 56.233350777463386 C84.69999892614871 56.0570411672424 75.21339201608014 55.59206278726357 74.3324020577314 54.860906062021186 C72.36156579260938 53.22525723771853 72.71444707640978 49.22319080387025 74.93425854591061 48.03518375848803 C76.15582104732025 47.38142334775562 89.06240077172617 47.00000000000004 109.9627427405839 47.000000000000014 L143.05696838934657 46.99999999999997 L151.03358973858388 41.537169292890184 C155.4207314806644 38.5326124039798 160.92041359306143 35.55757205214084 163.2551055439106 34.92596851102583 C168.441800038442 33.52281354309258 177.60865942187138 34.22914953213649 181.70532410586856 36.34761717289953 C184.108675481632 37.59043847063152 185.06257897173228 37.66475932399945 186.3198817526423 36.707148158772824 C187.65049659289977 35.69369965059043 187.72782253545353 34.851687289792004 186.80178179166978 31.459675239211435 C183.5089580229237 19.398329149418714 194.76873365942117 8.128332965869996 206.30733645753367 11.93641529700291 C208.95901957847454 12.811549645354878 210.41384059330673 12.725033066820005 213.29595167468662 11.520810166804424 C229.5002293776519 4.75023063772536 243.25145696914217 23.760662146905112 231.58868721791134 36.80966484151082 C229.34202824893111 39.323360950189404 228.11338193241536 41.86723219498348 227.73523980775093 44.78809926015802 C226.65133071588835 53.16049197063502 221.04032023967278 57.98993429839423 212.38954684032228 57.99626193956226 C208.63518511332313 57.999008081754035 206.3375063141862 57.36102155357598 203.7307060011166 55.591999077787946 C200.52131869988733 53.41405002625592 199.98253638945022 53.3239308678222 198.0911591607943 54.64870304643699 C196.47781244522704 55.77873507329073 195.9977678841538 57.1857869770946 195.990231084296 60.806703968649074 C195.97881733726084 66.29022898680813 192.51504158400638 74.34846240968712 188.63234511087242 77.9243140267095 C186.21999281291372 80.14602100925933 186.0 81.00264361662643 186.0 88.1743140267095 L186.0 96.0 L212.8036556763982 95.99999999999999 L239.60731135279642 95.99999999999997 L244.87080480767847 98.62290944746707 C252.2183397023915 102.28434055897755 255.33394568113238 107.21827025065058 255.82881353284986 115.97620924842104 C256.2426656986951 123.3003706583583 254.3991488208202 128.4436641648862 249.83367068049637 132.7022721737365 C244.76842829586943 137.42705260701007 241.46116447288983 138.0 219.2532303151766 138.0 L198.44222336856112 138.0 L192.27926027124897 144.25 L186.1162971739368 150.5 L185.8081485869684 166.33894883462958 L185.5 182.17789766925915 L182.694236298674 184.58894883462958 C180.14846000580826 186.77658740689623 178.9943545099643 187.0 170.2392203926434 187.0 L160.58996818793875 187.0 L137.0449840939694 210.3519915266197 C111.7174838120474 235.4718883850503 107.46162208871067 238.66232707885135 93.5 242.99581578729783 C85.63622788336443 245.43661868661073 69.22207798955561 246.49200454859286 62.234639078899946 245.00609472951362 Z M88.35565547885194 235.41481547995892 C102.06347624140513 231.87832347474875 106.45298901072627 228.59743758152393 134.24525170602297 201.1152162260781 C148.4051401443356 187.1132908450266 159.7590493615995 175.4257160282659 159.47616107772052 175.14282774438772 C159.19327279384154 174.8599394605095 148.0579095261312 185.44576717892045 134.73090937169755 198.66688934085653 C108.64890422607942 224.5416827874329 104.48893171458654 227.67437657420015 90.5 231.97525726611897 C86.65 233.1589352625325 79.54728140001134 234.3913296735879 74.7161808889141 234.7139115129088 C69.88508037781686 235.03649335222966 65.69602273034813 235.68282855972916 65.40716389453915 236.15021197401882 C64.4939274156404 237.62785963664328 81.94533174168339 237.06862019771793 88.35565547885194 235.41481547995892 Z M176.7899535414419 169.0 L177.0799070828838 159.5 L172.09135277461283 164.41178179977572 C168.08156192800564 168.35986304419916 167.28891566842165 169.67132677271954 168.0513992331709 171.0960403456864 C168.57312965492693 172.07090255606062 169.0 174.27526511393825 169.0 175.99462380763669 C169.0 178.9955231702191 169.15019563223746 179.10829972166286 172.75 178.81036526172602 L176.5 178.5 L176.7899535414419 169.0 Z M27.2 171.8 C25.657499382105748 170.25749938210575 25.657499382105748 166.74250061789428 27.199999999999996 165.2 C30.17948449452006 162.22051550547994 39.0 164.68726984175825 39.0 168.5 C39.0 172.31273015824178 30.179484494520075 174.77948449452006 27.2 171.8 Z M44.2 171.8 C42.65749938210575 170.25749938210575 42.65749938210575 166.74250061789428 44.199999999999996 165.2 C45.07114565981861 164.32885434018138 52.4507936507936 164.0 71.12857142857138 164.0 C93.18484848484806 164.0 97.08143623912636 164.22429338198356 98.42857142857139 165.57142857142853 C99.29285714285713 166.43571428571423 100.0 167.75357142857138 100.0 168.5 C100.0 169.2464285714286 99.29285714285713 170.56428571428577 98.42857142857139 171.42857142857144 C97.08143623912636 172.77570661801644 93.18484848484819 173.0 71.12857142857139 173.0 C52.45079365079361 173.0 45.07114565981862 172.67114565981862 44.2 171.8 Z M189.2347042039346 127.77316574239613 L185.99248533094612 124.53094686940764 L170.01391794283933 140.48610244973997 L154.03535055473253 156.44125803007228 L157.2384451636503 159.74601297490594 L160.4415397725681 163.0507679197396 L176.45923142474558 147.0330762675621 L192.47692307692307 131.01538461538462 L189.2347042039346 127.77316574239613 Z M87.00714008585393 158.40701717310853 C79.11901553484745 154.98628565654826 74.59213661067204 147.7305378816826 74.5871029952163 138.5 C74.58049462433698 126.38170882850808 83.28746006244486 117.73726069091757 95.5 117.73726069091757 C107.7125399375552 117.7372606909176 116.41950537566301 126.38170882850802 116.41289700478369 138.5 C116.40599854186223 151.15025584137123 107.63138359071283 160.06193736113988 95.28211863089646 159.96085818936479 C92.6519533839034 159.93933019351542 88.92821303863427 159.2401017362001 87.00714008585393 158.40701717310853 Z M102.70190609194955 148.95408982156223 C110.22241896784986 144.2574517971385 109.28543268732308 131.78456375899654 101.09388247542121 127.54854851484221 C95.09708265722074 124.44748280823998 87.68083156514058 126.84895002032661 84.5485485148422 132.9061175245788 C78.49135035993632 144.61944714439625 91.38758140668862 156.02000253447832 102.70190609194955 148.95408982156223 Z M42.10081313273166 149.86387664677957 C22.862820254137038 146.3194021665229 18.15393076707259 120.43865281288282 34.695938979479706 109.16559895688759 C39.188572567620604 106.10395736270803 48.64374818337072 105.06726260884733 54.486854632119794 106.99566163737182 C62.984651682918546 109.80018757252172 68.93878336513669 118.34091878876795 68.9780379995091 127.78211863089648 C69.03928277726175 142.51220579879362 56.79566048143301 152.57130624961994 42.10081313273166 149.86387664677957 Z M90.30255419770653 147.80295570239625 C88.02355096608001 146.70186794817891 85.0 141.4253223739148 85.0 138.54921095058262 C85.0 135.22255537688113 88.19324251484511 130.81720482921318 91.65217220333824 129.3719717265273 C96.37509386407751 127.39860905650836 101.43088698841046 129.0190058699457 104.07365579633557 133.35309435897534 C106.40020880819694 137.1685952070205 106.47601084198868 139.194623367658 104.45180836929416 143.46031343355128 C102.0659034249207 148.48823487751207 95.73966177338902 150.42986403094372 90.30255419770653 147.80295570239625 Z M54.864236412504084 139.2888762712978 C61.31195507989509 134.56506823442268 62.503248630300675 125.97070989940273 57.60117486674032 119.54375987358583 C47.4946707647953 106.29344991665484 26.325801741909448 120.54117933108552 34.99459801806525 134.75914004237228 C39.33118541824595 141.87171107445715 48.48914381532575 143.95947609114992 54.864236412504084 139.2888762712978 Z M129.04568084912805 140.55504205593857 C128.38611612916208 139.7603151867048 127.9935160072131 138.0728151867048 128.17323613368586 136.80504205593857 C128.49052522419655 134.56683651085382 128.8399188250104 134.4918376252557 140.22304145211768 134.2184979164592 L151.9460829042354 133.9369958329184 L152.58470875686686 136.48148390191176 C153.74828120137357 141.11752578818525 151.81579724270188 142.0 140.5 142.0 C132.7779160265539 142.0 129.94868324072468 141.6430933750286 129.04568084912805 140.55504205593857 Z M97.0 138.44098300562507 C97.0 137.64844235253128 96.325 137.0 95.5 137.0 C93.99377033240967 137.0 93.44432422387052 139.11099089053718 94.63948017322923 140.3061468398959 C95.57272278279906 141.2393894494657 97.0 140.11162690461825 97.0 138.44098300562507 Z M41.0 136.79776165948994 C33.936743433248836 132.02496101197735 34.847698673942716 121.63288897825436 42.61377390722649 118.38801555904926 C47.028444278415435 116.54344850146667 51.021405546705424 117.2941328194327 54.31517372195793 120.5879009946852 C63.380259778356255 129.65298705108347 51.61786896621969 143.9724935127443 41.0 136.79776165948994 Z M48.5 128.0 C48.5 127.19006454733538 47.7125 126.37573144325512 46.75 126.19037087982164 C45.522150993517435 125.95390876693556 45.0 126.49385142007796 45.0 128.0 C45.0 129.50614857992204 45.522150993517435 130.04609123306443 46.75 129.80962912017839 C47.7125 129.62426855674488 48.5 128.80993545266463 48.5 128.0 Z M227.63636363636363 124.36363636363637 C221.460911113928 118.18818384120073 225.8441934033836 107.0 234.4390512605157 107.0 C238.50634063063293 107.0 243.47637202696276 110.77756396868429 244.43517462707965 114.59773780985371 C245.33507932817375 118.18324372968111 243.3882369518559 123.51559751206304 240.48466327013665 125.41809205773069 C236.6266517216036 127.94595831248364 230.73517395701282 127.46244668428552 227.63636363636363 124.36363636363637 Z M236.0 116.94098300562504 C236.0 116.42344235253127 235.325 116.0 234.5 116.0 C232.95358970713045 116.0 232.5132962121502 117.17996287881688 233.63948017322923 118.30614683989589 C234.43841083860957 119.10507750527623 236.0 118.20196073288464 236.0 116.94098300562504 Z M82.5 115.06493101543828 C65.18896618550886 110.85058277998124 59.362640832474796 89.2163597023833 72.32172038906506 77.27109728549314 C77.70997942532955 72.3043735396213 82.51992081513731 70.65255892730077 90.01553892757815 71.19474299319441 C108.80070597643086 72.55353930542024 116.87682683636855 95.78983983029815 103.28720441509029 109.37946225157637 C97.99440727940905 114.67225938725763 89.93809627755712 116.87572569462387 82.5 115.06493101543828 Z M25.304469781173832 105.0440854251416 C17.822193414336326 100.48185193081031 19.15527289157957 88.99419511052918 27.5 86.12435999017447 C36.11258767826431 83.16240494058678 43.669086760215805 90.48571897275521 41.04331975137591 99.2497481496581 C39.77164502494471 103.49422009574181 35.23392047866189 106.99252387912489 31.0 106.99252387912489 C29.625 106.99252387912489 27.062011401528224 106.11572657483241 25.304469781173832 105.0440854251416 Z M93.96136389641441 105.51997950565271 C104.3620010125028 100.14160102624663 104.0452379061952 86.10486208782211 93.40701264632023 80.9549855943821 C86.26820363186376 77.49914744124834 79.12276486454121 79.99434525530671 75.36864640950091 87.2540098347313 C72.09132643331981 93.59164782656912 75.75009970337086 103.23014905390579 82.5 106.04051428889714 C85.67572227901076 107.36274707704312 90.8524988174266 107.1276361183751 93.96136389641441 105.51997950565271 Z M80.95403272974755 101.25 C74.75651997433373 95.71204797679009 76.70131094506124 85.28093317657357 84.32372038299556 83.17628447943008 C88.88777417859778 81.91608848066852 92.43346507067126 82.70619234339853 95.36363636363635 85.63636363636361 C104.86985103045144 95.14257830317871 90.97193963645252 110.20176662183589 80.95403272974755 101.25 Z M47.38064557396037 101.14667077419244 C43.7879784666825 98.89114534219061 41.80879118179801 94.20604409100997 42.65700940733112 89.96495296334443 C44.70102073625496 79.74489631872532 59.77367563476539 78.72414115263119 63.02817476409287 88.58537037372861 C66.26199478390866 98.38394127756139 56.04466725431708 106.5860618059617 47.38064557396037 101.14667077419244 Z M135.51252734408058 95.37573956905912 C132.97386851738878 89.29987376700927 121.0 73.62559712232648 121.0 76.3782561680764 C121.0 79.36398041245533 130.7283651649984 94.36902044510514 134.8561528497994 97.75 C137.10922025475958 99.5954376565973 137.17548251711568 99.35575151865706 135.51252734408058 95.37573956905912 Z M32.809629120178364 96.25 C32.62426855674488 95.2875 31.809935452664618 94.5 31.0 94.5 C30.190064547335382 94.5 29.37573144325512 95.2875 29.190370879821636 96.25 C28.953908766935562 97.47784900648257 29.49385142007797 98.0 31.0 98.0 C32.50614857992203 98.0 33.04609123306444 97.47784900648257 32.809629120178364 96.25 Z M89.5 92.98630495696784 C89.5 90.84279859889084 86.59433155992402 91.15240088076735 86.17288185846141 93.34081318457076 C85.91551558070623 94.67720878971384 86.32279121028616 95.08448441929377 87.65918681542924 94.82711814153859 C88.67163406694316 94.63213861635698 89.5 93.80377268330014 89.5 92.98630495696784 Z M54.809629120178364 92.25 C54.62426855674488 91.2875 53.80993545266462 90.5 53.0 90.5 C52.19006454733538 90.5 51.37573144325512 91.2875 51.19037087982164 92.25 C50.95390876693556 93.47784900648256 51.493851420077974 94.0 53.0 94.0 C54.50614857992203 94.0 55.04609123306444 93.47784900648257 54.809629120178364 92.25 Z M147.97446691158567 76.96240086011198 C142.90767501172198 69.50121894843016 142.78518552303558 65.66716825434662 147.598618001623 65.19793201003569 C150.41972203018582 64.92291739934737 151.06903611266796 65.46652475857044 154.848618001623 71.26764997965282 C159.47254838385706 78.364731071954 159.67906482035932 79.17807803678353 157.42857142857144 81.42857142857143 C154.52493396532347 84.33220889181939 152.2491153066016 83.25709973743328 147.97446691158567 76.96240086011198 Z M215.34267516111038 48.88972818223621 C218.65441450265325 47.38079875778828 219.89263054955214 44.227038326588236 219.28608537190743 38.84578543254443 C218.80064931377717 34.53900946767665 218.92063555438295 34.27551451686409 221.9359714560718 33.026521491274075 C225.99931180281536 31.343430811115084 228.3416955189475 27.028926644734444 227.04448467566965 23.61700356380127 C225.3604142921743 19.187562782343726 218.60255349859696 17.36411487554988 215.90716257840126 20.611862249725398 C213.48243405387922 23.533481388382043 210.7310946862199 23.94151450453325 207.1928398182382 21.904226366189057 C200.56938649965616 18.09051497899302 195.0 20.460109887082794 195.0 27.09188772713705 C195.0 30.715416584890757 195.17257015494167 30.978010772851448 196.93425854591067 30.035183758488 C200.4488366818499 28.15423862219628 205.64110197019028 28.827127354719472 208.92327471805652 31.588893641993174 C211.53720673981613 33.78837242921242 212.0 34.86920456102136 212.0 38.77444242062559 C212.0 42.14899387789757 211.40876398691884 44.00043945350556 209.77620499604203 45.73821886529902 C207.89056981400552 47.745385537871464 207.77652159193931 48.24706670348952 209.02620499604203 49.037357312149545 C210.9683917687076 50.26558196621974 212.39624860407142 50.232209963069735 215.34267516111038 48.88972818223621 Z M201.76534943370118 41.349964273632615 C203.8177712235514 39.698295578234855 204.2166096937927 38.85974074656926 203.36405632816079 37.98869526175638 C201.6365931140797 36.22376289099458 190.5509910048755 43.754050971303734 192.110461704119 45.633098211028084 C193.3315241263955 47.10438842200982 196.19104356378173 45.83583874127302 201.76534943370118 41.349964273632615 Z" fill="currentColor"/></svg>
