<svg xmlns="http://www.w3.org/2000/svg" xmlns:xlink="http://www.w3.org/1999/xlink" width="256" height="256" xml:space="preserve" version="1.1" viewBox="0 0 256 256">
  <path d="M98.56736775303168 253.7927184414711 C97.49061937425574 252.25544478983204 97.0 249.26274926424648 97.0 244.23203921114003 C97.0 236.69260081232977 97.87223742571616 234.89585530080026 103.18082028555531 231.5 C104.29453500105609 230.78756616971648 105.78802602974773 224.46111043595363 108.37437636401907 209.5 C120.95351056210616 136.73421362045156 120.94440482461528 117.25970722812836 108.31179376349836 75.65414126420237 C106.07684408024369 68.2933236135332 105.19598010683582 66.64481048733646 103.06480204572694 65.8345380326978 C98.12365430372958 63.95591700956408 97.00000000000001 62.10511077678137 97.0 55.84501243788793 L97.0 50.0 L73.25 49.9944230655975 C60.13670822877231 49.99134382483923 47.849306446995975 49.53037955690533 45.81427589808294 48.96516653923946 C40.414302893913245 47.46536839683261 36.99999999999997 42.93376346758706 37.0 37.26649265219518 C37.00000000000001 34.74746142103944 36.04978296806574 27.587698992085002 34.88840659570163 21.355909476740877 C32.587498824758526 9.00954763923517 32.83664605348263 6.0724448556097155 36.495212668399496 2.413878240691375 C38.76498754852698 0.1441033605629718 39.59027904062822 0.0 50.31968676274457 0.0 C60.29674480665618 0.0 62.056634089225916 0.25670810593879034 64.32795722069697 2.0433311415411595 C67.85218194425414 4.8154867131126124 68.50535418347721 9.403740830805546 66.7396832718041 18.98466961284805 L65.26253674102415 27.0 L75.88126837051207 27.013654683292742 C81.72157076673044 27.02116475910375 87.47089566438272 27.287769094720478 88.65754592085048 27.606108762441025 C91.14119664461089 28.272391470278837 92.15547220546966 30.97080224097414 90.81954775424313 33.35796679651422 C90.00995462722763 34.80462945430588 87.2294622809102 35.00000000000003 67.45030988642776 35.000000000000014 L45.0 35.0 L45.0 37.464816241512 C45.00000000000001 38.87825197247892 45.82506829648214 40.371195634944584 46.93425854591074 40.96481624151201 C48.19000099840741 41.63686920693211 65.59157346172121 42.00000000000003 96.54124735009482 42.00000000000003 C139.60169962433594 42.00000000000003 144.15525218855427 41.846964009075236 143.60698880418408 40.41821253176353 C143.27314496188285 39.548229424233455 143.0 37.97322942423345 143.0 36.918212531763515 C143.0 35.08970141344393 142.04224899414467 35.0 122.51905202821533 35.000000000000014 L102.03810405643065 35.00000000000003 L101.37159309013221 32.34440878863711 C100.16712532784071 27.545426977917717 102.3429039496136 27.0 122.69112963510673 27.0 L141.0 27.0 L141.0 24.434258545910737 C140.99999999999997 21.206177784887284 142.61615181887308 18.00054105171688 145.36703996974734 15.772235845588824 C147.09741983245323 14.37057418391014 149.59579221723016 14.040274842518633 158.60397727316547 14.02223584558881 C168.97341897530904 14.001470916153252 169.8803153604945 14.159738611439625 172.3135336888009 16.41476925154943 C173.7466022171594 17.742892339901633 175.2095676566113 19.98680270500158 175.56456799869403 21.40123672954931 C176.1278639991389 23.645586761006935 174.99750903076298 32.940252961296544 173.33311446616574 39.75 L172.78318394025052 42.0 L195.700462335018 41.99999999999997 C213.77747391973256 41.99999999999995 219.0225645273343 42.296014387998454 220.53446557850367 43.401543428252495 C222.05549841377066 44.513749792066484 222.5290838531059 46.34560091779021 222.82850475217245 52.27499665062825 C223.2668753899259 60.9559971986863 222.22702351704186 63.58937013218694 217.5968125778548 65.5239957893657 C214.60697488713416 66.77322974074238 214.1026608919245 67.69922382545566 211.1177975131837 77.42041286611104 C198.86004940464463 117.34180003060942 199.1174500719251 139.28137371190348 212.74184808229708 215.84653856215652 C215.32087484108922 230.3399208598411 215.62468101222134 231.27167481347544 218.20670055406063 232.60688901066658 C222.08480316986225 234.61233381341725 222.99999999999994 236.9235460877361 222.99999999999997 244.71175230250523 C223.00000000000003 256.5260091500826 224.32904424201632 256.0 194.47847978983893 256.0 C171.16298301637258 256.0 168.99209313724407 255.8537429836192 168.1199758999348 254.22417701963485 C167.51707237332255 253.0976414754405 167.5223762770361 251.81794972027998 168.13448225501799 250.72417701963485 C169.0042132495408 249.17005395445838 171.36294766122109 249.0 192.04969011357116 249.0 L215.0 249.0 L215.0 244.5 L215.0 240.0 L160.0 240.0 L105.0 240.0 L105.0 244.48339659335684 L105.0 248.9667931867137 L131.25 249.23339659335684 L157.5 249.5 L157.5 252.5 L157.5 255.5 L128.81736775303168 255.7652246848765 L100.13473550606334 256.030449369753 L98.56736775303168 253.7927184414711 Z M137.0 213.0157765424592 L137.0 194.0315530849184 L139.9179709575759 190.7657765424592 L142.83594191515178 187.5 L160.00000000000006 187.5 L177.16405808484834 187.5 L180.08202904242415 190.76577654245924 L183.0 194.03155308491847 L183.0 213.01577654245924 L183.0 232.0 L195.13084237697535 232.0 L207.26168475395073 232.0 L206.70010225916383 228.75 C200.92580014383066 195.33285817482087 197.82100914667416 175.78875668334575 196.37415225817762 163.75 L194.60144933987317 149.0 L159.98075681359882 149.0 L125.36006428732448 149.0 L124.11870917867066 159.75 C122.65243951748758 172.44773552131383 119.02800734202661 195.9473099191288 115.52016648332987 215.5 C114.13875172657526 223.2 113.0065900491537 230.0625 113.0042516446153 230.75 C113.0010857280025 231.6807917580342 116.06439912287185 232.0 125.0 232.0 L137.0 232.0 L137.0 213.0157765424592 Z M175.0 224.0 L175.0 216.0 L160.0 216.0 L145.0 216.0 L145.0 224.0 L145.0 232.0 L160.0 232.0 L175.0 232.0 L175.0 224.0 Z M175.0 202.0190520282149 C175.0 194.6938830277333 175.29276012717122 194.8111262149472 158.0 195.21097265656476 L145.5 195.5 L145.20228259435316 201.75 L144.90456518870636 208.0 L159.95228259435316 208.0 L175.0 208.0 L175.0 202.0190520282149 Z M194.0 129.09937260271175 C194.0 115.1898572021934 196.3591714647409 100.12962472275467 201.37807308109086 82.0 C203.2813087597146 75.125 205.1479836923345 68.7125 205.52623959802395 67.75 C206.17520602315548 66.09865715301775 203.60864077381547 66.0 159.99999999999991 66.0 C116.39478594842572 66.0 113.82433719898782 66.09878691384408 114.4647652560923 67.75 C115.89178578007031 71.42928128267684 121.07772959288666 90.91058230253059 123.04975081700955 100.0 C124.3724070117095 106.09637182232679 125.3209503462687 115.1428572419319 125.69726729293454 125.25 L126.28368345938829 141.0 L160.14184172969414 141.0 L194.0 141.0 L194.0 129.09937260271175 Z M215.0 54.0 L215.0 50.0 L160.0 50.0 L105.0 50.0 L105.0 54.0 L105.0 58.0 L160.0 58.0 L215.0 58.0 L215.0 54.0 Z M166.40148148197986 32.95068330870731 C167.31205803012864 27.97355912849633 167.7926756370935 23.47355912849633 167.46952060856842 22.950683308707312 C166.6887427411077 21.687358181492137 150.2897185346633 21.722208569368995 149.50688699917276 22.988856601257936 C149.17075615490538 23.5327277319498 149.64094903484104 28.032727731949798 150.55176006569647 32.988856601257936 L152.20778012179727 42.0 L158.47683393993512 42.0 L164.74588775807297 42.0 L166.40148148197986 32.95068330870731 Z M57.458140542356084 24.75 C57.73107507168834 23.5125 58.45111038047355 19.595624470617985 59.058219006323235 16.04583215692885 C60.42776745124272 8.038018833248898 59.445702744146914 7.000000000000004 50.49999999999999 7.000000000000002 C41.095275092861925 6.999999999999999 40.628645817032826 7.663969903756021 42.593648637715496 18.25 L44.21784340427618 27.0 L50.589869673923175 27.0 C56.38419481317608 27.0 57.00688650913582 26.79601032883709 57.458140542356084 24.75 Z" fill="currentColor"/></svg>
