<svg xmlns="http://www.w3.org/2000/svg" xmlns:xlink="http://www.w3.org/1999/xlink" width="256" height="256" xml:space="preserve" version="1.1" viewBox="0 0 256 256">
  <path d="M114.31096192556171 228.88709799534917 C92.76078586891407 227.42959489690898 72.35540761905261 222.34244181929716 64.74230885599847 216.5294086191371 C59.967471935624026 212.88354950087813 53.999999999999986 202.81950617002434 53.999999999999986 198.41268130705836 C53.999999999999986 196.6991268524513 52.47235905866496 195.22431735078152 47.74999999999999 192.37882928330936 C28.733519820014276 180.9203258604951 12.92119067572859 163.65111322208395 5.68001603050854 146.4326886335464 C-0.25095724507528416 132.3297259119273 -1.768944665321901 115.74147095560636 2.1152917735670584 107.47811362559267 C12.050050547980632 86.34282409518741 64.95040599032001 70.00000000000003 123.42881265311163 69.99999999999999 C141.11392649252878 69.99999999999997 143.0 70.39787004524122 143.0 74.12857142857156 C143.0 78.4158593323149 140.70793543094436 79.00000000000003 123.88537667903825 79.0 C89.62401149468191 78.99999999999994 53.067593466858156 85.51857611329149 31.32534636685174 95.50488847619954 C-0.812128705441431 110.26577603077966 2.0668268209740432 128.10040216819118 38.82691799346528 141.975813148746 C49.58818702857384 146.03774623356347 51.92175318241537 148.239000502136 49.35356396433634 151.90560422794306 C48.05331608034649 153.76196812136203 47.0935087515084 154.1145814751824 44.49054154410734 153.69217804727032 C39.697661250022804 152.9144006476791 26.344042663409226 147.39504929516224 19.618796673783756 143.4121256555473 C16.384134844364823 141.49644687049957 13.58421124693075 140.0824554197345 13.396744235041375 140.2699224316249 C13.209277223152 140.45738944351532 14.32656552677318 143.28584794671852 15.87960713197733 146.55538577207648 C25.94314653927275 167.74163257890777 52.38788591948767 188.41971240678038 79.81735866810718 196.55058183999213 C84.59281140064823 197.96616073239792 89.7225357679138 199.59477604110512 91.21674615091955 200.16972697045256 C94.15708463633469 201.30112745060768 95.41809223576297 203.74689416190802 94.41237379246911 206.36775441371037 C93.16857865534175 209.6090325845727 89.17942278841129 209.36494058266757 76.92401407677734 205.2976611720731 C70.3658063345498 203.12114760585953 65.0 201.77299245500788 65.0 202.3017608368472 C65.0 202.8305292186865 66.91598111724082 205.17913901197767 69.2577358160907 207.52089371082755 C73.90421533833849 212.16737323307532 77.28820555997227 213.47107166963863 94.5 217.2455968560963 C103.21603854332922 219.15701330500661 107.51730942317634 219.4385844609678 128.0 219.4385844609678 C148.48269057682373 219.4385844609678 152.78396145667074 219.15701330500664 161.5 217.2455968560963 C178.7117944400278 213.47107166963858 182.09578466166178 212.16737323307518 186.74226418390936 207.5208937108275 C189.0840188827592 205.17913901197758 191.0 202.77411358119483 191.0 202.17639275353247 C191.0 201.53168090103466 188.39871462108627 202.06874879310405 184.60487447022456 203.49674638164151 C167.81114549658048 209.81788895046287 148.5631771776018 213.0 127.12154917898714 213.0 C113.04226055340621 213.0 110.9553545181442 212.78443346132826 108.89674488436786 211.11747251031954 C106.84488058881169 209.45597360283273 106.71194569606966 208.92762614160105 107.76452213090828 206.61747251031954 L108.95712241770039 204.0 L125.10022359426229 204.0 C156.02791613708501 204.0 179.08028026438743 198.3342317084222 202.37030472497383 185.00869944876843 C220.1214228452486 174.8522868800763 238.28727229294765 155.01502007278157 242.46025201036227 141.23012565400637 L243.14739108587162 138.96025130801274 L239.35708572529876 141.53242200299704 C231.35824398152351 146.96058263120727 211.56129552595684 154.81310291648393 208.67120439240935 153.70407089014412 C207.8239979547655 153.37896727615706 206.67279406485093 152.2571272094499 206.1129735259325 151.21109296412817 C204.43080327598094 148.0679291007403 207.2339344324553 145.53081734627258 215.70458678470547 142.52973152053858 C229.90590563772008 137.49831540945365 240.9541685436892 130.4030815417356 245.051798163185 123.68284763771845 C250.95089023988743 114.00816196379644 242.98707666741169 103.6338897932811 222.75275174784665 94.63440563812027 C213.66095219175696 90.59070730016326 211.99933763897292 88.73827181654272 214.04140234151598 84.92263901723595 C214.99917015933195 83.13303347965036 215.79688515364128 82.86763190420513 218.76863004601057 83.34987971195615 C224.59332638009548 84.29509780424279 240.1492539344277 92.59757447554834 246.19993122656246 97.99045561587661 C253.78998210847124 104.75535816792404 256.0 109.55043545101157 256.0 119.25367132482232 C256.0 146.70034075452432 237.79875493551577 174.57403542220055 208.25 192.37882928330933 C203.52764094133502 195.22431735078152 202.0 196.6991268524513 202.0 198.41268130705836 C202.0 202.8195061700245 196.03252806437615 212.88354950087796 191.2576911440015 216.52940861913706 C183.98868471046995 222.07970778711274 163.56111711161816 227.36176754044618 145.0 228.49049441613582 C139.775 228.8082338005712 133.475 229.21293967749008 131.0 229.38984080928896 C128.525 229.5667419410878 121.01493286650278 229.3405076748149 114.31096192556171 228.88709799534917 Z M115.0 148.38093467605523 C77.44791677922103 146.4595187816569 47.32458008680896 140.02453466537935 28.725578248331665 129.950886926635 C21.79425745144129 126.19672395173512 19.954743058482915 124.08147400786883 19.28611624209107 119.0964888554587 C18.438561498236954 112.77749639151979 20.40088928762459 109.4471068081211 27.384010904396284 105.35304386290872 C44.356247915241795 95.40256462786596 74.09274483780837 88.47109447059626 108.7277409510136 86.39211383919609 C120.89136799888291 85.66198686134278 123.0 86.26889990754567 123.0 90.49999999999999 C123.0 94.03558170843591 121.22934476046883 94.70620637414379 110.0 95.4236691929428 C88.61432186243891 96.79003822388724 71.06300983085218 99.55496668125191 55.37154273501241 104.02950879069274 C39.68962001055826 108.50132924948025 28.0 114.25193717570197 28.0 117.49470359280863 C28.0 121.01991212523663 47.59895046174527 129.00642396645006 66.89971164027739 133.34621606237982 L78.17682557703858 135.8818844474221 L128.54075786194068 94.93730554631703 C156.24092061863684 72.41778715070924 179.3218426181938 53.24731653391879 179.83169563873398 52.336259731227116 C180.34154865927414 51.42520292853544 180.5256449484732 46.94418786112412 180.24079850362077 42.37844847031306 L179.72289587661635 34.07710412338386 L183.2614479383081 30.53855206169193 C186.52000134572862 27.27999865427122 187.27087324096271 27.0 192.7507767347725 26.999999999999986 C200.3364508973338 26.999999999999968 203.88844549025103 28.227685983859217 212.3114520537991 33.76081179061358 C228.55079074186915 44.42853516250837 238.75860777389917 64.47444989004266 233.31134622239244 75.0 C230.49696486695888 80.43812917831195 226.02345754322033 82.21268196617677 217.0 81.47039175708449 L209.5 80.85342464203723 L206.3707014851223 84.17671232101861 C201.91477119096018 88.90887135748807 162.8561903157625 137.1912484866301 163.207802850775 137.53265365717286 C163.78673659616985 138.0947808693681 182.69358085543945 135.00120814011 191.5 132.90343217782817 C209.25403914804093 128.67424481497412 228.0 120.76050720310458 228.0 117.49470359280865 C228.0 115.36194569148711 222.31929673364024 111.84551164501369 212.51414190487492 107.9087428250586 C203.642880993332 104.34693233250096 203.5 104.23575574084182 203.5 100.89478281298697 C203.5 97.9003964448835 203.83826205233206 97.46133701165515 206.36797302078122 97.17219377192515 C213.13557846599036 96.3986637568176 233.8215730024812 106.74081199795023 235.99320417322372 111.98359342282909 C237.56867748753103 115.78712246538683 236.7598279291093 122.50291824582081 234.41407452772845 125.09494657812866 C228.65254737197276 131.46136242400942 206.29453388910008 139.63434674460646 182.92355515511463 143.9173347037172 C165.30525576224795 147.14608113400362 132.71841250067166 149.28752723983226 115.0 148.38093467605523 Z M142.89669117440025 138.9960169610624 L149.5 138.9920339221248 L175.26633644260644 107.20197431339449 C189.43782148603998 89.71744152859283 202.326166708481 74.64782910470545 203.9071036035865 73.71394670475587 C207.27283402058757 71.72576083273059 211.6874042252515 71.29943195957199 218.13460332858065 72.33995248914394 C224.2197155759244 73.3220354241725 226.4820196659378 71.40382803843218 225.49845429584798 66.0961440748562 C223.06706149256044 52.97544566110019 204.07587980340062 35.302751852656286 193.35407437103459 36.1834301968263 L189.5 36.5 L189.5 45.56623297789028 C189.5 53.500985593425796 189.20173624304508 55.061005566873 187.11009664914855 58.06623297789028 C185.79564980618022 59.95480484005063 163.62108346992133 78.5959778879137 137.8332825685732 99.49106197314156 C112.04548166722506 120.3861460583694 91.3292974864073 137.60976582880244 91.79731772231148 137.76577257410383 C93.84929850755923 138.44976616918638 125.06108181375079 139.77805950425864 130.39669117440025 139.40846277194984 C133.63987132032037 139.18380824737744 139.26487132032037 138.99820763247808 142.89669117440025 138.9960169610624 Z" fill="currentColor"/></svg>
