<svg xmlns="http://www.w3.org/2000/svg" xmlns:xlink="http://www.w3.org/1999/xlink" width="256" height="256" xml:space="preserve" version="1.1" viewBox="0 0 256 256">
  <path d="M93.66666666666666 255.33333333333331 C93.3 254.96666666666667 93.0 252.94166666666666 93.0 250.83333333333331 C93.0 247.16329966329965 92.85942028985507 247.0 89.7 247.0 C85.53666140980538 247.0 84.0 245.47345160348016 84.0 241.33751260711028 C84.0 231.37096207111668 93.74919762410973 216.02108135539234 111.13256958239575 198.6179245283019 L124.0 185.7358490566038 L124.0 161.3679245283019 L124.0 137.0 L121.19112963510462 137.0 C114.79337105643796 137.0 115.18984051110061 139.53198645726548 112.57888214637504 81.9993088959738 C110.93781980605746 45.83836823946035 110.481287631725 27.71076981059337 111.1119288197053 23.750750930390154 C112.4495103805816 15.351603624700454 115.6903548582031 7.47072365958741 119.44301458849122 3.491745175492028 C122.39468949437533 0.36205802379940444 123.28196077909436 1.1073979908271534e-13 128.00000000000003 8.526512829121202e-14 C132.71803922090575 5.979045749970844e-14 133.60531050562471 0.3620580237993174 136.55698541150883 3.4917451754919995 C140.30964514179692 7.4707236595873505 143.55048961941887 15.351603624701674 144.8880711802948 23.750750930390623 C146.11412849738633 31.449598098054963 141.56107117084755 133.61902430996793 139.90288595090573 135.6170152706156 C139.27160949092118 136.37765687177702 137.23521069106462 137.0 135.37755528455784 137.0 L132.0 137.0 L132.0 161.88499006651614 L132.0 186.76998013303228 L134.4648159908565 188.38498959816206 C137.66347029429733 190.48082839298425 139.03849537175478 193.1367895559878 138.32916702966116 195.8492653030503 C137.46114893154112 199.16857160936917 133.3945016082759 199.71924307114523 130.41573418315687 196.92083637544718 L127.94219424936144 194.59706626354156 L118.40442969415828 204.0485331317708 C105.82750680385703 216.51166003262392 96.63222141869302 228.72484566548258 94.53645259591298 235.75 C94.01055953089829 237.51282799182007 94.26468003209445 238.0 95.71010608603751 238.0 C99.23352136643913 238.0 102.0 240.8838294705712 102.0 244.55670396864906 C102.0 246.95074488540544 102.45708607612059 248.0 103.5 248.0 C104.71519727798744 248.0 105.0 246.39279819538754 105.0 239.535183758488 C105.0 232.18972389789096 105.25577928497567 230.93347859789932 106.93425854591067 230.035183758488 C109.64247253052979 228.58579161940978 123.31189570284157 228.7118957028416 124.8 230.2 C125.54056224899598 230.940562248996 126.0 234.57777777777778 126.0 239.7 C126.0 247.33333333333334 126.16064257028113 248.0 128.0 248.0 C129.8393574297189 248.0 130.0 247.33333333333334 130.0 239.7 C130.0 234.57777777777778 130.459437751004 230.940562248996 131.2 230.2 C132.68810429715845 228.71189570284156 146.35752746947023 228.58579161940978 149.06574145408933 230.03518375848802 C150.7442207150243 230.93347859789935 151.0 232.18972389789099 151.0 239.53518375848802 C151.0 246.39279819538757 151.28480272201256 248.0 152.5 248.0 C153.5429139238794 248.0 154.0 246.95074488540544 154.0 244.55670396864906 C154.0 240.91006728874422 156.76174003882497 238.0 160.2225062434054 238.0 C162.6484227852732 238.0 162.45969493608487 236.35389856498887 159.36170843846295 230.49204339442144 C156.2420529211594 224.58918718812984 152.3805428108186 219.4097458485341 145.80606063070633 212.30986061248927 C140.95582950321563 207.0720208206887 140.00202931763812 204.39797068236192 142.2 202.2 C144.77862632940187 199.62137367059816 147.80124570921103 200.9661752463049 153.5505428189391 207.25 C164.82955757295989 219.57765514738898 172.0 232.8818410827017 172.0 241.48150122742788 C172.0 245.46160564013033 170.42703715793613 247.0 166.3574978304221 247.0 C163.25769101608267 247.0 163.10146336083233 247.1870331083983 162.807497830422 251.25 L162.5 255.5 L153.0835703558181 255.78972817335307 C146.2244028860136 256.00077356283117 143.44492281795164 255.72919906262155 142.84888313033514 254.78972817335307 C142.39884146061956 254.0803776780089 142.02373480050144 250.0125 142.01531277451704 245.75 C142.00303209424894 239.5345834553409 141.70298384735338 238.0 140.5 238.0 C139.30819463036272 238.0 139.0 239.45174905045437 139.0 245.06574145408936 C139.0 255.6647136856698 138.66269780048216 256.0 128.0 256.0 C117.33730219951778 256.0 117.0 255.66471368566985 117.0 245.06574145408933 C117.0 239.45174905045437 116.6918053696373 238.0 115.5 238.0 C114.3014700301074 238.0 114.0 239.49091250352936 114.0 245.41821253176423 C114.0 256.3252436134158 114.3208955110301 256.0 103.55967786248233 256.0 C98.48518837145038 256.0 94.03333333333333 255.7 93.66666666666666 255.33333333333331 Z M132.41060569291062 125.75 C132.65739605504788 124.5125 133.7691423038589 102.09321587605677 134.88115291249062 75.9293686134595 C137.06287213365135 24.596973014682376 136.97641014761126 22.612574934147496 132.15015717770441 13.25 C129.16007957322975 7.449469898207489 126.74312408096944 7.591494493020424 123.64122428673645 13.750000000000007 C119.05229315262822 22.86085448765884 118.93046400008485 25.5063327783201 121.02257136492246 70.6131506565655 C122.09109015139018 93.65091779545448 122.97313291601942 113.2616259763101 122.98266639743188 114.192502169578 C122.99570196050243 115.46533155930703 124.05382985405737 115.96125149062814 127.25 116.192502169578 C131.38190517515773 116.49145555237104 131.5 116.59725456163483 131.5 120.0 C131.5 123.26590570857158 131.2266669253001 123.56688408326526 127.4133315228994 124.5 C122.2472762358814 125.76412389846783 122.66311711055599 128.0 128.0642813051184 128.0 C131.30663433778233 128.0 132.0373324087314 127.62173309837313 132.41060569291062 125.75 Z M125.20865432085839 38.15011719611053 C124.27326107726846 37.55668376203336 123.9976164986702 34.87337000397921 124.20865432085839 28.415429970627592 L124.5 19.5 L128.0 19.5 L131.5 19.5 L131.7913456791416 28.415429970627592 C132.08856999245745 37.510751235534876 131.5645815599219 38.96937445096587 128.0 38.96937445096587 C127.175 38.96937445096587 125.91889444438628 38.60070868628097 125.20865432085839 38.15011719611053 Z" fill="currentColor"/></svg>
