<svg xmlns="http://www.w3.org/2000/svg" xmlns:xlink="http://www.w3.org/1999/xlink" width="256" height="256" xml:space="preserve" version="1.1" viewBox="0 0 256 256">
  <path d="M38.86078396230978 254.0904308193808 C36.667458478439926 252.31631390994252 36.47619326216709 251.35995924247564 36.16437910224405 240.60800351997221 L35.828758204488096 229.03514540118277 L38.53185161256357 227.80353362264947 C40.94640293673192 226.70339041567232 41.435895680820494 226.820085404704 43.11747251031953 228.89674488436788 C44.62649655282876 230.76031069233102 45.0 232.88603291985498 45.0 239.61078396230977 L45.0 248.0 L128.0 248.0 L211.0 248.0 L211.0 219.5 L211.0 191.0 L128.0 191.0 L45.0 191.0 L45.0 202.56574145408933 C45.0 215.0642510267343 44.17540507501273 218.0 40.664816241511986 218.0 C37.16914693774545 218.0 36.0 216.07014232618045 36.0 210.29999999999998 L36.0 205.0 L27.934258545910687 205.0 C15.86447435409785 205.0 13.082654396564777 202.91038794740095 13.03180337187048 193.80576370132638 C12.985754738641324 185.56098387403262 15.556079558393536 182.80439707236826 23.849143254938724 182.20453100045012 L29.999999999999996 181.7596181902268 L30.0 176.9097465002685 C30.000000000000007 172.68055482212202 30.38393593778798 171.7760186985904 33.00000000000001 169.8418789121778 L36.00000000000001 167.62388301404542 L36.0 156.91143950439334 L36.0 146.19899599474127 L26.912747754672015 145.84949799737063 C18.39769663203153 145.52200699849345 17.673570930085777 145.32332820785072 15.412747754672015 142.694236298674 C13.461443342674574 140.42508110877978 13.006082465187612 138.79943731525066 13.031803371870575 134.194236298674 C13.07880093221063 125.77955576962434 16.034209150242976 123.00000000000009 24.934258545910623 123.00000000000003 L30.0 123.0 L30.000000000000004 118.00000000000003 C30.000000000000007 113.11674502306128 32.287080568367394 109.0 35.00000000000003 109.0 C35.61489751037122 109.0 36.0 104.04077308850249 36.0 96.12231926550821 L36.0 83.24463853101642 L26.857695121476425 82.80753949754431 C18.39109699966178 82.40274640597552 17.54113325360395 82.16785464043 15.357695121476429 79.62945653070935 C13.448263253491058 77.40960968778019 13.000000000000009 75.74966619242306 13.000000000000012 70.8987817532192 C13.000000000000018 65.87269023970194 13.394878202982802 64.51421270610896 15.45454545454496 62.454545454545965 C17.51925267714677 60.389838231943315 18.86924803591308 60.00000000000003 23.95454545454495 60.000000000000014 L30.0 60.0 L29.999999999999996 55.000000000000014 C29.999999999999993 50.116745023061185 32.287080568367344 45.99999999999995 35.0 45.999999999999986 C35.55 45.99999999999999 36.00000000000001 44.260686411310914 36.000000000000014 42.13485869180204 C36.00000000000002 37.1794833970907 38.97924214496659 33.34238351830918 43.80361822065666 32.08422800401854 C45.8366281992955 31.554036602041972 62.35 28.09014530714608 80.5 24.38669179313878 C98.65 20.68323827913148 113.68461931283292 17.509064148023167 113.91026513962873 17.33297150178697 C114.13591096642453 17.156878855550776 113.50832449413281 14.33026957415013 112.51562853453602 11.051617543118866 C110.81783422998744 5.44418387617567 110.81074960423426 4.93777792222023 112.39624323915439 2.518008782080102 L114.0817596884942 -0.05441446799272853 L128.27883491195917 0.22279276600363573 L142.4759101354241 0.5 L143.79043021053815 3.2456376185446345 C144.9096660310059 5.583385083095441 144.8477534436539 6.807197519378361 143.37367700570888 11.483506148099735 C142.4214767017401 14.504233149155493 141.83536288746834 17.128392878243048 142.0712018628828 17.314972212738752 C142.30704083829727 17.501551547234456 157.446796527865 20.68894808941623 175.71510339525554 24.398075639809363 C193.98341026264606 28.107203190202497 210.50044158001666 31.5755066378529 212.41961743385684 32.10541663458804 C217.06779779621252 33.388841098121 219.99999999999991 37.26837512510645 219.99999999999994 42.13485869180161 C219.99999999999997 44.26068641131072 220.45000000000002 46.00000000000001 221.00000000000006 46.000000000000014 C223.71291943163405 46.00000000000005 225.99999999999994 50.11674502305873 225.99999999999997 54.999999999999986 L226.0 60.0 L232.0454545454546 60.0 C237.13075196408536 60.0 238.48074732285266 60.3898382319435 240.5454545454546 62.45454545454541 C242.60512179701746 64.51421270610827 243.0 65.87269023970023 243.0 70.89878175321891 C243.0 75.74966619242376 242.55173674650908 77.40960968778043 240.6423048785236 79.62945653070926 C238.4588667463964 82.16785464042901 237.60890300033716 82.40274640597495 229.14230487852362 82.80753949754434 L220.00000000000003 83.24463853101716 L220.0 96.12231926550858 C220.0 104.04077308850276 220.38510248962876 109.0 221.0 108.99999999999999 C223.71291943163345 108.99999999999994 225.99999999999997 113.11674502305974 226.0 118.00000000000003 L226.0 123.0 L231.0657414540894 123.00000000000003 C239.96579084975744 123.00000000000009 242.9211990677879 125.77955576962282 242.96819662812885 134.1942362986745 C242.9939175348123 138.79943731525276 242.5385566573259 140.42508110878003 240.58725224532753 142.6942362986745 C238.32642906991353 145.32332820785052 237.60230336796678 145.52200699849348 229.08725224532753 145.84949799737072 L220.0 146.19899599474144 L219.99999999999997 156.91143950439397 L219.99999999999994 167.62388301404647 L222.99999999999994 169.84187891217783 C225.61606406221216 171.77601869858972 225.99999999999994 172.6805548221208 225.99999999999994 176.90974650026786 L225.99999999999997 181.7596181902265 L232.15085674506088 182.2045310004501 C240.44392044160676 182.80439707236866 243.01424526135878 185.56098387403273 242.96819662812885 193.80576370132582 C242.91734560343372 202.9103879474021 240.13552564590248 205.0 228.0657414540893 205.0 L220.0 205.0 L220.0 227.0496599268842 C219.99999999999997 250.02503171886286 219.3828981291427 253.87161858268647 215.45519769303502 255.3788186577769 C214.56487274680453 255.7204683959996 174.99808220727132 256.0 127.52899649407232 256.0 C44.07483939128349 256.0 41.14352183252454 255.93687079609495 38.86078396230978 254.0904308193808 Z M99.63485869180128 236.9274198509671 L97.0 234.85483970193422 L97.0 219.4274198509671 C97.0 205.33333333333334 97.17285240775368 203.82714759224632 99.0 202.0 C100.90123456790124 200.09876543209876 102.33333333333333 200.0 128.0 200.0 C153.66666666666669 200.0 155.09876543209876 200.09876543209876 157.0 202.0 C158.82714759224632 203.82714759224632 159.0 205.33333333333334 159.0 219.42741985096717 L159.0 234.8548397019343 L156.36514130819864 236.92741985096717 C153.85458395939585 238.90222454934738 152.51643813399616 239.0 127.99999999999994 239.0 C103.48356186600351 239.0 102.14541604060406 238.90222454934738 99.63485869180128 236.9274198509671 Z M175.1898243972242 229.97436540468397 C168.20850443568403 225.71797186732863 167.39752361298218 216.40247638701786 173.47886910503087 210.32113089496912 C176.38880494063864 207.41119505936135 177.44382114897004 207.0 182.0 207.0 C186.55617885102993 207.0 187.61119505936134 207.41119505936135 190.5211308949691 210.32113089496912 C192.42500979745682 212.22500979745683 194.1238375406442 215.1431895799593 194.50209499525724 217.15947515848615 C195.9023360608914 224.62340173195585 189.69124170997944 231.9925238791249 182.0 231.9925238791249 C180.075 231.9925238791249 177.0104209787509 231.08435256562646 175.1898243972242 229.97436540468397 Z M151.0 219.5 L151.0 209.0 L128.0 209.0 L105.0 209.0 L105.0 219.5 L105.0 230.0 L128.0 230.0 L151.0 230.0 L151.0 219.5 Z M117.5003674890634 221.64090490960598 C115.5885567481191 218.72311291673273 116.45232799923419 216.17556097859566 119.62328711988937 215.3797009009773 C122.55483655404225 214.64392882967897 125.0 216.48244422317677 125.0 219.42244471544217 C125.0 224.13657781611764 120.08770430721731 225.58968001019298 117.5003674890634 221.64090490960598 Z M132.2 222.8 C130.54223685875576 221.14223685875575 130.6963431823058 217.49690220619334 132.48701401454747 216.01077741069298 C134.4930080351193 214.34595024094162 138.64015069924324 215.51593220185634 139.26997107524494 217.92436901951976 C140.36240736171527 222.10185179641806 135.11831239981856 225.7183123998185 132.2 222.8 Z M184.06574145408933 222.96481624151198 C186.61890456622595 221.59840481112582 186.57908941473286 217.3802867664533 184.0 216.0 C179.5416335022481 213.6139546610162 175.38695114184196 220.37865853244838 179.75 222.91990120052802 C181.94559937933914 224.19872044050814 181.76370746462277 224.19682744416184 184.06574145408933 222.96481624151198 Z M36.0 194.0 L36.0 191.0 L28.5 191.0 C21.309523809523817 191.0 21.0 191.0962962962963 21.0 193.33333333333331 C21.0 196.72164818459524 21.619965407037892 197.0 29.166666666666664 197.0 L36.0 197.0 L36.0 194.0 Z M234.81642234569722 193.75 L235.13284469139444 191.0 L227.56642234569722 191.0 L220.0 191.0 L220.0 194.0438095527206 L220.0 197.0876191054412 L227.25 196.7938095527206 C234.33243906830813 196.5067904830888 234.50731310662803 196.43644240522033 234.81642234569722 193.75 Z M218.0 179.5 L218.0 177.0 L128.0 177.0 L38.0 177.0 L38.0 179.5 L38.0 182.0 L128.0 182.0 L218.0 182.0 L218.0 179.5 Z M211.0 149.52417895847486 L211.00000000000003 131.0483579169497 L194.25 130.77417895847486 C177.6148134410465 130.50187936893641 177.49776018603575 130.48420001133138 177.17323613368586 128.19495794406146 C176.48123813360127 123.31349870925501 177.7756276700188 123.0 198.62244471544219 123.0 L218.0 123.0 L218.0 120.0 L218.0 117.0 L128.0 117.0 L38.0 117.0 L38.0 120.0 L38.0 123.0 L102.0214387911498 123.0 L166.0428775822996 123.0 L167.16846083160027 125.47038613502708 C168.0291264739181 127.35934145752074 167.99526200918453 128.3007826424261 167.0245773250083 129.47038613502707 C165.91088922112112 130.8122982072053 158.34606726021926 131.0 105.37755528455784 131.0 L45.0 131.0 L45.0 149.5 L45.0 168.0 L128.0 168.0 L211.0 168.0 L211.0 149.52417895847486 Z M36.0 133.9561904472794 L36.0 130.9123808945588 L28.75 131.2061904472794 C21.667560931691863 131.4932095169112 21.492686893371978 131.56355759477967 21.183577654302788 134.25 L20.86715530860557 137.0 L28.433577654302788 137.0 L36.0 137.0 L36.0 133.9561904472794 Z M234.81642234569722 134.25 C234.50731310662803 131.56355759477967 234.33243906830813 131.4932095169112 227.25 131.2061904472794 L220.0 130.9123808945588 L220.0 133.9561904472794 L220.0 137.0 L227.56642234569722 137.0 L235.13284469139444 137.0 L234.81642234569722 134.25 Z M211.0 88.5 L211.0 68.0 L128.0 68.0 L45.0 68.0 L45.0 88.5 L45.0 109.0 L128.0 109.0 L211.0 109.0 L211.0 88.5 Z M36.0 70.9561904472794 L36.0 67.91238089455878 L28.75 68.2061904472794 C21.667560931691867 68.4932095169112 21.492686893371978 68.56355759477967 21.183577654302788 71.25 L20.86715530860557 74.0 L28.433577654302788 74.0 L36.0 74.0 L36.0 70.9561904472794 Z M234.81642234569722 71.25 C234.50731310662803 68.56355759477967 234.33243906830813 68.4932095169112 227.25 68.2061904472794 L220.0 67.91238089455878 L220.0 70.9561904472794 L220.0 74.0 L227.56642234569722 74.0 L235.13284469139444 74.0 L234.81642234569722 71.25 Z M218.0 57.00757022963208 L217.99999999999997 54.01514045926415 L155.75 53.75757022963208 L93.5 53.5 L93.1732361336859 51.1949579440614 C92.41460831743717 45.84348184303707 90.60840704696695 46.0 153.12244471544216 46.0 L211.0 46.0 L211.0 43.186753825834316 L211.0 40.37350765166863 L173.25 32.66525998298264 C145.72172812462753 27.04420733380929 133.46919308782233 24.96140663990944 128.0 24.973241056624794 C122.64297790917836 24.984832754112546 109.71367785713561 27.18522117230069 82.75 32.674166514479154 L45.0 40.35886323000536 L45.0 43.157366330302615 L45.0 45.95586943059987 L63.64205961060272 46.22793471529994 C80.12899616985283 46.46854777965647 82.41161182561872 46.70230947752801 83.38694475587349 48.25000000000001 C84.19074146309424 49.52549117554638 84.1906703122406 50.47450882445365 83.38668234980761 51.75000000000001 C82.39908026061497 53.31678682838034 79.96549789981509 53.528176253143904 60.141797204536836 53.76913153986653 L38.0 54.038263079733056 L38.0 57.01913153986653 L38.0 60.0 L128.0 60.0 L218.0 60.0 L218.0 57.00757022963208 Z M133.38732737651037 13.592900821053567 C133.71960626645316 12.268996272633029 134.2665348417797 10.468996272633028 134.60272421056933 9.592900821053567 C135.12709329399462 8.226416893879684 134.18857390399737 8.0 128.0 8.0 C121.81142609600252 8.0 120.8729067060054 8.226416893879666 121.3972757894307 9.592900821053632 C121.73346515822035 10.46899627263313 122.28039373354687 12.268996272633128 122.61267262348966 13.592900821053632 C123.14553690746203 15.716001236380587 123.78115438742465 16.0 128.0 16.0 C132.2188456125754 16.0 132.85446309253797 15.716001236380595 133.38732737651037 13.592900821053567 Z" fill="currentColor"/></svg>
