<svg xmlns="http://www.w3.org/2000/svg" xmlns:xlink="http://www.w3.org/1999/xlink" width="256" height="256" xml:space="preserve" version="1.1" viewBox="0 0 256 256">
  <path d="M32.2 254.8 C31.54 254.14 31.0 251.44 31.0 248.8 L31.0 244.0 L24.136363636363637 244.0 C18.138144153398393 244.0 16.9557181918523 243.68299091912502 14.758522727272727 241.48579545454544 C13.375710227272727 240.10298295454544 11.96434659090909 237.57173295454544 11.62215909090909 235.86079545454544 C10.621724130173003 230.85862065086502 10.906645552493755 215.0429514725843 12.035183758488001 212.93425854591067 C13.217079546422822 210.7258660654028 17.222422286585942 210.3581498854666 18.84178982948281 212.30936840663256 C19.439463422684746 213.02952103028048 20.057063544633728 218.54202103028047 20.214234544924985 224.55936840663256 L20.5 235.5 L127.5 235.5 L234.5 235.5 L234.76951488855357 213.74549415479285 L235.03902977710715 191.9909883095857 L127.76951488855357 192.24549415479285 L20.5 192.5 L20.19417225128774 196.17388820077247 C19.829155027265035 200.55881559229388 17.901862598171448 202.4431691630443 14.623578833704071 201.62037231452953 C10.108058292584257 200.4870488021152 10.105646473955183 191.16708079877225 14.619705587029665 186.6530216856976 C17.836242447769443 183.43648482495772 20.644795256966813 183.0 38.12500000000004 183.0 L53.0 183.0 L53.0 180.5794552658191 C53.0 178.72948996630296 52.32595831851203 178.01086614407302 50.14054180080517 177.53086815756197 C46.793641570699954 176.79576555424242 42.574617580113795 172.68409150080825 41.063618396327 168.68490033882546 C40.36496907932013 166.8357714948926 40.0 149.07832209382912 40.0 116.93490033882546 C40.0 69.60149408921542 39.93809380752003 68.0 38.10840802987454 68.00000000000001 C36.96183735795446 68.00000000000003 35.98663221677669 68.9171254807569 35.63238456756487 70.32856053803569 C34.71606532502971 73.97946720022757 30.948646097101722 75.00000000000006 18.387205524784765 75.00000000000006 C1.0868446421838236 75.00000000000006 0.07716903933265272 74.10363593481378 0.03180337187052018 58.70454545454595 C0.001902541166178634 48.55489654139665 0.14683580692401144 47.762255102167835 2.4545454545449648 45.45454545454592 C4.824996467590755 43.08409444149915 5.384988008882438 42.99999999999994 18.7995578924329 43.000000000000014 C30.986424750004012 43.00000000000008 32.89300127839402 43.224286400295384 34.345012437887945 44.828740671584114 C35.255255597049576 45.83454804095533 36.00000000000001 47.17026715035126 36.0 47.79700535913062 C36.0 48.56832555776742 39.76215989775989 49.027563891318884 47.64320236146914 49.21826468754655 C57.45120718321283 49.45559297723972 59.46005158327971 49.775834396312455 60.38808750673901 51.250000000000014 C61.190331218473304 52.52434731319991 61.190331218473304 53.47565268680014 60.38808750673901 54.750000000000014 C59.46005158327972 56.22416560368753 57.451207183212716 56.544407022760296 47.64320236146914 56.78173531245349 C38.20012597815475 57.01023328000402 36.0 57.34091725699238 36.0 58.53173531245349 C36.0 59.81211529666372 47.77266800294862 60.0 128.0 60.0 C208.9357135661085 60.0 220.0 59.82037454935927 220.0 58.50640693752045 C220.0 57.197351949012464 210.83963619864517 56.98113399944988 145.85889985174094 56.75640693752045 C76.49749751770707 56.51652993651791 71.64664134830458 56.387181722982696 70.61401470647102 54.75 C69.80896804378983 53.47363579546083 69.80896804378983 52.52636420453917 70.61401470647102 51.25 C71.64664134830458 49.612818277017304 76.49749751770707 49.48347006348209 145.85889985174094 49.24359306247953 C206.99478905567304 49.03216288283526 220.0 48.752379157316255 219.99999999999997 47.64858062459166 C219.99999999999994 46.912347599389584 220.8229333022128 45.56523072127379 221.82874067158406 44.65498756211211 C223.34330899448875 43.28432206791436 226.0139730431007 42.99999999999998 237.37419521703862 43.0 C250.60428649053068 43.00000000000003 251.17798805915336 43.087078968244256 253.54545454545456 45.45454545454545 C255.85316419307617 47.76225510216708 255.9980974588338 48.55489654139462 255.96819662812925 58.70454545454544 C255.92283096066677 74.10363593481317 254.91315535781493 75.0000000000001 237.61279447521508 75.00000000000007 C225.05135390289564 75.00000000000006 221.28393467496988 73.97946720022814 220.36761543243514 70.32856053803556 C220.0133677832235 68.91712548075658 219.03816264204605 67.99999999999997 217.89159197012566 67.99999999999999 C216.27828264419847 68.0 215.99774725234093 68.77235677943001 215.98468722548296 73.25 C215.96561008163513 79.79061777565946 215.0805623413324 81.25119820618517 211.39149341272827 80.83007584339637 C208.5839234882233 80.50958021070846 208.49135896935587 80.31859830664439 208.2022825943533 74.25 L207.9045651887066 68.0 L127.9522825943533 68.0 L48.0 68.0 L48.0 114.85077673477338 C48.00000000000001 163.14005352773827 48.28886707613565 167.01386193355768 52.03944227931046 169.02110886728468 C54.04645129898583 170.0952274977539 200.67658209302996 170.44507350819205 203.4459926203343 169.38235097560286 C207.21152579327853 167.93738031825683 207.4878966263846 165.3956496475397 208.0 127.5 L208.5 90.5 L211.39149341272832 90.16992415660364 C213.03382488368698 89.98244527699535 214.64725728022998 90.41445799964961 215.12618063821125 91.16992415660364 C216.39702464321397 93.17458653221698 216.22045570970707 165.28631622886422 214.936381603673 168.6849003388255 C213.42538241988692 172.68409150080643 209.20635842929852 176.7957655542428 205.85945819919488 177.53086815756197 C203.674041681488 178.01086614407302 203.00000000000003 178.72948996630296 203.0 180.5794552658191 L203.0 183.0 L217.75 183.0055769344027 C235.2828307438026 183.0122060494503 239.36000869273286 183.90250155700178 242.04827972920586 188.311366761363 C243.8201496966543 191.21729988348793 243.99285529074976 193.4770591308909 243.9962619395627 213.7996599268842 C244.00108999697585 242.60177274079993 243.40242765825175 244.0 231.06574145408928 244.0 L225.0 244.0 L224.99999999999997 248.79999999999848 C224.99999999999994 251.4399999999976 224.4600000000007 254.13999999999763 223.80000000000157 254.79999999999848 C222.16552584387156 256.4344741561328 203.83447415612846 256.43447415613275 202.19999999999843 254.79999999999842 C201.53999999999928 254.13999999999757 201.0 251.43999999999758 201.0 248.79999999999842 L201.0 244.0 L128.0 244.0 L55.0 244.0 L55.0 248.8 C55.0 251.44000000000003 54.45999999999999 254.14000000000004 53.799999999999976 254.8 C53.03333333333331 255.56666666666666 49.13333333333315 256.0 42.99999999999997 256.0 C36.866666666666646 256.0 32.96666666666667 255.56666666666666 32.2 254.8 Z M46.0 246.0 C46.0 244.44444444444446 45.333333333333336 244.0 43.0 244.0 C40.666666666666664 244.0 40.0 244.44444444444446 40.0 246.0 C40.0 247.55555555555554 40.666666666666664 248.0 43.0 248.0 C45.333333333333336 248.0 46.0 247.55555555555554 46.0 246.0 Z M216.0 246.0 C216.0 244.44444444444446 215.33333333333334 244.0 213.0 244.0 C210.66666666666666 244.0 210.0 244.44444444444446 210.0 246.0 C210.0 247.55555555555554 210.66666666666666 248.0 213.0 248.0 C215.33333333333334 248.0 216.0 247.55555555555554 216.0 246.0 Z M190.57790557617574 231.51478198288714 C176.3614559241847 226.44949676302232 174.48746607026195 205.79855432057533 187.55572550860958 198.21104424099002 C193.36594862811504 194.83759372970587 203.21440316474167 195.40068117081154 208.46645948077577 199.4066198148264 C213.0822206345885 202.92723247869893 215.34862929003566 207.9333208356303 215.31143876337802 214.525945717379 C215.2641226303074 222.9134987913416 210.12020709073948 229.76159811015816 202.21894544186551 231.95599368511665 C197.4020769029636 233.2937692805406 195.35290670082287 233.2161028621213 190.57790557617574 231.51478198288714 Z M39.22250624340543 226.44329603135094 C37.183674315615036 225.01524256116738 37.0012654917789 224.08551016702887 37.015312774517064 215.19329603135094 C37.02373480050145 209.8619832141079 37.45713421277142 204.825 37.978422579561446 204.0 C38.79737555671238 202.70391083094768 46.00245740049232 202.46247043634008 90.98013276553422 202.22392665348755 C126.2848325898482 202.03668450323826 143.67210180289405 202.2893304519834 145.01702296048984 203.00911041197554 C146.80965148718508 203.9684960844651 147.0 205.12527017601377 147.0 215.0599346055517 C147.0 225.9363810743988 146.9735962607991 226.05954037787907 144.43490033882549 227.0247508470637 C142.89186613673928 227.61141140505828 121.862642905247 228.0 91.65740658223092 228.0 C47.82973646168327 228.0 41.16241116591768 227.80205832983137 39.22250624340543 226.44329603135094 Z M151.0 227.21492837731608 C148.40807175190923 226.3253500097816 148.03103652914882 224.75976353217746 148.01531277451704 214.82142857142856 C148.00347772345089 207.34098229585427 148.3568911687523 204.7859659741048 149.5714285714286 203.57142857142856 C151.60953476118587 201.53332238167135 152.59038367311217 201.59038367311217 154.8802727807222 203.8802727807222 C156.72063648835183 205.72063648835183 156.7947167750764 205.72063648835183 158.37048530440495 203.8802727807222 C160.41663202401463 201.49054732728925 161.5138834166672 201.5138834166672 164.0 204.0 C165.7037037037037 205.7037037037037 166.0 207.33333333333334 166.0 215.0 C166.0 222.63225460972268 165.6995034810456 224.3004965189544 164.02268120235368 225.97731879764632 C161.89539266470732 228.10460733529268 159.3893880915832 227.76431558301917 157.28180337187047 225.06197125462998 C156.50556179831497 224.06667460337914 156.0520686548757 223.94072866885148 156.03180337187047 224.71481624151198 C155.9897138432869 226.32254020012743 152.88889669863812 227.86321856160401 151.0 227.21492837731608 Z M202.63296003025266 222.2277641544112 C207.73895864340113 218.09174601476218 208.30840489141923 212.49591241698846 204.10233585793975 207.78850381518646 C196.45642441600106 199.2312431036037 182.74976654358466 208.99634412563444 188.57210678422015 218.85278054929415 C191.58662717635656 223.955956826343 198.4621336470661 225.606263618505 202.63296003025266 222.2277641544112 Z M139.0 215.0 L139.0 211.0 L92.5 211.0 L46.0 211.0 L46.0 215.0 L46.0 219.0 L92.5 219.0 L139.0 219.0 L139.0 215.0 Z M83.0 181.0 C83.0 179.12121212121212 82.33333333333334 179.0 72.0 179.0 C61.666666666666664 179.0 61.0 179.12121212121212 61.0 181.0 C61.0 182.87878787878788 61.666666666666664 183.0 72.0 183.0 C82.33333333333334 183.0 83.0 182.87878787878788 83.0 181.0 Z M97.0 181.0 C97.0 179.44444444444446 96.33333333333333 179.0 94.0 179.0 C91.66666666666667 179.0 91.0 179.44444444444446 91.0 181.0 C91.0 182.55555555555554 91.66666666666667 183.0 94.0 183.0 C96.33333333333333 183.0 97.0 182.55555555555554 97.0 181.0 Z M151.0 181.0 C151.0 179.05797101449275 150.33333333333331 179.0 128.0 179.0 C105.66666666666667 179.0 105.0 179.05797101449275 105.0 181.0 C105.0 182.94202898550725 105.66666666666667 183.0 128.0 183.0 C150.33333333333331 183.0 151.0 182.94202898550725 151.0 181.0 Z M165.0 181.0 C165.0 179.44444444444446 164.33333333333334 179.0 162.0 179.0 C159.66666666666666 179.0 159.0 179.44444444444446 159.0 181.0 C159.0 182.55555555555554 159.66666666666666 183.0 162.0 183.0 C164.33333333333334 183.0 165.0 182.55555555555554 165.0 181.0 Z M195.0 181.0 C195.0 179.12121212121212 194.33333333333334 179.0 184.0 179.0 C173.66666666666666 179.0 173.0 179.12121212121212 173.0 181.0 C173.0 182.87878787878788 173.66666666666666 183.0 184.0 183.0 C194.33333333333334 183.0 195.0 182.87878787878788 195.0 181.0 Z M54.86078396230978 164.089930839395 C52.52256784594999 162.19812092963997 52.496985079695904 161.9614004844119 52.18461431732038 139.3270078788448 C51.98860885695036 125.12444772529052 52.263131163644076 115.43811191404347 52.90986347025668 113.73707703944979 L53.9504983058726 111.0 L128.0 111.0 L202.0495016941274 111.0 L203.09013652974335 113.73707703944982 C203.73686883635597 115.43811191404355 204.01139114304968 125.1244477252902 203.81538568267962 139.3270078788444 C203.5030149203041 161.96140048440918 203.4774321540498 162.1981209296393 201.13921603769077 164.08993083939458 C198.86520244087234 165.92979560949902 196.17697827101148 166.0 128.00000000000057 166.0 C59.82302172899554 166.0 57.13479755912857 165.92979560949888 54.86078396230978 164.089930839395 Z M195.0 138.5 L195.0 119.0 L128.0 119.0 L61.0 119.0 L61.0 138.5 L61.0 158.0 L128.0 158.0 L195.0 158.0 L195.0 138.5 Z M28.0 58.5 L28.0 51.0 L18.0 51.0 L8.0 51.0 L8.0 58.5 L8.0 66.0 L18.0 66.0 L28.0 66.0 L28.0 58.5 Z M248.0 58.5 L248.0 51.0 L238.0 51.0 L228.0 51.0 L228.0 58.5 L228.0 66.0 L238.0 66.0 L248.0 66.0 L248.0 58.5 Z M94.33291361468633 44.91289279154037 C87.28882263480641 42.85086422586964 83.41477229108592 34.14287766496656 86.57691262081198 27.479161572614878 C91.0002596459097 18.157649659905708 103.67065518866872 17.491734438884706 109.04048448809945 26.29854851484221 C111.40873063032046 30.182601861352715 111.52776723373574 34.08555486828602 109.41384736044064 38.540310321482195 C106.74805423059989 44.158052333500834 100.61188292353653 46.750946007320906 94.33291361468633 44.91289279154037 Z M143.31008385053593 40.92299426373695 C139.70875280430982 38.61614875452363 136.0 31.806026102617338 136.0 27.500000000000007 C136.0 19.361900796242253 143.5993814670888 11.999999999999991 152.0 11.999999999999995 C160.40061853291118 11.999999999999998 168.0 19.36190079624228 168.0 27.499999999999996 C168.0 31.883352803297043 164.23937146810582 38.68894133614901 160.56101425598752 40.96229111600143 C156.0790592577201 43.73229164097816 147.66589832104293 43.71312683452219 143.31008385053593 40.92299426373695 Z M184.4 36.6 C181.52223218944738 33.72223218944739 181.0 32.495873807897766 181.0 28.615776542459184 C181.0 15.852208677329136 199.04634952705194 12.520321399840853 203.0167759682615 24.55083168311267 C205.67070397530424 32.59231252970507 200.22803496631062 39.98793331277295 191.65 39.996261939562444 C188.60214416595645 39.99922117834494 187.09161294435017 39.29161294435016 184.4 36.6 Z M100.95431915087195 35.55504205593857 C101.61388387083791 34.760315186704794 102.0064839927869 33.072815186704794 101.82676386631412 31.805042055938575 C101.22753646933396 27.578000777812445 94.0 28.609853611299847 94.0 32.922444715442175 C94.0 36.60093910232832 98.63127768007952 38.35413579048276 100.95431915087195 35.55504205593857 Z M61.98439827942232 34.14728232631534 C59.55858916780934 32.85743568604671 58.073122585016655 31.091090437306843 57.09491200597651 28.333270117677728 C55.33940327888148 23.384051879188178 56.20402549671212 19.642128349441744 59.974288769994345 15.87186507615951 C62.31804207351243 13.528111772641418 63.706200565327876 12.999999999999993 67.52307692307693 12.999999999999993 C71.50859728506788 12.999999999999993 72.70263157894738 13.50263157894736 75.6 16.4 C78.43106648414123 19.231066484141227 79.0 20.53250085693801 79.0 24.17749375659458 C79.0 29.428601279178608 76.918368081197 32.718334607728565 72.40142609732739 34.605633473535775 C67.9948072277083 36.44683639896099 66.15708674566211 36.36597635846378 61.98439827942232 34.14728232631534 Z M156.3651413081987 32.92741985096711 C161.49400632953075 28.89305403721079 158.56520230023284 20.666666666666668 152.0 20.666666666666668 C145.4347976997672 20.666666666666668 142.50599367046928 28.893054037210796 147.6348586918013 32.92741985096711 C149.084030972292 34.0673389329352 151.0483445609814 35.0 152.0 35.0 C152.9516554390186 35.0 154.915969027708 34.0673389329352 156.3651413081987 32.92741985096711 Z M193.4182125317642 31.39301119581567 C195.29317006260237 30.67352248295516 195.54525191519315 26.36217472142665 193.75 25.718460871069585 C192.04372272730757 25.106650181056523 189.0 26.78340363863575 189.0 28.335183758488 C189.0 29.0308326913196 189.54 30.14 190.2 30.8 C191.60233687954914 32.202336879549144 191.40425911762466 32.16583763367773 193.4182125317642 31.39301119581567 Z M70.41026424766815 25.373251799340565 C71.13461623208222 23.485620785985102 69.39308030226401 21.0 67.34617048821912 21.0 C65.64354892986745 21.0 64.56943419545553 23.43558020820653 65.36162639947696 25.5 C66.1306168255908 27.503956927763703 69.62631300571199 27.416195988237973 70.41026424766815 25.373251799340565 Z M117.3268884249918 22.30434273479489 C114.2815162384958 21.71114484126419 110.2475849248097 17.40373186759238 109.48474335164681 13.930536935043703 C108.62026524308322 9.994593887900479 110.57467399239287 4.479721784409184 113.70725007272279 2.015637080501042 C115.46600529241088 0.6322000230694917 117.77153122973493 -3.552713678800501e-15 121.05793561487823 -3.552713678800501e-15 C125.07144597313601 -3.552713678800501e-15 126.34398339719492 0.49782955104106197 128.92307692307693 3.0769230769230766 C131.48619435370682 5.64004050755298 132.0 6.938779574551152 132.0 10.854416833517654 C132.0 16.446994408007217 130.01767757842097 19.676840450366353 125.40142609732739 21.605633473535775 C122.03789280267593 23.011007417848028 121.28793958556898 23.075902682390417 117.3268884249918 22.30434273479489 Z M123.64326045387591 12.487265064298754 C124.33005744216956 10.697500802065175 122.34802546959874 8.0 120.34617048821912 8.0 C118.64354892986745 8.0 117.56943419545553 10.435580208206535 118.36162639947696 12.5 C119.10993666829184 14.450065301705457 122.89356414839608 14.440942319654766 123.64326045387591 12.487265064298754 Z" fill="currentColor"/></svg>
