<svg xmlns="http://www.w3.org/2000/svg" xmlns:xlink="http://www.w3.org/1999/xlink" width="256" height="256" xml:space="preserve" version="1.1" viewBox="0 0 256 256">
  <path d="M25.035183758487996 222.06574145408933 C24.465832691319598 221.00189925383847 24.0 217.85189925383847 24.0 215.06574145408933 L24.0 210.0 L20.515776542459182 210.0 C18.07897944038379 210.0 16.049796184617023 209.1228003247516 13.765776542459182 207.0820290424241 L10.5 204.16405808484822 L10.5 121.14769167576151 L10.5 38.13132526667479 L13.437091204766013 35.06566263333738 L16.374182409532025 31.99999999999997 L128.05072756840238 31.999999999999986 L239.72727272727275 32.0 L242.33934892674088 34.61207619946818 C243.77599083644836 36.048718109175674 245.20564289518444 38.63621810917567 245.51635350170994 40.36207619946818 C245.82706410823545 42.08793428976068 245.95049345483844 79.64952848497116 245.79064093860543 123.83228552215814 L245.5 204.1645710443163 L242.2342234575418 207.08228552215814 C239.9503308793124 209.12276390599746 237.92088499641812 210.0 235.4842234575418 210.0 L232.0 210.0 L232.0 215.06574145408933 C232.0 223.60210225538353 231.46876376531154 224.0 220.071805045697 224.0 C208.83749092692912 224.0 209.0 224.1259612430853 209.0 215.41821253176596 L209.0 210.0 L128.0 210.0 L47.0 210.0 L47.0 215.4182125317642 C47.0 224.12596124308538 47.16250907307095 224.0 35.92819495430367 224.0 C27.205505755969405 224.0 25.95116511907287 223.77726828213193 25.035183758487996 222.06574145408933 Z M39.0 213.0 C39.0 210.23809523809524 38.72222222222222 210.0 35.5 210.0 C32.27777777777778 210.0 32.0 210.23809523809524 32.0 213.0 C32.0 215.76190476190476 32.27777777777778 216.0 35.5 216.0 C38.72222222222222 216.0 39.0 215.76190476190476 39.0 213.0 Z M224.0 213.0 C224.0 210.23809523809524 223.72222222222223 210.0 220.5 210.0 C217.27777777777777 210.0 217.0 210.23809523809524 217.0 213.0 C217.0 215.76190476190476 217.27777777777777 216.0 220.5 216.0 C223.72222222222223 216.0 224.0 215.76190476190476 224.0 213.0 Z M236.8000000000016 200.79999999999842 C237.7076511503472 199.8923488496504 237.99999999999997 184.422222222171 238.0 137.29999999999842 L238.0 75.0 L231.0 75.0 L224.0 75.0 L224.0 127.89301119581644 C223.99999999999997 175.20202892397754 223.8330083561104 180.85010309796576 222.41821253176226 181.39301119581643 C220.35095112622875 182.1862938293409 35.649048873764386 182.18629382934017 33.58178746823583 181.3930111958157 C32.16699164389018 180.85010309796465 31.999999999999996 175.20202892394886 32.0 127.89301119581569 L32.0 75.0 L25.0 75.0 L18.0 75.0 L18.0 137.3 C18.0 184.4222222222222 18.29234884965222 199.89234884965222 19.2 200.8 C20.941495649137256 202.54149564913726 235.05850435086896 202.5414956491357 236.8000000000016 200.79999999999842 Z M216.0 160.0 L216.0 146.0 L128.0 146.0 L40.0 146.0 L40.0 160.0 L40.0 174.0 L128.0 174.0 L216.0 174.0 L216.0 160.0 Z M216.0 124.5 L216.0 111.0 L128.0 111.0 L40.0 111.0 L40.0 124.5 L40.0 138.0 L128.0 138.0 L216.0 138.0 L216.0 124.5 Z M216.0 89.0 L216.0 75.0 L128.0 75.0 L40.0 75.0 L40.0 89.0 L40.0 103.0 L128.0 103.0 L216.0 103.0 L216.0 89.0 Z M46.204310089223675 60.25 C46.47518722332724 54.06642528688727 46.69342727523292 53.47257965678202 48.805042055938586 53.17323613368589 C52.66617551473279 52.62588000449949 54.0 54.66686843193485 54.0 61.12244471544217 L54.0 67.0 L128.0 67.0 L202.0 67.0 L202.0 61.122444715442185 C201.99999999999997 54.66686843193493 203.33382448526694 52.625880004499905 207.19495794406126 53.17323613368603 C209.30657272476714 53.47257965678204 209.52481277667275 54.066425286887075 209.79568991077633 60.25 L210.0913798215527 67.0 L224.04568991077633 67.0 L238.0 67.0 L238.0 55.08178746823442 C237.99999999999997 48.52677057576335 237.72685503811678 42.45177057576335 237.39301119581506 41.58178746823442 C236.84466397620469 40.15281751979253 226.27613376004342 40.0 127.99999999999943 40.0 C29.723866239915964 40.0 19.155336023794444 40.15281751979208 18.60698880418434 41.58178746823576 C18.273144961882952 42.45177057576544 18.0 48.52677057576543 18.0 55.08178746823576 L18.0 67.0 L31.954310089223675 67.0 L45.90862017844735 67.0 L46.204310089223675 60.25 Z" fill="currentColor"/></svg>
