<svg xmlns="http://www.w3.org/2000/svg" xmlns:xlink="http://www.w3.org/1999/xlink" width="256" height="256" xml:space="preserve" version="1.1" viewBox="0 0 256 256">
  <path d="M32.92431402670948 253.4200057996864 L30.5 250.8400115993728 L30.21282875384926 187.6700057996864 C30.05488456846635 152.92650260985886 30.168430333067842 123.51749253895986 30.465152675185912 122.31665008657745 C31.12810817646244 119.63365323406359 34.230474861464465 118.51779512713158 36.962227314953374 119.97978467244857 C38.86324626226273 120.99717913762649 39.000000000000014 122.00753819938575 39.00000000000001 135.03518375848802 L39.0 149.0 L128.0 149.0 L217.0 149.0 L217.0 118.0 L217.0 87.0 L210.5 87.0 L204.0 87.0 L204.0 101.0496599268842 C204.00000000000003 116.6774032162447 203.11540418453004 119.85472168940672 198.03273302289406 122.48307309600993 C196.4193557798749 123.31738289320447 192.82697288667046 124.0 190.04965992688415 124.0 L185.0 124.0 L185.0 130.04545454545453 C185.0 135.13075196408528 184.6101617680565 136.48074732285255 182.54545454545453 138.54545454545453 C180.40391006842617 140.6869990224829 179.19248035914703 141.0 173.0454545454545 141.0 C163.57457302587707 140.99999999999997 161.99999999999997 139.50318366675873 162.0 130.5 L162.0 124.0 L150.5 124.0 L139.0 124.0 L139.0 130.94329603135097 C139.0 139.70843860783745 137.58729307752543 141.0 127.99999999999999 141.0 C118.41270692247457 141.0 117.00000000000001 139.70843860783748 117.0 130.94329603135097 L117.0 124.0 L105.5 124.0 L94.0 124.0 L94.0 130.50000000000003 C93.99999999999999 139.50318366675887 92.42542697412303 140.99999999999997 82.95454545454565 141.0 C76.80751964085358 141.0 75.59608993157406 140.68699902248284 73.45454545454564 138.54545454545473 C71.38983823194341 136.48074732285284 71.0 135.1307519640859 71.0 130.04545454545473 L71.0 124.0 L65.95034007311583 124.0 C63.17302711332953 124.0 59.58064422012508 123.31738289320447 57.967266977105936 122.48307309600993 C52.884595815469886 119.85472168940665 52.0 116.67740321624507 52.0 101.0496599268842 L52.0 87.0 L45.5 87.0 L39.0 87.0 L39.0 97.29999999999961 C39.00000000000001 103.97777777777468 38.57799352750796 108.02200647249155 37.80000000000042 108.7999999999996 C35.940769541303204 110.65923045869803 32.18683439390466 110.21762035017224 31.000030334640492 108.00005668079422 C30.26904984933131 106.63420715020618 30.020102721980475 90.01406014674515 30.21484657615249 55.57981134729508 L30.5 5.159509333001722 L32.92431402670947 2.579754666500861 L35.348628053418935 0.0 L127.99999999999997 0.0 L220.651371946581 0.0 L223.0756859732905 2.580564026709496 L225.5 5.161128053418992 L225.5 128.0 L225.5 250.83887194658104 L223.0756859732905 253.41943597329052 L220.65137194658098 256.0 L127.99999999999997 256.0 L35.34862805341897 256.0 L32.92431402670948 253.4200057996864 Z M52.22929450113625 227.75 L52.5 207.5 L54.80504205593857 207.17323613368586 C59.68650129074502 206.4812381336014 59.99999999999999 207.77562767001874 60.0 228.62244471544216 L60.0 248.0 L67.5 248.0 L75.0 248.0 L75.0 235.95454545454547 C75.0 224.4988776655444 75.12018296169241 223.78890794739854 77.45454545454544 221.45454545454547 C79.7771414936769 219.13194941541397 80.52974186307512 219.0 91.45454545454544 219.0 C104.7770968563579 219.0 103.73940494258184 220.3597688937162 101.17239541833956 206.26594096075831 C99.84323647011126 198.9683686942859 99.01967277168248 196.70208046680224 97.24526515295068 195.45923699210925 C92.85603914928042 192.3849034285996 95.04714610908044 188.0 100.97259606327547 188.0 C104.06222624495425 188.0 104.81250995892222 187.5033690045654 106.52259606327547 184.32632033276465 C107.61016822847397 182.3057965157852 110.74396135223802 178.87858508447806 113.48658078275113 176.71029492985988 C116.22920021326425 174.5420047752417 119.50423519980659 171.2505879568408 120.76443630840078 169.39603533341347 C124.83518576266091 163.40538905622088 131.38311220990707 163.59959811272537 135.5084047056095 169.83333593760065 C136.8901120623 171.92123671585648 140.00937665365075 175.0313384497688 142.44010379750003 176.7446731240725 C144.8708309413493 178.4580077983762 147.90369596394106 181.6879000334894 149.1798038477039 183.92221142432408 C151.20591489139193 187.4696881240678 151.94996287685652 187.98557201510792 155.0499999999995 187.9922978856481 C160.9570624400815 188.0051139054784 163.13367660527257 192.39210679450662 158.7547348470493 195.4592369921093 C156.98032722831744 196.70208046680233 156.1567635298887 198.9683686942859 154.82760458166044 206.26594096075834 C152.26059505741824 220.35976889371614 151.22290314364218 219.0 164.54545454545473 219.0 C175.4702581369255 219.0 176.22285850632332 219.1319494154139 178.54545454545473 221.45454545454567 C180.87981703830758 223.78890794739883 181.00000000000003 224.49887766554502 181.0 235.95454545454567 L181.0 248.0 L188.5 248.0 L196.0 248.0 L196.0 203.0 L196.0 158.0 L128.02159279460585 158.0 L60.043185589211745 158.0 L59.77159279460587 177.14201472694174 C59.53090678329649 194.10570177813543 59.300853071793235 196.40953417160938 57.749999999999986 197.38689987221255 C56.474512309524904 198.1907270966513 55.525487690475046 198.19072709665127 54.249999999999986 197.38689987221252 C52.69914692820677 196.40953417160938 52.46909321670351 194.10570177813526 52.22840720539413 177.14201472694174 L51.956814410788255 158.0 L45.47840720539413 158.0 L39.0 158.0 L39.0 203.0 L39.0 248.0 L45.47929450113625 248.0 L51.9585890022725 248.0 L52.22929450113625 227.75 Z M172.0 238.0 L172.0 228.0 L128.0 228.0 L84.0 228.0 L84.0 238.0 L84.0 248.0 L128.0 248.0 L172.0 248.0 L172.0 238.0 Z M217.0 203.0 L217.0 158.0 L210.5 158.0 L204.0 158.0 L204.0 203.0 L204.0 248.0 L210.5 248.0 L217.0 248.0 L217.0 203.0 Z M144.3877288519601 216.25 C144.68838051293915 214.7375 145.42921498281396 210.575 146.03402767390412 207.0 C146.63884036499428 203.425 147.37739112543724 199.4875 147.6752515859996 198.25 L148.2168160597493 196.0 L128.00000000000006 196.0 L107.78318394025078 196.0 L108.32474841400042 198.25 C108.62260887456274 199.4875 109.36115963500568 203.425 109.96597232609585 207.0 C110.57078501718603 210.575 111.31161948706084 214.7375 111.6122711480399 216.25 L112.15891053163817 219.0 L128.0 219.0 L143.84108946836182 219.0 L144.3877288519601 216.25 Z M134.75 181.70742205232602 L128.0 175.4265709162903 L121.25 181.70742205232605 L114.5 187.9882731883618 L128.0 187.9882731883618 L141.5 187.98827318836177 L134.75 181.70742205232602 Z M86.0 128.0 C86.0 124.22222222222223 85.83333333333333 124.0 83.0 124.0 C80.16666666666667 124.0 80.0 124.22222222222223 80.0 128.0 C80.0 131.77777777777777 80.16666666666667 132.0 83.0 132.0 C85.83333333333333 132.0 86.0 131.77777777777777 86.0 128.0 Z M131.0 128.0 C131.0 124.22222222222223 130.83333333333334 124.0 128.0 124.0 C125.16666666666667 124.0 125.0 124.22222222222223 125.0 128.0 C125.0 131.77777777777777 125.16666666666667 132.0 128.0 132.0 C130.83333333333334 132.0 131.0 131.77777777777777 131.0 128.0 Z M176.0 128.0 C176.0 124.22222222222223 175.83333333333334 124.0 173.0 124.0 C170.16666666666666 124.0 170.0 124.22222222222223 170.0 128.0 C170.0 131.77777777777777 170.16666666666666 132.0 173.0 132.0 C175.83333333333334 132.0 176.0 131.77777777777777 176.0 128.0 Z M194.17125932841594 114.34501243788792 C195.7621052084008 112.90531670326432 195.99999999999997 111.01905993007198 196.0 99.84501243788792 L196.0 87.0 L190.0 87.0 L184.0 87.0 L184.0 90.9442362986733 C184.0 96.06309819031547 180.7945063624837 99.86146592065154 175.80428605651525 100.65579367182053 C168.1413202972982 101.87556073331156 163.5219952774369 98.66371997018538 162.4257826666501 91.35365053349665 L161.77291244987424 87.0 L150.38645622493712 87.0 L139.0 87.0 L139.0 89.95294697887417 C139.0 96.52617975216404 134.5452352195572 101.0 128.0 101.0 C121.45476478044279 101.0 117.0 96.52617975216404 117.0 89.95294697887417 L117.0 87.0 L105.61354377506284 87.0 L94.22708755012567 87.0 L93.55867823487621 91.45727266638258 C92.5658055727139 98.07822195193057 88.31131164260218 101.38045897264149 81.60427330359778 100.73599750959798 C75.2648771752375 100.12686180808626 72.0 96.79824998370731 72.0 90.94423629867366 L72.0 87.0 L66.0 87.0 L60.0 87.0 L60.0 99.67125932841594 C60.0 110.05867499963686 60.298291807349415 112.67212739383291 61.65498756211209 114.17125932841594 C63.22573445814215 115.90691511175532 66.5939234940758 116.0 127.82624689052804 116.0 C186.4559945237591 116.0 192.5093746421778 115.848997408598 194.17125932841594 114.34501243788792 Z M85.0 81.0 C85.0 70.66666666666666 84.87878787878788 70.0 83.0 70.0 C81.12121212121212 70.0 81.0 70.66666666666666 81.0 81.0 C81.0 91.33333333333334 81.12121212121212 92.0 83.0 92.0 C84.87878787878788 92.0 85.0 91.33333333333334 85.0 81.0 Z M130.0 81.0 C130.0 70.66666666666666 129.87878787878788 70.0 128.0 70.0 C126.12121212121212 70.0 126.0 70.66666666666666 126.0 81.0 C126.0 91.33333333333334 126.12121212121212 92.0 128.0 92.0 C129.87878787878788 92.0 130.0 91.33333333333334 130.0 81.0 Z M175.0 81.0 C175.0 70.66666666666666 174.87878787878788 70.0 173.0 70.0 C171.12121212121212 70.0 171.0 70.66666666666666 171.0 81.0 C171.0 91.33333333333334 171.12121212121212 92.0 173.0 92.0 C174.87878787878788 92.0 175.0 91.33333333333334 175.0 81.0 Z M72.0 74.40120980030909 C72.0 70.58086948967879 71.49218173350488 69.32804631275889 69.0 67.0 L66.0 64.19758039938182 L66.0 46.53304874560159 C65.99999999999999 22.18596377864904 66.07286375935561 22.07902550277435 82.69423629867364 22.031803371870456 C93.1096298704295 22.0022127302133 94.08368454338124 22.167914246857208 96.69423629867364 24.413416332039116 L99.5 26.826832664078218 L99.5 45.34775369870167 L99.5 63.86867473332513 L96.75 66.7390562277771 C94.54801845416029 69.03742971152366 94.0 70.54511070825814 94.0 74.30471886111454 L94.0 79.0 L105.5 79.0 L117.0 79.0 L117.0 74.03518375848799 C117.0 70.21566641550203 116.57027216502546 68.84038415912741 115.13715027818753 68.07340060135806 C111.52026013079492 66.13769973823828 110.8496318945234 62.09053125835664 111.18254590937312 44.207793270461565 C111.48897519742539 27.747703200269626 111.58419353951481 27.06597512348962 113.92431402670948 24.57774863207707 C116.26057635173005 22.093624485557555 116.77180884419268 22.000000000000007 127.99999999999997 22.000000000000004 C139.22819115580725 22.0 139.7394236482699 22.09362448555755 142.0756859732905 24.57774863207705 C144.4158064604852 27.065975123489594 144.5110248025746 27.74770320026954 144.81745409062688 44.207793270461565 C145.15036810547662 62.09053125835706 144.4797398692052 66.13769973823825 140.8628497218125 68.07340060135806 C139.42972783497453 68.84038415912741 139.0 70.21566641550201 139.0 74.03518375848799 L139.0 79.0 L150.5 79.0 L162.0 79.0 L162.0 74.30471886111451 C162.0 70.61767947869838 161.444870527 69.0300074072021 159.4148175003745 66.91108862888136 C155.7752339907948 63.11218202764135 154.85015913107384 53.63497145110321 157.76762856539304 50.03596092205808 C159.54333776961383 47.845433731837744 160.05559819913609 47.70430219419172 162.3825274896805 48.76452213090827 C164.745790358724 49.84129675386024 165.0 50.49336605307448 165.0 55.47856120885019 L165.0 61.0 L173.0 61.0 L181.0 61.0 L181.0 45.5 L181.0 30.0 L173.0 30.0 L165.0 30.0 L165.0 33.30000000000049 C165.00000000000003 37.1823533912648 163.49334607819551 39.0 160.2752491529358 39.00000000000001 C155.37745412491606 39.00000000000002 154.86349019620602 29.045600712885495 159.52081879000684 24.38827211908405 C161.76113463727918 22.14795627181142 162.6088576272994 22.001970256360387 173.2045454545453 22.03180337187049 C189.9419266101076 22.0789289793338 189.99999999999991 22.163646565963244 189.99999999999994 46.533048745601555 L190.0 64.19758039938179 L187.0 66.99999999999997 C184.50781826649512 69.32804631275887 184.0 70.58086948967878 184.0 74.40120980030909 L184.0 79.0 L200.5 79.0 L217.0 79.0 L217.0 43.5 L217.0 8.0 L128.0 8.0 L39.0 8.0 L39.0 43.5 L39.0 79.0 L55.5 79.0 L72.0 79.0 L72.0 74.40120980030909 Z M91.0 45.5 L91.0 30.0 L83.0 30.0 L75.0 30.0 L75.0 45.5 L75.0 61.0 L83.0 61.0 L91.0 61.0 L91.0 45.5 Z M136.0 45.5 L136.0 30.0 L128.0 30.0 L120.0 30.0 L120.0 45.5 L120.0 61.0 L128.0 61.0 L136.0 61.0 L136.0 45.5 Z M202.05018710790196 36.560471765592446 C200.41559842673428 34.59091289480199 201.11687327726398 29.941615210450387 203.25 28.60597675315473 C205.67847830835376 27.085406509121007 208.41075185761494 28.951306610182463 208.82225760754022 32.41133366401792 C209.38658660843657 37.15633081343812 204.85098159686467 39.935222670546004 202.05018710790196 36.560471765592446 Z M201.41855130927502 22.64834393703527 C201.10631713793705 21.834674729345227 200.99691093234827 19.89343266763909 201.17542640796663 18.334472688799416 C201.46294872432549 15.82356553817787 201.8995379416064 15.5 205.0 15.5 C208.41666666666666 15.5 208.5 15.595238095238095 208.5 19.5 C208.5 23.2836379724911 208.32383397507596 23.516977454911263 205.2431249013084 23.813871248235856 C203.0691372369832 24.02338257463742 201.79749415607833 23.635853166396668 201.41855130927502 22.64834393703527 Z" fill="currentColor"/></svg>
