<svg xmlns="http://www.w3.org/2000/svg" xmlns:xlink="http://www.w3.org/1999/xlink" width="256" height="256" xml:space="preserve" version="1.1" viewBox="0 0 256 256">
  <path d="M103.0 245.3212147434333 C102.175 245.00731112800946 100.2625 243.59743165319162 98.75 242.18814924383807 L96.0 239.625817590468 L96.0 192.812908795234 L96.0 146.0 L82.01777858032733 146.0 L68.03555716065466 146.0 L67.76777858032733 170.14168920822004 C67.52675024227123 191.8716992060737 67.3251804759087 194.3935842385513 65.75 195.38657435349074 C64.47413234908166 196.19087835846645 63.52586765091833 196.1907746130612 62.25 195.38619143412336 C60.6400439725632 194.3709266160422 60.47904741640385 191.18328091666183 60.238174941611874 155.55313134724054 L59.97634988322375 116.82365011677575 L63.38817494161213 113.4118250583879 L66.80000000000051 110.00000000000006 L77.40000000000026 110.00000000000003 L88.0 110.0 L88.0 81.53518375848799 C88.0 53.7085040139332 87.95326523782695 53.045355831304164 85.91534189990762 51.954692359806074 C82.2247171751821 49.97952994845872 81.0 45.00757581867806 81.0 31.999999999999986 C81.00000000000001 17.53249405773541 82.21839766128217 13.642347694804185 87.43189202913993 11.464010660037914 C92.59728651764532 9.305771038094605 163.4027134823562 9.30577103809468 168.56810797086052 11.464010660038 C173.78160233871796 13.6423476948046 175.0 17.53249405773572 175.0 31.999999999999957 C175.0 45.007575818679534 173.77528282481825 49.97952994845856 170.08465810009218 51.95469235980623 C168.01969280003146 53.05982825024004 168.0 53.49102708122348 168.0 97.60092521257738 C167.99999999999997 126.38462008756882 167.63393908626827 142.81547398213414 166.96481624151198 144.06574145408936 C166.29870628022402 145.31037930178837 164.87258731661473 146.0 162.96481624151198 146.0 L160.0 146.0 L160.0 192.812908795234 L160.0 239.625817590468 L156.9362078914869 242.562908795234 L153.87241578297377 245.5 L129.1862078914869 245.69597429482923 C115.6087935511691 245.8037601569853 103.825 245.63511835885714 103.0 245.3212147434333 Z M150.4182125317641 237.39301119581572 C151.82845025356684 236.85185220602597 152.0 231.86300983978435 152.0 191.39301119581572 L152.0 146.0 L128.0 146.0 L104.0 146.0 L104.0 191.41666666666669 C104.0 226.81432748538012 104.27575245453082 236.9446018676177 105.25 237.33771929824562 C107.05320180558313 238.0653270443581 148.53386058101486 238.11610488584427 150.4182125317641 237.39301119581572 Z M88.0 128.0 L88.0 118.0 L79.2 118.0 C73.68888888888891 118.0 69.95151515151515 118.44848484848485 69.2 119.19999999999999 C68.44848484848485 119.95151515151515 68.0 123.68888888888887 68.0 129.2 L68.0 138.0 L78.0 138.0 L88.0 138.0 L88.0 128.0 Z M160.0 128.0 L160.0 118.0 L128.0 118.0 L96.0 118.0 L96.0 128.0 L96.0 138.0 L128.0 138.0 L160.0 138.0 L160.0 128.0 Z M124.0 96.53518375848799 C124.0 84.09382335596798 124.1520192805657 82.9890092670402 126.0 82.0 C127.42098860545245 81.23950997736534 128.57901139454756 81.23950997736534 130.0 82.0 C131.8479807194343 82.9890092670402 132.0 84.09382335596798 132.0 96.53518375848799 L132.0 110.0 L146.0 110.0 L160.0 110.0 L160.0 82.0 L160.0 54.0 L128.0 54.0 L96.0 54.0 L96.0 82.0 L96.0 110.0 L110.0 110.0 L124.0 110.0 L124.0 96.53518375848799 Z M165.42857142857162 44.428571428571246 C166.66416040100245 43.19298245614014 167.0 40.53679653679545 167.0 32.00000000000001 C167.0 23.463203463204472 166.66416040100245 20.80701754385989 165.42857142857162 19.57142857142876 C164.0584329349272 18.201290077784037 159.2640692640716 18.0 128.0000000000002 18.0 C96.73593073593102 17.999999999999996 91.94156706507309 18.201290077784105 90.5714285714286 19.571428571428548 C88.29001644264214 21.852840700214934 88.29001644264211 42.14715929978497 90.57142857142857 44.42857142857143 C91.94156706507304 45.7987099222159 96.73593073593074 46.0 128.0000000000002 46.0 C159.26406926407157 46.0 164.05843293492725 45.79870992221596 165.42857142857162 44.428571428571246 Z" fill="currentColor"/></svg>
