<svg xmlns="http://www.w3.org/2000/svg" xmlns:xlink="http://www.w3.org/1999/xlink" width="256" height="256" xml:space="preserve" version="1.1" viewBox="0 0 256 256">
  <path d="M41.67218652431244 255.33885319097908 C41.3024839359406 254.96915060260724 41.0 253.4398116285496 41.0 251.94032213751765 C41.0 249.06375857999623 42.50690073141887 248.0 46.58178746823579 248.0 L49.0 248.0 L49.00000000000001 143.22031120877816 L49.000000000000014 38.44062241755631 L58.500000000000014 30.52618712074704 L68.00000000000001 22.611751823937766 L68.0 13.940734603770863 C67.99999999999999 6.682695946205195 68.33773561342312 4.840356127309735 70.07258014903235 2.6348586918019805 L72.1451602980647 0.0 L129.07258014903238 0.0 C196.3766025472886 0.0 189.9738427993556 -1.3913952711401762 190.0448778273141 13.25 L190.08975565462825 22.5 L198.62706393033505 29.5 C203.32258348197377 33.35 207.80238845968242 37.38762780953247 208.5821861030209 38.47250624340549 C209.78413577254608 40.14469554303722 209.99999999999997 56.22878153360338 209.99999999999997 144.114098213531 L209.99999999999997 247.783183940251 L212.5607994203976 248.4259036814821 C214.73881419669559 248.9725505927042 215.07514098682364 249.5492999205673 214.8107994203976 252.2843117113566 L214.5 255.5 L128.42218652431245 255.75551985764577 C81.07938911268428 255.89605577935095 42.041889112684274 255.70855577935095 41.67218652431244 255.33885319097908 Z M111.57389883133129 242.25 C109.35872780913206 218.00772582275258 109.6913284358675 215.0 114.58726095695418 215.0 C117.72323765801302 215.0 118.99999999999997 217.72966652196894 118.99999999999999 224.43425854591067 L119.0 230.0 L129.91468018657508 230.0 L140.8293603731502 230.0 L141.42711087127856 222.25 C141.75587364524918 217.9875 142.2373680429981 211.9125 142.4970984218317 208.75 L142.96933547425647 203.0 L130.48466773712823 203.0 C118.12385502592217 203.0 118.0 203.02281731205179 118.0 205.29999999999987 C118.0 209.69573562580334 113.6645037073119 211.52164656445476 110.57142857142858 208.42857142857142 C108.67432724184845 206.53147009899126 108.40652185228768 196.99347814771232 110.2 195.2 C111.67308018244222 193.72691981755779 147.701114308973 193.52560161941344 149.99802198458266 194.9776157853213 C151.6992317343797 196.05305328858537 151.67340384249366 198.79099632500166 149.6747196286166 229.25 L148.44436654779815 248.0 L174.72218327389908 248.0 L201.0 248.0 L201.0 203.5 L201.0 159.0 L129.0 159.0 L57.0 159.0 L57.0 203.5 L57.0 248.0 L84.54965648028585 248.0 L112.0993129605717 248.0 L111.57389883133129 242.25 Z M140.0 243.5 L140.0 239.0 L130.0 239.0 L120.0 239.0 L120.0 243.5 L120.0 248.0 L130.0 248.0 L140.0 248.0 L140.0 243.5 Z M126.44165229025486 221.7085441284819 C126.14212365845579 220.92798502608747 126.03271745286702 217.45853208110375 126.19852738894646 213.99864869518473 C126.53348020629318 207.00933481444477 128.41301481122156 204.5091851697247 131.75 206.61410135042993 C133.15924850704968 207.5030324715805 133.5 209.15711521197613 133.5 215.10898649570066 L133.5 222.5 L130.2431249013084 222.81387124823584 C128.12338704374093 223.0181544175704 126.79610369815639 222.63222969113505 126.44165229025486 221.7085441284819 Z M63.92431402670948 204.42043359746066 C61.56918498748156 201.9144827691833 61.5 201.38887298664508 61.5 186.00251932490795 C61.5 170.61685845705816 61.569291030735094 170.0903710397957 63.92431402670948 167.5820857274473 C66.33862700954545 165.01065190085149 66.41494522146913 165.00013119872835 82.42431402670948 165.03180337187047 C93.48191142087603 165.05367919617464 98.99528127813815 165.44387161062753 100.08665718435539 166.28180337187047 C103.40740459986836 168.83139212004815 104.0 171.81730804185477 104.0 186.0 C104.0 200.18269195814548 103.40740459986841 203.16860787995182 100.08665718435539 205.71819662812953 C98.99528127813815 206.55612838937247 93.48191142087603 206.94632080382536 82.42431402670948 206.96819662812953 C66.41958368957015 206.9998596247472 66.33792749953398 206.98861418570937 63.92431402670948 204.42043359746066 Z M173.65498756211207 205.17125932841594 C171.32510934907282 202.59677288177156 171.26044979088928 185.88240735196786 173.57142857142856 183.57142857142856 C176.02035032058643 181.12250682227074 193.07833631097205 181.32409174400567 195.3450124378879 183.82874067158406 C197.8614190848089 186.60933871764794 197.7288115014192 203.03045953186722 195.17125932841594 205.34501243788793 C192.39066128235206 207.8614190848089 175.96954046813275 207.72881150141916 173.65498756211207 205.17125932841594 Z M95.0 196.5 L95.0 194.0 L82.5 194.0 L70.0 194.0 L70.0 196.5 L70.0 199.0 L82.5 199.0 L95.0 199.0 L95.0 196.5 Z M189.0 194.5 L189.0 190.0 L184.5 190.0 L180.0 190.0 L180.0 194.5 L180.0 199.0 L184.5 199.0 L189.0 199.0 L189.0 194.5 Z M95.0 179.5 L95.0 173.0 L82.5 173.0 L70.0 173.0 L70.0 179.5 L70.0 186.0 L82.5 186.0 L95.0 186.0 L95.0 179.5 Z M201.0 98.0 L201.0 45.0 L189.6224447154422 45.00000000000001 C177.12987508508456 45.000000000000014 175.22838753574445 44.21048494384054 176.4073847234657 39.512985985452794 C177.01594548891103 37.08828676516001 177.32727549424715 36.99850205044547 185.26905202821467 36.95736250806568 L193.5 36.91472501613137 L189.0 32.96006743614634 L184.5 29.005409856161307 L129.22058211017176 29.002704928080654 L73.94116422034352 29.0 L68.89201944100947 32.99111927205681 L63.842874661675395 36.98223854411361 L116.6714373308377 37.24111927205681 L169.5 37.5 L169.8267638663145 39.80504205593812 C170.5836710254492 45.14438037973815 172.18032274813956 45.0 112.37755528455783 45.0 L57.0 45.0 L57.0 98.0 L57.0 151.0 L129.0 151.0 L201.0 151.0 L201.0 98.0 Z M62.97098604015768 144.9709860401577 C60.982710901263076 142.98271090126306 60.94757416092048 142.0182177597767 61.22098604015768 96.9340030660938 C61.46114383922524 57.333215405619256 61.70889363813581 50.7940544592351 63.0 49.978329800453174 C65.3754037646414 48.47754296939483 194.29273220071616 48.69273220071612 195.8 50.19999999999999 C196.69911957759575 51.09911957759572 197.0 63.12551472033623 197.0 98.164816241512 C197.0 143.3763634629147 196.93575460960375 144.96401557252182 195.06574145408933 145.96481624151204 C192.4039927274932 147.38934092916236 92.59600727250668 147.3893409291623 89.93425854591067 145.96481624151198 C87.5369938057147 144.68183908776317 87.28814581282312 139.48714169046247 89.58178746823577 138.6069888041843 C90.45177057576547 138.27314496188293 113.17677057576546 138.0 140.08178746823577 138.0 L189.0 138.0 L189.0 112.14922326522742 C189.0 95.92877337323837 188.59023855673547 85.12300408501629 187.90007351180537 83.14319534140753 C186.54607997536866 79.25912694078508 182.89201667399027 78.05237007037066 179.1226390871047 80.2444417011452 C175.75221728942122 82.20450164105439 172.28484332733632 80.98308755961645 171.41830388110827 77.53051940386179 C170.51058376923098 73.91387440720578 168.29225533359352 72.97994121738651 164.43632349213277 74.59105241097816 C161.5242412855364 75.80779804669177 160.94617740583473 75.74550341639745 158.69148793172855 73.97196441758594 C155.91612819372025 71.78886612949894 153.4674371491474 71.43465381070024 152.4566897028561 73.0700775328417 C150.93984186291485 75.5243888936284 147.52471719437003 75.80054618658902 144.1391017911024 73.74266280705675 C140.9615744241077 71.81126187172423 140.62579581803325 71.78983279585772 137.98480973446584 73.3499016572975 C134.10065982600722 75.64432545720076 131.72102638418968 75.4144452124829 129.18694888111867 72.50000000000003 C126.71916721563446 69.66180170033978 124.79506602353861 69.33707776087782 123.03213970301029 71.46127402697832 C120.85949048646766 74.07915618097717 118.14508276491871 74.23949646212508 114.9166591911484 71.9406561097038 L111.83469103711887 69.746101214577 L108.95783802602571 71.87305060728849 C105.67313861779557 74.30153387863932 104.1402268610764 74.47664454302034 100.53716183964704 72.83497825581158 C98.32615682185104 71.82757695248313 97.64869505121123 71.98140580979313 95.5298310052354 73.97197522569701 C93.52427253909967 75.85609957623231 92.33942321480916 76.17473627375537 89.00295350734626 75.72722177766707 C85.35831699412635 75.23837343926003 84.69855979521449 75.48870471140204 82.77517282765464 78.09022480778162 C81.00633138570379 80.48271089412661 79.89287721288925 80.99999999999997 76.5119415070227 80.99999999999997 C74.25037367816033 80.99999999999999 71.86000000000016 81.53999999999995 71.2000000000001 82.1999999999999 C70.3252747252747 83.07472527472517 70.0 90.79999999999842 70.0 110.6999999999999 L70.0 138.0 L74.30000000000001 138.0 C80.57205520223812 138.0 83.13900226493527 141.7181405922076 79.42857142857142 145.42857142857144 C76.94326234388714 147.9138805132557 65.59845026519739 147.59845026519739 62.97098604015768 144.9709860401577 Z M88.5 123.28416856124466 C87.4 123.01806275545196 85.4875 121.86682205114654 84.25 120.72585588501039 C82.18467576210249 118.82164168093607 82.00261036086115 117.78333956130368 82.03180337187045 108.07568597329052 C82.05204811009804 101.34363268728839 82.5063487456544 96.92334450618982 83.28180337187045 95.91334281564463 C87.30853304114669 90.66867261078289 97.69146695885331 90.66867261078288 101.71819662812955 95.91334281564463 C102.3882047736008 96.78600426704008 102.9507047736008 98.9625 102.96819662812955 100.75 C102.99788711483785 103.78408337314221 102.77467658527155 104.0 99.60840802987462 104.0 C96.82469927723142 104.0 96.10435487859515 103.5519189639875 95.5893560016597 101.5 C95.14049661506947 99.71160175534958 94.286170539253 99.0 92.58793677596942 99.0 C89.6087976802955 99.0 89.0 100.59189272395808 89.0 108.38178746823576 C89.0 117.11130784590028 92.39660606727983 120.00130211105133 95.53149528524051 113.93909483426863 C96.79318877084594 111.49924867138502 97.66072615091373 110.94127246325142 99.8071754314721 111.18909483426863 C101.89243999050119 111.42985300726507 102.57031511680684 112.10930230654395 102.81165032443883 114.20054676915905 C103.56925440308149 120.76542120195215 96.53741893325056 125.22853569008656 88.5 123.28416856124466 Z M110.31825751561485 122.53783223432747 C106.49601742311016 120.8753666243435 105.013907189299 116.60146842705117 105.0055769344027 107.21788136910357 C104.99927605704546 100.12027967994544 106.8638763331917 94.67840245108562 109.84960044581857 93.08049139868174 C113.56923871587202 91.08980140909873 120.61341184166555 91.76340269861231 123.68242886338663 94.40326000378248 C126.24530951291665 96.60775713007959 126.50736577885466 97.4887266847187 126.85097497540278 105.05514290062814 C127.35088333254478 116.06333109217451 125.92143238864035 120.7170542583278 121.46875734547329 122.57750068176804 C117.26070496900671 124.33573722891072 114.42872803582861 124.325662332732 110.31825751561485 122.53783223432747 Z M131.6621952598668 122.74225848770735 C130.14862016297437 121.63550535533155 129.97561654758283 119.74476154156056 130.2210656247619 106.99225848770735 L130.5 92.5 L136.96914676038284 92.19659430572537 C144.73673111737375 91.83229134399599 147.41190891499255 92.41190891499257 150.02543607720787 95.02543607720787 C152.76538398027915 97.76538398027918 152.7056059078117 104.83325006494144 149.9124515669296 108.38417039776903 L147.8249031338592 111.03805817914063 L149.9124515669296 114.57618927133211 C152.27877527001493 118.58680925764861 152.5451379635225 121.05486203647747 150.8 122.8 C148.13404043568036 125.46595956431968 146.01353931824394 124.06532393884555 142.77603165447917 117.5 C141.013119419566 113.925 139.2173209284801 111.0 138.7853683409549 111.0 C138.35341575342972 111.0 138.0 113.4591673086804 138.0 116.46481624151201 C138.0 120.84426403729397 137.61583645289522 122.13523057403764 136.06574145408933 122.96481624151201 C133.65517274649255 124.2549134625372 133.7364950679031 124.25902353936824 131.6621952598668 122.74225848770735 Z M156.72437557230444 123.22351591392675 C155.10325212297073 122.87654962673955 154.97273383096712 121.52335556247294 155.22437557230444 107.67174102291384 L155.5 92.5 L158.68380092357845 92.19157882874532 C161.69641387849458 91.89974097883103 162.0855241423127 92.27611997029427 165.92058062835846 99.19157882874532 L169.97355940956004 106.5 L169.98677970478002 99.18664151591186 L170.0 91.87328303182372 L173.25 92.18664151591186 L176.5 92.5 L176.77538192444842 107.62673111369153 C177.02835485526896 121.52253604435134 176.90325861360958 122.79203571291919 175.23808648220324 123.22748800721162 C171.74850932265855 124.14003293369372 169.33431314507425 122.14374998879725 165.71088979946273 115.34951171555014 L162.05798867088595 108.5 L162.02899433544297 115.63336863603901 C161.99852557054405 123.12948567366792 161.25510104118706 124.19321935930519 156.72437557230444 123.22351591392675 Z M118.5 108.0 C118.5 99.6 118.47058823529412 99.5 116.0 99.5 C113.58509405384218 99.5 113.48989196154575 99.75209675839294 113.20303334963366 106.90641522557141 C112.84632592668363 115.80277879081454 113.28746220280948 117.24018492161434 116.24552922665009 116.82013681964153 C118.38289358382319 116.5166292134179 118.5 116.05847529749795 118.5 108.0 Z M144.36162639947696 103.5 C145.3650452788946 100.88513231560032 143.91197892093805 99.0 140.8930111958157 99.0 C138.3452209782427 99.0 138.0 99.35798787651636 138.0 102.0 C138.0 104.64201212348364 138.3452209782427 105.0 140.8930111958157 105.0 C142.54208603305378 105.0 144.033520484462 104.3550303087091 144.36162639947696 103.5 Z M78.81687630942062 69.34952417147231 C80.88137991835603 67.94851417955148 83.74775030330706 67.0 85.91704059691648 67.0 C87.91791140086644 67.0 90.6010329400608 66.26732126299757 91.87953290623727 65.37182502888348 C94.31778633996159 63.6640058458719 98.54529336910069 63.211051922566995 118.5 62.51958967428389 C127.18564610479675 62.21861825463324 131.0523923158672 62.458970813266184 132.5 63.38981379481899 C133.83539447108078 64.24850125871886 135.49124260118126 64.40544705284694 137.48295021046 63.86211138278309 C139.15237884852158 63.406693065626875 142.03889411817417 63.47192902531386 144.03810051178635 64.01025940240226 C146.3350700253052 64.62876906119689 148.8203807240227 64.62510658336367 151.0 64.0 C153.3086572873768 63.33788580190333 155.68296694827643 63.387972454730786 158.44484969867364 64.15705095605296 C160.67518236440316 64.77811312958745 164.56772564507264 65.19218833551517 167.0949458779392 65.07721808033676 C170.82415359794007 64.90756608182636 172.30288936313767 65.38398473292179 174.94340530710053 67.60583241591996 C177.56943769738555 69.81549299198011 179.2387103862301 70.35857666292266 183.59864733178534 70.42174178955013 L189.00037580524804 70.5 L189.00018790262402 64.25 L189.0 58.0 L129.5 58.0 L70.0 58.0 L70.0 65.36132812851758 L70.0 72.72265625703517 L72.67732946909871 72.2108522999899 C74.14986067710299 71.929360123615 76.91265675524785 70.64176246578208 78.81687630942062 69.34952417147231 Z M182.0 14.0 L182.0 8.0 L129.5 8.0 L77.0 8.0 L77.0 14.0 L77.0 20.0 L129.5 20.0 L182.0 20.0 L182.0 14.0 Z" fill="currentColor"/></svg>
