<svg xmlns="http://www.w3.org/2000/svg" xmlns:xlink="http://www.w3.org/1999/xlink" width="512" height="512" xml:space="preserve" version="1.1" viewBox="0 0 512 512">
   <path d="M2.0000000000000004 510.0 C0.010582010582011137 508.010582010582 8.905280980591202e-16 506.6666666666667 1.3322676295501878e-15 256.0 C1.7740071610412553e-15 5.333333333333428 0.010582010582012913 3.989417989417989 2.000000000000001 2.0 C3.989417989417989 0.010582010582011137 5.333333333333428 -3.007588299513809e-16 256.0 -5.684341886080802e-14 C506.6666666666692 -1.1338607889166523e-13 508.01058201058197 0.010582010581877466 510.0 1.9999999999999432 C511.97909574595593 3.979095745955997 511.99999999999994 5.333333333333911 511.9999999999999 131.56574145408953 C511.99999999999983 212.86333414645296 511.6449557692062 259.7948891217694 511.0211088672808 260.9605577206969 C508.24998936146784 266.1384418807881 499.1819006951276 264.8291597773396 497.1343453329877 258.95553862138445 C496.31296152393526 256.59931548465437 496.00000000000006 222.6351841365407 496.0 135.8507767347669 L496.0 16.0 L256.0 16.0 L16.0 16.0 L16.0 216.0 L16.0 416.0 L255.97116662214344 416.0 L495.9423332442869 416.0 L496.2211666221434 352.91295210905406 L496.5 289.8259042181081 L499.3057637013261 287.412952109054 C502.7470410002616 284.4534593647499 505.89984806754137 284.3467800886571 509.3651413082041 287.07258014903704 L511.99999999999994 289.14516029807396 L511.9999999999999 398.572580149037 C511.9999999999999 506.6666666666646 511.97563072701234 508.02436927298754 510.0 510.0 C508.01058201058214 511.9894179894179 506.6666666666656 511.99999999999994 256.00000000000006 512.0 C5.333333333333314 512.0 3.9894179894179898 511.989417989418 2.0000000000000004 510.0 Z M496.0 464.0 L496.0 432.0 L256.0 432.0 L16.0 432.0 L16.0 464.0 L16.0 496.0 L256.0 496.0 L496.0 496.0 L496.0 464.0 Z M93.5 486.1001496000435 C84.97622427982807 482.1452745055418 79.98480313528498 474.06524229939555 80.0219620004909 464.28211863089643 C80.07417865687752 450.53460497151417 90.31482967213364 440.6074478836346 104.31001989867649 440.7375836442434 C128.6875283260047 440.96426049175943 136.55439509435996 474.57170164011956 114.77093438589065 485.4268580833706 C108.3624338843696 488.6203486146349 99.533962777596 488.8997973023863 93.5 486.1001496000435 Z M157.44419262632903 486.17593750715326 C152.4829842679283 483.84656861264926 146.3387080943098 476.8786224898609 145.00159707033743 472.06535181537504 C142.60652181622902 463.44367023687914 144.39561902389826 454.7874175441943 149.81654687400982 448.7690088193005 C161.1004132761239 436.2414633726991 181.56320758249257 438.5733404325691 189.11027472926583 453.2468011095709 C194.70111490232262 464.11684795496376 190.94605580107367 478.2135613679106 180.73988931767462 484.6697217937932 C175.00849075399128 488.2952582429586 163.53766029060523 489.0369207619276 157.44419262632903 486.17593750715326 Z M210.17431402670948 485.68554877863244 C208.1388797580902 483.5189282853872 208.0020313738207 482.41712063588136 208.03180337187047 468.43554877863244 C208.06607382064738 452.34140752034966 208.4603014392495 450.91608997764075 213.3965947057115 449.03931462281577 C217.11566851439926 447.62532528098666 294.8843314856008 447.6253252809867 298.6034052942887 449.0393146228158 C303.545940628689 450.91846320764097 303.93392790322923 452.33135385016493 303.9681966281295 468.57568597329055 C303.9987554967699 483.0614426784968 303.9094328100587 483.7364554037872 301.68554877863244 485.82568597329055 C299.38245620861807 487.9893291011131 299.1575571115067 488.0 255.8598628053419 488.0 L212.34862805341896 488.0 L210.17431402670948 485.68554877863244 Z M336.5542609450829 487.2729785886463 C332.78372987703915 486.3137115059811 326.9926237682889 481.94525429851285 324.58465504962004 478.24383801296574 C313.69540259472495 461.50539117954344 324.33769442619865 440.9173768377994 343.97365169644996 440.73491161269374 C364.5269178972668 440.54392238347623 375.65992308529917 464.3545552287298 362.30978723773626 479.9511864459883 C357.4559763079114 485.62177286811794 352.14276749999016 487.98182346366394 344.5 487.8620366490339 C341.2 487.8103150065425 337.6244174252873 487.5452388793681 336.5542609450829 487.2729785886463 Z M397.22906561410935 485.4268580833706 C375.4456049056401 474.5717016401194 383.31247167399533 440.96426049175943 407.68998010132356 440.7375836442434 C421.80187817256797 440.606362663363 431.95607599901825 450.54979474770397 431.95607599901814 464.5 C431.95607599901814 482.61610169990655 413.6843153120756 493.6268549605765 397.22906561410935 485.4268580833706 Z M108.21068537718423 470.6367015835925 C114.59441763235519 465.78666675940093 109.87630706350245 455.3354887327425 102.0 456.8792922144645 C99.08537098546758 457.4505770036793 96.0 461.2972995796518 96.0 464.3598628053419 C96.0 470.40629340171256 103.4638964214617 474.24307021217857 108.21068537718423 470.6367015835925 Z M171.4551976930372 471.378818657776 C173.89653243219672 470.4419906175407 176.13791976904662 465.39769747623734 175.40695454569646 462.485300049795 C174.05194660792216 457.08651840503177 166.55493526062205 455.19058611684216 162.3144512213676 459.17431402670945 C156.23517708581264 464.885495538385 163.41052609901686 474.4658487986559 171.4551976930372 471.378818657776 Z M288.0 468.0 L288.0 464.0 L256.0 464.0 L224.0 464.0 L224.0 468.0 L224.0 472.0 L256.0 472.0 L288.0 472.0 L288.0 468.0 Z M349.5454545454545 469.5454545454545 C356.212660837611 462.8782482532982 347.123120096688 453.02289861864773 339.3367695152764 458.47667085768694 C336.4175929311691 460.5213417274094 335.6436476975212 464.410210487859 337.4577422659935 467.91828255329494 C339.94677703289824 472.73154504105565 345.5985569016031 473.492352189306 349.5454545454545 469.5454545454545 Z M413.68554877863244 469.82568597329055 C416.73578989162206 466.9601332342267 416.76568933658956 462.0590732159997 413.75 459.2609646376967 C409.4835157771305 455.3023055151006 403.63910213498866 456.2504038652257 401.54044693554715 461.2416350393778 C398.2277970962591 469.120109383951 407.47757721381896 475.65777244206964 413.68554877863244 469.82568597329055 Z M130.21326412971848 397.7270092633527 C128.37923518703528 395.77477491529004 128.03712459262547 394.05157737263454 127.788950103009 385.5158353280403 L127.5 375.5776521293751 L122.0 374.40817171938363 C109.60734500183277 371.77308676517646 99.81969834333012 366.4499240272567 90.6710702060939 357.36944959173616 C81.71367195464312 348.4787804541394 75.42003139857508 336.46198518971096 72.53958280160515 322.75 L71.96189594357011 320.0 L62.155261998494545 320.0 C53.19747181966578 320.0 52.1604235259764 319.79966546089685 50.174314026709496 317.68554877863244 C47.003057603467674 314.3099010056429 47.22330885065988 308.7561056451774 50.63485869180118 306.072580149033 C52.87359066037295 304.31159332590454 54.67481577958445 304.00000000000006 62.61580666358613 304.0 L71.96189594356991 304.0 L72.54387207642138 301.25 C78.22916883191056 274.3853827157968 99.26139113560967 253.0829443728969 123.75 249.3859902382342 L128.0 248.74438355655928 L128.0 238.44477192731307 C128.0 228.5090102615863 128.09308052316928 228.07194314787105 130.63485869180047 226.07258014903346 C133.28342362630275 223.9892186679195 136.45031994953123 223.46810156072277 139.4551976930395 224.62118134222496 C142.58949304561722 225.82392332003806 144.0 230.54618168483793 144.0 239.83679629805297 L144.0 248.77291244987438 L148.44611806051907 249.43964902867157 C158.797391458375 250.9919183381093 172.38735218868416 258.2921140934465 181.04761904761892 266.9523809523814 C189.64673902446307 275.55150092922565 196.64044784045407 288.71657161562524 198.4707687549583 299.75 L199.1757956618859 304.0 L208.04084480981712 304.0 C217.9005424018873 304.0 221.2457672359891 305.0492235894634 222.88972818223624 308.6573248388897 C224.59874133506457 312.40820012949945 224.22738977240374 314.8635193185053 221.54545454545453 317.5454545454545 C219.27209419975574 319.8188148911533 218.36478959564275 320.0 209.25404491422347 320.0 L199.41718073753788 320.0 L197.73202750892372 327.25 C192.25274562469238 350.8234015080316 172.29519656837047 370.0961593596096 148.5 374.792758985285 L144.5 375.58226280168435 L144.0 385.8795976384083 C143.5484234278368 395.1796679743774 143.27136549632564 396.3620585095379 141.13921603769023 398.08846623756614 C137.8841209009597 400.7241264051771 132.8731726051408 400.558352088742 130.21326412971848 397.7270092633527 Z M370.8607839623098 398.08846623756614 C368.72863450367436 396.3620585095379 368.4515765721632 395.1796679743774 368.0 385.8795976384083 L367.5 375.5822628016844 L363.5 374.792758985285 C339.7048034316295 370.0961593596096 319.74725437530753 350.8234015080315 314.2679724910763 327.25 L312.5828192624621 320.0 L302.7459550857765 320.0 C293.6352104043572 320.0 292.7279058002442 319.8188148911533 290.45454545454544 317.54545454545456 C287.7726102275964 314.8635193185055 287.4012586649355 312.4082001294992 289.1102718177638 308.6573248388896 C290.754232764011 305.0492235894633 294.0994575981125 304.0 303.95915519018297 304.0 L312.8242043381141 304.0 L313.52923124504173 299.75 C315.35955215954647 288.7165716156235 322.35326097553724 275.5515009292238 330.95238095238034 266.9523809523815 C339.61264781131644 258.2921140934462 353.20260854162586 250.99191833810892 363.55388193948096 249.43964902867145 L368.0 248.77291244987438 L368.0 239.83679629805297 C368.0 230.54618168483762 369.41050695438275 225.823923320038 372.5448023069606 224.6211813422249 C375.54968005046896 223.46810156072272 378.71657637369725 223.98921866791943 381.36514130819955 226.07258014903346 C383.90691947683075 228.0719431478711 384.0 228.50901026158638 384.0 238.44477192731316 L384.0 248.7443835565594 L388.25 249.38599023823423 C412.73860886438956 253.08294437289615 433.77083116808996 274.3853827157972 439.4561279235786 301.25 L440.0381040564301 304.0 L449.3841933364139 304.0 C457.32518422041557 304.0 459.126409339627 304.3115933259045 461.3651413081988 306.072580149033 C464.88456675743623 308.8409606108727 465.043503853263 314.6710509771313 461.68554877863244 317.82568597329055 C459.63877593948973 319.7485292168851 458.25311667780386 320.0 449.70460080684757 320.0 L440.03810405643037 320.0 L439.46041719839496 322.75 C433.80106280960337 349.69058961649944 415.28218105308684 369.0323507260304 390.0 374.40817171938363 L384.5 375.5776521293751 L384.21104989699097 385.5158353280403 C383.9628754073745 394.05157737263454 383.62076481296475 395.77477491529004 381.7867358702815 397.7270092633527 C379.1268273948599 400.5583520887413 374.11587909903943 400.7241264051764 370.8607839623098 398.08846623756614 Z M128.0 354.2225062434054 C128.0 348.6800663431226 129.84909489379567 345.505674853667 133.63041211826462 344.55662464353895 C139.7004481215642 343.0331425862445 144.0 347.4346275383751 144.0 355.17205302112586 C144.0 359.2358160912881 144.0113041448436 359.2478013035391 147.25 358.61786341676685 C162.28210445877124 355.69406552403717 179.2320802605688 338.67561015608305 182.47554874188597 323.25 L183.15891053163818 320.0 L177.89390648718668 320.0 C171.421781135998 320.0 168.0 317.3841733263364 168.0 312.43646993560037 C168.0 307.2169230059422 170.77125168739965 304.7664426771753 177.28491671344835 304.22627890026604 L182.9020918085322 303.76045904266095 L182.3049773426432 300.6302295213305 C179.4963331270926 285.90658516054276 162.43589120173542 268.831170628354 147.25 265.54448718470076 L144.0 264.8410894683618 L144.0 268.98628618827024 C144.0 278.38178789100647 137.08963432573606 283.00474710459935 130.63485869180147 277.9274198509672 C128.35826671349233 276.1366523398395 128.0 275.1060594899851 128.0 270.34796458514813 L128.0 264.8410894683618 L124.75 265.4743275358318 C118.08517833960487 266.77291793221974 107.1942447504173 273.1155288355794 101.65191647703912 278.92608125370316 C95.88045002851355 284.97686111993437 90.61076250132892 294.2274347083704 89.46933562115997 300.31176306557927 L88.77741820148424 304.0 L92.84165607961629 304.0 C100.98302049251569 304.0 105.10232735777205 308.53941514152365 102.8427967561893 315.0211088672847 C101.50908833209793 318.84698735654797 99.33040543200381 320.0 93.43489907711398 320.0 L88.73831524604928 320.0 L89.28875639109845 323.39197117137394 C90.08528023000922 328.30037222968537 94.57415697857633 337.29964134962825 98.68638269453555 342.2322675150597 C102.55656302687383 346.87455957070796 111.01587827905973 353.6271459373618 115.0 355.2544928989904 C127.36930974571742 360.30683819414986 128.0 360.25677173828626 128.0 354.2225062434054 Z M368.0 355.04705302112586 C368.0 347.4347749413187 372.3407167213255 343.04347430412895 378.36958788173536 344.55662464353895 C382.1720414642838 345.5109797418544 384.0 348.6852173552909 384.0 354.33379714266334 L384.0 359.22258179851576 L387.45714415439863 358.5740176456994 C395.8460380615676 357.00025166228005 406.74399206933435 350.11255122882835 413.3136173054644 342.23226751505973 C417.42584302142365 337.29964134962813 421.9147197699909 328.3003722296851 422.71124360890155 323.39197117137405 L423.2616847539507 320.0 L418.565100922886 320.0 C412.66959456799617 320.0 410.49091166790197 318.84698735654786 409.1572032438107 315.0211088672847 C406.897672642228 308.53941514152353 411.0169795074842 304.0 419.1583439203837 304.0 L423.22258179851576 304.0 L422.53066437884 300.31176306557927 C421.3892374986711 294.2274347083703 416.11954997148644 284.9768611199342 410.3480835229608 278.926081253703 C404.80575524958266 273.1155288355792 393.91482166039543 266.7729179322198 387.25 265.4743275358318 L384.0 264.8410894683618 L384.0 270.34796458514813 C384.0 275.1060594899851 383.64173328650764 276.1366523398395 381.36514130819853 277.9274198509672 C374.7761997893267 283.1102820050719 368.0 278.56892488185645 368.0 268.9702046610651 L368.0 264.8410894683618 L364.75 265.54448718470076 C349.5641087982649 268.83117062835373 332.5036668729076 285.90658516054253 329.6950226573568 300.6302295213304 L329.0979081914678 303.76045904266084 L334.7150832865517 304.22627890026604 C341.1783550600253 304.76226367663844 344.0 307.2147171867368 344.0 312.29633274094226 C344.0 317.3500808443932 340.64488363548526 320.0 334.24623070747145 320.0 L328.8410894683618 320.0 L329.524451258114 323.25 C330.6926164012646 328.8056760301391 335.7423940503668 338.4257642115605 340.07307832747273 343.34568136494113 C345.1076305635562 349.06523474749594 351.6001468288764 353.645054973933 358.9758372262336 356.679685316911 C367.00088849659863 359.98148660967263 368.0 359.8007294858887 368.0 355.04705302112586 Z M130.45454545454544 205.54545454545456 C128.17855161289629 203.26946070380538 128.0 202.36963435844837 128.0 193.17555975677303 L128.0 183.26021042263696 L121.75 182.0674384759261 C107.21134994694586 179.2928314477135 91.28806959129092 168.3361896514721 82.72367673552137 155.2138357582324 C78.60488722695726 148.90303072472318 74.00686174103564 139.10719369212813 73.99442306559727 136.61664732842115 C73.99135575167577 136.0024912977895 73.5317644621116 133.85436864892372 72.973109088788 131.84304144205277 L71.95737204638145 128.1860828841055 L62.08128238639143 127.84304144205275 C50.37365228953197 127.43638228344696 48.000000000000036 126.09473786753247 48.000000000000014 119.88396758530746 C47.99999999999999 113.40592362090042 50.52680490785486 112.0 62.16950941841711 112.0 L71.96189594356989 112.0 L72.5395828016051 109.25 C75.51884158627328 95.06764230243584 81.34871798060344 83.91054127865543 90.62962962962968 74.62962962962978 C99.91054127865789 65.34871798060217 111.06764230243641 59.51884158627301 125.25 56.53958280160518 L128.0 55.96189594357 L128.0 46.16950941841661 C127.99999999999999 34.526804907854675 129.40592362090044 31.99999999999999 135.88396758530791 32.000000000000014 C142.09828702675173 32.000000000000036 143.43631941806782 34.37136163181495 143.84384798865722 46.10709868075152 C144.1841891019706 55.90801596861625 144.2147858376751 56.014644258296 146.84384798865722 56.56196785792737 C160.7677577048167 59.46067619920556 174.2807723183813 67.07555276508822 183.4175910532938 77.17206463899251 C189.87509637416056 84.30783924933957 196.35954623952784 96.89303900963047 198.14220350552205 105.75 L199.40015280941742 112.0 L209.62749625567574 112.0 C219.48518549494025 112.0 219.9297504522621 112.09523358684261 221.92741985096703 114.63485869180117 C224.27400712332388 117.6180609933017 224.5060940431228 119.79513852679543 222.86216412276173 123.40317168181929 C221.32449314575038 126.77799185989372 217.25643986433457 127.99999999999999 207.5593671035422 128.0 L199.41718073753788 128.0 L197.77721909203842 134.98788043052048 C192.39255527789965 157.93194561339442 173.93194561339422 176.3925552778998 150.9878804305203 181.77721909203848 L144.0 183.41718073753782 L144.0 192.16153734764308 C144.0 201.9035022655139 142.9418245721278 205.2498459665246 139.34267516111038 206.8897281822362 C135.59179987050086 208.59874133506443 133.13648068149448 208.22738977240357 130.45454545454544 205.54545454545456 Z M372.3640819089182 206.83041014022086 C369.0607882950689 205.23092790936892 368.0 201.66532834341606 368.0 192.16153734764308 L368.0 183.41718073753782 L361.01211956947964 181.77721909203842 C338.06805438660575 176.39255527789982 319.60744472210047 157.9319456133946 314.2227809079616 134.98788043052048 L312.5828192624621 127.99999999999999 L304.4406328964578 127.99999999999999 C294.74356013566563 127.99999999999999 290.6755068542496 126.77799185989365 289.1378358772383 123.40317168181926 C287.4939059568773 119.79513852679563 287.7259928766763 117.61806099330153 290.072580149033 114.63485869180118 C292.07024954773794 112.09523358684261 292.5148145050598 112.0 302.37250374432426 112.0 L312.5998471905826 112.0 L313.85779649447795 105.75 C315.64045376047216 96.89303900963047 322.1249036258395 84.30783924933975 328.5824089467068 77.17206463899228 C337.719227681619 67.0755527650883 351.2322422951844 59.46067619920515 365.1561520113428 56.56196785792734 C367.7852141623248 56.01464425829601 367.8158108980293 55.9080159686162 368.1561520113428 46.10709868075152 C368.56368058193215 34.37136163181495 369.90171297324827 32.00000000000002 376.1160324146921 31.99999999999997 C382.5940763790994 31.999999999999922 384.0 34.52680490785485 384.0 46.169509418416666 L384.0 55.96189594357011 L386.75 56.539582801605206 C400.93235769756205 59.51884158627227 412.0894587213429 65.34871798060271 421.37037037037067 74.62962962963016 C430.651282019397 83.91054127865618 436.48115841372663 95.06764230243573 439.4604171983949 109.25 L440.0381040564301 112.0 L449.8304905815829 112.0 C461.4731950921454 112.00000000000001 464.0 113.4059236209003 464.0 119.88396758530746 C464.0 126.09473786753296 461.626347710469 127.43638228344693 449.9187176136086 127.84304144205275 L440.04262795361853 128.1860828841055 L439.026890911212 131.84304144205277 C438.46823553788835 133.85436864892372 438.00864424832423 136.0024912977895 438.0055769344027 136.61664732842115 C437.9931382589644 139.10719369212833 433.39511277304325 148.90303072472238 429.2763232644786 155.21383575823242 C420.711930408709 168.33618965147215 404.78865005305414 179.29283144771352 390.25 182.0674384759261 L384.0 183.26021042263696 L384.0 193.17555975677303 C384.0 202.36963435844837 383.8214483871037 203.26946070380535 381.5454545454545 205.54545454545456 C378.9624699433424 208.12843914756664 375.923244399606 208.55378620848867 372.3640819089182 206.83041014022086 Z M128.0 161.8144512213676 C128.0 155.42625890830374 130.64045453758558 152.0 135.56353006439969 152.0 C140.79376306379342 152.0 143.2333670631428 154.7689574057608 143.77680368840316 161.32208868028965 C144.23283489729462 166.82122554048223 144.31782056291007 166.96086134828553 146.87285306733872 166.4090566165387 C148.31778388030244 166.09699809741684 152.65 164.3331762977322 156.5 162.48945261723946 C167.98715979681708 156.98837507464316 176.9743141249629 146.9500656556427 180.933089199351 135.19862167234282 C182.06989013970795 131.82407971940495 183.0 128.82389540783507 183.0 128.53154542440973 C183.0 128.23919544098436 181.1776530329021 128.0 178.9503400731158 128.0 C174.3786876651503 128.0 169.5498753362419 125.87533544753458 168.6211813422239 123.45519769303692 C167.4048811353393 120.28557016185269 168.03198118051282 116.59486003607755 170.17431402670948 114.31445122136759 C171.9269794567733 112.44882436368741 173.39680701475842 112.0 177.75376929252857 112.0 L183.15891053163818 112.0 L182.48967789628415 108.75 C181.0645157983806 101.82897347872722 174.90673523159805 91.21548107359621 169.10664641702 85.68313338753548 C163.0268448186685 79.88398489522135 153.7830417978289 74.61272790573904 147.68823693442073 73.46933562115998 L144.0 72.7774182014843 L143.98525819760297 76.63870910074215 C143.95540267339894 84.45870700851789 139.14405948907918 88.99198601975321 133.10763476749528 86.88767702897789 C129.11039963029373 85.49423335570879 128.0 83.3764689254766 128.0 77.14634882774502 L128.0 72.16121474731136 L124.25 73.17082216020661 C107.75110786403843 77.61279650821352 93.61279650821356 91.75110786403839 89.17082216020664 108.25 L88.16121474731139 112.0 L93.46982341134598 112.0 C100.36388563917417 112.0 103.4 114.26049876531742 103.4 119.39338155626348 C103.4 124.55294800498547 100.48177422376828 127.1512054008621 93.98577089981768 127.77538907098412 L88.80464591619321 128.273229580966 L89.42627915548513 131.386614790483 C90.58426494632985 137.18626578429627 95.84825070491254 146.92344970453468 100.53336831849623 151.9322193872259 C106.09653833265824 157.87969810703495 112.84083935950649 162.37386749052777 120.1473408921513 165.00229361408498 C127.88530535685346 167.7859333425253 128.0 167.7393722425694 128.0 161.8144512213676 Z M368.22221924581015 161.33387080918226 C368.762505808833 154.8187251440259 371.20079825895544 152.0 376.2963327409422 152.0 C381.35008084439306 152.0 384.0 155.35511636451483 384.0 161.75376929252857 L384.0 167.15891053163818 L387.25 166.47554874188597 C393.5362618613006 165.1537668476123 403.0550045396764 159.84353188742458 408.9936687574328 154.3453763126253 C415.0841907891595 148.7066271875186 421.2772172066622 138.25449900998535 422.59704351563715 131.386614790483 L423.1953540838068 128.273229580966 L418.0142291001823 127.77538907098412 C411.5182257762316 127.1512054008621 408.59999999999997 124.55294800498551 408.6 119.39338155626336 C408.6 114.26049876531744 411.636114360826 111.99999999999999 418.5301765886542 112.0 L423.83878525268864 112.0 L422.8291778397934 108.25 C418.38720349178635 91.75110786403818 404.24889213596146 77.61279650821325 387.75 73.17082216020663 L384.0 72.16121474731145 L384.0 77.14634882774507 C384.0 83.3764689254764 382.88960036970616 85.49423335570884 378.89236523250474 86.88767702897789 C372.8559405109207 88.9919860197532 368.0445973266011 84.45870700851802 368.014741802397 76.63870910074212 L368.0 72.77741820148425 L364.3117630655793 73.46933562115993 C358.2169582021711 74.61272790573904 348.9731551813312 79.88398489522153 342.89335358297984 85.68313338753559 C337.0932647684023 91.2154810735959 330.93548420161926 101.82897347872782 329.51032210371585 108.75 L328.8410894683618 112.0 L334.10609351281335 112.0 C342.0193727304222 112.00000000000003 345.9237195185135 116.82329235694603 343.37881865777604 123.4551976930371 C342.45012466375783 125.87533544753478 337.6213123348497 128.00000000000003 333.0496599268842 128.0 C330.8223469670979 128.0 329.0 128.2391954409844 329.0 128.53154542440973 C329.0 128.8238954078351 329.9301098602921 131.82407971940503 331.066910800649 135.19862167234294 C335.7182262241687 149.00584022380357 347.0920535355185 160.22359728646322 361.4869426088592 165.2012335743504 C364.2441241739866 166.15464467331395 366.78177644009355 166.94939893229747 367.1261698668746 166.96735414986932 C367.47056329365563 166.9853093674412 367.9637855141766 164.450241864132 368.22221924581015 161.33387080918226 Z" fill="currentColor"/></svg>
